  0
SECTION
  2
HEADER
  9
$ACADVER
  1
AC1009
  9
$FILLMODE
 70
1
  9
$EXTMIN
 10
0.0256
 20
-4.6080
 30
0.0000
  9
$EXTMAX
 10
45.8751
 20
38.2463
 30
0.0000
  0
ENDSEC
  0
SECTION
  2
TABLES
  0
TABLE
  2
LTYPE
 70
1
  0
LTYPE
  2
CONTINUOUS
 70
64
  3
Solid line
 72
65
 73
0
 40
0
  0
ENDTAB
  0
TABLE
  2
LAYER
 70
255
  0
LAYER
  2
1
 70
64
 62
4
  6
CONTINUOUS
  0
LAYER
  2
17
 70
64
 62
92
  6
CONTINUOUS
  0
LAYER
  2
18
 70
64
 62
92
  6
CONTINUOUS
  0
ENDTAB
  0
ENDSEC
  0
SECTION
  2
BLOCKS
  0
BLOCK
  8
0
  2
RECT
 70
64
 10
0.0000
 20
0.0000
 30
0.0000
  3
RECT
  0
SOLID
  8
0
 10
-0.5000
 20
-0.5000
 30
0.0000
 11
0.5000
 21
-0.5000
 31
0.0000
 12
-0.5000
 22
0.5000
 32
0.0000
 13
0.5000
 23
0.5000
 33
0.0000
  0
ENDBLK
  8
0
  0
BLOCK
  8
0
  2
PIE
 70
64
 10
0.0000
 20
0.0000
 30
0.0000
  3
PIE
  0
POLYLINE
  8
0
 66
1
 10
0.0000
 20
0.0000
 30
0.0000
 40
0.5000
 41
0.5000
 70
0
  0
VERTEX
  8
0
 10
0.0000
 20
-0.2500
 30
0.0000
 42
1.0000
  0
VERTEX
  8
0
 10
0.0000
 20
0.2500
 30
0.0000
 42
1.0000
  0
VERTEX
  8
0
 10
0.0000
 20
-0.2500
 30
0.0000
  0
SEQEND
  8
0
  0
ENDBLK
  8
0
  0
BLOCK
  8
0
  2
OCTAGONP
 70
64
 10
0.0000
 20
0.0000
 30
0.0000
  3
OCTAGONP
  0
POLYLINE
  8
0
 66
1
 10
0.0000
 20
0.0000
 30
0.0000
 40
0.5000
 41
0.5000
 70
0
  0
VERTEX
  8
0
 10
-0.2500
 20
-0.1036
 30
0.0000
  0
VERTEX
  8
0
 10
-0.2500
 20
0.1036
 30
0.0000
  0
VERTEX
  8
0
 10
-0.1036
 20
0.2500
 30
0.0000
  0
VERTEX
  8
0
 10
0.1036
 20
0.2500
 30
0.0000
  0
VERTEX
  8
0
 10
0.2500
 20
0.1036
 30
0.0000
  0
VERTEX
  8
0
 10
0.2500
 20
-0.1036
 30
0.0000
  0
VERTEX
  8
0
 10
0.1036
 20
-0.2500
 30
0.0000
  0
VERTEX
  8
0
 10
-0.1036
 20
-0.2500
 30
0.0000
  0
VERTEX
  8
0
 10
-0.2500
 20
-0.1036
 30
0.0000
  0
VERTEX
  8
0
 10
-0.2500
 20
0.1036
 30
0.0000
  0
SEQEND
  8
0
  0
ENDBLK
  8
0
  0
BLOCK
  8
0
  2
SQUAREP
 70
64
 10
0.0000
 20
0.0000
 30
0.0000
  3
SQUAREP
  0
SOLID
  8
0
 10
-0.5000
 20
-0.5000
 30
0.0000
 11
0.5000
 21
-0.5000
 31
0.0000
 12
-0.5000
 22
0.5000
 32
0.0000
 13
0.5000
 23
0.5000
 33
0.0000
  0
ENDBLK
  8
0
  0
BLOCK
  8
0
  2
ROUNDP
 70
64
 10
0.0000
 20
0.0000
 30
0.0000
  3
ROUNDP
  0
POLYLINE
  8
0
 66
1
 10
0.0000
 20
0.0000
 30
0.0000
 40
0.5000
 41
0.5000
 70
0
  0
VERTEX
  8
0
 10
0.0000
 20
-0.2500
 30
0.0000
 42
1.0000
  0
VERTEX
  8
0
 10
0.0000
 20
0.2500
 30
0.0000
 42
1.0000
  0
VERTEX
  8
0
 10
0.0000
 20
-0.2500
 30
0.0000
  0
SEQEND
  8
0
  0
ENDBLK
  8
0
  0
BLOCK
  8
0
  2
ANNULUSP
 70
64
 10
0.0000
 20
0.0000
 30
0.0000
  3
ANNULUSP
  0
POLYLINE
  8
0
 66
1
 10
0.0000
 20
0.0000
 30
0.0000
 40
0.5000
 41
0.5000
 70
0
  0
VERTEX
  8
0
 10
0.0000
 20
-0.2500
 30
0.0000
 42
1.0000
  0
VERTEX
  8
0
 10
0.0000
 20
0.2500
 30
0.0000
 42
1.0000
  0
VERTEX
  8
0
 10
0.0000
 20
-0.2500
 30
0.0000
  0
SEQEND
  8
0
  0
ENDBLK
  8
0
  0
BLOCK
  8
0
  2
THERMALP
 70
64
 10
0.0000
 20
0.0000
 30
0.0000
  3
THERMALP
  0
POLYLINE
  8
0
 66
1
 10
0.0000
 20
0.0000
 30
0.0000
 40
0.1000
 41
0.1000
 70
0
  0
VERTEX
  8
0
 10
-0.2379
 20
0.4500
 30
0.0000
  0
VERTEX
  8
0
 10
0.2379
 20
0.4500
 30
0.0000
  0
SEQEND
  8
0
  0
POLYLINE
  8
0
 66
1
 10
0.0000
 20
0.0000
 30
0.0000
 40
0.0500
 41
0.0500
 70
0
  0
VERTEX
  8
0
 10
0.2379
 20
0.4250
 30
0.0000
 42
1.0000
  0
VERTEX
  8
0
 10
0.2379
 20
0.4750
 30
0.0000
  0
SEQEND
  8
0
  0
POLYLINE
  8
0
 66
1
 10
0.0000
 20
0.0000
 30
0.0000
 40
0.0500
 41
0.0500
 70
0
  0
VERTEX
  8
0
 10
-0.2379
 20
0.4750
 30
0.0000
 42
1.0000
  0
VERTEX
  8
0
 10
-0.2379
 20
0.4250
 30
0.0000
  0
SEQEND
  8
0
  0
POLYLINE
  8
0
 66
1
 10
0.0000
 20
0.0000
 30
0.0000
 40
0.1000
 41
0.1000
 70
0
  0
VERTEX
  8
0
 10
0.4500
 20
0.2379
 30
0.0000
  0
VERTEX
  8
0
 10
0.4500
 20
-0.2379
 30
0.0000
  0
SEQEND
  8
0
  0
POLYLINE
  8
0
 66
1
 10
0.0000
 20
0.0000
 30
0.0000
 40
0.0500
 41
0.0500
 70
0
  0
VERTEX
  8
0
 10
0.4250
 20
-0.2379
 30
0.0000
 42
1.0000
  0
VERTEX
  8
0
 10
0.4750
 20
-0.2379
 30
0.0000
  0
SEQEND
  8
0
  0
POLYLINE
  8
0
 66
1
 10
0.0000
 20
0.0000
 30
0.0000
 40
0.0500
 41
0.0500
 70
0
  0
VERTEX
  8
0
 10
0.4750
 20
0.2379
 30
0.0000
 42
1.0000
  0
VERTEX
  8
0
 10
0.4250
 20
0.2379
 30
0.0000
  0
SEQEND
  8
0
  0
POLYLINE
  8
0
 66
1
 10
0.0000
 20
0.0000
 30
0.0000
 40
0.1000
 41
0.1000
 70
0
  0
VERTEX
  8
0
 10
0.2379
 20
-0.4500
 30
0.0000
  0
VERTEX
  8
0
 10
-0.2379
 20
-0.4500
 30
0.0000
  0
SEQEND
  8
0
  0
POLYLINE
  8
0
 66
1
 10
0.0000
 20
0.0000
 30
0.0000
 40
0.0500
 41
0.0500
 70
0
  0
VERTEX
  8
0
 10
-0.2379
 20
-0.4250
 30
0.0000
 42
1.0000
  0
VERTEX
  8
0
 10
-0.2379
 20
-0.4750
 30
0.0000
  0
SEQEND
  8
0
  0
POLYLINE
  8
0
 66
1
 10
0.0000
 20
0.0000
 30
0.0000
 40
0.0500
 41
0.0500
 70
0
  0
VERTEX
  8
0
 10
0.2379
 20
-0.4750
 30
0.0000
 42
1.0000
  0
VERTEX
  8
0
 10
0.2379
 20
-0.4250
 30
0.0000
  0
SEQEND
  8
0
  0
POLYLINE
  8
0
 66
1
 10
0.0000
 20
0.0000
 30
0.0000
 40
0.1000
 41
0.1000
 70
0
  0
VERTEX
  8
0
 10
-0.4500
 20
-0.2379
 30
0.0000
  0
VERTEX
  8
0
 10
-0.4500
 20
0.2379
 30
0.0000
  0
SEQEND
  8
0
  0
POLYLINE
  8
0
 66
1
 10
0.0000
 20
0.0000
 30
0.0000
 40
0.0500
 41
0.0500
 70
0
  0
VERTEX
  8
0
 10
-0.4250
 20
0.2379
 30
0.0000
 42
1.0000
  0
VERTEX
  8
0
 10
-0.4750
 20
0.2379
 30
0.0000
  0
SEQEND
  8
0
  0
POLYLINE
  8
0
 66
1
 10
0.0000
 20
0.0000
 30
0.0000
 40
0.0500
 41
0.0500
 70
0
  0
VERTEX
  8
0
 10
-0.4750
 20
-0.2379
 30
0.0000
 42
1.0000
  0
VERTEX
  8
0
 10
-0.4250
 20
-0.2379
 30
0.0000
  0
SEQEND
  8
0
  0
ENDBLK
  8
0
  0
BLOCK
  8
0
  2
OCTAGONV
 70
64
 10
0.0000
 20
0.0000
 30
0.0000
  3
OCTAGONV
  0
POLYLINE
  8
0
 66
1
 10
0.0000
 20
0.0000
 30
0.0000
 40
0.5000
 41
0.5000
 70
0
  0
VERTEX
  8
0
 10
-0.2500
 20
-0.1036
 30
0.0000
  0
VERTEX
  8
0
 10
-0.2500
 20
0.1036
 30
0.0000
  0
VERTEX
  8
0
 10
-0.1036
 20
0.2500
 30
0.0000
  0
VERTEX
  8
0
 10
0.1036
 20
0.2500
 30
0.0000
  0
VERTEX
  8
0
 10
0.2500
 20
0.1036
 30
0.0000
  0
VERTEX
  8
0
 10
0.2500
 20
-0.1036
 30
0.0000
  0
VERTEX
  8
0
 10
0.1036
 20
-0.2500
 30
0.0000
  0
VERTEX
  8
0
 10
-0.1036
 20
-0.2500
 30
0.0000
  0
VERTEX
  8
0
 10
-0.2500
 20
-0.1036
 30
0.0000
  0
VERTEX
  8
0
 10
-0.2500
 20
0.1036
 30
0.0000
  0
SEQEND
  8
0
  0
ENDBLK
  8
0
  0
BLOCK
  8
0
  2
SQUAREV
 70
64
 10
0.0000
 20
0.0000
 30
0.0000
  3
SQUAREV
  0
SOLID
  8
0
 10
-0.5000
 20
-0.5000
 30
0.0000
 11
0.5000
 21
-0.5000
 31
0.0000
 12
-0.5000
 22
0.5000
 32
0.0000
 13
0.5000
 23
0.5000
 33
0.0000
  0
ENDBLK
  8
0
  0
BLOCK
  8
0
  2
ROUNDV
 70
64
 10
0.0000
 20
0.0000
 30
0.0000
  3
ROUNDV
  0
POLYLINE
  8
0
 66
1
 10
0.0000
 20
0.0000
 30
0.0000
 40
0.5000
 41
0.5000
 70
0
  0
VERTEX
  8
0
 10
0.0000
 20
-0.2500
 30
0.0000
 42
1.0000
  0
VERTEX
  8
0
 10
0.0000
 20
0.2500
 30
0.0000
 42
1.0000
  0
VERTEX
  8
0
 10
0.0000
 20
-0.2500
 30
0.0000
  0
SEQEND
  8
0
  0
ENDBLK
  8
0
  0
BLOCK
  8
0
  2
ANNULUSV
 70
64
 10
0.0000
 20
0.0000
 30
0.0000
  3
ANNULUSV
  0
POLYLINE
  8
0
 66
1
 10
0.0000
 20
0.0000
 30
0.0000
 40
0.5000
 41
0.5000
 70
0
  0
VERTEX
  8
0
 10
0.0000
 20
-0.2500
 30
0.0000
 42
1.0000
  0
VERTEX
  8
0
 10
0.0000
 20
0.2500
 30
0.0000
 42
1.0000
  0
VERTEX
  8
0
 10
0.0000
 20
-0.2500
 30
0.0000
  0
SEQEND
  8
0
  0
ENDBLK
  8
0
  0
BLOCK
  8
0
  2
THERMALV
 70
64
 10
0.0000
 20
0.0000
 30
0.0000
  3
THERMALV
  0
POLYLINE
  8
0
 66
1
 10
0.0000
 20
0.0000
 30
0.0000
 40
0.1000
 41
0.1000
 70
0
  0
VERTEX
  8
0
 10
-0.2379
 20
0.4500
 30
0.0000
  0
VERTEX
  8
0
 10
0.2379
 20
0.4500
 30
0.0000
  0
SEQEND
  8
0
  0
POLYLINE
  8
0
 66
1
 10
0.0000
 20
0.0000
 30
0.0000
 40
0.0500
 41
0.0500
 70
0
  0
VERTEX
  8
0
 10
0.2379
 20
0.4250
 30
0.0000
 42
1.0000
  0
VERTEX
  8
0
 10
0.2379
 20
0.4750
 30
0.0000
  0
SEQEND
  8
0
  0
POLYLINE
  8
0
 66
1
 10
0.0000
 20
0.0000
 30
0.0000
 40
0.0500
 41
0.0500
 70
0
  0
VERTEX
  8
0
 10
-0.2379
 20
0.4750
 30
0.0000
 42
1.0000
  0
VERTEX
  8
0
 10
-0.2379
 20
0.4250
 30
0.0000
  0
SEQEND
  8
0
  0
POLYLINE
  8
0
 66
1
 10
0.0000
 20
0.0000
 30
0.0000
 40
0.1000
 41
0.1000
 70
0
  0
VERTEX
  8
0
 10
0.4500
 20
0.2379
 30
0.0000
  0
VERTEX
  8
0
 10
0.4500
 20
-0.2379
 30
0.0000
  0
SEQEND
  8
0
  0
POLYLINE
  8
0
 66
1
 10
0.0000
 20
0.0000
 30
0.0000
 40
0.0500
 41
0.0500
 70
0
  0
VERTEX
  8
0
 10
0.4250
 20
-0.2379
 30
0.0000
 42
1.0000
  0
VERTEX
  8
0
 10
0.4750
 20
-0.2379
 30
0.0000
  0
SEQEND
  8
0
  0
POLYLINE
  8
0
 66
1
 10
0.0000
 20
0.0000
 30
0.0000
 40
0.0500
 41
0.0500
 70
0
  0
VERTEX
  8
0
 10
0.4750
 20
0.2379
 30
0.0000
 42
1.0000
  0
VERTEX
  8
0
 10
0.4250
 20
0.2379
 30
0.0000
  0
SEQEND
  8
0
  0
POLYLINE
  8
0
 66
1
 10
0.0000
 20
0.0000
 30
0.0000
 40
0.1000
 41
0.1000
 70
0
  0
VERTEX
  8
0
 10
0.2379
 20
-0.4500
 30
0.0000
  0
VERTEX
  8
0
 10
-0.2379
 20
-0.4500
 30
0.0000
  0
SEQEND
  8
0
  0
POLYLINE
  8
0
 66
1
 10
0.0000
 20
0.0000
 30
0.0000
 40
0.0500
 41
0.0500
 70
0
  0
VERTEX
  8
0
 10
-0.2379
 20
-0.4250
 30
0.0000
 42
1.0000
  0
VERTEX
  8
0
 10
-0.2379
 20
-0.4750
 30
0.0000
  0
SEQEND
  8
0
  0
POLYLINE
  8
0
 66
1
 10
0.0000
 20
0.0000
 30
0.0000
 40
0.0500
 41
0.0500
 70
0
  0
VERTEX
  8
0
 10
0.2379
 20
-0.4750
 30
0.0000
 42
1.0000
  0
VERTEX
  8
0
 10
0.2379
 20
-0.4250
 30
0.0000
  0
SEQEND
  8
0
  0
POLYLINE
  8
0
 66
1
 10
0.0000
 20
0.0000
 30
0.0000
 40
0.1000
 41
0.1000
 70
0
  0
VERTEX
  8
0
 10
-0.4500
 20
-0.2379
 30
0.0000
  0
VERTEX
  8
0
 10
-0.4500
 20
0.2379
 30
0.0000
  0
SEQEND
  8
0
  0
POLYLINE
  8
0
 66
1
 10
0.0000
 20
0.0000
 30
0.0000
 40
0.0500
 41
0.0500
 70
0
  0
VERTEX
  8
0
 10
-0.4250
 20
0.2379
 30
0.0000
 42
1.0000
  0
VERTEX
  8
0
 10
-0.4750
 20
0.2379
 30
0.0000
  0
SEQEND
  8
0
  0
POLYLINE
  8
0
 66
1
 10
0.0000
 20
0.0000
 30
0.0000
 40
0.0500
 41
0.0500
 70
0
  0
VERTEX
  8
0
 10
-0.4750
 20
-0.2379
 30
0.0000
 42
1.0000
  0
VERTEX
  8
0
 10
-0.4250
 20
-0.2379
 30
0.0000
  0
SEQEND
  8
0
  0
ENDBLK
  8
0
  0
BLOCK
  8
0
  2
LONGP100
 70
64
 10
0.0000
 20
0.0000
 30
0.0000
  3
LONGP100
  0
POLYLINE
  8
0
 66
1
 10
0.0000
 20
0.0000
 30
0.0000
 40
0.5000
 41
0.5000
 70
0
  0
VERTEX
  8
0
 10
-0.7500
 20
-0.1036
 30
0.0000
  0
VERTEX
  8
0
 10
-0.7500
 20
0.1036
 30
0.0000
  0
VERTEX
  8
0
 10
-0.6036
 20
0.2500
 30
0.0000
  0
VERTEX
  8
0
 10
0.6036
 20
0.2500
 30
0.0000
  0
VERTEX
  8
0
 10
0.7500
 20
0.1036
 30
0.0000
  0
VERTEX
  8
0
 10
0.7500
 20
-0.1036
 30
0.0000
  0
VERTEX
  8
0
 10
0.6036
 20
-0.2500
 30
0.0000
  0
VERTEX
  8
0
 10
-0.6036
 20
-0.2500
 30
0.0000
  0
VERTEX
  8
0
 10
-0.7500
 20
-0.1036
 30
0.0000
  0
VERTEX
  8
0
 10
-0.7500
 20
0.1036
 30
0.0000
  0
SEQEND
  8
0
  0
ENDBLK
  8
0
  0
ENDSEC
  0
SECTION
  2
ENTITIES
  0
INSERT
  8
1
  2
RECT
 10
25.5400
 20
20.9550
 30
0.0000
 41
3.0000
 42
1.4000
 43
1.0000
 50
180.0000
  0
INSERT
  8
1
  2
RECT
 10
30.3400
 20
20.9550
 30
0.0000
 41
3.0000
 42
1.4000
 43
1.0000
 50
180.0000
  0
INSERT
  8
1
  2
RECT
 10
19.0500
 20
19.4070
 30
0.0000
 41
1.5000
 42
2.9000
 43
1.0000
 50
270.0000
  0
INSERT
  8
1
  2
RECT
 10
19.0500
 20
16.4070
 30
0.0000
 41
1.5000
 42
2.9000
 43
1.0000
 50
270.0000
  0
INSERT
  8
1
  2
RECT
 10
4.5720
 20
5.2310
 30
0.0000
 41
1.5000
 42
2.9000
 43
1.0000
 50
90.0000
  0
INSERT
  8
1
  2
RECT
 10
4.5720
 20
8.2310
 30
0.0000
 41
1.5000
 42
2.9000
 43
1.0000
 50
90.0000
  0
INSERT
  8
1
  2
RECT
 10
11.9620
 20
24.5110
 30
0.0000
 41
1.5000
 42
2.9000
 43
1.0000
 50
0.0000
  0
INSERT
  8
1
  2
RECT
 10
14.9620
 20
24.5110
 30
0.0000
 41
1.5000
 42
2.9000
 43
1.0000
 50
0.0000
  0
INSERT
  8
1
  2
RECT
 10
6.6280
 20
24.5110
 30
0.0000
 41
1.5000
 42
2.9000
 43
1.0000
 50
0.0000
  0
INSERT
  8
1
  2
RECT
 10
9.6280
 20
24.5110
 30
0.0000
 41
1.5000
 42
2.9000
 43
1.0000
 50
0.0000
  0
INSERT
  8
1
  2
RECT
 10
4.5720
 20
20.9310
 30
0.0000
 41
1.5000
 42
2.9000
 43
1.0000
 50
270.0000
  0
INSERT
  8
1
  2
RECT
 10
4.5720
 20
17.9310
 30
0.0000
 41
1.5000
 42
2.9000
 43
1.0000
 50
270.0000
  0
INSERT
  8
1
  2
RECT
 10
4.5720
 20
15.3430
 30
0.0000
 41
1.5000
 42
2.9000
 43
1.0000
 50
270.0000
  0
INSERT
  8
1
  2
RECT
 10
4.5720
 20
12.3430
 30
0.0000
 41
1.5000
 42
2.9000
 43
1.0000
 50
270.0000
  0
INSERT
  8
17
  2
LONGP100
 10
8.1280
 20
4.9530
 30
0.0000
 41
1.5240
 42
1.5240
 43
1.0000
 50
90.0000
  0
INSERT
  8
17
  2
LONGP100
 10
10.6680
 20
4.9530
 30
0.0000
 41
1.5240
 42
1.5240
 43
1.0000
 50
90.0000
  0
INSERT
  8
17
  2
LONGP100
 10
13.2080
 20
4.9530
 30
0.0000
 41
1.5240
 42
1.5240
 43
1.0000
 50
90.0000
  0
INSERT
  8
17
  2
LONGP100
 10
35.4330
 20
26.2890
 30
0.0000
 41
1.5240
 42
1.5240
 43
1.0000
 50
270.0000
  0
INSERT
  8
17
  2
LONGP100
 10
32.8930
 20
26.2890
 30
0.0000
 41
1.5240
 42
1.5240
 43
1.0000
 50
270.0000
  0
INSERT
  8
17
  2
LONGP100
 10
30.3530
 20
26.2890
 30
0.0000
 41
1.5240
 42
1.5240
 43
1.0000
 50
270.0000
  0
INSERT
  8
17
  2
LONGP100
 10
27.8130
 20
26.2890
 30
0.0000
 41
1.5240
 42
1.5240
 43
1.0000
 50
270.0000
  0
INSERT
  8
17
  2
LONGP100
 10
31.4960
 20
5.4610
 30
0.0000
 41
1.5240
 42
1.5240
 43
1.0000
 50
180.0000
  0
INSERT
  8
17
  2
LONGP100
 10
31.4960
 20
8.0010
 30
0.0000
 41
1.5240
 42
1.5240
 43
1.0000
 50
180.0000
  0
INSERT
  8
17
  2
LONGP100
 10
31.4960
 20
10.5410
 30
0.0000
 41
1.5240
 42
1.5240
 43
1.0000
 50
180.0000
  0
INSERT
  8
1
  2
RECT
 10
23.2410
 20
11.8710
 30
0.0000
 41
0.6000
 42
2.2000
 43
1.0000
 50
180.0000
  0
INSERT
  8
1
  2
RECT
 10
21.9710
 20
11.8710
 30
0.0000
 41
0.6000
 42
2.2000
 43
1.0000
 50
180.0000
  0
INSERT
  8
1
  2
RECT
 10
20.7010
 20
11.8710
 30
0.0000
 41
0.6000
 42
2.2000
 43
1.0000
 50
180.0000
  0
INSERT
  8
1
  2
RECT
 10
19.4310
 20
11.8710
 30
0.0000
 41
0.6000
 42
2.2000
 43
1.0000
 50
180.0000
  0
INSERT
  8
1
  2
RECT
 10
19.4310
 20
6.6710
 30
0.0000
 41
0.6000
 42
2.2000
 43
1.0000
 50
180.0000
  0
INSERT
  8
1
  2
RECT
 10
20.7010
 20
6.6710
 30
0.0000
 41
0.6000
 42
2.2000
 43
1.0000
 50
180.0000
  0
INSERT
  8
1
  2
RECT
 10
21.9710
 20
6.6710
 30
0.0000
 41
0.6000
 42
2.2000
 43
1.0000
 50
180.0000
  0
INSERT
  8
1
  2
RECT
 10
23.2410
 20
6.6710
 30
0.0000
 41
0.6000
 42
2.2000
 43
1.0000
 50
180.0000
  0
INSERT
  8
17
  2
OCTAGONP
 10
27.1780
 20
16.6370
 30
0.0000
 41
1.4224
 42
1.4224
 43
1.0000
 50
270.0000
  0
INSERT
  8
17
  2
OCTAGONP
 10
27.1780
 20
1.3970
 30
0.0000
 41
1.4224
 42
1.4224
 43
1.0000
 50
270.0000
  0
INSERT
  8
1
  2
RECT
 10
9.5920
 20
17.5260
 30
0.0000
 41
0.6000
 42
2.2000
 43
1.0000
 50
270.0000
  0
INSERT
  8
1
  2
RECT
 10
9.5920
 20
16.2560
 30
0.0000
 41
0.6000
 42
2.2000
 43
1.0000
 50
270.0000
  0
INSERT
  8
1
  2
RECT
 10
9.5920
 20
14.9860
 30
0.0000
 41
0.6000
 42
2.2000
 43
1.0000
 50
270.0000
  0
INSERT
  8
1
  2
RECT
 10
9.5920
 20
13.7160
 30
0.0000
 41
0.6000
 42
2.2000
 43
1.0000
 50
270.0000
  0
INSERT
  8
1
  2
RECT
 10
9.5920
 20
12.4460
 30
0.0000
 41
0.6000
 42
2.2000
 43
1.0000
 50
270.0000
  0
INSERT
  8
1
  2
RECT
 10
9.5920
 20
11.1760
 30
0.0000
 41
0.6000
 42
2.2000
 43
1.0000
 50
270.0000
  0
INSERT
  8
1
  2
RECT
 10
9.5920
 20
9.9060
 30
0.0000
 41
0.6000
 42
2.2000
 43
1.0000
 50
270.0000
  0
INSERT
  8
1
  2
RECT
 10
9.5920
 20
8.6360
 30
0.0000
 41
0.6000
 42
2.2000
 43
1.0000
 50
270.0000
  0
INSERT
  8
1
  2
RECT
 10
14.7920
 20
8.6360
 30
0.0000
 41
0.6000
 42
2.2000
 43
1.0000
 50
270.0000
  0
INSERT
  8
1
  2
RECT
 10
14.7920
 20
9.9060
 30
0.0000
 41
0.6000
 42
2.2000
 43
1.0000
 50
270.0000
  0
INSERT
  8
1
  2
RECT
 10
14.7920
 20
11.1760
 30
0.0000
 41
0.6000
 42
2.2000
 43
1.0000
 50
270.0000
  0
INSERT
  8
1
  2
RECT
 10
14.7920
 20
12.4460
 30
0.0000
 41
0.6000
 42
2.2000
 43
1.0000
 50
270.0000
  0
INSERT
  8
1
  2
RECT
 10
14.7920
 20
13.7160
 30
0.0000
 41
0.6000
 42
2.2000
 43
1.0000
 50
270.0000
  0
INSERT
  8
1
  2
RECT
 10
14.7920
 20
14.9860
 30
0.0000
 41
0.6000
 42
2.2000
 43
1.0000
 50
270.0000
  0
INSERT
  8
1
  2
RECT
 10
14.7920
 20
16.2560
 30
0.0000
 41
0.6000
 42
2.2000
 43
1.0000
 50
270.0000
  0
INSERT
  8
1
  2
RECT
 10
14.7920
 20
17.5260
 30
0.0000
 41
0.6000
 42
2.2000
 43
1.0000
 50
270.0000
  0
POLYLINE
  8
29
 66
1
 10
0.0000
 20
0.0000
 30
0.0000
 40
1.7016
 41
1.7016
 70
0
  0
VERTEX
  8
29
 10
4.5720
 20
32.6772
 30
0.0000
 42
1.0000
  0
VERTEX
  8
29
 10
4.5720
 20
34.3788
 30
0.0000
 42
1.0000
  0
VERTEX
  8
29
 10
4.5720
 20
32.6772
 30
0.0000
  0
SEQEND
  8
0
  0
POLYLINE
  8
30
 66
1
 10
0.0000
 20
0.0000
 30
0.0000
 40
1.7016
 41
1.7016
 70
0
  0
VERTEX
  8
30
 10
4.5720
 20
32.6772
 30
0.0000
 42
1.0000
  0
VERTEX
  8
30
 10
4.5720
 20
34.3788
 30
0.0000
 42
1.0000
  0
VERTEX
  8
30
 10
4.5720
 20
32.6772
 30
0.0000
  0
SEQEND
  8
0
  0
POLYLINE
  8
29
 66
1
 10
0.0000
 20
0.0000
 30
0.0000
 40
1.7016
 41
1.7016
 70
0
  0
VERTEX
  8
29
 10
30.2260
 20
32.6772
 30
0.0000
 42
1.0000
  0
VERTEX
  8
29
 10
30.2260
 20
34.3788
 30
0.0000
 42
1.0000
  0
VERTEX
  8
29
 10
30.2260
 20
32.6772
 30
0.0000
  0
SEQEND
  8
0
  0
POLYLINE
  8
30
 66
1
 10
0.0000
 20
0.0000
 30
0.0000
 40
1.7016
 41
1.7016
 70
0
  0
VERTEX
  8
30
 10
30.2260
 20
32.6772
 30
0.0000
 42
1.0000
  0
VERTEX
  8
30
 10
30.2260
 20
34.3788
 30
0.0000
 42
1.0000
  0
VERTEX
  8
30
 10
30.2260
 20
32.6772
 30
0.0000
  0
SEQEND
  8
0
  0
INSERT
  8
1
  2
RECT
 10
18.7708
 20
22.3016
 30
0.0000
 41
2.1844
 42
1.0668
 43
1.0000
 50
90.0000
  0
INSERT
  8
1
  2
RECT
 10
21.0822
 20
22.3012
 30
0.0000
 41
2.1844
 42
1.0668
 43
1.0000
 50
90.0000
  0
INSERT
  8
1
  2
RECT
 10
23.3936
 20
22.3008
 30
0.0000
 41
2.1844
 42
1.0668
 43
1.0000
 50
90.0000
  0
INSERT
  8
1
  2
RECT
 10
21.0820
 20
29.1848
 30
0.0000
 41
3.5000
 42
1.4000
 43
1.0000
 50
0.0000
  0
POLYLINE
  8
1
 66
1
 10
0.0000
 20
0.0000
 30
0.0000
 40
0.6096
 41
0.6096
 70
0
  0
VERTEX
  8
1
 10
9.3980
 20
24.5110
 30
0.0000
  0
VERTEX
  8
1
 10
11.9620
 20
24.5110
 30
0.0000
  0
SEQEND
  8
0
  0
POLYLINE
  8
1
 66
1
 10
0.0000
 20
0.0000
 30
0.0000
 40
0.3048
 41
0.3048
 70
0
  0
VERTEX
  8
1
 10
11.9620
 20
24.3586
 30
0.0000
 42
1.0000
  0
VERTEX
  8
1
 10
11.9620
 20
24.6634
 30
0.0000
  0
SEQEND
  8
0
  0
POLYLINE
  8
1
 66
1
 10
0.0000
 20
0.0000
 30
0.0000
 40
0.3048
 41
0.3048
 70
0
  0
VERTEX
  8
1
 10
9.3980
 20
24.6634
 30
0.0000
 42
1.0000
  0
VERTEX
  8
1
 10
9.3980
 20
24.3586
 30
0.0000
  0
SEQEND
  8
0
  0
POLYLINE
  8
1
 66
1
 10
0.0000
 20
0.0000
 30
0.0000
 40
0.6096
 41
0.6096
 70
0
  0
VERTEX
  8
1
 10
9.3980
 20
24.5110
 30
0.0000
  0
VERTEX
  8
1
 10
9.6280
 20
24.5110
 30
0.0000
  0
SEQEND
  8
0
  0
POLYLINE
  8
1
 66
1
 10
0.0000
 20
0.0000
 30
0.0000
 40
0.3048
 41
0.3048
 70
0
  0
VERTEX
  8
1
 10
9.6280
 20
24.3586
 30
0.0000
 42
1.0000
  0
VERTEX
  8
1
 10
9.6280
 20
24.6634
 30
0.0000
  0
SEQEND
  8
0
  0
POLYLINE
  8
1
 66
1
 10
0.0000
 20
0.0000
 30
0.0000
 40
0.3048
 41
0.3048
 70
0
  0
VERTEX
  8
1
 10
9.3980
 20
24.6634
 30
0.0000
 42
1.0000
  0
VERTEX
  8
1
 10
9.3980
 20
24.3586
 30
0.0000
  0
SEQEND
  8
0
  0
POLYLINE
  8
1
 66
1
 10
0.0000
 20
0.0000
 30
0.0000
 40
0.6096
 41
0.6096
 70
0
  0
VERTEX
  8
1
 10
11.9620
 20
24.5110
 30
0.0000
  0
VERTEX
  8
1
 10
12.0650
 20
24.4080
 30
0.0000
  0
SEQEND
  8
0
  0
POLYLINE
  8
1
 66
1
 10
0.0000
 20
0.0000
 30
0.0000
 40
0.3048
 41
0.3048
 70
0
  0
VERTEX
  8
1
 10
11.9572
 20
24.3002
 30
0.0000
 42
1.0000
  0
VERTEX
  8
1
 10
12.1728
 20
24.5158
 30
0.0000
  0
SEQEND
  8
0
  0
POLYLINE
  8
1
 66
1
 10
0.0000
 20
0.0000
 30
0.0000
 40
0.3048
 41
0.3048
 70
0
  0
VERTEX
  8
1
 10
12.0698
 20
24.6188
 30
0.0000
 42
1.0000
  0
VERTEX
  8
1
 10
11.8542
 20
24.4032
 30
0.0000
  0
SEQEND
  8
0
  0
POLYLINE
  8
1
 66
1
 10
0.0000
 20
0.0000
 30
0.0000
 40
0.6096
 41
0.6096
 70
0
  0
VERTEX
  8
1
 10
12.0650
 20
20.4470
 30
0.0000
  0
VERTEX
  8
1
 10
12.0650
 20
24.4080
 30
0.0000
  0
SEQEND
  8
0
  0
POLYLINE
  8
1
 66
1
 10
0.0000
 20
0.0000
 30
0.0000
 40
0.3048
 41
0.3048
 70
0
  0
VERTEX
  8
1
 10
12.2174
 20
24.4080
 30
0.0000
 42
1.0000
  0
VERTEX
  8
1
 10
11.9126
 20
24.4080
 30
0.0000
  0
SEQEND
  8
0
  0
POLYLINE
  8
1
 66
1
 10
0.0000
 20
0.0000
 30
0.0000
 40
0.3048
 41
0.3048
 70
0
  0
VERTEX
  8
1
 10
11.9126
 20
20.4470
 30
0.0000
 42
1.0000
  0
VERTEX
  8
1
 10
12.2174
 20
20.4470
 30
0.0000
  0
SEQEND
  8
0
  0
POLYLINE
  8
1
 66
1
 10
0.0000
 20
0.0000
 30
0.0000
 40
0.6096
 41
0.6096
 70
0
  0
VERTEX
  8
1
 10
23.3680
 20
22.2752
 30
0.0000
  0
VERTEX
  8
1
 10
23.3936
 20
22.3008
 30
0.0000
  0
SEQEND
  8
0
  0
POLYLINE
  8
1
 66
1
 10
0.0000
 20
0.0000
 30
0.0000
 40
0.3048
 41
0.3048
 70
0
  0
VERTEX
  8
1
 10
23.5014
 20
22.1930
 30
0.0000
 42
1.0000
  0
VERTEX
  8
1
 10
23.2858
 20
22.4086
 30
0.0000
  0
SEQEND
  8
0
  0
POLYLINE
  8
1
 66
1
 10
0.0000
 20
0.0000
 30
0.0000
 40
0.3048
 41
0.3048
 70
0
  0
VERTEX
  8
1
 10
23.2602
 20
22.3830
 30
0.0000
 42
1.0000
  0
VERTEX
  8
1
 10
23.4758
 20
22.1674
 30
0.0000
  0
SEQEND
  8
0
  0
POLYLINE
  8
1
 66
1
 10
0.0000
 20
0.0000
 30
0.0000
 40
0.6096
 41
0.6096
 70
0
  0
VERTEX
  8
1
 10
23.3680
 20
20.9550
 30
0.0000
  0
VERTEX
  8
1
 10
23.3680
 20
22.2752
 30
0.0000
  0
SEQEND
  8
0
  0
POLYLINE
  8
1
 66
1
 10
0.0000
 20
0.0000
 30
0.0000
 40
0.3048
 41
0.3048
 70
0
  0
VERTEX
  8
1
 10
23.5204
 20
22.2752
 30
0.0000
 42
1.0000
  0
VERTEX
  8
1
 10
23.2156
 20
22.2752
 30
0.0000
  0
SEQEND
  8
0
  0
POLYLINE
  8
1
 66
1
 10
0.0000
 20
0.0000
 30
0.0000
 40
0.3048
 41
0.3048
 70
0
  0
VERTEX
  8
1
 10
23.2156
 20
20.9550
 30
0.0000
 42
1.0000
  0
VERTEX
  8
1
 10
23.5204
 20
20.9550
 30
0.0000
  0
SEQEND
  8
0
  0
POLYLINE
  8
1
 66
1
 10
0.0000
 20
0.0000
 30
0.0000
 40
0.6096
 41
0.6096
 70
0
  0
VERTEX
  8
1
 10
14.7320
 20
17.5860
 30
0.0000
  0
VERTEX
  8
1
 10
14.7920
 20
17.5260
 30
0.0000
  0
SEQEND
  8
0
  0
POLYLINE
  8
1
 66
1
 10
0.0000
 20
0.0000
 30
0.0000
 40
0.3048
 41
0.3048
 70
0
  0
VERTEX
  8
1
 10
14.6842
 20
17.4182
 30
0.0000
 42
1.0000
  0
VERTEX
  8
1
 10
14.8998
 20
17.6338
 30
0.0000
  0
SEQEND
  8
0
  0
POLYLINE
  8
1
 66
1
 10
0.0000
 20
0.0000
 30
0.0000
 40
0.3048
 41
0.3048
 70
0
  0
VERTEX
  8
1
 10
14.8398
 20
17.6938
 30
0.0000
 42
1.0000
  0
VERTEX
  8
1
 10
14.6242
 20
17.4782
 30
0.0000
  0
SEQEND
  8
0
  0
POLYLINE
  8
1
 66
1
 10
0.0000
 20
0.0000
 30
0.0000
 40
0.6096
 41
0.6096
 70
0
  0
VERTEX
  8
1
 10
14.7320
 20
17.7800
 30
0.0000
  0
VERTEX
  8
1
 10
14.7320
 20
17.5860
 30
0.0000
  0
SEQEND
  8
0
  0
POLYLINE
  8
1
 66
1
 10
0.0000
 20
0.0000
 30
0.0000
 40
0.3048
 41
0.3048
 70
0
  0
VERTEX
  8
1
 10
14.5796
 20
17.5860
 30
0.0000
 42
1.0000
  0
VERTEX
  8
1
 10
14.8844
 20
17.5860
 30
0.0000
  0
SEQEND
  8
0
  0
POLYLINE
  8
1
 66
1
 10
0.0000
 20
0.0000
 30
0.0000
 40
0.3048
 41
0.3048
 70
0
  0
VERTEX
  8
1
 10
14.8844
 20
17.7800
 30
0.0000
 42
1.0000
  0
VERTEX
  8
1
 10
14.5796
 20
17.7800
 30
0.0000
  0
SEQEND
  8
0
  0
POLYLINE
  8
1
 66
1
 10
0.0000
 20
0.0000
 30
0.0000
 40
0.6096
 41
0.6096
 70
0
  0
VERTEX
  8
1
 10
12.0650
 20
20.4470
 30
0.0000
  0
VERTEX
  8
1
 10
14.7320
 20
17.7800
 30
0.0000
  0
SEQEND
  8
0
  0
POLYLINE
  8
1
 66
1
 10
0.0000
 20
0.0000
 30
0.0000
 40
0.3048
 41
0.3048
 70
0
  0
VERTEX
  8
1
 10
14.6242
 20
17.6722
 30
0.0000
 42
1.0000
  0
VERTEX
  8
1
 10
14.8398
 20
17.8878
 30
0.0000
  0
SEQEND
  8
0
  0
POLYLINE
  8
1
 66
1
 10
0.0000
 20
0.0000
 30
0.0000
 40
0.3048
 41
0.3048
 70
0
  0
VERTEX
  8
1
 10
12.1728
 20
20.5548
 30
0.0000
 42
1.0000
  0
VERTEX
  8
1
 10
11.9572
 20
20.3392
 30
0.0000
  0
SEQEND
  8
0
  0
POLYLINE
  8
1
 66
1
 10
0.0000
 20
0.0000
 30
0.0000
 40
0.6096
 41
0.6096
 70
0
  0
VERTEX
  8
1
 10
12.0650
 20
24.5110
 30
0.0000
  0
VERTEX
  8
1
 10
12.0650
 20
20.4470
 30
0.0000
  0
SEQEND
  8
0
  0
POLYLINE
  8
1
 66
1
 10
0.0000
 20
0.0000
 30
0.0000
 40
0.3048
 41
0.3048
 70
0
  0
VERTEX
  8
1
 10
11.9126
 20
20.4470
 30
0.0000
 42
1.0000
  0
VERTEX
  8
1
 10
12.2174
 20
20.4470
 30
0.0000
  0
SEQEND
  8
0
  0
POLYLINE
  8
1
 66
1
 10
0.0000
 20
0.0000
 30
0.0000
 40
0.3048
 41
0.3048
 70
0
  0
VERTEX
  8
1
 10
12.2174
 20
24.5110
 30
0.0000
 42
1.0000
  0
VERTEX
  8
1
 10
11.9126
 20
24.5110
 30
0.0000
  0
SEQEND
  8
0
  0
POLYLINE
  8
1
 66
1
 10
0.0000
 20
0.0000
 30
0.0000
 40
0.6096
 41
0.6096
 70
0
  0
VERTEX
  8
1
 10
9.3980
 20
24.5110
 30
0.0000
  0
VERTEX
  8
1
 10
12.0650
 20
24.5110
 30
0.0000
  0
SEQEND
  8
0
  0
POLYLINE
  8
1
 66
1
 10
0.0000
 20
0.0000
 30
0.0000
 40
0.3048
 41
0.3048
 70
0
  0
VERTEX
  8
1
 10
12.0650
 20
24.3586
 30
0.0000
 42
1.0000
  0
VERTEX
  8
1
 10
12.0650
 20
24.6634
 30
0.0000
  0
SEQEND
  8
0
  0
POLYLINE
  8
1
 66
1
 10
0.0000
 20
0.0000
 30
0.0000
 40
0.3048
 41
0.3048
 70
0
  0
VERTEX
  8
1
 10
9.3980
 20
24.6634
 30
0.0000
 42
1.0000
  0
VERTEX
  8
1
 10
9.3980
 20
24.3586
 30
0.0000
  0
SEQEND
  8
0
  0
POLYLINE
  8
1
 66
1
 10
0.0000
 20
0.0000
 30
0.0000
 40
0.6096
 41
0.6096
 70
0
  0
VERTEX
  8
1
 10
9.2710
 20
24.6380
 30
0.0000
  0
VERTEX
  8
1
 10
9.3980
 20
24.5110
 30
0.0000
  0
SEQEND
  8
0
  0
POLYLINE
  8
1
 66
1
 10
0.0000
 20
0.0000
 30
0.0000
 40
0.3048
 41
0.3048
 70
0
  0
VERTEX
  8
1
 10
9.2902
 20
24.4032
 30
0.0000
 42
1.0000
  0
VERTEX
  8
1
 10
9.5058
 20
24.6188
 30
0.0000
  0
SEQEND
  8
0
  0
POLYLINE
  8
1
 66
1
 10
0.0000
 20
0.0000
 30
0.0000
 40
0.3048
 41
0.3048
 70
0
  0
VERTEX
  8
1
 10
9.3788
 20
24.7458
 30
0.0000
 42
1.0000
  0
VERTEX
  8
1
 10
9.1632
 20
24.5302
 30
0.0000
  0
SEQEND
  8
0
  0
POLYLINE
  8
1
 66
1
 10
0.0000
 20
0.0000
 30
0.0000
 40
0.6096
 41
0.6096
 70
0
  0
VERTEX
  8
1
 10
9.2710
 20
26.1620
 30
0.0000
  0
VERTEX
  8
1
 10
9.2710
 20
24.6380
 30
0.0000
  0
SEQEND
  8
0
  0
POLYLINE
  8
1
 66
1
 10
0.0000
 20
0.0000
 30
0.0000
 40
0.3048
 41
0.3048
 70
0
  0
VERTEX
  8
1
 10
9.1186
 20
24.6380
 30
0.0000
 42
1.0000
  0
VERTEX
  8
1
 10
9.4234
 20
24.6380
 30
0.0000
  0
SEQEND
  8
0
  0
POLYLINE
  8
1
 66
1
 10
0.0000
 20
0.0000
 30
0.0000
 40
0.3048
 41
0.3048
 70
0
  0
VERTEX
  8
1
 10
9.4234
 20
26.1620
 30
0.0000
 42
1.0000
  0
VERTEX
  8
1
 10
9.1186
 20
26.1620
 30
0.0000
  0
SEQEND
  8
0
  0
POLYLINE
  8
1
 66
1
 10
0.0000
 20
0.0000
 30
0.0000
 40
0.6096
 41
0.6096
 70
0
  0
VERTEX
  8
1
 10
8.2550
 20
27.1780
 30
0.0000
  0
VERTEX
  8
1
 10
9.2710
 20
26.1620
 30
0.0000
  0
SEQEND
  8
0
  0
POLYLINE
  8
1
 66
1
 10
0.0000
 20
0.0000
 30
0.0000
 40
0.3048
 41
0.3048
 70
0
  0
VERTEX
  8
1
 10
9.1632
 20
26.0542
 30
0.0000
 42
1.0000
  0
VERTEX
  8
1
 10
9.3788
 20
26.2698
 30
0.0000
  0
SEQEND
  8
0
  0
POLYLINE
  8
1
 66
1
 10
0.0000
 20
0.0000
 30
0.0000
 40
0.3048
 41
0.3048
 70
0
  0
VERTEX
  8
1
 10
8.3628
 20
27.2858
 30
0.0000
 42
1.0000
  0
VERTEX
  8
1
 10
8.1472
 20
27.0702
 30
0.0000
  0
SEQEND
  8
0
  0
POLYLINE
  8
1
 66
1
 10
0.0000
 20
0.0000
 30
0.0000
 40
0.6096
 41
0.6096
 70
0
  0
VERTEX
  8
1
 10
3.8100
 20
27.1780
 30
0.0000
  0
VERTEX
  8
1
 10
8.2550
 20
27.1780
 30
0.0000
  0
SEQEND
  8
0
  0
POLYLINE
  8
1
 66
1
 10
0.0000
 20
0.0000
 30
0.0000
 40
0.3048
 41
0.3048
 70
0
  0
VERTEX
  8
1
 10
8.2550
 20
27.0256
 30
0.0000
 42
1.0000
  0
VERTEX
  8
1
 10
8.2550
 20
27.3304
 30
0.0000
  0
SEQEND
  8
0
  0
POLYLINE
  8
1
 66
1
 10
0.0000
 20
0.0000
 30
0.0000
 40
0.3048
 41
0.3048
 70
0
  0
VERTEX
  8
1
 10
3.8100
 20
27.3304
 30
0.0000
 42
1.0000
  0
VERTEX
  8
1
 10
3.8100
 20
27.0256
 30
0.0000
  0
SEQEND
  8
0
  0
POLYLINE
  8
1
 66
1
 10
0.0000
 20
0.0000
 30
0.0000
 40
0.6096
 41
0.6096
 70
0
  0
VERTEX
  8
1
 10
1.7780
 20
25.1460
 30
0.0000
  0
VERTEX
  8
1
 10
3.8100
 20
27.1780
 30
0.0000
  0
SEQEND
  8
0
  0
POLYLINE
  8
1
 66
1
 10
0.0000
 20
0.0000
 30
0.0000
 40
0.3048
 41
0.3048
 70
0
  0
VERTEX
  8
1
 10
3.9178
 20
27.0702
 30
0.0000
 42
1.0000
  0
VERTEX
  8
1
 10
3.7022
 20
27.2858
 30
0.0000
  0
SEQEND
  8
0
  0
POLYLINE
  8
1
 66
1
 10
0.0000
 20
0.0000
 30
0.0000
 40
0.3048
 41
0.3048
 70
0
  0
VERTEX
  8
1
 10
1.6702
 20
25.2538
 30
0.0000
 42
1.0000
  0
VERTEX
  8
1
 10
1.8858
 20
25.0382
 30
0.0000
  0
SEQEND
  8
0
  0
POLYLINE
  8
1
 66
1
 10
0.0000
 20
0.0000
 30
0.0000
 40
0.6096
 41
0.6096
 70
0
  0
VERTEX
  8
1
 10
1.7780
 20
4.1910
 30
0.0000
  0
VERTEX
  8
1
 10
1.7780
 20
25.1460
 30
0.0000
  0
SEQEND
  8
0
  0
POLYLINE
  8
1
 66
1
 10
0.0000
 20
0.0000
 30
0.0000
 40
0.3048
 41
0.3048
 70
0
  0
VERTEX
  8
1
 10
1.9304
 20
25.1460
 30
0.0000
 42
1.0000
  0
VERTEX
  8
1
 10
1.6256
 20
25.1460
 30
0.0000
  0
SEQEND
  8
0
  0
POLYLINE
  8
1
 66
1
 10
0.0000
 20
0.0000
 30
0.0000
 40
0.3048
 41
0.3048
 70
0
  0
VERTEX
  8
1
 10
1.6256
 20
4.1910
 30
0.0000
 42
1.0000
  0
VERTEX
  8
1
 10
1.9304
 20
4.1910
 30
0.0000
  0
SEQEND
  8
0
  0
POLYLINE
  8
1
 66
1
 10
0.0000
 20
0.0000
 30
0.0000
 40
0.6096
 41
0.6096
 70
0
  0
VERTEX
  8
1
 10
4.9530
 20
1.0160
 30
0.0000
  0
VERTEX
  8
1
 10
1.7780
 20
4.1910
 30
0.0000
  0
SEQEND
  8
0
  0
POLYLINE
  8
1
 66
1
 10
0.0000
 20
0.0000
 30
0.0000
 40
0.3048
 41
0.3048
 70
0
  0
VERTEX
  8
1
 10
1.8858
 20
4.2988
 30
0.0000
 42
1.0000
  0
VERTEX
  8
1
 10
1.6702
 20
4.0832
 30
0.0000
  0
SEQEND
  8
0
  0
POLYLINE
  8
1
 66
1
 10
0.0000
 20
0.0000
 30
0.0000
 40
0.3048
 41
0.3048
 70
0
  0
VERTEX
  8
1
 10
4.8452
 20
0.9082
 30
0.0000
 42
1.0000
  0
VERTEX
  8
1
 10
5.0608
 20
1.1238
 30
0.0000
  0
SEQEND
  8
0
  0
POLYLINE
  8
1
 66
1
 10
0.0000
 20
0.0000
 30
0.0000
 40
0.6096
 41
0.6096
 70
0
  0
VERTEX
  8
1
 10
4.9530
 20
1.0160
 30
0.0000
  0
VERTEX
  8
1
 10
19.0500
 20
1.0160
 30
0.0000
  0
SEQEND
  8
0
  0
POLYLINE
  8
1
 66
1
 10
0.0000
 20
0.0000
 30
0.0000
 40
0.3048
 41
0.3048
 70
0
  0
VERTEX
  8
1
 10
19.0500
 20
0.8636
 30
0.0000
 42
1.0000
  0
VERTEX
  8
1
 10
19.0500
 20
1.1684
 30
0.0000
  0
SEQEND
  8
0
  0
POLYLINE
  8
1
 66
1
 10
0.0000
 20
0.0000
 30
0.0000
 40
0.3048
 41
0.3048
 70
0
  0
VERTEX
  8
1
 10
4.9530
 20
1.1684
 30
0.0000
 42
1.0000
  0
VERTEX
  8
1
 10
4.9530
 20
0.8636
 30
0.0000
  0
SEQEND
  8
0
  0
POLYLINE
  8
1
 66
1
 10
0.0000
 20
0.0000
 30
0.0000
 40
0.6096
 41
0.6096
 70
0
  0
VERTEX
  8
1
 10
19.0500
 20
1.0160
 30
0.0000
  0
VERTEX
  8
1
 10
21.9710
 20
3.9370
 30
0.0000
  0
SEQEND
  8
0
  0
POLYLINE
  8
1
 66
1
 10
0.0000
 20
0.0000
 30
0.0000
 40
0.3048
 41
0.3048
 70
0
  0
VERTEX
  8
1
 10
22.0788
 20
3.8292
 30
0.0000
 42
1.0000
  0
VERTEX
  8
1
 10
21.8632
 20
4.0448
 30
0.0000
  0
SEQEND
  8
0
  0
POLYLINE
  8
1
 66
1
 10
0.0000
 20
0.0000
 30
0.0000
 40
0.3048
 41
0.3048
 70
0
  0
VERTEX
  8
1
 10
18.9422
 20
1.1238
 30
0.0000
 42
1.0000
  0
VERTEX
  8
1
 10
19.1578
 20
0.9082
 30
0.0000
  0
SEQEND
  8
0
  0
POLYLINE
  8
1
 66
1
 10
0.0000
 20
0.0000
 30
0.0000
 40
0.6096
 41
0.6096
 70
0
  0
VERTEX
  8
1
 10
21.9710
 20
3.9370
 30
0.0000
  0
VERTEX
  8
1
 10
21.9710
 20
6.6710
 30
0.0000
  0
SEQEND
  8
0
  0
POLYLINE
  8
1
 66
1
 10
0.0000
 20
0.0000
 30
0.0000
 40
0.3048
 41
0.3048
 70
0
  0
VERTEX
  8
1
 10
22.1234
 20
6.6710
 30
0.0000
 42
1.0000
  0
VERTEX
  8
1
 10
21.8186
 20
6.6710
 30
0.0000
  0
SEQEND
  8
0
  0
POLYLINE
  8
1
 66
1
 10
0.0000
 20
0.0000
 30
0.0000
 40
0.3048
 41
0.3048
 70
0
  0
VERTEX
  8
1
 10
21.8186
 20
3.9370
 30
0.0000
 42
1.0000
  0
VERTEX
  8
1
 10
22.1234
 20
3.9370
 30
0.0000
  0
SEQEND
  8
0
  0
POLYLINE
  8
1
 66
1
 10
0.0000
 20
0.0000
 30
0.0000
 40
0.6096
 41
0.6096
 70
0
  0
VERTEX
  8
1
 10
14.7320
 20
17.7800
 30
0.0000
  0
VERTEX
  8
1
 10
14.7320
 20
17.9070
 30
0.0000
  0
SEQEND
  8
0
  0
POLYLINE
  8
1
 66
1
 10
0.0000
 20
0.0000
 30
0.0000
 40
0.3048
 41
0.3048
 70
0
  0
VERTEX
  8
1
 10
14.8844
 20
17.9070
 30
0.0000
 42
1.0000
  0
VERTEX
  8
1
 10
14.5796
 20
17.9070
 30
0.0000
  0
SEQEND
  8
0
  0
POLYLINE
  8
1
 66
1
 10
0.0000
 20
0.0000
 30
0.0000
 40
0.3048
 41
0.3048
 70
0
  0
VERTEX
  8
1
 10
14.5796
 20
17.7800
 30
0.0000
 42
1.0000
  0
VERTEX
  8
1
 10
14.8844
 20
17.7800
 30
0.0000
  0
SEQEND
  8
0
  0
POLYLINE
  8
1
 66
1
 10
0.0000
 20
0.0000
 30
0.0000
 40
0.6096
 41
0.6096
 70
0
  0
VERTEX
  8
1
 10
14.7320
 20
17.9070
 30
0.0000
  0
VERTEX
  8
1
 10
21.3360
 20
17.9070
 30
0.0000
  0
SEQEND
  8
0
  0
POLYLINE
  8
1
 66
1
 10
0.0000
 20
0.0000
 30
0.0000
 40
0.3048
 41
0.3048
 70
0
  0
VERTEX
  8
1
 10
21.3360
 20
17.7546
 30
0.0000
 42
1.0000
  0
VERTEX
  8
1
 10
21.3360
 20
18.0594
 30
0.0000
  0
SEQEND
  8
0
  0
POLYLINE
  8
1
 66
1
 10
0.0000
 20
0.0000
 30
0.0000
 40
0.3048
 41
0.3048
 70
0
  0
VERTEX
  8
1
 10
14.7320
 20
18.0594
 30
0.0000
 42
1.0000
  0
VERTEX
  8
1
 10
14.7320
 20
17.7546
 30
0.0000
  0
SEQEND
  8
0
  0
POLYLINE
  8
1
 66
1
 10
0.0000
 20
0.0000
 30
0.0000
 40
0.6096
 41
0.6096
 70
0
  0
VERTEX
  8
1
 10
21.3360
 20
17.9070
 30
0.0000
  0
VERTEX
  8
1
 10
24.1300
 20
20.7010
 30
0.0000
  0
SEQEND
  8
0
  0
POLYLINE
  8
1
 66
1
 10
0.0000
 20
0.0000
 30
0.0000
 40
0.3048
 41
0.3048
 70
0
  0
VERTEX
  8
1
 10
24.2378
 20
20.5932
 30
0.0000
 42
1.0000
  0
VERTEX
  8
1
 10
24.0222
 20
20.8088
 30
0.0000
  0
SEQEND
  8
0
  0
POLYLINE
  8
1
 66
1
 10
0.0000
 20
0.0000
 30
0.0000
 40
0.3048
 41
0.3048
 70
0
  0
VERTEX
  8
1
 10
21.2282
 20
18.0148
 30
0.0000
 42
1.0000
  0
VERTEX
  8
1
 10
21.4438
 20
17.7992
 30
0.0000
  0
SEQEND
  8
0
  0
POLYLINE
  8
1
 66
1
 10
0.0000
 20
0.0000
 30
0.0000
 40
0.6096
 41
0.6096
 70
0
  0
VERTEX
  8
1
 10
24.1300
 20
20.7010
 30
0.0000
  0
VERTEX
  8
1
 10
24.8920
 20
20.7010
 30
0.0000
  0
SEQEND
  8
0
  0
POLYLINE
  8
1
 66
1
 10
0.0000
 20
0.0000
 30
0.0000
 40
0.3048
 41
0.3048
 70
0
  0
VERTEX
  8
1
 10
24.8920
 20
20.5486
 30
0.0000
 42
1.0000
  0
VERTEX
  8
1
 10
24.8920
 20
20.8534
 30
0.0000
  0
SEQEND
  8
0
  0
POLYLINE
  8
1
 66
1
 10
0.0000
 20
0.0000
 30
0.0000
 40
0.3048
 41
0.3048
 70
0
  0
VERTEX
  8
1
 10
24.1300
 20
20.8534
 30
0.0000
 42
1.0000
  0
VERTEX
  8
1
 10
24.1300
 20
20.5486
 30
0.0000
  0
SEQEND
  8
0
  0
POLYLINE
  8
1
 66
1
 10
0.0000
 20
0.0000
 30
0.0000
 40
0.6096
 41
0.6096
 70
0
  0
VERTEX
  8
1
 10
23.1810
 20
6.2230
 30
0.0000
  0
VERTEX
  8
1
 10
23.2410
 20
6.6710
 30
0.0000
  0
SEQEND
  8
0
  0
POLYLINE
  8
1
 66
1
 10
0.0000
 20
0.0000
 30
0.0000
 40
0.3048
 41
0.3048
 70
0
  0
VERTEX
  8
1
 10
23.3921
 20
6.6508
 30
0.0000
 42
1.0000
  0
VERTEX
  8
1
 10
23.0899
 20
6.6912
 30
0.0000
  0
SEQEND
  8
0
  0
POLYLINE
  8
1
 66
1
 10
0.0000
 20
0.0000
 30
0.0000
 40
0.3048
 41
0.3048
 70
0
  0
VERTEX
  8
1
 10
23.0299
 20
6.2432
 30
0.0000
 42
1.0000
  0
VERTEX
  8
1
 10
23.3321
 20
6.2028
 30
0.0000
  0
SEQEND
  8
0
  0
POLYLINE
  8
1
 66
1
 10
0.0000
 20
0.0000
 30
0.0000
 40
0.6096
 41
0.6096
 70
0
  0
VERTEX
  8
1
 10
21.9710
 20
6.6710
 30
0.0000
  0
VERTEX
  8
1
 10
22.0310
 20
6.2230
 30
0.0000
  0
SEQEND
  8
0
  0
POLYLINE
  8
1
 66
1
 10
0.0000
 20
0.0000
 30
0.0000
 40
0.3048
 41
0.3048
 70
0
  0
VERTEX
  8
1
 10
21.8799
 20
6.2028
 30
0.0000
 42
1.0000
  0
VERTEX
  8
1
 10
22.1821
 20
6.2432
 30
0.0000
  0
SEQEND
  8
0
  0
POLYLINE
  8
1
 66
1
 10
0.0000
 20
0.0000
 30
0.0000
 40
0.3048
 41
0.3048
 70
0
  0
VERTEX
  8
1
 10
22.1221
 20
6.6912
 30
0.0000
 42
1.0000
  0
VERTEX
  8
1
 10
21.8199
 20
6.6508
 30
0.0000
  0
SEQEND
  8
0
  0
POLYLINE
  8
1
 66
1
 10
0.0000
 20
0.0000
 30
0.0000
 40
0.6096
 41
0.6096
 70
0
  0
VERTEX
  8
1
 10
22.0310
 20
6.2230
 30
0.0000
  0
VERTEX
  8
1
 10
23.1810
 20
6.2230
 30
0.0000
  0
SEQEND
  8
0
  0
POLYLINE
  8
1
 66
1
 10
0.0000
 20
0.0000
 30
0.0000
 40
0.3048
 41
0.3048
 70
0
  0
VERTEX
  8
1
 10
23.1810
 20
6.0706
 30
0.0000
 42
1.0000
  0
VERTEX
  8
1
 10
23.1810
 20
6.3754
 30
0.0000
  0
SEQEND
  8
0
  0
POLYLINE
  8
1
 66
1
 10
0.0000
 20
0.0000
 30
0.0000
 40
0.3048
 41
0.3048
 70
0
  0
VERTEX
  8
1
 10
22.0310
 20
6.3754
 30
0.0000
 42
1.0000
  0
VERTEX
  8
1
 10
22.0310
 20
6.0706
 30
0.0000
  0
SEQEND
  8
0
  0
POLYLINE
  8
1
 66
1
 10
0.0000
 20
0.0000
 30
0.0000
 40
0.6096
 41
0.6096
 70
0
  0
VERTEX
  8
1
 10
24.3840
 20
20.9550
 30
0.0000
  0
VERTEX
  8
1
 10
25.5400
 20
20.9550
 30
0.0000
  0
SEQEND
  8
0
  0
POLYLINE
  8
1
 66
1
 10
0.0000
 20
0.0000
 30
0.0000
 40
0.3048
 41
0.3048
 70
0
  0
VERTEX
  8
1
 10
25.5400
 20
20.8026
 30
0.0000
 42
1.0000
  0
VERTEX
  8
1
 10
25.5400
 20
21.1074
 30
0.0000
  0
SEQEND
  8
0
  0
POLYLINE
  8
1
 66
1
 10
0.0000
 20
0.0000
 30
0.0000
 40
0.3048
 41
0.3048
 70
0
  0
VERTEX
  8
1
 10
24.3840
 20
21.1074
 30
0.0000
 42
1.0000
  0
VERTEX
  8
1
 10
24.3840
 20
20.8026
 30
0.0000
  0
SEQEND
  8
0
  0
POLYLINE
  8
1
 66
1
 10
0.0000
 20
0.0000
 30
0.0000
 40
0.6096
 41
0.6096
 70
0
  0
VERTEX
  8
1
 10
25.1460
 20
20.7010
 30
0.0000
  0
VERTEX
  8
1
 10
24.8920
 20
20.7010
 30
0.0000
  0
SEQEND
  8
0
  0
POLYLINE
  8
1
 66
1
 10
0.0000
 20
0.0000
 30
0.0000
 40
0.3048
 41
0.3048
 70
0
  0
VERTEX
  8
1
 10
24.8920
 20
20.8534
 30
0.0000
 42
1.0000
  0
VERTEX
  8
1
 10
24.8920
 20
20.5486
 30
0.0000
  0
SEQEND
  8
0
  0
POLYLINE
  8
1
 66
1
 10
0.0000
 20
0.0000
 30
0.0000
 40
0.3048
 41
0.3048
 70
0
  0
VERTEX
  8
1
 10
25.1460
 20
20.5486
 30
0.0000
 42
1.0000
  0
VERTEX
  8
1
 10
25.1460
 20
20.8534
 30
0.0000
  0
SEQEND
  8
0
  0
POLYLINE
  8
1
 66
1
 10
0.0000
 20
0.0000
 30
0.0000
 40
0.6096
 41
0.6096
 70
0
  0
VERTEX
  8
1
 10
24.8920
 20
20.7010
 30
0.0000
  0
VERTEX
  8
1
 10
24.3840
 20
20.9550
 30
0.0000
  0
SEQEND
  8
0
  0
POLYLINE
  8
1
 66
1
 10
0.0000
 20
0.0000
 30
0.0000
 40
0.3048
 41
0.3048
 70
0
  0
VERTEX
  8
1
 10
24.4522
 20
21.0913
 30
0.0000
 42
1.0000
  0
VERTEX
  8
1
 10
24.3158
 20
20.8187
 30
0.0000
  0
SEQEND
  8
0
  0
POLYLINE
  8
1
 66
1
 10
0.0000
 20
0.0000
 30
0.0000
 40
0.3048
 41
0.3048
 70
0
  0
VERTEX
  8
1
 10
24.8238
 20
20.5647
 30
0.0000
 42
1.0000
  0
VERTEX
  8
1
 10
24.9602
 20
20.8373
 30
0.0000
  0
SEQEND
  8
0
  0
POLYLINE
  8
1
 66
1
 10
0.0000
 20
0.0000
 30
0.0000
 40
0.6096
 41
0.6096
 70
0
  0
VERTEX
  8
1
 10
23.3680
 20
20.9550
 30
0.0000
  0
VERTEX
  8
1
 10
25.1460
 20
20.9310
 30
0.0000
  0
SEQEND
  8
0
  0
POLYLINE
  8
1
 66
1
 10
0.0000
 20
0.0000
 30
0.0000
 40
0.3048
 41
0.3048
 70
0
  0
VERTEX
  8
1
 10
25.1439
 20
20.7786
 30
0.0000
 42
1.0000
  0
VERTEX
  8
1
 10
25.1481
 20
21.0834
 30
0.0000
  0
SEQEND
  8
0
  0
POLYLINE
  8
1
 66
1
 10
0.0000
 20
0.0000
 30
0.0000
 40
0.3048
 41
0.3048
 70
0
  0
VERTEX
  8
1
 10
23.3701
 20
21.1074
 30
0.0000
 42
1.0000
  0
VERTEX
  8
1
 10
23.3659
 20
20.8026
 30
0.0000
  0
SEQEND
  8
0
  0
POLYLINE
  8
1
 66
1
 10
0.0000
 20
0.0000
 30
0.0000
 40
0.6096
 41
0.6096
 70
0
  0
VERTEX
  8
1
 10
25.4000
 20
20.7010
 30
0.0000
  0
VERTEX
  8
1
 10
25.1460
 20
20.7010
 30
0.0000
  0
SEQEND
  8
0
  0
POLYLINE
  8
1
 66
1
 10
0.0000
 20
0.0000
 30
0.0000
 40
0.3048
 41
0.3048
 70
0
  0
VERTEX
  8
1
 10
25.1460
 20
20.8534
 30
0.0000
 42
1.0000
  0
VERTEX
  8
1
 10
25.1460
 20
20.5486
 30
0.0000
  0
SEQEND
  8
0
  0
POLYLINE
  8
1
 66
1
 10
0.0000
 20
0.0000
 30
0.0000
 40
0.3048
 41
0.3048
 70
0
  0
VERTEX
  8
1
 10
25.4000
 20
20.5486
 30
0.0000
 42
1.0000
  0
VERTEX
  8
1
 10
25.4000
 20
20.8534
 30
0.0000
  0
SEQEND
  8
0
  0
POLYLINE
  8
1
 66
1
 10
0.0000
 20
0.0000
 30
0.0000
 40
0.6096
 41
0.6096
 70
0
  0
VERTEX
  8
1
 10
25.1460
 20
20.7010
 30
0.0000
  0
VERTEX
  8
1
 10
23.3680
 20
20.9550
 30
0.0000
  0
SEQEND
  8
0
  0
POLYLINE
  8
1
 66
1
 10
0.0000
 20
0.0000
 30
0.0000
 40
0.3048
 41
0.3048
 70
0
  0
VERTEX
  8
1
 10
23.3896
 20
21.1059
 30
0.0000
 42
1.0000
  0
VERTEX
  8
1
 10
23.3464
 20
20.8041
 30
0.0000
  0
SEQEND
  8
0
  0
POLYLINE
  8
1
 66
1
 10
0.0000
 20
0.0000
 30
0.0000
 40
0.3048
 41
0.3048
 70
0
  0
VERTEX
  8
1
 10
25.1244
 20
20.5501
 30
0.0000
 42
1.0000
  0
VERTEX
  8
1
 10
25.1676
 20
20.8519
 30
0.0000
  0
SEQEND
  8
0
  0
POLYLINE
  8
1
 66
1
 10
0.0000
 20
0.0000
 30
0.0000
 40
0.6096
 41
0.6096
 70
0
  0
VERTEX
  8
1
 10
15.2160
 20
25.4000
 30
0.0000
  0
VERTEX
  8
1
 10
14.9620
 20
24.5110
 30
0.0000
  0
SEQEND
  8
0
  0
POLYLINE
  8
1
 66
1
 10
0.0000
 20
0.0000
 30
0.0000
 40
0.3048
 41
0.3048
 70
0
  0
VERTEX
  8
1
 10
14.8155
 20
24.5529
 30
0.0000
 42
1.0000
  0
VERTEX
  8
1
 10
15.1085
 20
24.4691
 30
0.0000
  0
SEQEND
  8
0
  0
POLYLINE
  8
1
 66
1
 10
0.0000
 20
0.0000
 30
0.0000
 40
0.3048
 41
0.3048
 70
0
  0
VERTEX
  8
1
 10
15.3625
 20
25.3581
 30
0.0000
 42
1.0000
  0
VERTEX
  8
1
 10
15.0695
 20
25.4419
 30
0.0000
  0
SEQEND
  8
0
  0
POLYLINE
  8
1
 66
1
 10
0.0000
 20
0.0000
 30
0.0000
 40
0.6096
 41
0.6096
 70
0
  0
VERTEX
  8
1
 10
20.8280
 20
25.4000
 30
0.0000
  0
VERTEX
  8
1
 10
15.2160
 20
25.4000
 30
0.0000
  0
SEQEND
  8
0
  0
POLYLINE
  8
1
 66
1
 10
0.0000
 20
0.0000
 30
0.0000
 40
0.3048
 41
0.3048
 70
0
  0
VERTEX
  8
1
 10
15.2160
 20
25.5524
 30
0.0000
 42
1.0000
  0
VERTEX
  8
1
 10
15.2160
 20
25.2476
 30
0.0000
  0
SEQEND
  8
0
  0
POLYLINE
  8
1
 66
1
 10
0.0000
 20
0.0000
 30
0.0000
 40
0.3048
 41
0.3048
 70
0
  0
VERTEX
  8
1
 10
20.8280
 20
25.2476
 30
0.0000
 42
1.0000
  0
VERTEX
  8
1
 10
20.8280
 20
25.5524
 30
0.0000
  0
SEQEND
  8
0
  0
POLYLINE
  8
1
 66
1
 10
0.0000
 20
0.0000
 30
0.0000
 40
0.6096
 41
0.6096
 70
0
  0
VERTEX
  8
1
 10
20.8280
 20
25.4000
 30
0.0000
  0
VERTEX
  8
1
 10
20.9550
 20
25.2730
 30
0.0000
  0
SEQEND
  8
0
  0
POLYLINE
  8
1
 66
1
 10
0.0000
 20
0.0000
 30
0.0000
 40
0.3048
 41
0.3048
 70
0
  0
VERTEX
  8
1
 10
20.8472
 20
25.1652
 30
0.0000
 42
1.0000
  0
VERTEX
  8
1
 10
21.0628
 20
25.3808
 30
0.0000
  0
SEQEND
  8
0
  0
POLYLINE
  8
1
 66
1
 10
0.0000
 20
0.0000
 30
0.0000
 40
0.3048
 41
0.3048
 70
0
  0
VERTEX
  8
1
 10
20.9358
 20
25.5078
 30
0.0000
 42
1.0000
  0
VERTEX
  8
1
 10
20.7202
 20
25.2922
 30
0.0000
  0
SEQEND
  8
0
  0
POLYLINE
  8
1
 66
1
 10
0.0000
 20
0.0000
 30
0.0000
 40
0.6096
 41
0.6096
 70
0
  0
VERTEX
  8
1
 10
20.8280
 20
22.2250
 30
0.0000
  0
VERTEX
  8
1
 10
21.0060
 20
22.2250
 30
0.0000
  0
SEQEND
  8
0
  0
POLYLINE
  8
1
 66
1
 10
0.0000
 20
0.0000
 30
0.0000
 40
0.3048
 41
0.3048
 70
0
  0
VERTEX
  8
1
 10
21.0060
 20
22.0726
 30
0.0000
 42
1.0000
  0
VERTEX
  8
1
 10
21.0060
 20
22.3774
 30
0.0000
  0
SEQEND
  8
0
  0
POLYLINE
  8
1
 66
1
 10
0.0000
 20
0.0000
 30
0.0000
 40
0.3048
 41
0.3048
 70
0
  0
VERTEX
  8
1
 10
20.8280
 20
22.3774
 30
0.0000
 42
1.0000
  0
VERTEX
  8
1
 10
20.8280
 20
22.0726
 30
0.0000
  0
SEQEND
  8
0
  0
POLYLINE
  8
1
 66
1
 10
0.0000
 20
0.0000
 30
0.0000
 40
0.6096
 41
0.6096
 70
0
  0
VERTEX
  8
1
 10
21.0822
 20
22.3012
 30
0.0000
  0
VERTEX
  8
1
 10
21.0060
 20
22.2250
 30
0.0000
  0
SEQEND
  8
0
  0
POLYLINE
  8
1
 66
1
 10
0.0000
 20
0.0000
 30
0.0000
 40
0.3048
 41
0.3048
 70
0
  0
VERTEX
  8
1
 10
20.8982
 20
22.3328
 30
0.0000
 42
1.0000
  0
VERTEX
  8
1
 10
21.1138
 20
22.1172
 30
0.0000
  0
SEQEND
  8
0
  0
POLYLINE
  8
1
 66
1
 10
0.0000
 20
0.0000
 30
0.0000
 40
0.3048
 41
0.3048
 70
0
  0
VERTEX
  8
1
 10
21.1900
 20
22.1934
 30
0.0000
 42
1.0000
  0
VERTEX
  8
1
 10
20.9744
 20
22.4090
 30
0.0000
  0
SEQEND
  8
0
  0
POLYLINE
  8
1
 66
1
 10
0.0000
 20
0.0000
 30
0.0000
 40
0.6096
 41
0.6096
 70
0
  0
VERTEX
  8
1
 10
20.9550
 20
25.2730
 30
0.0000
  0
VERTEX
  8
1
 10
20.8280
 20
25.1460
 30
0.0000
  0
SEQEND
  8
0
  0
POLYLINE
  8
1
 66
1
 10
0.0000
 20
0.0000
 30
0.0000
 40
0.3048
 41
0.3048
 70
0
  0
VERTEX
  8
1
 10
20.7202
 20
25.2538
 30
0.0000
 42
1.0000
  0
VERTEX
  8
1
 10
20.9358
 20
25.0382
 30
0.0000
  0
SEQEND
  8
0
  0
POLYLINE
  8
1
 66
1
 10
0.0000
 20
0.0000
 30
0.0000
 40
0.3048
 41
0.3048
 70
0
  0
VERTEX
  8
1
 10
21.0628
 20
25.1652
 30
0.0000
 42
1.0000
  0
VERTEX
  8
1
 10
20.8472
 20
25.3808
 30
0.0000
  0
SEQEND
  8
0
  0
POLYLINE
  8
1
 66
1
 10
0.0000
 20
0.0000
 30
0.0000
 40
0.6096
 41
0.6096
 70
0
  0
VERTEX
  8
1
 10
20.8280
 20
25.1460
 30
0.0000
  0
VERTEX
  8
1
 10
20.8280
 20
22.2250
 30
0.0000
  0
SEQEND
  8
0
  0
POLYLINE
  8
1
 66
1
 10
0.0000
 20
0.0000
 30
0.0000
 40
0.3048
 41
0.3048
 70
0
  0
VERTEX
  8
1
 10
20.6756
 20
22.2250
 30
0.0000
 42
1.0000
  0
VERTEX
  8
1
 10
20.9804
 20
22.2250
 30
0.0000
  0
SEQEND
  8
0
  0
POLYLINE
  8
1
 66
1
 10
0.0000
 20
0.0000
 30
0.0000
 40
0.3048
 41
0.3048
 70
0
  0
VERTEX
  8
1
 10
20.9804
 20
25.1460
 30
0.0000
 42
1.0000
  0
VERTEX
  8
1
 10
20.6756
 20
25.1460
 30
0.0000
  0
SEQEND
  8
0
  0
POLYLINE
  8
1
 66
1
 10
0.0000
 20
0.0000
 30
0.0000
 40
0.6096
 41
0.6096
 70
0
  0
VERTEX
  8
1
 10
20.8280
 20
22.5554
 30
0.0000
  0
VERTEX
  8
1
 10
21.0822
 20
22.3012
 30
0.0000
  0
SEQEND
  8
0
  0
POLYLINE
  8
1
 66
1
 10
0.0000
 20
0.0000
 30
0.0000
 40
0.3048
 41
0.3048
 70
0
  0
VERTEX
  8
1
 10
20.9744
 20
22.1934
 30
0.0000
 42
1.0000
  0
VERTEX
  8
1
 10
21.1900
 20
22.4090
 30
0.0000
  0
SEQEND
  8
0
  0
POLYLINE
  8
1
 66
1
 10
0.0000
 20
0.0000
 30
0.0000
 40
0.3048
 41
0.3048
 70
0
  0
VERTEX
  8
1
 10
20.9358
 20
22.6632
 30
0.0000
 42
1.0000
  0
VERTEX
  8
1
 10
20.7202
 20
22.4476
 30
0.0000
  0
SEQEND
  8
0
  0
POLYLINE
  8
1
 66
1
 10
0.0000
 20
0.0000
 30
0.0000
 40
0.6096
 41
0.6096
 70
0
  0
VERTEX
  8
1
 10
20.8280
 20
25.4000
 30
0.0000
  0
VERTEX
  8
1
 10
20.8280
 20
22.5554
 30
0.0000
  0
SEQEND
  8
0
  0
POLYLINE
  8
1
 66
1
 10
0.0000
 20
0.0000
 30
0.0000
 40
0.3048
 41
0.3048
 70
0
  0
VERTEX
  8
1
 10
20.6756
 20
22.5554
 30
0.0000
 42
1.0000
  0
VERTEX
  8
1
 10
20.9804
 20
22.5554
 30
0.0000
  0
SEQEND
  8
0
  0
POLYLINE
  8
1
 66
1
 10
0.0000
 20
0.0000
 30
0.0000
 40
0.3048
 41
0.3048
 70
0
  0
VERTEX
  8
1
 10
20.9804
 20
25.4000
 30
0.0000
 42
1.0000
  0
VERTEX
  8
1
 10
20.6756
 20
25.4000
 30
0.0000
  0
SEQEND
  8
0
  0
POLYLINE
  8
1
 66
1
 10
0.0000
 20
0.0000
 30
0.0000
 40
0.6096
 41
0.6096
 70
0
  0
VERTEX
  8
1
 10
20.8280
 20
22.2250
 30
0.0000
  0
VERTEX
  8
1
 10
21.2090
 20
22.0980
 30
0.0000
  0
SEQEND
  8
0
  0
POLYLINE
  8
1
 66
1
 10
0.0000
 20
0.0000
 30
0.0000
 40
0.3048
 41
0.3048
 70
0
  0
VERTEX
  8
1
 10
21.1608
 20
21.9534
 30
0.0000
 42
1.0000
  0
VERTEX
  8
1
 10
21.2572
 20
22.2426
 30
0.0000
  0
SEQEND
  8
0
  0
POLYLINE
  8
1
 66
1
 10
0.0000
 20
0.0000
 30
0.0000
 40
0.3048
 41
0.3048
 70
0
  0
VERTEX
  8
1
 10
20.8762
 20
22.3696
 30
0.0000
 42
1.0000
  0
VERTEX
  8
1
 10
20.7798
 20
22.0804
 30
0.0000
  0
SEQEND
  8
0
  0
POLYLINE
  8
1
 66
1
 10
0.0000
 20
0.0000
 30
0.0000
 40
0.6096
 41
0.6096
 70
0
  0
VERTEX
  8
1
 10
19.0500
 20
16.4070
 30
0.0000
  0
VERTEX
  8
1
 10
20.8040
 20
16.3830
 30
0.0000
  0
SEQEND
  8
0
  0
POLYLINE
  8
1
 66
1
 10
0.0000
 20
0.0000
 30
0.0000
 40
0.3048
 41
0.3048
 70
0
  0
VERTEX
  8
1
 10
20.8019
 20
16.2306
 30
0.0000
 42
1.0000
  0
VERTEX
  8
1
 10
20.8061
 20
16.5354
 30
0.0000
  0
SEQEND
  8
0
  0
POLYLINE
  8
1
 66
1
 10
0.0000
 20
0.0000
 30
0.0000
 40
0.3048
 41
0.3048
 70
0
  0
VERTEX
  8
1
 10
19.0521
 20
16.5594
 30
0.0000
 42
1.0000
  0
VERTEX
  8
1
 10
19.0479
 20
16.2546
 30
0.0000
  0
SEQEND
  8
0
  0
POLYLINE
  8
1
 66
1
 10
0.0000
 20
0.0000
 30
0.0000
 40
0.6096
 41
0.6096
 70
0
  0
VERTEX
  8
1
 10
4.5720
 20
5.2310
 30
0.0000
  0
VERTEX
  8
1
 10
4.5720
 20
5.4610
 30
0.0000
  0
SEQEND
  8
0
  0
POLYLINE
  8
1
 66
1
 10
0.0000
 20
0.0000
 30
0.0000
 40
0.3048
 41
0.3048
 70
0
  0
VERTEX
  8
1
 10
4.7244
 20
5.4610
 30
0.0000
 42
1.0000
  0
VERTEX
  8
1
 10
4.4196
 20
5.4610
 30
0.0000
  0
SEQEND
  8
0
  0
POLYLINE
  8
1
 66
1
 10
0.0000
 20
0.0000
 30
0.0000
 40
0.3048
 41
0.3048
 70
0
  0
VERTEX
  8
1
 10
4.4196
 20
5.2310
 30
0.0000
 42
1.0000
  0
VERTEX
  8
1
 10
4.7244
 20
5.2310
 30
0.0000
  0
SEQEND
  8
0
  0
POLYLINE
  8
1
 66
1
 10
0.0000
 20
0.0000
 30
0.0000
 40
0.6096
 41
0.6096
 70
0
  0
VERTEX
  8
1
 10
4.5720
 20
4.4690
 30
0.0000
  0
VERTEX
  8
1
 10
4.5720
 20
5.2310
 30
0.0000
  0
SEQEND
  8
0
  0
POLYLINE
  8
1
 66
1
 10
0.0000
 20
0.0000
 30
0.0000
 40
0.3048
 41
0.3048
 70
0
  0
VERTEX
  8
1
 10
4.7244
 20
5.2310
 30
0.0000
 42
1.0000
  0
VERTEX
  8
1
 10
4.4196
 20
5.2310
 30
0.0000
  0
SEQEND
  8
0
  0
POLYLINE
  8
1
 66
1
 10
0.0000
 20
0.0000
 30
0.0000
 40
0.3048
 41
0.3048
 70
0
  0
VERTEX
  8
1
 10
4.4196
 20
4.4690
 30
0.0000
 42
1.0000
  0
VERTEX
  8
1
 10
4.7244
 20
4.4690
 30
0.0000
  0
SEQEND
  8
0
  0
POLYLINE
  8
1
 66
1
 10
0.0000
 20
0.0000
 30
0.0000
 40
0.6096
 41
0.6096
 70
0
  0
VERTEX
  8
1
 10
4.5720
 20
4.4690
 30
0.0000
  0
VERTEX
  8
1
 10
6.6280
 20
2.4130
 30
0.0000
  0
SEQEND
  8
0
  0
POLYLINE
  8
1
 66
1
 10
0.0000
 20
0.0000
 30
0.0000
 40
0.3048
 41
0.3048
 70
0
  0
VERTEX
  8
1
 10
6.5202
 20
2.3052
 30
0.0000
 42
1.0000
  0
VERTEX
  8
1
 10
6.7358
 20
2.5208
 30
0.0000
  0
SEQEND
  8
0
  0
POLYLINE
  8
1
 66
1
 10
0.0000
 20
0.0000
 30
0.0000
 40
0.3048
 41
0.3048
 70
0
  0
VERTEX
  8
1
 10
4.6798
 20
4.5768
 30
0.0000
 42
1.0000
  0
VERTEX
  8
1
 10
4.4642
 20
4.3612
 30
0.0000
  0
SEQEND
  8
0
  0
POLYLINE
  8
1
 66
1
 10
0.0000
 20
0.0000
 30
0.0000
 40
0.6096
 41
0.6096
 70
0
  0
VERTEX
  8
1
 10
6.6280
 20
2.4130
 30
0.0000
  0
VERTEX
  8
1
 10
11.6840
 20
2.4130
 30
0.0000
  0
SEQEND
  8
0
  0
POLYLINE
  8
1
 66
1
 10
0.0000
 20
0.0000
 30
0.0000
 40
0.3048
 41
0.3048
 70
0
  0
VERTEX
  8
1
 10
11.6840
 20
2.2606
 30
0.0000
 42
1.0000
  0
VERTEX
  8
1
 10
11.6840
 20
2.5654
 30
0.0000
  0
SEQEND
  8
0
  0
POLYLINE
  8
1
 66
1
 10
0.0000
 20
0.0000
 30
0.0000
 40
0.3048
 41
0.3048
 70
0
  0
VERTEX
  8
1
 10
6.6280
 20
2.5654
 30
0.0000
 42
1.0000
  0
VERTEX
  8
1
 10
6.6280
 20
2.2606
 30
0.0000
  0
SEQEND
  8
0
  0
POLYLINE
  8
1
 66
1
 10
0.0000
 20
0.0000
 30
0.0000
 40
0.6096
 41
0.6096
 70
0
  0
VERTEX
  8
1
 10
13.3350
 20
4.3180
 30
0.0000
  0
VERTEX
  8
1
 10
13.2080
 20
4.9530
 30
0.0000
  0
SEQEND
  8
0
  0
POLYLINE
  8
1
 66
1
 10
0.0000
 20
0.0000
 30
0.0000
 40
0.3048
 41
0.3048
 70
0
  0
VERTEX
  8
1
 10
13.3574
 20
4.9829
 30
0.0000
 42
1.0000
  0
VERTEX
  8
1
 10
13.0586
 20
4.9231
 30
0.0000
  0
SEQEND
  8
0
  0
POLYLINE
  8
1
 66
1
 10
0.0000
 20
0.0000
 30
0.0000
 40
0.3048
 41
0.3048
 70
0
  0
VERTEX
  8
1
 10
13.1856
 20
4.2881
 30
0.0000
 42
1.0000
  0
VERTEX
  8
1
 10
13.4844
 20
4.3479
 30
0.0000
  0
SEQEND
  8
0
  0
POLYLINE
  8
1
 66
1
 10
0.0000
 20
0.0000
 30
0.0000
 40
0.6096
 41
0.6096
 70
0
  0
VERTEX
  8
1
 10
11.6840
 20
2.4130
 30
0.0000
  0
VERTEX
  8
1
 10
13.3350
 20
4.0640
 30
0.0000
  0
SEQEND
  8
0
  0
POLYLINE
  8
1
 66
1
 10
0.0000
 20
0.0000
 30
0.0000
 40
0.3048
 41
0.3048
 70
0
  0
VERTEX
  8
1
 10
13.4428
 20
3.9562
 30
0.0000
 42
1.0000
  0
VERTEX
  8
1
 10
13.2272
 20
4.1718
 30
0.0000
  0
SEQEND
  8
0
  0
POLYLINE
  8
1
 66
1
 10
0.0000
 20
0.0000
 30
0.0000
 40
0.3048
 41
0.3048
 70
0
  0
VERTEX
  8
1
 10
11.5762
 20
2.5208
 30
0.0000
 42
1.0000
  0
VERTEX
  8
1
 10
11.7918
 20
2.3052
 30
0.0000
  0
SEQEND
  8
0
  0
POLYLINE
  8
1
 66
1
 10
0.0000
 20
0.0000
 30
0.0000
 40
0.6096
 41
0.6096
 70
0
  0
VERTEX
  8
1
 10
13.3350
 20
4.0640
 30
0.0000
  0
VERTEX
  8
1
 10
13.3350
 20
4.3180
 30
0.0000
  0
SEQEND
  8
0
  0
POLYLINE
  8
1
 66
1
 10
0.0000
 20
0.0000
 30
0.0000
 40
0.3048
 41
0.3048
 70
0
  0
VERTEX
  8
1
 10
13.4874
 20
4.3180
 30
0.0000
 42
1.0000
  0
VERTEX
  8
1
 10
13.1826
 20
4.3180
 30
0.0000
  0
SEQEND
  8
0
  0
POLYLINE
  8
1
 66
1
 10
0.0000
 20
0.0000
 30
0.0000
 40
0.3048
 41
0.3048
 70
0
  0
VERTEX
  8
1
 10
13.1826
 20
4.0640
 30
0.0000
 42
1.0000
  0
VERTEX
  8
1
 10
13.4874
 20
4.0640
 30
0.0000
  0
SEQEND
  8
0
  0
POLYLINE
  8
1
 66
1
 10
0.0000
 20
0.0000
 30
0.0000
 40
0.6096
 41
0.6096
 70
0
  0
VERTEX
  8
1
 10
20.7010
 20
10.0330
 30
0.0000
  0
VERTEX
  8
1
 10
20.7010
 20
11.8710
 30
0.0000
  0
SEQEND
  8
0
  0
POLYLINE
  8
1
 66
1
 10
0.0000
 20
0.0000
 30
0.0000
 40
0.3048
 41
0.3048
 70
0
  0
VERTEX
  8
1
 10
20.8534
 20
11.8710
 30
0.0000
 42
1.0000
  0
VERTEX
  8
1
 10
20.5486
 20
11.8710
 30
0.0000
  0
SEQEND
  8
0
  0
POLYLINE
  8
1
 66
1
 10
0.0000
 20
0.0000
 30
0.0000
 40
0.3048
 41
0.3048
 70
0
  0
VERTEX
  8
1
 10
20.5486
 20
10.0330
 30
0.0000
 42
1.0000
  0
VERTEX
  8
1
 10
20.8534
 20
10.0330
 30
0.0000
  0
SEQEND
  8
0
  0
POLYLINE
  8
1
 66
1
 10
0.0000
 20
0.0000
 30
0.0000
 40
0.6096
 41
0.6096
 70
0
  0
VERTEX
  8
1
 10
20.3200
 20
9.6520
 30
0.0000
  0
VERTEX
  8
1
 10
20.7010
 20
10.0330
 30
0.0000
  0
SEQEND
  8
0
  0
POLYLINE
  8
1
 66
1
 10
0.0000
 20
0.0000
 30
0.0000
 40
0.3048
 41
0.3048
 70
0
  0
VERTEX
  8
1
 10
20.8088
 20
9.9252
 30
0.0000
 42
1.0000
  0
VERTEX
  8
1
 10
20.5932
 20
10.1408
 30
0.0000
  0
SEQEND
  8
0
  0
POLYLINE
  8
1
 66
1
 10
0.0000
 20
0.0000
 30
0.0000
 40
0.3048
 41
0.3048
 70
0
  0
VERTEX
  8
1
 10
20.2122
 20
9.7598
 30
0.0000
 42
1.0000
  0
VERTEX
  8
1
 10
20.4278
 20
9.5442
 30
0.0000
  0
SEQEND
  8
0
  0
POLYLINE
  8
1
 66
1
 10
0.0000
 20
0.0000
 30
0.0000
 40
0.6096
 41
0.6096
 70
0
  0
VERTEX
  8
1
 10
17.6530
 20
9.6520
 30
0.0000
  0
VERTEX
  8
1
 10
20.3200
 20
9.6520
 30
0.0000
  0
SEQEND
  8
0
  0
POLYLINE
  8
1
 66
1
 10
0.0000
 20
0.0000
 30
0.0000
 40
0.3048
 41
0.3048
 70
0
  0
VERTEX
  8
1
 10
20.3200
 20
9.4996
 30
0.0000
 42
1.0000
  0
VERTEX
  8
1
 10
20.3200
 20
9.8044
 30
0.0000
  0
SEQEND
  8
0
  0
POLYLINE
  8
1
 66
1
 10
0.0000
 20
0.0000
 30
0.0000
 40
0.3048
 41
0.3048
 70
0
  0
VERTEX
  8
1
 10
17.6530
 20
9.8044
 30
0.0000
 42
1.0000
  0
VERTEX
  8
1
 10
17.6530
 20
9.4996
 30
0.0000
  0
SEQEND
  8
0
  0
POLYLINE
  8
1
 66
1
 10
0.0000
 20
0.0000
 30
0.0000
 40
0.6096
 41
0.6096
 70
0
  0
VERTEX
  8
1
 10
17.0180
 20
10.2870
 30
0.0000
  0
VERTEX
  8
1
 10
17.6530
 20
9.6520
 30
0.0000
  0
SEQEND
  8
0
  0
POLYLINE
  8
1
 66
1
 10
0.0000
 20
0.0000
 30
0.0000
 40
0.3048
 41
0.3048
 70
0
  0
VERTEX
  8
1
 10
17.5452
 20
9.5442
 30
0.0000
 42
1.0000
  0
VERTEX
  8
1
 10
17.7608
 20
9.7598
 30
0.0000
  0
SEQEND
  8
0
  0
POLYLINE
  8
1
 66
1
 10
0.0000
 20
0.0000
 30
0.0000
 40
0.3048
 41
0.3048
 70
0
  0
VERTEX
  8
1
 10
17.1258
 20
10.3948
 30
0.0000
 42
1.0000
  0
VERTEX
  8
1
 10
16.9102
 20
10.1792
 30
0.0000
  0
SEQEND
  8
0
  0
POLYLINE
  8
1
 66
1
 10
0.0000
 20
0.0000
 30
0.0000
 40
0.6096
 41
0.6096
 70
0
  0
VERTEX
  8
1
 10
17.0180
 20
16.2560
 30
0.0000
  0
VERTEX
  8
1
 10
17.0180
 20
10.2870
 30
0.0000
  0
SEQEND
  8
0
  0
POLYLINE
  8
1
 66
1
 10
0.0000
 20
0.0000
 30
0.0000
 40
0.3048
 41
0.3048
 70
0
  0
VERTEX
  8
1
 10
16.8656
 20
10.2870
 30
0.0000
 42
1.0000
  0
VERTEX
  8
1
 10
17.1704
 20
10.2870
 30
0.0000
  0
SEQEND
  8
0
  0
POLYLINE
  8
1
 66
1
 10
0.0000
 20
0.0000
 30
0.0000
 40
0.3048
 41
0.3048
 70
0
  0
VERTEX
  8
1
 10
17.1704
 20
16.2560
 30
0.0000
 42
1.0000
  0
VERTEX
  8
1
 10
16.8656
 20
16.2560
 30
0.0000
  0
SEQEND
  8
0
  0
POLYLINE
  8
1
 66
1
 10
0.0000
 20
0.0000
 30
0.0000
 40
0.6096
 41
0.6096
 70
0
  0
VERTEX
  8
1
 10
14.6050
 20
16.2560
 30
0.0000
  0
VERTEX
  8
1
 10
14.4780
 20
16.2560
 30
0.0000
  0
SEQEND
  8
0
  0
POLYLINE
  8
1
 66
1
 10
0.0000
 20
0.0000
 30
0.0000
 40
0.3048
 41
0.3048
 70
0
  0
VERTEX
  8
1
 10
14.4780
 20
16.4084
 30
0.0000
 42
1.0000
  0
VERTEX
  8
1
 10
14.4780
 20
16.1036
 30
0.0000
  0
SEQEND
  8
0
  0
POLYLINE
  8
1
 66
1
 10
0.0000
 20
0.0000
 30
0.0000
 40
0.3048
 41
0.3048
 70
0
  0
VERTEX
  8
1
 10
14.6050
 20
16.1036
 30
0.0000
 42
1.0000
  0
VERTEX
  8
1
 10
14.6050
 20
16.4084
 30
0.0000
  0
SEQEND
  8
0
  0
POLYLINE
  8
1
 66
1
 10
0.0000
 20
0.0000
 30
0.0000
 40
0.6096
 41
0.6096
 70
0
  0
VERTEX
  8
1
 10
14.7920
 20
16.2560
 30
0.0000
  0
VERTEX
  8
1
 10
17.0180
 20
16.2560
 30
0.0000
  0
SEQEND
  8
0
  0
POLYLINE
  8
1
 66
1
 10
0.0000
 20
0.0000
 30
0.0000
 40
0.3048
 41
0.3048
 70
0
  0
VERTEX
  8
1
 10
17.0180
 20
16.1036
 30
0.0000
 42
1.0000
  0
VERTEX
  8
1
 10
17.0180
 20
16.4084
 30
0.0000
  0
SEQEND
  8
0
  0
POLYLINE
  8
1
 66
1
 10
0.0000
 20
0.0000
 30
0.0000
 40
0.3048
 41
0.3048
 70
0
  0
VERTEX
  8
1
 10
14.7920
 20
16.4084
 30
0.0000
 42
1.0000
  0
VERTEX
  8
1
 10
14.7920
 20
16.1036
 30
0.0000
  0
SEQEND
  8
0
  0
POLYLINE
  8
1
 66
1
 10
0.0000
 20
0.0000
 30
0.0000
 40
0.6096
 41
0.6096
 70
0
  0
VERTEX
  8
1
 10
17.0180
 20
16.2560
 30
0.0000
  0
VERTEX
  8
1
 10
17.1450
 20
16.2560
 30
0.0000
  0
SEQEND
  8
0
  0
POLYLINE
  8
1
 66
1
 10
0.0000
 20
0.0000
 30
0.0000
 40
0.3048
 41
0.3048
 70
0
  0
VERTEX
  8
1
 10
17.1450
 20
16.1036
 30
0.0000
 42
1.0000
  0
VERTEX
  8
1
 10
17.1450
 20
16.4084
 30
0.0000
  0
SEQEND
  8
0
  0
POLYLINE
  8
1
 66
1
 10
0.0000
 20
0.0000
 30
0.0000
 40
0.3048
 41
0.3048
 70
0
  0
VERTEX
  8
1
 10
17.0180
 20
16.4084
 30
0.0000
 42
1.0000
  0
VERTEX
  8
1
 10
17.0180
 20
16.1036
 30
0.0000
  0
SEQEND
  8
0
  0
POLYLINE
  8
1
 66
1
 10
0.0000
 20
0.0000
 30
0.0000
 40
0.6096
 41
0.6096
 70
0
  0
VERTEX
  8
1
 10
17.0180
 20
16.2560
 30
0.0000
  0
VERTEX
  8
1
 10
18.0340
 20
16.2560
 30
0.0000
  0
SEQEND
  8
0
  0
POLYLINE
  8
1
 66
1
 10
0.0000
 20
0.0000
 30
0.0000
 40
0.3048
 41
0.3048
 70
0
  0
VERTEX
  8
1
 10
18.0340
 20
16.1036
 30
0.0000
 42
1.0000
  0
VERTEX
  8
1
 10
18.0340
 20
16.4084
 30
0.0000
  0
SEQEND
  8
0
  0
POLYLINE
  8
1
 66
1
 10
0.0000
 20
0.0000
 30
0.0000
 40
0.3048
 41
0.3048
 70
0
  0
VERTEX
  8
1
 10
17.0180
 20
16.4084
 30
0.0000
 42
1.0000
  0
VERTEX
  8
1
 10
17.0180
 20
16.1036
 30
0.0000
  0
SEQEND
  8
0
  0
POLYLINE
  8
1
 66
1
 10
0.0000
 20
0.0000
 30
0.0000
 40
0.6096
 41
0.6096
 70
0
  0
VERTEX
  8
1
 10
18.7960
 20
16.6370
 30
0.0000
  0
VERTEX
  8
1
 10
19.0500
 20
16.4070
 30
0.0000
  0
SEQEND
  8
0
  0
POLYLINE
  8
1
 66
1
 10
0.0000
 20
0.0000
 30
0.0000
 40
0.3048
 41
0.3048
 70
0
  0
VERTEX
  8
1
 10
18.9477
 20
16.2940
 30
0.0000
 42
1.0000
  0
VERTEX
  8
1
 10
19.1523
 20
16.5200
 30
0.0000
  0
SEQEND
  8
0
  0
POLYLINE
  8
1
 66
1
 10
0.0000
 20
0.0000
 30
0.0000
 40
0.3048
 41
0.3048
 70
0
  0
VERTEX
  8
1
 10
18.8983
 20
16.7500
 30
0.0000
 42
1.0000
  0
VERTEX
  8
1
 10
18.6937
 20
16.5240
 30
0.0000
  0
SEQEND
  8
0
  0
POLYLINE
  8
1
 66
1
 10
0.0000
 20
0.0000
 30
0.0000
 40
0.6096
 41
0.6096
 70
0
  0
VERTEX
  8
1
 10
18.0340
 20
16.2560
 30
0.0000
  0
VERTEX
  8
1
 10
18.6690
 20
16.6370
 30
0.0000
  0
SEQEND
  8
0
  0
POLYLINE
  8
1
 66
1
 10
0.0000
 20
0.0000
 30
0.0000
 40
0.3048
 41
0.3048
 70
0
  0
VERTEX
  8
1
 10
18.7474
 20
16.5063
 30
0.0000
 42
1.0000
  0
VERTEX
  8
1
 10
18.5906
 20
16.7677
 30
0.0000
  0
SEQEND
  8
0
  0
POLYLINE
  8
1
 66
1
 10
0.0000
 20
0.0000
 30
0.0000
 40
0.3048
 41
0.3048
 70
0
  0
VERTEX
  8
1
 10
17.9556
 20
16.3867
 30
0.0000
 42
1.0000
  0
VERTEX
  8
1
 10
18.1124
 20
16.1253
 30
0.0000
  0
SEQEND
  8
0
  0
POLYLINE
  8
1
 66
1
 10
0.0000
 20
0.0000
 30
0.0000
 40
0.6096
 41
0.6096
 70
0
  0
VERTEX
  8
1
 10
18.6690
 20
16.6370
 30
0.0000
  0
VERTEX
  8
1
 10
18.7960
 20
16.6370
 30
0.0000
  0
SEQEND
  8
0
  0
POLYLINE
  8
1
 66
1
 10
0.0000
 20
0.0000
 30
0.0000
 40
0.3048
 41
0.3048
 70
0
  0
VERTEX
  8
1
 10
18.7960
 20
16.4846
 30
0.0000
 42
1.0000
  0
VERTEX
  8
1
 10
18.7960
 20
16.7894
 30
0.0000
  0
SEQEND
  8
0
  0
POLYLINE
  8
1
 66
1
 10
0.0000
 20
0.0000
 30
0.0000
 40
0.3048
 41
0.3048
 70
0
  0
VERTEX
  8
1
 10
18.6690
 20
16.7894
 30
0.0000
 42
1.0000
  0
VERTEX
  8
1
 10
18.6690
 20
16.4846
 30
0.0000
  0
SEQEND
  8
0
  0
POLYLINE
  8
1
 66
1
 10
0.0000
 20
0.0000
 30
0.0000
 40
0.6096
 41
0.6096
 70
0
  0
VERTEX
  8
1
 10
13.2080
 20
4.9530
 30
0.0000
  0
VERTEX
  8
1
 10
12.9540
 20
5.2070
 30
0.0000
  0
SEQEND
  8
0
  0
POLYLINE
  8
1
 66
1
 10
0.0000
 20
0.0000
 30
0.0000
 40
0.3048
 41
0.3048
 70
0
  0
VERTEX
  8
1
 10
13.0618
 20
5.3148
 30
0.0000
 42
1.0000
  0
VERTEX
  8
1
 10
12.8462
 20
5.0992
 30
0.0000
  0
SEQEND
  8
0
  0
POLYLINE
  8
1
 66
1
 10
0.0000
 20
0.0000
 30
0.0000
 40
0.3048
 41
0.3048
 70
0
  0
VERTEX
  8
1
 10
13.1002
 20
4.8452
 30
0.0000
 42
1.0000
  0
VERTEX
  8
1
 10
13.3158
 20
5.0608
 30
0.0000
  0
SEQEND
  8
0
  0
POLYLINE
  8
1
 66
1
 10
0.0000
 20
0.0000
 30
0.0000
 40
0.6096
 41
0.6096
 70
0
  0
VERTEX
  8
1
 10
12.9540
 20
5.2070
 30
0.0000
  0
VERTEX
  8
1
 10
12.9540
 20
5.9690
 30
0.0000
  0
SEQEND
  8
0
  0
POLYLINE
  8
1
 66
1
 10
0.0000
 20
0.0000
 30
0.0000
 40
0.3048
 41
0.3048
 70
0
  0
VERTEX
  8
1
 10
13.1064
 20
5.9690
 30
0.0000
 42
1.0000
  0
VERTEX
  8
1
 10
12.8016
 20
5.9690
 30
0.0000
  0
SEQEND
  8
0
  0
POLYLINE
  8
1
 66
1
 10
0.0000
 20
0.0000
 30
0.0000
 40
0.3048
 41
0.3048
 70
0
  0
VERTEX
  8
1
 10
12.8016
 20
5.2070
 30
0.0000
 42
1.0000
  0
VERTEX
  8
1
 10
13.1064
 20
5.2070
 30
0.0000
  0
SEQEND
  8
0
  0
POLYLINE
  8
1
 66
1
 10
0.0000
 20
0.0000
 30
0.0000
 40
0.6096
 41
0.6096
 70
0
  0
VERTEX
  8
1
 10
12.9540
 20
5.9690
 30
0.0000
  0
VERTEX
  8
1
 10
11.6840
 20
7.2390
 30
0.0000
  0
SEQEND
  8
0
  0
POLYLINE
  8
1
 66
1
 10
0.0000
 20
0.0000
 30
0.0000
 40
0.3048
 41
0.3048
 70
0
  0
VERTEX
  8
1
 10
11.7918
 20
7.3468
 30
0.0000
 42
1.0000
  0
VERTEX
  8
1
 10
11.5762
 20
7.1312
 30
0.0000
  0
SEQEND
  8
0
  0
POLYLINE
  8
1
 66
1
 10
0.0000
 20
0.0000
 30
0.0000
 40
0.3048
 41
0.3048
 70
0
  0
VERTEX
  8
1
 10
12.8462
 20
5.8612
 30
0.0000
 42
1.0000
  0
VERTEX
  8
1
 10
13.0618
 20
6.0768
 30
0.0000
  0
SEQEND
  8
0
  0
POLYLINE
  8
1
 66
1
 10
0.0000
 20
0.0000
 30
0.0000
 40
0.6096
 41
0.6096
 70
0
  0
VERTEX
  8
1
 10
11.6840
 20
7.2390
 30
0.0000
  0
VERTEX
  8
1
 10
11.6840
 20
14.7320
 30
0.0000
  0
SEQEND
  8
0
  0
POLYLINE
  8
1
 66
1
 10
0.0000
 20
0.0000
 30
0.0000
 40
0.3048
 41
0.3048
 70
0
  0
VERTEX
  8
1
 10
11.8364
 20
14.7320
 30
0.0000
 42
1.0000
  0
VERTEX
  8
1
 10
11.5316
 20
14.7320
 30
0.0000
  0
SEQEND
  8
0
  0
POLYLINE
  8
1
 66
1
 10
0.0000
 20
0.0000
 30
0.0000
 40
0.3048
 41
0.3048
 70
0
  0
VERTEX
  8
1
 10
11.5316
 20
7.2390
 30
0.0000
 42
1.0000
  0
VERTEX
  8
1
 10
11.8364
 20
7.2390
 30
0.0000
  0
SEQEND
  8
0
  0
POLYLINE
  8
1
 66
1
 10
0.0000
 20
0.0000
 30
0.0000
 40
0.6096
 41
0.6096
 70
0
  0
VERTEX
  8
1
 10
14.6050
 20
16.2560
 30
0.0000
  0
VERTEX
  8
1
 10
14.7920
 20
16.2560
 30
0.0000
  0
SEQEND
  8
0
  0
POLYLINE
  8
1
 66
1
 10
0.0000
 20
0.0000
 30
0.0000
 40
0.3048
 41
0.3048
 70
0
  0
VERTEX
  8
1
 10
14.7920
 20
16.1036
 30
0.0000
 42
1.0000
  0
VERTEX
  8
1
 10
14.7920
 20
16.4084
 30
0.0000
  0
SEQEND
  8
0
  0
POLYLINE
  8
1
 66
1
 10
0.0000
 20
0.0000
 30
0.0000
 40
0.3048
 41
0.3048
 70
0
  0
VERTEX
  8
1
 10
14.6050
 20
16.4084
 30
0.0000
 42
1.0000
  0
VERTEX
  8
1
 10
14.6050
 20
16.1036
 30
0.0000
  0
SEQEND
  8
0
  0
POLYLINE
  8
1
 66
1
 10
0.0000
 20
0.0000
 30
0.0000
 40
0.6096
 41
0.6096
 70
0
  0
VERTEX
  8
1
 10
11.6840
 20
14.7320
 30
0.0000
  0
VERTEX
  8
1
 10
13.2080
 20
16.2560
 30
0.0000
  0
SEQEND
  8
0
  0
POLYLINE
  8
1
 66
1
 10
0.0000
 20
0.0000
 30
0.0000
 40
0.3048
 41
0.3048
 70
0
  0
VERTEX
  8
1
 10
13.3158
 20
16.1482
 30
0.0000
 42
1.0000
  0
VERTEX
  8
1
 10
13.1002
 20
16.3638
 30
0.0000
  0
SEQEND
  8
0
  0
POLYLINE
  8
1
 66
1
 10
0.0000
 20
0.0000
 30
0.0000
 40
0.3048
 41
0.3048
 70
0
  0
VERTEX
  8
1
 10
11.5762
 20
14.8398
 30
0.0000
 42
1.0000
  0
VERTEX
  8
1
 10
11.7918
 20
14.6242
 30
0.0000
  0
SEQEND
  8
0
  0
POLYLINE
  8
1
 66
1
 10
0.0000
 20
0.0000
 30
0.0000
 40
0.6096
 41
0.6096
 70
0
  0
VERTEX
  8
1
 10
13.2080
 20
16.2560
 30
0.0000
  0
VERTEX
  8
1
 10
14.6050
 20
16.2560
 30
0.0000
  0
SEQEND
  8
0
  0
POLYLINE
  8
1
 66
1
 10
0.0000
 20
0.0000
 30
0.0000
 40
0.3048
 41
0.3048
 70
0
  0
VERTEX
  8
1
 10
14.6050
 20
16.1036
 30
0.0000
 42
1.0000
  0
VERTEX
  8
1
 10
14.6050
 20
16.4084
 30
0.0000
  0
SEQEND
  8
0
  0
POLYLINE
  8
1
 66
1
 10
0.0000
 20
0.0000
 30
0.0000
 40
0.3048
 41
0.3048
 70
0
  0
VERTEX
  8
1
 10
13.2080
 20
16.4084
 30
0.0000
 42
1.0000
  0
VERTEX
  8
1
 10
13.2080
 20
16.1036
 30
0.0000
  0
SEQEND
  8
0
  0
POLYLINE
  8
1
 66
1
 10
0.0000
 20
0.0000
 30
0.0000
 40
0.6096
 41
0.6096
 70
0
  0
VERTEX
  8
1
 10
30.0990
 20
20.9550
 30
0.0000
  0
VERTEX
  8
1
 10
30.3400
 20
20.9550
 30
0.0000
  0
SEQEND
  8
0
  0
POLYLINE
  8
1
 66
1
 10
0.0000
 20
0.0000
 30
0.0000
 40
0.3048
 41
0.3048
 70
0
  0
VERTEX
  8
1
 10
30.3400
 20
20.8026
 30
0.0000
 42
1.0000
  0
VERTEX
  8
1
 10
30.3400
 20
21.1074
 30
0.0000
  0
SEQEND
  8
0
  0
POLYLINE
  8
1
 66
1
 10
0.0000
 20
0.0000
 30
0.0000
 40
0.3048
 41
0.3048
 70
0
  0
VERTEX
  8
1
 10
30.0990
 20
21.1074
 30
0.0000
 42
1.0000
  0
VERTEX
  8
1
 10
30.0990
 20
20.8026
 30
0.0000
  0
SEQEND
  8
0
  0
POLYLINE
  8
1
 66
1
 10
0.0000
 20
0.0000
 30
0.0000
 40
0.6096
 41
0.6096
 70
0
  0
VERTEX
  8
1
 10
30.2260
 20
21.0820
 30
0.0000
  0
VERTEX
  8
1
 10
29.9720
 20
20.9550
 30
0.0000
  0
SEQEND
  8
0
  0
POLYLINE
  8
1
 66
1
 10
0.0000
 20
0.0000
 30
0.0000
 40
0.3048
 41
0.3048
 70
0
  0
VERTEX
  8
1
 10
29.9038
 20
21.0913
 30
0.0000
 42
1.0000
  0
VERTEX
  8
1
 10
30.0402
 20
20.8187
 30
0.0000
  0
SEQEND
  8
0
  0
POLYLINE
  8
1
 66
1
 10
0.0000
 20
0.0000
 30
0.0000
 40
0.3048
 41
0.3048
 70
0
  0
VERTEX
  8
1
 10
30.2942
 20
20.9457
 30
0.0000
 42
1.0000
  0
VERTEX
  8
1
 10
30.1578
 20
21.2183
 30
0.0000
  0
SEQEND
  8
0
  0
POLYLINE
  8
1
 66
1
 10
0.0000
 20
0.0000
 30
0.0000
 40
0.6096
 41
0.6096
 70
0
  0
VERTEX
  8
1
 10
30.0990
 20
20.9550
 30
0.0000
  0
VERTEX
  8
1
 10
29.9720
 20
20.9550
 30
0.0000
  0
SEQEND
  8
0
  0
POLYLINE
  8
1
 66
1
 10
0.0000
 20
0.0000
 30
0.0000
 40
0.3048
 41
0.3048
 70
0
  0
VERTEX
  8
1
 10
29.9720
 20
21.1074
 30
0.0000
 42
1.0000
  0
VERTEX
  8
1
 10
29.9720
 20
20.8026
 30
0.0000
  0
SEQEND
  8
0
  0
POLYLINE
  8
1
 66
1
 10
0.0000
 20
0.0000
 30
0.0000
 40
0.3048
 41
0.3048
 70
0
  0
VERTEX
  8
1
 10
30.0990
 20
20.8026
 30
0.0000
 42
1.0000
  0
VERTEX
  8
1
 10
30.0990
 20
21.1074
 30
0.0000
  0
SEQEND
  8
0
  0
POLYLINE
  8
1
 66
1
 10
0.0000
 20
0.0000
 30
0.0000
 40
0.6096
 41
0.6096
 70
0
  0
VERTEX
  8
1
 10
29.9720
 20
20.9550
 30
0.0000
  0
VERTEX
  8
1
 10
29.9720
 20
20.8280
 30
0.0000
  0
SEQEND
  8
0
  0
POLYLINE
  8
1
 66
1
 10
0.0000
 20
0.0000
 30
0.0000
 40
0.3048
 41
0.3048
 70
0
  0
VERTEX
  8
1
 10
29.8196
 20
20.8280
 30
0.0000
 42
1.0000
  0
VERTEX
  8
1
 10
30.1244
 20
20.8280
 30
0.0000
  0
SEQEND
  8
0
  0
POLYLINE
  8
1
 66
1
 10
0.0000
 20
0.0000
 30
0.0000
 40
0.3048
 41
0.3048
 70
0
  0
VERTEX
  8
1
 10
30.1244
 20
20.9550
 30
0.0000
 42
1.0000
  0
VERTEX
  8
1
 10
29.8196
 20
20.9550
 30
0.0000
  0
SEQEND
  8
0
  0
POLYLINE
  8
1
 66
1
 10
0.0000
 20
0.0000
 30
0.0000
 40
0.6096
 41
0.6096
 70
0
  0
VERTEX
  8
1
 10
29.9720
 20
20.8280
 30
0.0000
  0
VERTEX
  8
1
 10
27.9400
 20
22.8600
 30
0.0000
  0
SEQEND
  8
0
  0
POLYLINE
  8
1
 66
1
 10
0.0000
 20
0.0000
 30
0.0000
 40
0.3048
 41
0.3048
 70
0
  0
VERTEX
  8
1
 10
28.0478
 20
22.9678
 30
0.0000
 42
1.0000
  0
VERTEX
  8
1
 10
27.8322
 20
22.7522
 30
0.0000
  0
SEQEND
  8
0
  0
POLYLINE
  8
1
 66
1
 10
0.0000
 20
0.0000
 30
0.0000
 40
0.3048
 41
0.3048
 70
0
  0
VERTEX
  8
1
 10
29.8642
 20
20.7202
 30
0.0000
 42
1.0000
  0
VERTEX
  8
1
 10
30.0798
 20
20.9358
 30
0.0000
  0
SEQEND
  8
0
  0
POLYLINE
  8
1
 66
1
 10
0.0000
 20
0.0000
 30
0.0000
 40
0.6096
 41
0.6096
 70
0
  0
VERTEX
  8
1
 10
27.9400
 20
22.8600
 30
0.0000
  0
VERTEX
  8
1
 10
27.9400
 20
25.0190
 30
0.0000
  0
SEQEND
  8
0
  0
POLYLINE
  8
1
 66
1
 10
0.0000
 20
0.0000
 30
0.0000
 40
0.3048
 41
0.3048
 70
0
  0
VERTEX
  8
1
 10
28.0924
 20
25.0190
 30
0.0000
 42
1.0000
  0
VERTEX
  8
1
 10
27.7876
 20
25.0190
 30
0.0000
  0
SEQEND
  8
0
  0
POLYLINE
  8
1
 66
1
 10
0.0000
 20
0.0000
 30
0.0000
 40
0.3048
 41
0.3048
 70
0
  0
VERTEX
  8
1
 10
27.7876
 20
22.8600
 30
0.0000
 42
1.0000
  0
VERTEX
  8
1
 10
28.0924
 20
22.8600
 30
0.0000
  0
SEQEND
  8
0
  0
POLYLINE
  8
1
 66
1
 10
0.0000
 20
0.0000
 30
0.0000
 40
0.6096
 41
0.6096
 70
0
  0
VERTEX
  8
1
 10
27.9400
 20
25.0190
 30
0.0000
  0
VERTEX
  8
1
 10
27.8130
 20
26.2890
 30
0.0000
  0
SEQEND
  8
0
  0
POLYLINE
  8
1
 66
1
 10
0.0000
 20
0.0000
 30
0.0000
 40
0.3048
 41
0.3048
 70
0
  0
VERTEX
  8
1
 10
27.9646
 20
26.3042
 30
0.0000
 42
1.0000
  0
VERTEX
  8
1
 10
27.6614
 20
26.2738
 30
0.0000
  0
SEQEND
  8
0
  0
POLYLINE
  8
1
 66
1
 10
0.0000
 20
0.0000
 30
0.0000
 40
0.3048
 41
0.3048
 70
0
  0
VERTEX
  8
1
 10
27.7884
 20
25.0038
 30
0.0000
 42
1.0000
  0
VERTEX
  8
1
 10
28.0916
 20
25.0342
 30
0.0000
  0
SEQEND
  8
0
  0
POLYLINE
  8
1
 66
1
 10
0.0000
 20
0.0000
 30
0.0000
 40
0.6096
 41
0.6096
 70
0
  0
VERTEX
  8
1
 10
28.0670
 20
25.4000
 30
0.0000
  0
VERTEX
  8
1
 10
20.8280
 20
25.4000
 30
0.0000
  0
SEQEND
  8
0
  0
POLYLINE
  8
1
 66
1
 10
0.0000
 20
0.0000
 30
0.0000
 40
0.3048
 41
0.3048
 70
0
  0
VERTEX
  8
1
 10
20.8280
 20
25.5524
 30
0.0000
 42
1.0000
  0
VERTEX
  8
1
 10
20.8280
 20
25.2476
 30
0.0000
  0
SEQEND
  8
0
  0
POLYLINE
  8
1
 66
1
 10
0.0000
 20
0.0000
 30
0.0000
 40
0.3048
 41
0.3048
 70
0
  0
VERTEX
  8
1
 10
28.0670
 20
25.2476
 30
0.0000
 42
1.0000
  0
VERTEX
  8
1
 10
28.0670
 20
25.5524
 30
0.0000
  0
SEQEND
  8
0
  0
POLYLINE
  8
1
 66
1
 10
0.0000
 20
0.0000
 30
0.0000
 40
0.6096
 41
0.6096
 70
0
  0
VERTEX
  8
1
 10
27.9400
 20
25.0190
 30
0.0000
  0
VERTEX
  8
1
 10
28.0670
 20
25.4000
 30
0.0000
  0
SEQEND
  8
0
  0
POLYLINE
  8
1
 66
1
 10
0.0000
 20
0.0000
 30
0.0000
 40
0.3048
 41
0.3048
 70
0
  0
VERTEX
  8
1
 10
28.2116
 20
25.3518
 30
0.0000
 42
1.0000
  0
VERTEX
  8
1
 10
27.9224
 20
25.4482
 30
0.0000
  0
SEQEND
  8
0
  0
POLYLINE
  8
1
 66
1
 10
0.0000
 20
0.0000
 30
0.0000
 40
0.3048
 41
0.3048
 70
0
  0
VERTEX
  8
1
 10
27.7954
 20
25.0672
 30
0.0000
 42
1.0000
  0
VERTEX
  8
1
 10
28.0846
 20
24.9708
 30
0.0000
  0
SEQEND
  8
0
  0
POLYLINE
  8
1
 66
1
 10
0.0000
 20
0.0000
 30
0.0000
 40
0.6096
 41
0.6096
 70
0
  0
VERTEX
  8
1
 10
30.2260
 20
21.0820
 30
0.0000
  0
VERTEX
  8
1
 10
30.2260
 20
21.2090
 30
0.0000
  0
SEQEND
  8
0
  0
POLYLINE
  8
1
 66
1
 10
0.0000
 20
0.0000
 30
0.0000
 40
0.3048
 41
0.3048
 70
0
  0
VERTEX
  8
1
 10
30.3784
 20
21.2090
 30
0.0000
 42
1.0000
  0
VERTEX
  8
1
 10
30.0736
 20
21.2090
 30
0.0000
  0
SEQEND
  8
0
  0
POLYLINE
  8
1
 66
1
 10
0.0000
 20
0.0000
 30
0.0000
 40
0.3048
 41
0.3048
 70
0
  0
VERTEX
  8
1
 10
30.0736
 20
21.0820
 30
0.0000
 42
1.0000
  0
VERTEX
  8
1
 10
30.3784
 20
21.0820
 30
0.0000
  0
SEQEND
  8
0
  0
POLYLINE
  8
1
 66
1
 10
0.0000
 20
0.0000
 30
0.0000
 40
0.6096
 41
0.6096
 70
0
  0
VERTEX
  8
1
 10
20.8040
 20
16.3830
 30
0.0000
  0
VERTEX
  8
1
 10
20.5740
 20
16.3830
 30
0.0000
  0
SEQEND
  8
0
  0
POLYLINE
  8
1
 66
1
 10
0.0000
 20
0.0000
 30
0.0000
 40
0.3048
 41
0.3048
 70
0
  0
VERTEX
  8
1
 10
20.5740
 20
16.5354
 30
0.0000
 42
1.0000
  0
VERTEX
  8
1
 10
20.5740
 20
16.2306
 30
0.0000
  0
SEQEND
  8
0
  0
POLYLINE
  8
1
 66
1
 10
0.0000
 20
0.0000
 30
0.0000
 40
0.3048
 41
0.3048
 70
0
  0
VERTEX
  8
1
 10
20.8040
 20
16.2306
 30
0.0000
 42
1.0000
  0
VERTEX
  8
1
 10
20.8040
 20
16.5354
 30
0.0000
  0
SEQEND
  8
0
  0
POLYLINE
  8
1
 66
1
 10
0.0000
 20
0.0000
 30
0.0000
 40
0.6096
 41
0.6096
 70
0
  0
VERTEX
  8
1
 10
20.8040
 20
16.3830
 30
0.0000
  0
VERTEX
  8
1
 10
22.9870
 20
16.3830
 30
0.0000
  0
SEQEND
  8
0
  0
POLYLINE
  8
1
 66
1
 10
0.0000
 20
0.0000
 30
0.0000
 40
0.3048
 41
0.3048
 70
0
  0
VERTEX
  8
1
 10
22.9870
 20
16.2306
 30
0.0000
 42
1.0000
  0
VERTEX
  8
1
 10
22.9870
 20
16.5354
 30
0.0000
  0
SEQEND
  8
0
  0
POLYLINE
  8
1
 66
1
 10
0.0000
 20
0.0000
 30
0.0000
 40
0.3048
 41
0.3048
 70
0
  0
VERTEX
  8
1
 10
20.8040
 20
16.5354
 30
0.0000
 42
1.0000
  0
VERTEX
  8
1
 10
20.8040
 20
16.2306
 30
0.0000
  0
SEQEND
  8
0
  0
POLYLINE
  8
1
 66
1
 10
0.0000
 20
0.0000
 30
0.0000
 40
0.6096
 41
0.6096
 70
0
  0
VERTEX
  8
1
 10
22.9870
 20
16.3830
 30
0.0000
  0
VERTEX
  8
1
 10
25.4000
 20
18.7960
 30
0.0000
  0
SEQEND
  8
0
  0
POLYLINE
  8
1
 66
1
 10
0.0000
 20
0.0000
 30
0.0000
 40
0.3048
 41
0.3048
 70
0
  0
VERTEX
  8
1
 10
25.5078
 20
18.6882
 30
0.0000
 42
1.0000
  0
VERTEX
  8
1
 10
25.2922
 20
18.9038
 30
0.0000
  0
SEQEND
  8
0
  0
POLYLINE
  8
1
 66
1
 10
0.0000
 20
0.0000
 30
0.0000
 40
0.3048
 41
0.3048
 70
0
  0
VERTEX
  8
1
 10
22.8792
 20
16.4908
 30
0.0000
 42
1.0000
  0
VERTEX
  8
1
 10
23.0948
 20
16.2752
 30
0.0000
  0
SEQEND
  8
0
  0
POLYLINE
  8
1
 66
1
 10
0.0000
 20
0.0000
 30
0.0000
 40
0.6096
 41
0.6096
 70
0
  0
VERTEX
  8
1
 10
25.4000
 20
18.7960
 30
0.0000
  0
VERTEX
  8
1
 10
27.9400
 20
18.7960
 30
0.0000
  0
SEQEND
  8
0
  0
POLYLINE
  8
1
 66
1
 10
0.0000
 20
0.0000
 30
0.0000
 40
0.3048
 41
0.3048
 70
0
  0
VERTEX
  8
1
 10
27.9400
 20
18.6436
 30
0.0000
 42
1.0000
  0
VERTEX
  8
1
 10
27.9400
 20
18.9484
 30
0.0000
  0
SEQEND
  8
0
  0
POLYLINE
  8
1
 66
1
 10
0.0000
 20
0.0000
 30
0.0000
 40
0.3048
 41
0.3048
 70
0
  0
VERTEX
  8
1
 10
25.4000
 20
18.9484
 30
0.0000
 42
1.0000
  0
VERTEX
  8
1
 10
25.4000
 20
18.6436
 30
0.0000
  0
SEQEND
  8
0
  0
POLYLINE
  8
1
 66
1
 10
0.0000
 20
0.0000
 30
0.0000
 40
0.6096
 41
0.6096
 70
0
  0
VERTEX
  8
1
 10
27.9400
 20
18.7960
 30
0.0000
  0
VERTEX
  8
1
 10
29.9720
 20
20.8280
 30
0.0000
  0
SEQEND
  8
0
  0
POLYLINE
  8
1
 66
1
 10
0.0000
 20
0.0000
 30
0.0000
 40
0.3048
 41
0.3048
 70
0
  0
VERTEX
  8
1
 10
30.0798
 20
20.7202
 30
0.0000
 42
1.0000
  0
VERTEX
  8
1
 10
29.8642
 20
20.9358
 30
0.0000
  0
SEQEND
  8
0
  0
POLYLINE
  8
1
 66
1
 10
0.0000
 20
0.0000
 30
0.0000
 40
0.3048
 41
0.3048
 70
0
  0
VERTEX
  8
1
 10
27.8322
 20
18.9038
 30
0.0000
 42
1.0000
  0
VERTEX
  8
1
 10
28.0478
 20
18.6882
 30
0.0000
  0
SEQEND
  8
0
  0
POLYLINE
  8
1
 66
1
 10
0.0000
 20
0.0000
 30
0.0000
 40
0.6096
 41
0.6096
 70
0
  0
VERTEX
  8
1
 10
29.9720
 20
20.8280
 30
0.0000
  0
VERTEX
  8
1
 10
30.0990
 20
20.9550
 30
0.0000
  0
SEQEND
  8
0
  0
POLYLINE
  8
1
 66
1
 10
0.0000
 20
0.0000
 30
0.0000
 40
0.3048
 41
0.3048
 70
0
  0
VERTEX
  8
1
 10
30.2068
 20
20.8472
 30
0.0000
 42
1.0000
  0
VERTEX
  8
1
 10
29.9912
 20
21.0628
 30
0.0000
  0
SEQEND
  8
0
  0
POLYLINE
  8
1
 66
1
 10
0.0000
 20
0.0000
 30
0.0000
 40
0.3048
 41
0.3048
 70
0
  0
VERTEX
  8
1
 10
29.8642
 20
20.9358
 30
0.0000
 42
1.0000
  0
VERTEX
  8
1
 10
30.0798
 20
20.7202
 30
0.0000
  0
SEQEND
  8
0
  0
POLYLINE
  8
1
 66
1
 10
0.0000
 20
0.0000
 30
0.0000
 40
0.6096
 41
0.6096
 70
0
  0
VERTEX
  8
1
 10
30.0990
 20
20.9550
 30
0.0000
  0
VERTEX
  8
1
 10
30.2260
 20
21.0820
 30
0.0000
  0
SEQEND
  8
0
  0
POLYLINE
  8
1
 66
1
 10
0.0000
 20
0.0000
 30
0.0000
 40
0.3048
 41
0.3048
 70
0
  0
VERTEX
  8
1
 10
30.3338
 20
20.9742
 30
0.0000
 42
1.0000
  0
VERTEX
  8
1
 10
30.1182
 20
21.1898
 30
0.0000
  0
SEQEND
  8
0
  0
POLYLINE
  8
1
 66
1
 10
0.0000
 20
0.0000
 30
0.0000
 40
0.3048
 41
0.3048
 70
0
  0
VERTEX
  8
1
 10
29.9912
 20
21.0628
 30
0.0000
 42
1.0000
  0
VERTEX
  8
1
 10
30.2068
 20
20.8472
 30
0.0000
  0
SEQEND
  8
0
  0
POLYLINE
  8
1
 66
1
 10
0.0000
 20
0.0000
 30
0.0000
 40
0.6096
 41
0.6096
 70
0
  0
VERTEX
  8
1
 10
35.0520
 20
14.0970
 30
0.0000
  0
VERTEX
  8
1
 10
35.0520
 20
23.2410
 30
0.0000
  0
SEQEND
  8
0
  0
POLYLINE
  8
1
 66
1
 10
0.0000
 20
0.0000
 30
0.0000
 40
0.3048
 41
0.3048
 70
0
  0
VERTEX
  8
1
 10
35.2044
 20
23.2410
 30
0.0000
 42
1.0000
  0
VERTEX
  8
1
 10
34.8996
 20
23.2410
 30
0.0000
  0
SEQEND
  8
0
  0
POLYLINE
  8
1
 66
1
 10
0.0000
 20
0.0000
 30
0.0000
 40
0.3048
 41
0.3048
 70
0
  0
VERTEX
  8
1
 10
34.8996
 20
14.0970
 30
0.0000
 42
1.0000
  0
VERTEX
  8
1
 10
35.2044
 20
14.0970
 30
0.0000
  0
SEQEND
  8
0
  0
POLYLINE
  8
1
 66
1
 10
0.0000
 20
0.0000
 30
0.0000
 40
0.6096
 41
0.6096
 70
0
  0
VERTEX
  8
1
 10
35.0520
 20
23.2410
 30
0.0000
  0
VERTEX
  8
1
 10
32.7660
 20
25.5270
 30
0.0000
  0
SEQEND
  8
0
  0
POLYLINE
  8
1
 66
1
 10
0.0000
 20
0.0000
 30
0.0000
 40
0.3048
 41
0.3048
 70
0
  0
VERTEX
  8
1
 10
32.8738
 20
25.6348
 30
0.0000
 42
1.0000
  0
VERTEX
  8
1
 10
32.6582
 20
25.4192
 30
0.0000
  0
SEQEND
  8
0
  0
POLYLINE
  8
1
 66
1
 10
0.0000
 20
0.0000
 30
0.0000
 40
0.3048
 41
0.3048
 70
0
  0
VERTEX
  8
1
 10
34.9442
 20
23.1332
 30
0.0000
 42
1.0000
  0
VERTEX
  8
1
 10
35.1598
 20
23.3488
 30
0.0000
  0
SEQEND
  8
0
  0
POLYLINE
  8
1
 66
1
 10
0.0000
 20
0.0000
 30
0.0000
 40
0.6096
 41
0.6096
 70
0
  0
VERTEX
  8
1
 10
32.7660
 20
25.5270
 30
0.0000
  0
VERTEX
  8
1
 10
32.8930
 20
26.2890
 30
0.0000
  0
SEQEND
  8
0
  0
POLYLINE
  8
1
 66
1
 10
0.0000
 20
0.0000
 30
0.0000
 40
0.3048
 41
0.3048
 70
0
  0
VERTEX
  8
1
 10
33.0433
 20
26.2639
 30
0.0000
 42
1.0000
  0
VERTEX
  8
1
 10
32.7427
 20
26.3141
 30
0.0000
  0
SEQEND
  8
0
  0
POLYLINE
  8
1
 66
1
 10
0.0000
 20
0.0000
 30
0.0000
 40
0.3048
 41
0.3048
 70
0
  0
VERTEX
  8
1
 10
32.6157
 20
25.5521
 30
0.0000
 42
1.0000
  0
VERTEX
  8
1
 10
32.9163
 20
25.5019
 30
0.0000
  0
SEQEND
  8
0
  0
POLYLINE
  8
1
 66
1
 10
0.0000
 20
0.0000
 30
0.0000
 40
0.6096
 41
0.6096
 70
0
  0
VERTEX
  8
1
 10
31.4960
 20
10.5410
 30
0.0000
  0
VERTEX
  8
1
 10
35.0520
 20
14.0970
 30
0.0000
  0
SEQEND
  8
0
  0
POLYLINE
  8
1
 66
1
 10
0.0000
 20
0.0000
 30
0.0000
 40
0.3048
 41
0.3048
 70
0
  0
VERTEX
  8
1
 10
35.1598
 20
13.9892
 30
0.0000
 42
1.0000
  0
VERTEX
  8
1
 10
34.9442
 20
14.2048
 30
0.0000
  0
SEQEND
  8
0
  0
POLYLINE
  8
1
 66
1
 10
0.0000
 20
0.0000
 30
0.0000
 40
0.3048
 41
0.3048
 70
0
  0
VERTEX
  8
1
 10
31.3882
 20
10.6488
 30
0.0000
 42
1.0000
  0
VERTEX
  8
1
 10
31.6038
 20
10.4332
 30
0.0000
  0
SEQEND
  8
0
  0
POLYLINE
  8
1
 66
1
 10
0.0000
 20
0.0000
 30
0.0000
 40
0.6096
 41
0.6096
 70
0
  0
VERTEX
  8
1
 10
18.6930
 20
19.8120
 30
0.0000
  0
VERTEX
  8
1
 10
18.6690
 20
19.3040
 30
0.0000
  0
SEQEND
  8
0
  0
POLYLINE
  8
1
 66
1
 10
0.0000
 20
0.0000
 30
0.0000
 40
0.3048
 41
0.3048
 70
0
  0
VERTEX
  8
1
 10
18.5168
 20
19.3112
 30
0.0000
 42
1.0000
  0
VERTEX
  8
1
 10
18.8212
 20
19.2968
 30
0.0000
  0
SEQEND
  8
0
  0
POLYLINE
  8
1
 66
1
 10
0.0000
 20
0.0000
 30
0.0000
 40
0.3048
 41
0.3048
 70
0
  0
VERTEX
  8
1
 10
18.8452
 20
19.8048
 30
0.0000
 42
1.0000
  0
VERTEX
  8
1
 10
18.5408
 20
19.8192
 30
0.0000
  0
SEQEND
  8
0
  0
POLYLINE
  8
1
 66
1
 10
0.0000
 20
0.0000
 30
0.0000
 40
0.6096
 41
0.6096
 70
0
  0
VERTEX
  8
1
 10
19.0500
 20
19.4070
 30
0.0000
  0
VERTEX
  8
1
 10
18.6930
 20
19.8120
 30
0.0000
  0
SEQEND
  8
0
  0
POLYLINE
  8
1
 66
1
 10
0.0000
 20
0.0000
 30
0.0000
 40
0.3048
 41
0.3048
 70
0
  0
VERTEX
  8
1
 10
18.8073
 20
19.9128
 30
0.0000
 42
1.0000
  0
VERTEX
  8
1
 10
18.5787
 20
19.7112
 30
0.0000
  0
SEQEND
  8
0
  0
POLYLINE
  8
1
 66
1
 10
0.0000
 20
0.0000
 30
0.0000
 40
0.3048
 41
0.3048
 70
0
  0
VERTEX
  8
1
 10
18.9357
 20
19.3062
 30
0.0000
 42
1.0000
  0
VERTEX
  8
1
 10
19.1643
 20
19.5078
 30
0.0000
  0
SEQEND
  8
0
  0
POLYLINE
  8
1
 66
1
 10
0.0000
 20
0.0000
 30
0.0000
 40
0.6096
 41
0.6096
 70
0
  0
VERTEX
  8
1
 10
18.6690
 20
21.6918
 30
0.0000
  0
VERTEX
  8
1
 10
18.7708
 20
22.3016
 30
0.0000
  0
SEQEND
  8
0
  0
POLYLINE
  8
1
 66
1
 10
0.0000
 20
0.0000
 30
0.0000
 40
0.3048
 41
0.3048
 70
0
  0
VERTEX
  8
1
 10
18.9211
 20
22.2765
 30
0.0000
 42
1.0000
  0
VERTEX
  8
1
 10
18.6205
 20
22.3267
 30
0.0000
  0
SEQEND
  8
0
  0
POLYLINE
  8
1
 66
1
 10
0.0000
 20
0.0000
 30
0.0000
 40
0.3048
 41
0.3048
 70
0
  0
VERTEX
  8
1
 10
18.5187
 20
21.7169
 30
0.0000
 42
1.0000
  0
VERTEX
  8
1
 10
18.8193
 20
21.6667
 30
0.0000
  0
SEQEND
  8
0
  0
POLYLINE
  8
1
 66
1
 10
0.0000
 20
0.0000
 30
0.0000
 40
0.6096
 41
0.6096
 70
0
  0
VERTEX
  8
1
 10
18.6690
 20
19.3040
 30
0.0000
  0
VERTEX
  8
1
 10
18.6690
 20
21.6918
 30
0.0000
  0
SEQEND
  8
0
  0
POLYLINE
  8
1
 66
1
 10
0.0000
 20
0.0000
 30
0.0000
 40
0.3048
 41
0.3048
 70
0
  0
VERTEX
  8
1
 10
18.8214
 20
21.6918
 30
0.0000
 42
1.0000
  0
VERTEX
  8
1
 10
18.5166
 20
21.6918
 30
0.0000
  0
SEQEND
  8
0
  0
POLYLINE
  8
1
 66
1
 10
0.0000
 20
0.0000
 30
0.0000
 40
0.3048
 41
0.3048
 70
0
  0
VERTEX
  8
1
 10
18.5166
 20
19.3040
 30
0.0000
 42
1.0000
  0
VERTEX
  8
1
 10
18.8214
 20
19.3040
 30
0.0000
  0
SEQEND
  8
0
  0
POLYLINE
  8
1
 66
1
 10
0.0000
 20
0.0000
 30
0.0000
 40
0.6096
 41
0.6096
 70
0
  0
VERTEX
  8
1
 10
36.3220
 20
24.5110
 30
0.0000
  0
VERTEX
  8
1
 10
35.4330
 20
26.2890
 30
0.0000
  0
SEQEND
  8
0
  0
POLYLINE
  8
1
 66
1
 10
0.0000
 20
0.0000
 30
0.0000
 40
0.3048
 41
0.3048
 70
0
  0
VERTEX
  8
1
 10
35.5693
 20
26.3572
 30
0.0000
 42
1.0000
  0
VERTEX
  8
1
 10
35.2967
 20
26.2208
 30
0.0000
  0
SEQEND
  8
0
  0
POLYLINE
  8
1
 66
1
 10
0.0000
 20
0.0000
 30
0.0000
 40
0.3048
 41
0.3048
 70
0
  0
VERTEX
  8
1
 10
36.1857
 20
24.4428
 30
0.0000
 42
1.0000
  0
VERTEX
  8
1
 10
36.4583
 20
24.5792
 30
0.0000
  0
SEQEND
  8
0
  0
POLYLINE
  8
1
 66
1
 10
0.0000
 20
0.0000
 30
0.0000
 40
0.6096
 41
0.6096
 70
0
  0
VERTEX
  8
1
 10
36.3220
 20
3.1750
 30
0.0000
  0
VERTEX
  8
1
 10
36.3220
 20
24.5110
 30
0.0000
  0
SEQEND
  8
0
  0
POLYLINE
  8
1
 66
1
 10
0.0000
 20
0.0000
 30
0.0000
 40
0.3048
 41
0.3048
 70
0
  0
VERTEX
  8
1
 10
36.4744
 20
24.5110
 30
0.0000
 42
1.0000
  0
VERTEX
  8
1
 10
36.1696
 20
24.5110
 30
0.0000
  0
SEQEND
  8
0
  0
POLYLINE
  8
1
 66
1
 10
0.0000
 20
0.0000
 30
0.0000
 40
0.3048
 41
0.3048
 70
0
  0
VERTEX
  8
1
 10
36.1696
 20
3.1750
 30
0.0000
 42
1.0000
  0
VERTEX
  8
1
 10
36.4744
 20
3.1750
 30
0.0000
  0
SEQEND
  8
0
  0
POLYLINE
  8
1
 66
1
 10
0.0000
 20
0.0000
 30
0.0000
 40
0.6096
 41
0.6096
 70
0
  0
VERTEX
  8
1
 10
34.5440
 20
1.3970
 30
0.0000
  0
VERTEX
  8
1
 10
36.3220
 20
3.1750
 30
0.0000
  0
SEQEND
  8
0
  0
POLYLINE
  8
1
 66
1
 10
0.0000
 20
0.0000
 30
0.0000
 40
0.3048
 41
0.3048
 70
0
  0
VERTEX
  8
1
 10
36.4298
 20
3.0672
 30
0.0000
 42
1.0000
  0
VERTEX
  8
1
 10
36.2142
 20
3.2828
 30
0.0000
  0
SEQEND
  8
0
  0
POLYLINE
  8
1
 66
1
 10
0.0000
 20
0.0000
 30
0.0000
 40
0.3048
 41
0.3048
 70
0
  0
VERTEX
  8
1
 10
34.4362
 20
1.5048
 30
0.0000
 42
1.0000
  0
VERTEX
  8
1
 10
34.6518
 20
1.2892
 30
0.0000
  0
SEQEND
  8
0
  0
POLYLINE
  8
1
 66
1
 10
0.0000
 20
0.0000
 30
0.0000
 40
0.6096
 41
0.6096
 70
0
  0
VERTEX
  8
1
 10
27.6860
 20
1.3970
 30
0.0000
  0
VERTEX
  8
1
 10
34.5440
 20
1.3970
 30
0.0000
  0
SEQEND
  8
0
  0
POLYLINE
  8
1
 66
1
 10
0.0000
 20
0.0000
 30
0.0000
 40
0.3048
 41
0.3048
 70
0
  0
VERTEX
  8
1
 10
34.5440
 20
1.2446
 30
0.0000
 42
1.0000
  0
VERTEX
  8
1
 10
34.5440
 20
1.5494
 30
0.0000
  0
SEQEND
  8
0
  0
POLYLINE
  8
1
 66
1
 10
0.0000
 20
0.0000
 30
0.0000
 40
0.3048
 41
0.3048
 70
0
  0
VERTEX
  8
1
 10
27.6860
 20
1.5494
 30
0.0000
 42
1.0000
  0
VERTEX
  8
1
 10
27.6860
 20
1.2446
 30
0.0000
  0
SEQEND
  8
0
  0
POLYLINE
  8
1
 66
1
 10
0.0000
 20
0.0000
 30
0.0000
 40
0.6096
 41
0.6096
 70
0
  0
VERTEX
  8
1
 10
19.0500
 20
19.6850
 30
0.0000
  0
VERTEX
  8
1
 10
19.0500
 20
19.4070
 30
0.0000
  0
SEQEND
  8
0
  0
POLYLINE
  8
1
 66
1
 10
0.0000
 20
0.0000
 30
0.0000
 40
0.3048
 41
0.3048
 70
0
  0
VERTEX
  8
1
 10
18.8976
 20
19.4070
 30
0.0000
 42
1.0000
  0
VERTEX
  8
1
 10
19.2024
 20
19.4070
 30
0.0000
  0
SEQEND
  8
0
  0
POLYLINE
  8
1
 66
1
 10
0.0000
 20
0.0000
 30
0.0000
 40
0.3048
 41
0.3048
 70
0
  0
VERTEX
  8
1
 10
19.2024
 20
19.6850
 30
0.0000
 42
1.0000
  0
VERTEX
  8
1
 10
18.8976
 20
19.6850
 30
0.0000
  0
SEQEND
  8
0
  0
POLYLINE
  8
1
 66
1
 10
0.0000
 20
0.0000
 30
0.0000
 40
0.6096
 41
0.6096
 70
0
  0
VERTEX
  8
1
 10
19.0500
 20
19.4070
 30
0.0000
  0
VERTEX
  8
1
 10
19.2800
 20
19.6850
 30
0.0000
  0
SEQEND
  8
0
  0
POLYLINE
  8
1
 66
1
 10
0.0000
 20
0.0000
 30
0.0000
 40
0.3048
 41
0.3048
 70
0
  0
VERTEX
  8
1
 10
19.3974
 20
19.5879
 30
0.0000
 42
1.0000
  0
VERTEX
  8
1
 10
19.1626
 20
19.7821
 30
0.0000
  0
SEQEND
  8
0
  0
POLYLINE
  8
1
 66
1
 10
0.0000
 20
0.0000
 30
0.0000
 40
0.3048
 41
0.3048
 70
0
  0
VERTEX
  8
1
 10
18.9326
 20
19.5041
 30
0.0000
 42
1.0000
  0
VERTEX
  8
1
 10
19.1674
 20
19.3099
 30
0.0000
  0
SEQEND
  8
0
  0
POLYLINE
  8
1
 66
1
 10
0.0000
 20
0.0000
 30
0.0000
 40
0.6096
 41
0.6096
 70
0
  0
VERTEX
  8
1
 10
16.2560
 20
19.6850
 30
0.0000
  0
VERTEX
  8
1
 10
19.0500
 20
19.6850
 30
0.0000
  0
SEQEND
  8
0
  0
POLYLINE
  8
1
 66
1
 10
0.0000
 20
0.0000
 30
0.0000
 40
0.3048
 41
0.3048
 70
0
  0
VERTEX
  8
1
 10
19.0500
 20
19.5326
 30
0.0000
 42
1.0000
  0
VERTEX
  8
1
 10
19.0500
 20
19.8374
 30
0.0000
  0
SEQEND
  8
0
  0
POLYLINE
  8
1
 66
1
 10
0.0000
 20
0.0000
 30
0.0000
 40
0.3048
 41
0.3048
 70
0
  0
VERTEX
  8
1
 10
16.2560
 20
19.8374
 30
0.0000
 42
1.0000
  0
VERTEX
  8
1
 10
16.2560
 20
19.5326
 30
0.0000
  0
SEQEND
  8
0
  0
POLYLINE
  8
1
 66
1
 10
0.0000
 20
0.0000
 30
0.0000
 40
0.6096
 41
0.6096
 70
0
  0
VERTEX
  8
1
 10
19.0500
 20
19.6850
 30
0.0000
  0
VERTEX
  8
1
 10
19.2800
 20
19.6850
 30
0.0000
  0
SEQEND
  8
0
  0
POLYLINE
  8
1
 66
1
 10
0.0000
 20
0.0000
 30
0.0000
 40
0.3048
 41
0.3048
 70
0
  0
VERTEX
  8
1
 10
19.2800
 20
19.5326
 30
0.0000
 42
1.0000
  0
VERTEX
  8
1
 10
19.2800
 20
19.8374
 30
0.0000
  0
SEQEND
  8
0
  0
POLYLINE
  8
1
 66
1
 10
0.0000
 20
0.0000
 30
0.0000
 40
0.3048
 41
0.3048
 70
0
  0
VERTEX
  8
1
 10
19.0500
 20
19.8374
 30
0.0000
 42
1.0000
  0
VERTEX
  8
1
 10
19.0500
 20
19.5326
 30
0.0000
  0
SEQEND
  8
0
  0
POLYLINE
  8
1
 66
1
 10
0.0000
 20
0.0000
 30
0.0000
 40
0.6096
 41
0.6096
 70
0
  0
VERTEX
  8
1
 10
13.4620
 20
22.4790
 30
0.0000
  0
VERTEX
  8
1
 10
16.2560
 20
19.6850
 30
0.0000
  0
SEQEND
  8
0
  0
POLYLINE
  8
1
 66
1
 10
0.0000
 20
0.0000
 30
0.0000
 40
0.3048
 41
0.3048
 70
0
  0
VERTEX
  8
1
 10
16.1482
 20
19.5772
 30
0.0000
 42
1.0000
  0
VERTEX
  8
1
 10
16.3638
 20
19.7928
 30
0.0000
  0
SEQEND
  8
0
  0
POLYLINE
  8
1
 66
1
 10
0.0000
 20
0.0000
 30
0.0000
 40
0.3048
 41
0.3048
 70
0
  0
VERTEX
  8
1
 10
13.5698
 20
22.5868
 30
0.0000
 42
1.0000
  0
VERTEX
  8
1
 10
13.3542
 20
22.3712
 30
0.0000
  0
SEQEND
  8
0
  0
POLYLINE
  8
1
 66
1
 10
0.0000
 20
0.0000
 30
0.0000
 40
0.6096
 41
0.6096
 70
0
  0
VERTEX
  8
1
 10
13.4620
 20
26.7970
 30
0.0000
  0
VERTEX
  8
1
 10
13.4620
 20
22.4790
 30
0.0000
  0
SEQEND
  8
0
  0
POLYLINE
  8
1
 66
1
 10
0.0000
 20
0.0000
 30
0.0000
 40
0.3048
 41
0.3048
 70
0
  0
VERTEX
  8
1
 10
13.3096
 20
22.4790
 30
0.0000
 42
1.0000
  0
VERTEX
  8
1
 10
13.6144
 20
22.4790
 30
0.0000
  0
SEQEND
  8
0
  0
POLYLINE
  8
1
 66
1
 10
0.0000
 20
0.0000
 30
0.0000
 40
0.3048
 41
0.3048
 70
0
  0
VERTEX
  8
1
 10
13.6144
 20
26.7970
 30
0.0000
 42
1.0000
  0
VERTEX
  8
1
 10
13.3096
 20
26.7970
 30
0.0000
  0
SEQEND
  8
0
  0
POLYLINE
  8
1
 66
1
 10
0.0000
 20
0.0000
 30
0.0000
 40
0.6096
 41
0.6096
 70
0
  0
VERTEX
  8
1
 10
13.9700
 20
27.3050
 30
0.0000
  0
VERTEX
  8
1
 10
13.4620
 20
26.7970
 30
0.0000
  0
SEQEND
  8
0
  0
POLYLINE
  8
1
 66
1
 10
0.0000
 20
0.0000
 30
0.0000
 40
0.3048
 41
0.3048
 70
0
  0
VERTEX
  8
1
 10
13.3542
 20
26.9048
 30
0.0000
 42
1.0000
  0
VERTEX
  8
1
 10
13.5698
 20
26.6892
 30
0.0000
  0
SEQEND
  8
0
  0
POLYLINE
  8
1
 66
1
 10
0.0000
 20
0.0000
 30
0.0000
 40
0.3048
 41
0.3048
 70
0
  0
VERTEX
  8
1
 10
14.0778
 20
27.1972
 30
0.0000
 42
1.0000
  0
VERTEX
  8
1
 10
13.8622
 20
27.4128
 30
0.0000
  0
SEQEND
  8
0
  0
POLYLINE
  8
1
 66
1
 10
0.0000
 20
0.0000
 30
0.0000
 40
0.6096
 41
0.6096
 70
0
  0
VERTEX
  8
1
 10
34.4170
 20
28.8290
 30
0.0000
  0
VERTEX
  8
1
 10
26.9240
 20
28.8290
 30
0.0000
  0
SEQEND
  8
0
  0
POLYLINE
  8
1
 66
1
 10
0.0000
 20
0.0000
 30
0.0000
 40
0.3048
 41
0.3048
 70
0
  0
VERTEX
  8
1
 10
26.9240
 20
28.9814
 30
0.0000
 42
1.0000
  0
VERTEX
  8
1
 10
26.9240
 20
28.6766
 30
0.0000
  0
SEQEND
  8
0
  0
POLYLINE
  8
1
 66
1
 10
0.0000
 20
0.0000
 30
0.0000
 40
0.3048
 41
0.3048
 70
0
  0
VERTEX
  8
1
 10
34.4170
 20
28.6766
 30
0.0000
 42
1.0000
  0
VERTEX
  8
1
 10
34.4170
 20
28.9814
 30
0.0000
  0
SEQEND
  8
0
  0
POLYLINE
  8
1
 66
1
 10
0.0000
 20
0.0000
 30
0.0000
 40
0.6096
 41
0.6096
 70
0
  0
VERTEX
  8
1
 10
26.9240
 20
28.8290
 30
0.0000
  0
VERTEX
  8
1
 10
25.4000
 20
27.3050
 30
0.0000
  0
SEQEND
  8
0
  0
POLYLINE
  8
1
 66
1
 10
0.0000
 20
0.0000
 30
0.0000
 40
0.3048
 41
0.3048
 70
0
  0
VERTEX
  8
1
 10
25.2922
 20
27.4128
 30
0.0000
 42
1.0000
  0
VERTEX
  8
1
 10
25.5078
 20
27.1972
 30
0.0000
  0
SEQEND
  8
0
  0
POLYLINE
  8
1
 66
1
 10
0.0000
 20
0.0000
 30
0.0000
 40
0.3048
 41
0.3048
 70
0
  0
VERTEX
  8
1
 10
27.0318
 20
28.7212
 30
0.0000
 42
1.0000
  0
VERTEX
  8
1
 10
26.8162
 20
28.9368
 30
0.0000
  0
SEQEND
  8
0
  0
POLYLINE
  8
1
 66
1
 10
0.0000
 20
0.0000
 30
0.0000
 40
0.6096
 41
0.6096
 70
0
  0
VERTEX
  8
1
 10
25.4000
 20
27.3050
 30
0.0000
  0
VERTEX
  8
1
 10
13.9700
 20
27.3050
 30
0.0000
  0
SEQEND
  8
0
  0
POLYLINE
  8
1
 66
1
 10
0.0000
 20
0.0000
 30
0.0000
 40
0.3048
 41
0.3048
 70
0
  0
VERTEX
  8
1
 10
13.9700
 20
27.4574
 30
0.0000
 42
1.0000
  0
VERTEX
  8
1
 10
13.9700
 20
27.1526
 30
0.0000
  0
SEQEND
  8
0
  0
POLYLINE
  8
1
 66
1
 10
0.0000
 20
0.0000
 30
0.0000
 40
0.3048
 41
0.3048
 70
0
  0
VERTEX
  8
1
 10
25.4000
 20
27.1526
 30
0.0000
 42
1.0000
  0
VERTEX
  8
1
 10
25.4000
 20
27.4574
 30
0.0000
  0
SEQEND
  8
0
  0
POLYLINE
  8
1
 66
1
 10
0.0000
 20
0.0000
 30
0.0000
 40
0.6096
 41
0.6096
 70
0
  0
VERTEX
  8
1
 10
35.4330
 20
27.8130
 30
0.0000
  0
VERTEX
  8
1
 10
34.4170
 20
28.8290
 30
0.0000
  0
SEQEND
  8
0
  0
POLYLINE
  8
1
 66
1
 10
0.0000
 20
0.0000
 30
0.0000
 40
0.3048
 41
0.3048
 70
0
  0
VERTEX
  8
1
 10
34.5248
 20
28.9368
 30
0.0000
 42
1.0000
  0
VERTEX
  8
1
 10
34.3092
 20
28.7212
 30
0.0000
  0
SEQEND
  8
0
  0
POLYLINE
  8
1
 66
1
 10
0.0000
 20
0.0000
 30
0.0000
 40
0.3048
 41
0.3048
 70
0
  0
VERTEX
  8
1
 10
35.3252
 20
27.7052
 30
0.0000
 42
1.0000
  0
VERTEX
  8
1
 10
35.5408
 20
27.9208
 30
0.0000
  0
SEQEND
  8
0
  0
POLYLINE
  8
1
 66
1
 10
0.0000
 20
0.0000
 30
0.0000
 40
0.6096
 41
0.6096
 70
0
  0
VERTEX
  8
1
 10
35.4330
 20
26.2890
 30
0.0000
  0
VERTEX
  8
1
 10
35.4330
 20
27.8130
 30
0.0000
  0
SEQEND
  8
0
  0
POLYLINE
  8
1
 66
1
 10
0.0000
 20
0.0000
 30
0.0000
 40
0.3048
 41
0.3048
 70
0
  0
VERTEX
  8
1
 10
35.5854
 20
27.8130
 30
0.0000
 42
1.0000
  0
VERTEX
  8
1
 10
35.2806
 20
27.8130
 30
0.0000
  0
SEQEND
  8
0
  0
POLYLINE
  8
1
 66
1
 10
0.0000
 20
0.0000
 30
0.0000
 40
0.3048
 41
0.3048
 70
0
  0
VERTEX
  8
1
 10
35.2806
 20
26.2890
 30
0.0000
 42
1.0000
  0
VERTEX
  8
1
 10
35.5854
 20
26.2890
 30
0.0000
  0
SEQEND
  8
0
  0
POLYLINE
  8
1
 66
1
 10
0.0000
 20
0.0000
 30
0.0000
 40
0.6096
 41
0.6096
 70
0
  0
VERTEX
  8
1
 10
27.1780
 20
1.3970
 30
0.0000
  0
VERTEX
  8
1
 10
27.6860
 20
1.3970
 30
0.0000
  0
SEQEND
  8
0
  0
POLYLINE
  8
1
 66
1
 10
0.0000
 20
0.0000
 30
0.0000
 40
0.3048
 41
0.3048
 70
0
  0
VERTEX
  8
1
 10
27.6860
 20
1.2446
 30
0.0000
 42
1.0000
  0
VERTEX
  8
1
 10
27.6860
 20
1.5494
 30
0.0000
  0
SEQEND
  8
0
  0
POLYLINE
  8
1
 66
1
 10
0.0000
 20
0.0000
 30
0.0000
 40
0.3048
 41
0.3048
 70
0
  0
VERTEX
  8
1
 10
27.1780
 20
1.5494
 30
0.0000
 42
1.0000
  0
VERTEX
  8
1
 10
27.1780
 20
1.2446
 30
0.0000
  0
SEQEND
  8
0
  0
POLYLINE
  8
1
 66
1
 10
0.0000
 20
0.0000
 30
0.0000
 40
0.6096
 41
0.6096
 70
0
  0
VERTEX
  8
1
 10
27.6860
 20
1.3970
 30
0.0000
  0
VERTEX
  8
1
 10
27.4320
 20
1.2700
 30
0.0000
  0
SEQEND
  8
0
  0
POLYLINE
  8
1
 66
1
 10
0.0000
 20
0.0000
 30
0.0000
 40
0.3048
 41
0.3048
 70
0
  0
VERTEX
  8
1
 10
27.3638
 20
1.4063
 30
0.0000
 42
1.0000
  0
VERTEX
  8
1
 10
27.5002
 20
1.1337
 30
0.0000
  0
SEQEND
  8
0
  0
POLYLINE
  8
1
 66
1
 10
0.0000
 20
0.0000
 30
0.0000
 40
0.3048
 41
0.3048
 70
0
  0
VERTEX
  8
1
 10
27.7542
 20
1.2607
 30
0.0000
 42
1.0000
  0
VERTEX
  8
1
 10
27.6178
 20
1.5333
 30
0.0000
  0
SEQEND
  8
0
  0
POLYLINE
  8
1
 66
1
 10
0.0000
 20
0.0000
 30
0.0000
 40
0.6096
 41
0.6096
 70
0
  0
VERTEX
  8
1
 10
27.4320
 20
1.2700
 30
0.0000
  0
VERTEX
  8
1
 10
25.6540
 20
3.0480
 30
0.0000
  0
SEQEND
  8
0
  0
POLYLINE
  8
1
 66
1
 10
0.0000
 20
0.0000
 30
0.0000
 40
0.3048
 41
0.3048
 70
0
  0
VERTEX
  8
1
 10
25.7618
 20
3.1558
 30
0.0000
 42
1.0000
  0
VERTEX
  8
1
 10
25.5462
 20
2.9402
 30
0.0000
  0
SEQEND
  8
0
  0
POLYLINE
  8
1
 66
1
 10
0.0000
 20
0.0000
 30
0.0000
 40
0.3048
 41
0.3048
 70
0
  0
VERTEX
  8
1
 10
27.3242
 20
1.1622
 30
0.0000
 42
1.0000
  0
VERTEX
  8
1
 10
27.5398
 20
1.3778
 30
0.0000
  0
SEQEND
  8
0
  0
POLYLINE
  8
1
 66
1
 10
0.0000
 20
0.0000
 30
0.0000
 40
0.6096
 41
0.6096
 70
0
  0
VERTEX
  8
1
 10
25.6540
 20
3.0480
 30
0.0000
  0
VERTEX
  8
1
 10
25.6540
 20
7.3660
 30
0.0000
  0
SEQEND
  8
0
  0
POLYLINE
  8
1
 66
1
 10
0.0000
 20
0.0000
 30
0.0000
 40
0.3048
 41
0.3048
 70
0
  0
VERTEX
  8
1
 10
25.8064
 20
7.3660
 30
0.0000
 42
1.0000
  0
VERTEX
  8
1
 10
25.5016
 20
7.3660
 30
0.0000
  0
SEQEND
  8
0
  0
POLYLINE
  8
1
 66
1
 10
0.0000
 20
0.0000
 30
0.0000
 40
0.3048
 41
0.3048
 70
0
  0
VERTEX
  8
1
 10
25.5016
 20
3.0480
 30
0.0000
 42
1.0000
  0
VERTEX
  8
1
 10
25.8064
 20
3.0480
 30
0.0000
  0
SEQEND
  8
0
  0
POLYLINE
  8
1
 66
1
 10
0.0000
 20
0.0000
 30
0.0000
 40
0.6096
 41
0.6096
 70
0
  0
VERTEX
  8
1
 10
25.6540
 20
7.3660
 30
0.0000
  0
VERTEX
  8
1
 10
23.2410
 20
9.7790
 30
0.0000
  0
SEQEND
  8
0
  0
POLYLINE
  8
1
 66
1
 10
0.0000
 20
0.0000
 30
0.0000
 40
0.3048
 41
0.3048
 70
0
  0
VERTEX
  8
1
 10
23.3488
 20
9.8868
 30
0.0000
 42
1.0000
  0
VERTEX
  8
1
 10
23.1332
 20
9.6712
 30
0.0000
  0
SEQEND
  8
0
  0
POLYLINE
  8
1
 66
1
 10
0.0000
 20
0.0000
 30
0.0000
 40
0.3048
 41
0.3048
 70
0
  0
VERTEX
  8
1
 10
25.5462
 20
7.2582
 30
0.0000
 42
1.0000
  0
VERTEX
  8
1
 10
25.7618
 20
7.4738
 30
0.0000
  0
SEQEND
  8
0
  0
POLYLINE
  8
1
 66
1
 10
0.0000
 20
0.0000
 30
0.0000
 40
0.6096
 41
0.6096
 70
0
  0
VERTEX
  8
1
 10
23.2410
 20
9.7790
 30
0.0000
  0
VERTEX
  8
1
 10
23.2410
 20
11.8710
 30
0.0000
  0
SEQEND
  8
0
  0
POLYLINE
  8
1
 66
1
 10
0.0000
 20
0.0000
 30
0.0000
 40
0.3048
 41
0.3048
 70
0
  0
VERTEX
  8
1
 10
23.3934
 20
11.8710
 30
0.0000
 42
1.0000
  0
VERTEX
  8
1
 10
23.0886
 20
11.8710
 30
0.0000
  0
SEQEND
  8
0
  0
POLYLINE
  8
1
 66
1
 10
0.0000
 20
0.0000
 30
0.0000
 40
0.3048
 41
0.3048
 70
0
  0
VERTEX
  8
1
 10
23.0886
 20
9.7790
 30
0.0000
 42
1.0000
  0
VERTEX
  8
1
 10
23.3934
 20
9.7790
 30
0.0000
  0
SEQEND
  8
0
  0
POLYLINE
  8
1
 66
1
 10
0.0000
 20
0.0000
 30
0.0000
 40
0.6096
 41
0.6096
 70
0
  0
VERTEX
  8
1
 10
27.1780
 20
14.6050
 30
0.0000
  0
VERTEX
  8
1
 10
27.1780
 20
4.4450
 30
0.0000
  0
SEQEND
  8
0
  0
POLYLINE
  8
1
 66
1
 10
0.0000
 20
0.0000
 30
0.0000
 40
0.3048
 41
0.3048
 70
0
  0
VERTEX
  8
1
 10
27.0256
 20
4.4450
 30
0.0000
 42
1.0000
  0
VERTEX
  8
1
 10
27.3304
 20
4.4450
 30
0.0000
  0
SEQEND
  8
0
  0
POLYLINE
  8
1
 66
1
 10
0.0000
 20
0.0000
 30
0.0000
 40
0.3048
 41
0.3048
 70
0
  0
VERTEX
  8
1
 10
27.3304
 20
14.6050
 30
0.0000
 42
1.0000
  0
VERTEX
  8
1
 10
27.0256
 20
14.6050
 30
0.0000
  0
SEQEND
  8
0
  0
POLYLINE
  8
1
 66
1
 10
0.0000
 20
0.0000
 30
0.0000
 40
0.6096
 41
0.6096
 70
0
  0
VERTEX
  8
1
 10
27.1780
 20
14.6050
 30
0.0000
  0
VERTEX
  8
1
 10
27.1780
 20
16.6370
 30
0.0000
  0
SEQEND
  8
0
  0
POLYLINE
  8
1
 66
1
 10
0.0000
 20
0.0000
 30
0.0000
 40
0.3048
 41
0.3048
 70
0
  0
VERTEX
  8
1
 10
27.3304
 20
16.6370
 30
0.0000
 42
1.0000
  0
VERTEX
  8
1
 10
27.0256
 20
16.6370
 30
0.0000
  0
SEQEND
  8
0
  0
POLYLINE
  8
1
 66
1
 10
0.0000
 20
0.0000
 30
0.0000
 40
0.3048
 41
0.3048
 70
0
  0
VERTEX
  8
1
 10
27.0256
 20
14.6050
 30
0.0000
 42
1.0000
  0
VERTEX
  8
1
 10
27.3304
 20
14.6050
 30
0.0000
  0
SEQEND
  8
0
  0
POLYLINE
  8
1
 66
1
 10
0.0000
 20
0.0000
 30
0.0000
 40
0.6096
 41
0.6096
 70
0
  0
VERTEX
  8
1
 10
27.1780
 20
4.4450
 30
0.0000
  0
VERTEX
  8
1
 10
28.7020
 20
2.9210
 30
0.0000
  0
SEQEND
  8
0
  0
POLYLINE
  8
1
 66
1
 10
0.0000
 20
0.0000
 30
0.0000
 40
0.3048
 41
0.3048
 70
0
  0
VERTEX
  8
1
 10
28.5942
 20
2.8132
 30
0.0000
 42
1.0000
  0
VERTEX
  8
1
 10
28.8098
 20
3.0288
 30
0.0000
  0
SEQEND
  8
0
  0
POLYLINE
  8
1
 66
1
 10
0.0000
 20
0.0000
 30
0.0000
 40
0.3048
 41
0.3048
 70
0
  0
VERTEX
  8
1
 10
27.2858
 20
4.5528
 30
0.0000
 42
1.0000
  0
VERTEX
  8
1
 10
27.0702
 20
4.3372
 30
0.0000
  0
SEQEND
  8
0
  0
POLYLINE
  8
1
 66
1
 10
0.0000
 20
0.0000
 30
0.0000
 40
0.6096
 41
0.6096
 70
0
  0
VERTEX
  8
1
 10
28.7020
 20
2.9210
 30
0.0000
  0
VERTEX
  8
1
 10
33.0200
 20
2.9210
 30
0.0000
  0
SEQEND
  8
0
  0
POLYLINE
  8
1
 66
1
 10
0.0000
 20
0.0000
 30
0.0000
 40
0.3048
 41
0.3048
 70
0
  0
VERTEX
  8
1
 10
33.0200
 20
2.7686
 30
0.0000
 42
1.0000
  0
VERTEX
  8
1
 10
33.0200
 20
3.0734
 30
0.0000
  0
SEQEND
  8
0
  0
POLYLINE
  8
1
 66
1
 10
0.0000
 20
0.0000
 30
0.0000
 40
0.3048
 41
0.3048
 70
0
  0
VERTEX
  8
1
 10
28.7020
 20
3.0734
 30
0.0000
 42
1.0000
  0
VERTEX
  8
1
 10
28.7020
 20
2.7686
 30
0.0000
  0
SEQEND
  8
0
  0
POLYLINE
  8
1
 66
1
 10
0.0000
 20
0.0000
 30
0.0000
 40
0.6096
 41
0.6096
 70
0
  0
VERTEX
  8
1
 10
33.0200
 20
2.9210
 30
0.0000
  0
VERTEX
  8
1
 10
34.0360
 20
3.9370
 30
0.0000
  0
SEQEND
  8
0
  0
POLYLINE
  8
1
 66
1
 10
0.0000
 20
0.0000
 30
0.0000
 40
0.3048
 41
0.3048
 70
0
  0
VERTEX
  8
1
 10
34.1438
 20
3.8292
 30
0.0000
 42
1.0000
  0
VERTEX
  8
1
 10
33.9282
 20
4.0448
 30
0.0000
  0
SEQEND
  8
0
  0
POLYLINE
  8
1
 66
1
 10
0.0000
 20
0.0000
 30
0.0000
 40
0.3048
 41
0.3048
 70
0
  0
VERTEX
  8
1
 10
32.9122
 20
3.0288
 30
0.0000
 42
1.0000
  0
VERTEX
  8
1
 10
33.1278
 20
2.8132
 30
0.0000
  0
SEQEND
  8
0
  0
POLYLINE
  8
1
 66
1
 10
0.0000
 20
0.0000
 30
0.0000
 40
0.6096
 41
0.6096
 70
0
  0
VERTEX
  8
1
 10
34.0360
 20
3.9370
 30
0.0000
  0
VERTEX
  8
1
 10
34.0360
 20
6.7310
 30
0.0000
  0
SEQEND
  8
0
  0
POLYLINE
  8
1
 66
1
 10
0.0000
 20
0.0000
 30
0.0000
 40
0.3048
 41
0.3048
 70
0
  0
VERTEX
  8
1
 10
34.1884
 20
6.7310
 30
0.0000
 42
1.0000
  0
VERTEX
  8
1
 10
33.8836
 20
6.7310
 30
0.0000
  0
SEQEND
  8
0
  0
POLYLINE
  8
1
 66
1
 10
0.0000
 20
0.0000
 30
0.0000
 40
0.3048
 41
0.3048
 70
0
  0
VERTEX
  8
1
 10
33.8836
 20
3.9370
 30
0.0000
 42
1.0000
  0
VERTEX
  8
1
 10
34.1884
 20
3.9370
 30
0.0000
  0
SEQEND
  8
0
  0
POLYLINE
  8
1
 66
1
 10
0.0000
 20
0.0000
 30
0.0000
 40
0.6096
 41
0.6096
 70
0
  0
VERTEX
  8
1
 10
32.2580
 20
8.2550
 30
0.0000
  0
VERTEX
  8
1
 10
31.4960
 20
8.0010
 30
0.0000
  0
SEQEND
  8
0
  0
POLYLINE
  8
1
 66
1
 10
0.0000
 20
0.0000
 30
0.0000
 40
0.3048
 41
0.3048
 70
0
  0
VERTEX
  8
1
 10
31.4478
 20
8.1456
 30
0.0000
 42
1.0000
  0
VERTEX
  8
1
 10
31.5442
 20
7.8564
 30
0.0000
  0
SEQEND
  8
0
  0
POLYLINE
  8
1
 66
1
 10
0.0000
 20
0.0000
 30
0.0000
 40
0.3048
 41
0.3048
 70
0
  0
VERTEX
  8
1
 10
32.3062
 20
8.1104
 30
0.0000
 42
1.0000
  0
VERTEX
  8
1
 10
32.2098
 20
8.3996
 30
0.0000
  0
SEQEND
  8
0
  0
POLYLINE
  8
1
 66
1
 10
0.0000
 20
0.0000
 30
0.0000
 40
0.6096
 41
0.6096
 70
0
  0
VERTEX
  8
1
 10
34.0360
 20
6.7310
 30
0.0000
  0
VERTEX
  8
1
 10
32.5120
 20
8.2550
 30
0.0000
  0
SEQEND
  8
0
  0
POLYLINE
  8
1
 66
1
 10
0.0000
 20
0.0000
 30
0.0000
 40
0.3048
 41
0.3048
 70
0
  0
VERTEX
  8
1
 10
32.6198
 20
8.3628
 30
0.0000
 42
1.0000
  0
VERTEX
  8
1
 10
32.4042
 20
8.1472
 30
0.0000
  0
SEQEND
  8
0
  0
POLYLINE
  8
1
 66
1
 10
0.0000
 20
0.0000
 30
0.0000
 40
0.3048
 41
0.3048
 70
0
  0
VERTEX
  8
1
 10
33.9282
 20
6.6232
 30
0.0000
 42
1.0000
  0
VERTEX
  8
1
 10
34.1438
 20
6.8388
 30
0.0000
  0
SEQEND
  8
0
  0
POLYLINE
  8
1
 66
1
 10
0.0000
 20
0.0000
 30
0.0000
 40
0.6096
 41
0.6096
 70
0
  0
VERTEX
  8
1
 10
32.5120
 20
8.2550
 30
0.0000
  0
VERTEX
  8
1
 10
32.2580
 20
8.2550
 30
0.0000
  0
SEQEND
  8
0
  0
POLYLINE
  8
1
 66
1
 10
0.0000
 20
0.0000
 30
0.0000
 40
0.3048
 41
0.3048
 70
0
  0
VERTEX
  8
1
 10
32.2580
 20
8.4074
 30
0.0000
 42
1.0000
  0
VERTEX
  8
1
 10
32.2580
 20
8.1026
 30
0.0000
  0
SEQEND
  8
0
  0
POLYLINE
  8
1
 66
1
 10
0.0000
 20
0.0000
 30
0.0000
 40
0.3048
 41
0.3048
 70
0
  0
VERTEX
  8
1
 10
32.5120
 20
8.1026
 30
0.0000
 42
1.0000
  0
VERTEX
  8
1
 10
32.5120
 20
8.4074
 30
0.0000
  0
SEQEND
  8
0
  0
POLYLINE
  8
1
 66
1
 10
0.0000
 20
0.0000
 30
0.0000
 40
0.6096
 41
0.6096
 70
0
  0
VERTEX
  8
1
 10
19.4310
 20
11.8710
 30
0.0000
  0
VERTEX
  8
1
 10
19.4310
 20
13.7160
 30
0.0000
  0
SEQEND
  8
0
  0
POLYLINE
  8
1
 66
1
 10
0.0000
 20
0.0000
 30
0.0000
 40
0.3048
 41
0.3048
 70
0
  0
VERTEX
  8
1
 10
19.5834
 20
13.7160
 30
0.0000
 42
1.0000
  0
VERTEX
  8
1
 10
19.2786
 20
13.7160
 30
0.0000
  0
SEQEND
  8
0
  0
POLYLINE
  8
1
 66
1
 10
0.0000
 20
0.0000
 30
0.0000
 40
0.3048
 41
0.3048
 70
0
  0
VERTEX
  8
1
 10
19.2786
 20
11.8710
 30
0.0000
 42
1.0000
  0
VERTEX
  8
1
 10
19.5834
 20
11.8710
 30
0.0000
  0
SEQEND
  8
0
  0
POLYLINE
  8
1
 66
1
 10
0.0000
 20
0.0000
 30
0.0000
 40
0.6096
 41
0.6096
 70
0
  0
VERTEX
  8
1
 10
19.4310
 20
13.7160
 30
0.0000
  0
VERTEX
  8
1
 10
20.3200
 20
14.6050
 30
0.0000
  0
SEQEND
  8
0
  0
POLYLINE
  8
1
 66
1
 10
0.0000
 20
0.0000
 30
0.0000
 40
0.3048
 41
0.3048
 70
0
  0
VERTEX
  8
1
 10
20.4278
 20
14.4972
 30
0.0000
 42
1.0000
  0
VERTEX
  8
1
 10
20.2122
 20
14.7128
 30
0.0000
  0
SEQEND
  8
0
  0
POLYLINE
  8
1
 66
1
 10
0.0000
 20
0.0000
 30
0.0000
 40
0.3048
 41
0.3048
 70
0
  0
VERTEX
  8
1
 10
19.3232
 20
13.8238
 30
0.0000
 42
1.0000
  0
VERTEX
  8
1
 10
19.5388
 20
13.6082
 30
0.0000
  0
SEQEND
  8
0
  0
POLYLINE
  8
1
 66
1
 10
0.0000
 20
0.0000
 30
0.0000
 40
0.6096
 41
0.6096
 70
0
  0
VERTEX
  8
1
 10
20.3200
 20
14.6050
 30
0.0000
  0
VERTEX
  8
1
 10
27.1780
 20
14.6050
 30
0.0000
  0
SEQEND
  8
0
  0
POLYLINE
  8
1
 66
1
 10
0.0000
 20
0.0000
 30
0.0000
 40
0.3048
 41
0.3048
 70
0
  0
VERTEX
  8
1
 10
27.1780
 20
14.4526
 30
0.0000
 42
1.0000
  0
VERTEX
  8
1
 10
27.1780
 20
14.7574
 30
0.0000
  0
SEQEND
  8
0
  0
POLYLINE
  8
1
 66
1
 10
0.0000
 20
0.0000
 30
0.0000
 40
0.3048
 41
0.3048
 70
0
  0
VERTEX
  8
1
 10
20.3200
 20
14.7574
 30
0.0000
 42
1.0000
  0
VERTEX
  8
1
 10
20.3200
 20
14.4526
 30
0.0000
  0
SEQEND
  8
0
  0
POLYLINE
  8
1
 66
1
 10
0.0000
 20
0.0000
 30
0.0000
 40
0.6096
 41
0.6096
 70
0
  0
VERTEX
  8
1
 10
30.4800
 20
5.4610
 30
0.0000
  0
VERTEX
  8
1
 10
31.4960
 20
5.4610
 30
0.0000
  0
SEQEND
  8
0
  0
POLYLINE
  8
1
 66
1
 10
0.0000
 20
0.0000
 30
0.0000
 40
0.3048
 41
0.3048
 70
0
  0
VERTEX
  8
1
 10
31.4960
 20
5.3086
 30
0.0000
 42
1.0000
  0
VERTEX
  8
1
 10
31.4960
 20
5.6134
 30
0.0000
  0
SEQEND
  8
0
  0
POLYLINE
  8
1
 66
1
 10
0.0000
 20
0.0000
 30
0.0000
 40
0.3048
 41
0.3048
 70
0
  0
VERTEX
  8
1
 10
30.4800
 20
5.6134
 30
0.0000
 42
1.0000
  0
VERTEX
  8
1
 10
30.4800
 20
5.3086
 30
0.0000
  0
SEQEND
  8
0
  0
POLYLINE
  8
1
 66
1
 10
0.0000
 20
0.0000
 30
0.0000
 40
0.6096
 41
0.6096
 70
0
  0
VERTEX
  8
1
 10
28.7020
 20
7.2390
 30
0.0000
  0
VERTEX
  8
1
 10
30.4800
 20
5.4610
 30
0.0000
  0
SEQEND
  8
0
  0
POLYLINE
  8
1
 66
1
 10
0.0000
 20
0.0000
 30
0.0000
 40
0.3048
 41
0.3048
 70
0
  0
VERTEX
  8
1
 10
30.3722
 20
5.3532
 30
0.0000
 42
1.0000
  0
VERTEX
  8
1
 10
30.5878
 20
5.5688
 30
0.0000
  0
SEQEND
  8
0
  0
POLYLINE
  8
1
 66
1
 10
0.0000
 20
0.0000
 30
0.0000
 40
0.3048
 41
0.3048
 70
0
  0
VERTEX
  8
1
 10
28.8098
 20
7.3468
 30
0.0000
 42
1.0000
  0
VERTEX
  8
1
 10
28.5942
 20
7.1312
 30
0.0000
  0
SEQEND
  8
0
  0
POLYLINE
  8
1
 66
1
 10
0.0000
 20
0.0000
 30
0.0000
 40
0.6096
 41
0.6096
 70
0
  0
VERTEX
  8
1
 10
28.7020
 20
7.2390
 30
0.0000
  0
VERTEX
  8
1
 10
28.7020
 20
11.8110
 30
0.0000
  0
SEQEND
  8
0
  0
POLYLINE
  8
1
 66
1
 10
0.0000
 20
0.0000
 30
0.0000
 40
0.3048
 41
0.3048
 70
0
  0
VERTEX
  8
1
 10
28.8544
 20
11.8110
 30
0.0000
 42
1.0000
  0
VERTEX
  8
1
 10
28.5496
 20
11.8110
 30
0.0000
  0
SEQEND
  8
0
  0
POLYLINE
  8
1
 66
1
 10
0.0000
 20
0.0000
 30
0.0000
 40
0.3048
 41
0.3048
 70
0
  0
VERTEX
  8
1
 10
28.5496
 20
7.2390
 30
0.0000
 42
1.0000
  0
VERTEX
  8
1
 10
28.8544
 20
7.2390
 30
0.0000
  0
SEQEND
  8
0
  0
POLYLINE
  8
1
 66
1
 10
0.0000
 20
0.0000
 30
0.0000
 40
0.6096
 41
0.6096
 70
0
  0
VERTEX
  8
1
 10
28.7020
 20
11.8110
 30
0.0000
  0
VERTEX
  8
1
 10
33.6550
 20
16.7640
 30
0.0000
  0
SEQEND
  8
0
  0
POLYLINE
  8
1
 66
1
 10
0.0000
 20
0.0000
 30
0.0000
 40
0.3048
 41
0.3048
 70
0
  0
VERTEX
  8
1
 10
33.7628
 20
16.6562
 30
0.0000
 42
1.0000
  0
VERTEX
  8
1
 10
33.5472
 20
16.8718
 30
0.0000
  0
SEQEND
  8
0
  0
POLYLINE
  8
1
 66
1
 10
0.0000
 20
0.0000
 30
0.0000
 40
0.3048
 41
0.3048
 70
0
  0
VERTEX
  8
1
 10
28.5942
 20
11.9188
 30
0.0000
 42
1.0000
  0
VERTEX
  8
1
 10
28.8098
 20
11.7032
 30
0.0000
  0
SEQEND
  8
0
  0
POLYLINE
  8
1
 66
1
 10
0.0000
 20
0.0000
 30
0.0000
 40
0.6096
 41
0.6096
 70
0
  0
VERTEX
  8
1
 10
33.6550
 20
16.7640
 30
0.0000
  0
VERTEX
  8
1
 10
33.6550
 20
22.3520
 30
0.0000
  0
SEQEND
  8
0
  0
POLYLINE
  8
1
 66
1
 10
0.0000
 20
0.0000
 30
0.0000
 40
0.3048
 41
0.3048
 70
0
  0
VERTEX
  8
1
 10
33.8074
 20
22.3520
 30
0.0000
 42
1.0000
  0
VERTEX
  8
1
 10
33.5026
 20
22.3520
 30
0.0000
  0
SEQEND
  8
0
  0
POLYLINE
  8
1
 66
1
 10
0.0000
 20
0.0000
 30
0.0000
 40
0.3048
 41
0.3048
 70
0
  0
VERTEX
  8
1
 10
33.5026
 20
16.7640
 30
0.0000
 42
1.0000
  0
VERTEX
  8
1
 10
33.8074
 20
16.7640
 30
0.0000
  0
SEQEND
  8
0
  0
POLYLINE
  8
1
 66
1
 10
0.0000
 20
0.0000
 30
0.0000
 40
0.6096
 41
0.6096
 70
0
  0
VERTEX
  8
1
 10
33.6550
 20
22.3520
 30
0.0000
  0
VERTEX
  8
1
 10
30.2260
 20
25.7810
 30
0.0000
  0
SEQEND
  8
0
  0
POLYLINE
  8
1
 66
1
 10
0.0000
 20
0.0000
 30
0.0000
 40
0.3048
 41
0.3048
 70
0
  0
VERTEX
  8
1
 10
30.3338
 20
25.8888
 30
0.0000
 42
1.0000
  0
VERTEX
  8
1
 10
30.1182
 20
25.6732
 30
0.0000
  0
SEQEND
  8
0
  0
POLYLINE
  8
1
 66
1
 10
0.0000
 20
0.0000
 30
0.0000
 40
0.3048
 41
0.3048
 70
0
  0
VERTEX
  8
1
 10
33.5472
 20
22.2442
 30
0.0000
 42
1.0000
  0
VERTEX
  8
1
 10
33.7628
 20
22.4598
 30
0.0000
  0
SEQEND
  8
0
  0
POLYLINE
  8
1
 66
1
 10
0.0000
 20
0.0000
 30
0.0000
 40
0.6096
 41
0.6096
 70
0
  0
VERTEX
  8
1
 10
30.2260
 20
25.7810
 30
0.0000
  0
VERTEX
  8
1
 10
30.3530
 20
26.2890
 30
0.0000
  0
SEQEND
  8
0
  0
POLYLINE
  8
1
 66
1
 10
0.0000
 20
0.0000
 30
0.0000
 40
0.3048
 41
0.3048
 70
0
  0
VERTEX
  8
1
 10
30.5008
 20
26.2520
 30
0.0000
 42
1.0000
  0
VERTEX
  8
1
 10
30.2052
 20
26.3260
 30
0.0000
  0
SEQEND
  8
0
  0
POLYLINE
  8
1
 66
1
 10
0.0000
 20
0.0000
 30
0.0000
 40
0.3048
 41
0.3048
 70
0
  0
VERTEX
  8
1
 10
30.0782
 20
25.8180
 30
0.0000
 42
1.0000
  0
VERTEX
  8
1
 10
30.3738
 20
25.7440
 30
0.0000
  0
SEQEND
  8
0
  0
POLYLINE
  8
1
 66
1
 10
0.0000
 20
0.0000
 30
0.0000
 40
0.6096
 41
0.6096
 70
0
  0
VERTEX
  8
1
 10
13.3350
 20
9.9060
 30
0.0000
  0
VERTEX
  8
1
 10
14.7920
 20
9.9060
 30
0.0000
  0
SEQEND
  8
0
  0
POLYLINE
  8
1
 66
1
 10
0.0000
 20
0.0000
 30
0.0000
 40
0.3048
 41
0.3048
 70
0
  0
VERTEX
  8
1
 10
14.7920
 20
9.7536
 30
0.0000
 42
1.0000
  0
VERTEX
  8
1
 10
14.7920
 20
10.0584
 30
0.0000
  0
SEQEND
  8
0
  0
POLYLINE
  8
1
 66
1
 10
0.0000
 20
0.0000
 30
0.0000
 40
0.3048
 41
0.3048
 70
0
  0
VERTEX
  8
1
 10
13.3350
 20
10.0584
 30
0.0000
 42
1.0000
  0
VERTEX
  8
1
 10
13.3350
 20
9.7536
 30
0.0000
  0
SEQEND
  8
0
  0
POLYLINE
  8
1
 66
1
 10
0.0000
 20
0.0000
 30
0.0000
 40
0.6096
 41
0.6096
 70
0
  0
VERTEX
  8
1
 10
12.8270
 20
9.3980
 30
0.0000
  0
VERTEX
  8
1
 10
13.3350
 20
9.9060
 30
0.0000
  0
SEQEND
  8
0
  0
POLYLINE
  8
1
 66
1
 10
0.0000
 20
0.0000
 30
0.0000
 40
0.3048
 41
0.3048
 70
0
  0
VERTEX
  8
1
 10
13.4428
 20
9.7982
 30
0.0000
 42
1.0000
  0
VERTEX
  8
1
 10
13.2272
 20
10.0138
 30
0.0000
  0
SEQEND
  8
0
  0
POLYLINE
  8
1
 66
1
 10
0.0000
 20
0.0000
 30
0.0000
 40
0.3048
 41
0.3048
 70
0
  0
VERTEX
  8
1
 10
12.7192
 20
9.5058
 30
0.0000
 42
1.0000
  0
VERTEX
  8
1
 10
12.9348
 20
9.2902
 30
0.0000
  0
SEQEND
  8
0
  0
POLYLINE
  8
1
 66
1
 10
0.0000
 20
0.0000
 30
0.0000
 40
0.6096
 41
0.6096
 70
0
  0
VERTEX
  8
1
 10
12.8270
 20
8.0010
 30
0.0000
  0
VERTEX
  8
1
 10
12.8270
 20
9.3980
 30
0.0000
  0
SEQEND
  8
0
  0
POLYLINE
  8
1
 66
1
 10
0.0000
 20
0.0000
 30
0.0000
 40
0.3048
 41
0.3048
 70
0
  0
VERTEX
  8
1
 10
12.9794
 20
9.3980
 30
0.0000
 42
1.0000
  0
VERTEX
  8
1
 10
12.6746
 20
9.3980
 30
0.0000
  0
SEQEND
  8
0
  0
POLYLINE
  8
1
 66
1
 10
0.0000
 20
0.0000
 30
0.0000
 40
0.3048
 41
0.3048
 70
0
  0
VERTEX
  8
1
 10
12.6746
 20
8.0010
 30
0.0000
 42
1.0000
  0
VERTEX
  8
1
 10
12.9794
 20
8.0010
 30
0.0000
  0
SEQEND
  8
0
  0
POLYLINE
  8
1
 66
1
 10
0.0000
 20
0.0000
 30
0.0000
 40
0.6096
 41
0.6096
 70
0
  0
VERTEX
  8
1
 10
13.5890
 20
7.2390
 30
0.0000
  0
VERTEX
  8
1
 10
12.8270
 20
8.0010
 30
0.0000
  0
SEQEND
  8
0
  0
POLYLINE
  8
1
 66
1
 10
0.0000
 20
0.0000
 30
0.0000
 40
0.3048
 41
0.3048
 70
0
  0
VERTEX
  8
1
 10
12.9348
 20
8.1088
 30
0.0000
 42
1.0000
  0
VERTEX
  8
1
 10
12.7192
 20
7.8932
 30
0.0000
  0
SEQEND
  8
0
  0
POLYLINE
  8
1
 66
1
 10
0.0000
 20
0.0000
 30
0.0000
 40
0.3048
 41
0.3048
 70
0
  0
VERTEX
  8
1
 10
13.4812
 20
7.1312
 30
0.0000
 42
1.0000
  0
VERTEX
  8
1
 10
13.6968
 20
7.3468
 30
0.0000
  0
SEQEND
  8
0
  0
POLYLINE
  8
1
 66
1
 10
0.0000
 20
0.0000
 30
0.0000
 40
0.6096
 41
0.6096
 70
0
  0
VERTEX
  8
1
 10
14.8590
 20
7.2390
 30
0.0000
  0
VERTEX
  8
1
 10
13.5890
 20
7.2390
 30
0.0000
  0
SEQEND
  8
0
  0
POLYLINE
  8
1
 66
1
 10
0.0000
 20
0.0000
 30
0.0000
 40
0.3048
 41
0.3048
 70
0
  0
VERTEX
  8
1
 10
13.5890
 20
7.3914
 30
0.0000
 42
1.0000
  0
VERTEX
  8
1
 10
13.5890
 20
7.0866
 30
0.0000
  0
SEQEND
  8
0
  0
POLYLINE
  8
1
 66
1
 10
0.0000
 20
0.0000
 30
0.0000
 40
0.3048
 41
0.3048
 70
0
  0
VERTEX
  8
1
 10
14.8590
 20
7.0866
 30
0.0000
 42
1.0000
  0
VERTEX
  8
1
 10
14.8590
 20
7.3914
 30
0.0000
  0
SEQEND
  8
0
  0
POLYLINE
  8
1
 66
1
 10
0.0000
 20
0.0000
 30
0.0000
 40
0.6096
 41
0.6096
 70
0
  0
VERTEX
  8
1
 10
17.7800
 20
4.3180
 30
0.0000
  0
VERTEX
  8
1
 10
14.8590
 20
7.2390
 30
0.0000
  0
SEQEND
  8
0
  0
POLYLINE
  8
1
 66
1
 10
0.0000
 20
0.0000
 30
0.0000
 40
0.3048
 41
0.3048
 70
0
  0
VERTEX
  8
1
 10
14.9668
 20
7.3468
 30
0.0000
 42
1.0000
  0
VERTEX
  8
1
 10
14.7512
 20
7.1312
 30
0.0000
  0
SEQEND
  8
0
  0
POLYLINE
  8
1
 66
1
 10
0.0000
 20
0.0000
 30
0.0000
 40
0.3048
 41
0.3048
 70
0
  0
VERTEX
  8
1
 10
17.6722
 20
4.2102
 30
0.0000
 42
1.0000
  0
VERTEX
  8
1
 10
17.8878
 20
4.4258
 30
0.0000
  0
SEQEND
  8
0
  0
POLYLINE
  8
1
 66
1
 10
0.0000
 20
0.0000
 30
0.0000
 40
0.6096
 41
0.6096
 70
0
  0
VERTEX
  8
1
 10
17.7800
 20
4.3180
 30
0.0000
  0
VERTEX
  8
1
 10
20.1930
 20
4.3180
 30
0.0000
  0
SEQEND
  8
0
  0
POLYLINE
  8
1
 66
1
 10
0.0000
 20
0.0000
 30
0.0000
 40
0.3048
 41
0.3048
 70
0
  0
VERTEX
  8
1
 10
20.1930
 20
4.1656
 30
0.0000
 42
1.0000
  0
VERTEX
  8
1
 10
20.1930
 20
4.4704
 30
0.0000
  0
SEQEND
  8
0
  0
POLYLINE
  8
1
 66
1
 10
0.0000
 20
0.0000
 30
0.0000
 40
0.3048
 41
0.3048
 70
0
  0
VERTEX
  8
1
 10
17.7800
 20
4.4704
 30
0.0000
 42
1.0000
  0
VERTEX
  8
1
 10
17.7800
 20
4.1656
 30
0.0000
  0
SEQEND
  8
0
  0
POLYLINE
  8
1
 66
1
 10
0.0000
 20
0.0000
 30
0.0000
 40
0.6096
 41
0.6096
 70
0
  0
VERTEX
  8
1
 10
20.1930
 20
4.3180
 30
0.0000
  0
VERTEX
  8
1
 10
20.7010
 20
4.8260
 30
0.0000
  0
SEQEND
  8
0
  0
POLYLINE
  8
1
 66
1
 10
0.0000
 20
0.0000
 30
0.0000
 40
0.3048
 41
0.3048
 70
0
  0
VERTEX
  8
1
 10
20.8088
 20
4.7182
 30
0.0000
 42
1.0000
  0
VERTEX
  8
1
 10
20.5932
 20
4.9338
 30
0.0000
  0
SEQEND
  8
0
  0
POLYLINE
  8
1
 66
1
 10
0.0000
 20
0.0000
 30
0.0000
 40
0.3048
 41
0.3048
 70
0
  0
VERTEX
  8
1
 10
20.0852
 20
4.4258
 30
0.0000
 42
1.0000
  0
VERTEX
  8
1
 10
20.3008
 20
4.2102
 30
0.0000
  0
SEQEND
  8
0
  0
POLYLINE
  8
1
 66
1
 10
0.0000
 20
0.0000
 30
0.0000
 40
0.6096
 41
0.6096
 70
0
  0
VERTEX
  8
1
 10
20.7010
 20
4.8260
 30
0.0000
  0
VERTEX
  8
1
 10
20.7010
 20
6.6710
 30
0.0000
  0
SEQEND
  8
0
  0
POLYLINE
  8
1
 66
1
 10
0.0000
 20
0.0000
 30
0.0000
 40
0.3048
 41
0.3048
 70
0
  0
VERTEX
  8
1
 10
20.8534
 20
6.6710
 30
0.0000
 42
1.0000
  0
VERTEX
  8
1
 10
20.5486
 20
6.6710
 30
0.0000
  0
SEQEND
  8
0
  0
POLYLINE
  8
1
 66
1
 10
0.0000
 20
0.0000
 30
0.0000
 40
0.3048
 41
0.3048
 70
0
  0
VERTEX
  8
1
 10
20.5486
 20
4.8260
 30
0.0000
 42
1.0000
  0
VERTEX
  8
1
 10
20.8534
 20
4.8260
 30
0.0000
  0
SEQEND
  8
0
  0
POLYLINE
  8
1
 66
1
 10
0.0000
 20
0.0000
 30
0.0000
 40
0.6096
 41
0.6096
 70
0
  0
VERTEX
  8
1
 10
14.7920
 20
8.6360
 30
0.0000
  0
VERTEX
  8
1
 10
16.7640
 20
8.6360
 30
0.0000
  0
SEQEND
  8
0
  0
POLYLINE
  8
1
 66
1
 10
0.0000
 20
0.0000
 30
0.0000
 40
0.3048
 41
0.3048
 70
0
  0
VERTEX
  8
1
 10
16.7640
 20
8.4836
 30
0.0000
 42
1.0000
  0
VERTEX
  8
1
 10
16.7640
 20
8.7884
 30
0.0000
  0
SEQEND
  8
0
  0
POLYLINE
  8
1
 66
1
 10
0.0000
 20
0.0000
 30
0.0000
 40
0.3048
 41
0.3048
 70
0
  0
VERTEX
  8
1
 10
14.7920
 20
8.7884
 30
0.0000
 42
1.0000
  0
VERTEX
  8
1
 10
14.7920
 20
8.4836
 30
0.0000
  0
SEQEND
  8
0
  0
POLYLINE
  8
1
 66
1
 10
0.0000
 20
0.0000
 30
0.0000
 40
0.6096
 41
0.6096
 70
0
  0
VERTEX
  8
1
 10
19.4310
 20
6.6710
 30
0.0000
  0
VERTEX
  8
1
 10
19.4310
 20
7.3660
 30
0.0000
  0
SEQEND
  8
0
  0
POLYLINE
  8
1
 66
1
 10
0.0000
 20
0.0000
 30
0.0000
 40
0.3048
 41
0.3048
 70
0
  0
VERTEX
  8
1
 10
19.5834
 20
7.3660
 30
0.0000
 42
1.0000
  0
VERTEX
  8
1
 10
19.2786
 20
7.3660
 30
0.0000
  0
SEQEND
  8
0
  0
POLYLINE
  8
1
 66
1
 10
0.0000
 20
0.0000
 30
0.0000
 40
0.3048
 41
0.3048
 70
0
  0
VERTEX
  8
1
 10
19.2786
 20
6.6710
 30
0.0000
 42
1.0000
  0
VERTEX
  8
1
 10
19.5834
 20
6.6710
 30
0.0000
  0
SEQEND
  8
0
  0
POLYLINE
  8
1
 66
1
 10
0.0000
 20
0.0000
 30
0.0000
 40
0.6096
 41
0.6096
 70
0
  0
VERTEX
  8
1
 10
16.7640
 20
8.6360
 30
0.0000
  0
VERTEX
  8
1
 10
17.9070
 20
7.4930
 30
0.0000
  0
SEQEND
  8
0
  0
POLYLINE
  8
1
 66
1
 10
0.0000
 20
0.0000
 30
0.0000
 40
0.3048
 41
0.3048
 70
0
  0
VERTEX
  8
1
 10
17.7992
 20
7.3852
 30
0.0000
 42
1.0000
  0
VERTEX
  8
1
 10
18.0148
 20
7.6008
 30
0.0000
  0
SEQEND
  8
0
  0
POLYLINE
  8
1
 66
1
 10
0.0000
 20
0.0000
 30
0.0000
 40
0.3048
 41
0.3048
 70
0
  0
VERTEX
  8
1
 10
16.8718
 20
8.7438
 30
0.0000
 42
1.0000
  0
VERTEX
  8
1
 10
16.6562
 20
8.5282
 30
0.0000
  0
SEQEND
  8
0
  0
POLYLINE
  8
1
 66
1
 10
0.0000
 20
0.0000
 30
0.0000
 40
0.6096
 41
0.6096
 70
0
  0
VERTEX
  8
1
 10
17.9070
 20
7.4930
 30
0.0000
  0
VERTEX
  8
1
 10
19.4310
 20
7.4930
 30
0.0000
  0
SEQEND
  8
0
  0
POLYLINE
  8
1
 66
1
 10
0.0000
 20
0.0000
 30
0.0000
 40
0.3048
 41
0.3048
 70
0
  0
VERTEX
  8
1
 10
19.4310
 20
7.3406
 30
0.0000
 42
1.0000
  0
VERTEX
  8
1
 10
19.4310
 20
7.6454
 30
0.0000
  0
SEQEND
  8
0
  0
POLYLINE
  8
1
 66
1
 10
0.0000
 20
0.0000
 30
0.0000
 40
0.3048
 41
0.3048
 70
0
  0
VERTEX
  8
1
 10
17.9070
 20
7.6454
 30
0.0000
 42
1.0000
  0
VERTEX
  8
1
 10
17.9070
 20
7.3406
 30
0.0000
  0
SEQEND
  8
0
  0
POLYLINE
  8
1
 66
1
 10
0.0000
 20
0.0000
 30
0.0000
 40
0.6096
 41
0.6096
 70
0
  0
VERTEX
  8
1
 10
19.4310
 20
7.4930
 30
0.0000
  0
VERTEX
  8
1
 10
19.4310
 20
6.6710
 30
0.0000
  0
SEQEND
  8
0
  0
POLYLINE
  8
1
 66
1
 10
0.0000
 20
0.0000
 30
0.0000
 40
0.3048
 41
0.3048
 70
0
  0
VERTEX
  8
1
 10
19.2786
 20
6.6710
 30
0.0000
 42
1.0000
  0
VERTEX
  8
1
 10
19.5834
 20
6.6710
 30
0.0000
  0
SEQEND
  8
0
  0
POLYLINE
  8
1
 66
1
 10
0.0000
 20
0.0000
 30
0.0000
 40
0.3048
 41
0.3048
 70
0
  0
VERTEX
  8
1
 10
19.5834
 20
7.4930
 30
0.0000
 42
1.0000
  0
VERTEX
  8
1
 10
19.2786
 20
7.4930
 30
0.0000
  0
SEQEND
  8
0
  0
POLYLINE
  8
1
 66
1
 10
0.0000
 20
0.0000
 30
0.0000
 40
0.6096
 41
0.6096
 70
0
  0
VERTEX
  8
1
 10
8.1280
 20
9.9060
 30
0.0000
  0
VERTEX
  8
1
 10
9.5920
 20
9.9060
 30
0.0000
  0
SEQEND
  8
0
  0
POLYLINE
  8
1
 66
1
 10
0.0000
 20
0.0000
 30
0.0000
 40
0.3048
 41
0.3048
 70
0
  0
VERTEX
  8
1
 10
9.5920
 20
9.7536
 30
0.0000
 42
1.0000
  0
VERTEX
  8
1
 10
9.5920
 20
10.0584
 30
0.0000
  0
SEQEND
  8
0
  0
POLYLINE
  8
1
 66
1
 10
0.0000
 20
0.0000
 30
0.0000
 40
0.3048
 41
0.3048
 70
0
  0
VERTEX
  8
1
 10
8.1280
 20
10.0584
 30
0.0000
 42
1.0000
  0
VERTEX
  8
1
 10
8.1280
 20
9.7536
 30
0.0000
  0
SEQEND
  8
0
  0
POLYLINE
  8
1
 66
1
 10
0.0000
 20
0.0000
 30
0.0000
 40
0.6096
 41
0.6096
 70
0
  0
VERTEX
  8
1
 10
7.3660
 20
9.1440
 30
0.0000
  0
VERTEX
  8
1
 10
8.1280
 20
9.9060
 30
0.0000
  0
SEQEND
  8
0
  0
POLYLINE
  8
1
 66
1
 10
0.0000
 20
0.0000
 30
0.0000
 40
0.3048
 41
0.3048
 70
0
  0
VERTEX
  8
1
 10
8.2358
 20
9.7982
 30
0.0000
 42
1.0000
  0
VERTEX
  8
1
 10
8.0202
 20
10.0138
 30
0.0000
  0
SEQEND
  8
0
  0
POLYLINE
  8
1
 66
1
 10
0.0000
 20
0.0000
 30
0.0000
 40
0.3048
 41
0.3048
 70
0
  0
VERTEX
  8
1
 10
7.2582
 20
9.2518
 30
0.0000
 42
1.0000
  0
VERTEX
  8
1
 10
7.4738
 20
9.0362
 30
0.0000
  0
SEQEND
  8
0
  0
POLYLINE
  8
1
 66
1
 10
0.0000
 20
0.0000
 30
0.0000
 40
0.6096
 41
0.6096
 70
0
  0
VERTEX
  8
1
 10
7.3660
 20
5.9690
 30
0.0000
  0
VERTEX
  8
1
 10
7.3660
 20
9.1440
 30
0.0000
  0
SEQEND
  8
0
  0
POLYLINE
  8
1
 66
1
 10
0.0000
 20
0.0000
 30
0.0000
 40
0.3048
 41
0.3048
 70
0
  0
VERTEX
  8
1
 10
7.5184
 20
9.1440
 30
0.0000
 42
1.0000
  0
VERTEX
  8
1
 10
7.2136
 20
9.1440
 30
0.0000
  0
SEQEND
  8
0
  0
POLYLINE
  8
1
 66
1
 10
0.0000
 20
0.0000
 30
0.0000
 40
0.3048
 41
0.3048
 70
0
  0
VERTEX
  8
1
 10
7.2136
 20
5.9690
 30
0.0000
 42
1.0000
  0
VERTEX
  8
1
 10
7.5184
 20
5.9690
 30
0.0000
  0
SEQEND
  8
0
  0
POLYLINE
  8
1
 66
1
 10
0.0000
 20
0.0000
 30
0.0000
 40
0.6096
 41
0.6096
 70
0
  0
VERTEX
  8
1
 10
7.3660
 20
5.9690
 30
0.0000
  0
VERTEX
  8
1
 10
8.1280
 20
4.9530
 30
0.0000
  0
SEQEND
  8
0
  0
POLYLINE
  8
1
 66
1
 10
0.0000
 20
0.0000
 30
0.0000
 40
0.3048
 41
0.3048
 70
0
  0
VERTEX
  8
1
 10
8.0061
 20
4.8616
 30
0.0000
 42
1.0000
  0
VERTEX
  8
1
 10
8.2499
 20
5.0444
 30
0.0000
  0
SEQEND
  8
0
  0
POLYLINE
  8
1
 66
1
 10
0.0000
 20
0.0000
 30
0.0000
 40
0.3048
 41
0.3048
 70
0
  0
VERTEX
  8
1
 10
7.4879
 20
6.0604
 30
0.0000
 42
1.0000
  0
VERTEX
  8
1
 10
7.2441
 20
5.8776
 30
0.0000
  0
SEQEND
  8
0
  0
POLYLINE
  8
1
 66
1
 10
0.0000
 20
0.0000
 30
0.0000
 40
0.6096
 41
0.6096
 70
0
  0
VERTEX
  8
1
 10
9.6520
 20
6.8580
 30
0.0000
  0
VERTEX
  8
1
 10
9.6520
 20
8.4420
 30
0.0000
  0
SEQEND
  8
0
  0
POLYLINE
  8
1
 66
1
 10
0.0000
 20
0.0000
 30
0.0000
 40
0.3048
 41
0.3048
 70
0
  0
VERTEX
  8
1
 10
9.8044
 20
8.4420
 30
0.0000
 42
1.0000
  0
VERTEX
  8
1
 10
9.4996
 20
8.4420
 30
0.0000
  0
SEQEND
  8
0
  0
POLYLINE
  8
1
 66
1
 10
0.0000
 20
0.0000
 30
0.0000
 40
0.3048
 41
0.3048
 70
0
  0
VERTEX
  8
1
 10
9.4996
 20
6.8580
 30
0.0000
 42
1.0000
  0
VERTEX
  8
1
 10
9.8044
 20
6.8580
 30
0.0000
  0
SEQEND
  8
0
  0
POLYLINE
  8
1
 66
1
 10
0.0000
 20
0.0000
 30
0.0000
 40
0.6096
 41
0.6096
 70
0
  0
VERTEX
  8
1
 10
9.6520
 20
8.4420
 30
0.0000
  0
VERTEX
  8
1
 10
9.6520
 20
8.5090
 30
0.0000
  0
SEQEND
  8
0
  0
POLYLINE
  8
1
 66
1
 10
0.0000
 20
0.0000
 30
0.0000
 40
0.3048
 41
0.3048
 70
0
  0
VERTEX
  8
1
 10
9.8044
 20
8.5090
 30
0.0000
 42
1.0000
  0
VERTEX
  8
1
 10
9.4996
 20
8.5090
 30
0.0000
  0
SEQEND
  8
0
  0
POLYLINE
  8
1
 66
1
 10
0.0000
 20
0.0000
 30
0.0000
 40
0.3048
 41
0.3048
 70
0
  0
VERTEX
  8
1
 10
9.4996
 20
8.4420
 30
0.0000
 42
1.0000
  0
VERTEX
  8
1
 10
9.8044
 20
8.4420
 30
0.0000
  0
SEQEND
  8
0
  0
POLYLINE
  8
1
 66
1
 10
0.0000
 20
0.0000
 30
0.0000
 40
0.6096
 41
0.6096
 70
0
  0
VERTEX
  8
1
 10
9.6520
 20
8.4420
 30
0.0000
  0
VERTEX
  8
1
 10
9.5920
 20
8.6360
 30
0.0000
  0
SEQEND
  8
0
  0
POLYLINE
  8
1
 66
1
 10
0.0000
 20
0.0000
 30
0.0000
 40
0.3048
 41
0.3048
 70
0
  0
VERTEX
  8
1
 10
9.7376
 20
8.6810
 30
0.0000
 42
1.0000
  0
VERTEX
  8
1
 10
9.4464
 20
8.5910
 30
0.0000
  0
SEQEND
  8
0
  0
POLYLINE
  8
1
 66
1
 10
0.0000
 20
0.0000
 30
0.0000
 40
0.3048
 41
0.3048
 70
0
  0
VERTEX
  8
1
 10
9.5064
 20
8.3970
 30
0.0000
 42
1.0000
  0
VERTEX
  8
1
 10
9.7976
 20
8.4870
 30
0.0000
  0
SEQEND
  8
0
  0
POLYLINE
  8
1
 66
1
 10
0.0000
 20
0.0000
 30
0.0000
 40
0.6096
 41
0.6096
 70
0
  0
VERTEX
  8
1
 10
9.6520
 20
6.8580
 30
0.0000
  0
VERTEX
  8
1
 10
10.6680
 20
5.8420
 30
0.0000
  0
SEQEND
  8
0
  0
POLYLINE
  8
1
 66
1
 10
0.0000
 20
0.0000
 30
0.0000
 40
0.3048
 41
0.3048
 70
0
  0
VERTEX
  8
1
 10
10.5602
 20
5.7342
 30
0.0000
 42
1.0000
  0
VERTEX
  8
1
 10
10.7758
 20
5.9498
 30
0.0000
  0
SEQEND
  8
0
  0
POLYLINE
  8
1
 66
1
 10
0.0000
 20
0.0000
 30
0.0000
 40
0.3048
 41
0.3048
 70
0
  0
VERTEX
  8
1
 10
9.7598
 20
6.9658
 30
0.0000
 42
1.0000
  0
VERTEX
  8
1
 10
9.5442
 20
6.7502
 30
0.0000
  0
SEQEND
  8
0
  0
POLYLINE
  8
1
 66
1
 10
0.0000
 20
0.0000
 30
0.0000
 40
0.6096
 41
0.6096
 70
0
  0
VERTEX
  8
1
 10
10.6680
 20
5.8420
 30
0.0000
  0
VERTEX
  8
1
 10
10.6680
 20
4.9530
 30
0.0000
  0
SEQEND
  8
0
  0
POLYLINE
  8
1
 66
1
 10
0.0000
 20
0.0000
 30
0.0000
 40
0.3048
 41
0.3048
 70
0
  0
VERTEX
  8
1
 10
10.5156
 20
4.9530
 30
0.0000
 42
1.0000
  0
VERTEX
  8
1
 10
10.8204
 20
4.9530
 30
0.0000
  0
SEQEND
  8
0
  0
POLYLINE
  8
1
 66
1
 10
0.0000
 20
0.0000
 30
0.0000
 40
0.3048
 41
0.3048
 70
0
  0
VERTEX
  8
1
 10
10.8204
 20
5.8420
 30
0.0000
 42
1.0000
  0
VERTEX
  8
1
 10
10.5156
 20
5.8420
 30
0.0000
  0
SEQEND
  8
0
  0
POLYLINE
  8
1
 66
1
 10
0.0000
 20
0.0000
 30
0.0000
 40
0.6096
 41
0.6096
 70
0
  0
VERTEX
  8
1
 10
9.5920
 20
16.2560
 30
0.0000
  0
VERTEX
  8
1
 10
11.0490
 20
16.2560
 30
0.0000
  0
SEQEND
  8
0
  0
POLYLINE
  8
1
 66
1
 10
0.0000
 20
0.0000
 30
0.0000
 40
0.3048
 41
0.3048
 70
0
  0
VERTEX
  8
1
 10
11.0490
 20
16.1036
 30
0.0000
 42
1.0000
  0
VERTEX
  8
1
 10
11.0490
 20
16.4084
 30
0.0000
  0
SEQEND
  8
0
  0
POLYLINE
  8
1
 66
1
 10
0.0000
 20
0.0000
 30
0.0000
 40
0.3048
 41
0.3048
 70
0
  0
VERTEX
  8
1
 10
9.5920
 20
16.4084
 30
0.0000
 42
1.0000
  0
VERTEX
  8
1
 10
9.5920
 20
16.1036
 30
0.0000
  0
SEQEND
  8
0
  0
POLYLINE
  8
1
 66
1
 10
0.0000
 20
0.0000
 30
0.0000
 40
0.6096
 41
0.6096
 70
0
  0
VERTEX
  8
1
 10
11.0490
 20
16.2560
 30
0.0000
  0
VERTEX
  8
1
 10
11.8110
 20
17.0180
 30
0.0000
  0
SEQEND
  8
0
  0
POLYLINE
  8
1
 66
1
 10
0.0000
 20
0.0000
 30
0.0000
 40
0.3048
 41
0.3048
 70
0
  0
VERTEX
  8
1
 10
11.9188
 20
16.9102
 30
0.0000
 42
1.0000
  0
VERTEX
  8
1
 10
11.7032
 20
17.1258
 30
0.0000
  0
SEQEND
  8
0
  0
POLYLINE
  8
1
 66
1
 10
0.0000
 20
0.0000
 30
0.0000
 40
0.3048
 41
0.3048
 70
0
  0
VERTEX
  8
1
 10
10.9412
 20
16.3638
 30
0.0000
 42
1.0000
  0
VERTEX
  8
1
 10
11.1568
 20
16.1482
 30
0.0000
  0
SEQEND
  8
0
  0
POLYLINE
  8
1
 66
1
 10
0.0000
 20
0.0000
 30
0.0000
 40
0.6096
 41
0.6096
 70
0
  0
VERTEX
  8
1
 10
11.8110
 20
17.0180
 30
0.0000
  0
VERTEX
  8
1
 10
11.8110
 20
18.1610
 30
0.0000
  0
SEQEND
  8
0
  0
POLYLINE
  8
1
 66
1
 10
0.0000
 20
0.0000
 30
0.0000
 40
0.3048
 41
0.3048
 70
0
  0
VERTEX
  8
1
 10
11.9634
 20
18.1610
 30
0.0000
 42
1.0000
  0
VERTEX
  8
1
 10
11.6586
 20
18.1610
 30
0.0000
  0
SEQEND
  8
0
  0
POLYLINE
  8
1
 66
1
 10
0.0000
 20
0.0000
 30
0.0000
 40
0.3048
 41
0.3048
 70
0
  0
VERTEX
  8
1
 10
11.6586
 20
17.0180
 30
0.0000
 42
1.0000
  0
VERTEX
  8
1
 10
11.9634
 20
17.0180
 30
0.0000
  0
SEQEND
  8
0
  0
POLYLINE
  8
1
 66
1
 10
0.0000
 20
0.0000
 30
0.0000
 40
0.6096
 41
0.6096
 70
0
  0
VERTEX
  8
1
 10
11.8110
 20
18.1610
 30
0.0000
  0
VERTEX
  8
1
 10
6.3500
 20
23.6220
 30
0.0000
  0
SEQEND
  8
0
  0
POLYLINE
  8
1
 66
1
 10
0.0000
 20
0.0000
 30
0.0000
 40
0.3048
 41
0.3048
 70
0
  0
VERTEX
  8
1
 10
6.4578
 20
23.7298
 30
0.0000
 42
1.0000
  0
VERTEX
  8
1
 10
6.2422
 20
23.5142
 30
0.0000
  0
SEQEND
  8
0
  0
POLYLINE
  8
1
 66
1
 10
0.0000
 20
0.0000
 30
0.0000
 40
0.3048
 41
0.3048
 70
0
  0
VERTEX
  8
1
 10
11.7032
 20
18.0532
 30
0.0000
 42
1.0000
  0
VERTEX
  8
1
 10
11.9188
 20
18.2688
 30
0.0000
  0
SEQEND
  8
0
  0
POLYLINE
  8
1
 66
1
 10
0.0000
 20
0.0000
 30
0.0000
 40
0.6096
 41
0.6096
 70
0
  0
VERTEX
  8
1
 10
6.3500
 20
24.5110
 30
0.0000
  0
VERTEX
  8
1
 10
6.6280
 20
24.5110
 30
0.0000
  0
SEQEND
  8
0
  0
POLYLINE
  8
1
 66
1
 10
0.0000
 20
0.0000
 30
0.0000
 40
0.3048
 41
0.3048
 70
0
  0
VERTEX
  8
1
 10
6.6280
 20
24.3586
 30
0.0000
 42
1.0000
  0
VERTEX
  8
1
 10
6.6280
 20
24.6634
 30
0.0000
  0
SEQEND
  8
0
  0
POLYLINE
  8
1
 66
1
 10
0.0000
 20
0.0000
 30
0.0000
 40
0.3048
 41
0.3048
 70
0
  0
VERTEX
  8
1
 10
6.3500
 20
24.6634
 30
0.0000
 42
1.0000
  0
VERTEX
  8
1
 10
6.3500
 20
24.3586
 30
0.0000
  0
SEQEND
  8
0
  0
POLYLINE
  8
1
 66
1
 10
0.0000
 20
0.0000
 30
0.0000
 40
0.6096
 41
0.6096
 70
0
  0
VERTEX
  8
1
 10
6.3500
 20
23.6220
 30
0.0000
  0
VERTEX
  8
1
 10
6.3500
 20
24.5110
 30
0.0000
  0
SEQEND
  8
0
  0
POLYLINE
  8
1
 66
1
 10
0.0000
 20
0.0000
 30
0.0000
 40
0.3048
 41
0.3048
 70
0
  0
VERTEX
  8
1
 10
6.5024
 20
24.5110
 30
0.0000
 42
1.0000
  0
VERTEX
  8
1
 10
6.1976
 20
24.5110
 30
0.0000
  0
SEQEND
  8
0
  0
POLYLINE
  8
1
 66
1
 10
0.0000
 20
0.0000
 30
0.0000
 40
0.3048
 41
0.3048
 70
0
  0
VERTEX
  8
1
 10
6.1976
 20
23.6220
 30
0.0000
 42
1.0000
  0
VERTEX
  8
1
 10
6.5024
 20
23.6220
 30
0.0000
  0
SEQEND
  8
0
  0
POLYLINE
  8
1
 66
1
 10
0.0000
 20
0.0000
 30
0.0000
 40
0.6096
 41
0.6096
 70
0
  0
VERTEX
  8
1
 10
8.1280
 20
14.9860
 30
0.0000
  0
VERTEX
  8
1
 10
9.5920
 20
14.9860
 30
0.0000
  0
SEQEND
  8
0
  0
POLYLINE
  8
1
 66
1
 10
0.0000
 20
0.0000
 30
0.0000
 40
0.3048
 41
0.3048
 70
0
  0
VERTEX
  8
1
 10
9.5920
 20
14.8336
 30
0.0000
 42
1.0000
  0
VERTEX
  8
1
 10
9.5920
 20
15.1384
 30
0.0000
  0
SEQEND
  8
0
  0
POLYLINE
  8
1
 66
1
 10
0.0000
 20
0.0000
 30
0.0000
 40
0.3048
 41
0.3048
 70
0
  0
VERTEX
  8
1
 10
8.1280
 20
15.1384
 30
0.0000
 42
1.0000
  0
VERTEX
  8
1
 10
8.1280
 20
14.8336
 30
0.0000
  0
SEQEND
  8
0
  0
POLYLINE
  8
1
 66
1
 10
0.0000
 20
0.0000
 30
0.0000
 40
0.6096
 41
0.6096
 70
0
  0
VERTEX
  8
1
 10
7.2390
 20
15.8750
 30
0.0000
  0
VERTEX
  8
1
 10
8.1280
 20
14.9860
 30
0.0000
  0
SEQEND
  8
0
  0
POLYLINE
  8
1
 66
1
 10
0.0000
 20
0.0000
 30
0.0000
 40
0.3048
 41
0.3048
 70
0
  0
VERTEX
  8
1
 10
8.0202
 20
14.8782
 30
0.0000
 42
1.0000
  0
VERTEX
  8
1
 10
8.2358
 20
15.0938
 30
0.0000
  0
SEQEND
  8
0
  0
POLYLINE
  8
1
 66
1
 10
0.0000
 20
0.0000
 30
0.0000
 40
0.3048
 41
0.3048
 70
0
  0
VERTEX
  8
1
 10
7.3468
 20
15.9828
 30
0.0000
 42
1.0000
  0
VERTEX
  8
1
 10
7.1312
 20
15.7672
 30
0.0000
  0
SEQEND
  8
0
  0
POLYLINE
  8
1
 66
1
 10
0.0000
 20
0.0000
 30
0.0000
 40
0.6096
 41
0.6096
 70
0
  0
VERTEX
  8
1
 10
7.2390
 20
17.2720
 30
0.0000
  0
VERTEX
  8
1
 10
7.2390
 20
15.8750
 30
0.0000
  0
SEQEND
  8
0
  0
POLYLINE
  8
1
 66
1
 10
0.0000
 20
0.0000
 30
0.0000
 40
0.3048
 41
0.3048
 70
0
  0
VERTEX
  8
1
 10
7.0866
 20
15.8750
 30
0.0000
 42
1.0000
  0
VERTEX
  8
1
 10
7.3914
 20
15.8750
 30
0.0000
  0
SEQEND
  8
0
  0
POLYLINE
  8
1
 66
1
 10
0.0000
 20
0.0000
 30
0.0000
 40
0.3048
 41
0.3048
 70
0
  0
VERTEX
  8
1
 10
7.3914
 20
17.2720
 30
0.0000
 42
1.0000
  0
VERTEX
  8
1
 10
7.0866
 20
17.2720
 30
0.0000
  0
SEQEND
  8
0
  0
POLYLINE
  8
1
 66
1
 10
0.0000
 20
0.0000
 30
0.0000
 40
0.6096
 41
0.6096
 70
0
  0
VERTEX
  8
1
 10
4.6990
 20
17.8040
 30
0.0000
  0
VERTEX
  8
1
 10
4.6990
 20
17.7800
 30
0.0000
  0
SEQEND
  8
0
  0
POLYLINE
  8
1
 66
1
 10
0.0000
 20
0.0000
 30
0.0000
 40
0.3048
 41
0.3048
 70
0
  0
VERTEX
  8
1
 10
4.5466
 20
17.7800
 30
0.0000
 42
1.0000
  0
VERTEX
  8
1
 10
4.8514
 20
17.7800
 30
0.0000
  0
SEQEND
  8
0
  0
POLYLINE
  8
1
 66
1
 10
0.0000
 20
0.0000
 30
0.0000
 40
0.3048
 41
0.3048
 70
0
  0
VERTEX
  8
1
 10
4.8514
 20
17.8040
 30
0.0000
 42
1.0000
  0
VERTEX
  8
1
 10
4.5466
 20
17.8040
 30
0.0000
  0
SEQEND
  8
0
  0
POLYLINE
  8
1
 66
1
 10
0.0000
 20
0.0000
 30
0.0000
 40
0.6096
 41
0.6096
 70
0
  0
VERTEX
  8
1
 10
4.5720
 20
17.9310
 30
0.0000
  0
VERTEX
  8
1
 10
4.6990
 20
17.8040
 30
0.0000
  0
SEQEND
  8
0
  0
POLYLINE
  8
1
 66
1
 10
0.0000
 20
0.0000
 30
0.0000
 40
0.3048
 41
0.3048
 70
0
  0
VERTEX
  8
1
 10
4.5912
 20
17.6962
 30
0.0000
 42
1.0000
  0
VERTEX
  8
1
 10
4.8068
 20
17.9118
 30
0.0000
  0
SEQEND
  8
0
  0
POLYLINE
  8
1
 66
1
 10
0.0000
 20
0.0000
 30
0.0000
 40
0.3048
 41
0.3048
 70
0
  0
VERTEX
  8
1
 10
4.6798
 20
18.0388
 30
0.0000
 42
1.0000
  0
VERTEX
  8
1
 10
4.4642
 20
17.8232
 30
0.0000
  0
SEQEND
  8
0
  0
POLYLINE
  8
1
 66
1
 10
0.0000
 20
0.0000
 30
0.0000
 40
0.6096
 41
0.6096
 70
0
  0
VERTEX
  8
1
 10
6.7310
 20
17.7800
 30
0.0000
  0
VERTEX
  8
1
 10
7.2390
 20
17.2720
 30
0.0000
  0
SEQEND
  8
0
  0
POLYLINE
  8
1
 66
1
 10
0.0000
 20
0.0000
 30
0.0000
 40
0.3048
 41
0.3048
 70
0
  0
VERTEX
  8
1
 10
7.1312
 20
17.1642
 30
0.0000
 42
1.0000
  0
VERTEX
  8
1
 10
7.3468
 20
17.3798
 30
0.0000
  0
SEQEND
  8
0
  0
POLYLINE
  8
1
 66
1
 10
0.0000
 20
0.0000
 30
0.0000
 40
0.3048
 41
0.3048
 70
0
  0
VERTEX
  8
1
 10
6.8388
 20
17.8878
 30
0.0000
 42
1.0000
  0
VERTEX
  8
1
 10
6.6232
 20
17.6722
 30
0.0000
  0
SEQEND
  8
0
  0
POLYLINE
  8
1
 66
1
 10
0.0000
 20
0.0000
 30
0.0000
 40
0.6096
 41
0.6096
 70
0
  0
VERTEX
  8
1
 10
4.6990
 20
17.7800
 30
0.0000
  0
VERTEX
  8
1
 10
6.7310
 20
17.7800
 30
0.0000
  0
SEQEND
  8
0
  0
POLYLINE
  8
1
 66
1
 10
0.0000
 20
0.0000
 30
0.0000
 40
0.3048
 41
0.3048
 70
0
  0
VERTEX
  8
1
 10
6.7310
 20
17.6276
 30
0.0000
 42
1.0000
  0
VERTEX
  8
1
 10
6.7310
 20
17.9324
 30
0.0000
  0
SEQEND
  8
0
  0
POLYLINE
  8
1
 66
1
 10
0.0000
 20
0.0000
 30
0.0000
 40
0.3048
 41
0.3048
 70
0
  0
VERTEX
  8
1
 10
4.6990
 20
17.9324
 30
0.0000
 42
1.0000
  0
VERTEX
  8
1
 10
4.6990
 20
17.6276
 30
0.0000
  0
SEQEND
  8
0
  0
POLYLINE
  8
1
 66
1
 10
0.0000
 20
0.0000
 30
0.0000
 40
0.6096
 41
0.6096
 70
0
  0
VERTEX
  8
1
 10
4.5720
 20
20.9310
 30
0.0000
  0
VERTEX
  8
1
 10
4.5720
 20
20.7010
 30
0.0000
  0
SEQEND
  8
0
  0
POLYLINE
  8
1
 66
1
 10
0.0000
 20
0.0000
 30
0.0000
 40
0.3048
 41
0.3048
 70
0
  0
VERTEX
  8
1
 10
4.4196
 20
20.7010
 30
0.0000
 42
1.0000
  0
VERTEX
  8
1
 10
4.7244
 20
20.7010
 30
0.0000
  0
SEQEND
  8
0
  0
POLYLINE
  8
1
 66
1
 10
0.0000
 20
0.0000
 30
0.0000
 40
0.3048
 41
0.3048
 70
0
  0
VERTEX
  8
1
 10
4.7244
 20
20.9310
 30
0.0000
 42
1.0000
  0
VERTEX
  8
1
 10
4.4196
 20
20.9310
 30
0.0000
  0
SEQEND
  8
0
  0
POLYLINE
  8
1
 66
1
 10
0.0000
 20
0.0000
 30
0.0000
 40
0.6096
 41
0.6096
 70
0
  0
VERTEX
  8
1
 10
6.4170
 20
20.7010
 30
0.0000
  0
VERTEX
  8
1
 10
9.5920
 20
17.5260
 30
0.0000
  0
SEQEND
  8
0
  0
POLYLINE
  8
1
 66
1
 10
0.0000
 20
0.0000
 30
0.0000
 40
0.3048
 41
0.3048
 70
0
  0
VERTEX
  8
1
 10
9.4842
 20
17.4182
 30
0.0000
 42
1.0000
  0
VERTEX
  8
1
 10
9.6998
 20
17.6338
 30
0.0000
  0
SEQEND
  8
0
  0
POLYLINE
  8
1
 66
1
 10
0.0000
 20
0.0000
 30
0.0000
 40
0.3048
 41
0.3048
 70
0
  0
VERTEX
  8
1
 10
6.5248
 20
20.8088
 30
0.0000
 42
1.0000
  0
VERTEX
  8
1
 10
6.3092
 20
20.5932
 30
0.0000
  0
SEQEND
  8
0
  0
POLYLINE
  8
1
 66
1
 10
0.0000
 20
0.0000
 30
0.0000
 40
0.6096
 41
0.6096
 70
0
  0
VERTEX
  8
1
 10
4.5720
 20
20.7010
 30
0.0000
  0
VERTEX
  8
1
 10
6.4170
 20
20.7010
 30
0.0000
  0
SEQEND
  8
0
  0
POLYLINE
  8
1
 66
1
 10
0.0000
 20
0.0000
 30
0.0000
 40
0.3048
 41
0.3048
 70
0
  0
VERTEX
  8
1
 10
6.4170
 20
20.5486
 30
0.0000
 42
1.0000
  0
VERTEX
  8
1
 10
6.4170
 20
20.8534
 30
0.0000
  0
SEQEND
  8
0
  0
POLYLINE
  8
1
 66
1
 10
0.0000
 20
0.0000
 30
0.0000
 40
0.3048
 41
0.3048
 70
0
  0
VERTEX
  8
1
 10
4.5720
 20
20.8534
 30
0.0000
 42
1.0000
  0
VERTEX
  8
1
 10
4.5720
 20
20.5486
 30
0.0000
  0
SEQEND
  8
0
  0
POLYLINE
  8
1
 66
1
 10
0.0000
 20
0.0000
 30
0.0000
 40
0.6096
 41
0.6096
 70
0
  0
VERTEX
  8
1
 10
9.5920
 20
12.4460
 30
0.0000
  0
VERTEX
  8
1
 10
9.9060
 20
12.4460
 30
0.0000
  0
SEQEND
  8
0
  0
POLYLINE
  8
1
 66
1
 10
0.0000
 20
0.0000
 30
0.0000
 40
0.3048
 41
0.3048
 70
0
  0
VERTEX
  8
1
 10
9.9060
 20
12.2936
 30
0.0000
 42
1.0000
  0
VERTEX
  8
1
 10
9.9060
 20
12.5984
 30
0.0000
  0
SEQEND
  8
0
  0
POLYLINE
  8
1
 66
1
 10
0.0000
 20
0.0000
 30
0.0000
 40
0.3048
 41
0.3048
 70
0
  0
VERTEX
  8
1
 10
9.5920
 20
12.5984
 30
0.0000
 42
1.0000
  0
VERTEX
  8
1
 10
9.5920
 20
12.2936
 30
0.0000
  0
SEQEND
  8
0
  0
POLYLINE
  8
1
 66
1
 10
0.0000
 20
0.0000
 30
0.0000
 40
0.6096
 41
0.6096
 70
0
  0
VERTEX
  8
1
 10
4.5720
 20
12.3430
 30
0.0000
  0
VERTEX
  8
1
 10
5.4370
 20
12.4460
 30
0.0000
  0
SEQEND
  8
0
  0
POLYLINE
  8
1
 66
1
 10
0.0000
 20
0.0000
 30
0.0000
 40
0.3048
 41
0.3048
 70
0
  0
VERTEX
  8
1
 10
5.4550
 20
12.2947
 30
0.0000
 42
1.0000
  0
VERTEX
  8
1
 10
5.4190
 20
12.5973
 30
0.0000
  0
SEQEND
  8
0
  0
POLYLINE
  8
1
 66
1
 10
0.0000
 20
0.0000
 30
0.0000
 40
0.3048
 41
0.3048
 70
0
  0
VERTEX
  8
1
 10
4.5540
 20
12.4943
 30
0.0000
 42
1.0000
  0
VERTEX
  8
1
 10
4.5900
 20
12.1917
 30
0.0000
  0
SEQEND
  8
0
  0
POLYLINE
  8
1
 66
1
 10
0.0000
 20
0.0000
 30
0.0000
 40
0.6096
 41
0.6096
 70
0
  0
VERTEX
  8
1
 10
5.4370
 20
12.4460
 30
0.0000
  0
VERTEX
  8
1
 10
9.5920
 20
12.4460
 30
0.0000
  0
SEQEND
  8
0
  0
POLYLINE
  8
1
 66
1
 10
0.0000
 20
0.0000
 30
0.0000
 40
0.3048
 41
0.3048
 70
0
  0
VERTEX
  8
1
 10
9.5920
 20
12.2936
 30
0.0000
 42
1.0000
  0
VERTEX
  8
1
 10
9.5920
 20
12.5984
 30
0.0000
  0
SEQEND
  8
0
  0
POLYLINE
  8
1
 66
1
 10
0.0000
 20
0.0000
 30
0.0000
 40
0.3048
 41
0.3048
 70
0
  0
VERTEX
  8
1
 10
5.4370
 20
12.5984
 30
0.0000
 42
1.0000
  0
VERTEX
  8
1
 10
5.4370
 20
12.2936
 30
0.0000
  0
SEQEND
  8
0
  0
POLYLINE
  8
1
 66
1
 10
0.0000
 20
0.0000
 30
0.0000
 40
0.6096
 41
0.6096
 70
0
  0
VERTEX
  8
1
 10
7.4930
 20
11.1760
 30
0.0000
  0
VERTEX
  8
1
 10
9.5920
 20
11.1760
 30
0.0000
  0
SEQEND
  8
0
  0
POLYLINE
  8
1
 66
1
 10
0.0000
 20
0.0000
 30
0.0000
 40
0.3048
 41
0.3048
 70
0
  0
VERTEX
  8
1
 10
9.5920
 20
11.0236
 30
0.0000
 42
1.0000
  0
VERTEX
  8
1
 10
9.5920
 20
11.3284
 30
0.0000
  0
SEQEND
  8
0
  0
POLYLINE
  8
1
 66
1
 10
0.0000
 20
0.0000
 30
0.0000
 40
0.3048
 41
0.3048
 70
0
  0
VERTEX
  8
1
 10
7.4930
 20
11.3284
 30
0.0000
 42
1.0000
  0
VERTEX
  8
1
 10
7.4930
 20
11.0236
 30
0.0000
  0
SEQEND
  8
0
  0
POLYLINE
  8
1
 66
1
 10
0.0000
 20
0.0000
 30
0.0000
 40
0.6096
 41
0.6096
 70
0
  0
VERTEX
  8
1
 10
4.8260
 20
8.5090
 30
0.0000
  0
VERTEX
  8
1
 10
7.4930
 20
11.1760
 30
0.0000
  0
SEQEND
  8
0
  0
POLYLINE
  8
1
 66
1
 10
0.0000
 20
0.0000
 30
0.0000
 40
0.3048
 41
0.3048
 70
0
  0
VERTEX
  8
1
 10
7.6008
 20
11.0682
 30
0.0000
 42
1.0000
  0
VERTEX
  8
1
 10
7.3852
 20
11.2838
 30
0.0000
  0
SEQEND
  8
0
  0
POLYLINE
  8
1
 66
1
 10
0.0000
 20
0.0000
 30
0.0000
 40
0.3048
 41
0.3048
 70
0
  0
VERTEX
  8
1
 10
4.7182
 20
8.6168
 30
0.0000
 42
1.0000
  0
VERTEX
  8
1
 10
4.9338
 20
8.4012
 30
0.0000
  0
SEQEND
  8
0
  0
POLYLINE
  8
1
 66
1
 10
0.0000
 20
0.0000
 30
0.0000
 40
0.6096
 41
0.6096
 70
0
  0
VERTEX
  8
1
 10
4.4450
 20
8.3580
 30
0.0000
  0
VERTEX
  8
1
 10
4.4450
 20
8.3820
 30
0.0000
  0
SEQEND
  8
0
  0
POLYLINE
  8
1
 66
1
 10
0.0000
 20
0.0000
 30
0.0000
 40
0.3048
 41
0.3048
 70
0
  0
VERTEX
  8
1
 10
4.5974
 20
8.3820
 30
0.0000
 42
1.0000
  0
VERTEX
  8
1
 10
4.2926
 20
8.3820
 30
0.0000
  0
SEQEND
  8
0
  0
POLYLINE
  8
1
 66
1
 10
0.0000
 20
0.0000
 30
0.0000
 40
0.3048
 41
0.3048
 70
0
  0
VERTEX
  8
1
 10
4.2926
 20
8.3580
 30
0.0000
 42
1.0000
  0
VERTEX
  8
1
 10
4.5974
 20
8.3580
 30
0.0000
  0
SEQEND
  8
0
  0
POLYLINE
  8
1
 66
1
 10
0.0000
 20
0.0000
 30
0.0000
 40
0.6096
 41
0.6096
 70
0
  0
VERTEX
  8
1
 10
4.5720
 20
8.2310
 30
0.0000
  0
VERTEX
  8
1
 10
4.4450
 20
8.3580
 30
0.0000
  0
SEQEND
  8
0
  0
POLYLINE
  8
1
 66
1
 10
0.0000
 20
0.0000
 30
0.0000
 40
0.3048
 41
0.3048
 70
0
  0
VERTEX
  8
1
 10
4.5528
 20
8.4658
 30
0.0000
 42
1.0000
  0
VERTEX
  8
1
 10
4.3372
 20
8.2502
 30
0.0000
  0
SEQEND
  8
0
  0
POLYLINE
  8
1
 66
1
 10
0.0000
 20
0.0000
 30
0.0000
 40
0.3048
 41
0.3048
 70
0
  0
VERTEX
  8
1
 10
4.4642
 20
8.1232
 30
0.0000
 42
1.0000
  0
VERTEX
  8
1
 10
4.6798
 20
8.3388
 30
0.0000
  0
SEQEND
  8
0
  0
POLYLINE
  8
1
 66
1
 10
0.0000
 20
0.0000
 30
0.0000
 40
0.6096
 41
0.6096
 70
0
  0
VERTEX
  8
1
 10
4.4450
 20
8.3820
 30
0.0000
  0
VERTEX
  8
1
 10
4.8260
 20
8.5090
 30
0.0000
  0
SEQEND
  8
0
  0
POLYLINE
  8
1
 66
1
 10
0.0000
 20
0.0000
 30
0.0000
 40
0.3048
 41
0.3048
 70
0
  0
VERTEX
  8
1
 10
4.8742
 20
8.3644
 30
0.0000
 42
1.0000
  0
VERTEX
  8
1
 10
4.7778
 20
8.6536
 30
0.0000
  0
SEQEND
  8
0
  0
POLYLINE
  8
1
 66
1
 10
0.0000
 20
0.0000
 30
0.0000
 40
0.3048
 41
0.3048
 70
0
  0
VERTEX
  8
1
 10
4.3968
 20
8.5266
 30
0.0000
 42
1.0000
  0
VERTEX
  8
1
 10
4.4932
 20
8.2374
 30
0.0000
  0
SEQEND
  8
0
  0
POLYLINE
  8
1
 66
1
 10
0.0000
 20
0.0000
 30
0.0000
 40
0.6096
 41
0.6096
 70
0
  0
VERTEX
  8
1
 10
4.5720
 20
15.3430
 30
0.0000
  0
VERTEX
  8
1
 10
5.5640
 20
15.1130
 30
0.0000
  0
SEQEND
  8
0
  0
POLYLINE
  8
1
 66
1
 10
0.0000
 20
0.0000
 30
0.0000
 40
0.3048
 41
0.3048
 70
0
  0
VERTEX
  8
1
 10
5.5296
 20
14.9645
 30
0.0000
 42
1.0000
  0
VERTEX
  8
1
 10
5.5984
 20
15.2615
 30
0.0000
  0
SEQEND
  8
0
  0
POLYLINE
  8
1
 66
1
 10
0.0000
 20
0.0000
 30
0.0000
 40
0.3048
 41
0.3048
 70
0
  0
VERTEX
  8
1
 10
4.6064
 20
15.4915
 30
0.0000
 42
1.0000
  0
VERTEX
  8
1
 10
4.5376
 20
15.1945
 30
0.0000
  0
SEQEND
  8
0
  0
POLYLINE
  8
1
 66
1
 10
0.0000
 20
0.0000
 30
0.0000
 40
0.6096
 41
0.6096
 70
0
  0
VERTEX
  8
1
 10
5.5640
 20
15.1130
 30
0.0000
  0
VERTEX
  8
1
 10
6.3500
 20
14.3510
 30
0.0000
  0
SEQEND
  8
0
  0
POLYLINE
  8
1
 66
1
 10
0.0000
 20
0.0000
 30
0.0000
 40
0.3048
 41
0.3048
 70
0
  0
VERTEX
  8
1
 10
6.2439
 20
14.2416
 30
0.0000
 42
1.0000
  0
VERTEX
  8
1
 10
6.4561
 20
14.4604
 30
0.0000
  0
SEQEND
  8
0
  0
POLYLINE
  8
1
 66
1
 10
0.0000
 20
0.0000
 30
0.0000
 40
0.3048
 41
0.3048
 70
0
  0
VERTEX
  8
1
 10
5.6701
 20
15.2224
 30
0.0000
 42
1.0000
  0
VERTEX
  8
1
 10
5.4579
 20
15.0036
 30
0.0000
  0
SEQEND
  8
0
  0
POLYLINE
  8
1
 66
1
 10
0.0000
 20
0.0000
 30
0.0000
 40
0.6096
 41
0.6096
 70
0
  0
VERTEX
  8
1
 10
9.5920
 20
13.7160
 30
0.0000
  0
VERTEX
  8
1
 10
9.6520
 20
13.7160
 30
0.0000
  0
SEQEND
  8
0
  0
POLYLINE
  8
1
 66
1
 10
0.0000
 20
0.0000
 30
0.0000
 40
0.3048
 41
0.3048
 70
0
  0
VERTEX
  8
1
 10
9.6520
 20
13.5636
 30
0.0000
 42
1.0000
  0
VERTEX
  8
1
 10
9.6520
 20
13.8684
 30
0.0000
  0
SEQEND
  8
0
  0
POLYLINE
  8
1
 66
1
 10
0.0000
 20
0.0000
 30
0.0000
 40
0.3048
 41
0.3048
 70
0
  0
VERTEX
  8
1
 10
9.5920
 20
13.8684
 30
0.0000
 42
1.0000
  0
VERTEX
  8
1
 10
9.5920
 20
13.5636
 30
0.0000
  0
SEQEND
  8
0
  0
POLYLINE
  8
1
 66
1
 10
0.0000
 20
0.0000
 30
0.0000
 40
0.6096
 41
0.6096
 70
0
  0
VERTEX
  8
1
 10
6.3500
 20
14.3510
 30
0.0000
  0
VERTEX
  8
1
 10
6.9850
 20
13.7160
 30
0.0000
  0
SEQEND
  8
0
  0
POLYLINE
  8
1
 66
1
 10
0.0000
 20
0.0000
 30
0.0000
 40
0.3048
 41
0.3048
 70
0
  0
VERTEX
  8
1
 10
6.8772
 20
13.6082
 30
0.0000
 42
1.0000
  0
VERTEX
  8
1
 10
7.0928
 20
13.8238
 30
0.0000
  0
SEQEND
  8
0
  0
POLYLINE
  8
1
 66
1
 10
0.0000
 20
0.0000
 30
0.0000
 40
0.3048
 41
0.3048
 70
0
  0
VERTEX
  8
1
 10
6.4578
 20
14.4588
 30
0.0000
 42
1.0000
  0
VERTEX
  8
1
 10
6.2422
 20
14.2432
 30
0.0000
  0
SEQEND
  8
0
  0
POLYLINE
  8
1
 66
1
 10
0.0000
 20
0.0000
 30
0.0000
 40
0.6096
 41
0.6096
 70
0
  0
VERTEX
  8
1
 10
6.9850
 20
13.7160
 30
0.0000
  0
VERTEX
  8
1
 10
9.5920
 20
13.7160
 30
0.0000
  0
SEQEND
  8
0
  0
POLYLINE
  8
1
 66
1
 10
0.0000
 20
0.0000
 30
0.0000
 40
0.3048
 41
0.3048
 70
0
  0
VERTEX
  8
1
 10
9.5920
 20
13.5636
 30
0.0000
 42
1.0000
  0
VERTEX
  8
1
 10
9.5920
 20
13.8684
 30
0.0000
  0
SEQEND
  8
0
  0
POLYLINE
  8
1
 66
1
 10
0.0000
 20
0.0000
 30
0.0000
 40
0.3048
 41
0.3048
 70
0
  0
VERTEX
  8
1
 10
6.9850
 20
13.8684
 30
0.0000
 42
1.0000
  0
VERTEX
  8
1
 10
6.9850
 20
13.5636
 30
0.0000
  0
SEQEND
  8
0
  0
ENDSEC
  0
EOF
