  0
SECTION
  2
HEADER
  9
$ACADVER
  1
AC1009
  9
$FILLMODE
 70
1
  9
$EXTMIN
 10
0.001008
 20
-0.181417
 30
0.000000
  9
$EXTMAX
 10
1.806106
 20
1.505760
 30
0.000000
  0
ENDSEC
  0
SECTION
  2
TABLES
  0
TABLE
  2
LTYPE
 70
1
  0
LTYPE
  2
CONTINUOUS
 70
64
  3
Solid line
 72
65
 73
0
 40
0
  0
ENDTAB
  0
TABLE
  2
LAYER
 70
255
  0
LAYER
  2
1
 70
64
 62
4
  6
CONTINUOUS
  0
LAYER
  2
17
 70
64
 62
92
  6
CONTINUOUS
  0
LAYER
  2
18
 70
64
 62
92
  6
CONTINUOUS
  0
ENDTAB
  0
ENDSEC
  0
SECTION
  2
BLOCKS
  0
BLOCK
  8
0
  2
RECT
 70
64
 10
0.000000
 20
0.000000
 30
0.000000
  3
RECT
  0
SOLID
  8
0
 10
-0.500000
 20
-0.500000
 30
0.000000
 11
0.500000
 21
-0.500000
 31
0.000000
 12
-0.500000
 22
0.500000
 32
0.000000
 13
0.500000
 23
0.500000
 33
0.000000
  0
ENDBLK
  8
0
  0
BLOCK
  8
0
  2
PIE
 70
64
 10
0.000000
 20
0.000000
 30
0.000000
  3
PIE
  0
POLYLINE
  8
0
 66
1
 10
0.000000
 20
0.000000
 30
0.000000
 40
0.500000
 41
0.500000
 70
0
  0
VERTEX
  8
0
 10
0.000000
 20
-0.250000
 30
0.000000
 42
1.000000
  0
VERTEX
  8
0
 10
0.000000
 20
0.250000
 30
0.000000
 42
1.000000
  0
VERTEX
  8
0
 10
0.000000
 20
-0.250000
 30
0.000000
  0
SEQEND
  8
0
  0
ENDBLK
  8
0
  0
BLOCK
  8
0
  2
OCTAGONP
 70
64
 10
0.000000
 20
0.000000
 30
0.000000
  3
OCTAGONP
  0
POLYLINE
  8
0
 66
1
 10
0.000000
 20
0.000000
 30
0.000000
 40
0.500000
 41
0.500000
 70
0
  0
VERTEX
  8
0
 10
-0.250000
 20
-0.103553
 30
0.000000
  0
VERTEX
  8
0
 10
-0.250000
 20
0.103553
 30
0.000000
  0
VERTEX
  8
0
 10
-0.103553
 20
0.250000
 30
0.000000
  0
VERTEX
  8
0
 10
0.103553
 20
0.250000
 30
0.000000
  0
VERTEX
  8
0
 10
0.250000
 20
0.103553
 30
0.000000
  0
VERTEX
  8
0
 10
0.250000
 20
-0.103553
 30
0.000000
  0
VERTEX
  8
0
 10
0.103553
 20
-0.250000
 30
0.000000
  0
VERTEX
  8
0
 10
-0.103553
 20
-0.250000
 30
0.000000
  0
VERTEX
  8
0
 10
-0.250000
 20
-0.103553
 30
0.000000
  0
VERTEX
  8
0
 10
-0.250000
 20
0.103553
 30
0.000000
  0
SEQEND
  8
0
  0
ENDBLK
  8
0
  0
BLOCK
  8
0
  2
SQUAREP
 70
64
 10
0.000000
 20
0.000000
 30
0.000000
  3
SQUAREP
  0
SOLID
  8
0
 10
-0.500000
 20
-0.500000
 30
0.000000
 11
0.500000
 21
-0.500000
 31
0.000000
 12
-0.500000
 22
0.500000
 32
0.000000
 13
0.500000
 23
0.500000
 33
0.000000
  0
ENDBLK
  8
0
  0
BLOCK
  8
0
  2
ROUNDP
 70
64
 10
0.000000
 20
0.000000
 30
0.000000
  3
ROUNDP
  0
POLYLINE
  8
0
 66
1
 10
0.000000
 20
0.000000
 30
0.000000
 40
0.500000
 41
0.500000
 70
0
  0
VERTEX
  8
0
 10
0.000000
 20
-0.250000
 30
0.000000
 42
1.000000
  0
VERTEX
  8
0
 10
0.000000
 20
0.250000
 30
0.000000
 42
1.000000
  0
VERTEX
  8
0
 10
0.000000
 20
-0.250000
 30
0.000000
  0
SEQEND
  8
0
  0
ENDBLK
  8
0
  0
BLOCK
  8
0
  2
ANNULUSP
 70
64
 10
0.000000
 20
0.000000
 30
0.000000
  3
ANNULUSP
  0
POLYLINE
  8
0
 66
1
 10
0.000000
 20
0.000000
 30
0.000000
 40
0.500000
 41
0.500000
 70
0
  0
VERTEX
  8
0
 10
0.000000
 20
-0.250000
 30
0.000000
 42
1.000000
  0
VERTEX
  8
0
 10
0.000000
 20
0.250000
 30
0.000000
 42
1.000000
  0
VERTEX
  8
0
 10
0.000000
 20
-0.250000
 30
0.000000
  0
SEQEND
  8
0
  0
ENDBLK
  8
0
  0
BLOCK
  8
0
  2
THERMALP
 70
64
 10
0.000000
 20
0.000000
 30
0.000000
  3
THERMALP
  0
POLYLINE
  8
0
 66
1
 10
0.000000
 20
0.000000
 30
0.000000
 40
0.100000
 41
0.100000
 70
0
  0
VERTEX
  8
0
 10
-0.237868
 20
0.450000
 30
0.000000
  0
VERTEX
  8
0
 10
0.237868
 20
0.450000
 30
0.000000
  0
SEQEND
  8
0
  0
POLYLINE
  8
0
 66
1
 10
0.000000
 20
0.000000
 30
0.000000
 40
0.050000
 41
0.050000
 70
0
  0
VERTEX
  8
0
 10
0.237868
 20
0.425000
 30
0.000000
 42
1.000000
  0
VERTEX
  8
0
 10
0.237868
 20
0.475000
 30
0.000000
  0
SEQEND
  8
0
  0
POLYLINE
  8
0
 66
1
 10
0.000000
 20
0.000000
 30
0.000000
 40
0.050000
 41
0.050000
 70
0
  0
VERTEX
  8
0
 10
-0.237868
 20
0.475000
 30
0.000000
 42
1.000000
  0
VERTEX
  8
0
 10
-0.237868
 20
0.425000
 30
0.000000
  0
SEQEND
  8
0
  0
POLYLINE
  8
0
 66
1
 10
0.000000
 20
0.000000
 30
0.000000
 40
0.100000
 41
0.100000
 70
0
  0
VERTEX
  8
0
 10
0.450000
 20
0.237868
 30
0.000000
  0
VERTEX
  8
0
 10
0.450000
 20
-0.237868
 30
0.000000
  0
SEQEND
  8
0
  0
POLYLINE
  8
0
 66
1
 10
0.000000
 20
0.000000
 30
0.000000
 40
0.050000
 41
0.050000
 70
0
  0
VERTEX
  8
0
 10
0.425000
 20
-0.237868
 30
0.000000
 42
1.000000
  0
VERTEX
  8
0
 10
0.475000
 20
-0.237868
 30
0.000000
  0
SEQEND
  8
0
  0
POLYLINE
  8
0
 66
1
 10
0.000000
 20
0.000000
 30
0.000000
 40
0.050000
 41
0.050000
 70
0
  0
VERTEX
  8
0
 10
0.475000
 20
0.237868
 30
0.000000
 42
1.000000
  0
VERTEX
  8
0
 10
0.425000
 20
0.237868
 30
0.000000
  0
SEQEND
  8
0
  0
POLYLINE
  8
0
 66
1
 10
0.000000
 20
0.000000
 30
0.000000
 40
0.100000
 41
0.100000
 70
0
  0
VERTEX
  8
0
 10
0.237868
 20
-0.450000
 30
0.000000
  0
VERTEX
  8
0
 10
-0.237868
 20
-0.450000
 30
0.000000
  0
SEQEND
  8
0
  0
POLYLINE
  8
0
 66
1
 10
0.000000
 20
0.000000
 30
0.000000
 40
0.050000
 41
0.050000
 70
0
  0
VERTEX
  8
0
 10
-0.237868
 20
-0.425000
 30
0.000000
 42
1.000000
  0
VERTEX
  8
0
 10
-0.237868
 20
-0.475000
 30
0.000000
  0
SEQEND
  8
0
  0
POLYLINE
  8
0
 66
1
 10
0.000000
 20
0.000000
 30
0.000000
 40
0.050000
 41
0.050000
 70
0
  0
VERTEX
  8
0
 10
0.237868
 20
-0.475000
 30
0.000000
 42
1.000000
  0
VERTEX
  8
0
 10
0.237868
 20
-0.425000
 30
0.000000
  0
SEQEND
  8
0
  0
POLYLINE
  8
0
 66
1
 10
0.000000
 20
0.000000
 30
0.000000
 40
0.100000
 41
0.100000
 70
0
  0
VERTEX
  8
0
 10
-0.450000
 20
-0.237868
 30
0.000000
  0
VERTEX
  8
0
 10
-0.450000
 20
0.237868
 30
0.000000
  0
SEQEND
  8
0
  0
POLYLINE
  8
0
 66
1
 10
0.000000
 20
0.000000
 30
0.000000
 40
0.050000
 41
0.050000
 70
0
  0
VERTEX
  8
0
 10
-0.425000
 20
0.237868
 30
0.000000
 42
1.000000
  0
VERTEX
  8
0
 10
-0.475000
 20
0.237868
 30
0.000000
  0
SEQEND
  8
0
  0
POLYLINE
  8
0
 66
1
 10
0.000000
 20
0.000000
 30
0.000000
 40
0.050000
 41
0.050000
 70
0
  0
VERTEX
  8
0
 10
-0.475000
 20
-0.237868
 30
0.000000
 42
1.000000
  0
VERTEX
  8
0
 10
-0.425000
 20
-0.237868
 30
0.000000
  0
SEQEND
  8
0
  0
ENDBLK
  8
0
  0
BLOCK
  8
0
  2
OCTAGONV
 70
64
 10
0.000000
 20
0.000000
 30
0.000000
  3
OCTAGONV
  0
POLYLINE
  8
0
 66
1
 10
0.000000
 20
0.000000
 30
0.000000
 40
0.500000
 41
0.500000
 70
0
  0
VERTEX
  8
0
 10
-0.250000
 20
-0.103553
 30
0.000000
  0
VERTEX
  8
0
 10
-0.250000
 20
0.103553
 30
0.000000
  0
VERTEX
  8
0
 10
-0.103553
 20
0.250000
 30
0.000000
  0
VERTEX
  8
0
 10
0.103553
 20
0.250000
 30
0.000000
  0
VERTEX
  8
0
 10
0.250000
 20
0.103553
 30
0.000000
  0
VERTEX
  8
0
 10
0.250000
 20
-0.103553
 30
0.000000
  0
VERTEX
  8
0
 10
0.103553
 20
-0.250000
 30
0.000000
  0
VERTEX
  8
0
 10
-0.103553
 20
-0.250000
 30
0.000000
  0
VERTEX
  8
0
 10
-0.250000
 20
-0.103553
 30
0.000000
  0
VERTEX
  8
0
 10
-0.250000
 20
0.103553
 30
0.000000
  0
SEQEND
  8
0
  0
ENDBLK
  8
0
  0
BLOCK
  8
0
  2
SQUAREV
 70
64
 10
0.000000
 20
0.000000
 30
0.000000
  3
SQUAREV
  0
SOLID
  8
0
 10
-0.500000
 20
-0.500000
 30
0.000000
 11
0.500000
 21
-0.500000
 31
0.000000
 12
-0.500000
 22
0.500000
 32
0.000000
 13
0.500000
 23
0.500000
 33
0.000000
  0
ENDBLK
  8
0
  0
BLOCK
  8
0
  2
ROUNDV
 70
64
 10
0.000000
 20
0.000000
 30
0.000000
  3
ROUNDV
  0
POLYLINE
  8
0
 66
1
 10
0.000000
 20
0.000000
 30
0.000000
 40
0.500000
 41
0.500000
 70
0
  0
VERTEX
  8
0
 10
0.000000
 20
-0.250000
 30
0.000000
 42
1.000000
  0
VERTEX
  8
0
 10
0.000000
 20
0.250000
 30
0.000000
 42
1.000000
  0
VERTEX
  8
0
 10
0.000000
 20
-0.250000
 30
0.000000
  0
SEQEND
  8
0
  0
ENDBLK
  8
0
  0
BLOCK
  8
0
  2
ANNULUSV
 70
64
 10
0.000000
 20
0.000000
 30
0.000000
  3
ANNULUSV
  0
POLYLINE
  8
0
 66
1
 10
0.000000
 20
0.000000
 30
0.000000
 40
0.500000
 41
0.500000
 70
0
  0
VERTEX
  8
0
 10
0.000000
 20
-0.250000
 30
0.000000
 42
1.000000
  0
VERTEX
  8
0
 10
0.000000
 20
0.250000
 30
0.000000
 42
1.000000
  0
VERTEX
  8
0
 10
0.000000
 20
-0.250000
 30
0.000000
  0
SEQEND
  8
0
  0
ENDBLK
  8
0
  0
BLOCK
  8
0
  2
THERMALV
 70
64
 10
0.000000
 20
0.000000
 30
0.000000
  3
THERMALV
  0
POLYLINE
  8
0
 66
1
 10
0.000000
 20
0.000000
 30
0.000000
 40
0.100000
 41
0.100000
 70
0
  0
VERTEX
  8
0
 10
-0.237868
 20
0.450000
 30
0.000000
  0
VERTEX
  8
0
 10
0.237868
 20
0.450000
 30
0.000000
  0
SEQEND
  8
0
  0
POLYLINE
  8
0
 66
1
 10
0.000000
 20
0.000000
 30
0.000000
 40
0.050000
 41
0.050000
 70
0
  0
VERTEX
  8
0
 10
0.237868
 20
0.425000
 30
0.000000
 42
1.000000
  0
VERTEX
  8
0
 10
0.237868
 20
0.475000
 30
0.000000
  0
SEQEND
  8
0
  0
POLYLINE
  8
0
 66
1
 10
0.000000
 20
0.000000
 30
0.000000
 40
0.050000
 41
0.050000
 70
0
  0
VERTEX
  8
0
 10
-0.237868
 20
0.475000
 30
0.000000
 42
1.000000
  0
VERTEX
  8
0
 10
-0.237868
 20
0.425000
 30
0.000000
  0
SEQEND
  8
0
  0
POLYLINE
  8
0
 66
1
 10
0.000000
 20
0.000000
 30
0.000000
 40
0.100000
 41
0.100000
 70
0
  0
VERTEX
  8
0
 10
0.450000
 20
0.237868
 30
0.000000
  0
VERTEX
  8
0
 10
0.450000
 20
-0.237868
 30
0.000000
  0
SEQEND
  8
0
  0
POLYLINE
  8
0
 66
1
 10
0.000000
 20
0.000000
 30
0.000000
 40
0.050000
 41
0.050000
 70
0
  0
VERTEX
  8
0
 10
0.425000
 20
-0.237868
 30
0.000000
 42
1.000000
  0
VERTEX
  8
0
 10
0.475000
 20
-0.237868
 30
0.000000
  0
SEQEND
  8
0
  0
POLYLINE
  8
0
 66
1
 10
0.000000
 20
0.000000
 30
0.000000
 40
0.050000
 41
0.050000
 70
0
  0
VERTEX
  8
0
 10
0.475000
 20
0.237868
 30
0.000000
 42
1.000000
  0
VERTEX
  8
0
 10
0.425000
 20
0.237868
 30
0.000000
  0
SEQEND
  8
0
  0
POLYLINE
  8
0
 66
1
 10
0.000000
 20
0.000000
 30
0.000000
 40
0.100000
 41
0.100000
 70
0
  0
VERTEX
  8
0
 10
0.237868
 20
-0.450000
 30
0.000000
  0
VERTEX
  8
0
 10
-0.237868
 20
-0.450000
 30
0.000000
  0
SEQEND
  8
0
  0
POLYLINE
  8
0
 66
1
 10
0.000000
 20
0.000000
 30
0.000000
 40
0.050000
 41
0.050000
 70
0
  0
VERTEX
  8
0
 10
-0.237868
 20
-0.425000
 30
0.000000
 42
1.000000
  0
VERTEX
  8
0
 10
-0.237868
 20
-0.475000
 30
0.000000
  0
SEQEND
  8
0
  0
POLYLINE
  8
0
 66
1
 10
0.000000
 20
0.000000
 30
0.000000
 40
0.050000
 41
0.050000
 70
0
  0
VERTEX
  8
0
 10
0.237868
 20
-0.475000
 30
0.000000
 42
1.000000
  0
VERTEX
  8
0
 10
0.237868
 20
-0.425000
 30
0.000000
  0
SEQEND
  8
0
  0
POLYLINE
  8
0
 66
1
 10
0.000000
 20
0.000000
 30
0.000000
 40
0.100000
 41
0.100000
 70
0
  0
VERTEX
  8
0
 10
-0.450000
 20
-0.237868
 30
0.000000
  0
VERTEX
  8
0
 10
-0.450000
 20
0.237868
 30
0.000000
  0
SEQEND
  8
0
  0
POLYLINE
  8
0
 66
1
 10
0.000000
 20
0.000000
 30
0.000000
 40
0.050000
 41
0.050000
 70
0
  0
VERTEX
  8
0
 10
-0.425000
 20
0.237868
 30
0.000000
 42
1.000000
  0
VERTEX
  8
0
 10
-0.475000
 20
0.237868
 30
0.000000
  0
SEQEND
  8
0
  0
POLYLINE
  8
0
 66
1
 10
0.000000
 20
0.000000
 30
0.000000
 40
0.050000
 41
0.050000
 70
0
  0
VERTEX
  8
0
 10
-0.475000
 20
-0.237868
 30
0.000000
 42
1.000000
  0
VERTEX
  8
0
 10
-0.425000
 20
-0.237868
 30
0.000000
  0
SEQEND
  8
0
  0
ENDBLK
  8
0
  0
BLOCK
  8
0
  2
LONGP100
 70
64
 10
0.000000
 20
0.000000
 30
0.000000
  3
LONGP100
  0
POLYLINE
  8
0
 66
1
 10
0.000000
 20
0.000000
 30
0.000000
 40
0.500000
 41
0.500000
 70
0
  0
VERTEX
  8
0
 10
-0.750000
 20
-0.103553
 30
0.000000
  0
VERTEX
  8
0
 10
-0.750000
 20
0.103553
 30
0.000000
  0
VERTEX
  8
0
 10
-0.603553
 20
0.250000
 30
0.000000
  0
VERTEX
  8
0
 10
0.603553
 20
0.250000
 30
0.000000
  0
VERTEX
  8
0
 10
0.750000
 20
0.103553
 30
0.000000
  0
VERTEX
  8
0
 10
0.750000
 20
-0.103553
 30
0.000000
  0
VERTEX
  8
0
 10
0.603553
 20
-0.250000
 30
0.000000
  0
VERTEX
  8
0
 10
-0.603553
 20
-0.250000
 30
0.000000
  0
VERTEX
  8
0
 10
-0.750000
 20
-0.103553
 30
0.000000
  0
VERTEX
  8
0
 10
-0.750000
 20
0.103553
 30
0.000000
  0
SEQEND
  8
0
  0
ENDBLK
  8
0
  0
ENDSEC
  0
SECTION
  2
ENTITIES
  0
INSERT
  8
1
  2
RECT
 10
1.005512
 20
0.825000
 30
0.000000
 41
0.118110
 42
0.055118
 43
1.000000
 50
180.000000
  0
INSERT
  8
1
  2
RECT
 10
1.194488
 20
0.825000
 30
0.000000
 41
0.118110
 42
0.055118
 43
1.000000
 50
180.000000
  0
INSERT
  8
1
  2
RECT
 10
0.750000
 20
0.764055
 30
0.000000
 41
0.059055
 42
0.114173
 43
1.000000
 50
270.000000
  0
INSERT
  8
1
  2
RECT
 10
0.750000
 20
0.645945
 30
0.000000
 41
0.059055
 42
0.114173
 43
1.000000
 50
270.000000
  0
INSERT
  8
1
  2
RECT
 10
0.180000
 20
0.205945
 30
0.000000
 41
0.059055
 42
0.114173
 43
1.000000
 50
90.000000
  0
INSERT
  8
1
  2
RECT
 10
0.180000
 20
0.324055
 30
0.000000
 41
0.059055
 42
0.114173
 43
1.000000
 50
90.000000
  0
INSERT
  8
1
  2
RECT
 10
0.470945
 20
0.965000
 30
0.000000
 41
0.059055
 42
0.114173
 43
1.000000
 50
0.000000
  0
INSERT
  8
1
  2
RECT
 10
0.589055
 20
0.965000
 30
0.000000
 41
0.059055
 42
0.114173
 43
1.000000
 50
0.000000
  0
INSERT
  8
1
  2
RECT
 10
0.260945
 20
0.965000
 30
0.000000
 41
0.059055
 42
0.114173
 43
1.000000
 50
0.000000
  0
INSERT
  8
1
  2
RECT
 10
0.379055
 20
0.965000
 30
0.000000
 41
0.059055
 42
0.114173
 43
1.000000
 50
0.000000
  0
INSERT
  8
1
  2
RECT
 10
0.180000
 20
0.824055
 30
0.000000
 41
0.059055
 42
0.114173
 43
1.000000
 50
270.000000
  0
INSERT
  8
1
  2
RECT
 10
0.180000
 20
0.705945
 30
0.000000
 41
0.059055
 42
0.114173
 43
1.000000
 50
270.000000
  0
INSERT
  8
1
  2
RECT
 10
0.180000
 20
0.604055
 30
0.000000
 41
0.059055
 42
0.114173
 43
1.000000
 50
270.000000
  0
INSERT
  8
1
  2
RECT
 10
0.180000
 20
0.485945
 30
0.000000
 41
0.059055
 42
0.114173
 43
1.000000
 50
270.000000
  0
INSERT
  8
17
  2
LONGP100
 10
0.320000
 20
0.195000
 30
0.000000
 41
0.060000
 42
0.060000
 43
1.000000
 50
90.000000
  0
INSERT
  8
17
  2
LONGP100
 10
0.420000
 20
0.195000
 30
0.000000
 41
0.060000
 42
0.060000
 43
1.000000
 50
90.000000
  0
INSERT
  8
17
  2
LONGP100
 10
0.520000
 20
0.195000
 30
0.000000
 41
0.060000
 42
0.060000
 43
1.000000
 50
90.000000
  0
INSERT
  8
17
  2
LONGP100
 10
1.395000
 20
1.035000
 30
0.000000
 41
0.060000
 42
0.060000
 43
1.000000
 50
270.000000
  0
INSERT
  8
17
  2
LONGP100
 10
1.295000
 20
1.035000
 30
0.000000
 41
0.060000
 42
0.060000
 43
1.000000
 50
270.000000
  0
INSERT
  8
17
  2
LONGP100
 10
1.195000
 20
1.035000
 30
0.000000
 41
0.060000
 42
0.060000
 43
1.000000
 50
270.000000
  0
INSERT
  8
17
  2
LONGP100
 10
1.095000
 20
1.035000
 30
0.000000
 41
0.060000
 42
0.060000
 43
1.000000
 50
270.000000
  0
INSERT
  8
17
  2
LONGP100
 10
1.240000
 20
0.215000
 30
0.000000
 41
0.060000
 42
0.060000
 43
1.000000
 50
180.000000
  0
INSERT
  8
17
  2
LONGP100
 10
1.240000
 20
0.315000
 30
0.000000
 41
0.060000
 42
0.060000
 43
1.000000
 50
180.000000
  0
INSERT
  8
17
  2
LONGP100
 10
1.240000
 20
0.415000
 30
0.000000
 41
0.060000
 42
0.060000
 43
1.000000
 50
180.000000
  0
INSERT
  8
1
  2
RECT
 10
0.915000
 20
0.467362
 30
0.000000
 41
0.023622
 42
0.086614
 43
1.000000
 50
180.000000
  0
INSERT
  8
1
  2
RECT
 10
0.865000
 20
0.467362
 30
0.000000
 41
0.023622
 42
0.086614
 43
1.000000
 50
180.000000
  0
INSERT
  8
1
  2
RECT
 10
0.815000
 20
0.467362
 30
0.000000
 41
0.023622
 42
0.086614
 43
1.000000
 50
180.000000
  0
INSERT
  8
1
  2
RECT
 10
0.765000
 20
0.467362
 30
0.000000
 41
0.023622
 42
0.086614
 43
1.000000
 50
180.000000
  0
INSERT
  8
1
  2
RECT
 10
0.765000
 20
0.262638
 30
0.000000
 41
0.023622
 42
0.086614
 43
1.000000
 50
180.000000
  0
INSERT
  8
1
  2
RECT
 10
0.815000
 20
0.262638
 30
0.000000
 41
0.023622
 42
0.086614
 43
1.000000
 50
180.000000
  0
INSERT
  8
1
  2
RECT
 10
0.865000
 20
0.262638
 30
0.000000
 41
0.023622
 42
0.086614
 43
1.000000
 50
180.000000
  0
INSERT
  8
1
  2
RECT
 10
0.915000
 20
0.262638
 30
0.000000
 41
0.023622
 42
0.086614
 43
1.000000
 50
180.000000
  0
INSERT
  8
17
  2
OCTAGONP
 10
1.070000
 20
0.655000
 30
0.000000
 41
0.056000
 42
0.056000
 43
1.000000
 50
270.000000
  0
INSERT
  8
17
  2
OCTAGONP
 10
1.070000
 20
0.055000
 30
0.000000
 41
0.056000
 42
0.056000
 43
1.000000
 50
270.000000
  0
INSERT
  8
1
  2
RECT
 10
0.377638
 20
0.690000
 30
0.000000
 41
0.023622
 42
0.086614
 43
1.000000
 50
270.000000
  0
INSERT
  8
1
  2
RECT
 10
0.377638
 20
0.640000
 30
0.000000
 41
0.023622
 42
0.086614
 43
1.000000
 50
270.000000
  0
INSERT
  8
1
  2
RECT
 10
0.377638
 20
0.590000
 30
0.000000
 41
0.023622
 42
0.086614
 43
1.000000
 50
270.000000
  0
INSERT
  8
1
  2
RECT
 10
0.377638
 20
0.540000
 30
0.000000
 41
0.023622
 42
0.086614
 43
1.000000
 50
270.000000
  0
INSERT
  8
1
  2
RECT
 10
0.377638
 20
0.490000
 30
0.000000
 41
0.023622
 42
0.086614
 43
1.000000
 50
270.000000
  0
INSERT
  8
1
  2
RECT
 10
0.377638
 20
0.440000
 30
0.000000
 41
0.023622
 42
0.086614
 43
1.000000
 50
270.000000
  0
INSERT
  8
1
  2
RECT
 10
0.377638
 20
0.390000
 30
0.000000
 41
0.023622
 42
0.086614
 43
1.000000
 50
270.000000
  0
INSERT
  8
1
  2
RECT
 10
0.377638
 20
0.340000
 30
0.000000
 41
0.023622
 42
0.086614
 43
1.000000
 50
270.000000
  0
INSERT
  8
1
  2
RECT
 10
0.582362
 20
0.340000
 30
0.000000
 41
0.023622
 42
0.086614
 43
1.000000
 50
270.000000
  0
INSERT
  8
1
  2
RECT
 10
0.582362
 20
0.390000
 30
0.000000
 41
0.023622
 42
0.086614
 43
1.000000
 50
270.000000
  0
INSERT
  8
1
  2
RECT
 10
0.582362
 20
0.440000
 30
0.000000
 41
0.023622
 42
0.086614
 43
1.000000
 50
270.000000
  0
INSERT
  8
1
  2
RECT
 10
0.582362
 20
0.490000
 30
0.000000
 41
0.023622
 42
0.086614
 43
1.000000
 50
270.000000
  0
INSERT
  8
1
  2
RECT
 10
0.582362
 20
0.540000
 30
0.000000
 41
0.023622
 42
0.086614
 43
1.000000
 50
270.000000
  0
INSERT
  8
1
  2
RECT
 10
0.582362
 20
0.590000
 30
0.000000
 41
0.023622
 42
0.086614
 43
1.000000
 50
270.000000
  0
INSERT
  8
1
  2
RECT
 10
0.582362
 20
0.640000
 30
0.000000
 41
0.023622
 42
0.086614
 43
1.000000
 50
270.000000
  0
INSERT
  8
1
  2
RECT
 10
0.582362
 20
0.690000
 30
0.000000
 41
0.023622
 42
0.086614
 43
1.000000
 50
270.000000
  0
POLYLINE
  8
29
 66
1
 10
0.000000
 20
0.000000
 30
0.000000
 40
0.066992
 41
0.066992
 70
0
  0
VERTEX
  8
29
 10
0.180000
 20
1.286504
 30
0.000000
 42
1.000000
  0
VERTEX
  8
29
 10
0.180000
 20
1.353496
 30
0.000000
 42
1.000000
  0
VERTEX
  8
29
 10
0.180000
 20
1.286504
 30
0.000000
  0
SEQEND
  8
0
  0
POLYLINE
  8
30
 66
1
 10
0.000000
 20
0.000000
 30
0.000000
 40
0.066992
 41
0.066992
 70
0
  0
VERTEX
  8
30
 10
0.180000
 20
1.286504
 30
0.000000
 42
1.000000
  0
VERTEX
  8
30
 10
0.180000
 20
1.353496
 30
0.000000
 42
1.000000
  0
VERTEX
  8
30
 10
0.180000
 20
1.286504
 30
0.000000
  0
SEQEND
  8
0
  0
POLYLINE
  8
29
 66
1
 10
0.000000
 20
0.000000
 30
0.000000
 40
0.066992
 41
0.066992
 70
0
  0
VERTEX
  8
29
 10
1.190000
 20
1.286504
 30
0.000000
 42
1.000000
  0
VERTEX
  8
29
 10
1.190000
 20
1.353496
 30
0.000000
 42
1.000000
  0
VERTEX
  8
29
 10
1.190000
 20
1.286504
 30
0.000000
  0
SEQEND
  8
0
  0
POLYLINE
  8
30
 66
1
 10
0.000000
 20
0.000000
 30
0.000000
 40
0.066992
 41
0.066992
 70
0
  0
VERTEX
  8
30
 10
1.190000
 20
1.286504
 30
0.000000
 42
1.000000
  0
VERTEX
  8
30
 10
1.190000
 20
1.353496
 30
0.000000
 42
1.000000
  0
VERTEX
  8
30
 10
1.190000
 20
1.286504
 30
0.000000
  0
SEQEND
  8
0
  0
INSERT
  8
1
  2
RECT
 10
0.739008
 20
0.878016
 30
0.000000
 41
0.086000
 42
0.042000
 43
1.000000
 50
90.000000
  0
INSERT
  8
1
  2
RECT
 10
0.830008
 20
0.878000
 30
0.000000
 41
0.086000
 42
0.042000
 43
1.000000
 50
90.000000
  0
INSERT
  8
1
  2
RECT
 10
0.921008
 20
0.877984
 30
0.000000
 41
0.086000
 42
0.042000
 43
1.000000
 50
90.000000
  0
INSERT
  8
1
  2
RECT
 10
0.830000
 20
1.149008
 30
0.000000
 41
0.137795
 42
0.055118
 43
1.000000
 50
0.000000
  0
POLYLINE
  8
1
 66
1
 10
0.000000
 20
0.000000
 30
0.000000
 40
0.024000
 41
0.024000
 70
0
  0
VERTEX
  8
1
 10
0.370000
 20
0.965000
 30
0.000000
  0
VERTEX
  8
1
 10
0.470945
 20
0.965000
 30
0.000000
  0
SEQEND
  8
0
  0
POLYLINE
  8
1
 66
1
 10
0.000000
 20
0.000000
 30
0.000000
 40
0.012000
 41
0.012000
 70
0
  0
VERTEX
  8
1
 10
0.470945
 20
0.959000
 30
0.000000
 42
1.000000
  0
VERTEX
  8
1
 10
0.470945
 20
0.971000
 30
0.000000
  0
SEQEND
  8
0
  0
POLYLINE
  8
1
 66
1
 10
0.000000
 20
0.000000
 30
0.000000
 40
0.012000
 41
0.012000
 70
0
  0
VERTEX
  8
1
 10
0.370000
 20
0.971000
 30
0.000000
 42
1.000000
  0
VERTEX
  8
1
 10
0.370000
 20
0.959000
 30
0.000000
  0
SEQEND
  8
0
  0
POLYLINE
  8
1
 66
1
 10
0.000000
 20
0.000000
 30
0.000000
 40
0.024000
 41
0.024000
 70
0
  0
VERTEX
  8
1
 10
0.370000
 20
0.965000
 30
0.000000
  0
VERTEX
  8
1
 10
0.379055
 20
0.965000
 30
0.000000
  0
SEQEND
  8
0
  0
POLYLINE
  8
1
 66
1
 10
0.000000
 20
0.000000
 30
0.000000
 40
0.012000
 41
0.012000
 70
0
  0
VERTEX
  8
1
 10
0.379055
 20
0.959000
 30
0.000000
 42
1.000000
  0
VERTEX
  8
1
 10
0.379055
 20
0.971000
 30
0.000000
  0
SEQEND
  8
0
  0
POLYLINE
  8
1
 66
1
 10
0.000000
 20
0.000000
 30
0.000000
 40
0.012000
 41
0.012000
 70
0
  0
VERTEX
  8
1
 10
0.370000
 20
0.971000
 30
0.000000
 42
1.000000
  0
VERTEX
  8
1
 10
0.370000
 20
0.959000
 30
0.000000
  0
SEQEND
  8
0
  0
POLYLINE
  8
1
 66
1
 10
0.000000
 20
0.000000
 30
0.000000
 40
0.024000
 41
0.024000
 70
0
  0
VERTEX
  8
1
 10
0.470945
 20
0.965000
 30
0.000000
  0
VERTEX
  8
1
 10
0.475000
 20
0.960945
 30
0.000000
  0
SEQEND
  8
0
  0
POLYLINE
  8
1
 66
1
 10
0.000000
 20
0.000000
 30
0.000000
 40
0.012000
 41
0.012000
 70
0
  0
VERTEX
  8
1
 10
0.470757
 20
0.956702
 30
0.000000
 42
1.000000
  0
VERTEX
  8
1
 10
0.479243
 20
0.965188
 30
0.000000
  0
SEQEND
  8
0
  0
POLYLINE
  8
1
 66
1
 10
0.000000
 20
0.000000
 30
0.000000
 40
0.012000
 41
0.012000
 70
0
  0
VERTEX
  8
1
 10
0.475188
 20
0.969243
 30
0.000000
 42
1.000000
  0
VERTEX
  8
1
 10
0.466702
 20
0.960757
 30
0.000000
  0
SEQEND
  8
0
  0
POLYLINE
  8
1
 66
1
 10
0.000000
 20
0.000000
 30
0.000000
 40
0.024000
 41
0.024000
 70
0
  0
VERTEX
  8
1
 10
0.475000
 20
0.805000
 30
0.000000
  0
VERTEX
  8
1
 10
0.475000
 20
0.960945
 30
0.000000
  0
SEQEND
  8
0
  0
POLYLINE
  8
1
 66
1
 10
0.000000
 20
0.000000
 30
0.000000
 40
0.012000
 41
0.012000
 70
0
  0
VERTEX
  8
1
 10
0.481000
 20
0.960945
 30
0.000000
 42
1.000000
  0
VERTEX
  8
1
 10
0.469000
 20
0.960945
 30
0.000000
  0
SEQEND
  8
0
  0
POLYLINE
  8
1
 66
1
 10
0.000000
 20
0.000000
 30
0.000000
 40
0.012000
 41
0.012000
 70
0
  0
VERTEX
  8
1
 10
0.469000
 20
0.805000
 30
0.000000
 42
1.000000
  0
VERTEX
  8
1
 10
0.481000
 20
0.805000
 30
0.000000
  0
SEQEND
  8
0
  0
POLYLINE
  8
1
 66
1
 10
0.000000
 20
0.000000
 30
0.000000
 40
0.024000
 41
0.024000
 70
0
  0
VERTEX
  8
1
 10
0.920000
 20
0.876976
 30
0.000000
  0
VERTEX
  8
1
 10
0.921008
 20
0.877984
 30
0.000000
  0
SEQEND
  8
0
  0
POLYLINE
  8
1
 66
1
 10
0.000000
 20
0.000000
 30
0.000000
 40
0.012000
 41
0.012000
 70
0
  0
VERTEX
  8
1
 10
0.925251
 20
0.873742
 30
0.000000
 42
1.000000
  0
VERTEX
  8
1
 10
0.916765
 20
0.882227
 30
0.000000
  0
SEQEND
  8
0
  0
POLYLINE
  8
1
 66
1
 10
0.000000
 20
0.000000
 30
0.000000
 40
0.012000
 41
0.012000
 70
0
  0
VERTEX
  8
1
 10
0.915757
 20
0.881219
 30
0.000000
 42
1.000000
  0
VERTEX
  8
1
 10
0.924243
 20
0.872734
 30
0.000000
  0
SEQEND
  8
0
  0
POLYLINE
  8
1
 66
1
 10
0.000000
 20
0.000000
 30
0.000000
 40
0.024000
 41
0.024000
 70
0
  0
VERTEX
  8
1
 10
0.920000
 20
0.825000
 30
0.000000
  0
VERTEX
  8
1
 10
0.920000
 20
0.876976
 30
0.000000
  0
SEQEND
  8
0
  0
POLYLINE
  8
1
 66
1
 10
0.000000
 20
0.000000
 30
0.000000
 40
0.012000
 41
0.012000
 70
0
  0
VERTEX
  8
1
 10
0.926000
 20
0.876976
 30
0.000000
 42
1.000000
  0
VERTEX
  8
1
 10
0.914000
 20
0.876976
 30
0.000000
  0
SEQEND
  8
0
  0
POLYLINE
  8
1
 66
1
 10
0.000000
 20
0.000000
 30
0.000000
 40
0.012000
 41
0.012000
 70
0
  0
VERTEX
  8
1
 10
0.914000
 20
0.825000
 30
0.000000
 42
1.000000
  0
VERTEX
  8
1
 10
0.926000
 20
0.825000
 30
0.000000
  0
SEQEND
  8
0
  0
POLYLINE
  8
1
 66
1
 10
0.000000
 20
0.000000
 30
0.000000
 40
0.024000
 41
0.024000
 70
0
  0
VERTEX
  8
1
 10
0.580000
 20
0.692362
 30
0.000000
  0
VERTEX
  8
1
 10
0.582362
 20
0.690000
 30
0.000000
  0
SEQEND
  8
0
  0
POLYLINE
  8
1
 66
1
 10
0.000000
 20
0.000000
 30
0.000000
 40
0.012000
 41
0.012000
 70
0
  0
VERTEX
  8
1
 10
0.578120
 20
0.685757
 30
0.000000
 42
1.000000
  0
VERTEX
  8
1
 10
0.586605
 20
0.694243
 30
0.000000
  0
SEQEND
  8
0
  0
POLYLINE
  8
1
 66
1
 10
0.000000
 20
0.000000
 30
0.000000
 40
0.012000
 41
0.012000
 70
0
  0
VERTEX
  8
1
 10
0.584243
 20
0.696605
 30
0.000000
 42
1.000000
  0
VERTEX
  8
1
 10
0.575757
 20
0.688120
 30
0.000000
  0
SEQEND
  8
0
  0
POLYLINE
  8
1
 66
1
 10
0.000000
 20
0.000000
 30
0.000000
 40
0.024000
 41
0.024000
 70
0
  0
VERTEX
  8
1
 10
0.580000
 20
0.700000
 30
0.000000
  0
VERTEX
  8
1
 10
0.580000
 20
0.692362
 30
0.000000
  0
SEQEND
  8
0
  0
POLYLINE
  8
1
 66
1
 10
0.000000
 20
0.000000
 30
0.000000
 40
0.012000
 41
0.012000
 70
0
  0
VERTEX
  8
1
 10
0.574000
 20
0.692362
 30
0.000000
 42
1.000000
  0
VERTEX
  8
1
 10
0.586000
 20
0.692362
 30
0.000000
  0
SEQEND
  8
0
  0
POLYLINE
  8
1
 66
1
 10
0.000000
 20
0.000000
 30
0.000000
 40
0.012000
 41
0.012000
 70
0
  0
VERTEX
  8
1
 10
0.586000
 20
0.700000
 30
0.000000
 42
1.000000
  0
VERTEX
  8
1
 10
0.574000
 20
0.700000
 30
0.000000
  0
SEQEND
  8
0
  0
POLYLINE
  8
1
 66
1
 10
0.000000
 20
0.000000
 30
0.000000
 40
0.024000
 41
0.024000
 70
0
  0
VERTEX
  8
1
 10
0.475000
 20
0.805000
 30
0.000000
  0
VERTEX
  8
1
 10
0.580000
 20
0.700000
 30
0.000000
  0
SEQEND
  8
0
  0
POLYLINE
  8
1
 66
1
 10
0.000000
 20
0.000000
 30
0.000000
 40
0.012000
 41
0.012000
 70
0
  0
VERTEX
  8
1
 10
0.575757
 20
0.695757
 30
0.000000
 42
1.000000
  0
VERTEX
  8
1
 10
0.584243
 20
0.704243
 30
0.000000
  0
SEQEND
  8
0
  0
POLYLINE
  8
1
 66
1
 10
0.000000
 20
0.000000
 30
0.000000
 40
0.012000
 41
0.012000
 70
0
  0
VERTEX
  8
1
 10
0.479243
 20
0.809243
 30
0.000000
 42
1.000000
  0
VERTEX
  8
1
 10
0.470757
 20
0.800757
 30
0.000000
  0
SEQEND
  8
0
  0
POLYLINE
  8
1
 66
1
 10
0.000000
 20
0.000000
 30
0.000000
 40
0.024000
 41
0.024000
 70
0
  0
VERTEX
  8
1
 10
0.475000
 20
0.965000
 30
0.000000
  0
VERTEX
  8
1
 10
0.475000
 20
0.805000
 30
0.000000
  0
SEQEND
  8
0
  0
POLYLINE
  8
1
 66
1
 10
0.000000
 20
0.000000
 30
0.000000
 40
0.012000
 41
0.012000
 70
0
  0
VERTEX
  8
1
 10
0.469000
 20
0.805000
 30
0.000000
 42
1.000000
  0
VERTEX
  8
1
 10
0.481000
 20
0.805000
 30
0.000000
  0
SEQEND
  8
0
  0
POLYLINE
  8
1
 66
1
 10
0.000000
 20
0.000000
 30
0.000000
 40
0.012000
 41
0.012000
 70
0
  0
VERTEX
  8
1
 10
0.481000
 20
0.965000
 30
0.000000
 42
1.000000
  0
VERTEX
  8
1
 10
0.469000
 20
0.965000
 30
0.000000
  0
SEQEND
  8
0
  0
POLYLINE
  8
1
 66
1
 10
0.000000
 20
0.000000
 30
0.000000
 40
0.024000
 41
0.024000
 70
0
  0
VERTEX
  8
1
 10
0.370000
 20
0.965000
 30
0.000000
  0
VERTEX
  8
1
 10
0.475000
 20
0.965000
 30
0.000000
  0
SEQEND
  8
0
  0
POLYLINE
  8
1
 66
1
 10
0.000000
 20
0.000000
 30
0.000000
 40
0.012000
 41
0.012000
 70
0
  0
VERTEX
  8
1
 10
0.475000
 20
0.959000
 30
0.000000
 42
1.000000
  0
VERTEX
  8
1
 10
0.475000
 20
0.971000
 30
0.000000
  0
SEQEND
  8
0
  0
POLYLINE
  8
1
 66
1
 10
0.000000
 20
0.000000
 30
0.000000
 40
0.012000
 41
0.012000
 70
0
  0
VERTEX
  8
1
 10
0.370000
 20
0.971000
 30
0.000000
 42
1.000000
  0
VERTEX
  8
1
 10
0.370000
 20
0.959000
 30
0.000000
  0
SEQEND
  8
0
  0
POLYLINE
  8
1
 66
1
 10
0.000000
 20
0.000000
 30
0.000000
 40
0.024000
 41
0.024000
 70
0
  0
VERTEX
  8
1
 10
0.365000
 20
0.970000
 30
0.000000
  0
VERTEX
  8
1
 10
0.370000
 20
0.965000
 30
0.000000
  0
SEQEND
  8
0
  0
POLYLINE
  8
1
 66
1
 10
0.000000
 20
0.000000
 30
0.000000
 40
0.012000
 41
0.012000
 70
0
  0
VERTEX
  8
1
 10
0.365757
 20
0.960757
 30
0.000000
 42
1.000000
  0
VERTEX
  8
1
 10
0.374243
 20
0.969243
 30
0.000000
  0
SEQEND
  8
0
  0
POLYLINE
  8
1
 66
1
 10
0.000000
 20
0.000000
 30
0.000000
 40
0.012000
 41
0.012000
 70
0
  0
VERTEX
  8
1
 10
0.369243
 20
0.974243
 30
0.000000
 42
1.000000
  0
VERTEX
  8
1
 10
0.360757
 20
0.965757
 30
0.000000
  0
SEQEND
  8
0
  0
POLYLINE
  8
1
 66
1
 10
0.000000
 20
0.000000
 30
0.000000
 40
0.024000
 41
0.024000
 70
0
  0
VERTEX
  8
1
 10
0.365000
 20
1.030000
 30
0.000000
  0
VERTEX
  8
1
 10
0.365000
 20
0.970000
 30
0.000000
  0
SEQEND
  8
0
  0
POLYLINE
  8
1
 66
1
 10
0.000000
 20
0.000000
 30
0.000000
 40
0.012000
 41
0.012000
 70
0
  0
VERTEX
  8
1
 10
0.359000
 20
0.970000
 30
0.000000
 42
1.000000
  0
VERTEX
  8
1
 10
0.371000
 20
0.970000
 30
0.000000
  0
SEQEND
  8
0
  0
POLYLINE
  8
1
 66
1
 10
0.000000
 20
0.000000
 30
0.000000
 40
0.012000
 41
0.012000
 70
0
  0
VERTEX
  8
1
 10
0.371000
 20
1.030000
 30
0.000000
 42
1.000000
  0
VERTEX
  8
1
 10
0.359000
 20
1.030000
 30
0.000000
  0
SEQEND
  8
0
  0
POLYLINE
  8
1
 66
1
 10
0.000000
 20
0.000000
 30
0.000000
 40
0.024000
 41
0.024000
 70
0
  0
VERTEX
  8
1
 10
0.325000
 20
1.070000
 30
0.000000
  0
VERTEX
  8
1
 10
0.365000
 20
1.030000
 30
0.000000
  0
SEQEND
  8
0
  0
POLYLINE
  8
1
 66
1
 10
0.000000
 20
0.000000
 30
0.000000
 40
0.012000
 41
0.012000
 70
0
  0
VERTEX
  8
1
 10
0.360757
 20
1.025757
 30
0.000000
 42
1.000000
  0
VERTEX
  8
1
 10
0.369243
 20
1.034243
 30
0.000000
  0
SEQEND
  8
0
  0
POLYLINE
  8
1
 66
1
 10
0.000000
 20
0.000000
 30
0.000000
 40
0.012000
 41
0.012000
 70
0
  0
VERTEX
  8
1
 10
0.329243
 20
1.074243
 30
0.000000
 42
1.000000
  0
VERTEX
  8
1
 10
0.320757
 20
1.065757
 30
0.000000
  0
SEQEND
  8
0
  0
POLYLINE
  8
1
 66
1
 10
0.000000
 20
0.000000
 30
0.000000
 40
0.024000
 41
0.024000
 70
0
  0
VERTEX
  8
1
 10
0.150000
 20
1.070000
 30
0.000000
  0
VERTEX
  8
1
 10
0.325000
 20
1.070000
 30
0.000000
  0
SEQEND
  8
0
  0
POLYLINE
  8
1
 66
1
 10
0.000000
 20
0.000000
 30
0.000000
 40
0.012000
 41
0.012000
 70
0
  0
VERTEX
  8
1
 10
0.325000
 20
1.064000
 30
0.000000
 42
1.000000
  0
VERTEX
  8
1
 10
0.325000
 20
1.076000
 30
0.000000
  0
SEQEND
  8
0
  0
POLYLINE
  8
1
 66
1
 10
0.000000
 20
0.000000
 30
0.000000
 40
0.012000
 41
0.012000
 70
0
  0
VERTEX
  8
1
 10
0.150000
 20
1.076000
 30
0.000000
 42
1.000000
  0
VERTEX
  8
1
 10
0.150000
 20
1.064000
 30
0.000000
  0
SEQEND
  8
0
  0
POLYLINE
  8
1
 66
1
 10
0.000000
 20
0.000000
 30
0.000000
 40
0.024000
 41
0.024000
 70
0
  0
VERTEX
  8
1
 10
0.070000
 20
0.990000
 30
0.000000
  0
VERTEX
  8
1
 10
0.150000
 20
1.070000
 30
0.000000
  0
SEQEND
  8
0
  0
POLYLINE
  8
1
 66
1
 10
0.000000
 20
0.000000
 30
0.000000
 40
0.012000
 41
0.012000
 70
0
  0
VERTEX
  8
1
 10
0.154243
 20
1.065757
 30
0.000000
 42
1.000000
  0
VERTEX
  8
1
 10
0.145757
 20
1.074243
 30
0.000000
  0
SEQEND
  8
0
  0
POLYLINE
  8
1
 66
1
 10
0.000000
 20
0.000000
 30
0.000000
 40
0.012000
 41
0.012000
 70
0
  0
VERTEX
  8
1
 10
0.065757
 20
0.994243
 30
0.000000
 42
1.000000
  0
VERTEX
  8
1
 10
0.074243
 20
0.985757
 30
0.000000
  0
SEQEND
  8
0
  0
POLYLINE
  8
1
 66
1
 10
0.000000
 20
0.000000
 30
0.000000
 40
0.024000
 41
0.024000
 70
0
  0
VERTEX
  8
1
 10
0.070000
 20
0.165000
 30
0.000000
  0
VERTEX
  8
1
 10
0.070000
 20
0.990000
 30
0.000000
  0
SEQEND
  8
0
  0
POLYLINE
  8
1
 66
1
 10
0.000000
 20
0.000000
 30
0.000000
 40
0.012000
 41
0.012000
 70
0
  0
VERTEX
  8
1
 10
0.076000
 20
0.990000
 30
0.000000
 42
1.000000
  0
VERTEX
  8
1
 10
0.064000
 20
0.990000
 30
0.000000
  0
SEQEND
  8
0
  0
POLYLINE
  8
1
 66
1
 10
0.000000
 20
0.000000
 30
0.000000
 40
0.012000
 41
0.012000
 70
0
  0
VERTEX
  8
1
 10
0.064000
 20
0.165000
 30
0.000000
 42
1.000000
  0
VERTEX
  8
1
 10
0.076000
 20
0.165000
 30
0.000000
  0
SEQEND
  8
0
  0
POLYLINE
  8
1
 66
1
 10
0.000000
 20
0.000000
 30
0.000000
 40
0.024000
 41
0.024000
 70
0
  0
VERTEX
  8
1
 10
0.195000
 20
0.040000
 30
0.000000
  0
VERTEX
  8
1
 10
0.070000
 20
0.165000
 30
0.000000
  0
SEQEND
  8
0
  0
POLYLINE
  8
1
 66
1
 10
0.000000
 20
0.000000
 30
0.000000
 40
0.012000
 41
0.012000
 70
0
  0
VERTEX
  8
1
 10
0.074243
 20
0.169243
 30
0.000000
 42
1.000000
  0
VERTEX
  8
1
 10
0.065757
 20
0.160757
 30
0.000000
  0
SEQEND
  8
0
  0
POLYLINE
  8
1
 66
1
 10
0.000000
 20
0.000000
 30
0.000000
 40
0.012000
 41
0.012000
 70
0
  0
VERTEX
  8
1
 10
0.190757
 20
0.035757
 30
0.000000
 42
1.000000
  0
VERTEX
  8
1
 10
0.199243
 20
0.044243
 30
0.000000
  0
SEQEND
  8
0
  0
POLYLINE
  8
1
 66
1
 10
0.000000
 20
0.000000
 30
0.000000
 40
0.024000
 41
0.024000
 70
0
  0
VERTEX
  8
1
 10
0.195000
 20
0.040000
 30
0.000000
  0
VERTEX
  8
1
 10
0.750000
 20
0.040000
 30
0.000000
  0
SEQEND
  8
0
  0
POLYLINE
  8
1
 66
1
 10
0.000000
 20
0.000000
 30
0.000000
 40
0.012000
 41
0.012000
 70
0
  0
VERTEX
  8
1
 10
0.750000
 20
0.034000
 30
0.000000
 42
1.000000
  0
VERTEX
  8
1
 10
0.750000
 20
0.046000
 30
0.000000
  0
SEQEND
  8
0
  0
POLYLINE
  8
1
 66
1
 10
0.000000
 20
0.000000
 30
0.000000
 40
0.012000
 41
0.012000
 70
0
  0
VERTEX
  8
1
 10
0.195000
 20
0.046000
 30
0.000000
 42
1.000000
  0
VERTEX
  8
1
 10
0.195000
 20
0.034000
 30
0.000000
  0
SEQEND
  8
0
  0
POLYLINE
  8
1
 66
1
 10
0.000000
 20
0.000000
 30
0.000000
 40
0.024000
 41
0.024000
 70
0
  0
VERTEX
  8
1
 10
0.750000
 20
0.040000
 30
0.000000
  0
VERTEX
  8
1
 10
0.865000
 20
0.155000
 30
0.000000
  0
SEQEND
  8
0
  0
POLYLINE
  8
1
 66
1
 10
0.000000
 20
0.000000
 30
0.000000
 40
0.012000
 41
0.012000
 70
0
  0
VERTEX
  8
1
 10
0.869243
 20
0.150757
 30
0.000000
 42
1.000000
  0
VERTEX
  8
1
 10
0.860757
 20
0.159243
 30
0.000000
  0
SEQEND
  8
0
  0
POLYLINE
  8
1
 66
1
 10
0.000000
 20
0.000000
 30
0.000000
 40
0.012000
 41
0.012000
 70
0
  0
VERTEX
  8
1
 10
0.745757
 20
0.044243
 30
0.000000
 42
1.000000
  0
VERTEX
  8
1
 10
0.754243
 20
0.035757
 30
0.000000
  0
SEQEND
  8
0
  0
POLYLINE
  8
1
 66
1
 10
0.000000
 20
0.000000
 30
0.000000
 40
0.024000
 41
0.024000
 70
0
  0
VERTEX
  8
1
 10
0.865000
 20
0.155000
 30
0.000000
  0
VERTEX
  8
1
 10
0.865000
 20
0.262638
 30
0.000000
  0
SEQEND
  8
0
  0
POLYLINE
  8
1
 66
1
 10
0.000000
 20
0.000000
 30
0.000000
 40
0.012000
 41
0.012000
 70
0
  0
VERTEX
  8
1
 10
0.871000
 20
0.262638
 30
0.000000
 42
1.000000
  0
VERTEX
  8
1
 10
0.859000
 20
0.262638
 30
0.000000
  0
SEQEND
  8
0
  0
POLYLINE
  8
1
 66
1
 10
0.000000
 20
0.000000
 30
0.000000
 40
0.012000
 41
0.012000
 70
0
  0
VERTEX
  8
1
 10
0.859000
 20
0.155000
 30
0.000000
 42
1.000000
  0
VERTEX
  8
1
 10
0.871000
 20
0.155000
 30
0.000000
  0
SEQEND
  8
0
  0
POLYLINE
  8
1
 66
1
 10
0.000000
 20
0.000000
 30
0.000000
 40
0.024000
 41
0.024000
 70
0
  0
VERTEX
  8
1
 10
0.580000
 20
0.700000
 30
0.000000
  0
VERTEX
  8
1
 10
0.580000
 20
0.705000
 30
0.000000
  0
SEQEND
  8
0
  0
POLYLINE
  8
1
 66
1
 10
0.000000
 20
0.000000
 30
0.000000
 40
0.012000
 41
0.012000
 70
0
  0
VERTEX
  8
1
 10
0.586000
 20
0.705000
 30
0.000000
 42
1.000000
  0
VERTEX
  8
1
 10
0.574000
 20
0.705000
 30
0.000000
  0
SEQEND
  8
0
  0
POLYLINE
  8
1
 66
1
 10
0.000000
 20
0.000000
 30
0.000000
 40
0.012000
 41
0.012000
 70
0
  0
VERTEX
  8
1
 10
0.574000
 20
0.700000
 30
0.000000
 42
1.000000
  0
VERTEX
  8
1
 10
0.586000
 20
0.700000
 30
0.000000
  0
SEQEND
  8
0
  0
POLYLINE
  8
1
 66
1
 10
0.000000
 20
0.000000
 30
0.000000
 40
0.024000
 41
0.024000
 70
0
  0
VERTEX
  8
1
 10
0.580000
 20
0.705000
 30
0.000000
  0
VERTEX
  8
1
 10
0.840000
 20
0.705000
 30
0.000000
  0
SEQEND
  8
0
  0
POLYLINE
  8
1
 66
1
 10
0.000000
 20
0.000000
 30
0.000000
 40
0.012000
 41
0.012000
 70
0
  0
VERTEX
  8
1
 10
0.840000
 20
0.699000
 30
0.000000
 42
1.000000
  0
VERTEX
  8
1
 10
0.840000
 20
0.711000
 30
0.000000
  0
SEQEND
  8
0
  0
POLYLINE
  8
1
 66
1
 10
0.000000
 20
0.000000
 30
0.000000
 40
0.012000
 41
0.012000
 70
0
  0
VERTEX
  8
1
 10
0.580000
 20
0.711000
 30
0.000000
 42
1.000000
  0
VERTEX
  8
1
 10
0.580000
 20
0.699000
 30
0.000000
  0
SEQEND
  8
0
  0
POLYLINE
  8
1
 66
1
 10
0.000000
 20
0.000000
 30
0.000000
 40
0.024000
 41
0.024000
 70
0
  0
VERTEX
  8
1
 10
0.840000
 20
0.705000
 30
0.000000
  0
VERTEX
  8
1
 10
0.950000
 20
0.815000
 30
0.000000
  0
SEQEND
  8
0
  0
POLYLINE
  8
1
 66
1
 10
0.000000
 20
0.000000
 30
0.000000
 40
0.012000
 41
0.012000
 70
0
  0
VERTEX
  8
1
 10
0.954243
 20
0.810757
 30
0.000000
 42
1.000000
  0
VERTEX
  8
1
 10
0.945757
 20
0.819243
 30
0.000000
  0
SEQEND
  8
0
  0
POLYLINE
  8
1
 66
1
 10
0.000000
 20
0.000000
 30
0.000000
 40
0.012000
 41
0.012000
 70
0
  0
VERTEX
  8
1
 10
0.835757
 20
0.709243
 30
0.000000
 42
1.000000
  0
VERTEX
  8
1
 10
0.844243
 20
0.700757
 30
0.000000
  0
SEQEND
  8
0
  0
POLYLINE
  8
1
 66
1
 10
0.000000
 20
0.000000
 30
0.000000
 40
0.024000
 41
0.024000
 70
0
  0
VERTEX
  8
1
 10
0.950000
 20
0.815000
 30
0.000000
  0
VERTEX
  8
1
 10
0.980000
 20
0.815000
 30
0.000000
  0
SEQEND
  8
0
  0
POLYLINE
  8
1
 66
1
 10
0.000000
 20
0.000000
 30
0.000000
 40
0.012000
 41
0.012000
 70
0
  0
VERTEX
  8
1
 10
0.980000
 20
0.809000
 30
0.000000
 42
1.000000
  0
VERTEX
  8
1
 10
0.980000
 20
0.821000
 30
0.000000
  0
SEQEND
  8
0
  0
POLYLINE
  8
1
 66
1
 10
0.000000
 20
0.000000
 30
0.000000
 40
0.012000
 41
0.012000
 70
0
  0
VERTEX
  8
1
 10
0.950000
 20
0.821000
 30
0.000000
 42
1.000000
  0
VERTEX
  8
1
 10
0.950000
 20
0.809000
 30
0.000000
  0
SEQEND
  8
0
  0
POLYLINE
  8
1
 66
1
 10
0.000000
 20
0.000000
 30
0.000000
 40
0.024000
 41
0.024000
 70
0
  0
VERTEX
  8
1
 10
0.912638
 20
0.245000
 30
0.000000
  0
VERTEX
  8
1
 10
0.915000
 20
0.262638
 30
0.000000
  0
SEQEND
  8
0
  0
POLYLINE
  8
1
 66
1
 10
0.000000
 20
0.000000
 30
0.000000
 40
0.012000
 41
0.012000
 70
0
  0
VERTEX
  8
1
 10
0.920947
 20
0.261841
 30
0.000000
 42
1.000000
  0
VERTEX
  8
1
 10
0.909053
 20
0.263434
 30
0.000000
  0
SEQEND
  8
0
  0
POLYLINE
  8
1
 66
1
 10
0.000000
 20
0.000000
 30
0.000000
 40
0.012000
 41
0.012000
 70
0
  0
VERTEX
  8
1
 10
0.906691
 20
0.245796
 30
0.000000
 42
1.000000
  0
VERTEX
  8
1
 10
0.918585
 20
0.244204
 30
0.000000
  0
SEQEND
  8
0
  0
POLYLINE
  8
1
 66
1
 10
0.000000
 20
0.000000
 30
0.000000
 40
0.024000
 41
0.024000
 70
0
  0
VERTEX
  8
1
 10
0.865000
 20
0.262638
 30
0.000000
  0
VERTEX
  8
1
 10
0.867362
 20
0.245000
 30
0.000000
  0
SEQEND
  8
0
  0
POLYLINE
  8
1
 66
1
 10
0.000000
 20
0.000000
 30
0.000000
 40
0.012000
 41
0.012000
 70
0
  0
VERTEX
  8
1
 10
0.861415
 20
0.244204
 30
0.000000
 42
1.000000
  0
VERTEX
  8
1
 10
0.873309
 20
0.245796
 30
0.000000
  0
SEQEND
  8
0
  0
POLYLINE
  8
1
 66
1
 10
0.000000
 20
0.000000
 30
0.000000
 40
0.012000
 41
0.012000
 70
0
  0
VERTEX
  8
1
 10
0.870947
 20
0.263434
 30
0.000000
 42
1.000000
  0
VERTEX
  8
1
 10
0.859053
 20
0.261841
 30
0.000000
  0
SEQEND
  8
0
  0
POLYLINE
  8
1
 66
1
 10
0.000000
 20
0.000000
 30
0.000000
 40
0.024000
 41
0.024000
 70
0
  0
VERTEX
  8
1
 10
0.867362
 20
0.245000
 30
0.000000
  0
VERTEX
  8
1
 10
0.912638
 20
0.245000
 30
0.000000
  0
SEQEND
  8
0
  0
POLYLINE
  8
1
 66
1
 10
0.000000
 20
0.000000
 30
0.000000
 40
0.012000
 41
0.012000
 70
0
  0
VERTEX
  8
1
 10
0.912638
 20
0.239000
 30
0.000000
 42
1.000000
  0
VERTEX
  8
1
 10
0.912638
 20
0.251000
 30
0.000000
  0
SEQEND
  8
0
  0
POLYLINE
  8
1
 66
1
 10
0.000000
 20
0.000000
 30
0.000000
 40
0.012000
 41
0.012000
 70
0
  0
VERTEX
  8
1
 10
0.867362
 20
0.251000
 30
0.000000
 42
1.000000
  0
VERTEX
  8
1
 10
0.867362
 20
0.239000
 30
0.000000
  0
SEQEND
  8
0
  0
POLYLINE
  8
1
 66
1
 10
0.000000
 20
0.000000
 30
0.000000
 40
0.024000
 41
0.024000
 70
0
  0
VERTEX
  8
1
 10
0.960000
 20
0.825000
 30
0.000000
  0
VERTEX
  8
1
 10
1.005512
 20
0.825000
 30
0.000000
  0
SEQEND
  8
0
  0
POLYLINE
  8
1
 66
1
 10
0.000000
 20
0.000000
 30
0.000000
 40
0.012000
 41
0.012000
 70
0
  0
VERTEX
  8
1
 10
1.005512
 20
0.819000
 30
0.000000
 42
1.000000
  0
VERTEX
  8
1
 10
1.005512
 20
0.831000
 30
0.000000
  0
SEQEND
  8
0
  0
POLYLINE
  8
1
 66
1
 10
0.000000
 20
0.000000
 30
0.000000
 40
0.012000
 41
0.012000
 70
0
  0
VERTEX
  8
1
 10
0.960000
 20
0.831000
 30
0.000000
 42
1.000000
  0
VERTEX
  8
1
 10
0.960000
 20
0.819000
 30
0.000000
  0
SEQEND
  8
0
  0
POLYLINE
  8
1
 66
1
 10
0.000000
 20
0.000000
 30
0.000000
 40
0.024000
 41
0.024000
 70
0
  0
VERTEX
  8
1
 10
0.990000
 20
0.815000
 30
0.000000
  0
VERTEX
  8
1
 10
0.980000
 20
0.815000
 30
0.000000
  0
SEQEND
  8
0
  0
POLYLINE
  8
1
 66
1
 10
0.000000
 20
0.000000
 30
0.000000
 40
0.012000
 41
0.012000
 70
0
  0
VERTEX
  8
1
 10
0.980000
 20
0.821000
 30
0.000000
 42
1.000000
  0
VERTEX
  8
1
 10
0.980000
 20
0.809000
 30
0.000000
  0
SEQEND
  8
0
  0
POLYLINE
  8
1
 66
1
 10
0.000000
 20
0.000000
 30
0.000000
 40
0.012000
 41
0.012000
 70
0
  0
VERTEX
  8
1
 10
0.990000
 20
0.809000
 30
0.000000
 42
1.000000
  0
VERTEX
  8
1
 10
0.990000
 20
0.821000
 30
0.000000
  0
SEQEND
  8
0
  0
POLYLINE
  8
1
 66
1
 10
0.000000
 20
0.000000
 30
0.000000
 40
0.024000
 41
0.024000
 70
0
  0
VERTEX
  8
1
 10
0.980000
 20
0.815000
 30
0.000000
  0
VERTEX
  8
1
 10
0.960000
 20
0.825000
 30
0.000000
  0
SEQEND
  8
0
  0
POLYLINE
  8
1
 66
1
 10
0.000000
 20
0.000000
 30
0.000000
 40
0.012000
 41
0.012000
 70
0
  0
VERTEX
  8
1
 10
0.962683
 20
0.830367
 30
0.000000
 42
1.000000
  0
VERTEX
  8
1
 10
0.957317
 20
0.819633
 30
0.000000
  0
SEQEND
  8
0
  0
POLYLINE
  8
1
 66
1
 10
0.000000
 20
0.000000
 30
0.000000
 40
0.012000
 41
0.012000
 70
0
  0
VERTEX
  8
1
 10
0.977317
 20
0.809633
 30
0.000000
 42
1.000000
  0
VERTEX
  8
1
 10
0.982683
 20
0.820367
 30
0.000000
  0
SEQEND
  8
0
  0
POLYLINE
  8
1
 66
1
 10
0.000000
 20
0.000000
 30
0.000000
 40
0.024000
 41
0.024000
 70
0
  0
VERTEX
  8
1
 10
0.920000
 20
0.825000
 30
0.000000
  0
VERTEX
  8
1
 10
0.990000
 20
0.824055
 30
0.000000
  0
SEQEND
  8
0
  0
POLYLINE
  8
1
 66
1
 10
0.000000
 20
0.000000
 30
0.000000
 40
0.012000
 41
0.012000
 70
0
  0
VERTEX
  8
1
 10
0.989919
 20
0.818056
 30
0.000000
 42
1.000000
  0
VERTEX
  8
1
 10
0.990081
 20
0.830055
 30
0.000000
  0
SEQEND
  8
0
  0
POLYLINE
  8
1
 66
1
 10
0.000000
 20
0.000000
 30
0.000000
 40
0.012000
 41
0.012000
 70
0
  0
VERTEX
  8
1
 10
0.920081
 20
0.830999
 30
0.000000
 42
1.000000
  0
VERTEX
  8
1
 10
0.919919
 20
0.819001
 30
0.000000
  0
SEQEND
  8
0
  0
POLYLINE
  8
1
 66
1
 10
0.000000
 20
0.000000
 30
0.000000
 40
0.024000
 41
0.024000
 70
0
  0
VERTEX
  8
1
 10
1.000000
 20
0.815000
 30
0.000000
  0
VERTEX
  8
1
 10
0.990000
 20
0.815000
 30
0.000000
  0
SEQEND
  8
0
  0
POLYLINE
  8
1
 66
1
 10
0.000000
 20
0.000000
 30
0.000000
 40
0.012000
 41
0.012000
 70
0
  0
VERTEX
  8
1
 10
0.990000
 20
0.821000
 30
0.000000
 42
1.000000
  0
VERTEX
  8
1
 10
0.990000
 20
0.809000
 30
0.000000
  0
SEQEND
  8
0
  0
POLYLINE
  8
1
 66
1
 10
0.000000
 20
0.000000
 30
0.000000
 40
0.012000
 41
0.012000
 70
0
  0
VERTEX
  8
1
 10
1.000000
 20
0.809000
 30
0.000000
 42
1.000000
  0
VERTEX
  8
1
 10
1.000000
 20
0.821000
 30
0.000000
  0
SEQEND
  8
0
  0
POLYLINE
  8
1
 66
1
 10
0.000000
 20
0.000000
 30
0.000000
 40
0.024000
 41
0.024000
 70
0
  0
VERTEX
  8
1
 10
0.990000
 20
0.815000
 30
0.000000
  0
VERTEX
  8
1
 10
0.920000
 20
0.825000
 30
0.000000
  0
SEQEND
  8
0
  0
POLYLINE
  8
1
 66
1
 10
0.000000
 20
0.000000
 30
0.000000
 40
0.012000
 41
0.012000
 70
0
  0
VERTEX
  8
1
 10
0.920849
 20
0.830940
 30
0.000000
 42
1.000000
  0
VERTEX
  8
1
 10
0.919151
 20
0.819060
 30
0.000000
  0
SEQEND
  8
0
  0
POLYLINE
  8
1
 66
1
 10
0.000000
 20
0.000000
 30
0.000000
 40
0.012000
 41
0.012000
 70
0
  0
VERTEX
  8
1
 10
0.989151
 20
0.809060
 30
0.000000
 42
1.000000
  0
VERTEX
  8
1
 10
0.990849
 20
0.820940
 30
0.000000
  0
SEQEND
  8
0
  0
POLYLINE
  8
1
 66
1
 10
0.000000
 20
0.000000
 30
0.000000
 40
0.024000
 41
0.024000
 70
0
  0
VERTEX
  8
1
 10
0.599055
 20
1.000000
 30
0.000000
  0
VERTEX
  8
1
 10
0.589055
 20
0.965000
 30
0.000000
  0
SEQEND
  8
0
  0
POLYLINE
  8
1
 66
1
 10
0.000000
 20
0.000000
 30
0.000000
 40
0.012000
 41
0.012000
 70
0
  0
VERTEX
  8
1
 10
0.583286
 20
0.966648
 30
0.000000
 42
1.000000
  0
VERTEX
  8
1
 10
0.594824
 20
0.963352
 30
0.000000
  0
SEQEND
  8
0
  0
POLYLINE
  8
1
 66
1
 10
0.000000
 20
0.000000
 30
0.000000
 40
0.012000
 41
0.012000
 70
0
  0
VERTEX
  8
1
 10
0.604824
 20
0.998352
 30
0.000000
 42
1.000000
  0
VERTEX
  8
1
 10
0.593286
 20
1.001648
 30
0.000000
  0
SEQEND
  8
0
  0
POLYLINE
  8
1
 66
1
 10
0.000000
 20
0.000000
 30
0.000000
 40
0.024000
 41
0.024000
 70
0
  0
VERTEX
  8
1
 10
0.820000
 20
1.000000
 30
0.000000
  0
VERTEX
  8
1
 10
0.599055
 20
1.000000
 30
0.000000
  0
SEQEND
  8
0
  0
POLYLINE
  8
1
 66
1
 10
0.000000
 20
0.000000
 30
0.000000
 40
0.012000
 41
0.012000
 70
0
  0
VERTEX
  8
1
 10
0.599055
 20
1.006000
 30
0.000000
 42
1.000000
  0
VERTEX
  8
1
 10
0.599055
 20
0.994000
 30
0.000000
  0
SEQEND
  8
0
  0
POLYLINE
  8
1
 66
1
 10
0.000000
 20
0.000000
 30
0.000000
 40
0.012000
 41
0.012000
 70
0
  0
VERTEX
  8
1
 10
0.820000
 20
0.994000
 30
0.000000
 42
1.000000
  0
VERTEX
  8
1
 10
0.820000
 20
1.006000
 30
0.000000
  0
SEQEND
  8
0
  0
POLYLINE
  8
1
 66
1
 10
0.000000
 20
0.000000
 30
0.000000
 40
0.024000
 41
0.024000
 70
0
  0
VERTEX
  8
1
 10
0.820000
 20
1.000000
 30
0.000000
  0
VERTEX
  8
1
 10
0.825000
 20
0.995000
 30
0.000000
  0
SEQEND
  8
0
  0
POLYLINE
  8
1
 66
1
 10
0.000000
 20
0.000000
 30
0.000000
 40
0.012000
 41
0.012000
 70
0
  0
VERTEX
  8
1
 10
0.820757
 20
0.990757
 30
0.000000
 42
1.000000
  0
VERTEX
  8
1
 10
0.829243
 20
0.999243
 30
0.000000
  0
SEQEND
  8
0
  0
POLYLINE
  8
1
 66
1
 10
0.000000
 20
0.000000
 30
0.000000
 40
0.012000
 41
0.012000
 70
0
  0
VERTEX
  8
1
 10
0.824243
 20
1.004243
 30
0.000000
 42
1.000000
  0
VERTEX
  8
1
 10
0.815757
 20
0.995757
 30
0.000000
  0
SEQEND
  8
0
  0
POLYLINE
  8
1
 66
1
 10
0.000000
 20
0.000000
 30
0.000000
 40
0.024000
 41
0.024000
 70
0
  0
VERTEX
  8
1
 10
0.820000
 20
0.875000
 30
0.000000
  0
VERTEX
  8
1
 10
0.827008
 20
0.875000
 30
0.000000
  0
SEQEND
  8
0
  0
POLYLINE
  8
1
 66
1
 10
0.000000
 20
0.000000
 30
0.000000
 40
0.012000
 41
0.012000
 70
0
  0
VERTEX
  8
1
 10
0.827008
 20
0.869000
 30
0.000000
 42
1.000000
  0
VERTEX
  8
1
 10
0.827008
 20
0.881000
 30
0.000000
  0
SEQEND
  8
0
  0
POLYLINE
  8
1
 66
1
 10
0.000000
 20
0.000000
 30
0.000000
 40
0.012000
 41
0.012000
 70
0
  0
VERTEX
  8
1
 10
0.820000
 20
0.881000
 30
0.000000
 42
1.000000
  0
VERTEX
  8
1
 10
0.820000
 20
0.869000
 30
0.000000
  0
SEQEND
  8
0
  0
POLYLINE
  8
1
 66
1
 10
0.000000
 20
0.000000
 30
0.000000
 40
0.024000
 41
0.024000
 70
0
  0
VERTEX
  8
1
 10
0.830008
 20
0.878000
 30
0.000000
  0
VERTEX
  8
1
 10
0.827008
 20
0.875000
 30
0.000000
  0
SEQEND
  8
0
  0
POLYLINE
  8
1
 66
1
 10
0.000000
 20
0.000000
 30
0.000000
 40
0.012000
 41
0.012000
 70
0
  0
VERTEX
  8
1
 10
0.822765
 20
0.879243
 30
0.000000
 42
1.000000
  0
VERTEX
  8
1
 10
0.831251
 20
0.870757
 30
0.000000
  0
SEQEND
  8
0
  0
POLYLINE
  8
1
 66
1
 10
0.000000
 20
0.000000
 30
0.000000
 40
0.012000
 41
0.012000
 70
0
  0
VERTEX
  8
1
 10
0.834251
 20
0.873757
 30
0.000000
 42
1.000000
  0
VERTEX
  8
1
 10
0.825765
 20
0.882243
 30
0.000000
  0
SEQEND
  8
0
  0
POLYLINE
  8
1
 66
1
 10
0.000000
 20
0.000000
 30
0.000000
 40
0.024000
 41
0.024000
 70
0
  0
VERTEX
  8
1
 10
0.825000
 20
0.995000
 30
0.000000
  0
VERTEX
  8
1
 10
0.820000
 20
0.990000
 30
0.000000
  0
SEQEND
  8
0
  0
POLYLINE
  8
1
 66
1
 10
0.000000
 20
0.000000
 30
0.000000
 40
0.012000
 41
0.012000
 70
0
  0
VERTEX
  8
1
 10
0.815757
 20
0.994243
 30
0.000000
 42
1.000000
  0
VERTEX
  8
1
 10
0.824243
 20
0.985757
 30
0.000000
  0
SEQEND
  8
0
  0
POLYLINE
  8
1
 66
1
 10
0.000000
 20
0.000000
 30
0.000000
 40
0.012000
 41
0.012000
 70
0
  0
VERTEX
  8
1
 10
0.829243
 20
0.990757
 30
0.000000
 42
1.000000
  0
VERTEX
  8
1
 10
0.820757
 20
0.999243
 30
0.000000
  0
SEQEND
  8
0
  0
POLYLINE
  8
1
 66
1
 10
0.000000
 20
0.000000
 30
0.000000
 40
0.024000
 41
0.024000
 70
0
  0
VERTEX
  8
1
 10
0.820000
 20
0.990000
 30
0.000000
  0
VERTEX
  8
1
 10
0.820000
 20
0.875000
 30
0.000000
  0
SEQEND
  8
0
  0
POLYLINE
  8
1
 66
1
 10
0.000000
 20
0.000000
 30
0.000000
 40
0.012000
 41
0.012000
 70
0
  0
VERTEX
  8
1
 10
0.814000
 20
0.875000
 30
0.000000
 42
1.000000
  0
VERTEX
  8
1
 10
0.826000
 20
0.875000
 30
0.000000
  0
SEQEND
  8
0
  0
POLYLINE
  8
1
 66
1
 10
0.000000
 20
0.000000
 30
0.000000
 40
0.012000
 41
0.012000
 70
0
  0
VERTEX
  8
1
 10
0.826000
 20
0.990000
 30
0.000000
 42
1.000000
  0
VERTEX
  8
1
 10
0.814000
 20
0.990000
 30
0.000000
  0
SEQEND
  8
0
  0
POLYLINE
  8
1
 66
1
 10
0.000000
 20
0.000000
 30
0.000000
 40
0.024000
 41
0.024000
 70
0
  0
VERTEX
  8
1
 10
0.820000
 20
0.888008
 30
0.000000
  0
VERTEX
  8
1
 10
0.830008
 20
0.878000
 30
0.000000
  0
SEQEND
  8
0
  0
POLYLINE
  8
1
 66
1
 10
0.000000
 20
0.000000
 30
0.000000
 40
0.012000
 41
0.012000
 70
0
  0
VERTEX
  8
1
 10
0.825765
 20
0.873757
 30
0.000000
 42
1.000000
  0
VERTEX
  8
1
 10
0.834251
 20
0.882243
 30
0.000000
  0
SEQEND
  8
0
  0
POLYLINE
  8
1
 66
1
 10
0.000000
 20
0.000000
 30
0.000000
 40
0.012000
 41
0.012000
 70
0
  0
VERTEX
  8
1
 10
0.824243
 20
0.892251
 30
0.000000
 42
1.000000
  0
VERTEX
  8
1
 10
0.815757
 20
0.883765
 30
0.000000
  0
SEQEND
  8
0
  0
POLYLINE
  8
1
 66
1
 10
0.000000
 20
0.000000
 30
0.000000
 40
0.024000
 41
0.024000
 70
0
  0
VERTEX
  8
1
 10
0.820000
 20
1.000000
 30
0.000000
  0
VERTEX
  8
1
 10
0.820000
 20
0.888008
 30
0.000000
  0
SEQEND
  8
0
  0
POLYLINE
  8
1
 66
1
 10
0.000000
 20
0.000000
 30
0.000000
 40
0.012000
 41
0.012000
 70
0
  0
VERTEX
  8
1
 10
0.814000
 20
0.888008
 30
0.000000
 42
1.000000
  0
VERTEX
  8
1
 10
0.826000
 20
0.888008
 30
0.000000
  0
SEQEND
  8
0
  0
POLYLINE
  8
1
 66
1
 10
0.000000
 20
0.000000
 30
0.000000
 40
0.012000
 41
0.012000
 70
0
  0
VERTEX
  8
1
 10
0.826000
 20
1.000000
 30
0.000000
 42
1.000000
  0
VERTEX
  8
1
 10
0.814000
 20
1.000000
 30
0.000000
  0
SEQEND
  8
0
  0
POLYLINE
  8
1
 66
1
 10
0.000000
 20
0.000000
 30
0.000000
 40
0.024000
 41
0.024000
 70
0
  0
VERTEX
  8
1
 10
0.820000
 20
0.875000
 30
0.000000
  0
VERTEX
  8
1
 10
0.835000
 20
0.870000
 30
0.000000
  0
SEQEND
  8
0
  0
POLYLINE
  8
1
 66
1
 10
0.000000
 20
0.000000
 30
0.000000
 40
0.012000
 41
0.012000
 70
0
  0
VERTEX
  8
1
 10
0.833103
 20
0.864308
 30
0.000000
 42
1.000000
  0
VERTEX
  8
1
 10
0.836897
 20
0.875692
 30
0.000000
  0
SEQEND
  8
0
  0
POLYLINE
  8
1
 66
1
 10
0.000000
 20
0.000000
 30
0.000000
 40
0.012000
 41
0.012000
 70
0
  0
VERTEX
  8
1
 10
0.821897
 20
0.880692
 30
0.000000
 42
1.000000
  0
VERTEX
  8
1
 10
0.818103
 20
0.869308
 30
0.000000
  0
SEQEND
  8
0
  0
POLYLINE
  8
1
 66
1
 10
0.000000
 20
0.000000
 30
0.000000
 40
0.024000
 41
0.024000
 70
0
  0
VERTEX
  8
1
 10
0.750000
 20
0.645945
 30
0.000000
  0
VERTEX
  8
1
 10
0.819055
 20
0.645000
 30
0.000000
  0
SEQEND
  8
0
  0
POLYLINE
  8
1
 66
1
 10
0.000000
 20
0.000000
 30
0.000000
 40
0.012000
 41
0.012000
 70
0
  0
VERTEX
  8
1
 10
0.818973
 20
0.639001
 30
0.000000
 42
1.000000
  0
VERTEX
  8
1
 10
0.819137
 20
0.650999
 30
0.000000
  0
SEQEND
  8
0
  0
POLYLINE
  8
1
 66
1
 10
0.000000
 20
0.000000
 30
0.000000
 40
0.012000
 41
0.012000
 70
0
  0
VERTEX
  8
1
 10
0.750082
 20
0.651944
 30
0.000000
 42
1.000000
  0
VERTEX
  8
1
 10
0.749918
 20
0.639945
 30
0.000000
  0
SEQEND
  8
0
  0
POLYLINE
  8
1
 66
1
 10
0.000000
 20
0.000000
 30
0.000000
 40
0.024000
 41
0.024000
 70
0
  0
VERTEX
  8
1
 10
0.180000
 20
0.205945
 30
0.000000
  0
VERTEX
  8
1
 10
0.180000
 20
0.215000
 30
0.000000
  0
SEQEND
  8
0
  0
POLYLINE
  8
1
 66
1
 10
0.000000
 20
0.000000
 30
0.000000
 40
0.012000
 41
0.012000
 70
0
  0
VERTEX
  8
1
 10
0.186000
 20
0.215000
 30
0.000000
 42
1.000000
  0
VERTEX
  8
1
 10
0.174000
 20
0.215000
 30
0.000000
  0
SEQEND
  8
0
  0
POLYLINE
  8
1
 66
1
 10
0.000000
 20
0.000000
 30
0.000000
 40
0.012000
 41
0.012000
 70
0
  0
VERTEX
  8
1
 10
0.174000
 20
0.205945
 30
0.000000
 42
1.000000
  0
VERTEX
  8
1
 10
0.186000
 20
0.205945
 30
0.000000
  0
SEQEND
  8
0
  0
POLYLINE
  8
1
 66
1
 10
0.000000
 20
0.000000
 30
0.000000
 40
0.024000
 41
0.024000
 70
0
  0
VERTEX
  8
1
 10
0.180000
 20
0.175945
 30
0.000000
  0
VERTEX
  8
1
 10
0.180000
 20
0.205945
 30
0.000000
  0
SEQEND
  8
0
  0
POLYLINE
  8
1
 66
1
 10
0.000000
 20
0.000000
 30
0.000000
 40
0.012000
 41
0.012000
 70
0
  0
VERTEX
  8
1
 10
0.186000
 20
0.205945
 30
0.000000
 42
1.000000
  0
VERTEX
  8
1
 10
0.174000
 20
0.205945
 30
0.000000
  0
SEQEND
  8
0
  0
POLYLINE
  8
1
 66
1
 10
0.000000
 20
0.000000
 30
0.000000
 40
0.012000
 41
0.012000
 70
0
  0
VERTEX
  8
1
 10
0.174000
 20
0.175945
 30
0.000000
 42
1.000000
  0
VERTEX
  8
1
 10
0.186000
 20
0.175945
 30
0.000000
  0
SEQEND
  8
0
  0
POLYLINE
  8
1
 66
1
 10
0.000000
 20
0.000000
 30
0.000000
 40
0.024000
 41
0.024000
 70
0
  0
VERTEX
  8
1
 10
0.180000
 20
0.175945
 30
0.000000
  0
VERTEX
  8
1
 10
0.260945
 20
0.095000
 30
0.000000
  0
SEQEND
  8
0
  0
POLYLINE
  8
1
 66
1
 10
0.000000
 20
0.000000
 30
0.000000
 40
0.012000
 41
0.012000
 70
0
  0
VERTEX
  8
1
 10
0.256702
 20
0.090757
 30
0.000000
 42
1.000000
  0
VERTEX
  8
1
 10
0.265188
 20
0.099243
 30
0.000000
  0
SEQEND
  8
0
  0
POLYLINE
  8
1
 66
1
 10
0.000000
 20
0.000000
 30
0.000000
 40
0.012000
 41
0.012000
 70
0
  0
VERTEX
  8
1
 10
0.184243
 20
0.180188
 30
0.000000
 42
1.000000
  0
VERTEX
  8
1
 10
0.175757
 20
0.171702
 30
0.000000
  0
SEQEND
  8
0
  0
POLYLINE
  8
1
 66
1
 10
0.000000
 20
0.000000
 30
0.000000
 40
0.024000
 41
0.024000
 70
0
  0
VERTEX
  8
1
 10
0.260945
 20
0.095000
 30
0.000000
  0
VERTEX
  8
1
 10
0.460000
 20
0.095000
 30
0.000000
  0
SEQEND
  8
0
  0
POLYLINE
  8
1
 66
1
 10
0.000000
 20
0.000000
 30
0.000000
 40
0.012000
 41
0.012000
 70
0
  0
VERTEX
  8
1
 10
0.460000
 20
0.089000
 30
0.000000
 42
1.000000
  0
VERTEX
  8
1
 10
0.460000
 20
0.101000
 30
0.000000
  0
SEQEND
  8
0
  0
POLYLINE
  8
1
 66
1
 10
0.000000
 20
0.000000
 30
0.000000
 40
0.012000
 41
0.012000
 70
0
  0
VERTEX
  8
1
 10
0.260945
 20
0.101000
 30
0.000000
 42
1.000000
  0
VERTEX
  8
1
 10
0.260945
 20
0.089000
 30
0.000000
  0
SEQEND
  8
0
  0
POLYLINE
  8
1
 66
1
 10
0.000000
 20
0.000000
 30
0.000000
 40
0.024000
 41
0.024000
 70
0
  0
VERTEX
  8
1
 10
0.525000
 20
0.170000
 30
0.000000
  0
VERTEX
  8
1
 10
0.520000
 20
0.195000
 30
0.000000
  0
SEQEND
  8
0
  0
POLYLINE
  8
1
 66
1
 10
0.000000
 20
0.000000
 30
0.000000
 40
0.012000
 41
0.012000
 70
0
  0
VERTEX
  8
1
 10
0.525883
 20
0.196177
 30
0.000000
 42
1.000000
  0
VERTEX
  8
1
 10
0.514117
 20
0.193823
 30
0.000000
  0
SEQEND
  8
0
  0
POLYLINE
  8
1
 66
1
 10
0.000000
 20
0.000000
 30
0.000000
 40
0.012000
 41
0.012000
 70
0
  0
VERTEX
  8
1
 10
0.519117
 20
0.168823
 30
0.000000
 42
1.000000
  0
VERTEX
  8
1
 10
0.530883
 20
0.171177
 30
0.000000
  0
SEQEND
  8
0
  0
POLYLINE
  8
1
 66
1
 10
0.000000
 20
0.000000
 30
0.000000
 40
0.024000
 41
0.024000
 70
0
  0
VERTEX
  8
1
 10
0.460000
 20
0.095000
 30
0.000000
  0
VERTEX
  8
1
 10
0.525000
 20
0.160000
 30
0.000000
  0
SEQEND
  8
0
  0
POLYLINE
  8
1
 66
1
 10
0.000000
 20
0.000000
 30
0.000000
 40
0.012000
 41
0.012000
 70
0
  0
VERTEX
  8
1
 10
0.529243
 20
0.155757
 30
0.000000
 42
1.000000
  0
VERTEX
  8
1
 10
0.520757
 20
0.164243
 30
0.000000
  0
SEQEND
  8
0
  0
POLYLINE
  8
1
 66
1
 10
0.000000
 20
0.000000
 30
0.000000
 40
0.012000
 41
0.012000
 70
0
  0
VERTEX
  8
1
 10
0.455757
 20
0.099243
 30
0.000000
 42
1.000000
  0
VERTEX
  8
1
 10
0.464243
 20
0.090757
 30
0.000000
  0
SEQEND
  8
0
  0
POLYLINE
  8
1
 66
1
 10
0.000000
 20
0.000000
 30
0.000000
 40
0.024000
 41
0.024000
 70
0
  0
VERTEX
  8
1
 10
0.525000
 20
0.160000
 30
0.000000
  0
VERTEX
  8
1
 10
0.525000
 20
0.170000
 30
0.000000
  0
SEQEND
  8
0
  0
POLYLINE
  8
1
 66
1
 10
0.000000
 20
0.000000
 30
0.000000
 40
0.012000
 41
0.012000
 70
0
  0
VERTEX
  8
1
 10
0.531000
 20
0.170000
 30
0.000000
 42
1.000000
  0
VERTEX
  8
1
 10
0.519000
 20
0.170000
 30
0.000000
  0
SEQEND
  8
0
  0
POLYLINE
  8
1
 66
1
 10
0.000000
 20
0.000000
 30
0.000000
 40
0.012000
 41
0.012000
 70
0
  0
VERTEX
  8
1
 10
0.519000
 20
0.160000
 30
0.000000
 42
1.000000
  0
VERTEX
  8
1
 10
0.531000
 20
0.160000
 30
0.000000
  0
SEQEND
  8
0
  0
POLYLINE
  8
1
 66
1
 10
0.000000
 20
0.000000
 30
0.000000
 40
0.024000
 41
0.024000
 70
0
  0
VERTEX
  8
1
 10
0.815000
 20
0.395000
 30
0.000000
  0
VERTEX
  8
1
 10
0.815000
 20
0.467362
 30
0.000000
  0
SEQEND
  8
0
  0
POLYLINE
  8
1
 66
1
 10
0.000000
 20
0.000000
 30
0.000000
 40
0.012000
 41
0.012000
 70
0
  0
VERTEX
  8
1
 10
0.821000
 20
0.467362
 30
0.000000
 42
1.000000
  0
VERTEX
  8
1
 10
0.809000
 20
0.467362
 30
0.000000
  0
SEQEND
  8
0
  0
POLYLINE
  8
1
 66
1
 10
0.000000
 20
0.000000
 30
0.000000
 40
0.012000
 41
0.012000
 70
0
  0
VERTEX
  8
1
 10
0.809000
 20
0.395000
 30
0.000000
 42
1.000000
  0
VERTEX
  8
1
 10
0.821000
 20
0.395000
 30
0.000000
  0
SEQEND
  8
0
  0
POLYLINE
  8
1
 66
1
 10
0.000000
 20
0.000000
 30
0.000000
 40
0.024000
 41
0.024000
 70
0
  0
VERTEX
  8
1
 10
0.800000
 20
0.380000
 30
0.000000
  0
VERTEX
  8
1
 10
0.815000
 20
0.395000
 30
0.000000
  0
SEQEND
  8
0
  0
POLYLINE
  8
1
 66
1
 10
0.000000
 20
0.000000
 30
0.000000
 40
0.012000
 41
0.012000
 70
0
  0
VERTEX
  8
1
 10
0.819243
 20
0.390757
 30
0.000000
 42
1.000000
  0
VERTEX
  8
1
 10
0.810757
 20
0.399243
 30
0.000000
  0
SEQEND
  8
0
  0
POLYLINE
  8
1
 66
1
 10
0.000000
 20
0.000000
 30
0.000000
 40
0.012000
 41
0.012000
 70
0
  0
VERTEX
  8
1
 10
0.795757
 20
0.384243
 30
0.000000
 42
1.000000
  0
VERTEX
  8
1
 10
0.804243
 20
0.375757
 30
0.000000
  0
SEQEND
  8
0
  0
POLYLINE
  8
1
 66
1
 10
0.000000
 20
0.000000
 30
0.000000
 40
0.024000
 41
0.024000
 70
0
  0
VERTEX
  8
1
 10
0.695000
 20
0.380000
 30
0.000000
  0
VERTEX
  8
1
 10
0.800000
 20
0.380000
 30
0.000000
  0
SEQEND
  8
0
  0
POLYLINE
  8
1
 66
1
 10
0.000000
 20
0.000000
 30
0.000000
 40
0.012000
 41
0.012000
 70
0
  0
VERTEX
  8
1
 10
0.800000
 20
0.374000
 30
0.000000
 42
1.000000
  0
VERTEX
  8
1
 10
0.800000
 20
0.386000
 30
0.000000
  0
SEQEND
  8
0
  0
POLYLINE
  8
1
 66
1
 10
0.000000
 20
0.000000
 30
0.000000
 40
0.012000
 41
0.012000
 70
0
  0
VERTEX
  8
1
 10
0.695000
 20
0.386000
 30
0.000000
 42
1.000000
  0
VERTEX
  8
1
 10
0.695000
 20
0.374000
 30
0.000000
  0
SEQEND
  8
0
  0
POLYLINE
  8
1
 66
1
 10
0.000000
 20
0.000000
 30
0.000000
 40
0.024000
 41
0.024000
 70
0
  0
VERTEX
  8
1
 10
0.670000
 20
0.405000
 30
0.000000
  0
VERTEX
  8
1
 10
0.695000
 20
0.380000
 30
0.000000
  0
SEQEND
  8
0
  0
POLYLINE
  8
1
 66
1
 10
0.000000
 20
0.000000
 30
0.000000
 40
0.012000
 41
0.012000
 70
0
  0
VERTEX
  8
1
 10
0.690757
 20
0.375757
 30
0.000000
 42
1.000000
  0
VERTEX
  8
1
 10
0.699243
 20
0.384243
 30
0.000000
  0
SEQEND
  8
0
  0
POLYLINE
  8
1
 66
1
 10
0.000000
 20
0.000000
 30
0.000000
 40
0.012000
 41
0.012000
 70
0
  0
VERTEX
  8
1
 10
0.674243
 20
0.409243
 30
0.000000
 42
1.000000
  0
VERTEX
  8
1
 10
0.665757
 20
0.400757
 30
0.000000
  0
SEQEND
  8
0
  0
POLYLINE
  8
1
 66
1
 10
0.000000
 20
0.000000
 30
0.000000
 40
0.024000
 41
0.024000
 70
0
  0
VERTEX
  8
1
 10
0.670000
 20
0.640000
 30
0.000000
  0
VERTEX
  8
1
 10
0.670000
 20
0.405000
 30
0.000000
  0
SEQEND
  8
0
  0
POLYLINE
  8
1
 66
1
 10
0.000000
 20
0.000000
 30
0.000000
 40
0.012000
 41
0.012000
 70
0
  0
VERTEX
  8
1
 10
0.664000
 20
0.405000
 30
0.000000
 42
1.000000
  0
VERTEX
  8
1
 10
0.676000
 20
0.405000
 30
0.000000
  0
SEQEND
  8
0
  0
POLYLINE
  8
1
 66
1
 10
0.000000
 20
0.000000
 30
0.000000
 40
0.012000
 41
0.012000
 70
0
  0
VERTEX
  8
1
 10
0.676000
 20
0.640000
 30
0.000000
 42
1.000000
  0
VERTEX
  8
1
 10
0.664000
 20
0.640000
 30
0.000000
  0
SEQEND
  8
0
  0
POLYLINE
  8
1
 66
1
 10
0.000000
 20
0.000000
 30
0.000000
 40
0.024000
 41
0.024000
 70
0
  0
VERTEX
  8
1
 10
0.575000
 20
0.640000
 30
0.000000
  0
VERTEX
  8
1
 10
0.570000
 20
0.640000
 30
0.000000
  0
SEQEND
  8
0
  0
POLYLINE
  8
1
 66
1
 10
0.000000
 20
0.000000
 30
0.000000
 40
0.012000
 41
0.012000
 70
0
  0
VERTEX
  8
1
 10
0.570000
 20
0.646000
 30
0.000000
 42
1.000000
  0
VERTEX
  8
1
 10
0.570000
 20
0.634000
 30
0.000000
  0
SEQEND
  8
0
  0
POLYLINE
  8
1
 66
1
 10
0.000000
 20
0.000000
 30
0.000000
 40
0.012000
 41
0.012000
 70
0
  0
VERTEX
  8
1
 10
0.575000
 20
0.634000
 30
0.000000
 42
1.000000
  0
VERTEX
  8
1
 10
0.575000
 20
0.646000
 30
0.000000
  0
SEQEND
  8
0
  0
POLYLINE
  8
1
 66
1
 10
0.000000
 20
0.000000
 30
0.000000
 40
0.024000
 41
0.024000
 70
0
  0
VERTEX
  8
1
 10
0.582362
 20
0.640000
 30
0.000000
  0
VERTEX
  8
1
 10
0.670000
 20
0.640000
 30
0.000000
  0
SEQEND
  8
0
  0
POLYLINE
  8
1
 66
1
 10
0.000000
 20
0.000000
 30
0.000000
 40
0.012000
 41
0.012000
 70
0
  0
VERTEX
  8
1
 10
0.670000
 20
0.634000
 30
0.000000
 42
1.000000
  0
VERTEX
  8
1
 10
0.670000
 20
0.646000
 30
0.000000
  0
SEQEND
  8
0
  0
POLYLINE
  8
1
 66
1
 10
0.000000
 20
0.000000
 30
0.000000
 40
0.012000
 41
0.012000
 70
0
  0
VERTEX
  8
1
 10
0.582362
 20
0.646000
 30
0.000000
 42
1.000000
  0
VERTEX
  8
1
 10
0.582362
 20
0.634000
 30
0.000000
  0
SEQEND
  8
0
  0
POLYLINE
  8
1
 66
1
 10
0.000000
 20
0.000000
 30
0.000000
 40
0.024000
 41
0.024000
 70
0
  0
VERTEX
  8
1
 10
0.670000
 20
0.640000
 30
0.000000
  0
VERTEX
  8
1
 10
0.675000
 20
0.640000
 30
0.000000
  0
SEQEND
  8
0
  0
POLYLINE
  8
1
 66
1
 10
0.000000
 20
0.000000
 30
0.000000
 40
0.012000
 41
0.012000
 70
0
  0
VERTEX
  8
1
 10
0.675000
 20
0.634000
 30
0.000000
 42
1.000000
  0
VERTEX
  8
1
 10
0.675000
 20
0.646000
 30
0.000000
  0
SEQEND
  8
0
  0
POLYLINE
  8
1
 66
1
 10
0.000000
 20
0.000000
 30
0.000000
 40
0.012000
 41
0.012000
 70
0
  0
VERTEX
  8
1
 10
0.670000
 20
0.646000
 30
0.000000
 42
1.000000
  0
VERTEX
  8
1
 10
0.670000
 20
0.634000
 30
0.000000
  0
SEQEND
  8
0
  0
POLYLINE
  8
1
 66
1
 10
0.000000
 20
0.000000
 30
0.000000
 40
0.024000
 41
0.024000
 70
0
  0
VERTEX
  8
1
 10
0.670000
 20
0.640000
 30
0.000000
  0
VERTEX
  8
1
 10
0.710000
 20
0.640000
 30
0.000000
  0
SEQEND
  8
0
  0
POLYLINE
  8
1
 66
1
 10
0.000000
 20
0.000000
 30
0.000000
 40
0.012000
 41
0.012000
 70
0
  0
VERTEX
  8
1
 10
0.710000
 20
0.634000
 30
0.000000
 42
1.000000
  0
VERTEX
  8
1
 10
0.710000
 20
0.646000
 30
0.000000
  0
SEQEND
  8
0
  0
POLYLINE
  8
1
 66
1
 10
0.000000
 20
0.000000
 30
0.000000
 40
0.012000
 41
0.012000
 70
0
  0
VERTEX
  8
1
 10
0.670000
 20
0.646000
 30
0.000000
 42
1.000000
  0
VERTEX
  8
1
 10
0.670000
 20
0.634000
 30
0.000000
  0
SEQEND
  8
0
  0
POLYLINE
  8
1
 66
1
 10
0.000000
 20
0.000000
 30
0.000000
 40
0.024000
 41
0.024000
 70
0
  0
VERTEX
  8
1
 10
0.740000
 20
0.655000
 30
0.000000
  0
VERTEX
  8
1
 10
0.750000
 20
0.645945
 30
0.000000
  0
SEQEND
  8
0
  0
POLYLINE
  8
1
 66
1
 10
0.000000
 20
0.000000
 30
0.000000
 40
0.012000
 41
0.012000
 70
0
  0
VERTEX
  8
1
 10
0.745973
 20
0.641497
 30
0.000000
 42
1.000000
  0
VERTEX
  8
1
 10
0.754027
 20
0.650392
 30
0.000000
  0
SEQEND
  8
0
  0
POLYLINE
  8
1
 66
1
 10
0.000000
 20
0.000000
 30
0.000000
 40
0.012000
 41
0.012000
 70
0
  0
VERTEX
  8
1
 10
0.744027
 20
0.659448
 30
0.000000
 42
1.000000
  0
VERTEX
  8
1
 10
0.735973
 20
0.650552
 30
0.000000
  0
SEQEND
  8
0
  0
POLYLINE
  8
1
 66
1
 10
0.000000
 20
0.000000
 30
0.000000
 40
0.024000
 41
0.024000
 70
0
  0
VERTEX
  8
1
 10
0.710000
 20
0.640000
 30
0.000000
  0
VERTEX
  8
1
 10
0.735000
 20
0.655000
 30
0.000000
  0
SEQEND
  8
0
  0
POLYLINE
  8
1
 66
1
 10
0.000000
 20
0.000000
 30
0.000000
 40
0.012000
 41
0.012000
 70
0
  0
VERTEX
  8
1
 10
0.738087
 20
0.649855
 30
0.000000
 42
1.000000
  0
VERTEX
  8
1
 10
0.731913
 20
0.660145
 30
0.000000
  0
SEQEND
  8
0
  0
POLYLINE
  8
1
 66
1
 10
0.000000
 20
0.000000
 30
0.000000
 40
0.012000
 41
0.012000
 70
0
  0
VERTEX
  8
1
 10
0.706913
 20
0.645145
 30
0.000000
 42
1.000000
  0
VERTEX
  8
1
 10
0.713087
 20
0.634855
 30
0.000000
  0
SEQEND
  8
0
  0
POLYLINE
  8
1
 66
1
 10
0.000000
 20
0.000000
 30
0.000000
 40
0.024000
 41
0.024000
 70
0
  0
VERTEX
  8
1
 10
0.735000
 20
0.655000
 30
0.000000
  0
VERTEX
  8
1
 10
0.740000
 20
0.655000
 30
0.000000
  0
SEQEND
  8
0
  0
POLYLINE
  8
1
 66
1
 10
0.000000
 20
0.000000
 30
0.000000
 40
0.012000
 41
0.012000
 70
0
  0
VERTEX
  8
1
 10
0.740000
 20
0.649000
 30
0.000000
 42
1.000000
  0
VERTEX
  8
1
 10
0.740000
 20
0.661000
 30
0.000000
  0
SEQEND
  8
0
  0
POLYLINE
  8
1
 66
1
 10
0.000000
 20
0.000000
 30
0.000000
 40
0.012000
 41
0.012000
 70
0
  0
VERTEX
  8
1
 10
0.735000
 20
0.661000
 30
0.000000
 42
1.000000
  0
VERTEX
  8
1
 10
0.735000
 20
0.649000
 30
0.000000
  0
SEQEND
  8
0
  0
POLYLINE
  8
1
 66
1
 10
0.000000
 20
0.000000
 30
0.000000
 40
0.024000
 41
0.024000
 70
0
  0
VERTEX
  8
1
 10
0.520000
 20
0.195000
 30
0.000000
  0
VERTEX
  8
1
 10
0.510000
 20
0.205000
 30
0.000000
  0
SEQEND
  8
0
  0
POLYLINE
  8
1
 66
1
 10
0.000000
 20
0.000000
 30
0.000000
 40
0.012000
 41
0.012000
 70
0
  0
VERTEX
  8
1
 10
0.514243
 20
0.209243
 30
0.000000
 42
1.000000
  0
VERTEX
  8
1
 10
0.505757
 20
0.200757
 30
0.000000
  0
SEQEND
  8
0
  0
POLYLINE
  8
1
 66
1
 10
0.000000
 20
0.000000
 30
0.000000
 40
0.012000
 41
0.012000
 70
0
  0
VERTEX
  8
1
 10
0.515757
 20
0.190757
 30
0.000000
 42
1.000000
  0
VERTEX
  8
1
 10
0.524243
 20
0.199243
 30
0.000000
  0
SEQEND
  8
0
  0
POLYLINE
  8
1
 66
1
 10
0.000000
 20
0.000000
 30
0.000000
 40
0.024000
 41
0.024000
 70
0
  0
VERTEX
  8
1
 10
0.510000
 20
0.205000
 30
0.000000
  0
VERTEX
  8
1
 10
0.510000
 20
0.235000
 30
0.000000
  0
SEQEND
  8
0
  0
POLYLINE
  8
1
 66
1
 10
0.000000
 20
0.000000
 30
0.000000
 40
0.012000
 41
0.012000
 70
0
  0
VERTEX
  8
1
 10
0.516000
 20
0.235000
 30
0.000000
 42
1.000000
  0
VERTEX
  8
1
 10
0.504000
 20
0.235000
 30
0.000000
  0
SEQEND
  8
0
  0
POLYLINE
  8
1
 66
1
 10
0.000000
 20
0.000000
 30
0.000000
 40
0.012000
 41
0.012000
 70
0
  0
VERTEX
  8
1
 10
0.504000
 20
0.205000
 30
0.000000
 42
1.000000
  0
VERTEX
  8
1
 10
0.516000
 20
0.205000
 30
0.000000
  0
SEQEND
  8
0
  0
POLYLINE
  8
1
 66
1
 10
0.000000
 20
0.000000
 30
0.000000
 40
0.024000
 41
0.024000
 70
0
  0
VERTEX
  8
1
 10
0.510000
 20
0.235000
 30
0.000000
  0
VERTEX
  8
1
 10
0.460000
 20
0.285000
 30
0.000000
  0
SEQEND
  8
0
  0
POLYLINE
  8
1
 66
1
 10
0.000000
 20
0.000000
 30
0.000000
 40
0.012000
 41
0.012000
 70
0
  0
VERTEX
  8
1
 10
0.464243
 20
0.289243
 30
0.000000
 42
1.000000
  0
VERTEX
  8
1
 10
0.455757
 20
0.280757
 30
0.000000
  0
SEQEND
  8
0
  0
POLYLINE
  8
1
 66
1
 10
0.000000
 20
0.000000
 30
0.000000
 40
0.012000
 41
0.012000
 70
0
  0
VERTEX
  8
1
 10
0.505757
 20
0.230757
 30
0.000000
 42
1.000000
  0
VERTEX
  8
1
 10
0.514243
 20
0.239243
 30
0.000000
  0
SEQEND
  8
0
  0
POLYLINE
  8
1
 66
1
 10
0.000000
 20
0.000000
 30
0.000000
 40
0.024000
 41
0.024000
 70
0
  0
VERTEX
  8
1
 10
0.460000
 20
0.285000
 30
0.000000
  0
VERTEX
  8
1
 10
0.460000
 20
0.580000
 30
0.000000
  0
SEQEND
  8
0
  0
POLYLINE
  8
1
 66
1
 10
0.000000
 20
0.000000
 30
0.000000
 40
0.012000
 41
0.012000
 70
0
  0
VERTEX
  8
1
 10
0.466000
 20
0.580000
 30
0.000000
 42
1.000000
  0
VERTEX
  8
1
 10
0.454000
 20
0.580000
 30
0.000000
  0
SEQEND
  8
0
  0
POLYLINE
  8
1
 66
1
 10
0.000000
 20
0.000000
 30
0.000000
 40
0.012000
 41
0.012000
 70
0
  0
VERTEX
  8
1
 10
0.454000
 20
0.285000
 30
0.000000
 42
1.000000
  0
VERTEX
  8
1
 10
0.466000
 20
0.285000
 30
0.000000
  0
SEQEND
  8
0
  0
POLYLINE
  8
1
 66
1
 10
0.000000
 20
0.000000
 30
0.000000
 40
0.024000
 41
0.024000
 70
0
  0
VERTEX
  8
1
 10
0.575000
 20
0.640000
 30
0.000000
  0
VERTEX
  8
1
 10
0.582362
 20
0.640000
 30
0.000000
  0
SEQEND
  8
0
  0
POLYLINE
  8
1
 66
1
 10
0.000000
 20
0.000000
 30
0.000000
 40
0.012000
 41
0.012000
 70
0
  0
VERTEX
  8
1
 10
0.582362
 20
0.634000
 30
0.000000
 42
1.000000
  0
VERTEX
  8
1
 10
0.582362
 20
0.646000
 30
0.000000
  0
SEQEND
  8
0
  0
POLYLINE
  8
1
 66
1
 10
0.000000
 20
0.000000
 30
0.000000
 40
0.012000
 41
0.012000
 70
0
  0
VERTEX
  8
1
 10
0.575000
 20
0.646000
 30
0.000000
 42
1.000000
  0
VERTEX
  8
1
 10
0.575000
 20
0.634000
 30
0.000000
  0
SEQEND
  8
0
  0
POLYLINE
  8
1
 66
1
 10
0.000000
 20
0.000000
 30
0.000000
 40
0.024000
 41
0.024000
 70
0
  0
VERTEX
  8
1
 10
0.460000
 20
0.580000
 30
0.000000
  0
VERTEX
  8
1
 10
0.520000
 20
0.640000
 30
0.000000
  0
SEQEND
  8
0
  0
POLYLINE
  8
1
 66
1
 10
0.000000
 20
0.000000
 30
0.000000
 40
0.012000
 41
0.012000
 70
0
  0
VERTEX
  8
1
 10
0.524243
 20
0.635757
 30
0.000000
 42
1.000000
  0
VERTEX
  8
1
 10
0.515757
 20
0.644243
 30
0.000000
  0
SEQEND
  8
0
  0
POLYLINE
  8
1
 66
1
 10
0.000000
 20
0.000000
 30
0.000000
 40
0.012000
 41
0.012000
 70
0
  0
VERTEX
  8
1
 10
0.455757
 20
0.584243
 30
0.000000
 42
1.000000
  0
VERTEX
  8
1
 10
0.464243
 20
0.575757
 30
0.000000
  0
SEQEND
  8
0
  0
POLYLINE
  8
1
 66
1
 10
0.000000
 20
0.000000
 30
0.000000
 40
0.024000
 41
0.024000
 70
0
  0
VERTEX
  8
1
 10
0.520000
 20
0.640000
 30
0.000000
  0
VERTEX
  8
1
 10
0.575000
 20
0.640000
 30
0.000000
  0
SEQEND
  8
0
  0
POLYLINE
  8
1
 66
1
 10
0.000000
 20
0.000000
 30
0.000000
 40
0.012000
 41
0.012000
 70
0
  0
VERTEX
  8
1
 10
0.575000
 20
0.634000
 30
0.000000
 42
1.000000
  0
VERTEX
  8
1
 10
0.575000
 20
0.646000
 30
0.000000
  0
SEQEND
  8
0
  0
POLYLINE
  8
1
 66
1
 10
0.000000
 20
0.000000
 30
0.000000
 40
0.012000
 41
0.012000
 70
0
  0
VERTEX
  8
1
 10
0.520000
 20
0.646000
 30
0.000000
 42
1.000000
  0
VERTEX
  8
1
 10
0.520000
 20
0.634000
 30
0.000000
  0
SEQEND
  8
0
  0
POLYLINE
  8
1
 66
1
 10
0.000000
 20
0.000000
 30
0.000000
 40
0.024000
 41
0.024000
 70
0
  0
VERTEX
  8
1
 10
1.185000
 20
0.825000
 30
0.000000
  0
VERTEX
  8
1
 10
1.194488
 20
0.825000
 30
0.000000
  0
SEQEND
  8
0
  0
POLYLINE
  8
1
 66
1
 10
0.000000
 20
0.000000
 30
0.000000
 40
0.012000
 41
0.012000
 70
0
  0
VERTEX
  8
1
 10
1.194488
 20
0.819000
 30
0.000000
 42
1.000000
  0
VERTEX
  8
1
 10
1.194488
 20
0.831000
 30
0.000000
  0
SEQEND
  8
0
  0
POLYLINE
  8
1
 66
1
 10
0.000000
 20
0.000000
 30
0.000000
 40
0.012000
 41
0.012000
 70
0
  0
VERTEX
  8
1
 10
1.185000
 20
0.831000
 30
0.000000
 42
1.000000
  0
VERTEX
  8
1
 10
1.185000
 20
0.819000
 30
0.000000
  0
SEQEND
  8
0
  0
POLYLINE
  8
1
 66
1
 10
0.000000
 20
0.000000
 30
0.000000
 40
0.024000
 41
0.024000
 70
0
  0
VERTEX
  8
1
 10
1.190000
 20
0.830000
 30
0.000000
  0
VERTEX
  8
1
 10
1.180000
 20
0.825000
 30
0.000000
  0
SEQEND
  8
0
  0
POLYLINE
  8
1
 66
1
 10
0.000000
 20
0.000000
 30
0.000000
 40
0.012000
 41
0.012000
 70
0
  0
VERTEX
  8
1
 10
1.177317
 20
0.830367
 30
0.000000
 42
1.000000
  0
VERTEX
  8
1
 10
1.182683
 20
0.819633
 30
0.000000
  0
SEQEND
  8
0
  0
POLYLINE
  8
1
 66
1
 10
0.000000
 20
0.000000
 30
0.000000
 40
0.012000
 41
0.012000
 70
0
  0
VERTEX
  8
1
 10
1.192683
 20
0.824633
 30
0.000000
 42
1.000000
  0
VERTEX
  8
1
 10
1.187317
 20
0.835367
 30
0.000000
  0
SEQEND
  8
0
  0
POLYLINE
  8
1
 66
1
 10
0.000000
 20
0.000000
 30
0.000000
 40
0.024000
 41
0.024000
 70
0
  0
VERTEX
  8
1
 10
1.185000
 20
0.825000
 30
0.000000
  0
VERTEX
  8
1
 10
1.180000
 20
0.825000
 30
0.000000
  0
SEQEND
  8
0
  0
POLYLINE
  8
1
 66
1
 10
0.000000
 20
0.000000
 30
0.000000
 40
0.012000
 41
0.012000
 70
0
  0
VERTEX
  8
1
 10
1.180000
 20
0.831000
 30
0.000000
 42
1.000000
  0
VERTEX
  8
1
 10
1.180000
 20
0.819000
 30
0.000000
  0
SEQEND
  8
0
  0
POLYLINE
  8
1
 66
1
 10
0.000000
 20
0.000000
 30
0.000000
 40
0.012000
 41
0.012000
 70
0
  0
VERTEX
  8
1
 10
1.185000
 20
0.819000
 30
0.000000
 42
1.000000
  0
VERTEX
  8
1
 10
1.185000
 20
0.831000
 30
0.000000
  0
SEQEND
  8
0
  0
POLYLINE
  8
1
 66
1
 10
0.000000
 20
0.000000
 30
0.000000
 40
0.024000
 41
0.024000
 70
0
  0
VERTEX
  8
1
 10
1.180000
 20
0.825000
 30
0.000000
  0
VERTEX
  8
1
 10
1.180000
 20
0.820000
 30
0.000000
  0
SEQEND
  8
0
  0
POLYLINE
  8
1
 66
1
 10
0.000000
 20
0.000000
 30
0.000000
 40
0.012000
 41
0.012000
 70
0
  0
VERTEX
  8
1
 10
1.174000
 20
0.820000
 30
0.000000
 42
1.000000
  0
VERTEX
  8
1
 10
1.186000
 20
0.820000
 30
0.000000
  0
SEQEND
  8
0
  0
POLYLINE
  8
1
 66
1
 10
0.000000
 20
0.000000
 30
0.000000
 40
0.012000
 41
0.012000
 70
0
  0
VERTEX
  8
1
 10
1.186000
 20
0.825000
 30
0.000000
 42
1.000000
  0
VERTEX
  8
1
 10
1.174000
 20
0.825000
 30
0.000000
  0
SEQEND
  8
0
  0
POLYLINE
  8
1
 66
1
 10
0.000000
 20
0.000000
 30
0.000000
 40
0.024000
 41
0.024000
 70
0
  0
VERTEX
  8
1
 10
1.180000
 20
0.820000
 30
0.000000
  0
VERTEX
  8
1
 10
1.100000
 20
0.900000
 30
0.000000
  0
SEQEND
  8
0
  0
POLYLINE
  8
1
 66
1
 10
0.000000
 20
0.000000
 30
0.000000
 40
0.012000
 41
0.012000
 70
0
  0
VERTEX
  8
1
 10
1.104243
 20
0.904243
 30
0.000000
 42
1.000000
  0
VERTEX
  8
1
 10
1.095757
 20
0.895757
 30
0.000000
  0
SEQEND
  8
0
  0
POLYLINE
  8
1
 66
1
 10
0.000000
 20
0.000000
 30
0.000000
 40
0.012000
 41
0.012000
 70
0
  0
VERTEX
  8
1
 10
1.175757
 20
0.815757
 30
0.000000
 42
1.000000
  0
VERTEX
  8
1
 10
1.184243
 20
0.824243
 30
0.000000
  0
SEQEND
  8
0
  0
POLYLINE
  8
1
 66
1
 10
0.000000
 20
0.000000
 30
0.000000
 40
0.024000
 41
0.024000
 70
0
  0
VERTEX
  8
1
 10
1.100000
 20
0.900000
 30
0.000000
  0
VERTEX
  8
1
 10
1.100000
 20
0.985000
 30
0.000000
  0
SEQEND
  8
0
  0
POLYLINE
  8
1
 66
1
 10
0.000000
 20
0.000000
 30
0.000000
 40
0.012000
 41
0.012000
 70
0
  0
VERTEX
  8
1
 10
1.106000
 20
0.985000
 30
0.000000
 42
1.000000
  0
VERTEX
  8
1
 10
1.094000
 20
0.985000
 30
0.000000
  0
SEQEND
  8
0
  0
POLYLINE
  8
1
 66
1
 10
0.000000
 20
0.000000
 30
0.000000
 40
0.012000
 41
0.012000
 70
0
  0
VERTEX
  8
1
 10
1.094000
 20
0.900000
 30
0.000000
 42
1.000000
  0
VERTEX
  8
1
 10
1.106000
 20
0.900000
 30
0.000000
  0
SEQEND
  8
0
  0
POLYLINE
  8
1
 66
1
 10
0.000000
 20
0.000000
 30
0.000000
 40
0.024000
 41
0.024000
 70
0
  0
VERTEX
  8
1
 10
1.100000
 20
0.985000
 30
0.000000
  0
VERTEX
  8
1
 10
1.095000
 20
1.035000
 30
0.000000
  0
SEQEND
  8
0
  0
POLYLINE
  8
1
 66
1
 10
0.000000
 20
0.000000
 30
0.000000
 40
0.012000
 41
0.012000
 70
0
  0
VERTEX
  8
1
 10
1.100970
 20
1.035597
 30
0.000000
 42
1.000000
  0
VERTEX
  8
1
 10
1.089030
 20
1.034403
 30
0.000000
  0
SEQEND
  8
0
  0
POLYLINE
  8
1
 66
1
 10
0.000000
 20
0.000000
 30
0.000000
 40
0.012000
 41
0.012000
 70
0
  0
VERTEX
  8
1
 10
1.094030
 20
0.984403
 30
0.000000
 42
1.000000
  0
VERTEX
  8
1
 10
1.105970
 20
0.985597
 30
0.000000
  0
SEQEND
  8
0
  0
POLYLINE
  8
1
 66
1
 10
0.000000
 20
0.000000
 30
0.000000
 40
0.024000
 41
0.024000
 70
0
  0
VERTEX
  8
1
 10
1.105000
 20
1.000000
 30
0.000000
  0
VERTEX
  8
1
 10
0.820000
 20
1.000000
 30
0.000000
  0
SEQEND
  8
0
  0
POLYLINE
  8
1
 66
1
 10
0.000000
 20
0.000000
 30
0.000000
 40
0.012000
 41
0.012000
 70
0
  0
VERTEX
  8
1
 10
0.820000
 20
1.006000
 30
0.000000
 42
1.000000
  0
VERTEX
  8
1
 10
0.820000
 20
0.994000
 30
0.000000
  0
SEQEND
  8
0
  0
POLYLINE
  8
1
 66
1
 10
0.000000
 20
0.000000
 30
0.000000
 40
0.012000
 41
0.012000
 70
0
  0
VERTEX
  8
1
 10
1.105000
 20
0.994000
 30
0.000000
 42
1.000000
  0
VERTEX
  8
1
 10
1.105000
 20
1.006000
 30
0.000000
  0
SEQEND
  8
0
  0
POLYLINE
  8
1
 66
1
 10
0.000000
 20
0.000000
 30
0.000000
 40
0.024000
 41
0.024000
 70
0
  0
VERTEX
  8
1
 10
1.100000
 20
0.985000
 30
0.000000
  0
VERTEX
  8
1
 10
1.105000
 20
1.000000
 30
0.000000
  0
SEQEND
  8
0
  0
POLYLINE
  8
1
 66
1
 10
0.000000
 20
0.000000
 30
0.000000
 40
0.012000
 41
0.012000
 70
0
  0
VERTEX
  8
1
 10
1.110692
 20
0.998103
 30
0.000000
 42
1.000000
  0
VERTEX
  8
1
 10
1.099308
 20
1.001897
 30
0.000000
  0
SEQEND
  8
0
  0
POLYLINE
  8
1
 66
1
 10
0.000000
 20
0.000000
 30
0.000000
 40
0.012000
 41
0.012000
 70
0
  0
VERTEX
  8
1
 10
1.094308
 20
0.986897
 30
0.000000
 42
1.000000
  0
VERTEX
  8
1
 10
1.105692
 20
0.983103
 30
0.000000
  0
SEQEND
  8
0
  0
POLYLINE
  8
1
 66
1
 10
0.000000
 20
0.000000
 30
0.000000
 40
0.024000
 41
0.024000
 70
0
  0
VERTEX
  8
1
 10
1.190000
 20
0.830000
 30
0.000000
  0
VERTEX
  8
1
 10
1.190000
 20
0.835000
 30
0.000000
  0
SEQEND
  8
0
  0
POLYLINE
  8
1
 66
1
 10
0.000000
 20
0.000000
 30
0.000000
 40
0.012000
 41
0.012000
 70
0
  0
VERTEX
  8
1
 10
1.196000
 20
0.835000
 30
0.000000
 42
1.000000
  0
VERTEX
  8
1
 10
1.184000
 20
0.835000
 30
0.000000
  0
SEQEND
  8
0
  0
POLYLINE
  8
1
 66
1
 10
0.000000
 20
0.000000
 30
0.000000
 40
0.012000
 41
0.012000
 70
0
  0
VERTEX
  8
1
 10
1.184000
 20
0.830000
 30
0.000000
 42
1.000000
  0
VERTEX
  8
1
 10
1.196000
 20
0.830000
 30
0.000000
  0
SEQEND
  8
0
  0
POLYLINE
  8
1
 66
1
 10
0.000000
 20
0.000000
 30
0.000000
 40
0.024000
 41
0.024000
 70
0
  0
VERTEX
  8
1
 10
0.819055
 20
0.645000
 30
0.000000
  0
VERTEX
  8
1
 10
0.810000
 20
0.645000
 30
0.000000
  0
SEQEND
  8
0
  0
POLYLINE
  8
1
 66
1
 10
0.000000
 20
0.000000
 30
0.000000
 40
0.012000
 41
0.012000
 70
0
  0
VERTEX
  8
1
 10
0.810000
 20
0.651000
 30
0.000000
 42
1.000000
  0
VERTEX
  8
1
 10
0.810000
 20
0.639000
 30
0.000000
  0
SEQEND
  8
0
  0
POLYLINE
  8
1
 66
1
 10
0.000000
 20
0.000000
 30
0.000000
 40
0.012000
 41
0.012000
 70
0
  0
VERTEX
  8
1
 10
0.819055
 20
0.639000
 30
0.000000
 42
1.000000
  0
VERTEX
  8
1
 10
0.819055
 20
0.651000
 30
0.000000
  0
SEQEND
  8
0
  0
POLYLINE
  8
1
 66
1
 10
0.000000
 20
0.000000
 30
0.000000
 40
0.024000
 41
0.024000
 70
0
  0
VERTEX
  8
1
 10
0.819055
 20
0.645000
 30
0.000000
  0
VERTEX
  8
1
 10
0.905000
 20
0.645000
 30
0.000000
  0
SEQEND
  8
0
  0
POLYLINE
  8
1
 66
1
 10
0.000000
 20
0.000000
 30
0.000000
 40
0.012000
 41
0.012000
 70
0
  0
VERTEX
  8
1
 10
0.905000
 20
0.639000
 30
0.000000
 42
1.000000
  0
VERTEX
  8
1
 10
0.905000
 20
0.651000
 30
0.000000
  0
SEQEND
  8
0
  0
POLYLINE
  8
1
 66
1
 10
0.000000
 20
0.000000
 30
0.000000
 40
0.012000
 41
0.012000
 70
0
  0
VERTEX
  8
1
 10
0.819055
 20
0.651000
 30
0.000000
 42
1.000000
  0
VERTEX
  8
1
 10
0.819055
 20
0.639000
 30
0.000000
  0
SEQEND
  8
0
  0
POLYLINE
  8
1
 66
1
 10
0.000000
 20
0.000000
 30
0.000000
 40
0.024000
 41
0.024000
 70
0
  0
VERTEX
  8
1
 10
0.905000
 20
0.645000
 30
0.000000
  0
VERTEX
  8
1
 10
1.000000
 20
0.740000
 30
0.000000
  0
SEQEND
  8
0
  0
POLYLINE
  8
1
 66
1
 10
0.000000
 20
0.000000
 30
0.000000
 40
0.012000
 41
0.012000
 70
0
  0
VERTEX
  8
1
 10
1.004243
 20
0.735757
 30
0.000000
 42
1.000000
  0
VERTEX
  8
1
 10
0.995757
 20
0.744243
 30
0.000000
  0
SEQEND
  8
0
  0
POLYLINE
  8
1
 66
1
 10
0.000000
 20
0.000000
 30
0.000000
 40
0.012000
 41
0.012000
 70
0
  0
VERTEX
  8
1
 10
0.900757
 20
0.649243
 30
0.000000
 42
1.000000
  0
VERTEX
  8
1
 10
0.909243
 20
0.640757
 30
0.000000
  0
SEQEND
  8
0
  0
POLYLINE
  8
1
 66
1
 10
0.000000
 20
0.000000
 30
0.000000
 40
0.024000
 41
0.024000
 70
0
  0
VERTEX
  8
1
 10
1.000000
 20
0.740000
 30
0.000000
  0
VERTEX
  8
1
 10
1.100000
 20
0.740000
 30
0.000000
  0
SEQEND
  8
0
  0
POLYLINE
  8
1
 66
1
 10
0.000000
 20
0.000000
 30
0.000000
 40
0.012000
 41
0.012000
 70
0
  0
VERTEX
  8
1
 10
1.100000
 20
0.734000
 30
0.000000
 42
1.000000
  0
VERTEX
  8
1
 10
1.100000
 20
0.746000
 30
0.000000
  0
SEQEND
  8
0
  0
POLYLINE
  8
1
 66
1
 10
0.000000
 20
0.000000
 30
0.000000
 40
0.012000
 41
0.012000
 70
0
  0
VERTEX
  8
1
 10
1.000000
 20
0.746000
 30
0.000000
 42
1.000000
  0
VERTEX
  8
1
 10
1.000000
 20
0.734000
 30
0.000000
  0
SEQEND
  8
0
  0
POLYLINE
  8
1
 66
1
 10
0.000000
 20
0.000000
 30
0.000000
 40
0.024000
 41
0.024000
 70
0
  0
VERTEX
  8
1
 10
1.100000
 20
0.740000
 30
0.000000
  0
VERTEX
  8
1
 10
1.180000
 20
0.820000
 30
0.000000
  0
SEQEND
  8
0
  0
POLYLINE
  8
1
 66
1
 10
0.000000
 20
0.000000
 30
0.000000
 40
0.012000
 41
0.012000
 70
0
  0
VERTEX
  8
1
 10
1.184243
 20
0.815757
 30
0.000000
 42
1.000000
  0
VERTEX
  8
1
 10
1.175757
 20
0.824243
 30
0.000000
  0
SEQEND
  8
0
  0
POLYLINE
  8
1
 66
1
 10
0.000000
 20
0.000000
 30
0.000000
 40
0.012000
 41
0.012000
 70
0
  0
VERTEX
  8
1
 10
1.095757
 20
0.744243
 30
0.000000
 42
1.000000
  0
VERTEX
  8
1
 10
1.104243
 20
0.735757
 30
0.000000
  0
SEQEND
  8
0
  0
POLYLINE
  8
1
 66
1
 10
0.000000
 20
0.000000
 30
0.000000
 40
0.024000
 41
0.024000
 70
0
  0
VERTEX
  8
1
 10
1.180000
 20
0.820000
 30
0.000000
  0
VERTEX
  8
1
 10
1.185000
 20
0.825000
 30
0.000000
  0
SEQEND
  8
0
  0
POLYLINE
  8
1
 66
1
 10
0.000000
 20
0.000000
 30
0.000000
 40
0.012000
 41
0.012000
 70
0
  0
VERTEX
  8
1
 10
1.189243
 20
0.820757
 30
0.000000
 42
1.000000
  0
VERTEX
  8
1
 10
1.180757
 20
0.829243
 30
0.000000
  0
SEQEND
  8
0
  0
POLYLINE
  8
1
 66
1
 10
0.000000
 20
0.000000
 30
0.000000
 40
0.012000
 41
0.012000
 70
0
  0
VERTEX
  8
1
 10
1.175757
 20
0.824243
 30
0.000000
 42
1.000000
  0
VERTEX
  8
1
 10
1.184243
 20
0.815757
 30
0.000000
  0
SEQEND
  8
0
  0
POLYLINE
  8
1
 66
1
 10
0.000000
 20
0.000000
 30
0.000000
 40
0.024000
 41
0.024000
 70
0
  0
VERTEX
  8
1
 10
1.185000
 20
0.825000
 30
0.000000
  0
VERTEX
  8
1
 10
1.190000
 20
0.830000
 30
0.000000
  0
SEQEND
  8
0
  0
POLYLINE
  8
1
 66
1
 10
0.000000
 20
0.000000
 30
0.000000
 40
0.012000
 41
0.012000
 70
0
  0
VERTEX
  8
1
 10
1.194243
 20
0.825757
 30
0.000000
 42
1.000000
  0
VERTEX
  8
1
 10
1.185757
 20
0.834243
 30
0.000000
  0
SEQEND
  8
0
  0
POLYLINE
  8
1
 66
1
 10
0.000000
 20
0.000000
 30
0.000000
 40
0.012000
 41
0.012000
 70
0
  0
VERTEX
  8
1
 10
1.180757
 20
0.829243
 30
0.000000
 42
1.000000
  0
VERTEX
  8
1
 10
1.189243
 20
0.820757
 30
0.000000
  0
SEQEND
  8
0
  0
POLYLINE
  8
1
 66
1
 10
0.000000
 20
0.000000
 30
0.000000
 40
0.024000
 41
0.024000
 70
0
  0
VERTEX
  8
1
 10
1.380000
 20
0.555000
 30
0.000000
  0
VERTEX
  8
1
 10
1.380000
 20
0.915000
 30
0.000000
  0
SEQEND
  8
0
  0
POLYLINE
  8
1
 66
1
 10
0.000000
 20
0.000000
 30
0.000000
 40
0.012000
 41
0.012000
 70
0
  0
VERTEX
  8
1
 10
1.386000
 20
0.915000
 30
0.000000
 42
1.000000
  0
VERTEX
  8
1
 10
1.374000
 20
0.915000
 30
0.000000
  0
SEQEND
  8
0
  0
POLYLINE
  8
1
 66
1
 10
0.000000
 20
0.000000
 30
0.000000
 40
0.012000
 41
0.012000
 70
0
  0
VERTEX
  8
1
 10
1.374000
 20
0.555000
 30
0.000000
 42
1.000000
  0
VERTEX
  8
1
 10
1.386000
 20
0.555000
 30
0.000000
  0
SEQEND
  8
0
  0
POLYLINE
  8
1
 66
1
 10
0.000000
 20
0.000000
 30
0.000000
 40
0.024000
 41
0.024000
 70
0
  0
VERTEX
  8
1
 10
1.380000
 20
0.915000
 30
0.000000
  0
VERTEX
  8
1
 10
1.290000
 20
1.005000
 30
0.000000
  0
SEQEND
  8
0
  0
POLYLINE
  8
1
 66
1
 10
0.000000
 20
0.000000
 30
0.000000
 40
0.012000
 41
0.012000
 70
0
  0
VERTEX
  8
1
 10
1.294243
 20
1.009243
 30
0.000000
 42
1.000000
  0
VERTEX
  8
1
 10
1.285757
 20
1.000757
 30
0.000000
  0
SEQEND
  8
0
  0
POLYLINE
  8
1
 66
1
 10
0.000000
 20
0.000000
 30
0.000000
 40
0.012000
 41
0.012000
 70
0
  0
VERTEX
  8
1
 10
1.375757
 20
0.910757
 30
0.000000
 42
1.000000
  0
VERTEX
  8
1
 10
1.384243
 20
0.919243
 30
0.000000
  0
SEQEND
  8
0
  0
POLYLINE
  8
1
 66
1
 10
0.000000
 20
0.000000
 30
0.000000
 40
0.024000
 41
0.024000
 70
0
  0
VERTEX
  8
1
 10
1.290000
 20
1.005000
 30
0.000000
  0
VERTEX
  8
1
 10
1.295000
 20
1.035000
 30
0.000000
  0
SEQEND
  8
0
  0
POLYLINE
  8
1
 66
1
 10
0.000000
 20
0.000000
 30
0.000000
 40
0.012000
 41
0.012000
 70
0
  0
VERTEX
  8
1
 10
1.300918
 20
1.034014
 30
0.000000
 42
1.000000
  0
VERTEX
  8
1
 10
1.289082
 20
1.035986
 30
0.000000
  0
SEQEND
  8
0
  0
POLYLINE
  8
1
 66
1
 10
0.000000
 20
0.000000
 30
0.000000
 40
0.012000
 41
0.012000
 70
0
  0
VERTEX
  8
1
 10
1.284082
 20
1.005986
 30
0.000000
 42
1.000000
  0
VERTEX
  8
1
 10
1.295918
 20
1.004014
 30
0.000000
  0
SEQEND
  8
0
  0
POLYLINE
  8
1
 66
1
 10
0.000000
 20
0.000000
 30
0.000000
 40
0.024000
 41
0.024000
 70
0
  0
VERTEX
  8
1
 10
1.240000
 20
0.415000
 30
0.000000
  0
VERTEX
  8
1
 10
1.380000
 20
0.555000
 30
0.000000
  0
SEQEND
  8
0
  0
POLYLINE
  8
1
 66
1
 10
0.000000
 20
0.000000
 30
0.000000
 40
0.012000
 41
0.012000
 70
0
  0
VERTEX
  8
1
 10
1.384243
 20
0.550757
 30
0.000000
 42
1.000000
  0
VERTEX
  8
1
 10
1.375757
 20
0.559243
 30
0.000000
  0
SEQEND
  8
0
  0
POLYLINE
  8
1
 66
1
 10
0.000000
 20
0.000000
 30
0.000000
 40
0.012000
 41
0.012000
 70
0
  0
VERTEX
  8
1
 10
1.235757
 20
0.419243
 30
0.000000
 42
1.000000
  0
VERTEX
  8
1
 10
1.244243
 20
0.410757
 30
0.000000
  0
SEQEND
  8
0
  0
POLYLINE
  8
1
 66
1
 10
0.000000
 20
0.000000
 30
0.000000
 40
0.024000
 41
0.024000
 70
0
  0
VERTEX
  8
1
 10
0.735945
 20
0.780000
 30
0.000000
  0
VERTEX
  8
1
 10
0.735000
 20
0.760000
 30
0.000000
  0
SEQEND
  8
0
  0
POLYLINE
  8
1
 66
1
 10
0.000000
 20
0.000000
 30
0.000000
 40
0.012000
 41
0.012000
 70
0
  0
VERTEX
  8
1
 10
0.729007
 20
0.760283
 30
0.000000
 42
1.000000
  0
VERTEX
  8
1
 10
0.740993
 20
0.759717
 30
0.000000
  0
SEQEND
  8
0
  0
POLYLINE
  8
1
 66
1
 10
0.000000
 20
0.000000
 30
0.000000
 40
0.012000
 41
0.012000
 70
0
  0
VERTEX
  8
1
 10
0.741938
 20
0.779717
 30
0.000000
 42
1.000000
  0
VERTEX
  8
1
 10
0.729952
 20
0.780283
 30
0.000000
  0
SEQEND
  8
0
  0
POLYLINE
  8
1
 66
1
 10
0.000000
 20
0.000000
 30
0.000000
 40
0.024000
 41
0.024000
 70
0
  0
VERTEX
  8
1
 10
0.750000
 20
0.764055
 30
0.000000
  0
VERTEX
  8
1
 10
0.735945
 20
0.780000
 30
0.000000
  0
SEQEND
  8
0
  0
POLYLINE
  8
1
 66
1
 10
0.000000
 20
0.000000
 30
0.000000
 40
0.012000
 41
0.012000
 70
0
  0
VERTEX
  8
1
 10
0.740446
 20
0.783968
 30
0.000000
 42
1.000000
  0
VERTEX
  8
1
 10
0.731444
 20
0.776032
 30
0.000000
  0
SEQEND
  8
0
  0
POLYLINE
  8
1
 66
1
 10
0.000000
 20
0.000000
 30
0.000000
 40
0.012000
 41
0.012000
 70
0
  0
VERTEX
  8
1
 10
0.745499
 20
0.760088
 30
0.000000
 42
1.000000
  0
VERTEX
  8
1
 10
0.754501
 20
0.768023
 30
0.000000
  0
SEQEND
  8
0
  0
POLYLINE
  8
1
 66
1
 10
0.000000
 20
0.000000
 30
0.000000
 40
0.024000
 41
0.024000
 70
0
  0
VERTEX
  8
1
 10
0.735000
 20
0.854008
 30
0.000000
  0
VERTEX
  8
1
 10
0.739008
 20
0.878016
 30
0.000000
  0
SEQEND
  8
0
  0
POLYLINE
  8
1
 66
1
 10
0.000000
 20
0.000000
 30
0.000000
 40
0.012000
 41
0.012000
 70
0
  0
VERTEX
  8
1
 10
0.744926
 20
0.877028
 30
0.000000
 42
1.000000
  0
VERTEX
  8
1
 10
0.733090
 20
0.879004
 30
0.000000
  0
SEQEND
  8
0
  0
POLYLINE
  8
1
 66
1
 10
0.000000
 20
0.000000
 30
0.000000
 40
0.012000
 41
0.012000
 70
0
  0
VERTEX
  8
1
 10
0.729082
 20
0.854996
 30
0.000000
 42
1.000000
  0
VERTEX
  8
1
 10
0.740918
 20
0.853020
 30
0.000000
  0
SEQEND
  8
0
  0
POLYLINE
  8
1
 66
1
 10
0.000000
 20
0.000000
 30
0.000000
 40
0.024000
 41
0.024000
 70
0
  0
VERTEX
  8
1
 10
0.735000
 20
0.760000
 30
0.000000
  0
VERTEX
  8
1
 10
0.735000
 20
0.854008
 30
0.000000
  0
SEQEND
  8
0
  0
POLYLINE
  8
1
 66
1
 10
0.000000
 20
0.000000
 30
0.000000
 40
0.012000
 41
0.012000
 70
0
  0
VERTEX
  8
1
 10
0.741000
 20
0.854008
 30
0.000000
 42
1.000000
  0
VERTEX
  8
1
 10
0.729000
 20
0.854008
 30
0.000000
  0
SEQEND
  8
0
  0
POLYLINE
  8
1
 66
1
 10
0.000000
 20
0.000000
 30
0.000000
 40
0.012000
 41
0.012000
 70
0
  0
VERTEX
  8
1
 10
0.729000
 20
0.760000
 30
0.000000
 42
1.000000
  0
VERTEX
  8
1
 10
0.741000
 20
0.760000
 30
0.000000
  0
SEQEND
  8
0
  0
POLYLINE
  8
1
 66
1
 10
0.000000
 20
0.000000
 30
0.000000
 40
0.024000
 41
0.024000
 70
0
  0
VERTEX
  8
1
 10
1.430000
 20
0.965000
 30
0.000000
  0
VERTEX
  8
1
 10
1.395000
 20
1.035000
 30
0.000000
  0
SEQEND
  8
0
  0
POLYLINE
  8
1
 66
1
 10
0.000000
 20
0.000000
 30
0.000000
 40
0.012000
 41
0.012000
 70
0
  0
VERTEX
  8
1
 10
1.400367
 20
1.037683
 30
0.000000
 42
1.000000
  0
VERTEX
  8
1
 10
1.389633
 20
1.032317
 30
0.000000
  0
SEQEND
  8
0
  0
POLYLINE
  8
1
 66
1
 10
0.000000
 20
0.000000
 30
0.000000
 40
0.012000
 41
0.012000
 70
0
  0
VERTEX
  8
1
 10
1.424633
 20
0.962317
 30
0.000000
 42
1.000000
  0
VERTEX
  8
1
 10
1.435367
 20
0.967683
 30
0.000000
  0
SEQEND
  8
0
  0
POLYLINE
  8
1
 66
1
 10
0.000000
 20
0.000000
 30
0.000000
 40
0.024000
 41
0.024000
 70
0
  0
VERTEX
  8
1
 10
1.430000
 20
0.125000
 30
0.000000
  0
VERTEX
  8
1
 10
1.430000
 20
0.965000
 30
0.000000
  0
SEQEND
  8
0
  0
POLYLINE
  8
1
 66
1
 10
0.000000
 20
0.000000
 30
0.000000
 40
0.012000
 41
0.012000
 70
0
  0
VERTEX
  8
1
 10
1.436000
 20
0.965000
 30
0.000000
 42
1.000000
  0
VERTEX
  8
1
 10
1.424000
 20
0.965000
 30
0.000000
  0
SEQEND
  8
0
  0
POLYLINE
  8
1
 66
1
 10
0.000000
 20
0.000000
 30
0.000000
 40
0.012000
 41
0.012000
 70
0
  0
VERTEX
  8
1
 10
1.424000
 20
0.125000
 30
0.000000
 42
1.000000
  0
VERTEX
  8
1
 10
1.436000
 20
0.125000
 30
0.000000
  0
SEQEND
  8
0
  0
POLYLINE
  8
1
 66
1
 10
0.000000
 20
0.000000
 30
0.000000
 40
0.024000
 41
0.024000
 70
0
  0
VERTEX
  8
1
 10
1.360000
 20
0.055000
 30
0.000000
  0
VERTEX
  8
1
 10
1.430000
 20
0.125000
 30
0.000000
  0
SEQEND
  8
0
  0
POLYLINE
  8
1
 66
1
 10
0.000000
 20
0.000000
 30
0.000000
 40
0.012000
 41
0.012000
 70
0
  0
VERTEX
  8
1
 10
1.434243
 20
0.120757
 30
0.000000
 42
1.000000
  0
VERTEX
  8
1
 10
1.425757
 20
0.129243
 30
0.000000
  0
SEQEND
  8
0
  0
POLYLINE
  8
1
 66
1
 10
0.000000
 20
0.000000
 30
0.000000
 40
0.012000
 41
0.012000
 70
0
  0
VERTEX
  8
1
 10
1.355757
 20
0.059243
 30
0.000000
 42
1.000000
  0
VERTEX
  8
1
 10
1.364243
 20
0.050757
 30
0.000000
  0
SEQEND
  8
0
  0
POLYLINE
  8
1
 66
1
 10
0.000000
 20
0.000000
 30
0.000000
 40
0.024000
 41
0.024000
 70
0
  0
VERTEX
  8
1
 10
1.090000
 20
0.055000
 30
0.000000
  0
VERTEX
  8
1
 10
1.360000
 20
0.055000
 30
0.000000
  0
SEQEND
  8
0
  0
POLYLINE
  8
1
 66
1
 10
0.000000
 20
0.000000
 30
0.000000
 40
0.012000
 41
0.012000
 70
0
  0
VERTEX
  8
1
 10
1.360000
 20
0.049000
 30
0.000000
 42
1.000000
  0
VERTEX
  8
1
 10
1.360000
 20
0.061000
 30
0.000000
  0
SEQEND
  8
0
  0
POLYLINE
  8
1
 66
1
 10
0.000000
 20
0.000000
 30
0.000000
 40
0.012000
 41
0.012000
 70
0
  0
VERTEX
  8
1
 10
1.090000
 20
0.061000
 30
0.000000
 42
1.000000
  0
VERTEX
  8
1
 10
1.090000
 20
0.049000
 30
0.000000
  0
SEQEND
  8
0
  0
POLYLINE
  8
1
 66
1
 10
0.000000
 20
0.000000
 30
0.000000
 40
0.024000
 41
0.024000
 70
0
  0
VERTEX
  8
1
 10
0.750000
 20
0.775000
 30
0.000000
  0
VERTEX
  8
1
 10
0.750000
 20
0.764055
 30
0.000000
  0
SEQEND
  8
0
  0
POLYLINE
  8
1
 66
1
 10
0.000000
 20
0.000000
 30
0.000000
 40
0.012000
 41
0.012000
 70
0
  0
VERTEX
  8
1
 10
0.744000
 20
0.764055
 30
0.000000
 42
1.000000
  0
VERTEX
  8
1
 10
0.756000
 20
0.764055
 30
0.000000
  0
SEQEND
  8
0
  0
POLYLINE
  8
1
 66
1
 10
0.000000
 20
0.000000
 30
0.000000
 40
0.012000
 41
0.012000
 70
0
  0
VERTEX
  8
1
 10
0.756000
 20
0.775000
 30
0.000000
 42
1.000000
  0
VERTEX
  8
1
 10
0.744000
 20
0.775000
 30
0.000000
  0
SEQEND
  8
0
  0
POLYLINE
  8
1
 66
1
 10
0.000000
 20
0.000000
 30
0.000000
 40
0.024000
 41
0.024000
 70
0
  0
VERTEX
  8
1
 10
0.750000
 20
0.764055
 30
0.000000
  0
VERTEX
  8
1
 10
0.759055
 20
0.775000
 30
0.000000
  0
SEQEND
  8
0
  0
POLYLINE
  8
1
 66
1
 10
0.000000
 20
0.000000
 30
0.000000
 40
0.012000
 41
0.012000
 70
0
  0
VERTEX
  8
1
 10
0.763678
 20
0.771175
 30
0.000000
 42
1.000000
  0
VERTEX
  8
1
 10
0.754432
 20
0.778825
 30
0.000000
  0
SEQEND
  8
0
  0
POLYLINE
  8
1
 66
1
 10
0.000000
 20
0.000000
 30
0.000000
 40
0.012000
 41
0.012000
 70
0
  0
VERTEX
  8
1
 10
0.745377
 20
0.767880
 30
0.000000
 42
1.000000
  0
VERTEX
  8
1
 10
0.754623
 20
0.760230
 30
0.000000
  0
SEQEND
  8
0
  0
POLYLINE
  8
1
 66
1
 10
0.000000
 20
0.000000
 30
0.000000
 40
0.024000
 41
0.024000
 70
0
  0
VERTEX
  8
1
 10
0.640000
 20
0.775000
 30
0.000000
  0
VERTEX
  8
1
 10
0.750000
 20
0.775000
 30
0.000000
  0
SEQEND
  8
0
  0
POLYLINE
  8
1
 66
1
 10
0.000000
 20
0.000000
 30
0.000000
 40
0.012000
 41
0.012000
 70
0
  0
VERTEX
  8
1
 10
0.750000
 20
0.769000
 30
0.000000
 42
1.000000
  0
VERTEX
  8
1
 10
0.750000
 20
0.781000
 30
0.000000
  0
SEQEND
  8
0
  0
POLYLINE
  8
1
 66
1
 10
0.000000
 20
0.000000
 30
0.000000
 40
0.012000
 41
0.012000
 70
0
  0
VERTEX
  8
1
 10
0.640000
 20
0.781000
 30
0.000000
 42
1.000000
  0
VERTEX
  8
1
 10
0.640000
 20
0.769000
 30
0.000000
  0
SEQEND
  8
0
  0
POLYLINE
  8
1
 66
1
 10
0.000000
 20
0.000000
 30
0.000000
 40
0.024000
 41
0.024000
 70
0
  0
VERTEX
  8
1
 10
0.750000
 20
0.775000
 30
0.000000
  0
VERTEX
  8
1
 10
0.759055
 20
0.775000
 30
0.000000
  0
SEQEND
  8
0
  0
POLYLINE
  8
1
 66
1
 10
0.000000
 20
0.000000
 30
0.000000
 40
0.012000
 41
0.012000
 70
0
  0
VERTEX
  8
1
 10
0.759055
 20
0.769000
 30
0.000000
 42
1.000000
  0
VERTEX
  8
1
 10
0.759055
 20
0.781000
 30
0.000000
  0
SEQEND
  8
0
  0
POLYLINE
  8
1
 66
1
 10
0.000000
 20
0.000000
 30
0.000000
 40
0.012000
 41
0.012000
 70
0
  0
VERTEX
  8
1
 10
0.750000
 20
0.781000
 30
0.000000
 42
1.000000
  0
VERTEX
  8
1
 10
0.750000
 20
0.769000
 30
0.000000
  0
SEQEND
  8
0
  0
POLYLINE
  8
1
 66
1
 10
0.000000
 20
0.000000
 30
0.000000
 40
0.024000
 41
0.024000
 70
0
  0
VERTEX
  8
1
 10
0.530000
 20
0.885000
 30
0.000000
  0
VERTEX
  8
1
 10
0.640000
 20
0.775000
 30
0.000000
  0
SEQEND
  8
0
  0
POLYLINE
  8
1
 66
1
 10
0.000000
 20
0.000000
 30
0.000000
 40
0.012000
 41
0.012000
 70
0
  0
VERTEX
  8
1
 10
0.635757
 20
0.770757
 30
0.000000
 42
1.000000
  0
VERTEX
  8
1
 10
0.644243
 20
0.779243
 30
0.000000
  0
SEQEND
  8
0
  0
POLYLINE
  8
1
 66
1
 10
0.000000
 20
0.000000
 30
0.000000
 40
0.012000
 41
0.012000
 70
0
  0
VERTEX
  8
1
 10
0.534243
 20
0.889243
 30
0.000000
 42
1.000000
  0
VERTEX
  8
1
 10
0.525757
 20
0.880757
 30
0.000000
  0
SEQEND
  8
0
  0
POLYLINE
  8
1
 66
1
 10
0.000000
 20
0.000000
 30
0.000000
 40
0.024000
 41
0.024000
 70
0
  0
VERTEX
  8
1
 10
0.530000
 20
1.055000
 30
0.000000
  0
VERTEX
  8
1
 10
0.530000
 20
0.885000
 30
0.000000
  0
SEQEND
  8
0
  0
POLYLINE
  8
1
 66
1
 10
0.000000
 20
0.000000
 30
0.000000
 40
0.012000
 41
0.012000
 70
0
  0
VERTEX
  8
1
 10
0.524000
 20
0.885000
 30
0.000000
 42
1.000000
  0
VERTEX
  8
1
 10
0.536000
 20
0.885000
 30
0.000000
  0
SEQEND
  8
0
  0
POLYLINE
  8
1
 66
1
 10
0.000000
 20
0.000000
 30
0.000000
 40
0.012000
 41
0.012000
 70
0
  0
VERTEX
  8
1
 10
0.536000
 20
1.055000
 30
0.000000
 42
1.000000
  0
VERTEX
  8
1
 10
0.524000
 20
1.055000
 30
0.000000
  0
SEQEND
  8
0
  0
POLYLINE
  8
1
 66
1
 10
0.000000
 20
0.000000
 30
0.000000
 40
0.024000
 41
0.024000
 70
0
  0
VERTEX
  8
1
 10
0.550000
 20
1.075000
 30
0.000000
  0
VERTEX
  8
1
 10
0.530000
 20
1.055000
 30
0.000000
  0
SEQEND
  8
0
  0
POLYLINE
  8
1
 66
1
 10
0.000000
 20
0.000000
 30
0.000000
 40
0.012000
 41
0.012000
 70
0
  0
VERTEX
  8
1
 10
0.525757
 20
1.059243
 30
0.000000
 42
1.000000
  0
VERTEX
  8
1
 10
0.534243
 20
1.050757
 30
0.000000
  0
SEQEND
  8
0
  0
POLYLINE
  8
1
 66
1
 10
0.000000
 20
0.000000
 30
0.000000
 40
0.012000
 41
0.012000
 70
0
  0
VERTEX
  8
1
 10
0.554243
 20
1.070757
 30
0.000000
 42
1.000000
  0
VERTEX
  8
1
 10
0.545757
 20
1.079243
 30
0.000000
  0
SEQEND
  8
0
  0
POLYLINE
  8
1
 66
1
 10
0.000000
 20
0.000000
 30
0.000000
 40
0.024000
 41
0.024000
 70
0
  0
VERTEX
  8
1
 10
1.355000
 20
1.135000
 30
0.000000
  0
VERTEX
  8
1
 10
1.060000
 20
1.135000
 30
0.000000
  0
SEQEND
  8
0
  0
POLYLINE
  8
1
 66
1
 10
0.000000
 20
0.000000
 30
0.000000
 40
0.012000
 41
0.012000
 70
0
  0
VERTEX
  8
1
 10
1.060000
 20
1.141000
 30
0.000000
 42
1.000000
  0
VERTEX
  8
1
 10
1.060000
 20
1.129000
 30
0.000000
  0
SEQEND
  8
0
  0
POLYLINE
  8
1
 66
1
 10
0.000000
 20
0.000000
 30
0.000000
 40
0.012000
 41
0.012000
 70
0
  0
VERTEX
  8
1
 10
1.355000
 20
1.129000
 30
0.000000
 42
1.000000
  0
VERTEX
  8
1
 10
1.355000
 20
1.141000
 30
0.000000
  0
SEQEND
  8
0
  0
POLYLINE
  8
1
 66
1
 10
0.000000
 20
0.000000
 30
0.000000
 40
0.024000
 41
0.024000
 70
0
  0
VERTEX
  8
1
 10
1.060000
 20
1.135000
 30
0.000000
  0
VERTEX
  8
1
 10
1.000000
 20
1.075000
 30
0.000000
  0
SEQEND
  8
0
  0
POLYLINE
  8
1
 66
1
 10
0.000000
 20
0.000000
 30
0.000000
 40
0.012000
 41
0.012000
 70
0
  0
VERTEX
  8
1
 10
0.995757
 20
1.079243
 30
0.000000
 42
1.000000
  0
VERTEX
  8
1
 10
1.004243
 20
1.070757
 30
0.000000
  0
SEQEND
  8
0
  0
POLYLINE
  8
1
 66
1
 10
0.000000
 20
0.000000
 30
0.000000
 40
0.012000
 41
0.012000
 70
0
  0
VERTEX
  8
1
 10
1.064243
 20
1.130757
 30
0.000000
 42
1.000000
  0
VERTEX
  8
1
 10
1.055757
 20
1.139243
 30
0.000000
  0
SEQEND
  8
0
  0
POLYLINE
  8
1
 66
1
 10
0.000000
 20
0.000000
 30
0.000000
 40
0.024000
 41
0.024000
 70
0
  0
VERTEX
  8
1
 10
1.000000
 20
1.075000
 30
0.000000
  0
VERTEX
  8
1
 10
0.550000
 20
1.075000
 30
0.000000
  0
SEQEND
  8
0
  0
POLYLINE
  8
1
 66
1
 10
0.000000
 20
0.000000
 30
0.000000
 40
0.012000
 41
0.012000
 70
0
  0
VERTEX
  8
1
 10
0.550000
 20
1.081000
 30
0.000000
 42
1.000000
  0
VERTEX
  8
1
 10
0.550000
 20
1.069000
 30
0.000000
  0
SEQEND
  8
0
  0
POLYLINE
  8
1
 66
1
 10
0.000000
 20
0.000000
 30
0.000000
 40
0.012000
 41
0.012000
 70
0
  0
VERTEX
  8
1
 10
1.000000
 20
1.069000
 30
0.000000
 42
1.000000
  0
VERTEX
  8
1
 10
1.000000
 20
1.081000
 30
0.000000
  0
SEQEND
  8
0
  0
POLYLINE
  8
1
 66
1
 10
0.000000
 20
0.000000
 30
0.000000
 40
0.024000
 41
0.024000
 70
0
  0
VERTEX
  8
1
 10
1.395000
 20
1.095000
 30
0.000000
  0
VERTEX
  8
1
 10
1.355000
 20
1.135000
 30
0.000000
  0
SEQEND
  8
0
  0
POLYLINE
  8
1
 66
1
 10
0.000000
 20
0.000000
 30
0.000000
 40
0.012000
 41
0.012000
 70
0
  0
VERTEX
  8
1
 10
1.359243
 20
1.139243
 30
0.000000
 42
1.000000
  0
VERTEX
  8
1
 10
1.350757
 20
1.130757
 30
0.000000
  0
SEQEND
  8
0
  0
POLYLINE
  8
1
 66
1
 10
0.000000
 20
0.000000
 30
0.000000
 40
0.012000
 41
0.012000
 70
0
  0
VERTEX
  8
1
 10
1.390757
 20
1.090757
 30
0.000000
 42
1.000000
  0
VERTEX
  8
1
 10
1.399243
 20
1.099243
 30
0.000000
  0
SEQEND
  8
0
  0
POLYLINE
  8
1
 66
1
 10
0.000000
 20
0.000000
 30
0.000000
 40
0.024000
 41
0.024000
 70
0
  0
VERTEX
  8
1
 10
1.395000
 20
1.035000
 30
0.000000
  0
VERTEX
  8
1
 10
1.395000
 20
1.095000
 30
0.000000
  0
SEQEND
  8
0
  0
POLYLINE
  8
1
 66
1
 10
0.000000
 20
0.000000
 30
0.000000
 40
0.012000
 41
0.012000
 70
0
  0
VERTEX
  8
1
 10
1.401000
 20
1.095000
 30
0.000000
 42
1.000000
  0
VERTEX
  8
1
 10
1.389000
 20
1.095000
 30
0.000000
  0
SEQEND
  8
0
  0
POLYLINE
  8
1
 66
1
 10
0.000000
 20
0.000000
 30
0.000000
 40
0.012000
 41
0.012000
 70
0
  0
VERTEX
  8
1
 10
1.389000
 20
1.035000
 30
0.000000
 42
1.000000
  0
VERTEX
  8
1
 10
1.401000
 20
1.035000
 30
0.000000
  0
SEQEND
  8
0
  0
POLYLINE
  8
1
 66
1
 10
0.000000
 20
0.000000
 30
0.000000
 40
0.024000
 41
0.024000
 70
0
  0
VERTEX
  8
1
 10
1.070000
 20
0.055000
 30
0.000000
  0
VERTEX
  8
1
 10
1.090000
 20
0.055000
 30
0.000000
  0
SEQEND
  8
0
  0
POLYLINE
  8
1
 66
1
 10
0.000000
 20
0.000000
 30
0.000000
 40
0.012000
 41
0.012000
 70
0
  0
VERTEX
  8
1
 10
1.090000
 20
0.049000
 30
0.000000
 42
1.000000
  0
VERTEX
  8
1
 10
1.090000
 20
0.061000
 30
0.000000
  0
SEQEND
  8
0
  0
POLYLINE
  8
1
 66
1
 10
0.000000
 20
0.000000
 30
0.000000
 40
0.012000
 41
0.012000
 70
0
  0
VERTEX
  8
1
 10
1.070000
 20
0.061000
 30
0.000000
 42
1.000000
  0
VERTEX
  8
1
 10
1.070000
 20
0.049000
 30
0.000000
  0
SEQEND
  8
0
  0
POLYLINE
  8
1
 66
1
 10
0.000000
 20
0.000000
 30
0.000000
 40
0.024000
 41
0.024000
 70
0
  0
VERTEX
  8
1
 10
1.090000
 20
0.055000
 30
0.000000
  0
VERTEX
  8
1
 10
1.080000
 20
0.050000
 30
0.000000
  0
SEQEND
  8
0
  0
POLYLINE
  8
1
 66
1
 10
0.000000
 20
0.000000
 30
0.000000
 40
0.012000
 41
0.012000
 70
0
  0
VERTEX
  8
1
 10
1.077317
 20
0.055367
 30
0.000000
 42
1.000000
  0
VERTEX
  8
1
 10
1.082683
 20
0.044633
 30
0.000000
  0
SEQEND
  8
0
  0
POLYLINE
  8
1
 66
1
 10
0.000000
 20
0.000000
 30
0.000000
 40
0.012000
 41
0.012000
 70
0
  0
VERTEX
  8
1
 10
1.092683
 20
0.049633
 30
0.000000
 42
1.000000
  0
VERTEX
  8
1
 10
1.087317
 20
0.060367
 30
0.000000
  0
SEQEND
  8
0
  0
POLYLINE
  8
1
 66
1
 10
0.000000
 20
0.000000
 30
0.000000
 40
0.024000
 41
0.024000
 70
0
  0
VERTEX
  8
1
 10
1.080000
 20
0.050000
 30
0.000000
  0
VERTEX
  8
1
 10
1.010000
 20
0.120000
 30
0.000000
  0
SEQEND
  8
0
  0
POLYLINE
  8
1
 66
1
 10
0.000000
 20
0.000000
 30
0.000000
 40
0.012000
 41
0.012000
 70
0
  0
VERTEX
  8
1
 10
1.014243
 20
0.124243
 30
0.000000
 42
1.000000
  0
VERTEX
  8
1
 10
1.005757
 20
0.115757
 30
0.000000
  0
SEQEND
  8
0
  0
POLYLINE
  8
1
 66
1
 10
0.000000
 20
0.000000
 30
0.000000
 40
0.012000
 41
0.012000
 70
0
  0
VERTEX
  8
1
 10
1.075757
 20
0.045757
 30
0.000000
 42
1.000000
  0
VERTEX
  8
1
 10
1.084243
 20
0.054243
 30
0.000000
  0
SEQEND
  8
0
  0
POLYLINE
  8
1
 66
1
 10
0.000000
 20
0.000000
 30
0.000000
 40
0.024000
 41
0.024000
 70
0
  0
VERTEX
  8
1
 10
1.010000
 20
0.120000
 30
0.000000
  0
VERTEX
  8
1
 10
1.010000
 20
0.290000
 30
0.000000
  0
SEQEND
  8
0
  0
POLYLINE
  8
1
 66
1
 10
0.000000
 20
0.000000
 30
0.000000
 40
0.012000
 41
0.012000
 70
0
  0
VERTEX
  8
1
 10
1.016000
 20
0.290000
 30
0.000000
 42
1.000000
  0
VERTEX
  8
1
 10
1.004000
 20
0.290000
 30
0.000000
  0
SEQEND
  8
0
  0
POLYLINE
  8
1
 66
1
 10
0.000000
 20
0.000000
 30
0.000000
 40
0.012000
 41
0.012000
 70
0
  0
VERTEX
  8
1
 10
1.004000
 20
0.120000
 30
0.000000
 42
1.000000
  0
VERTEX
  8
1
 10
1.016000
 20
0.120000
 30
0.000000
  0
SEQEND
  8
0
  0
POLYLINE
  8
1
 66
1
 10
0.000000
 20
0.000000
 30
0.000000
 40
0.024000
 41
0.024000
 70
0
  0
VERTEX
  8
1
 10
1.010000
 20
0.290000
 30
0.000000
  0
VERTEX
  8
1
 10
0.915000
 20
0.385000
 30
0.000000
  0
SEQEND
  8
0
  0
POLYLINE
  8
1
 66
1
 10
0.000000
 20
0.000000
 30
0.000000
 40
0.012000
 41
0.012000
 70
0
  0
VERTEX
  8
1
 10
0.919243
 20
0.389243
 30
0.000000
 42
1.000000
  0
VERTEX
  8
1
 10
0.910757
 20
0.380757
 30
0.000000
  0
SEQEND
  8
0
  0
POLYLINE
  8
1
 66
1
 10
0.000000
 20
0.000000
 30
0.000000
 40
0.012000
 41
0.012000
 70
0
  0
VERTEX
  8
1
 10
1.005757
 20
0.285757
 30
0.000000
 42
1.000000
  0
VERTEX
  8
1
 10
1.014243
 20
0.294243
 30
0.000000
  0
SEQEND
  8
0
  0
POLYLINE
  8
1
 66
1
 10
0.000000
 20
0.000000
 30
0.000000
 40
0.024000
 41
0.024000
 70
0
  0
VERTEX
  8
1
 10
0.915000
 20
0.385000
 30
0.000000
  0
VERTEX
  8
1
 10
0.915000
 20
0.467362
 30
0.000000
  0
SEQEND
  8
0
  0
POLYLINE
  8
1
 66
1
 10
0.000000
 20
0.000000
 30
0.000000
 40
0.012000
 41
0.012000
 70
0
  0
VERTEX
  8
1
 10
0.921000
 20
0.467362
 30
0.000000
 42
1.000000
  0
VERTEX
  8
1
 10
0.909000
 20
0.467362
 30
0.000000
  0
SEQEND
  8
0
  0
POLYLINE
  8
1
 66
1
 10
0.000000
 20
0.000000
 30
0.000000
 40
0.012000
 41
0.012000
 70
0
  0
VERTEX
  8
1
 10
0.909000
 20
0.385000
 30
0.000000
 42
1.000000
  0
VERTEX
  8
1
 10
0.921000
 20
0.385000
 30
0.000000
  0
SEQEND
  8
0
  0
POLYLINE
  8
1
 66
1
 10
0.000000
 20
0.000000
 30
0.000000
 40
0.024000
 41
0.024000
 70
0
  0
VERTEX
  8
1
 10
1.070000
 20
0.575000
 30
0.000000
  0
VERTEX
  8
1
 10
1.070000
 20
0.175000
 30
0.000000
  0
SEQEND
  8
0
  0
POLYLINE
  8
1
 66
1
 10
0.000000
 20
0.000000
 30
0.000000
 40
0.012000
 41
0.012000
 70
0
  0
VERTEX
  8
1
 10
1.064000
 20
0.175000
 30
0.000000
 42
1.000000
  0
VERTEX
  8
1
 10
1.076000
 20
0.175000
 30
0.000000
  0
SEQEND
  8
0
  0
POLYLINE
  8
1
 66
1
 10
0.000000
 20
0.000000
 30
0.000000
 40
0.012000
 41
0.012000
 70
0
  0
VERTEX
  8
1
 10
1.076000
 20
0.575000
 30
0.000000
 42
1.000000
  0
VERTEX
  8
1
 10
1.064000
 20
0.575000
 30
0.000000
  0
SEQEND
  8
0
  0
POLYLINE
  8
1
 66
1
 10
0.000000
 20
0.000000
 30
0.000000
 40
0.024000
 41
0.024000
 70
0
  0
VERTEX
  8
1
 10
1.070000
 20
0.575000
 30
0.000000
  0
VERTEX
  8
1
 10
1.070000
 20
0.655000
 30
0.000000
  0
SEQEND
  8
0
  0
POLYLINE
  8
1
 66
1
 10
0.000000
 20
0.000000
 30
0.000000
 40
0.012000
 41
0.012000
 70
0
  0
VERTEX
  8
1
 10
1.076000
 20
0.655000
 30
0.000000
 42
1.000000
  0
VERTEX
  8
1
 10
1.064000
 20
0.655000
 30
0.000000
  0
SEQEND
  8
0
  0
POLYLINE
  8
1
 66
1
 10
0.000000
 20
0.000000
 30
0.000000
 40
0.012000
 41
0.012000
 70
0
  0
VERTEX
  8
1
 10
1.064000
 20
0.575000
 30
0.000000
 42
1.000000
  0
VERTEX
  8
1
 10
1.076000
 20
0.575000
 30
0.000000
  0
SEQEND
  8
0
  0
POLYLINE
  8
1
 66
1
 10
0.000000
 20
0.000000
 30
0.000000
 40
0.024000
 41
0.024000
 70
0
  0
VERTEX
  8
1
 10
1.070000
 20
0.175000
 30
0.000000
  0
VERTEX
  8
1
 10
1.130000
 20
0.115000
 30
0.000000
  0
SEQEND
  8
0
  0
POLYLINE
  8
1
 66
1
 10
0.000000
 20
0.000000
 30
0.000000
 40
0.012000
 41
0.012000
 70
0
  0
VERTEX
  8
1
 10
1.125757
 20
0.110757
 30
0.000000
 42
1.000000
  0
VERTEX
  8
1
 10
1.134243
 20
0.119243
 30
0.000000
  0
SEQEND
  8
0
  0
POLYLINE
  8
1
 66
1
 10
0.000000
 20
0.000000
 30
0.000000
 40
0.012000
 41
0.012000
 70
0
  0
VERTEX
  8
1
 10
1.074243
 20
0.179243
 30
0.000000
 42
1.000000
  0
VERTEX
  8
1
 10
1.065757
 20
0.170757
 30
0.000000
  0
SEQEND
  8
0
  0
POLYLINE
  8
1
 66
1
 10
0.000000
 20
0.000000
 30
0.000000
 40
0.024000
 41
0.024000
 70
0
  0
VERTEX
  8
1
 10
1.130000
 20
0.115000
 30
0.000000
  0
VERTEX
  8
1
 10
1.300000
 20
0.115000
 30
0.000000
  0
SEQEND
  8
0
  0
POLYLINE
  8
1
 66
1
 10
0.000000
 20
0.000000
 30
0.000000
 40
0.012000
 41
0.012000
 70
0
  0
VERTEX
  8
1
 10
1.300000
 20
0.109000
 30
0.000000
 42
1.000000
  0
VERTEX
  8
1
 10
1.300000
 20
0.121000
 30
0.000000
  0
SEQEND
  8
0
  0
POLYLINE
  8
1
 66
1
 10
0.000000
 20
0.000000
 30
0.000000
 40
0.012000
 41
0.012000
 70
0
  0
VERTEX
  8
1
 10
1.130000
 20
0.121000
 30
0.000000
 42
1.000000
  0
VERTEX
  8
1
 10
1.130000
 20
0.109000
 30
0.000000
  0
SEQEND
  8
0
  0
POLYLINE
  8
1
 66
1
 10
0.000000
 20
0.000000
 30
0.000000
 40
0.024000
 41
0.024000
 70
0
  0
VERTEX
  8
1
 10
1.300000
 20
0.115000
 30
0.000000
  0
VERTEX
  8
1
 10
1.340000
 20
0.155000
 30
0.000000
  0
SEQEND
  8
0
  0
POLYLINE
  8
1
 66
1
 10
0.000000
 20
0.000000
 30
0.000000
 40
0.012000
 41
0.012000
 70
0
  0
VERTEX
  8
1
 10
1.344243
 20
0.150757
 30
0.000000
 42
1.000000
  0
VERTEX
  8
1
 10
1.335757
 20
0.159243
 30
0.000000
  0
SEQEND
  8
0
  0
POLYLINE
  8
1
 66
1
 10
0.000000
 20
0.000000
 30
0.000000
 40
0.012000
 41
0.012000
 70
0
  0
VERTEX
  8
1
 10
1.295757
 20
0.119243
 30
0.000000
 42
1.000000
  0
VERTEX
  8
1
 10
1.304243
 20
0.110757
 30
0.000000
  0
SEQEND
  8
0
  0
POLYLINE
  8
1
 66
1
 10
0.000000
 20
0.000000
 30
0.000000
 40
0.024000
 41
0.024000
 70
0
  0
VERTEX
  8
1
 10
1.340000
 20
0.155000
 30
0.000000
  0
VERTEX
  8
1
 10
1.340000
 20
0.265000
 30
0.000000
  0
SEQEND
  8
0
  0
POLYLINE
  8
1
 66
1
 10
0.000000
 20
0.000000
 30
0.000000
 40
0.012000
 41
0.012000
 70
0
  0
VERTEX
  8
1
 10
1.346000
 20
0.265000
 30
0.000000
 42
1.000000
  0
VERTEX
  8
1
 10
1.334000
 20
0.265000
 30
0.000000
  0
SEQEND
  8
0
  0
POLYLINE
  8
1
 66
1
 10
0.000000
 20
0.000000
 30
0.000000
 40
0.012000
 41
0.012000
 70
0
  0
VERTEX
  8
1
 10
1.334000
 20
0.155000
 30
0.000000
 42
1.000000
  0
VERTEX
  8
1
 10
1.346000
 20
0.155000
 30
0.000000
  0
SEQEND
  8
0
  0
POLYLINE
  8
1
 66
1
 10
0.000000
 20
0.000000
 30
0.000000
 40
0.024000
 41
0.024000
 70
0
  0
VERTEX
  8
1
 10
1.270000
 20
0.325000
 30
0.000000
  0
VERTEX
  8
1
 10
1.240000
 20
0.315000
 30
0.000000
  0
SEQEND
  8
0
  0
POLYLINE
  8
1
 66
1
 10
0.000000
 20
0.000000
 30
0.000000
 40
0.012000
 41
0.012000
 70
0
  0
VERTEX
  8
1
 10
1.238103
 20
0.320692
 30
0.000000
 42
1.000000
  0
VERTEX
  8
1
 10
1.241897
 20
0.309308
 30
0.000000
  0
SEQEND
  8
0
  0
POLYLINE
  8
1
 66
1
 10
0.000000
 20
0.000000
 30
0.000000
 40
0.012000
 41
0.012000
 70
0
  0
VERTEX
  8
1
 10
1.271897
 20
0.319308
 30
0.000000
 42
1.000000
  0
VERTEX
  8
1
 10
1.268103
 20
0.330692
 30
0.000000
  0
SEQEND
  8
0
  0
POLYLINE
  8
1
 66
1
 10
0.000000
 20
0.000000
 30
0.000000
 40
0.024000
 41
0.024000
 70
0
  0
VERTEX
  8
1
 10
1.340000
 20
0.265000
 30
0.000000
  0
VERTEX
  8
1
 10
1.280000
 20
0.325000
 30
0.000000
  0
SEQEND
  8
0
  0
POLYLINE
  8
1
 66
1
 10
0.000000
 20
0.000000
 30
0.000000
 40
0.012000
 41
0.012000
 70
0
  0
VERTEX
  8
1
 10
1.284243
 20
0.329243
 30
0.000000
 42
1.000000
  0
VERTEX
  8
1
 10
1.275757
 20
0.320757
 30
0.000000
  0
SEQEND
  8
0
  0
POLYLINE
  8
1
 66
1
 10
0.000000
 20
0.000000
 30
0.000000
 40
0.012000
 41
0.012000
 70
0
  0
VERTEX
  8
1
 10
1.335757
 20
0.260757
 30
0.000000
 42
1.000000
  0
VERTEX
  8
1
 10
1.344243
 20
0.269243
 30
0.000000
  0
SEQEND
  8
0
  0
POLYLINE
  8
1
 66
1
 10
0.000000
 20
0.000000
 30
0.000000
 40
0.024000
 41
0.024000
 70
0
  0
VERTEX
  8
1
 10
1.280000
 20
0.325000
 30
0.000000
  0
VERTEX
  8
1
 10
1.270000
 20
0.325000
 30
0.000000
  0
SEQEND
  8
0
  0
POLYLINE
  8
1
 66
1
 10
0.000000
 20
0.000000
 30
0.000000
 40
0.012000
 41
0.012000
 70
0
  0
VERTEX
  8
1
 10
1.270000
 20
0.331000
 30
0.000000
 42
1.000000
  0
VERTEX
  8
1
 10
1.270000
 20
0.319000
 30
0.000000
  0
SEQEND
  8
0
  0
POLYLINE
  8
1
 66
1
 10
0.000000
 20
0.000000
 30
0.000000
 40
0.012000
 41
0.012000
 70
0
  0
VERTEX
  8
1
 10
1.280000
 20
0.319000
 30
0.000000
 42
1.000000
  0
VERTEX
  8
1
 10
1.280000
 20
0.331000
 30
0.000000
  0
SEQEND
  8
0
  0
POLYLINE
  8
1
 66
1
 10
0.000000
 20
0.000000
 30
0.000000
 40
0.024000
 41
0.024000
 70
0
  0
VERTEX
  8
1
 10
0.765000
 20
0.467362
 30
0.000000
  0
VERTEX
  8
1
 10
0.765000
 20
0.540000
 30
0.000000
  0
SEQEND
  8
0
  0
POLYLINE
  8
1
 66
1
 10
0.000000
 20
0.000000
 30
0.000000
 40
0.012000
 41
0.012000
 70
0
  0
VERTEX
  8
1
 10
0.771000
 20
0.540000
 30
0.000000
 42
1.000000
  0
VERTEX
  8
1
 10
0.759000
 20
0.540000
 30
0.000000
  0
SEQEND
  8
0
  0
POLYLINE
  8
1
 66
1
 10
0.000000
 20
0.000000
 30
0.000000
 40
0.012000
 41
0.012000
 70
0
  0
VERTEX
  8
1
 10
0.759000
 20
0.467362
 30
0.000000
 42
1.000000
  0
VERTEX
  8
1
 10
0.771000
 20
0.467362
 30
0.000000
  0
SEQEND
  8
0
  0
POLYLINE
  8
1
 66
1
 10
0.000000
 20
0.000000
 30
0.000000
 40
0.024000
 41
0.024000
 70
0
  0
VERTEX
  8
1
 10
0.765000
 20
0.540000
 30
0.000000
  0
VERTEX
  8
1
 10
0.800000
 20
0.575000
 30
0.000000
  0
SEQEND
  8
0
  0
POLYLINE
  8
1
 66
1
 10
0.000000
 20
0.000000
 30
0.000000
 40
0.012000
 41
0.012000
 70
0
  0
VERTEX
  8
1
 10
0.804243
 20
0.570757
 30
0.000000
 42
1.000000
  0
VERTEX
  8
1
 10
0.795757
 20
0.579243
 30
0.000000
  0
SEQEND
  8
0
  0
POLYLINE
  8
1
 66
1
 10
0.000000
 20
0.000000
 30
0.000000
 40
0.012000
 41
0.012000
 70
0
  0
VERTEX
  8
1
 10
0.760757
 20
0.544243
 30
0.000000
 42
1.000000
  0
VERTEX
  8
1
 10
0.769243
 20
0.535757
 30
0.000000
  0
SEQEND
  8
0
  0
POLYLINE
  8
1
 66
1
 10
0.000000
 20
0.000000
 30
0.000000
 40
0.024000
 41
0.024000
 70
0
  0
VERTEX
  8
1
 10
0.800000
 20
0.575000
 30
0.000000
  0
VERTEX
  8
1
 10
1.070000
 20
0.575000
 30
0.000000
  0
SEQEND
  8
0
  0
POLYLINE
  8
1
 66
1
 10
0.000000
 20
0.000000
 30
0.000000
 40
0.012000
 41
0.012000
 70
0
  0
VERTEX
  8
1
 10
1.070000
 20
0.569000
 30
0.000000
 42
1.000000
  0
VERTEX
  8
1
 10
1.070000
 20
0.581000
 30
0.000000
  0
SEQEND
  8
0
  0
POLYLINE
  8
1
 66
1
 10
0.000000
 20
0.000000
 30
0.000000
 40
0.012000
 41
0.012000
 70
0
  0
VERTEX
  8
1
 10
0.800000
 20
0.581000
 30
0.000000
 42
1.000000
  0
VERTEX
  8
1
 10
0.800000
 20
0.569000
 30
0.000000
  0
SEQEND
  8
0
  0
POLYLINE
  8
1
 66
1
 10
0.000000
 20
0.000000
 30
0.000000
 40
0.024000
 41
0.024000
 70
0
  0
VERTEX
  8
1
 10
1.200000
 20
0.215000
 30
0.000000
  0
VERTEX
  8
1
 10
1.240000
 20
0.215000
 30
0.000000
  0
SEQEND
  8
0
  0
POLYLINE
  8
1
 66
1
 10
0.000000
 20
0.000000
 30
0.000000
 40
0.012000
 41
0.012000
 70
0
  0
VERTEX
  8
1
 10
1.240000
 20
0.209000
 30
0.000000
 42
1.000000
  0
VERTEX
  8
1
 10
1.240000
 20
0.221000
 30
0.000000
  0
SEQEND
  8
0
  0
POLYLINE
  8
1
 66
1
 10
0.000000
 20
0.000000
 30
0.000000
 40
0.012000
 41
0.012000
 70
0
  0
VERTEX
  8
1
 10
1.200000
 20
0.221000
 30
0.000000
 42
1.000000
  0
VERTEX
  8
1
 10
1.200000
 20
0.209000
 30
0.000000
  0
SEQEND
  8
0
  0
POLYLINE
  8
1
 66
1
 10
0.000000
 20
0.000000
 30
0.000000
 40
0.024000
 41
0.024000
 70
0
  0
VERTEX
  8
1
 10
1.130000
 20
0.285000
 30
0.000000
  0
VERTEX
  8
1
 10
1.200000
 20
0.215000
 30
0.000000
  0
SEQEND
  8
0
  0
POLYLINE
  8
1
 66
1
 10
0.000000
 20
0.000000
 30
0.000000
 40
0.012000
 41
0.012000
 70
0
  0
VERTEX
  8
1
 10
1.195757
 20
0.210757
 30
0.000000
 42
1.000000
  0
VERTEX
  8
1
 10
1.204243
 20
0.219243
 30
0.000000
  0
SEQEND
  8
0
  0
POLYLINE
  8
1
 66
1
 10
0.000000
 20
0.000000
 30
0.000000
 40
0.012000
 41
0.012000
 70
0
  0
VERTEX
  8
1
 10
1.134243
 20
0.289243
 30
0.000000
 42
1.000000
  0
VERTEX
  8
1
 10
1.125757
 20
0.280757
 30
0.000000
  0
SEQEND
  8
0
  0
POLYLINE
  8
1
 66
1
 10
0.000000
 20
0.000000
 30
0.000000
 40
0.024000
 41
0.024000
 70
0
  0
VERTEX
  8
1
 10
1.130000
 20
0.285000
 30
0.000000
  0
VERTEX
  8
1
 10
1.130000
 20
0.465000
 30
0.000000
  0
SEQEND
  8
0
  0
POLYLINE
  8
1
 66
1
 10
0.000000
 20
0.000000
 30
0.000000
 40
0.012000
 41
0.012000
 70
0
  0
VERTEX
  8
1
 10
1.136000
 20
0.465000
 30
0.000000
 42
1.000000
  0
VERTEX
  8
1
 10
1.124000
 20
0.465000
 30
0.000000
  0
SEQEND
  8
0
  0
POLYLINE
  8
1
 66
1
 10
0.000000
 20
0.000000
 30
0.000000
 40
0.012000
 41
0.012000
 70
0
  0
VERTEX
  8
1
 10
1.124000
 20
0.285000
 30
0.000000
 42
1.000000
  0
VERTEX
  8
1
 10
1.136000
 20
0.285000
 30
0.000000
  0
SEQEND
  8
0
  0
POLYLINE
  8
1
 66
1
 10
0.000000
 20
0.000000
 30
0.000000
 40
0.024000
 41
0.024000
 70
0
  0
VERTEX
  8
1
 10
1.130000
 20
0.465000
 30
0.000000
  0
VERTEX
  8
1
 10
1.325000
 20
0.660000
 30
0.000000
  0
SEQEND
  8
0
  0
POLYLINE
  8
1
 66
1
 10
0.000000
 20
0.000000
 30
0.000000
 40
0.012000
 41
0.012000
 70
0
  0
VERTEX
  8
1
 10
1.329243
 20
0.655757
 30
0.000000
 42
1.000000
  0
VERTEX
  8
1
 10
1.320757
 20
0.664243
 30
0.000000
  0
SEQEND
  8
0
  0
POLYLINE
  8
1
 66
1
 10
0.000000
 20
0.000000
 30
0.000000
 40
0.012000
 41
0.012000
 70
0
  0
VERTEX
  8
1
 10
1.125757
 20
0.469243
 30
0.000000
 42
1.000000
  0
VERTEX
  8
1
 10
1.134243
 20
0.460757
 30
0.000000
  0
SEQEND
  8
0
  0
POLYLINE
  8
1
 66
1
 10
0.000000
 20
0.000000
 30
0.000000
 40
0.024000
 41
0.024000
 70
0
  0
VERTEX
  8
1
 10
1.325000
 20
0.660000
 30
0.000000
  0
VERTEX
  8
1
 10
1.325000
 20
0.880000
 30
0.000000
  0
SEQEND
  8
0
  0
POLYLINE
  8
1
 66
1
 10
0.000000
 20
0.000000
 30
0.000000
 40
0.012000
 41
0.012000
 70
0
  0
VERTEX
  8
1
 10
1.331000
 20
0.880000
 30
0.000000
 42
1.000000
  0
VERTEX
  8
1
 10
1.319000
 20
0.880000
 30
0.000000
  0
SEQEND
  8
0
  0
POLYLINE
  8
1
 66
1
 10
0.000000
 20
0.000000
 30
0.000000
 40
0.012000
 41
0.012000
 70
0
  0
VERTEX
  8
1
 10
1.319000
 20
0.660000
 30
0.000000
 42
1.000000
  0
VERTEX
  8
1
 10
1.331000
 20
0.660000
 30
0.000000
  0
SEQEND
  8
0
  0
POLYLINE
  8
1
 66
1
 10
0.000000
 20
0.000000
 30
0.000000
 40
0.024000
 41
0.024000
 70
0
  0
VERTEX
  8
1
 10
1.325000
 20
0.880000
 30
0.000000
  0
VERTEX
  8
1
 10
1.190000
 20
1.015000
 30
0.000000
  0
SEQEND
  8
0
  0
POLYLINE
  8
1
 66
1
 10
0.000000
 20
0.000000
 30
0.000000
 40
0.012000
 41
0.012000
 70
0
  0
VERTEX
  8
1
 10
1.194243
 20
1.019243
 30
0.000000
 42
1.000000
  0
VERTEX
  8
1
 10
1.185757
 20
1.010757
 30
0.000000
  0
SEQEND
  8
0
  0
POLYLINE
  8
1
 66
1
 10
0.000000
 20
0.000000
 30
0.000000
 40
0.012000
 41
0.012000
 70
0
  0
VERTEX
  8
1
 10
1.320757
 20
0.875757
 30
0.000000
 42
1.000000
  0
VERTEX
  8
1
 10
1.329243
 20
0.884243
 30
0.000000
  0
SEQEND
  8
0
  0
POLYLINE
  8
1
 66
1
 10
0.000000
 20
0.000000
 30
0.000000
 40
0.024000
 41
0.024000
 70
0
  0
VERTEX
  8
1
 10
1.190000
 20
1.015000
 30
0.000000
  0
VERTEX
  8
1
 10
1.195000
 20
1.035000
 30
0.000000
  0
SEQEND
  8
0
  0
POLYLINE
  8
1
 66
1
 10
0.000000
 20
0.000000
 30
0.000000
 40
0.012000
 41
0.012000
 70
0
  0
VERTEX
  8
1
 10
1.200821
 20
1.033545
 30
0.000000
 42
1.000000
  0
VERTEX
  8
1
 10
1.189179
 20
1.036455
 30
0.000000
  0
SEQEND
  8
0
  0
POLYLINE
  8
1
 66
1
 10
0.000000
 20
0.000000
 30
0.000000
 40
0.012000
 41
0.012000
 70
0
  0
VERTEX
  8
1
 10
1.184179
 20
1.016455
 30
0.000000
 42
1.000000
  0
VERTEX
  8
1
 10
1.195821
 20
1.013545
 30
0.000000
  0
SEQEND
  8
0
  0
POLYLINE
  8
1
 66
1
 10
0.000000
 20
0.000000
 30
0.000000
 40
0.024000
 41
0.024000
 70
0
  0
VERTEX
  8
1
 10
0.525000
 20
0.390000
 30
0.000000
  0
VERTEX
  8
1
 10
0.582362
 20
0.390000
 30
0.000000
  0
SEQEND
  8
0
  0
POLYLINE
  8
1
 66
1
 10
0.000000
 20
0.000000
 30
0.000000
 40
0.012000
 41
0.012000
 70
0
  0
VERTEX
  8
1
 10
0.582362
 20
0.384000
 30
0.000000
 42
1.000000
  0
VERTEX
  8
1
 10
0.582362
 20
0.396000
 30
0.000000
  0
SEQEND
  8
0
  0
POLYLINE
  8
1
 66
1
 10
0.000000
 20
0.000000
 30
0.000000
 40
0.012000
 41
0.012000
 70
0
  0
VERTEX
  8
1
 10
0.525000
 20
0.396000
 30
0.000000
 42
1.000000
  0
VERTEX
  8
1
 10
0.525000
 20
0.384000
 30
0.000000
  0
SEQEND
  8
0
  0
POLYLINE
  8
1
 66
1
 10
0.000000
 20
0.000000
 30
0.000000
 40
0.024000
 41
0.024000
 70
0
  0
VERTEX
  8
1
 10
0.505000
 20
0.370000
 30
0.000000
  0
VERTEX
  8
1
 10
0.525000
 20
0.390000
 30
0.000000
  0
SEQEND
  8
0
  0
POLYLINE
  8
1
 66
1
 10
0.000000
 20
0.000000
 30
0.000000
 40
0.012000
 41
0.012000
 70
0
  0
VERTEX
  8
1
 10
0.529243
 20
0.385757
 30
0.000000
 42
1.000000
  0
VERTEX
  8
1
 10
0.520757
 20
0.394243
 30
0.000000
  0
SEQEND
  8
0
  0
POLYLINE
  8
1
 66
1
 10
0.000000
 20
0.000000
 30
0.000000
 40
0.012000
 41
0.012000
 70
0
  0
VERTEX
  8
1
 10
0.500757
 20
0.374243
 30
0.000000
 42
1.000000
  0
VERTEX
  8
1
 10
0.509243
 20
0.365757
 30
0.000000
  0
SEQEND
  8
0
  0
POLYLINE
  8
1
 66
1
 10
0.000000
 20
0.000000
 30
0.000000
 40
0.024000
 41
0.024000
 70
0
  0
VERTEX
  8
1
 10
0.505000
 20
0.315000
 30
0.000000
  0
VERTEX
  8
1
 10
0.505000
 20
0.370000
 30
0.000000
  0
SEQEND
  8
0
  0
POLYLINE
  8
1
 66
1
 10
0.000000
 20
0.000000
 30
0.000000
 40
0.012000
 41
0.012000
 70
0
  0
VERTEX
  8
1
 10
0.511000
 20
0.370000
 30
0.000000
 42
1.000000
  0
VERTEX
  8
1
 10
0.499000
 20
0.370000
 30
0.000000
  0
SEQEND
  8
0
  0
POLYLINE
  8
1
 66
1
 10
0.000000
 20
0.000000
 30
0.000000
 40
0.012000
 41
0.012000
 70
0
  0
VERTEX
  8
1
 10
0.499000
 20
0.315000
 30
0.000000
 42
1.000000
  0
VERTEX
  8
1
 10
0.511000
 20
0.315000
 30
0.000000
  0
SEQEND
  8
0
  0
POLYLINE
  8
1
 66
1
 10
0.000000
 20
0.000000
 30
0.000000
 40
0.024000
 41
0.024000
 70
0
  0
VERTEX
  8
1
 10
0.535000
 20
0.285000
 30
0.000000
  0
VERTEX
  8
1
 10
0.505000
 20
0.315000
 30
0.000000
  0
SEQEND
  8
0
  0
POLYLINE
  8
1
 66
1
 10
0.000000
 20
0.000000
 30
0.000000
 40
0.012000
 41
0.012000
 70
0
  0
VERTEX
  8
1
 10
0.509243
 20
0.319243
 30
0.000000
 42
1.000000
  0
VERTEX
  8
1
 10
0.500757
 20
0.310757
 30
0.000000
  0
SEQEND
  8
0
  0
POLYLINE
  8
1
 66
1
 10
0.000000
 20
0.000000
 30
0.000000
 40
0.012000
 41
0.012000
 70
0
  0
VERTEX
  8
1
 10
0.530757
 20
0.280757
 30
0.000000
 42
1.000000
  0
VERTEX
  8
1
 10
0.539243
 20
0.289243
 30
0.000000
  0
SEQEND
  8
0
  0
POLYLINE
  8
1
 66
1
 10
0.000000
 20
0.000000
 30
0.000000
 40
0.024000
 41
0.024000
 70
0
  0
VERTEX
  8
1
 10
0.585000
 20
0.285000
 30
0.000000
  0
VERTEX
  8
1
 10
0.535000
 20
0.285000
 30
0.000000
  0
SEQEND
  8
0
  0
POLYLINE
  8
1
 66
1
 10
0.000000
 20
0.000000
 30
0.000000
 40
0.012000
 41
0.012000
 70
0
  0
VERTEX
  8
1
 10
0.535000
 20
0.291000
 30
0.000000
 42
1.000000
  0
VERTEX
  8
1
 10
0.535000
 20
0.279000
 30
0.000000
  0
SEQEND
  8
0
  0
POLYLINE
  8
1
 66
1
 10
0.000000
 20
0.000000
 30
0.000000
 40
0.012000
 41
0.012000
 70
0
  0
VERTEX
  8
1
 10
0.585000
 20
0.279000
 30
0.000000
 42
1.000000
  0
VERTEX
  8
1
 10
0.585000
 20
0.291000
 30
0.000000
  0
SEQEND
  8
0
  0
POLYLINE
  8
1
 66
1
 10
0.000000
 20
0.000000
 30
0.000000
 40
0.024000
 41
0.024000
 70
0
  0
VERTEX
  8
1
 10
0.700000
 20
0.170000
 30
0.000000
  0
VERTEX
  8
1
 10
0.585000
 20
0.285000
 30
0.000000
  0
SEQEND
  8
0
  0
POLYLINE
  8
1
 66
1
 10
0.000000
 20
0.000000
 30
0.000000
 40
0.012000
 41
0.012000
 70
0
  0
VERTEX
  8
1
 10
0.589243
 20
0.289243
 30
0.000000
 42
1.000000
  0
VERTEX
  8
1
 10
0.580757
 20
0.280757
 30
0.000000
  0
SEQEND
  8
0
  0
POLYLINE
  8
1
 66
1
 10
0.000000
 20
0.000000
 30
0.000000
 40
0.012000
 41
0.012000
 70
0
  0
VERTEX
  8
1
 10
0.695757
 20
0.165757
 30
0.000000
 42
1.000000
  0
VERTEX
  8
1
 10
0.704243
 20
0.174243
 30
0.000000
  0
SEQEND
  8
0
  0
POLYLINE
  8
1
 66
1
 10
0.000000
 20
0.000000
 30
0.000000
 40
0.024000
 41
0.024000
 70
0
  0
VERTEX
  8
1
 10
0.700000
 20
0.170000
 30
0.000000
  0
VERTEX
  8
1
 10
0.795000
 20
0.170000
 30
0.000000
  0
SEQEND
  8
0
  0
POLYLINE
  8
1
 66
1
 10
0.000000
 20
0.000000
 30
0.000000
 40
0.012000
 41
0.012000
 70
0
  0
VERTEX
  8
1
 10
0.795000
 20
0.164000
 30
0.000000
 42
1.000000
  0
VERTEX
  8
1
 10
0.795000
 20
0.176000
 30
0.000000
  0
SEQEND
  8
0
  0
POLYLINE
  8
1
 66
1
 10
0.000000
 20
0.000000
 30
0.000000
 40
0.012000
 41
0.012000
 70
0
  0
VERTEX
  8
1
 10
0.700000
 20
0.176000
 30
0.000000
 42
1.000000
  0
VERTEX
  8
1
 10
0.700000
 20
0.164000
 30
0.000000
  0
SEQEND
  8
0
  0
POLYLINE
  8
1
 66
1
 10
0.000000
 20
0.000000
 30
0.000000
 40
0.024000
 41
0.024000
 70
0
  0
VERTEX
  8
1
 10
0.795000
 20
0.170000
 30
0.000000
  0
VERTEX
  8
1
 10
0.815000
 20
0.190000
 30
0.000000
  0
SEQEND
  8
0
  0
POLYLINE
  8
1
 66
1
 10
0.000000
 20
0.000000
 30
0.000000
 40
0.012000
 41
0.012000
 70
0
  0
VERTEX
  8
1
 10
0.819243
 20
0.185757
 30
0.000000
 42
1.000000
  0
VERTEX
  8
1
 10
0.810757
 20
0.194243
 30
0.000000
  0
SEQEND
  8
0
  0
POLYLINE
  8
1
 66
1
 10
0.000000
 20
0.000000
 30
0.000000
 40
0.012000
 41
0.012000
 70
0
  0
VERTEX
  8
1
 10
0.790757
 20
0.174243
 30
0.000000
 42
1.000000
  0
VERTEX
  8
1
 10
0.799243
 20
0.165757
 30
0.000000
  0
SEQEND
  8
0
  0
POLYLINE
  8
1
 66
1
 10
0.000000
 20
0.000000
 30
0.000000
 40
0.024000
 41
0.024000
 70
0
  0
VERTEX
  8
1
 10
0.815000
 20
0.190000
 30
0.000000
  0
VERTEX
  8
1
 10
0.815000
 20
0.262638
 30
0.000000
  0
SEQEND
  8
0
  0
POLYLINE
  8
1
 66
1
 10
0.000000
 20
0.000000
 30
0.000000
 40
0.012000
 41
0.012000
 70
0
  0
VERTEX
  8
1
 10
0.821000
 20
0.262638
 30
0.000000
 42
1.000000
  0
VERTEX
  8
1
 10
0.809000
 20
0.262638
 30
0.000000
  0
SEQEND
  8
0
  0
POLYLINE
  8
1
 66
1
 10
0.000000
 20
0.000000
 30
0.000000
 40
0.012000
 41
0.012000
 70
0
  0
VERTEX
  8
1
 10
0.809000
 20
0.190000
 30
0.000000
 42
1.000000
  0
VERTEX
  8
1
 10
0.821000
 20
0.190000
 30
0.000000
  0
SEQEND
  8
0
  0
POLYLINE
  8
1
 66
1
 10
0.000000
 20
0.000000
 30
0.000000
 40
0.024000
 41
0.024000
 70
0
  0
VERTEX
  8
1
 10
0.582362
 20
0.340000
 30
0.000000
  0
VERTEX
  8
1
 10
0.660000
 20
0.340000
 30
0.000000
  0
SEQEND
  8
0
  0
POLYLINE
  8
1
 66
1
 10
0.000000
 20
0.000000
 30
0.000000
 40
0.012000
 41
0.012000
 70
0
  0
VERTEX
  8
1
 10
0.660000
 20
0.334000
 30
0.000000
 42
1.000000
  0
VERTEX
  8
1
 10
0.660000
 20
0.346000
 30
0.000000
  0
SEQEND
  8
0
  0
POLYLINE
  8
1
 66
1
 10
0.000000
 20
0.000000
 30
0.000000
 40
0.012000
 41
0.012000
 70
0
  0
VERTEX
  8
1
 10
0.582362
 20
0.346000
 30
0.000000
 42
1.000000
  0
VERTEX
  8
1
 10
0.582362
 20
0.334000
 30
0.000000
  0
SEQEND
  8
0
  0
POLYLINE
  8
1
 66
1
 10
0.000000
 20
0.000000
 30
0.000000
 40
0.024000
 41
0.024000
 70
0
  0
VERTEX
  8
1
 10
0.765000
 20
0.262638
 30
0.000000
  0
VERTEX
  8
1
 10
0.765000
 20
0.290000
 30
0.000000
  0
SEQEND
  8
0
  0
POLYLINE
  8
1
 66
1
 10
0.000000
 20
0.000000
 30
0.000000
 40
0.012000
 41
0.012000
 70
0
  0
VERTEX
  8
1
 10
0.771000
 20
0.290000
 30
0.000000
 42
1.000000
  0
VERTEX
  8
1
 10
0.759000
 20
0.290000
 30
0.000000
  0
SEQEND
  8
0
  0
POLYLINE
  8
1
 66
1
 10
0.000000
 20
0.000000
 30
0.000000
 40
0.012000
 41
0.012000
 70
0
  0
VERTEX
  8
1
 10
0.759000
 20
0.262638
 30
0.000000
 42
1.000000
  0
VERTEX
  8
1
 10
0.771000
 20
0.262638
 30
0.000000
  0
SEQEND
  8
0
  0
POLYLINE
  8
1
 66
1
 10
0.000000
 20
0.000000
 30
0.000000
 40
0.024000
 41
0.024000
 70
0
  0
VERTEX
  8
1
 10
0.660000
 20
0.340000
 30
0.000000
  0
VERTEX
  8
1
 10
0.705000
 20
0.295000
 30
0.000000
  0
SEQEND
  8
0
  0
POLYLINE
  8
1
 66
1
 10
0.000000
 20
0.000000
 30
0.000000
 40
0.012000
 41
0.012000
 70
0
  0
VERTEX
  8
1
 10
0.700757
 20
0.290757
 30
0.000000
 42
1.000000
  0
VERTEX
  8
1
 10
0.709243
 20
0.299243
 30
0.000000
  0
SEQEND
  8
0
  0
POLYLINE
  8
1
 66
1
 10
0.000000
 20
0.000000
 30
0.000000
 40
0.012000
 41
0.012000
 70
0
  0
VERTEX
  8
1
 10
0.664243
 20
0.344243
 30
0.000000
 42
1.000000
  0
VERTEX
  8
1
 10
0.655757
 20
0.335757
 30
0.000000
  0
SEQEND
  8
0
  0
POLYLINE
  8
1
 66
1
 10
0.000000
 20
0.000000
 30
0.000000
 40
0.024000
 41
0.024000
 70
0
  0
VERTEX
  8
1
 10
0.705000
 20
0.295000
 30
0.000000
  0
VERTEX
  8
1
 10
0.765000
 20
0.295000
 30
0.000000
  0
SEQEND
  8
0
  0
POLYLINE
  8
1
 66
1
 10
0.000000
 20
0.000000
 30
0.000000
 40
0.012000
 41
0.012000
 70
0
  0
VERTEX
  8
1
 10
0.765000
 20
0.289000
 30
0.000000
 42
1.000000
  0
VERTEX
  8
1
 10
0.765000
 20
0.301000
 30
0.000000
  0
SEQEND
  8
0
  0
POLYLINE
  8
1
 66
1
 10
0.000000
 20
0.000000
 30
0.000000
 40
0.012000
 41
0.012000
 70
0
  0
VERTEX
  8
1
 10
0.705000
 20
0.301000
 30
0.000000
 42
1.000000
  0
VERTEX
  8
1
 10
0.705000
 20
0.289000
 30
0.000000
  0
SEQEND
  8
0
  0
POLYLINE
  8
1
 66
1
 10
0.000000
 20
0.000000
 30
0.000000
 40
0.024000
 41
0.024000
 70
0
  0
VERTEX
  8
1
 10
0.765000
 20
0.295000
 30
0.000000
  0
VERTEX
  8
1
 10
0.765000
 20
0.262638
 30
0.000000
  0
SEQEND
  8
0
  0
POLYLINE
  8
1
 66
1
 10
0.000000
 20
0.000000
 30
0.000000
 40
0.012000
 41
0.012000
 70
0
  0
VERTEX
  8
1
 10
0.759000
 20
0.262638
 30
0.000000
 42
1.000000
  0
VERTEX
  8
1
 10
0.771000
 20
0.262638
 30
0.000000
  0
SEQEND
  8
0
  0
POLYLINE
  8
1
 66
1
 10
0.000000
 20
0.000000
 30
0.000000
 40
0.012000
 41
0.012000
 70
0
  0
VERTEX
  8
1
 10
0.771000
 20
0.295000
 30
0.000000
 42
1.000000
  0
VERTEX
  8
1
 10
0.759000
 20
0.295000
 30
0.000000
  0
SEQEND
  8
0
  0
POLYLINE
  8
1
 66
1
 10
0.000000
 20
0.000000
 30
0.000000
 40
0.024000
 41
0.024000
 70
0
  0
VERTEX
  8
1
 10
0.320000
 20
0.390000
 30
0.000000
  0
VERTEX
  8
1
 10
0.377638
 20
0.390000
 30
0.000000
  0
SEQEND
  8
0
  0
POLYLINE
  8
1
 66
1
 10
0.000000
 20
0.000000
 30
0.000000
 40
0.012000
 41
0.012000
 70
0
  0
VERTEX
  8
1
 10
0.377638
 20
0.384000
 30
0.000000
 42
1.000000
  0
VERTEX
  8
1
 10
0.377638
 20
0.396000
 30
0.000000
  0
SEQEND
  8
0
  0
POLYLINE
  8
1
 66
1
 10
0.000000
 20
0.000000
 30
0.000000
 40
0.012000
 41
0.012000
 70
0
  0
VERTEX
  8
1
 10
0.320000
 20
0.396000
 30
0.000000
 42
1.000000
  0
VERTEX
  8
1
 10
0.320000
 20
0.384000
 30
0.000000
  0
SEQEND
  8
0
  0
POLYLINE
  8
1
 66
1
 10
0.000000
 20
0.000000
 30
0.000000
 40
0.024000
 41
0.024000
 70
0
  0
VERTEX
  8
1
 10
0.290000
 20
0.360000
 30
0.000000
  0
VERTEX
  8
1
 10
0.320000
 20
0.390000
 30
0.000000
  0
SEQEND
  8
0
  0
POLYLINE
  8
1
 66
1
 10
0.000000
 20
0.000000
 30
0.000000
 40
0.012000
 41
0.012000
 70
0
  0
VERTEX
  8
1
 10
0.324243
 20
0.385757
 30
0.000000
 42
1.000000
  0
VERTEX
  8
1
 10
0.315757
 20
0.394243
 30
0.000000
  0
SEQEND
  8
0
  0
POLYLINE
  8
1
 66
1
 10
0.000000
 20
0.000000
 30
0.000000
 40
0.012000
 41
0.012000
 70
0
  0
VERTEX
  8
1
 10
0.285757
 20
0.364243
 30
0.000000
 42
1.000000
  0
VERTEX
  8
1
 10
0.294243
 20
0.355757
 30
0.000000
  0
SEQEND
  8
0
  0
POLYLINE
  8
1
 66
1
 10
0.000000
 20
0.000000
 30
0.000000
 40
0.024000
 41
0.024000
 70
0
  0
VERTEX
  8
1
 10
0.290000
 20
0.235000
 30
0.000000
  0
VERTEX
  8
1
 10
0.290000
 20
0.360000
 30
0.000000
  0
SEQEND
  8
0
  0
POLYLINE
  8
1
 66
1
 10
0.000000
 20
0.000000
 30
0.000000
 40
0.012000
 41
0.012000
 70
0
  0
VERTEX
  8
1
 10
0.296000
 20
0.360000
 30
0.000000
 42
1.000000
  0
VERTEX
  8
1
 10
0.284000
 20
0.360000
 30
0.000000
  0
SEQEND
  8
0
  0
POLYLINE
  8
1
 66
1
 10
0.000000
 20
0.000000
 30
0.000000
 40
0.012000
 41
0.012000
 70
0
  0
VERTEX
  8
1
 10
0.284000
 20
0.235000
 30
0.000000
 42
1.000000
  0
VERTEX
  8
1
 10
0.296000
 20
0.235000
 30
0.000000
  0
SEQEND
  8
0
  0
POLYLINE
  8
1
 66
1
 10
0.000000
 20
0.000000
 30
0.000000
 40
0.024000
 41
0.024000
 70
0
  0
VERTEX
  8
1
 10
0.290000
 20
0.235000
 30
0.000000
  0
VERTEX
  8
1
 10
0.320000
 20
0.195000
 30
0.000000
  0
SEQEND
  8
0
  0
POLYLINE
  8
1
 66
1
 10
0.000000
 20
0.000000
 30
0.000000
 40
0.012000
 41
0.012000
 70
0
  0
VERTEX
  8
1
 10
0.315200
 20
0.191400
 30
0.000000
 42
1.000000
  0
VERTEX
  8
1
 10
0.324800
 20
0.198600
 30
0.000000
  0
SEQEND
  8
0
  0
POLYLINE
  8
1
 66
1
 10
0.000000
 20
0.000000
 30
0.000000
 40
0.012000
 41
0.012000
 70
0
  0
VERTEX
  8
1
 10
0.294800
 20
0.238600
 30
0.000000
 42
1.000000
  0
VERTEX
  8
1
 10
0.285200
 20
0.231400
 30
0.000000
  0
SEQEND
  8
0
  0
POLYLINE
  8
1
 66
1
 10
0.000000
 20
0.000000
 30
0.000000
 40
0.024000
 41
0.024000
 70
0
  0
VERTEX
  8
1
 10
0.380000
 20
0.270000
 30
0.000000
  0
VERTEX
  8
1
 10
0.380000
 20
0.332362
 30
0.000000
  0
SEQEND
  8
0
  0
POLYLINE
  8
1
 66
1
 10
0.000000
 20
0.000000
 30
0.000000
 40
0.012000
 41
0.012000
 70
0
  0
VERTEX
  8
1
 10
0.386000
 20
0.332362
 30
0.000000
 42
1.000000
  0
VERTEX
  8
1
 10
0.374000
 20
0.332362
 30
0.000000
  0
SEQEND
  8
0
  0
POLYLINE
  8
1
 66
1
 10
0.000000
 20
0.000000
 30
0.000000
 40
0.012000
 41
0.012000
 70
0
  0
VERTEX
  8
1
 10
0.374000
 20
0.270000
 30
0.000000
 42
1.000000
  0
VERTEX
  8
1
 10
0.386000
 20
0.270000
 30
0.000000
  0
SEQEND
  8
0
  0
POLYLINE
  8
1
 66
1
 10
0.000000
 20
0.000000
 30
0.000000
 40
0.024000
 41
0.024000
 70
0
  0
VERTEX
  8
1
 10
0.380000
 20
0.332362
 30
0.000000
  0
VERTEX
  8
1
 10
0.380000
 20
0.335000
 30
0.000000
  0
SEQEND
  8
0
  0
POLYLINE
  8
1
 66
1
 10
0.000000
 20
0.000000
 30
0.000000
 40
0.012000
 41
0.012000
 70
0
  0
VERTEX
  8
1
 10
0.386000
 20
0.335000
 30
0.000000
 42
1.000000
  0
VERTEX
  8
1
 10
0.374000
 20
0.335000
 30
0.000000
  0
SEQEND
  8
0
  0
POLYLINE
  8
1
 66
1
 10
0.000000
 20
0.000000
 30
0.000000
 40
0.012000
 41
0.012000
 70
0
  0
VERTEX
  8
1
 10
0.374000
 20
0.332362
 30
0.000000
 42
1.000000
  0
VERTEX
  8
1
 10
0.386000
 20
0.332362
 30
0.000000
  0
SEQEND
  8
0
  0
POLYLINE
  8
1
 66
1
 10
0.000000
 20
0.000000
 30
0.000000
 40
0.024000
 41
0.024000
 70
0
  0
VERTEX
  8
1
 10
0.380000
 20
0.332362
 30
0.000000
  0
VERTEX
  8
1
 10
0.377638
 20
0.340000
 30
0.000000
  0
SEQEND
  8
0
  0
POLYLINE
  8
1
 66
1
 10
0.000000
 20
0.000000
 30
0.000000
 40
0.012000
 41
0.012000
 70
0
  0
VERTEX
  8
1
 10
0.383370
 20
0.341773
 30
0.000000
 42
1.000000
  0
VERTEX
  8
1
 10
0.371906
 20
0.338227
 30
0.000000
  0
SEQEND
  8
0
  0
POLYLINE
  8
1
 66
1
 10
0.000000
 20
0.000000
 30
0.000000
 40
0.012000
 41
0.012000
 70
0
  0
VERTEX
  8
1
 10
0.374268
 20
0.330589
 30
0.000000
 42
1.000000
  0
VERTEX
  8
1
 10
0.385732
 20
0.334135
 30
0.000000
  0
SEQEND
  8
0
  0
POLYLINE
  8
1
 66
1
 10
0.000000
 20
0.000000
 30
0.000000
 40
0.024000
 41
0.024000
 70
0
  0
VERTEX
  8
1
 10
0.380000
 20
0.270000
 30
0.000000
  0
VERTEX
  8
1
 10
0.420000
 20
0.230000
 30
0.000000
  0
SEQEND
  8
0
  0
POLYLINE
  8
1
 66
1
 10
0.000000
 20
0.000000
 30
0.000000
 40
0.012000
 41
0.012000
 70
0
  0
VERTEX
  8
1
 10
0.415757
 20
0.225757
 30
0.000000
 42
1.000000
  0
VERTEX
  8
1
 10
0.424243
 20
0.234243
 30
0.000000
  0
SEQEND
  8
0
  0
POLYLINE
  8
1
 66
1
 10
0.000000
 20
0.000000
 30
0.000000
 40
0.012000
 41
0.012000
 70
0
  0
VERTEX
  8
1
 10
0.384243
 20
0.274243
 30
0.000000
 42
1.000000
  0
VERTEX
  8
1
 10
0.375757
 20
0.265757
 30
0.000000
  0
SEQEND
  8
0
  0
POLYLINE
  8
1
 66
1
 10
0.000000
 20
0.000000
 30
0.000000
 40
0.024000
 41
0.024000
 70
0
  0
VERTEX
  8
1
 10
0.420000
 20
0.230000
 30
0.000000
  0
VERTEX
  8
1
 10
0.420000
 20
0.195000
 30
0.000000
  0
SEQEND
  8
0
  0
POLYLINE
  8
1
 66
1
 10
0.000000
 20
0.000000
 30
0.000000
 40
0.012000
 41
0.012000
 70
0
  0
VERTEX
  8
1
 10
0.414000
 20
0.195000
 30
0.000000
 42
1.000000
  0
VERTEX
  8
1
 10
0.426000
 20
0.195000
 30
0.000000
  0
SEQEND
  8
0
  0
POLYLINE
  8
1
 66
1
 10
0.000000
 20
0.000000
 30
0.000000
 40
0.012000
 41
0.012000
 70
0
  0
VERTEX
  8
1
 10
0.426000
 20
0.230000
 30
0.000000
 42
1.000000
  0
VERTEX
  8
1
 10
0.414000
 20
0.230000
 30
0.000000
  0
SEQEND
  8
0
  0
POLYLINE
  8
1
 66
1
 10
0.000000
 20
0.000000
 30
0.000000
 40
0.024000
 41
0.024000
 70
0
  0
VERTEX
  8
1
 10
0.377638
 20
0.640000
 30
0.000000
  0
VERTEX
  8
1
 10
0.435000
 20
0.640000
 30
0.000000
  0
SEQEND
  8
0
  0
POLYLINE
  8
1
 66
1
 10
0.000000
 20
0.000000
 30
0.000000
 40
0.012000
 41
0.012000
 70
0
  0
VERTEX
  8
1
 10
0.435000
 20
0.634000
 30
0.000000
 42
1.000000
  0
VERTEX
  8
1
 10
0.435000
 20
0.646000
 30
0.000000
  0
SEQEND
  8
0
  0
POLYLINE
  8
1
 66
1
 10
0.000000
 20
0.000000
 30
0.000000
 40
0.012000
 41
0.012000
 70
0
  0
VERTEX
  8
1
 10
0.377638
 20
0.646000
 30
0.000000
 42
1.000000
  0
VERTEX
  8
1
 10
0.377638
 20
0.634000
 30
0.000000
  0
SEQEND
  8
0
  0
POLYLINE
  8
1
 66
1
 10
0.000000
 20
0.000000
 30
0.000000
 40
0.024000
 41
0.024000
 70
0
  0
VERTEX
  8
1
 10
0.435000
 20
0.640000
 30
0.000000
  0
VERTEX
  8
1
 10
0.465000
 20
0.670000
 30
0.000000
  0
SEQEND
  8
0
  0
POLYLINE
  8
1
 66
1
 10
0.000000
 20
0.000000
 30
0.000000
 40
0.012000
 41
0.012000
 70
0
  0
VERTEX
  8
1
 10
0.469243
 20
0.665757
 30
0.000000
 42
1.000000
  0
VERTEX
  8
1
 10
0.460757
 20
0.674243
 30
0.000000
  0
SEQEND
  8
0
  0
POLYLINE
  8
1
 66
1
 10
0.000000
 20
0.000000
 30
0.000000
 40
0.012000
 41
0.012000
 70
0
  0
VERTEX
  8
1
 10
0.430757
 20
0.644243
 30
0.000000
 42
1.000000
  0
VERTEX
  8
1
 10
0.439243
 20
0.635757
 30
0.000000
  0
SEQEND
  8
0
  0
POLYLINE
  8
1
 66
1
 10
0.000000
 20
0.000000
 30
0.000000
 40
0.024000
 41
0.024000
 70
0
  0
VERTEX
  8
1
 10
0.465000
 20
0.670000
 30
0.000000
  0
VERTEX
  8
1
 10
0.465000
 20
0.715000
 30
0.000000
  0
SEQEND
  8
0
  0
POLYLINE
  8
1
 66
1
 10
0.000000
 20
0.000000
 30
0.000000
 40
0.012000
 41
0.012000
 70
0
  0
VERTEX
  8
1
 10
0.471000
 20
0.715000
 30
0.000000
 42
1.000000
  0
VERTEX
  8
1
 10
0.459000
 20
0.715000
 30
0.000000
  0
SEQEND
  8
0
  0
POLYLINE
  8
1
 66
1
 10
0.000000
 20
0.000000
 30
0.000000
 40
0.012000
 41
0.012000
 70
0
  0
VERTEX
  8
1
 10
0.459000
 20
0.670000
 30
0.000000
 42
1.000000
  0
VERTEX
  8
1
 10
0.471000
 20
0.670000
 30
0.000000
  0
SEQEND
  8
0
  0
POLYLINE
  8
1
 66
1
 10
0.000000
 20
0.000000
 30
0.000000
 40
0.024000
 41
0.024000
 70
0
  0
VERTEX
  8
1
 10
0.465000
 20
0.715000
 30
0.000000
  0
VERTEX
  8
1
 10
0.250000
 20
0.930000
 30
0.000000
  0
SEQEND
  8
0
  0
POLYLINE
  8
1
 66
1
 10
0.000000
 20
0.000000
 30
0.000000
 40
0.012000
 41
0.012000
 70
0
  0
VERTEX
  8
1
 10
0.254243
 20
0.934243
 30
0.000000
 42
1.000000
  0
VERTEX
  8
1
 10
0.245757
 20
0.925757
 30
0.000000
  0
SEQEND
  8
0
  0
POLYLINE
  8
1
 66
1
 10
0.000000
 20
0.000000
 30
0.000000
 40
0.012000
 41
0.012000
 70
0
  0
VERTEX
  8
1
 10
0.460757
 20
0.710757
 30
0.000000
 42
1.000000
  0
VERTEX
  8
1
 10
0.469243
 20
0.719243
 30
0.000000
  0
SEQEND
  8
0
  0
POLYLINE
  8
1
 66
1
 10
0.000000
 20
0.000000
 30
0.000000
 40
0.024000
 41
0.024000
 70
0
  0
VERTEX
  8
1
 10
0.250000
 20
0.965000
 30
0.000000
  0
VERTEX
  8
1
 10
0.260945
 20
0.965000
 30
0.000000
  0
SEQEND
  8
0
  0
POLYLINE
  8
1
 66
1
 10
0.000000
 20
0.000000
 30
0.000000
 40
0.012000
 41
0.012000
 70
0
  0
VERTEX
  8
1
 10
0.260945
 20
0.959000
 30
0.000000
 42
1.000000
  0
VERTEX
  8
1
 10
0.260945
 20
0.971000
 30
0.000000
  0
SEQEND
  8
0
  0
POLYLINE
  8
1
 66
1
 10
0.000000
 20
0.000000
 30
0.000000
 40
0.012000
 41
0.012000
 70
0
  0
VERTEX
  8
1
 10
0.250000
 20
0.971000
 30
0.000000
 42
1.000000
  0
VERTEX
  8
1
 10
0.250000
 20
0.959000
 30
0.000000
  0
SEQEND
  8
0
  0
POLYLINE
  8
1
 66
1
 10
0.000000
 20
0.000000
 30
0.000000
 40
0.024000
 41
0.024000
 70
0
  0
VERTEX
  8
1
 10
0.250000
 20
0.930000
 30
0.000000
  0
VERTEX
  8
1
 10
0.250000
 20
0.965000
 30
0.000000
  0
SEQEND
  8
0
  0
POLYLINE
  8
1
 66
1
 10
0.000000
 20
0.000000
 30
0.000000
 40
0.012000
 41
0.012000
 70
0
  0
VERTEX
  8
1
 10
0.256000
 20
0.965000
 30
0.000000
 42
1.000000
  0
VERTEX
  8
1
 10
0.244000
 20
0.965000
 30
0.000000
  0
SEQEND
  8
0
  0
POLYLINE
  8
1
 66
1
 10
0.000000
 20
0.000000
 30
0.000000
 40
0.012000
 41
0.012000
 70
0
  0
VERTEX
  8
1
 10
0.244000
 20
0.930000
 30
0.000000
 42
1.000000
  0
VERTEX
  8
1
 10
0.256000
 20
0.930000
 30
0.000000
  0
SEQEND
  8
0
  0
POLYLINE
  8
1
 66
1
 10
0.000000
 20
0.000000
 30
0.000000
 40
0.024000
 41
0.024000
 70
0
  0
VERTEX
  8
1
 10
0.320000
 20
0.590000
 30
0.000000
  0
VERTEX
  8
1
 10
0.377638
 20
0.590000
 30
0.000000
  0
SEQEND
  8
0
  0
POLYLINE
  8
1
 66
1
 10
0.000000
 20
0.000000
 30
0.000000
 40
0.012000
 41
0.012000
 70
0
  0
VERTEX
  8
1
 10
0.377638
 20
0.584000
 30
0.000000
 42
1.000000
  0
VERTEX
  8
1
 10
0.377638
 20
0.596000
 30
0.000000
  0
SEQEND
  8
0
  0
POLYLINE
  8
1
 66
1
 10
0.000000
 20
0.000000
 30
0.000000
 40
0.012000
 41
0.012000
 70
0
  0
VERTEX
  8
1
 10
0.320000
 20
0.596000
 30
0.000000
 42
1.000000
  0
VERTEX
  8
1
 10
0.320000
 20
0.584000
 30
0.000000
  0
SEQEND
  8
0
  0
POLYLINE
  8
1
 66
1
 10
0.000000
 20
0.000000
 30
0.000000
 40
0.024000
 41
0.024000
 70
0
  0
VERTEX
  8
1
 10
0.285000
 20
0.625000
 30
0.000000
  0
VERTEX
  8
1
 10
0.320000
 20
0.590000
 30
0.000000
  0
SEQEND
  8
0
  0
POLYLINE
  8
1
 66
1
 10
0.000000
 20
0.000000
 30
0.000000
 40
0.012000
 41
0.012000
 70
0
  0
VERTEX
  8
1
 10
0.315757
 20
0.585757
 30
0.000000
 42
1.000000
  0
VERTEX
  8
1
 10
0.324243
 20
0.594243
 30
0.000000
  0
SEQEND
  8
0
  0
POLYLINE
  8
1
 66
1
 10
0.000000
 20
0.000000
 30
0.000000
 40
0.012000
 41
0.012000
 70
0
  0
VERTEX
  8
1
 10
0.289243
 20
0.629243
 30
0.000000
 42
1.000000
  0
VERTEX
  8
1
 10
0.280757
 20
0.620757
 30
0.000000
  0
SEQEND
  8
0
  0
POLYLINE
  8
1
 66
1
 10
0.000000
 20
0.000000
 30
0.000000
 40
0.024000
 41
0.024000
 70
0
  0
VERTEX
  8
1
 10
0.285000
 20
0.680000
 30
0.000000
  0
VERTEX
  8
1
 10
0.285000
 20
0.625000
 30
0.000000
  0
SEQEND
  8
0
  0
POLYLINE
  8
1
 66
1
 10
0.000000
 20
0.000000
 30
0.000000
 40
0.012000
 41
0.012000
 70
0
  0
VERTEX
  8
1
 10
0.279000
 20
0.625000
 30
0.000000
 42
1.000000
  0
VERTEX
  8
1
 10
0.291000
 20
0.625000
 30
0.000000
  0
SEQEND
  8
0
  0
POLYLINE
  8
1
 66
1
 10
0.000000
 20
0.000000
 30
0.000000
 40
0.012000
 41
0.012000
 70
0
  0
VERTEX
  8
1
 10
0.291000
 20
0.680000
 30
0.000000
 42
1.000000
  0
VERTEX
  8
1
 10
0.279000
 20
0.680000
 30
0.000000
  0
SEQEND
  8
0
  0
POLYLINE
  8
1
 66
1
 10
0.000000
 20
0.000000
 30
0.000000
 40
0.024000
 41
0.024000
 70
0
  0
VERTEX
  8
1
 10
0.185000
 20
0.700945
 30
0.000000
  0
VERTEX
  8
1
 10
0.185000
 20
0.700000
 30
0.000000
  0
SEQEND
  8
0
  0
POLYLINE
  8
1
 66
1
 10
0.000000
 20
0.000000
 30
0.000000
 40
0.012000
 41
0.012000
 70
0
  0
VERTEX
  8
1
 10
0.179000
 20
0.700000
 30
0.000000
 42
1.000000
  0
VERTEX
  8
1
 10
0.191000
 20
0.700000
 30
0.000000
  0
SEQEND
  8
0
  0
POLYLINE
  8
1
 66
1
 10
0.000000
 20
0.000000
 30
0.000000
 40
0.012000
 41
0.012000
 70
0
  0
VERTEX
  8
1
 10
0.191000
 20
0.700945
 30
0.000000
 42
1.000000
  0
VERTEX
  8
1
 10
0.179000
 20
0.700945
 30
0.000000
  0
SEQEND
  8
0
  0
POLYLINE
  8
1
 66
1
 10
0.000000
 20
0.000000
 30
0.000000
 40
0.024000
 41
0.024000
 70
0
  0
VERTEX
  8
1
 10
0.180000
 20
0.705945
 30
0.000000
  0
VERTEX
  8
1
 10
0.185000
 20
0.700945
 30
0.000000
  0
SEQEND
  8
0
  0
POLYLINE
  8
1
 66
1
 10
0.000000
 20
0.000000
 30
0.000000
 40
0.012000
 41
0.012000
 70
0
  0
VERTEX
  8
1
 10
0.180757
 20
0.696702
 30
0.000000
 42
1.000000
  0
VERTEX
  8
1
 10
0.189243
 20
0.705188
 30
0.000000
  0
SEQEND
  8
0
  0
POLYLINE
  8
1
 66
1
 10
0.000000
 20
0.000000
 30
0.000000
 40
0.012000
 41
0.012000
 70
0
  0
VERTEX
  8
1
 10
0.184243
 20
0.710188
 30
0.000000
 42
1.000000
  0
VERTEX
  8
1
 10
0.175757
 20
0.701702
 30
0.000000
  0
SEQEND
  8
0
  0
POLYLINE
  8
1
 66
1
 10
0.000000
 20
0.000000
 30
0.000000
 40
0.024000
 41
0.024000
 70
0
  0
VERTEX
  8
1
 10
0.265000
 20
0.700000
 30
0.000000
  0
VERTEX
  8
1
 10
0.285000
 20
0.680000
 30
0.000000
  0
SEQEND
  8
0
  0
POLYLINE
  8
1
 66
1
 10
0.000000
 20
0.000000
 30
0.000000
 40
0.012000
 41
0.012000
 70
0
  0
VERTEX
  8
1
 10
0.280757
 20
0.675757
 30
0.000000
 42
1.000000
  0
VERTEX
  8
1
 10
0.289243
 20
0.684243
 30
0.000000
  0
SEQEND
  8
0
  0
POLYLINE
  8
1
 66
1
 10
0.000000
 20
0.000000
 30
0.000000
 40
0.012000
 41
0.012000
 70
0
  0
VERTEX
  8
1
 10
0.269243
 20
0.704243
 30
0.000000
 42
1.000000
  0
VERTEX
  8
1
 10
0.260757
 20
0.695757
 30
0.000000
  0
SEQEND
  8
0
  0
POLYLINE
  8
1
 66
1
 10
0.000000
 20
0.000000
 30
0.000000
 40
0.024000
 41
0.024000
 70
0
  0
VERTEX
  8
1
 10
0.185000
 20
0.700000
 30
0.000000
  0
VERTEX
  8
1
 10
0.265000
 20
0.700000
 30
0.000000
  0
SEQEND
  8
0
  0
POLYLINE
  8
1
 66
1
 10
0.000000
 20
0.000000
 30
0.000000
 40
0.012000
 41
0.012000
 70
0
  0
VERTEX
  8
1
 10
0.265000
 20
0.694000
 30
0.000000
 42
1.000000
  0
VERTEX
  8
1
 10
0.265000
 20
0.706000
 30
0.000000
  0
SEQEND
  8
0
  0
POLYLINE
  8
1
 66
1
 10
0.000000
 20
0.000000
 30
0.000000
 40
0.012000
 41
0.012000
 70
0
  0
VERTEX
  8
1
 10
0.185000
 20
0.706000
 30
0.000000
 42
1.000000
  0
VERTEX
  8
1
 10
0.185000
 20
0.694000
 30
0.000000
  0
SEQEND
  8
0
  0
POLYLINE
  8
1
 66
1
 10
0.000000
 20
0.000000
 30
0.000000
 40
0.024000
 41
0.024000
 70
0
  0
VERTEX
  8
1
 10
0.180000
 20
0.824055
 30
0.000000
  0
VERTEX
  8
1
 10
0.180000
 20
0.815000
 30
0.000000
  0
SEQEND
  8
0
  0
POLYLINE
  8
1
 66
1
 10
0.000000
 20
0.000000
 30
0.000000
 40
0.012000
 41
0.012000
 70
0
  0
VERTEX
  8
1
 10
0.174000
 20
0.815000
 30
0.000000
 42
1.000000
  0
VERTEX
  8
1
 10
0.186000
 20
0.815000
 30
0.000000
  0
SEQEND
  8
0
  0
POLYLINE
  8
1
 66
1
 10
0.000000
 20
0.000000
 30
0.000000
 40
0.012000
 41
0.012000
 70
0
  0
VERTEX
  8
1
 10
0.186000
 20
0.824055
 30
0.000000
 42
1.000000
  0
VERTEX
  8
1
 10
0.174000
 20
0.824055
 30
0.000000
  0
SEQEND
  8
0
  0
POLYLINE
  8
1
 66
1
 10
0.000000
 20
0.000000
 30
0.000000
 40
0.024000
 41
0.024000
 70
0
  0
VERTEX
  8
1
 10
0.252638
 20
0.815000
 30
0.000000
  0
VERTEX
  8
1
 10
0.377638
 20
0.690000
 30
0.000000
  0
SEQEND
  8
0
  0
POLYLINE
  8
1
 66
1
 10
0.000000
 20
0.000000
 30
0.000000
 40
0.012000
 41
0.012000
 70
0
  0
VERTEX
  8
1
 10
0.373395
 20
0.685757
 30
0.000000
 42
1.000000
  0
VERTEX
  8
1
 10
0.381880
 20
0.694243
 30
0.000000
  0
SEQEND
  8
0
  0
POLYLINE
  8
1
 66
1
 10
0.000000
 20
0.000000
 30
0.000000
 40
0.012000
 41
0.012000
 70
0
  0
VERTEX
  8
1
 10
0.256880
 20
0.819243
 30
0.000000
 42
1.000000
  0
VERTEX
  8
1
 10
0.248395
 20
0.810757
 30
0.000000
  0
SEQEND
  8
0
  0
POLYLINE
  8
1
 66
1
 10
0.000000
 20
0.000000
 30
0.000000
 40
0.024000
 41
0.024000
 70
0
  0
VERTEX
  8
1
 10
0.180000
 20
0.815000
 30
0.000000
  0
VERTEX
  8
1
 10
0.252638
 20
0.815000
 30
0.000000
  0
SEQEND
  8
0
  0
POLYLINE
  8
1
 66
1
 10
0.000000
 20
0.000000
 30
0.000000
 40
0.012000
 41
0.012000
 70
0
  0
VERTEX
  8
1
 10
0.252638
 20
0.809000
 30
0.000000
 42
1.000000
  0
VERTEX
  8
1
 10
0.252638
 20
0.821000
 30
0.000000
  0
SEQEND
  8
0
  0
POLYLINE
  8
1
 66
1
 10
0.000000
 20
0.000000
 30
0.000000
 40
0.012000
 41
0.012000
 70
0
  0
VERTEX
  8
1
 10
0.180000
 20
0.821000
 30
0.000000
 42
1.000000
  0
VERTEX
  8
1
 10
0.180000
 20
0.809000
 30
0.000000
  0
SEQEND
  8
0
  0
POLYLINE
  8
1
 66
1
 10
0.000000
 20
0.000000
 30
0.000000
 40
0.024000
 41
0.024000
 70
0
  0
VERTEX
  8
1
 10
0.377638
 20
0.490000
 30
0.000000
  0
VERTEX
  8
1
 10
0.390000
 20
0.490000
 30
0.000000
  0
SEQEND
  8
0
  0
POLYLINE
  8
1
 66
1
 10
0.000000
 20
0.000000
 30
0.000000
 40
0.012000
 41
0.012000
 70
0
  0
VERTEX
  8
1
 10
0.390000
 20
0.484000
 30
0.000000
 42
1.000000
  0
VERTEX
  8
1
 10
0.390000
 20
0.496000
 30
0.000000
  0
SEQEND
  8
0
  0
POLYLINE
  8
1
 66
1
 10
0.000000
 20
0.000000
 30
0.000000
 40
0.012000
 41
0.012000
 70
0
  0
VERTEX
  8
1
 10
0.377638
 20
0.496000
 30
0.000000
 42
1.000000
  0
VERTEX
  8
1
 10
0.377638
 20
0.484000
 30
0.000000
  0
SEQEND
  8
0
  0
POLYLINE
  8
1
 66
1
 10
0.000000
 20
0.000000
 30
0.000000
 40
0.024000
 41
0.024000
 70
0
  0
VERTEX
  8
1
 10
0.180000
 20
0.485945
 30
0.000000
  0
VERTEX
  8
1
 10
0.214055
 20
0.490000
 30
0.000000
  0
SEQEND
  8
0
  0
POLYLINE
  8
1
 66
1
 10
0.000000
 20
0.000000
 30
0.000000
 40
0.012000
 41
0.012000
 70
0
  0
VERTEX
  8
1
 10
0.214765
 20
0.484042
 30
0.000000
 42
1.000000
  0
VERTEX
  8
1
 10
0.213346
 20
0.495958
 30
0.000000
  0
SEQEND
  8
0
  0
POLYLINE
  8
1
 66
1
 10
0.000000
 20
0.000000
 30
0.000000
 40
0.012000
 41
0.012000
 70
0
  0
VERTEX
  8
1
 10
0.179291
 20
0.491903
 30
0.000000
 42
1.000000
  0
VERTEX
  8
1
 10
0.180709
 20
0.479987
 30
0.000000
  0
SEQEND
  8
0
  0
POLYLINE
  8
1
 66
1
 10
0.000000
 20
0.000000
 30
0.000000
 40
0.024000
 41
0.024000
 70
0
  0
VERTEX
  8
1
 10
0.214055
 20
0.490000
 30
0.000000
  0
VERTEX
  8
1
 10
0.377638
 20
0.490000
 30
0.000000
  0
SEQEND
  8
0
  0
POLYLINE
  8
1
 66
1
 10
0.000000
 20
0.000000
 30
0.000000
 40
0.012000
 41
0.012000
 70
0
  0
VERTEX
  8
1
 10
0.377638
 20
0.484000
 30
0.000000
 42
1.000000
  0
VERTEX
  8
1
 10
0.377638
 20
0.496000
 30
0.000000
  0
SEQEND
  8
0
  0
POLYLINE
  8
1
 66
1
 10
0.000000
 20
0.000000
 30
0.000000
 40
0.012000
 41
0.012000
 70
0
  0
VERTEX
  8
1
 10
0.214055
 20
0.496000
 30
0.000000
 42
1.000000
  0
VERTEX
  8
1
 10
0.214055
 20
0.484000
 30
0.000000
  0
SEQEND
  8
0
  0
POLYLINE
  8
1
 66
1
 10
0.000000
 20
0.000000
 30
0.000000
 40
0.024000
 41
0.024000
 70
0
  0
VERTEX
  8
1
 10
0.295000
 20
0.440000
 30
0.000000
  0
VERTEX
  8
1
 10
0.377638
 20
0.440000
 30
0.000000
  0
SEQEND
  8
0
  0
POLYLINE
  8
1
 66
1
 10
0.000000
 20
0.000000
 30
0.000000
 40
0.012000
 41
0.012000
 70
0
  0
VERTEX
  8
1
 10
0.377638
 20
0.434000
 30
0.000000
 42
1.000000
  0
VERTEX
  8
1
 10
0.377638
 20
0.446000
 30
0.000000
  0
SEQEND
  8
0
  0
POLYLINE
  8
1
 66
1
 10
0.000000
 20
0.000000
 30
0.000000
 40
0.012000
 41
0.012000
 70
0
  0
VERTEX
  8
1
 10
0.295000
 20
0.446000
 30
0.000000
 42
1.000000
  0
VERTEX
  8
1
 10
0.295000
 20
0.434000
 30
0.000000
  0
SEQEND
  8
0
  0
POLYLINE
  8
1
 66
1
 10
0.000000
 20
0.000000
 30
0.000000
 40
0.024000
 41
0.024000
 70
0
  0
VERTEX
  8
1
 10
0.190000
 20
0.335000
 30
0.000000
  0
VERTEX
  8
1
 10
0.295000
 20
0.440000
 30
0.000000
  0
SEQEND
  8
0
  0
POLYLINE
  8
1
 66
1
 10
0.000000
 20
0.000000
 30
0.000000
 40
0.012000
 41
0.012000
 70
0
  0
VERTEX
  8
1
 10
0.299243
 20
0.435757
 30
0.000000
 42
1.000000
  0
VERTEX
  8
1
 10
0.290757
 20
0.444243
 30
0.000000
  0
SEQEND
  8
0
  0
POLYLINE
  8
1
 66
1
 10
0.000000
 20
0.000000
 30
0.000000
 40
0.012000
 41
0.012000
 70
0
  0
VERTEX
  8
1
 10
0.185757
 20
0.339243
 30
0.000000
 42
1.000000
  0
VERTEX
  8
1
 10
0.194243
 20
0.330757
 30
0.000000
  0
SEQEND
  8
0
  0
POLYLINE
  8
1
 66
1
 10
0.000000
 20
0.000000
 30
0.000000
 40
0.024000
 41
0.024000
 70
0
  0
VERTEX
  8
1
 10
0.175000
 20
0.329055
 30
0.000000
  0
VERTEX
  8
1
 10
0.175000
 20
0.330000
 30
0.000000
  0
SEQEND
  8
0
  0
POLYLINE
  8
1
 66
1
 10
0.000000
 20
0.000000
 30
0.000000
 40
0.012000
 41
0.012000
 70
0
  0
VERTEX
  8
1
 10
0.181000
 20
0.330000
 30
0.000000
 42
1.000000
  0
VERTEX
  8
1
 10
0.169000
 20
0.330000
 30
0.000000
  0
SEQEND
  8
0
  0
POLYLINE
  8
1
 66
1
 10
0.000000
 20
0.000000
 30
0.000000
 40
0.012000
 41
0.012000
 70
0
  0
VERTEX
  8
1
 10
0.169000
 20
0.329055
 30
0.000000
 42
1.000000
  0
VERTEX
  8
1
 10
0.181000
 20
0.329055
 30
0.000000
  0
SEQEND
  8
0
  0
POLYLINE
  8
1
 66
1
 10
0.000000
 20
0.000000
 30
0.000000
 40
0.024000
 41
0.024000
 70
0
  0
VERTEX
  8
1
 10
0.180000
 20
0.324055
 30
0.000000
  0
VERTEX
  8
1
 10
0.175000
 20
0.329055
 30
0.000000
  0
SEQEND
  8
0
  0
POLYLINE
  8
1
 66
1
 10
0.000000
 20
0.000000
 30
0.000000
 40
0.012000
 41
0.012000
 70
0
  0
VERTEX
  8
1
 10
0.179243
 20
0.333298
 30
0.000000
 42
1.000000
  0
VERTEX
  8
1
 10
0.170757
 20
0.324812
 30
0.000000
  0
SEQEND
  8
0
  0
POLYLINE
  8
1
 66
1
 10
0.000000
 20
0.000000
 30
0.000000
 40
0.012000
 41
0.012000
 70
0
  0
VERTEX
  8
1
 10
0.175757
 20
0.319812
 30
0.000000
 42
1.000000
  0
VERTEX
  8
1
 10
0.184243
 20
0.328298
 30
0.000000
  0
SEQEND
  8
0
  0
POLYLINE
  8
1
 66
1
 10
0.000000
 20
0.000000
 30
0.000000
 40
0.024000
 41
0.024000
 70
0
  0
VERTEX
  8
1
 10
0.175000
 20
0.330000
 30
0.000000
  0
VERTEX
  8
1
 10
0.190000
 20
0.335000
 30
0.000000
  0
SEQEND
  8
0
  0
POLYLINE
  8
1
 66
1
 10
0.000000
 20
0.000000
 30
0.000000
 40
0.012000
 41
0.012000
 70
0
  0
VERTEX
  8
1
 10
0.191897
 20
0.329308
 30
0.000000
 42
1.000000
  0
VERTEX
  8
1
 10
0.188103
 20
0.340692
 30
0.000000
  0
SEQEND
  8
0
  0
POLYLINE
  8
1
 66
1
 10
0.000000
 20
0.000000
 30
0.000000
 40
0.012000
 41
0.012000
 70
0
  0
VERTEX
  8
1
 10
0.173103
 20
0.335692
 30
0.000000
 42
1.000000
  0
VERTEX
  8
1
 10
0.176897
 20
0.324308
 30
0.000000
  0
SEQEND
  8
0
  0
POLYLINE
  8
1
 66
1
 10
0.000000
 20
0.000000
 30
0.000000
 40
0.024000
 41
0.024000
 70
0
  0
VERTEX
  8
1
 10
0.180000
 20
0.604055
 30
0.000000
  0
VERTEX
  8
1
 10
0.219055
 20
0.595000
 30
0.000000
  0
SEQEND
  8
0
  0
POLYLINE
  8
1
 66
1
 10
0.000000
 20
0.000000
 30
0.000000
 40
0.012000
 41
0.012000
 70
0
  0
VERTEX
  8
1
 10
0.217700
 20
0.589155
 30
0.000000
 42
1.000000
  0
VERTEX
  8
1
 10
0.220410
 20
0.600845
 30
0.000000
  0
SEQEND
  8
0
  0
POLYLINE
  8
1
 66
1
 10
0.000000
 20
0.000000
 30
0.000000
 40
0.012000
 41
0.012000
 70
0
  0
VERTEX
  8
1
 10
0.181355
 20
0.609900
 30
0.000000
 42
1.000000
  0
VERTEX
  8
1
 10
0.178645
 20
0.598210
 30
0.000000
  0
SEQEND
  8
0
  0
POLYLINE
  8
1
 66
1
 10
0.000000
 20
0.000000
 30
0.000000
 40
0.024000
 41
0.024000
 70
0
  0
VERTEX
  8
1
 10
0.219055
 20
0.595000
 30
0.000000
  0
VERTEX
  8
1
 10
0.250000
 20
0.565000
 30
0.000000
  0
SEQEND
  8
0
  0
POLYLINE
  8
1
 66
1
 10
0.000000
 20
0.000000
 30
0.000000
 40
0.012000
 41
0.012000
 70
0
  0
VERTEX
  8
1
 10
0.245824
 20
0.560692
 30
0.000000
 42
1.000000
  0
VERTEX
  8
1
 10
0.254176
 20
0.569308
 30
0.000000
  0
SEQEND
  8
0
  0
POLYLINE
  8
1
 66
1
 10
0.000000
 20
0.000000
 30
0.000000
 40
0.012000
 41
0.012000
 70
0
  0
VERTEX
  8
1
 10
0.223231
 20
0.599308
 30
0.000000
 42
1.000000
  0
VERTEX
  8
1
 10
0.214879
 20
0.590692
 30
0.000000
  0
SEQEND
  8
0
  0
POLYLINE
  8
1
 66
1
 10
0.000000
 20
0.000000
 30
0.000000
 40
0.024000
 41
0.024000
 70
0
  0
VERTEX
  8
1
 10
0.377638
 20
0.540000
 30
0.000000
  0
VERTEX
  8
1
 10
0.380000
 20
0.540000
 30
0.000000
  0
SEQEND
  8
0
  0
POLYLINE
  8
1
 66
1
 10
0.000000
 20
0.000000
 30
0.000000
 40
0.012000
 41
0.012000
 70
0
  0
VERTEX
  8
1
 10
0.380000
 20
0.534000
 30
0.000000
 42
1.000000
  0
VERTEX
  8
1
 10
0.380000
 20
0.546000
 30
0.000000
  0
SEQEND
  8
0
  0
POLYLINE
  8
1
 66
1
 10
0.000000
 20
0.000000
 30
0.000000
 40
0.012000
 41
0.012000
 70
0
  0
VERTEX
  8
1
 10
0.377638
 20
0.546000
 30
0.000000
 42
1.000000
  0
VERTEX
  8
1
 10
0.377638
 20
0.534000
 30
0.000000
  0
SEQEND
  8
0
  0
POLYLINE
  8
1
 66
1
 10
0.000000
 20
0.000000
 30
0.000000
 40
0.024000
 41
0.024000
 70
0
  0
VERTEX
  8
1
 10
0.250000
 20
0.565000
 30
0.000000
  0
VERTEX
  8
1
 10
0.275000
 20
0.540000
 30
0.000000
  0
SEQEND
  8
0
  0
POLYLINE
  8
1
 66
1
 10
0.000000
 20
0.000000
 30
0.000000
 40
0.012000
 41
0.012000
 70
0
  0
VERTEX
  8
1
 10
0.270757
 20
0.535757
 30
0.000000
 42
1.000000
  0
VERTEX
  8
1
 10
0.279243
 20
0.544243
 30
0.000000
  0
SEQEND
  8
0
  0
POLYLINE
  8
1
 66
1
 10
0.000000
 20
0.000000
 30
0.000000
 40
0.012000
 41
0.012000
 70
0
  0
VERTEX
  8
1
 10
0.254243
 20
0.569243
 30
0.000000
 42
1.000000
  0
VERTEX
  8
1
 10
0.245757
 20
0.560757
 30
0.000000
  0
SEQEND
  8
0
  0
POLYLINE
  8
1
 66
1
 10
0.000000
 20
0.000000
 30
0.000000
 40
0.024000
 41
0.024000
 70
0
  0
VERTEX
  8
1
 10
0.275000
 20
0.540000
 30
0.000000
  0
VERTEX
  8
1
 10
0.377638
 20
0.540000
 30
0.000000
  0
SEQEND
  8
0
  0
POLYLINE
  8
1
 66
1
 10
0.000000
 20
0.000000
 30
0.000000
 40
0.012000
 41
0.012000
 70
0
  0
VERTEX
  8
1
 10
0.377638
 20
0.534000
 30
0.000000
 42
1.000000
  0
VERTEX
  8
1
 10
0.377638
 20
0.546000
 30
0.000000
  0
SEQEND
  8
0
  0
POLYLINE
  8
1
 66
1
 10
0.000000
 20
0.000000
 30
0.000000
 40
0.012000
 41
0.012000
 70
0
  0
VERTEX
  8
1
 10
0.275000
 20
0.546000
 30
0.000000
 42
1.000000
  0
VERTEX
  8
1
 10
0.275000
 20
0.534000
 30
0.000000
  0
SEQEND
  8
0
  0
ENDSEC
  0
EOF
