  0
SECTION
  2
HEADER
  9
$ACADVER
  1
AC1009
  9
$FILLMODE
 70
0
  9
$EXTMIN
 10
-0.142110
 20
-0.148157
 30
0.000000
  9
$EXTMAX
 10
1.755713
 20
1.647870
 30
0.000000
  0
ENDSEC
  0
SECTION
  2
TABLES
  0
TABLE
  2
LTYPE
 70
1
  0
LTYPE
  2
CONTINUOUS
 70
64
  3
Solid line
 72
65
 73
0
 40
0
  0
ENDTAB
  0
TABLE
  2
LAYER
 70
255
  0
LAYER
  2
102
 70
64
 62
253
  6
CONTINUOUS
  0
ENDTAB
  0
ENDSEC
  0
SECTION
  2
BLOCKS
  0
BLOCK
  8
0
  2
RECT
 70
64
 10
0.000000
 20
0.000000
 30
0.000000
  3
RECT
  0
SOLID
  8
0
 10
-0.500000
 20
-0.500000
 30
0.000000
 11
0.500000
 21
-0.500000
 31
0.000000
 12
-0.500000
 22
0.500000
 32
0.000000
 13
0.500000
 23
0.500000
 33
0.000000
  0
ENDBLK
  8
0
  0
BLOCK
  8
0
  2
PIE
 70
64
 10
0.000000
 20
0.000000
 30
0.000000
  3
PIE
  0
CIRCLE
  8
0
 10
0.000000
 20
0.000000
 30
0.000000
 40
0.500000
  0
ENDBLK
  8
0
  0
BLOCK
  8
0
  2
OCTAGONP
 70
64
 10
0.000000
 20
0.000000
 30
0.000000
  3
OCTAGONP
  0
POLYLINE
  8
0
 66
1
 10
0.000000
 20
0.000000
 30
0.000000
 40
0.000000
 41
0.000000
 70
1
  0
VERTEX
  8
0
 10
-0.500000
 20
-0.207107
 30
0.000000
  0
VERTEX
  8
0
 10
-0.500000
 20
0.207107
 30
0.000000
  0
VERTEX
  8
0
 10
-0.207107
 20
0.500000
 30
0.000000
  0
VERTEX
  8
0
 10
0.207107
 20
0.500000
 30
0.000000
  0
VERTEX
  8
0
 10
0.500000
 20
0.207107
 30
0.000000
  0
VERTEX
  8
0
 10
0.500000
 20
-0.207107
 30
0.000000
  0
VERTEX
  8
0
 10
0.207107
 20
-0.500000
 30
0.000000
  0
VERTEX
  8
0
 10
-0.207107
 20
-0.500000
 30
0.000000
  0
SEQEND
  8
0
  0
ENDBLK
  8
0
  0
BLOCK
  8
0
  2
SQUAREP
 70
64
 10
0.000000
 20
0.000000
 30
0.000000
  3
SQUAREP
  0
SOLID
  8
0
 10
-0.500000
 20
-0.500000
 30
0.000000
 11
0.500000
 21
-0.500000
 31
0.000000
 12
-0.500000
 22
0.500000
 32
0.000000
 13
0.500000
 23
0.500000
 33
0.000000
  0
ENDBLK
  8
0
  0
BLOCK
  8
0
  2
ROUNDP
 70
64
 10
0.000000
 20
0.000000
 30
0.000000
  3
ROUNDP
  0
CIRCLE
  8
0
 10
0.000000
 20
0.000000
 30
0.000000
 40
0.500000
  0
ENDBLK
  8
0
  0
BLOCK
  8
0
  2
ANNULUSP
 70
64
 10
0.000000
 20
0.000000
 30
0.000000
  3
ANNULUSP
  0
CIRCLE
  8
0
 10
0.000000
 20
0.000000
 30
0.000000
 40
0.500000
  0
ENDBLK
  8
0
  0
BLOCK
  8
0
  2
THERMALP
 70
64
 10
0.000000
 20
0.000000
 30
0.000000
  3
THERMALP
  0
LINE
  8
0
 10
-0.237868
 20
0.450000
 30
0.000000
 11
0.237868
 21
0.450000
 31
0.000000
  0
LINE
  8
0
 10
0.450000
 20
0.237868
 30
0.000000
 11
0.450000
 21
-0.237868
 31
0.000000
  0
LINE
  8
0
 10
0.237868
 20
-0.450000
 30
0.000000
 11
-0.237868
 21
-0.450000
 31
0.000000
  0
LINE
  8
0
 10
-0.450000
 20
-0.237868
 30
0.000000
 11
-0.450000
 21
0.237868
 31
0.000000
  0
ENDBLK
  8
0
  0
BLOCK
  8
0
  2
OCTAGONV
 70
64
 10
0.000000
 20
0.000000
 30
0.000000
  3
OCTAGONV
  0
POLYLINE
  8
0
 66
1
 10
0.000000
 20
0.000000
 30
0.000000
 40
0.000000
 41
0.000000
 70
1
  0
VERTEX
  8
0
 10
-0.500000
 20
-0.207107
 30
0.000000
  0
VERTEX
  8
0
 10
-0.500000
 20
0.207107
 30
0.000000
  0
VERTEX
  8
0
 10
-0.207107
 20
0.500000
 30
0.000000
  0
VERTEX
  8
0
 10
0.207107
 20
0.500000
 30
0.000000
  0
VERTEX
  8
0
 10
0.500000
 20
0.207107
 30
0.000000
  0
VERTEX
  8
0
 10
0.500000
 20
-0.207107
 30
0.000000
  0
VERTEX
  8
0
 10
0.207107
 20
-0.500000
 30
0.000000
  0
VERTEX
  8
0
 10
-0.207107
 20
-0.500000
 30
0.000000
  0
SEQEND
  8
0
  0
ENDBLK
  8
0
  0
BLOCK
  8
0
  2
SQUAREV
 70
64
 10
0.000000
 20
0.000000
 30
0.000000
  3
SQUAREV
  0
SOLID
  8
0
 10
-0.500000
 20
-0.500000
 30
0.000000
 11
0.500000
 21
-0.500000
 31
0.000000
 12
-0.500000
 22
0.500000
 32
0.000000
 13
0.500000
 23
0.500000
 33
0.000000
  0
ENDBLK
  8
0
  0
BLOCK
  8
0
  2
ROUNDV
 70
64
 10
0.000000
 20
0.000000
 30
0.000000
  3
ROUNDV
  0
CIRCLE
  8
0
 10
0.000000
 20
0.000000
 30
0.000000
 40
0.500000
  0
ENDBLK
  8
0
  0
BLOCK
  8
0
  2
ANNULUSV
 70
64
 10
0.000000
 20
0.000000
 30
0.000000
  3
ANNULUSV
  0
CIRCLE
  8
0
 10
0.000000
 20
0.000000
 30
0.000000
 40
0.500000
  0
ENDBLK
  8
0
  0
BLOCK
  8
0
  2
THERMALV
 70
64
 10
0.000000
 20
0.000000
 30
0.000000
  3
THERMALV
  0
LINE
  8
0
 10
-0.237868
 20
0.450000
 30
0.000000
 11
0.237868
 21
0.450000
 31
0.000000
  0
LINE
  8
0
 10
0.450000
 20
0.237868
 30
0.000000
 11
0.450000
 21
-0.237868
 31
0.000000
  0
LINE
  8
0
 10
0.237868
 20
-0.450000
 30
0.000000
 11
-0.237868
 21
-0.450000
 31
0.000000
  0
LINE
  8
0
 10
-0.450000
 20
-0.237868
 30
0.000000
 11
-0.450000
 21
0.237868
 31
0.000000
  0
ENDBLK
  8
0
  0
BLOCK
  8
0
  2
LONGP100
 70
64
 10
0.000000
 20
0.000000
 30
0.000000
  3
LONGP100
  0
POLYLINE
  8
0
 66
1
 10
0.000000
 20
0.000000
 30
0.000000
 40
0.000000
 41
0.000000
 70
1
  0
VERTEX
  8
0
 10
-1.000000
 20
-0.207107
 30
0.000000
  0
VERTEX
  8
0
 10
-1.000000
 20
0.207107
 30
0.000000
  0
VERTEX
  8
0
 10
-0.707107
 20
0.500000
 30
0.000000
  0
VERTEX
  8
0
 10
0.707107
 20
0.500000
 30
0.000000
  0
VERTEX
  8
0
 10
1.000000
 20
0.207107
 30
0.000000
  0
VERTEX
  8
0
 10
1.000000
 20
-0.207107
 30
0.000000
  0
VERTEX
  8
0
 10
0.707107
 20
-0.500000
 30
0.000000
  0
VERTEX
  8
0
 10
-0.707107
 20
-0.500000
 30
0.000000
  0
SEQEND
  8
0
  0
ENDBLK
  8
0
  0
ENDSEC
  0
SECTION
  2
ENTITIES
  0
LINE
  8
102
 10
1.107815
 20
0.863193
 30
0.000000
 11
1.112181
 21
0.858823
 31
0.000000
  0
LINE
  8
102
 10
1.112181
 20
0.858823
 30
0.000000
 11
1.112181
 21
0.851173
 31
0.000000
  0
LINE
  8
102
 10
1.112181
 20
0.851173
 30
0.000000
 11
1.107815
 21
0.846803
 31
0.000000
  0
LINE
  8
102
 10
1.107815
 20
0.846803
 30
0.000000
 11
1.107815
 21
0.863193
 31
0.000000
  0
LINE
  8
102
 10
0.942681
 20
0.799189
 30
0.000000
 11
0.960201
 21
0.799189
 31
0.000000
  0
LINE
  8
102
 10
0.960201
 20
0.799189
 30
0.000000
 11
0.954748
 21
0.793740
 31
0.000000
  0
LINE
  8
102
 10
0.954748
 20
0.793740
 30
0.000000
 11
0.936201
 21
0.775189
 31
0.000000
  0
LINE
  8
102
 10
0.936201
 20
0.775189
 30
0.000000
 11
0.936201
 21
0.805673
 31
0.000000
  0
LINE
  8
102
 10
0.936201
 20
0.805673
 30
0.000000
 11
0.942681
 21
0.799189
 31
0.000000
  0
LINE
  8
102
 10
0.675417
 20
0.740000
 30
0.000000
 11
0.660295
 21
0.724874
 31
0.000000
  0
LINE
  8
102
 10
0.660295
 20
0.724874
 30
0.000000
 11
0.660295
 21
0.743787
 31
0.000000
  0
LINE
  8
102
 10
0.660295
 20
0.743787
 30
0.000000
 11
0.660295
 21
0.755122
 31
0.000000
  0
LINE
  8
102
 10
0.660295
 20
0.755122
 30
0.000000
 11
0.675417
 21
0.740000
 31
0.000000
  0
LINE
  8
102
 10
0.255291
 20
0.182602
 30
0.000000
 11
0.255291
 21
0.174882
 31
0.000000
  0
LINE
  8
102
 10
0.255291
 20
0.174882
 30
0.000000
 11
0.251433
 21
0.178744
 31
0.000000
  0
LINE
  8
102
 10
0.251433
 20
0.178744
 30
0.000000
 11
0.255291
 21
0.182602
 31
0.000000
  0
LINE
  8
102
 10
0.734512
 20
0.973528
 30
0.000000
 11
0.731173
 21
0.976866
 31
0.000000
  0
LINE
  8
102
 10
0.731173
 20
0.976866
 30
0.000000
 11
0.737854
 21
0.976866
 31
0.000000
  0
LINE
  8
102
 10
0.737854
 20
0.976866
 30
0.000000
 11
0.734512
 21
0.973528
 31
0.000000
  0
LINE
  8
102
 10
0.517646
 20
0.909661
 30
0.000000
 11
0.569795
 21
0.909661
 31
0.000000
  0
LINE
  8
102
 10
0.569795
 20
0.909661
 30
0.000000
 11
0.569795
 21
0.857512
 31
0.000000
  0
LINE
  8
102
 10
0.569795
 20
0.857512
 30
0.000000
 11
0.517646
 21
0.909661
 31
0.000000
  0
LINE
  8
102
 10
0.505248
 20
0.596256
 30
0.000000
 11
0.505803
 21
0.596815
 31
0.000000
  0
LINE
  8
102
 10
0.505803
 20
0.596815
 30
0.000000
 11
0.505803
 21
0.550583
 31
0.000000
  0
LINE
  8
102
 10
0.505803
 20
0.550583
 30
0.000000
 11
0.505803
 21
0.500583
 31
0.000000
  0
LINE
  8
102
 10
0.505803
 20
0.500583
 30
0.000000
 11
0.505803
 21
0.470248
 31
0.000000
  0
LINE
  8
102
 10
0.505803
 20
0.470248
 30
0.000000
 11
0.505248
 21
0.470248
 31
0.000000
  0
LINE
  8
102
 10
0.505248
 20
0.470248
 30
0.000000
 11
0.505248
 21
0.596256
 31
0.000000
  0
LINE
  8
102
 10
0.770717
 20
0.159748
 30
0.000000
 11
0.709957
 21
0.099031
 31
0.000000
  0
LINE
  8
102
 10
0.709957
 20
0.099031
 30
0.000000
 11
0.522193
 21
0.099079
 31
0.000000
  0
LINE
  8
102
 10
0.522193
 20
0.099079
 30
0.000000
 11
0.571122
 21
0.148012
 31
0.000000
  0
LINE
  8
102
 10
0.571122
 20
0.148012
 30
0.000000
 11
0.572067
 21
0.148953
 31
0.000000
  0
LINE
  8
102
 10
0.572067
 20
0.148953
 30
0.000000
 11
0.572067
 21
0.152425
 31
0.000000
  0
LINE
  8
102
 10
0.572067
 20
0.152425
 30
0.000000
 11
0.581791
 21
0.162150
 31
0.000000
  0
LINE
  8
102
 10
0.581791
 20
0.162150
 30
0.000000
 11
0.581791
 21
0.259217
 31
0.000000
  0
LINE
  8
102
 10
0.581791
 20
0.259217
 30
0.000000
 11
0.681256
 21
0.159748
 31
0.000000
  0
LINE
  8
102
 10
0.681256
 20
0.159748
 30
0.000000
 11
0.718740
 21
0.159748
 31
0.000000
  0
LINE
  8
102
 10
0.718740
 20
0.159748
 30
0.000000
 11
0.770717
 21
0.159748
 31
0.000000
  0
LINE
  8
102
 10
0.719937
 20
0.250248
 30
0.000000
 11
0.718740
 21
0.250248
 31
0.000000
  0
LINE
  8
102
 10
0.718740
 20
0.250248
 30
0.000000
 11
0.639236
 21
0.329748
 31
0.000000
  0
LINE
  8
102
 10
0.639236
 20
0.329748
 30
0.000000
 11
0.641256
 21
0.329748
 31
0.000000
  0
LINE
  8
102
 10
0.641256
 20
0.329748
 30
0.000000
 11
0.659748
 21
0.311256
 31
0.000000
  0
LINE
  8
102
 10
0.659748
 20
0.311256
 30
0.000000
 11
0.686256
 21
0.284748
 31
0.000000
  0
LINE
  8
102
 10
0.686256
 20
0.284748
 30
0.000000
 11
0.719748
 21
0.284748
 31
0.000000
  0
LINE
  8
102
 10
0.719748
 20
0.284748
 30
0.000000
 11
0.719748
 21
0.278894
 31
0.000000
  0
LINE
  8
102
 10
0.719748
 20
0.278894
 30
0.000000
 11
0.719937
 21
0.278705
 31
0.000000
  0
LINE
  8
102
 10
0.719937
 20
0.278705
 30
0.000000
 11
0.719937
 21
0.250248
 31
0.000000
  0
LINE
  8
102
 10
0.529272
 20
0.770059
 30
0.000000
 11
0.525280
 21
0.770059
 31
0.000000
  0
LINE
  8
102
 10
0.525280
 20
0.770059
 30
0.000000
 11
0.510248
 21
0.755024
 31
0.000000
  0
LINE
  8
102
 10
0.510248
 20
0.755024
 30
0.000000
 11
0.510248
 21
0.789083
 31
0.000000
  0
LINE
  8
102
 10
0.510248
 20
0.789083
 30
0.000000
 11
0.529272
 21
0.770059
 31
0.000000
  0
LINE
  8
102
 10
0.356256
 20
0.854748
 30
0.000000
 11
0.419748
 21
0.791256
 31
0.000000
  0
LINE
  8
102
 10
0.419748
 20
0.791256
 30
0.000000
 11
0.419748
 21
0.770059
 31
0.000000
  0
LINE
  8
102
 10
0.419748
 20
0.770059
 30
0.000000
 11
0.396567
 21
0.770059
 31
0.000000
  0
LINE
  8
102
 10
0.396567
 20
0.770059
 30
0.000000
 11
0.311874
 21
0.854748
 31
0.000000
  0
LINE
  8
102
 10
0.311874
 20
0.854748
 30
0.000000
 11
0.356256
 21
0.854748
 31
0.000000
  0
LINE
  8
102
 10
0.115248
 20
0.421831
 30
0.000000
 11
0.115248
 21
0.458165
 31
0.000000
  0
LINE
  8
102
 10
0.115248
 20
0.458165
 30
0.000000
 11
0.214177
 21
0.458165
 31
0.000000
  0
LINE
  8
102
 10
0.214177
 20
0.458165
 30
0.000000
 11
0.177839
 21
0.421831
 31
0.000000
  0
LINE
  8
102
 10
0.177839
 20
0.421831
 30
0.000000
 11
0.115248
 21
0.421831
 31
0.000000
  0
LINE
  8
102
 10
1.031748
 20
1.013799
 30
0.000000
 11
1.054748
 21
0.990799
 31
0.000000
  0
LINE
  8
102
 10
1.054748
 20
0.990799
 30
0.000000
 11
1.054748
 21
0.920807
 31
0.000000
  0
LINE
  8
102
 10
1.054748
 20
0.920807
 30
0.000000
 11
0.942681
 21
0.920807
 31
0.000000
  0
LINE
  8
102
 10
0.942681
 20
0.920807
 30
0.000000
 11
0.927122
 21
0.905248
 31
0.000000
  0
LINE
  8
102
 10
0.927122
 20
0.905248
 30
0.000000
 11
0.925256
 21
0.905248
 31
0.000000
  0
LINE
  8
102
 10
0.925256
 20
0.905248
 30
0.000000
 11
0.925256
 21
0.964756
 31
0.000000
  0
LINE
  8
102
 10
0.925256
 20
0.964756
 30
0.000000
 11
0.917319
 21
0.972693
 31
0.000000
  0
LINE
  8
102
 10
0.917319
 20
0.972693
 30
0.000000
 11
0.917319
 21
0.992315
 31
0.000000
  0
LINE
  8
102
 10
0.917319
 20
0.992315
 30
0.000000
 11
0.890811
 21
1.018823
 31
0.000000
  0
LINE
  8
102
 10
0.890811
 20
1.018823
 30
0.000000
 11
0.890807
 21
1.018823
 31
0.000000
  0
LINE
  8
102
 10
0.890807
 20
1.018823
 30
0.000000
 11
0.842268
 21
1.067366
 31
0.000000
  0
LINE
  8
102
 10
0.842268
 20
1.067366
 30
0.000000
 11
0.804783
 21
1.067366
 31
0.000000
  0
LINE
  8
102
 10
0.804783
 20
1.067366
 30
0.000000
 11
0.635937
 21
1.067366
 31
0.000000
  0
LINE
  8
102
 10
0.635937
 20
1.067366
 30
0.000000
 11
0.609429
 21
1.040858
 31
0.000000
  0
LINE
  8
102
 10
0.609429
 20
1.040858
 30
0.000000
 11
0.601831
 21
1.033256
 31
0.000000
  0
LINE
  8
102
 10
0.601831
 20
1.033256
 30
0.000000
 11
0.601831
 21
1.070858
 31
0.000000
  0
LINE
  8
102
 10
0.601831
 20
1.070858
 30
0.000000
 11
0.591339
 21
1.081346
 31
0.000000
  0
LINE
  8
102
 10
0.591339
 20
1.081346
 30
0.000000
 11
0.591339
 21
1.122276
 31
0.000000
  0
LINE
  8
102
 10
0.591339
 20
1.122276
 30
0.000000
 11
0.596957
 21
1.127894
 31
0.000000
  0
LINE
  8
102
 10
0.596957
 20
1.127894
 30
0.000000
 11
0.687634
 21
1.127894
 31
0.000000
  0
LINE
  8
102
 10
0.687634
 20
1.127894
 30
0.000000
 11
0.697327
 21
1.118197
 31
0.000000
  0
LINE
  8
102
 10
0.697327
 20
1.118197
 30
0.000000
 11
0.862669
 21
1.118197
 31
0.000000
  0
LINE
  8
102
 10
0.862669
 20
1.118197
 30
0.000000
 11
0.878224
 21
1.133756
 31
0.000000
  0
LINE
  8
102
 10
0.878224
 20
1.133756
 30
0.000000
 11
1.012390
 21
1.133756
 31
0.000000
  0
LINE
  8
102
 10
1.012390
 20
1.133756
 30
0.000000
 11
1.031748
 21
1.114398
 31
0.000000
  0
LINE
  8
102
 10
1.031748
 20
1.114398
 30
0.000000
 11
1.031748
 21
1.013799
 31
0.000000
  0
LINE
  8
102
 10
0.889413
 20
0.374193
 30
0.000000
 11
0.840583
 21
0.374193
 31
0.000000
  0
LINE
  8
102
 10
0.840583
 20
0.374193
 30
0.000000
 11
0.823181
 21
0.374193
 31
0.000000
  0
LINE
  8
102
 10
0.823181
 20
0.374193
 30
0.000000
 11
0.845248
 21
0.396256
 31
0.000000
  0
LINE
  8
102
 10
0.845248
 20
0.396256
 30
0.000000
 11
0.860248
 21
0.411256
 31
0.000000
  0
LINE
  8
102
 10
0.860248
 20
0.411256
 30
0.000000
 11
0.860248
 21
0.425803
 31
0.000000
  0
LINE
  8
102
 10
0.860248
 20
0.425803
 30
0.000000
 11
0.869748
 21
0.425803
 31
0.000000
  0
LINE
  8
102
 10
0.869748
 20
0.425803
 30
0.000000
 11
0.869748
 21
0.401256
 31
0.000000
  0
LINE
  8
102
 10
0.869748
 20
0.401256
 30
0.000000
 11
0.896256
 21
0.374748
 31
0.000000
  0
LINE
  8
102
 10
0.896256
 20
0.374748
 30
0.000000
 11
0.896815
 21
0.374193
 31
0.000000
  0
LINE
  8
102
 10
0.896815
 20
0.374193
 30
0.000000
 11
0.889413
 21
0.374193
 31
0.000000
  0
LINE
  8
102
 10
0.719937
 20
0.460248
 30
0.000000
 11
0.715248
 21
0.460248
 31
0.000000
  0
LINE
  8
102
 10
0.715248
 20
0.460248
 30
0.000000
 11
0.715248
 21
0.618165
 31
0.000000
  0
LINE
  8
102
 10
0.715248
 20
0.618165
 30
0.000000
 11
0.744177
 21
0.618165
 31
0.000000
  0
LINE
  8
102
 10
0.744177
 20
0.618165
 30
0.000000
 11
0.719748
 21
0.593740
 31
0.000000
  0
LINE
  8
102
 10
0.719748
 20
0.593740
 30
0.000000
 11
0.719748
 21
0.556256
 31
0.000000
  0
LINE
  8
102
 10
0.719748
 20
0.556256
 30
0.000000
 11
0.719748
 21
0.483618
 31
0.000000
  0
LINE
  8
102
 10
0.719748
 20
0.483618
 30
0.000000
 11
0.719937
 21
0.483429
 31
0.000000
  0
LINE
  8
102
 10
0.719937
 20
0.483429
 30
0.000000
 11
0.719937
 21
0.460248
 31
0.000000
  0
LINE
  8
102
 10
1.003748
 20
0.714760
 30
0.000000
 11
1.003748
 21
0.674630
 31
0.000000
  0
LINE
  8
102
 10
1.003748
 20
0.674630
 30
0.000000
 11
1.022110
 21
0.656272
 31
0.000000
  0
LINE
  8
102
 10
1.022110
 20
0.656272
 30
0.000000
 11
1.022165
 21
0.655248
 31
0.000000
  0
LINE
  8
102
 10
1.022165
 20
0.655248
 30
0.000000
 11
0.944236
 21
0.655248
 31
0.000000
  0
LINE
  8
102
 10
0.944236
 20
0.655248
 30
0.000000
 11
1.003748
 21
0.714760
 31
0.000000
  0
LINE
  8
102
 10
0.960059
 20
0.559441
 30
0.000000
 11
0.954748
 21
0.564748
 31
0.000000
  0
LINE
  8
102
 10
0.954748
 20
0.564748
 30
0.000000
 11
1.024748
 21
0.564748
 31
0.000000
  0
LINE
  8
102
 10
1.024748
 20
0.564748
 30
0.000000
 11
1.024748
 21
0.374236
 31
0.000000
  0
LINE
  8
102
 10
1.024748
 20
0.374236
 30
0.000000
 11
0.960248
 21
0.438740
 31
0.000000
  0
LINE
  8
102
 10
0.960248
 20
0.438740
 30
0.000000
 11
0.960248
 21
0.521102
 31
0.000000
  0
LINE
  8
102
 10
0.960248
 20
0.521102
 30
0.000000
 11
0.960059
 21
0.521287
 31
0.000000
  0
LINE
  8
102
 10
0.960059
 20
0.521287
 30
0.000000
 11
0.960059
 21
0.559441
 31
0.000000
  0
LINE
  8
102
 10
1.146748
 20
0.223799
 30
0.000000
 11
1.175303
 21
0.195248
 31
0.000000
  0
LINE
  8
102
 10
1.175303
 20
0.195248
 30
0.000000
 11
1.148740
 21
0.195248
 31
0.000000
  0
LINE
  8
102
 10
1.148740
 20
0.195248
 30
0.000000
 11
1.115248
 21
0.228740
 31
0.000000
  0
LINE
  8
102
 10
1.115248
 20
0.228740
 30
0.000000
 11
1.115248
 21
0.270760
 31
0.000000
  0
LINE
  8
102
 10
1.115248
 20
0.270760
 30
0.000000
 11
1.146748
 21
0.239256
 31
0.000000
  0
LINE
  8
102
 10
1.146748
 20
0.239256
 30
0.000000
 11
1.146748
 21
0.223799
 31
0.000000
  0
LINE
  8
102
 10
1.126248
 20
0.674630
 30
0.000000
 11
1.126248
 21
0.725366
 31
0.000000
  0
LINE
  8
102
 10
1.126248
 20
0.725366
 30
0.000000
 11
1.120299
 21
0.731311
 31
0.000000
  0
LINE
  8
102
 10
1.120299
 20
0.731311
 30
0.000000
 11
1.188181
 21
0.799189
 31
0.000000
  0
LINE
  8
102
 10
1.188181
 20
0.799189
 30
0.000000
 11
1.277315
 21
0.799189
 31
0.000000
  0
LINE
  8
102
 10
1.277315
 20
0.799189
 30
0.000000
 11
1.279748
 21
0.801626
 31
0.000000
  0
LINE
  8
102
 10
1.279748
 20
0.801626
 30
0.000000
 11
1.279748
 21
0.713740
 31
0.000000
  0
LINE
  8
102
 10
1.279748
 20
0.713740
 30
0.000000
 11
1.115248
 21
0.549236
 31
0.000000
  0
LINE
  8
102
 10
1.115248
 20
0.549236
 30
0.000000
 11
1.115248
 21
0.591256
 31
0.000000
  0
LINE
  8
102
 10
1.115248
 20
0.591256
 30
0.000000
 11
1.115248
 21
0.611256
 31
0.000000
  0
LINE
  8
102
 10
1.115248
 20
0.611256
 30
0.000000
 11
1.115248
 21
0.628740
 31
0.000000
  0
LINE
  8
102
 10
1.115248
 20
0.628740
 30
0.000000
 11
1.114217
 21
0.629768
 31
0.000000
  0
LINE
  8
102
 10
1.114217
 20
0.629768
 30
0.000000
 11
1.112488
 21
0.660874
 31
0.000000
  0
LINE
  8
102
 10
1.112488
 20
0.660874
 30
0.000000
 11
1.126248
 21
0.674630
 31
0.000000
  0
LINE
  8
102
 10
1.389748
 20
0.183740
 30
0.000000
 11
1.385248
 21
0.179236
 31
0.000000
  0
LINE
  8
102
 10
1.385248
 20
0.179236
 30
0.000000
 11
1.385248
 21
0.281256
 31
0.000000
  0
LINE
  8
102
 10
1.385248
 20
0.281256
 30
0.000000
 11
1.385248
 21
0.318740
 31
0.000000
  0
LINE
  8
102
 10
1.385248
 20
0.318740
 30
0.000000
 11
1.333248
 21
0.370740
 31
0.000000
  0
LINE
  8
102
 10
1.333248
 20
0.370740
 30
0.000000
 11
1.333248
 21
0.376197
 31
0.000000
  0
LINE
  8
102
 10
1.333248
 20
0.376197
 30
0.000000
 11
1.309445
 21
0.399996
 31
0.000000
  0
LINE
  8
102
 10
1.309445
 20
0.399996
 30
0.000000
 11
1.333248
 21
0.423799
 31
0.000000
  0
LINE
  8
102
 10
1.333248
 20
0.423799
 30
0.000000
 11
1.333248
 21
0.476197
 31
0.000000
  0
LINE
  8
102
 10
1.333248
 20
0.476197
 30
0.000000
 11
1.331717
 21
0.477724
 31
0.000000
  0
LINE
  8
102
 10
1.331717
 20
0.477724
 30
0.000000
 11
1.389748
 21
0.535760
 31
0.000000
  0
LINE
  8
102
 10
1.389748
 20
0.535760
 30
0.000000
 11
1.389748
 21
0.183740
 31
0.000000
  0
LINE
  8
102
 10
1.207236
 20
0.513248
 30
0.000000
 11
1.334748
 21
0.640760
 31
0.000000
  0
LINE
  8
102
 10
1.334748
 20
0.640760
 30
0.000000
 11
1.334748
 21
0.608740
 31
0.000000
  0
LINE
  8
102
 10
1.334748
 20
0.608740
 30
0.000000
 11
1.239256
 21
0.513248
 31
0.000000
  0
LINE
  8
102
 10
1.239256
 20
0.513248
 30
0.000000
 11
1.207236
 21
0.513248
 31
0.000000
  0
LINE
  8
102
 10
1.178181
 20
0.920807
 30
0.000000
 11
1.145248
 21
0.953740
 31
0.000000
  0
LINE
  8
102
 10
1.145248
 20
0.953740
 30
0.000000
 11
1.145248
 21
1.000303
 31
0.000000
  0
LINE
  8
102
 10
1.145248
 20
1.000303
 30
0.000000
 11
1.168799
 21
0.976748
 31
0.000000
  0
LINE
  8
102
 10
1.168799
 20
0.976748
 30
0.000000
 11
1.199260
 21
0.976748
 31
0.000000
  0
LINE
  8
102
 10
1.199260
 20
0.976748
 30
0.000000
 11
1.255201
 21
0.920807
 31
0.000000
  0
LINE
  8
102
 10
1.255201
 20
0.920807
 30
0.000000
 11
1.178181
 21
0.920807
 31
0.000000
  0
LINE
  8
102
 10
0.148165
 20
0.929138
 30
0.000000
 11
0.155476
 21
0.921831
 31
0.000000
  0
LINE
  8
102
 10
0.155476
 20
0.921831
 30
0.000000
 11
0.115248
 21
0.921831
 31
0.000000
  0
LINE
  8
102
 10
0.115248
 20
0.921831
 30
0.000000
 11
0.115248
 21
1.006256
 31
0.000000
  0
LINE
  8
102
 10
0.115248
 20
1.006256
 30
0.000000
 11
0.148165
 21
1.039177
 31
0.000000
  0
LINE
  8
102
 10
0.148165
 20
1.039177
 30
0.000000
 11
0.148165
 21
0.929138
 31
0.000000
  0
LINE
  8
102
 10
1.561000
 20
-0.030689
 30
0.000000
 11
1.524390
 21
-0.067299
 31
0.000000
  0
LINE
  8
102
 10
1.524390
 20
-0.067299
 30
0.000000
 11
-0.024390
 21
-0.067299
 31
0.000000
  0
LINE
  8
102
 10
-0.024390
 20
-0.067299
 30
0.000000
 11
-0.061000
 21
-0.030689
 31
0.000000
  0
LINE
  8
102
 10
-0.061000
 20
-0.030689
 30
0.000000
 11
-0.061000
 21
1.530689
 31
0.000000
  0
LINE
  8
102
 10
-0.061000
 20
1.530689
 30
0.000000
 11
-0.024390
 21
1.567299
 31
0.000000
  0
LINE
  8
102
 10
-0.024390
 20
1.567299
 30
0.000000
 11
1.524390
 21
1.567299
 31
0.000000
  0
LINE
  8
102
 10
1.524390
 20
1.567299
 30
0.000000
 11
1.561000
 21
1.530689
 31
0.000000
  0
LINE
  8
102
 10
1.561000
 20
1.530689
 30
0.000000
 11
1.561000
 21
-0.030689
 31
0.000000
  0
LINE
  8
102
 10
0.862669
 20
1.239815
 30
0.000000
 11
0.697327
 21
1.239815
 31
0.000000
  0
LINE
  8
102
 10
0.697327
 20
1.239815
 30
0.000000
 11
0.677850
 21
1.220339
 31
0.000000
  0
LINE
  8
102
 10
0.677850
 20
1.220339
 30
0.000000
 11
0.677850
 21
1.218394
 31
0.000000
  0
LINE
  8
102
 10
0.677850
 20
1.218394
 30
0.000000
 11
0.559472
 21
1.218394
 31
0.000000
  0
LINE
  8
102
 10
0.559472
 20
1.218394
 30
0.000000
 11
0.532965
 21
1.191886
 31
0.000000
  0
LINE
  8
102
 10
0.532965
 20
1.191886
 30
0.000000
 11
0.527358
 21
1.186280
 31
0.000000
  0
LINE
  8
102
 10
0.527358
 20
1.186280
 30
0.000000
 11
0.527346
 21
1.186280
 31
0.000000
  0
LINE
  8
102
 10
0.527346
 20
1.186280
 30
0.000000
 11
0.500839
 21
1.159772
 31
0.000000
  0
LINE
  8
102
 10
0.500839
 20
1.159772
 30
0.000000
 11
0.500839
 21
1.122287
 31
0.000000
  0
LINE
  8
102
 10
0.500839
 20
1.122287
 30
0.000000
 11
0.500839
 21
1.090335
 31
0.000000
  0
LINE
  8
102
 10
0.500839
 20
1.090335
 30
0.000000
 11
0.495752
 21
1.090335
 31
0.000000
  0
LINE
  8
102
 10
0.495752
 20
1.090335
 30
0.000000
 11
0.479996
 21
1.074579
 31
0.000000
  0
LINE
  8
102
 10
0.479996
 20
1.074579
 30
0.000000
 11
0.464244
 21
1.090335
 31
0.000000
  0
LINE
  8
102
 10
0.464244
 20
1.090335
 30
0.000000
 11
0.377642
 21
1.090335
 31
0.000000
  0
LINE
  8
102
 10
0.377642
 20
1.090335
 30
0.000000
 11
0.375000
 21
1.087689
 31
0.000000
  0
LINE
  8
102
 10
0.375000
 20
1.087689
 30
0.000000
 11
0.372354
 21
1.090335
 31
0.000000
  0
LINE
  8
102
 10
0.372354
 20
1.090335
 30
0.000000
 11
0.363654
 21
1.090335
 31
0.000000
  0
LINE
  8
102
 10
0.363654
 20
1.090335
 30
0.000000
 11
0.363465
 21
1.090520
 31
0.000000
  0
LINE
  8
102
 10
0.363465
 20
1.090520
 30
0.000000
 11
0.330248
 21
1.123740
 31
0.000000
  0
LINE
  8
102
 10
0.330248
 20
1.123740
 30
0.000000
 11
0.303740
 21
1.150248
 31
0.000000
  0
LINE
  8
102
 10
0.303740
 20
1.150248
 30
0.000000
 11
0.168740
 21
1.150248
 31
0.000000
  0
LINE
  8
102
 10
0.168740
 20
1.150248
 30
0.000000
 11
0.131256
 21
1.150248
 31
0.000000
  0
LINE
  8
102
 10
0.131256
 20
1.150248
 30
0.000000
 11
0.051256
 21
1.070248
 31
0.000000
  0
LINE
  8
102
 10
0.051256
 20
1.070248
 30
0.000000
 11
0.024748
 21
1.043740
 31
0.000000
  0
LINE
  8
102
 10
0.024748
 20
1.043740
 30
0.000000
 11
0.024748
 21
0.218740
 31
0.000000
  0
LINE
  8
102
 10
0.024748
 20
0.218740
 30
0.000000
 11
0.024748
 21
0.181311
 31
0.000000
  0
LINE
  8
102
 10
0.024748
 20
0.181311
 30
0.000000
 11
0.024748
 21
0.181256
 31
0.000000
  0
LINE
  8
102
 10
0.024748
 20
0.181256
 30
0.000000
 11
0.037878
 21
0.168126
 31
0.000000
  0
LINE
  8
102
 10
0.037878
 20
0.168126
 30
0.000000
 11
0.170228
 21
0.035220
 31
0.000000
  0
LINE
  8
102
 10
0.170228
 20
0.035220
 30
0.000000
 11
0.170228
 21
0.035165
 31
0.000000
  0
LINE
  8
102
 10
0.170228
 20
0.035165
 30
0.000000
 11
0.183429
 21
0.021969
 31
0.000000
  0
LINE
  8
102
 10
0.183429
 20
0.021969
 30
0.000000
 11
0.183449
 21
0.021945
 31
0.000000
  0
LINE
  8
102
 10
0.183449
 20
0.021945
 30
0.000000
 11
0.191528
 21
0.013866
 31
0.000000
  0
LINE
  8
102
 10
0.191528
 20
0.013866
 30
0.000000
 11
0.196728
 21
0.008665
 31
0.000000
  0
LINE
  8
102
 10
0.196728
 20
0.008665
 30
0.000000
 11
0.196736
 21
0.008657
 31
0.000000
  0
LINE
  8
102
 10
0.196736
 20
0.008657
 30
0.000000
 11
0.227835
 21
0.008657
 31
0.000000
  0
LINE
  8
102
 10
0.227835
 20
0.008657
 30
0.000000
 11
0.709941
 21
0.008535
 31
0.000000
  0
LINE
  8
102
 10
0.709941
 20
0.008535
 30
0.000000
 11
0.709945
 21
0.008531
 31
0.000000
  0
LINE
  8
102
 10
0.709945
 20
0.008531
 30
0.000000
 11
0.728421
 21
0.008531
 31
0.000000
  0
LINE
  8
102
 10
0.728421
 20
0.008531
 30
0.000000
 11
0.728681
 21
0.008531
 31
0.000000
  0
LINE
  8
102
 10
0.728681
 20
0.008531
 30
0.000000
 11
0.740303
 21
0.008531
 31
0.000000
  0
LINE
  8
102
 10
0.740303
 20
0.008531
 30
0.000000
 11
0.747421
 21
0.008531
 31
0.000000
  0
LINE
  8
102
 10
0.747421
 20
0.008531
 30
0.000000
 11
0.747429
 21
0.008531
 31
0.000000
  0
LINE
  8
102
 10
0.747429
 20
0.008531
 30
0.000000
 11
0.758823
 21
0.019929
 31
0.000000
  0
LINE
  8
102
 10
0.758823
 20
0.019929
 30
0.000000
 11
0.883728
 21
0.144748
 31
0.000000
  0
LINE
  8
102
 10
0.883728
 20
0.144748
 30
0.000000
 11
0.883740
 21
0.144748
 31
0.000000
  0
LINE
  8
102
 10
0.883740
 20
0.144748
 30
0.000000
 11
0.896843
 21
0.157854
 31
0.000000
  0
LINE
  8
102
 10
0.896843
 20
0.157854
 30
0.000000
 11
0.896988
 21
0.157996
 31
0.000000
  0
LINE
  8
102
 10
0.896988
 20
0.157996
 30
0.000000
 11
0.905370
 21
0.166378
 31
0.000000
  0
LINE
  8
102
 10
0.905370
 20
0.166378
 30
0.000000
 11
0.910248
 21
0.171256
 31
0.000000
  0
LINE
  8
102
 10
0.910248
 20
0.171256
 30
0.000000
 11
0.910248
 21
0.221079
 31
0.000000
  0
LINE
  8
102
 10
0.910248
 20
0.221079
 30
0.000000
 11
0.940583
 21
0.221079
 31
0.000000
  0
LINE
  8
102
 10
0.940583
 20
0.221079
 30
0.000000
 11
0.960059
 21
0.240555
 31
0.000000
  0
LINE
  8
102
 10
0.960059
 20
0.240555
 30
0.000000
 11
0.960059
 21
0.293209
 31
0.000000
  0
LINE
  8
102
 10
0.960059
 20
0.293209
 30
0.000000
 11
0.960248
 21
0.294618
 31
0.000000
  0
LINE
  8
102
 10
0.960248
 20
0.294618
 30
0.000000
 11
0.960248
 21
0.310760
 31
0.000000
  0
LINE
  8
102
 10
0.960248
 20
0.310760
 30
0.000000
 11
0.964748
 21
0.306256
 31
0.000000
  0
LINE
  8
102
 10
0.964748
 20
0.306256
 30
0.000000
 11
0.964748
 21
0.136256
 31
0.000000
  0
LINE
  8
102
 10
0.964748
 20
0.136256
 30
0.000000
 11
0.991256
 21
0.109748
 31
0.000000
  0
LINE
  8
102
 10
0.991256
 20
0.109748
 30
0.000000
 11
1.003748
 21
0.097256
 31
0.000000
  0
LINE
  8
102
 10
1.003748
 20
0.097256
 30
0.000000
 11
1.003748
 21
0.074630
 31
0.000000
  0
LINE
  8
102
 10
1.003748
 20
0.074630
 30
0.000000
 11
1.039630
 21
0.038748
 31
0.000000
  0
LINE
  8
102
 10
1.039630
 20
0.038748
 30
0.000000
 11
1.090366
 21
0.038748
 31
0.000000
  0
LINE
  8
102
 10
1.090366
 20
0.038748
 30
0.000000
 11
1.091362
 21
0.039748
 31
0.000000
  0
LINE
  8
102
 10
1.091362
 20
0.039748
 30
0.000000
 11
1.098740
 21
0.039748
 31
0.000000
  0
LINE
  8
102
 10
1.098740
 20
0.039748
 30
0.000000
 11
1.103740
 21
0.044748
 31
0.000000
  0
LINE
  8
102
 10
1.103740
 20
0.044748
 30
0.000000
 11
1.108740
 21
0.044748
 31
0.000000
  0
LINE
  8
102
 10
1.108740
 20
0.044748
 30
0.000000
 11
1.378740
 21
0.044748
 31
0.000000
  0
LINE
  8
102
 10
1.378740
 20
0.044748
 30
0.000000
 11
1.405248
 21
0.071256
 31
0.000000
  0
LINE
  8
102
 10
1.405248
 20
0.071256
 30
0.000000
 11
1.480248
 21
0.146256
 31
0.000000
  0
LINE
  8
102
 10
1.480248
 20
0.146256
 30
0.000000
 11
1.480248
 21
0.183740
 31
0.000000
  0
LINE
  8
102
 10
1.480248
 20
0.183740
 30
0.000000
 11
1.480248
 21
1.028740
 31
0.000000
  0
LINE
  8
102
 10
1.480248
 20
1.028740
 30
0.000000
 11
1.470161
 21
1.038827
 31
0.000000
  0
LINE
  8
102
 10
1.470161
 20
1.038827
 30
0.000000
 11
1.458248
 21
1.056693
 31
0.000000
  0
LINE
  8
102
 10
1.458248
 20
1.056693
 30
0.000000
 11
1.458248
 21
1.126197
 31
0.000000
  0
LINE
  8
102
 10
1.458248
 20
1.126197
 30
0.000000
 11
1.421197
 21
1.163248
 31
0.000000
  0
LINE
  8
102
 10
1.421197
 20
1.163248
 30
0.000000
 11
1.368799
 21
1.163248
 31
0.000000
  0
LINE
  8
102
 10
1.368799
 20
1.163248
 30
0.000000
 11
1.345000
 21
1.139445
 31
0.000000
  0
LINE
  8
102
 10
1.345000
 20
1.139445
 30
0.000000
 11
1.321197
 21
1.163248
 31
0.000000
  0
LINE
  8
102
 10
1.321197
 20
1.163248
 30
0.000000
 11
1.268799
 21
1.163248
 31
0.000000
  0
LINE
  8
102
 10
1.268799
 20
1.163248
 30
0.000000
 11
1.245000
 21
1.139445
 31
0.000000
  0
LINE
  8
102
 10
1.245000
 20
1.139445
 30
0.000000
 11
1.221197
 21
1.163248
 31
0.000000
  0
LINE
  8
102
 10
1.221197
 20
1.163248
 30
0.000000
 11
1.168799
 21
1.163248
 31
0.000000
  0
LINE
  8
102
 10
1.168799
 20
1.163248
 30
0.000000
 11
1.145000
 21
1.139445
 31
0.000000
  0
LINE
  8
102
 10
1.145000
 20
1.139445
 30
0.000000
 11
1.121197
 21
1.163248
 31
0.000000
  0
LINE
  8
102
 10
1.121197
 20
1.163248
 30
0.000000
 11
1.110882
 21
1.163248
 31
0.000000
  0
LINE
  8
102
 10
1.110882
 20
1.163248
 30
0.000000
 11
1.049874
 21
1.224256
 31
0.000000
  0
LINE
  8
102
 10
1.049874
 20
1.224256
 30
0.000000
 11
1.012390
 21
1.224256
 31
0.000000
  0
LINE
  8
102
 10
1.012390
 20
1.224256
 30
0.000000
 11
0.878224
 21
1.224256
 31
0.000000
  0
LINE
  8
102
 10
0.878224
 20
1.224256
 30
0.000000
 11
0.862669
 21
1.239815
 31
0.000000
  0
LINE
  8
102
 10
-0.035437
 20
-0.056252
 30
0.000000
 11
1.535437
 21
-0.056252
 31
0.000000
  0
LINE
  8
102
 10
1.561000
 20
0.000000
 30
0.000000
 11
-0.061000
 21
0.000000
 31
0.000000
  0
LINE
  8
102
 10
-0.061000
 20
0.056252
 30
0.000000
 11
0.149283
 21
0.056252
 31
0.000000
  0
LINE
  8
102
 10
0.795169
 20
0.056252
 30
0.000000
 11
1.022126
 21
0.056252
 31
0.000000
  0
LINE
  8
102
 10
1.390244
 20
0.056252
 30
0.000000
 11
1.561000
 21
0.056252
 31
0.000000
  0
LINE
  8
102
 10
1.561000
 20
0.112504
 30
0.000000
 11
1.446496
 21
0.112504
 31
0.000000
  0
LINE
  8
102
 10
0.988500
 20
0.112504
 30
0.000000
 11
0.851461
 21
0.112504
 31
0.000000
  0
LINE
  8
102
 10
0.723441
 20
0.112504
 30
0.000000
 11
0.535614
 21
0.112504
 31
0.000000
  0
LINE
  8
102
 10
0.093264
 20
0.112504
 30
0.000000
 11
-0.061000
 21
0.112504
 31
0.000000
  0
LINE
  8
102
 10
-0.061000
 20
0.168756
 30
0.000000
 11
0.037248
 21
0.168756
 31
0.000000
  0
LINE
  8
102
 10
0.581791
 20
0.168756
 30
0.000000
 11
0.672248
 21
0.168756
 31
0.000000
  0
LINE
  8
102
 10
0.907748
 20
0.168756
 30
0.000000
 11
0.964748
 21
0.168756
 31
0.000000
  0
LINE
  8
102
 10
1.480248
 20
0.168756
 30
0.000000
 11
1.561000
 21
0.168756
 31
0.000000
  0
LINE
  8
102
 10
1.561000
 20
0.225008
 30
0.000000
 11
1.480248
 21
0.225008
 31
0.000000
  0
LINE
  8
102
 10
1.389748
 20
0.225008
 30
0.000000
 11
1.385248
 21
0.225008
 31
0.000000
  0
LINE
  8
102
 10
1.146748
 20
0.225008
 30
0.000000
 11
1.118980
 21
0.225008
 31
0.000000
  0
LINE
  8
102
 10
0.964748
 20
0.225008
 30
0.000000
 11
0.944512
 21
0.225008
 31
0.000000
  0
LINE
  8
102
 10
0.615996
 20
0.225008
 30
0.000000
 11
0.581791
 21
0.225008
 31
0.000000
  0
LINE
  8
102
 10
0.024748
 20
0.225008
 30
0.000000
 11
-0.061000
 21
0.225008
 31
0.000000
  0
LINE
  8
102
 10
-0.061000
 20
0.281260
 30
0.000000
 11
0.024748
 21
0.281260
 31
0.000000
  0
LINE
  8
102
 10
0.687728
 20
0.281260
 30
0.000000
 11
0.719748
 21
0.281260
 31
0.000000
  0
LINE
  8
102
 10
0.960059
 20
0.281260
 30
0.000000
 11
0.964748
 21
0.281260
 31
0.000000
  0
LINE
  8
102
 10
1.385248
 20
0.281260
 30
0.000000
 11
1.389748
 21
0.281260
 31
0.000000
  0
LINE
  8
102
 10
1.480248
 20
0.281260
 30
0.000000
 11
1.561000
 21
0.281260
 31
0.000000
  0
LINE
  8
102
 10
1.561000
 20
0.337512
 30
0.000000
 11
1.480248
 21
0.337512
 31
0.000000
  0
LINE
  8
102
 10
1.389748
 20
0.337512
 30
0.000000
 11
1.366476
 21
0.337512
 31
0.000000
  0
LINE
  8
102
 10
0.024748
 20
0.337512
 30
0.000000
 11
-0.061000
 21
0.337512
 31
0.000000
  0
LINE
  8
102
 10
-0.061000
 20
0.393764
 30
0.000000
 11
0.024748
 21
0.393764
 31
0.000000
  0
LINE
  8
102
 10
0.842752
 20
0.393764
 30
0.000000
 11
0.877240
 21
0.393764
 31
0.000000
  0
LINE
  8
102
 10
1.005224
 20
0.393764
 30
0.000000
 11
1.024748
 21
0.393764
 31
0.000000
  0
LINE
  8
102
 10
1.315681
 20
0.393764
 30
0.000000
 11
1.389748
 21
0.393764
 31
0.000000
  0
LINE
  8
102
 10
1.480248
 20
0.393764
 30
0.000000
 11
1.561000
 21
0.393764
 31
0.000000
  0
LINE
  8
102
 10
1.561000
 20
0.450016
 30
0.000000
 11
1.480248
 21
0.450016
 31
0.000000
  0
LINE
  8
102
 10
1.389748
 20
0.450016
 30
0.000000
 11
1.333248
 21
0.450016
 31
0.000000
  0
LINE
  8
102
 10
1.024748
 20
0.450016
 30
0.000000
 11
0.960248
 21
0.450016
 31
0.000000
  0
LINE
  8
102
 10
0.206028
 20
0.450016
 30
0.000000
 11
0.115248
 21
0.450016
 31
0.000000
  0
LINE
  8
102
 10
0.024748
 20
0.450016
 30
0.000000
 11
-0.061000
 21
0.450016
 31
0.000000
  0
LINE
  8
102
 10
-0.061000
 20
0.506268
 30
0.000000
 11
0.024748
 21
0.506268
 31
0.000000
  0
LINE
  8
102
 10
0.505248
 20
0.506268
 30
0.000000
 11
0.505803
 21
0.506268
 31
0.000000
  0
LINE
  8
102
 10
0.715248
 20
0.506268
 30
0.000000
 11
0.719748
 21
0.506268
 31
0.000000
  0
LINE
  8
102
 10
0.960248
 20
0.506268
 30
0.000000
 11
1.024748
 21
0.506268
 31
0.000000
  0
LINE
  8
102
 10
1.360256
 20
0.506268
 30
0.000000
 11
1.389748
 21
0.506268
 31
0.000000
  0
LINE
  8
102
 10
1.480248
 20
0.506268
 30
0.000000
 11
1.561000
 21
0.506268
 31
0.000000
  0
LINE
  8
102
 10
1.561000
 20
0.562520
 30
0.000000
 11
1.480248
 21
0.562520
 31
0.000000
  0
LINE
  8
102
 10
1.288528
 20
0.562520
 30
0.000000
 11
1.256508
 21
0.562520
 31
0.000000
  0
LINE
  8
102
 10
1.128531
 20
0.562520
 30
0.000000
 11
1.115248
 21
0.562520
 31
0.000000
  0
LINE
  8
102
 10
1.024748
 20
0.562520
 30
0.000000
 11
0.956980
 21
0.562520
 31
0.000000
  0
LINE
  8
102
 10
0.719748
 20
0.562520
 30
0.000000
 11
0.715248
 21
0.562520
 31
0.000000
  0
LINE
  8
102
 10
0.505803
 20
0.562520
 30
0.000000
 11
0.505248
 21
0.562520
 31
0.000000
  0
LINE
  8
102
 10
0.024748
 20
0.562520
 30
0.000000
 11
-0.061000
 21
0.562520
 31
0.000000
  0
LINE
  8
102
 10
-0.061000
 20
0.618772
 30
0.000000
 11
0.024748
 21
0.618772
 31
0.000000
  0
LINE
  8
102
 10
1.115248
 20
0.618772
 30
0.000000
 11
1.184783
 21
0.618772
 31
0.000000
  0
LINE
  8
102
 10
1.312760
 20
0.618772
 30
0.000000
 11
1.334748
 21
0.618772
 31
0.000000
  0
LINE
  8
102
 10
1.480248
 20
0.618772
 30
0.000000
 11
1.561000
 21
0.618772
 31
0.000000
  0
LINE
  8
102
 10
1.561000
 20
0.675024
 30
0.000000
 11
1.480248
 21
0.675024
 31
0.000000
  0
LINE
  8
102
 10
1.241035
 20
0.675024
 30
0.000000
 11
1.126248
 21
0.675024
 31
0.000000
  0
LINE
  8
102
 10
1.003748
 20
0.675024
 30
0.000000
 11
0.964012
 21
0.675024
 31
0.000000
  0
LINE
  8
102
 10
0.024748
 20
0.675024
 30
0.000000
 11
-0.061000
 21
0.675024
 31
0.000000
  0
LINE
  8
102
 10
-0.061000
 20
0.731276
 30
0.000000
 11
0.024748
 21
0.731276
 31
0.000000
  0
LINE
  8
102
 10
0.660295
 20
0.731276
 30
0.000000
 11
0.666697
 21
0.731276
 31
0.000000
  0
LINE
  8
102
 10
1.120339
 20
0.731276
 30
0.000000
 11
1.279748
 21
0.731276
 31
0.000000
  0
LINE
  8
102
 10
1.480248
 20
0.731276
 30
0.000000
 11
1.561000
 21
0.731276
 31
0.000000
  0
LINE
  8
102
 10
1.561000
 20
0.787528
 30
0.000000
 11
1.480248
 21
0.787528
 31
0.000000
  0
LINE
  8
102
 10
1.279748
 20
0.787528
 30
0.000000
 11
1.176516
 21
0.787528
 31
0.000000
  0
LINE
  8
102
 10
0.948539
 20
0.787528
 30
0.000000
 11
0.936201
 21
0.787528
 31
0.000000
  0
LINE
  8
102
 10
0.511803
 20
0.787528
 30
0.000000
 11
0.510248
 21
0.787528
 31
0.000000
  0
LINE
  8
102
 10
0.419748
 20
0.787528
 30
0.000000
 11
0.379098
 21
0.787528
 31
0.000000
  0
LINE
  8
102
 10
0.024748
 20
0.787528
 30
0.000000
 11
-0.061000
 21
0.787528
 31
0.000000
  0
LINE
  8
102
 10
-0.061000
 20
0.843780
 30
0.000000
 11
0.024748
 21
0.843780
 31
0.000000
  0
LINE
  8
102
 10
0.322846
 20
0.843780
 30
0.000000
 11
0.367224
 21
0.843780
 31
0.000000
  0
LINE
  8
102
 10
1.480248
 20
0.843780
 30
0.000000
 11
1.561000
 21
0.843780
 31
0.000000
  0
LINE
  8
102
 10
1.561000
 20
0.900031
 30
0.000000
 11
1.480248
 21
0.900031
 31
0.000000
  0
LINE
  8
102
 10
0.569795
 20
0.900031
 30
0.000000
 11
0.527276
 21
0.900031
 31
0.000000
  0
LINE
  8
102
 10
0.024748
 20
0.900031
 30
0.000000
 11
-0.061000
 21
0.900031
 31
0.000000
  0
LINE
  8
102
 10
-0.061000
 20
0.956283
 30
0.000000
 11
0.024748
 21
0.956283
 31
0.000000
  0
LINE
  8
102
 10
0.115248
 20
0.956283
 30
0.000000
 11
0.148165
 21
0.956283
 31
0.000000
  0
LINE
  8
102
 10
0.925256
 20
0.956283
 30
0.000000
 11
1.054748
 21
0.956283
 31
0.000000
  0
LINE
  8
102
 10
1.145248
 20
0.956283
 30
0.000000
 11
1.219724
 21
0.956283
 31
0.000000
  0
LINE
  8
102
 10
1.480248
 20
0.956283
 30
0.000000
 11
1.561000
 21
0.956283
 31
0.000000
  0
LINE
  8
102
 10
1.561000
 20
1.012535
 30
0.000000
 11
1.480248
 21
1.012535
 31
0.000000
  0
LINE
  8
102
 10
1.033012
 20
1.012535
 30
0.000000
 11
0.897098
 21
1.012535
 31
0.000000
  0
LINE
  8
102
 10
0.148165
 20
1.012535
 30
0.000000
 11
0.121524
 21
1.012535
 31
0.000000
  0
LINE
  8
102
 10
0.024748
 20
1.012535
 30
0.000000
 11
-0.061000
 21
1.012535
 31
0.000000
  0
LINE
  8
102
 10
-0.061000
 20
1.068787
 30
0.000000
 11
0.049795
 21
1.068787
 31
0.000000
  0
LINE
  8
102
 10
0.601831
 20
1.068787
 30
0.000000
 11
1.031748
 21
1.068787
 31
0.000000
  0
LINE
  8
102
 10
1.458248
 20
1.068787
 30
0.000000
 11
1.561000
 21
1.068787
 31
0.000000
  0
LINE
  8
102
 10
1.561000
 20
1.125039
 30
0.000000
 11
1.458248
 21
1.125039
 31
0.000000
  0
LINE
  8
102
 10
1.021106
 20
1.125039
 30
0.000000
 11
0.869508
 21
1.125039
 31
0.000000
  0
LINE
  8
102
 10
0.690484
 20
1.125039
 30
0.000000
 11
0.594102
 21
1.125039
 31
0.000000
  0
LINE
  8
102
 10
0.500839
 20
1.125039
 30
0.000000
 11
0.328949
 21
1.125039
 31
0.000000
  0
LINE
  8
102
 10
0.106047
 20
1.125039
 30
0.000000
 11
-0.061000
 21
1.125039
 31
0.000000
  0
LINE
  8
102
 10
-0.061000
 20
1.181291
 30
0.000000
 11
0.522358
 21
1.181291
 31
0.000000
  0
LINE
  8
102
 10
1.092839
 20
1.181291
 30
0.000000
 11
1.561000
 21
1.181291
 31
0.000000
  0
LINE
  8
102
 10
1.561000
 20
1.237543
 30
0.000000
 11
0.864941
 21
1.237543
 31
0.000000
  0
LINE
  8
102
 10
0.695055
 20
1.237543
 30
0.000000
 11
-0.061000
 21
1.237543
 31
0.000000
  0
LINE
  8
102
 10
-0.061000
 20
1.293795
 30
0.000000
 11
1.561000
 21
1.293795
 31
0.000000
  0
LINE
  8
102
 10
1.561000
 20
1.350047
 30
0.000000
 11
-0.061000
 21
1.350047
 31
0.000000
  0
LINE
  8
102
 10
-0.061000
 20
1.406299
 30
0.000000
 11
1.561000
 21
1.406299
 31
0.000000
  0
LINE
  8
102
 10
1.561000
 20
1.462551
 30
0.000000
 11
-0.061000
 21
1.462551
 31
0.000000
  0
LINE
  8
102
 10
-0.061000
 20
1.518803
 30
0.000000
 11
1.561000
 21
1.518803
 31
0.000000
  0
ENDSEC
  0
EOF
