  0
SECTION
  2
HEADER
  9
$ACADVER
  1
AC1009
  9
$FILLMODE
 70
0
  9
$EXTMIN
 10
-0.117921
 20
-0.137071
 30
0.000000
  9
$EXTMAX
 10
1.755713
 20
1.623681
 30
0.000000
  0
ENDSEC
  0
SECTION
  2
TABLES
  0
TABLE
  2
LTYPE
 70
1
  0
LTYPE
  2
CONTINUOUS
 70
64
  3
Solid line
 72
65
 73
0
 40
0
  0
ENDTAB
  0
TABLE
  2
LAYER
 70
255
  0
LAYER
  2
102
 70
64
 62
253
  6
CONTINUOUS
  0
ENDTAB
  0
ENDSEC
  0
SECTION
  2
BLOCKS
  0
BLOCK
  8
0
  2
RECT
 70
64
 10
0.000000
 20
0.000000
 30
0.000000
  3
RECT
  0
SOLID
  8
0
 10
-0.500000
 20
-0.500000
 30
0.000000
 11
0.500000
 21
-0.500000
 31
0.000000
 12
-0.500000
 22
0.500000
 32
0.000000
 13
0.500000
 23
0.500000
 33
0.000000
  0
ENDBLK
  8
0
  0
BLOCK
  8
0
  2
PIE
 70
64
 10
0.000000
 20
0.000000
 30
0.000000
  3
PIE
  0
CIRCLE
  8
0
 10
0.000000
 20
0.000000
 30
0.000000
 40
0.500000
  0
ENDBLK
  8
0
  0
BLOCK
  8
0
  2
OCTAGONP
 70
64
 10
0.000000
 20
0.000000
 30
0.000000
  3
OCTAGONP
  0
POLYLINE
  8
0
 66
1
 10
0.000000
 20
0.000000
 30
0.000000
 40
0.000000
 41
0.000000
 70
1
  0
VERTEX
  8
0
 10
-0.500000
 20
-0.207107
 30
0.000000
  0
VERTEX
  8
0
 10
-0.500000
 20
0.207107
 30
0.000000
  0
VERTEX
  8
0
 10
-0.207107
 20
0.500000
 30
0.000000
  0
VERTEX
  8
0
 10
0.207107
 20
0.500000
 30
0.000000
  0
VERTEX
  8
0
 10
0.500000
 20
0.207107
 30
0.000000
  0
VERTEX
  8
0
 10
0.500000
 20
-0.207107
 30
0.000000
  0
VERTEX
  8
0
 10
0.207107
 20
-0.500000
 30
0.000000
  0
VERTEX
  8
0
 10
-0.207107
 20
-0.500000
 30
0.000000
  0
SEQEND
  8
0
  0
ENDBLK
  8
0
  0
BLOCK
  8
0
  2
SQUAREP
 70
64
 10
0.000000
 20
0.000000
 30
0.000000
  3
SQUAREP
  0
SOLID
  8
0
 10
-0.500000
 20
-0.500000
 30
0.000000
 11
0.500000
 21
-0.500000
 31
0.000000
 12
-0.500000
 22
0.500000
 32
0.000000
 13
0.500000
 23
0.500000
 33
0.000000
  0
ENDBLK
  8
0
  0
BLOCK
  8
0
  2
ROUNDP
 70
64
 10
0.000000
 20
0.000000
 30
0.000000
  3
ROUNDP
  0
CIRCLE
  8
0
 10
0.000000
 20
0.000000
 30
0.000000
 40
0.500000
  0
ENDBLK
  8
0
  0
BLOCK
  8
0
  2
ANNULUSP
 70
64
 10
0.000000
 20
0.000000
 30
0.000000
  3
ANNULUSP
  0
CIRCLE
  8
0
 10
0.000000
 20
0.000000
 30
0.000000
 40
0.500000
  0
ENDBLK
  8
0
  0
BLOCK
  8
0
  2
THERMALP
 70
64
 10
0.000000
 20
0.000000
 30
0.000000
  3
THERMALP
  0
LINE
  8
0
 10
-0.237868
 20
0.450000
 30
0.000000
 11
0.237868
 21
0.450000
 31
0.000000
  0
LINE
  8
0
 10
0.450000
 20
0.237868
 30
0.000000
 11
0.450000
 21
-0.237868
 31
0.000000
  0
LINE
  8
0
 10
0.237868
 20
-0.450000
 30
0.000000
 11
-0.237868
 21
-0.450000
 31
0.000000
  0
LINE
  8
0
 10
-0.450000
 20
-0.237868
 30
0.000000
 11
-0.450000
 21
0.237868
 31
0.000000
  0
ENDBLK
  8
0
  0
BLOCK
  8
0
  2
OCTAGONV
 70
64
 10
0.000000
 20
0.000000
 30
0.000000
  3
OCTAGONV
  0
POLYLINE
  8
0
 66
1
 10
0.000000
 20
0.000000
 30
0.000000
 40
0.000000
 41
0.000000
 70
1
  0
VERTEX
  8
0
 10
-0.500000
 20
-0.207107
 30
0.000000
  0
VERTEX
  8
0
 10
-0.500000
 20
0.207107
 30
0.000000
  0
VERTEX
  8
0
 10
-0.207107
 20
0.500000
 30
0.000000
  0
VERTEX
  8
0
 10
0.207107
 20
0.500000
 30
0.000000
  0
VERTEX
  8
0
 10
0.500000
 20
0.207107
 30
0.000000
  0
VERTEX
  8
0
 10
0.500000
 20
-0.207107
 30
0.000000
  0
VERTEX
  8
0
 10
0.207107
 20
-0.500000
 30
0.000000
  0
VERTEX
  8
0
 10
-0.207107
 20
-0.500000
 30
0.000000
  0
SEQEND
  8
0
  0
ENDBLK
  8
0
  0
BLOCK
  8
0
  2
SQUAREV
 70
64
 10
0.000000
 20
0.000000
 30
0.000000
  3
SQUAREV
  0
SOLID
  8
0
 10
-0.500000
 20
-0.500000
 30
0.000000
 11
0.500000
 21
-0.500000
 31
0.000000
 12
-0.500000
 22
0.500000
 32
0.000000
 13
0.500000
 23
0.500000
 33
0.000000
  0
ENDBLK
  8
0
  0
BLOCK
  8
0
  2
ROUNDV
 70
64
 10
0.000000
 20
0.000000
 30
0.000000
  3
ROUNDV
  0
CIRCLE
  8
0
 10
0.000000
 20
0.000000
 30
0.000000
 40
0.500000
  0
ENDBLK
  8
0
  0
BLOCK
  8
0
  2
ANNULUSV
 70
64
 10
0.000000
 20
0.000000
 30
0.000000
  3
ANNULUSV
  0
CIRCLE
  8
0
 10
0.000000
 20
0.000000
 30
0.000000
 40
0.500000
  0
ENDBLK
  8
0
  0
BLOCK
  8
0
  2
THERMALV
 70
64
 10
0.000000
 20
0.000000
 30
0.000000
  3
THERMALV
  0
LINE
  8
0
 10
-0.237868
 20
0.450000
 30
0.000000
 11
0.237868
 21
0.450000
 31
0.000000
  0
LINE
  8
0
 10
0.450000
 20
0.237868
 30
0.000000
 11
0.450000
 21
-0.237868
 31
0.000000
  0
LINE
  8
0
 10
0.237868
 20
-0.450000
 30
0.000000
 11
-0.237868
 21
-0.450000
 31
0.000000
  0
LINE
  8
0
 10
-0.450000
 20
-0.237868
 30
0.000000
 11
-0.450000
 21
0.237868
 31
0.000000
  0
ENDBLK
  8
0
  0
BLOCK
  8
0
  2
LONGP100
 70
64
 10
0.000000
 20
0.000000
 30
0.000000
  3
LONGP100
  0
POLYLINE
  8
0
 66
1
 10
0.000000
 20
0.000000
 30
0.000000
 40
0.000000
 41
0.000000
 70
1
  0
VERTEX
  8
0
 10
-1.000000
 20
-0.207107
 30
0.000000
  0
VERTEX
  8
0
 10
-1.000000
 20
0.207107
 30
0.000000
  0
VERTEX
  8
0
 10
-0.707107
 20
0.500000
 30
0.000000
  0
VERTEX
  8
0
 10
0.707107
 20
0.500000
 30
0.000000
  0
VERTEX
  8
0
 10
1.000000
 20
0.207107
 30
0.000000
  0
VERTEX
  8
0
 10
1.000000
 20
-0.207107
 30
0.000000
  0
VERTEX
  8
0
 10
0.707107
 20
-0.500000
 30
0.000000
  0
VERTEX
  8
0
 10
-0.707107
 20
-0.500000
 30
0.000000
  0
SEQEND
  8
0
  0
ENDBLK
  8
0
  0
ENDSEC
  0
SECTION
  2
ENTITIES
  0
LINE
  8
102
 10
0.368539
 20
0.163362
 30
0.000000
 11
0.382606
 21
0.149299
 31
0.000000
  0
LINE
  8
102
 10
0.382606
 20
0.149299
 30
0.000000
 11
0.354571
 21
0.149390
 31
0.000000
  0
LINE
  8
102
 10
0.354571
 20
0.149390
 30
0.000000
 11
0.368539
 21
0.163362
 31
0.000000
  0
LINE
  8
102
 10
0.468539
 20
0.163362
 30
0.000000
 11
0.470748
 21
0.161154
 31
0.000000
  0
LINE
  8
102
 10
0.470748
 20
0.161154
 30
0.000000
 11
0.458642
 21
0.149047
 31
0.000000
  0
LINE
  8
102
 10
0.458642
 20
0.149047
 30
0.000000
 11
0.454240
 21
0.149063
 31
0.000000
  0
LINE
  8
102
 10
0.454240
 20
0.149063
 30
0.000000
 11
0.468539
 21
0.163362
 31
0.000000
  0
LINE
  8
102
 10
0.111768
 20
0.690000
 30
0.000000
 11
0.105024
 21
0.683252
 31
0.000000
  0
LINE
  8
102
 10
0.105024
 20
0.683252
 30
0.000000
 11
0.105024
 21
0.696744
 31
0.000000
  0
LINE
  8
102
 10
0.105024
 20
0.696744
 30
0.000000
 11
0.111768
 21
0.690000
 31
0.000000
  0
LINE
  8
102
 10
1.084709
 20
0.810024
 30
0.000000
 11
1.097591
 21
0.822902
 31
0.000000
  0
LINE
  8
102
 10
1.097591
 20
0.822902
 30
0.000000
 11
1.097591
 21
0.887878
 31
0.000000
  0
LINE
  8
102
 10
1.097591
 20
0.887878
 30
0.000000
 11
1.122406
 21
0.863059
 31
0.000000
  0
LINE
  8
102
 10
1.122406
 20
0.863059
 30
0.000000
 11
1.122406
 21
0.846937
 31
0.000000
  0
LINE
  8
102
 10
1.122406
 20
0.846937
 30
0.000000
 11
1.085492
 21
0.810024
 31
0.000000
  0
LINE
  8
102
 10
1.085492
 20
0.810024
 30
0.000000
 11
1.084709
 21
0.810024
 31
0.000000
  0
LINE
  8
102
 10
0.830110
 20
0.838118
 30
0.000000
 11
0.818398
 21
0.849831
 31
0.000000
  0
LINE
  8
102
 10
0.818398
 20
0.849831
 30
0.000000
 11
0.824031
 21
0.855461
 31
0.000000
  0
LINE
  8
102
 10
0.824031
 20
0.855461
 30
0.000000
 11
0.824031
 21
0.960535
 31
0.000000
  0
LINE
  8
102
 10
0.824031
 20
0.960535
 30
0.000000
 11
0.810543
 21
0.974024
 31
0.000000
  0
LINE
  8
102
 10
0.810543
 20
0.974024
 30
0.000000
 11
0.749469
 21
0.974024
 31
0.000000
  0
LINE
  8
102
 10
0.749469
 20
0.974024
 30
0.000000
 11
0.735980
 21
0.960535
 31
0.000000
  0
LINE
  8
102
 10
0.735980
 20
0.960535
 30
0.000000
 11
0.735980
 21
0.855461
 31
0.000000
  0
LINE
  8
102
 10
0.735980
 20
0.855461
 30
0.000000
 11
0.739839
 21
0.851606
 31
0.000000
  0
LINE
  8
102
 10
0.739839
 20
0.851606
 30
0.000000
 11
0.729157
 21
0.851606
 31
0.000000
  0
LINE
  8
102
 10
0.729157
 20
0.851606
 30
0.000000
 11
0.733031
 21
0.855476
 31
0.000000
  0
LINE
  8
102
 10
0.733031
 20
0.855476
 30
0.000000
 11
0.733031
 21
0.960551
 31
0.000000
  0
LINE
  8
102
 10
0.733031
 20
0.960551
 30
0.000000
 11
0.719543
 21
0.974039
 31
0.000000
  0
LINE
  8
102
 10
0.719543
 20
0.974039
 30
0.000000
 11
0.658469
 21
0.974039
 31
0.000000
  0
LINE
  8
102
 10
0.658469
 20
0.974039
 30
0.000000
 11
0.650071
 21
0.965638
 31
0.000000
  0
LINE
  8
102
 10
0.650071
 20
0.965638
 30
0.000000
 11
0.650071
 21
0.967976
 31
0.000000
  0
LINE
  8
102
 10
0.650071
 20
0.967976
 30
0.000000
 11
0.669185
 21
0.987091
 31
0.000000
  0
LINE
  8
102
 10
0.669185
 20
0.987091
 30
0.000000
 11
0.809020
 21
0.987091
 31
0.000000
  0
LINE
  8
102
 10
0.809020
 20
0.987091
 30
0.000000
 11
0.831287
 21
0.964827
 31
0.000000
  0
LINE
  8
102
 10
0.831287
 20
0.964827
 30
0.000000
 11
0.826980
 21
0.960520
 31
0.000000
  0
LINE
  8
102
 10
0.826980
 20
0.960520
 30
0.000000
 11
0.826980
 21
0.855445
 31
0.000000
  0
LINE
  8
102
 10
0.826980
 20
0.855445
 30
0.000000
 11
0.840469
 21
0.841957
 31
0.000000
  0
LINE
  8
102
 10
0.840469
 20
0.841957
 30
0.000000
 11
0.848508
 21
0.841957
 31
0.000000
  0
LINE
  8
102
 10
0.848508
 20
0.841957
 30
0.000000
 11
0.859646
 21
0.830823
 31
0.000000
  0
LINE
  8
102
 10
0.859646
 20
0.830823
 30
0.000000
 11
0.843783
 21
0.830823
 31
0.000000
  0
LINE
  8
102
 10
0.843783
 20
0.830823
 30
0.000000
 11
0.830110
 21
0.830823
 31
0.000000
  0
LINE
  8
102
 10
0.830110
 20
0.830823
 30
0.000000
 11
0.830110
 21
0.838118
 31
0.000000
  0
LINE
  8
102
 10
0.933429
 20
0.824972
 30
0.000000
 11
0.933429
 21
0.822902
 31
0.000000
  0
LINE
  8
102
 10
0.933429
 20
0.822902
 30
0.000000
 11
0.946917
 21
0.809413
 31
0.000000
  0
LINE
  8
102
 10
0.946917
 20
0.809413
 30
0.000000
 11
0.984886
 21
0.809413
 31
0.000000
  0
LINE
  8
102
 10
0.984886
 20
0.809413
 30
0.000000
 11
0.964972
 21
0.789504
 31
0.000000
  0
LINE
  8
102
 10
0.964972
 20
0.789504
 30
0.000000
 11
0.925976
 21
0.750504
 31
0.000000
  0
LINE
  8
102
 10
0.925976
 20
0.750504
 30
0.000000
 11
0.925976
 21
0.816673
 31
0.000000
  0
LINE
  8
102
 10
0.925976
 20
0.816673
 30
0.000000
 11
0.917673
 21
0.824972
 31
0.000000
  0
LINE
  8
102
 10
0.917673
 20
0.824972
 30
0.000000
 11
0.933429
 21
0.824972
 31
0.000000
  0
LINE
  8
102
 10
0.830110
 20
0.715024
 30
0.000000
 11
0.830110
 21
0.720008
 31
0.000000
  0
LINE
  8
102
 10
0.830110
 20
0.720008
 30
0.000000
 11
0.816622
 21
0.733496
 31
0.000000
  0
LINE
  8
102
 10
0.816622
 20
0.733496
 30
0.000000
 11
0.683374
 21
0.733496
 31
0.000000
  0
LINE
  8
102
 10
0.683374
 20
0.733496
 30
0.000000
 11
0.669886
 21
0.720008
 31
0.000000
  0
LINE
  8
102
 10
0.669886
 20
0.720008
 30
0.000000
 11
0.669886
 21
0.710024
 31
0.000000
  0
LINE
  8
102
 10
0.669886
 20
0.710024
 30
0.000000
 11
0.655492
 21
0.710024
 31
0.000000
  0
LINE
  8
102
 10
0.655492
 20
0.710024
 30
0.000000
 11
0.649551
 21
0.710024
 31
0.000000
  0
LINE
  8
102
 10
0.649551
 20
0.710024
 30
0.000000
 11
0.650024
 21
0.710492
 31
0.000000
  0
LINE
  8
102
 10
0.650024
 20
0.710492
 30
0.000000
 11
0.650071
 21
0.710539
 31
0.000000
  0
LINE
  8
102
 10
0.650071
 20
0.710539
 30
0.000000
 11
0.650071
 21
0.739551
 31
0.000000
  0
LINE
  8
102
 10
0.650071
 20
0.739551
 30
0.000000
 11
0.650071
 21
0.764504
 31
0.000000
  0
LINE
  8
102
 10
0.650071
 20
0.764504
 30
0.000000
 11
0.650071
 21
0.800398
 31
0.000000
  0
LINE
  8
102
 10
0.650071
 20
0.800398
 30
0.000000
 11
0.669886
 21
0.780583
 31
0.000000
  0
LINE
  8
102
 10
0.669886
 20
0.780583
 30
0.000000
 11
0.669886
 21
0.759988
 31
0.000000
  0
LINE
  8
102
 10
0.669886
 20
0.759988
 30
0.000000
 11
0.683374
 21
0.746500
 31
0.000000
  0
LINE
  8
102
 10
0.683374
 20
0.746500
 30
0.000000
 11
0.816622
 21
0.746500
 31
0.000000
  0
LINE
  8
102
 10
0.816622
 20
0.746500
 30
0.000000
 11
0.823925
 21
0.753807
 31
0.000000
  0
LINE
  8
102
 10
0.823925
 20
0.753807
 30
0.000000
 11
0.823925
 21
0.741598
 31
0.000000
  0
LINE
  8
102
 10
0.823925
 20
0.741598
 30
0.000000
 11
0.837413
 21
0.728110
 31
0.000000
  0
LINE
  8
102
 10
0.837413
 20
0.728110
 30
0.000000
 11
0.903583
 21
0.728110
 31
0.000000
  0
LINE
  8
102
 10
0.903583
 20
0.728110
 30
0.000000
 11
0.890492
 21
0.715024
 31
0.000000
  0
LINE
  8
102
 10
0.890492
 20
0.715024
 30
0.000000
 11
0.830110
 21
0.715024
 31
0.000000
  0
LINE
  8
102
 10
0.871921
 20
1.141909
 30
0.000000
 11
0.871921
 21
1.143980
 31
0.000000
  0
LINE
  8
102
 10
0.871921
 20
1.143980
 30
0.000000
 11
1.016626
 21
1.143980
 31
0.000000
  0
LINE
  8
102
 10
1.016626
 20
1.143980
 30
0.000000
 11
1.041972
 21
1.118634
 31
0.000000
  0
LINE
  8
102
 10
1.041972
 20
1.118634
 30
0.000000
 11
1.041972
 21
1.018035
 31
0.000000
  0
LINE
  8
102
 10
1.041972
 20
1.018035
 30
0.000000
 11
1.064972
 21
0.995035
 31
0.000000
  0
LINE
  8
102
 10
1.064972
 20
0.995035
 30
0.000000
 11
1.064972
 21
0.920492
 31
0.000000
  0
LINE
  8
102
 10
1.064972
 20
0.920492
 30
0.000000
 11
1.074886
 21
0.910583
 31
0.000000
  0
LINE
  8
102
 10
1.074886
 20
0.910583
 30
0.000000
 11
0.946917
 21
0.910583
 31
0.000000
  0
LINE
  8
102
 10
0.946917
 20
0.910583
 30
0.000000
 11
0.933429
 21
0.897094
 31
0.000000
  0
LINE
  8
102
 10
0.933429
 20
0.897094
 30
0.000000
 11
0.933429
 21
0.895024
 31
0.000000
  0
LINE
  8
102
 10
0.933429
 20
0.895024
 30
0.000000
 11
0.915031
 21
0.895024
 31
0.000000
  0
LINE
  8
102
 10
0.915031
 20
0.895024
 30
0.000000
 11
0.915031
 21
0.960520
 31
0.000000
  0
LINE
  8
102
 10
0.915031
 20
0.960520
 30
0.000000
 11
0.907094
 21
0.968457
 31
0.000000
  0
LINE
  8
102
 10
0.907094
 20
0.968457
 30
0.000000
 11
0.907094
 21
0.988079
 31
0.000000
  0
LINE
  8
102
 10
0.907094
 20
0.988079
 30
0.000000
 11
0.886575
 21
1.008598
 31
0.000000
  0
LINE
  8
102
 10
0.886575
 20
1.008598
 30
0.000000
 11
0.886571
 21
1.008598
 31
0.000000
  0
LINE
  8
102
 10
0.886571
 20
1.008598
 30
0.000000
 11
0.838031
 21
1.057142
 31
0.000000
  0
LINE
  8
102
 10
0.838031
 20
1.057142
 30
0.000000
 11
0.809020
 21
1.057142
 31
0.000000
  0
LINE
  8
102
 10
0.809020
 20
1.057142
 30
0.000000
 11
0.640173
 21
1.057142
 31
0.000000
  0
LINE
  8
102
 10
0.640173
 20
1.057142
 30
0.000000
 11
0.619654
 21
1.036622
 31
0.000000
  0
LINE
  8
102
 10
0.619654
 20
1.036622
 30
0.000000
 11
0.591606
 21
1.008571
 31
0.000000
  0
LINE
  8
102
 10
0.591606
 20
1.008571
 30
0.000000
 11
0.591606
 21
1.066622
 31
0.000000
  0
LINE
  8
102
 10
0.591606
 20
1.066622
 30
0.000000
 11
0.581114
 21
1.077110
 31
0.000000
  0
LINE
  8
102
 10
0.581114
 20
1.077110
 30
0.000000
 11
0.581114
 21
1.126512
 31
0.000000
  0
LINE
  8
102
 10
0.581114
 20
1.126512
 30
0.000000
 11
0.592720
 21
1.138118
 31
0.000000
  0
LINE
  8
102
 10
0.592720
 20
1.138118
 30
0.000000
 11
0.691870
 21
1.138118
 31
0.000000
  0
LINE
  8
102
 10
0.691870
 20
1.138118
 30
0.000000
 11
0.701563
 21
1.128421
 31
0.000000
  0
LINE
  8
102
 10
0.701563
 20
1.128421
 30
0.000000
 11
0.858433
 21
1.128421
 31
0.000000
  0
LINE
  8
102
 10
0.858433
 20
1.128421
 30
0.000000
 11
0.871921
 21
1.141909
 31
0.000000
  0
LINE
  8
102
 10
0.893650
 20
0.363969
 30
0.000000
 11
0.889996
 21
0.360315
 31
0.000000
  0
LINE
  8
102
 10
0.889996
 20
0.360315
 30
0.000000
 11
0.886346
 21
0.363969
 31
0.000000
  0
LINE
  8
102
 10
0.886346
 20
0.363969
 30
0.000000
 11
0.843650
 21
0.363969
 31
0.000000
  0
LINE
  8
102
 10
0.843650
 20
0.363969
 30
0.000000
 11
0.840000
 21
0.360315
 31
0.000000
  0
LINE
  8
102
 10
0.840000
 20
0.360315
 30
0.000000
 11
0.836346
 21
0.363969
 31
0.000000
  0
LINE
  8
102
 10
0.836346
 20
0.363969
 30
0.000000
 11
0.793650
 21
0.363969
 31
0.000000
  0
LINE
  8
102
 10
0.793650
 20
0.363969
 30
0.000000
 11
0.790000
 21
0.360315
 31
0.000000
  0
LINE
  8
102
 10
0.790000
 20
0.360315
 30
0.000000
 11
0.786346
 21
0.363969
 31
0.000000
  0
LINE
  8
102
 10
0.786346
 20
0.363969
 30
0.000000
 11
0.780559
 21
0.363969
 31
0.000000
  0
LINE
  8
102
 10
0.780559
 20
0.363969
 30
0.000000
 11
0.779504
 21
0.365024
 31
0.000000
  0
LINE
  8
102
 10
0.779504
 20
0.365024
 30
0.000000
 11
0.750492
 21
0.365024
 31
0.000000
  0
LINE
  8
102
 10
0.750492
 20
0.365024
 30
0.000000
 11
0.719504
 21
0.365024
 31
0.000000
  0
LINE
  8
102
 10
0.719504
 20
0.365024
 30
0.000000
 11
0.704551
 21
0.379972
 31
0.000000
  0
LINE
  8
102
 10
0.704551
 20
0.379972
 30
0.000000
 11
0.709504
 21
0.379972
 31
0.000000
  0
LINE
  8
102
 10
0.709504
 20
0.379972
 30
0.000000
 11
0.814504
 21
0.379972
 31
0.000000
  0
LINE
  8
102
 10
0.814504
 20
0.379972
 30
0.000000
 11
0.835024
 21
0.400492
 31
0.000000
  0
LINE
  8
102
 10
0.835024
 20
0.400492
 30
0.000000
 11
0.850024
 21
0.415492
 31
0.000000
  0
LINE
  8
102
 10
0.850024
 20
0.415492
 30
0.000000
 11
0.850024
 21
0.436028
 31
0.000000
  0
LINE
  8
102
 10
0.850024
 20
0.436028
 30
0.000000
 11
0.879972
 21
0.436028
 31
0.000000
  0
LINE
  8
102
 10
0.879972
 20
0.436028
 30
0.000000
 11
0.879972
 21
0.405492
 31
0.000000
  0
LINE
  8
102
 10
0.879972
 20
0.405492
 30
0.000000
 11
0.900492
 21
0.384972
 31
0.000000
  0
LINE
  8
102
 10
0.900492
 20
0.384972
 30
0.000000
 11
0.921500
 21
0.363969
 31
0.000000
  0
LINE
  8
102
 10
0.921500
 20
0.363969
 30
0.000000
 11
0.893650
 21
0.363969
 31
0.000000
  0
LINE
  8
102
 10
0.730161
 20
0.244791
 30
0.000000
 11
0.734933
 21
0.240024
 31
0.000000
  0
LINE
  8
102
 10
0.734933
 20
0.240024
 30
0.000000
 11
0.714504
 21
0.240024
 31
0.000000
  0
LINE
  8
102
 10
0.714504
 20
0.240024
 30
0.000000
 11
0.616024
 21
0.338504
 31
0.000000
  0
LINE
  8
102
 10
0.616024
 20
0.338504
 30
0.000000
 11
0.614551
 21
0.339972
 31
0.000000
  0
LINE
  8
102
 10
0.614551
 20
0.339972
 30
0.000000
 11
0.645492
 21
0.339972
 31
0.000000
  0
LINE
  8
102
 10
0.645492
 20
0.339972
 30
0.000000
 11
0.669972
 21
0.315492
 31
0.000000
  0
LINE
  8
102
 10
0.669972
 20
0.315492
 30
0.000000
 11
0.690492
 21
0.294972
 31
0.000000
  0
LINE
  8
102
 10
0.690492
 20
0.294972
 30
0.000000
 11
0.729972
 21
0.294972
 31
0.000000
  0
LINE
  8
102
 10
0.729972
 20
0.294972
 30
0.000000
 11
0.729972
 21
0.283130
 31
0.000000
  0
LINE
  8
102
 10
0.729972
 20
0.283130
 30
0.000000
 11
0.730161
 21
0.282941
 31
0.000000
  0
LINE
  8
102
 10
0.730161
 20
0.282941
 30
0.000000
 11
0.730161
 21
0.244791
 31
0.000000
  0
LINE
  8
102
 10
0.648693
 20
0.411776
 30
0.000000
 11
0.650445
 21
0.410024
 31
0.000000
  0
LINE
  8
102
 10
0.650445
 20
0.410024
 30
0.000000
 11
0.648693
 21
0.410024
 31
0.000000
  0
LINE
  8
102
 10
0.648693
 20
0.410024
 30
0.000000
 11
0.648693
 21
0.411776
 31
0.000000
  0
LINE
  8
102
 10
0.495024
 20
0.600492
 30
0.000000
 11
0.516028
 21
0.621500
 31
0.000000
  0
LINE
  8
102
 10
0.516028
 20
0.621500
 30
0.000000
 11
0.516028
 21
0.603650
 31
0.000000
  0
LINE
  8
102
 10
0.516028
 20
0.603650
 30
0.000000
 11
0.519681
 21
0.599996
 31
0.000000
  0
LINE
  8
102
 10
0.519681
 20
0.599996
 30
0.000000
 11
0.516028
 21
0.596346
 31
0.000000
  0
LINE
  8
102
 10
0.516028
 20
0.596346
 30
0.000000
 11
0.516028
 21
0.553650
 31
0.000000
  0
LINE
  8
102
 10
0.516028
 20
0.553650
 30
0.000000
 11
0.519681
 21
0.550000
 31
0.000000
  0
LINE
  8
102
 10
0.519681
 20
0.550000
 30
0.000000
 11
0.516028
 21
0.546346
 31
0.000000
  0
LINE
  8
102
 10
0.516028
 20
0.546346
 30
0.000000
 11
0.516028
 21
0.503650
 31
0.000000
  0
LINE
  8
102
 10
0.516028
 20
0.503650
 30
0.000000
 11
0.519681
 21
0.500000
 31
0.000000
  0
LINE
  8
102
 10
0.519681
 20
0.500000
 30
0.000000
 11
0.516028
 21
0.496346
 31
0.000000
  0
LINE
  8
102
 10
0.516028
 20
0.496346
 30
0.000000
 11
0.516028
 21
0.460024
 31
0.000000
  0
LINE
  8
102
 10
0.516028
 20
0.460024
 30
0.000000
 11
0.507492
 21
0.460024
 31
0.000000
  0
LINE
  8
102
 10
0.507492
 20
0.460024
 30
0.000000
 11
0.495024
 21
0.447551
 31
0.000000
  0
LINE
  8
102
 10
0.495024
 20
0.447551
 30
0.000000
 11
0.495024
 21
0.600492
 31
0.000000
  0
LINE
  8
102
 10
0.780492
 20
0.169972
 30
0.000000
 11
0.795409
 21
0.169972
 31
0.000000
  0
LINE
  8
102
 10
0.795409
 20
0.169972
 30
0.000000
 11
0.714193
 21
0.088811
 31
0.000000
  0
LINE
  8
102
 10
0.714193
 20
0.088811
 30
0.000000
 11
0.497520
 21
0.088862
 31
0.000000
  0
LINE
  8
102
 10
0.497520
 20
0.088862
 30
0.000000
 11
0.497870
 21
0.089213
 31
0.000000
  0
LINE
  8
102
 10
0.497870
 20
0.089213
 30
0.000000
 11
0.501598
 21
0.092945
 31
0.000000
  0
LINE
  8
102
 10
0.501598
 20
0.092945
 30
0.000000
 11
0.508130
 21
0.099472
 31
0.000000
  0
LINE
  8
102
 10
0.508130
 20
0.099472
 30
0.000000
 11
0.508130
 21
0.099476
 31
0.000000
  0
LINE
  8
102
 10
0.508130
 20
0.099476
 30
0.000000
 11
0.560941
 21
0.152291
 31
0.000000
  0
LINE
  8
102
 10
0.560941
 20
0.152291
 30
0.000000
 11
0.561843
 21
0.153189
 31
0.000000
  0
LINE
  8
102
 10
0.561843
 20
0.153189
 30
0.000000
 11
0.561843
 21
0.156661
 31
0.000000
  0
LINE
  8
102
 10
0.561843
 20
0.156661
 30
0.000000
 11
0.571567
 21
0.166386
 31
0.000000
  0
LINE
  8
102
 10
0.571567
 20
0.166386
 30
0.000000
 11
0.571567
 21
0.270311
 31
0.000000
  0
LINE
  8
102
 10
0.571567
 20
0.270311
 30
0.000000
 11
0.552902
 21
0.288972
 31
0.000000
  0
LINE
  8
102
 10
0.552902
 20
0.288972
 30
0.000000
 11
0.566492
 21
0.288972
 31
0.000000
  0
LINE
  8
102
 10
0.566492
 20
0.288972
 30
0.000000
 11
0.685492
 21
0.169972
 31
0.000000
  0
LINE
  8
102
 10
0.685492
 20
0.169972
 30
0.000000
 11
0.714504
 21
0.169972
 31
0.000000
  0
LINE
  8
102
 10
0.714504
 20
0.169972
 30
0.000000
 11
0.780492
 21
0.169972
 31
0.000000
  0
LINE
  8
102
 10
1.156972
 20
0.228035
 30
0.000000
 11
1.188035
 21
0.196972
 31
0.000000
  0
LINE
  8
102
 10
1.188035
 20
0.196972
 30
0.000000
 11
1.291961
 21
0.196972
 31
0.000000
  0
LINE
  8
102
 10
1.291961
 20
0.196972
 30
0.000000
 11
1.304972
 21
0.209988
 31
0.000000
  0
LINE
  8
102
 10
1.304972
 20
0.209988
 30
0.000000
 11
1.304972
 21
0.204504
 31
0.000000
  0
LINE
  8
102
 10
1.304972
 20
0.204504
 30
0.000000
 11
1.285492
 21
0.185024
 31
0.000000
  0
LINE
  8
102
 10
1.285492
 20
0.185024
 30
0.000000
 11
1.144504
 21
0.185024
 31
0.000000
  0
LINE
  8
102
 10
1.144504
 20
0.185024
 30
0.000000
 11
1.105024
 21
0.224504
 31
0.000000
  0
LINE
  8
102
 10
1.105024
 20
0.224504
 30
0.000000
 11
1.105024
 21
0.295445
 31
0.000000
  0
LINE
  8
102
 10
1.105024
 20
0.295445
 30
0.000000
 11
1.115492
 21
0.284972
 31
0.000000
  0
LINE
  8
102
 10
1.115492
 20
0.284972
 30
0.000000
 11
1.156972
 21
0.243492
 31
0.000000
  0
LINE
  8
102
 10
1.156972
 20
0.243492
 30
0.000000
 11
1.156972
 21
0.228035
 31
0.000000
  0
LINE
  8
102
 10
1.188035
 20
0.503024
 30
0.000000
 11
1.165024
 21
0.480008
 31
0.000000
  0
LINE
  8
102
 10
1.165024
 20
0.480008
 30
0.000000
 11
1.165024
 21
0.485492
 31
0.000000
  0
LINE
  8
102
 10
1.165024
 20
0.485492
 30
0.000000
 11
1.339504
 21
0.659972
 31
0.000000
  0
LINE
  8
102
 10
1.339504
 20
0.659972
 30
0.000000
 11
1.344972
 21
0.665445
 31
0.000000
  0
LINE
  8
102
 10
1.344972
 20
0.665445
 30
0.000000
 11
1.344972
 21
0.604504
 31
0.000000
  0
LINE
  8
102
 10
1.344972
 20
0.604504
 30
0.000000
 11
1.243492
 21
0.503024
 31
0.000000
  0
LINE
  8
102
 10
1.243492
 20
0.503024
 30
0.000000
 11
1.188035
 21
0.503024
 31
0.000000
  0
LINE
  8
102
 10
1.399972
 20
0.179504
 30
0.000000
 11
1.345492
 21
0.125024
 31
0.000000
  0
LINE
  8
102
 10
1.345492
 20
0.125024
 30
0.000000
 11
1.324551
 21
0.125024
 31
0.000000
  0
LINE
  8
102
 10
1.324551
 20
0.125024
 30
0.000000
 11
1.354504
 21
0.154972
 31
0.000000
  0
LINE
  8
102
 10
1.354504
 20
0.154972
 30
0.000000
 11
1.375024
 21
0.175492
 31
0.000000
  0
LINE
  8
102
 10
1.375024
 20
0.175492
 30
0.000000
 11
1.375024
 21
0.285492
 31
0.000000
  0
LINE
  8
102
 10
1.375024
 20
0.285492
 30
0.000000
 11
1.375024
 21
0.314504
 31
0.000000
  0
LINE
  8
102
 10
1.375024
 20
0.314504
 30
0.000000
 11
1.323024
 21
0.366504
 31
0.000000
  0
LINE
  8
102
 10
1.323024
 20
0.366504
 30
0.000000
 11
1.323024
 21
0.371961
 31
0.000000
  0
LINE
  8
102
 10
1.323024
 20
0.371961
 30
0.000000
 11
1.294984
 21
0.399996
 31
0.000000
  0
LINE
  8
102
 10
1.294984
 20
0.399996
 30
0.000000
 11
1.323024
 21
0.428035
 31
0.000000
  0
LINE
  8
102
 10
1.323024
 20
0.428035
 30
0.000000
 11
1.323024
 21
0.471961
 31
0.000000
  0
LINE
  8
102
 10
1.323024
 20
0.471961
 30
0.000000
 11
1.317256
 21
0.477724
 31
0.000000
  0
LINE
  8
102
 10
1.317256
 20
0.477724
 30
0.000000
 11
1.399972
 21
0.560445
 31
0.000000
  0
LINE
  8
102
 10
1.399972
 20
0.560445
 30
0.000000
 11
1.399972
 21
0.179504
 31
0.000000
  0
LINE
  8
102
 10
1.399972
 20
0.986972
 30
0.000000
 11
1.399972
 21
0.979551
 31
0.000000
  0
LINE
  8
102
 10
1.399972
 20
0.979551
 30
0.000000
 11
1.392551
 21
0.986972
 31
0.000000
  0
LINE
  8
102
 10
1.392551
 20
0.986972
 30
0.000000
 11
1.399972
 21
0.986972
 31
0.000000
  0
LINE
  8
102
 10
1.116024
 20
0.678862
 30
0.000000
 11
1.116024
 21
0.721134
 31
0.000000
  0
LINE
  8
102
 10
1.116024
 20
0.721134
 30
0.000000
 11
1.097181
 21
0.739972
 31
0.000000
  0
LINE
  8
102
 10
1.097181
 20
0.739972
 30
0.000000
 11
1.114504
 21
0.739972
 31
0.000000
  0
LINE
  8
102
 10
1.114504
 20
0.739972
 30
0.000000
 11
1.183945
 21
0.809413
 31
0.000000
  0
LINE
  8
102
 10
1.183945
 20
0.809413
 30
0.000000
 11
1.273079
 21
0.809413
 31
0.000000
  0
LINE
  8
102
 10
1.273079
 20
0.809413
 30
0.000000
 11
1.286567
 21
0.822902
 31
0.000000
  0
LINE
  8
102
 10
1.286567
 20
0.822902
 30
0.000000
 11
1.286567
 21
0.897094
 31
0.000000
  0
LINE
  8
102
 10
1.286567
 20
0.897094
 30
0.000000
 11
1.273079
 21
0.910583
 31
0.000000
  0
LINE
  8
102
 10
1.273079
 20
0.910583
 30
0.000000
 11
1.173945
 21
0.910583
 31
0.000000
  0
LINE
  8
102
 10
1.173945
 20
0.910583
 30
0.000000
 11
1.135024
 21
0.949504
 31
0.000000
  0
LINE
  8
102
 10
1.135024
 20
0.949504
 30
0.000000
 11
1.135024
 21
1.005035
 31
0.000000
  0
LINE
  8
102
 10
1.135024
 20
1.005035
 30
0.000000
 11
1.145000
 21
1.015012
 31
0.000000
  0
LINE
  8
102
 10
1.145000
 20
1.015012
 30
0.000000
 11
1.173035
 21
0.986972
 31
0.000000
  0
LINE
  8
102
 10
1.173035
 20
0.986972
 30
0.000000
 11
1.203496
 21
0.986972
 31
0.000000
  0
LINE
  8
102
 10
1.203496
 20
0.986972
 30
0.000000
 11
1.289972
 21
0.900492
 31
0.000000
  0
LINE
  8
102
 10
1.289972
 20
0.900492
 30
0.000000
 11
1.289972
 21
0.709504
 31
0.000000
  0
LINE
  8
102
 10
1.289972
 20
0.709504
 30
0.000000
 11
1.105024
 21
0.524551
 31
0.000000
  0
LINE
  8
102
 10
1.105024
 20
0.524551
 30
0.000000
 11
1.105024
 21
0.595492
 31
0.000000
  0
LINE
  8
102
 10
1.105024
 20
0.595492
 30
0.000000
 11
1.105024
 21
0.610969
 31
0.000000
  0
LINE
  8
102
 10
1.105024
 20
0.610969
 30
0.000000
 11
1.105024
 21
0.624504
 31
0.000000
  0
LINE
  8
102
 10
1.105024
 20
0.624504
 30
0.000000
 11
1.104224
 21
0.625299
 31
0.000000
  0
LINE
  8
102
 10
1.104224
 20
0.625299
 30
0.000000
 11
1.102028
 21
0.664870
 31
0.000000
  0
LINE
  8
102
 10
1.102028
 20
0.664870
 30
0.000000
 11
1.116024
 21
0.678862
 31
0.000000
  0
LINE
  8
102
 10
1.185012
 20
0.399996
 30
0.000000
 11
1.165024
 21
0.380008
 31
0.000000
  0
LINE
  8
102
 10
1.165024
 20
0.380008
 30
0.000000
 11
1.165024
 21
0.419988
 31
0.000000
  0
LINE
  8
102
 10
1.165024
 20
0.419988
 30
0.000000
 11
1.185012
 21
0.399996
 31
0.000000
  0
LINE
  8
102
 10
1.063504
 20
0.151024
 30
0.000000
 11
1.045024
 21
0.169504
 31
0.000000
  0
LINE
  8
102
 10
1.045024
 20
0.169504
 30
0.000000
 11
1.045024
 21
0.185445
 31
0.000000
  0
LINE
  8
102
 10
1.045024
 20
0.185445
 30
0.000000
 11
1.079445
 21
0.151024
 31
0.000000
  0
LINE
  8
102
 10
1.079445
 20
0.151024
 30
0.000000
 11
1.063504
 21
0.151024
 31
0.000000
  0
LINE
  8
102
 10
1.014504
 20
0.739972
 30
0.000000
 11
1.032815
 21
0.739972
 31
0.000000
  0
LINE
  8
102
 10
1.032815
 20
0.739972
 30
0.000000
 11
1.013972
 21
0.721134
 31
0.000000
  0
LINE
  8
102
 10
1.013972
 20
0.721134
 30
0.000000
 11
1.013972
 21
0.678862
 31
0.000000
  0
LINE
  8
102
 10
1.013972
 20
0.678862
 30
0.000000
 11
1.032102
 21
0.660736
 31
0.000000
  0
LINE
  8
102
 10
1.032102
 20
0.660736
 30
0.000000
 11
1.032976
 21
0.645024
 31
0.000000
  0
LINE
  8
102
 10
1.032976
 20
0.645024
 30
0.000000
 11
0.919551
 21
0.645024
 31
0.000000
  0
LINE
  8
102
 10
0.919551
 20
0.645024
 30
0.000000
 11
1.014504
 21
0.739972
 31
0.000000
  0
LINE
  8
102
 10
0.949835
 20
0.555205
 30
0.000000
 11
0.936346
 21
0.568693
 31
0.000000
  0
LINE
  8
102
 10
0.936346
 20
0.568693
 30
0.000000
 11
0.893650
 21
0.568693
 31
0.000000
  0
LINE
  8
102
 10
0.893650
 20
0.568693
 30
0.000000
 11
0.889996
 21
0.565039
 31
0.000000
  0
LINE
  8
102
 10
0.889996
 20
0.565039
 30
0.000000
 11
0.886346
 21
0.568693
 31
0.000000
  0
LINE
  8
102
 10
0.886346
 20
0.568693
 30
0.000000
 11
0.843650
 21
0.568693
 31
0.000000
  0
LINE
  8
102
 10
0.843650
 20
0.568693
 30
0.000000
 11
0.840000
 21
0.565039
 31
0.000000
  0
LINE
  8
102
 10
0.840000
 20
0.565039
 30
0.000000
 11
0.836346
 21
0.568693
 31
0.000000
  0
LINE
  8
102
 10
0.836346
 20
0.568693
 30
0.000000
 11
0.808220
 21
0.568693
 31
0.000000
  0
LINE
  8
102
 10
0.808220
 20
0.568693
 30
0.000000
 11
0.814504
 21
0.574972
 31
0.000000
  0
LINE
  8
102
 10
0.814504
 20
0.574972
 30
0.000000
 11
1.034972
 21
0.574972
 31
0.000000
  0
LINE
  8
102
 10
1.034972
 20
0.574972
 30
0.000000
 11
1.034972
 21
0.349551
 31
0.000000
  0
LINE
  8
102
 10
1.034972
 20
0.349551
 30
0.000000
 11
0.950024
 21
0.434504
 31
0.000000
  0
LINE
  8
102
 10
0.950024
 20
0.434504
 30
0.000000
 11
0.950024
 21
0.516866
 31
0.000000
  0
LINE
  8
102
 10
0.950024
 20
0.516866
 30
0.000000
 11
0.949835
 21
0.517051
 31
0.000000
  0
LINE
  8
102
 10
0.949835
 20
0.517051
 30
0.000000
 11
0.949835
 21
0.555205
 31
0.000000
  0
LINE
  8
102
 10
0.729972
 20
0.487854
 30
0.000000
 11
0.730161
 21
0.487665
 31
0.000000
  0
LINE
  8
102
 10
0.730161
 20
0.487665
 30
0.000000
 11
0.730161
 21
0.450024
 31
0.000000
  0
LINE
  8
102
 10
0.730161
 20
0.450024
 30
0.000000
 11
0.709504
 21
0.450024
 31
0.000000
  0
LINE
  8
102
 10
0.709504
 20
0.450024
 30
0.000000
 11
0.705024
 21
0.454504
 31
0.000000
  0
LINE
  8
102
 10
0.705024
 20
0.454504
 30
0.000000
 11
0.705024
 21
0.628390
 31
0.000000
  0
LINE
  8
102
 10
0.705024
 20
0.628390
 30
0.000000
 11
0.768862
 21
0.628390
 31
0.000000
  0
LINE
  8
102
 10
0.768862
 20
0.628390
 30
0.000000
 11
0.729972
 21
0.589504
 31
0.000000
  0
LINE
  8
102
 10
0.729972
 20
0.589504
 30
0.000000
 11
0.729972
 21
0.560492
 31
0.000000
  0
LINE
  8
102
 10
0.729972
 20
0.560492
 30
0.000000
 11
0.729972
 21
0.487854
 31
0.000000
  0
LINE
  8
102
 10
0.553957
 20
0.759835
 30
0.000000
 11
0.529516
 21
0.759835
 31
0.000000
  0
LINE
  8
102
 10
0.529516
 20
0.759835
 30
0.000000
 11
0.516028
 21
0.746346
 31
0.000000
  0
LINE
  8
102
 10
0.516028
 20
0.746346
 30
0.000000
 11
0.516028
 21
0.710024
 31
0.000000
  0
LINE
  8
102
 10
0.516028
 20
0.710024
 30
0.000000
 11
0.505492
 21
0.710024
 31
0.000000
  0
LINE
  8
102
 10
0.505492
 20
0.710024
 30
0.000000
 11
0.500024
 21
0.704551
 31
0.000000
  0
LINE
  8
102
 10
0.500024
 20
0.704551
 30
0.000000
 11
0.500024
 21
0.795492
 31
0.000000
  0
LINE
  8
102
 10
0.500024
 20
0.795492
 30
0.000000
 11
0.500024
 21
0.813768
 31
0.000000
  0
LINE
  8
102
 10
0.500024
 20
0.813768
 30
0.000000
 11
0.553957
 21
0.759835
 31
0.000000
  0
LINE
  8
102
 10
0.113374
 20
0.911606
 30
0.000000
 11
0.105024
 21
0.903252
 31
0.000000
  0
LINE
  8
102
 10
0.105024
 20
0.903252
 30
0.000000
 11
0.105024
 21
1.010492
 31
0.000000
  0
LINE
  8
102
 10
0.105024
 20
1.010492
 30
0.000000
 11
0.158390
 21
1.063862
 31
0.000000
  0
LINE
  8
102
 10
0.158390
 20
1.063862
 30
0.000000
 11
0.158390
 21
0.933374
 31
0.000000
  0
LINE
  8
102
 10
0.158390
 20
0.933374
 30
0.000000
 11
0.171878
 21
0.919886
 31
0.000000
  0
LINE
  8
102
 10
0.171878
 20
0.919886
 30
0.000000
 11
0.215583
 21
0.919886
 31
0.000000
  0
LINE
  8
102
 10
0.215583
 20
0.919886
 30
0.000000
 11
0.223862
 21
0.911606
 31
0.000000
  0
LINE
  8
102
 10
0.223862
 20
0.911606
 30
0.000000
 11
0.113374
 21
0.911606
 31
0.000000
  0
LINE
  8
102
 10
0.263496
 20
1.066622
 30
0.000000
 11
0.260142
 21
1.069972
 31
0.000000
  0
LINE
  8
102
 10
0.260142
 20
1.069972
 30
0.000000
 11
0.270492
 21
1.069972
 31
0.000000
  0
LINE
  8
102
 10
0.270492
 20
1.069972
 30
0.000000
 11
0.276500
 21
1.063965
 31
0.000000
  0
LINE
  8
102
 10
0.276500
 20
1.063965
 30
0.000000
 11
0.276500
 21
0.958024
 31
0.000000
  0
LINE
  8
102
 10
0.276500
 20
0.958024
 30
0.000000
 11
0.263496
 21
0.971028
 31
0.000000
  0
LINE
  8
102
 10
0.263496
 20
0.971028
 30
0.000000
 11
0.263496
 21
1.066622
 31
0.000000
  0
LINE
  8
102
 10
0.248228
 20
0.690000
 30
0.000000
 11
0.249972
 21
0.691744
 31
0.000000
  0
LINE
  8
102
 10
0.249972
 20
0.691744
 30
0.000000
 11
0.249972
 21
0.688252
 31
0.000000
  0
LINE
  8
102
 10
0.249972
 20
0.688252
 30
0.000000
 11
0.248228
 21
0.690000
 31
0.000000
  0
LINE
  8
102
 10
0.311303
 20
0.738220
 30
0.000000
 11
0.300024
 21
0.749504
 31
0.000000
  0
LINE
  8
102
 10
0.300024
 20
0.749504
 30
0.000000
 11
0.279504
 21
0.770024
 31
0.000000
  0
LINE
  8
102
 10
0.279504
 20
0.770024
 30
0.000000
 11
0.260110
 21
0.770024
 31
0.000000
  0
LINE
  8
102
 10
0.260110
 20
0.770024
 30
0.000000
 11
0.260110
 21
0.780008
 31
0.000000
  0
LINE
  8
102
 10
0.260110
 20
0.780008
 30
0.000000
 11
0.246622
 21
0.793496
 31
0.000000
  0
LINE
  8
102
 10
0.246622
 20
0.793496
 30
0.000000
 11
0.113374
 21
0.793496
 31
0.000000
  0
LINE
  8
102
 10
0.113374
 20
0.793496
 30
0.000000
 11
0.105024
 21
0.785142
 31
0.000000
  0
LINE
  8
102
 10
0.105024
 20
0.785142
 30
0.000000
 11
0.105024
 21
0.814854
 31
0.000000
  0
LINE
  8
102
 10
0.105024
 20
0.814854
 30
0.000000
 11
0.113374
 21
0.806500
 31
0.000000
  0
LINE
  8
102
 10
0.113374
 20
0.806500
 30
0.000000
 11
0.246602
 21
0.806500
 31
0.000000
  0
LINE
  8
102
 10
0.246602
 20
0.806500
 30
0.000000
 11
0.311303
 21
0.741799
 31
0.000000
  0
LINE
  8
102
 10
0.311303
 20
0.741799
 30
0.000000
 11
0.311303
 21
0.738220
 31
0.000000
  0
LINE
  8
102
 10
0.299504
 20
0.864972
 30
0.000000
 11
0.360492
 21
0.864972
 31
0.000000
  0
LINE
  8
102
 10
0.360492
 20
0.864972
 30
0.000000
 11
0.429972
 21
0.795492
 31
0.000000
  0
LINE
  8
102
 10
0.429972
 20
0.795492
 30
0.000000
 11
0.429972
 21
0.759835
 31
0.000000
  0
LINE
  8
102
 10
0.429972
 20
0.759835
 30
0.000000
 11
0.392331
 21
0.759835
 31
0.000000
  0
LINE
  8
102
 10
0.392331
 20
0.759835
 30
0.000000
 11
0.287661
 21
0.864504
 31
0.000000
  0
LINE
  8
102
 10
0.287661
 20
0.864504
 30
0.000000
 11
0.287189
 21
0.864972
 31
0.000000
  0
LINE
  8
102
 10
0.287189
 20
0.864972
 30
0.000000
 11
0.299504
 21
0.864972
 31
0.000000
  0
LINE
  8
102
 10
0.113374
 20
0.573496
 30
0.000000
 11
0.105024
 21
0.565142
 31
0.000000
  0
LINE
  8
102
 10
0.105024
 20
0.565142
 30
0.000000
 11
0.105024
 21
0.594854
 31
0.000000
  0
LINE
  8
102
 10
0.105024
 20
0.594854
 30
0.000000
 11
0.113374
 21
0.586500
 31
0.000000
  0
LINE
  8
102
 10
0.113374
 20
0.586500
 30
0.000000
 11
0.213602
 21
0.586500
 31
0.000000
  0
LINE
  8
102
 10
0.213602
 20
0.586500
 30
0.000000
 11
0.225472
 21
0.574992
 31
0.000000
  0
LINE
  8
102
 10
0.225472
 20
0.574992
 30
0.000000
 11
0.226972
 21
0.573496
 31
0.000000
  0
LINE
  8
102
 10
0.226972
 20
0.573496
 30
0.000000
 11
0.113374
 21
0.573496
 31
0.000000
  0
LINE
  8
102
 10
0.113374
 20
0.411606
 30
0.000000
 11
0.105024
 21
0.403252
 31
0.000000
  0
LINE
  8
102
 10
0.105024
 20
0.403252
 30
0.000000
 11
0.105024
 21
0.476744
 31
0.000000
  0
LINE
  8
102
 10
0.105024
 20
0.476744
 30
0.000000
 11
0.113374
 21
0.468390
 31
0.000000
  0
LINE
  8
102
 10
0.113374
 20
0.468390
 30
0.000000
 11
0.238862
 21
0.468390
 31
0.000000
  0
LINE
  8
102
 10
0.238862
 20
0.468390
 30
0.000000
 11
0.182075
 21
0.411606
 31
0.000000
  0
LINE
  8
102
 10
0.182075
 20
0.411606
 30
0.000000
 11
0.113374
 21
0.411606
 31
0.000000
  0
LINE
  8
102
 10
0.260110
 20
0.489972
 30
0.000000
 11
0.260445
 21
0.489972
 31
0.000000
  0
LINE
  8
102
 10
0.260445
 20
0.489972
 30
0.000000
 11
0.260110
 21
0.489638
 31
0.000000
  0
LINE
  8
102
 10
0.260110
 20
0.489638
 30
0.000000
 11
0.260110
 21
0.489972
 31
0.000000
  0
LINE
  8
102
 10
0.246622
 20
0.293496
 30
0.000000
 11
0.113374
 21
0.293496
 31
0.000000
  0
LINE
  8
102
 10
0.113374
 20
0.293496
 30
0.000000
 11
0.105024
 21
0.285142
 31
0.000000
  0
LINE
  8
102
 10
0.105024
 20
0.285142
 30
0.000000
 11
0.105024
 21
0.314854
 31
0.000000
  0
LINE
  8
102
 10
0.105024
 20
0.314854
 30
0.000000
 11
0.113374
 21
0.306500
 31
0.000000
  0
LINE
  8
102
 10
0.113374
 20
0.306500
 30
0.000000
 11
0.246622
 21
0.306500
 31
0.000000
  0
LINE
  8
102
 10
0.246622
 20
0.306500
 30
0.000000
 11
0.254972
 21
0.314854
 31
0.000000
  0
LINE
  8
102
 10
0.254972
 20
0.314854
 30
0.000000
 11
0.254972
 21
0.285142
 31
0.000000
  0
LINE
  8
102
 10
0.254972
 20
0.285142
 30
0.000000
 11
0.246622
 21
0.293496
 31
0.000000
  0
LINE
  8
102
 10
0.265516
 20
0.166386
 30
0.000000
 11
0.282276
 21
0.149630
 31
0.000000
  0
LINE
  8
102
 10
0.282276
 20
0.149630
 30
0.000000
 11
0.266031
 21
0.149685
 31
0.000000
  0
LINE
  8
102
 10
0.266031
 20
0.149685
 30
0.000000
 11
0.227323
 21
0.188390
 31
0.000000
  0
LINE
  8
102
 10
0.227323
 20
0.188390
 30
0.000000
 11
0.246622
 21
0.188390
 31
0.000000
  0
LINE
  8
102
 10
0.246622
 20
0.188390
 30
0.000000
 11
0.260110
 21
0.201878
 31
0.000000
  0
LINE
  8
102
 10
0.260110
 20
0.201878
 30
0.000000
 11
0.260110
 21
0.250358
 31
0.000000
  0
LINE
  8
102
 10
0.260110
 20
0.250358
 30
0.000000
 11
0.261732
 21
0.248732
 31
0.000000
  0
LINE
  8
102
 10
0.261732
 20
0.248732
 30
0.000000
 11
0.265516
 21
0.241890
 31
0.000000
  0
LINE
  8
102
 10
0.265516
 20
0.241890
 30
0.000000
 11
0.265516
 21
0.166386
 31
0.000000
  0
LINE
  8
102
 10
0.340504
 20
0.301374
 30
0.000000
 11
0.325024
 21
0.301374
 31
0.000000
  0
LINE
  8
102
 10
0.325024
 20
0.301374
 30
0.000000
 11
0.325024
 21
0.340161
 31
0.000000
  0
LINE
  8
102
 10
0.325024
 20
0.340161
 30
0.000000
 11
0.344972
 21
0.340161
 31
0.000000
  0
LINE
  8
102
 10
0.344972
 20
0.340161
 30
0.000000
 11
0.344972
 21
0.319504
 31
0.000000
  0
LINE
  8
102
 10
0.344972
 20
0.319504
 30
0.000000
 11
0.344972
 21
0.296902
 31
0.000000
  0
LINE
  8
102
 10
0.344972
 20
0.296902
 30
0.000000
 11
0.340504
 21
0.301374
 31
0.000000
  0
LINE
  8
102
 10
0.424972
 20
0.340161
 30
0.000000
 11
0.424972
 21
0.309551
 31
0.000000
  0
LINE
  8
102
 10
0.424972
 20
0.309551
 30
0.000000
 11
0.415024
 21
0.319504
 31
0.000000
  0
LINE
  8
102
 10
0.415024
 20
0.319504
 30
0.000000
 11
0.415024
 21
0.340161
 31
0.000000
  0
LINE
  8
102
 10
0.415024
 20
0.340161
 30
0.000000
 11
0.424972
 21
0.340161
 31
0.000000
  0
LINE
  8
102
 10
1.538524
 20
-0.021378
 30
0.000000
 11
1.515079
 21
-0.044823
 31
0.000000
  0
LINE
  8
102
 10
1.515079
 20
-0.044823
 30
0.000000
 11
-0.015079
 21
-0.044823
 31
0.000000
  0
LINE
  8
102
 10
-0.015079
 20
-0.044823
 30
0.000000
 11
-0.038524
 21
-0.021378
 31
0.000000
  0
LINE
  8
102
 10
-0.038524
 20
-0.021378
 30
0.000000
 11
-0.038524
 21
1.521378
 31
0.000000
  0
LINE
  8
102
 10
-0.038524
 20
1.521378
 30
0.000000
 11
-0.015079
 21
1.544823
 31
0.000000
  0
LINE
  8
102
 10
-0.015079
 20
1.544823
 30
0.000000
 11
1.515079
 21
1.544823
 31
0.000000
  0
LINE
  8
102
 10
1.515079
 20
1.544823
 30
0.000000
 11
1.538524
 21
1.521378
 31
0.000000
  0
LINE
  8
102
 10
1.538524
 20
1.521378
 30
0.000000
 11
1.538524
 21
-0.021378
 31
0.000000
  0
LINE
  8
102
 10
0.871921
 20
1.214031
 30
0.000000
 11
0.871921
 21
1.216102
 31
0.000000
  0
LINE
  8
102
 10
0.871921
 20
1.216102
 30
0.000000
 11
0.858433
 21
1.229591
 31
0.000000
  0
LINE
  8
102
 10
0.858433
 20
1.229591
 30
0.000000
 11
0.701563
 21
1.229591
 31
0.000000
  0
LINE
  8
102
 10
0.701563
 20
1.229591
 30
0.000000
 11
0.688075
 21
1.216102
 31
0.000000
  0
LINE
  8
102
 10
0.688075
 20
1.216102
 30
0.000000
 11
0.688075
 21
1.208169
 31
0.000000
  0
LINE
  8
102
 10
0.688075
 20
1.208169
 30
0.000000
 11
0.563709
 21
1.208169
 31
0.000000
  0
LINE
  8
102
 10
0.563709
 20
1.208169
 30
0.000000
 11
0.543189
 21
1.187650
 31
0.000000
  0
LINE
  8
102
 10
0.543189
 20
1.187650
 30
0.000000
 11
0.531594
 21
1.176055
 31
0.000000
  0
LINE
  8
102
 10
0.531594
 20
1.176055
 30
0.000000
 11
0.531583
 21
1.176055
 31
0.000000
  0
LINE
  8
102
 10
0.531583
 20
1.176055
 30
0.000000
 11
0.511063
 21
1.155535
 31
0.000000
  0
LINE
  8
102
 10
0.511063
 20
1.155535
 30
0.000000
 11
0.511063
 21
1.126524
 31
0.000000
  0
LINE
  8
102
 10
0.511063
 20
1.126524
 30
0.000000
 11
0.511063
 21
1.080110
 31
0.000000
  0
LINE
  8
102
 10
0.511063
 20
1.080110
 30
0.000000
 11
0.499988
 21
1.080110
 31
0.000000
  0
LINE
  8
102
 10
0.499988
 20
1.080110
 30
0.000000
 11
0.486500
 21
1.066622
 31
0.000000
  0
LINE
  8
102
 10
0.486500
 20
1.066622
 30
0.000000
 11
0.486500
 21
0.933374
 31
0.000000
  0
LINE
  8
102
 10
0.486500
 20
0.933374
 30
0.000000
 11
0.499988
 21
0.919886
 31
0.000000
  0
LINE
  8
102
 10
0.499988
 20
0.919886
 30
0.000000
 11
0.578118
 21
0.919886
 31
0.000000
  0
LINE
  8
102
 10
0.578118
 20
0.919886
 30
0.000000
 11
0.580020
 21
0.921791
 31
0.000000
  0
LINE
  8
102
 10
0.580020
 20
0.921791
 30
0.000000
 11
0.580020
 21
0.832827
 31
0.000000
  0
LINE
  8
102
 10
0.580020
 20
0.832827
 30
0.000000
 11
0.473496
 21
0.939354
 31
0.000000
  0
LINE
  8
102
 10
0.473496
 20
0.939354
 30
0.000000
 11
0.473496
 21
1.066622
 31
0.000000
  0
LINE
  8
102
 10
0.473496
 20
1.066622
 30
0.000000
 11
0.460008
 21
1.080110
 31
0.000000
  0
LINE
  8
102
 10
0.460008
 20
1.080110
 30
0.000000
 11
0.381878
 21
1.080110
 31
0.000000
  0
LINE
  8
102
 10
0.381878
 20
1.080110
 30
0.000000
 11
0.375000
 21
1.073228
 31
0.000000
  0
LINE
  8
102
 10
0.375000
 20
1.073228
 30
0.000000
 11
0.368118
 21
1.080110
 31
0.000000
  0
LINE
  8
102
 10
0.368118
 20
1.080110
 30
0.000000
 11
0.359417
 21
1.080110
 31
0.000000
  0
LINE
  8
102
 10
0.359417
 20
1.080110
 30
0.000000
 11
0.356622
 21
1.082906
 31
0.000000
  0
LINE
  8
102
 10
0.356622
 20
1.082906
 30
0.000000
 11
0.354772
 21
1.084752
 31
0.000000
  0
LINE
  8
102
 10
0.354772
 20
1.084752
 30
0.000000
 11
0.320024
 21
1.119504
 31
0.000000
  0
LINE
  8
102
 10
0.320024
 20
1.119504
 30
0.000000
 11
0.299504
 21
1.140024
 31
0.000000
  0
LINE
  8
102
 10
0.299504
 20
1.140024
 30
0.000000
 11
0.164504
 21
1.140024
 31
0.000000
  0
LINE
  8
102
 10
0.164504
 20
1.140024
 30
0.000000
 11
0.135492
 21
1.140024
 31
0.000000
  0
LINE
  8
102
 10
0.135492
 20
1.140024
 30
0.000000
 11
0.055492
 21
1.060024
 31
0.000000
  0
LINE
  8
102
 10
0.055492
 20
1.060024
 30
0.000000
 11
0.034972
 21
1.039504
 31
0.000000
  0
LINE
  8
102
 10
0.034972
 20
1.039504
 30
0.000000
 11
0.034972
 21
0.214504
 31
0.000000
  0
LINE
  8
102
 10
0.034972
 20
0.214504
 30
0.000000
 11
0.034972
 21
0.185535
 31
0.000000
  0
LINE
  8
102
 10
0.034972
 20
0.185535
 30
0.000000
 11
0.034972
 21
0.185492
 31
0.000000
  0
LINE
  8
102
 10
0.034972
 20
0.185492
 30
0.000000
 11
0.045276
 21
0.175193
 31
0.000000
  0
LINE
  8
102
 10
0.045276
 20
0.175193
 30
0.000000
 11
0.180453
 21
0.039445
 31
0.000000
  0
LINE
  8
102
 10
0.180453
 20
0.039445
 30
0.000000
 11
0.180453
 21
0.039402
 31
0.000000
  0
LINE
  8
102
 10
0.180453
 20
0.039402
 30
0.000000
 11
0.190665
 21
0.029193
 31
0.000000
  0
LINE
  8
102
 10
0.190665
 20
0.029193
 30
0.000000
 11
0.190685
 21
0.029169
 31
0.000000
  0
LINE
  8
102
 10
0.190685
 20
0.029169
 30
0.000000
 11
0.196941
 21
0.022917
 31
0.000000
  0
LINE
  8
102
 10
0.196941
 20
0.022917
 30
0.000000
 11
0.200969
 21
0.018886
 31
0.000000
  0
LINE
  8
102
 10
0.200969
 20
0.018886
 30
0.000000
 11
0.200972
 21
0.018882
 31
0.000000
  0
LINE
  8
102
 10
0.200972
 20
0.018882
 30
0.000000
 11
0.216783
 21
0.018882
 31
0.000000
  0
LINE
  8
102
 10
0.216783
 20
0.018882
 30
0.000000
 11
0.714177
 21
0.018760
 31
0.000000
  0
LINE
  8
102
 10
0.714177
 20
0.018760
 30
0.000000
 11
0.714181
 21
0.018756
 31
0.000000
  0
LINE
  8
102
 10
0.714181
 20
0.018756
 30
0.000000
 11
0.728413
 21
0.018756
 31
0.000000
  0
LINE
  8
102
 10
0.728413
 20
0.018756
 30
0.000000
 11
0.728681
 21
0.018756
 31
0.000000
  0
LINE
  8
102
 10
0.728681
 20
0.018756
 30
0.000000
 11
0.737677
 21
0.018756
 31
0.000000
  0
LINE
  8
102
 10
0.737677
 20
0.018756
 30
0.000000
 11
0.743189
 21
0.018756
 31
0.000000
  0
LINE
  8
102
 10
0.743189
 20
0.018756
 30
0.000000
 11
0.743193
 21
0.018756
 31
0.000000
  0
LINE
  8
102
 10
0.743193
 20
0.018756
 30
0.000000
 11
0.748957
 21
0.024520
 31
0.000000
  0
LINE
  8
102
 10
0.748957
 20
0.024520
 30
0.000000
 11
0.879496
 21
0.154972
 31
0.000000
  0
LINE
  8
102
 10
0.879496
 20
0.154972
 30
0.000000
 11
0.879504
 21
0.154972
 31
0.000000
  0
LINE
  8
102
 10
0.879504
 20
0.154972
 30
0.000000
 11
0.889614
 21
0.165083
 31
0.000000
  0
LINE
  8
102
 10
0.889614
 20
0.165083
 30
0.000000
 11
0.889760
 21
0.165228
 31
0.000000
  0
LINE
  8
102
 10
0.889760
 20
0.165228
 30
0.000000
 11
0.896248
 21
0.171717
 31
0.000000
  0
LINE
  8
102
 10
0.896248
 20
0.171717
 30
0.000000
 11
0.900024
 21
0.175492
 31
0.000000
  0
LINE
  8
102
 10
0.900024
 20
0.175492
 30
0.000000
 11
0.900024
 21
0.231303
 31
0.000000
  0
LINE
  8
102
 10
0.900024
 20
0.231303
 30
0.000000
 11
0.936346
 21
0.231303
 31
0.000000
  0
LINE
  8
102
 10
0.936346
 20
0.231303
 30
0.000000
 11
0.949835
 21
0.244791
 31
0.000000
  0
LINE
  8
102
 10
0.949835
 20
0.244791
 30
0.000000
 11
0.949835
 21
0.293890
 31
0.000000
  0
LINE
  8
102
 10
0.949835
 20
0.293890
 30
0.000000
 11
0.950024
 21
0.295299
 31
0.000000
  0
LINE
  8
102
 10
0.950024
 20
0.295299
 30
0.000000
 11
0.950024
 21
0.312142
 31
0.000000
  0
LINE
  8
102
 10
0.950024
 20
0.312142
 30
0.000000
 11
0.949835
 21
0.312331
 31
0.000000
  0
LINE
  8
102
 10
0.949835
 20
0.312331
 30
0.000000
 11
0.949835
 21
0.335634
 31
0.000000
  0
LINE
  8
102
 10
0.949835
 20
0.335634
 30
0.000000
 11
0.974972
 21
0.310492
 31
0.000000
  0
LINE
  8
102
 10
0.974972
 20
0.310492
 30
0.000000
 11
0.974972
 21
0.140492
 31
0.000000
  0
LINE
  8
102
 10
0.974972
 20
0.140492
 30
0.000000
 11
0.995492
 21
0.119972
 31
0.000000
  0
LINE
  8
102
 10
0.995492
 20
0.119972
 30
0.000000
 11
1.013972
 21
0.101492
 31
0.000000
  0
LINE
  8
102
 10
1.013972
 20
0.101492
 30
0.000000
 11
1.013972
 21
0.078862
 31
0.000000
  0
LINE
  8
102
 10
1.013972
 20
0.078862
 30
0.000000
 11
1.043862
 21
0.048972
 31
0.000000
  0
LINE
  8
102
 10
1.043862
 20
0.048972
 30
0.000000
 11
1.086134
 21
0.048972
 31
0.000000
  0
LINE
  8
102
 10
1.086134
 20
0.048972
 30
0.000000
 11
1.087130
 21
0.049972
 31
0.000000
  0
LINE
  8
102
 10
1.087130
 20
0.049972
 30
0.000000
 11
1.094504
 21
0.049972
 31
0.000000
  0
LINE
  8
102
 10
1.094504
 20
0.049972
 30
0.000000
 11
1.099504
 21
0.054972
 31
0.000000
  0
LINE
  8
102
 10
1.099504
 20
0.054972
 30
0.000000
 11
1.104504
 21
0.054972
 31
0.000000
  0
LINE
  8
102
 10
1.104504
 20
0.054972
 30
0.000000
 11
1.374504
 21
0.054972
 31
0.000000
  0
LINE
  8
102
 10
1.374504
 20
0.054972
 30
0.000000
 11
1.395024
 21
0.075492
 31
0.000000
  0
LINE
  8
102
 10
1.395024
 20
0.075492
 30
0.000000
 11
1.470024
 21
0.150492
 31
0.000000
  0
LINE
  8
102
 10
1.470024
 20
0.150492
 30
0.000000
 11
1.470024
 21
0.179504
 31
0.000000
  0
LINE
  8
102
 10
1.470024
 20
0.179504
 30
0.000000
 11
1.470024
 21
1.024504
 31
0.000000
  0
LINE
  8
102
 10
1.470024
 20
1.024504
 30
0.000000
 11
1.462217
 21
1.032307
 31
0.000000
  0
LINE
  8
102
 10
1.462217
 20
1.032307
 30
0.000000
 11
1.448024
 21
1.053598
 31
0.000000
  0
LINE
  8
102
 10
1.448024
 20
1.053598
 30
0.000000
 11
1.448024
 21
1.121961
 31
0.000000
  0
LINE
  8
102
 10
1.448024
 20
1.121961
 30
0.000000
 11
1.416961
 21
1.153024
 31
0.000000
  0
LINE
  8
102
 10
1.416961
 20
1.153024
 30
0.000000
 11
1.373035
 21
1.153024
 31
0.000000
  0
LINE
  8
102
 10
1.373035
 20
1.153024
 30
0.000000
 11
1.345000
 21
1.124984
 31
0.000000
  0
LINE
  8
102
 10
1.345000
 20
1.124984
 30
0.000000
 11
1.316961
 21
1.153024
 31
0.000000
  0
LINE
  8
102
 10
1.316961
 20
1.153024
 30
0.000000
 11
1.273035
 21
1.153024
 31
0.000000
  0
LINE
  8
102
 10
1.273035
 20
1.153024
 30
0.000000
 11
1.245000
 21
1.124984
 31
0.000000
  0
LINE
  8
102
 10
1.245000
 20
1.124984
 30
0.000000
 11
1.216961
 21
1.153024
 31
0.000000
  0
LINE
  8
102
 10
1.216961
 20
1.153024
 30
0.000000
 11
1.173035
 21
1.153024
 31
0.000000
  0
LINE
  8
102
 10
1.173035
 20
1.153024
 30
0.000000
 11
1.145000
 21
1.124984
 31
0.000000
  0
LINE
  8
102
 10
1.145000
 20
1.124984
 30
0.000000
 11
1.116961
 21
1.153024
 31
0.000000
  0
LINE
  8
102
 10
1.116961
 20
1.153024
 30
0.000000
 11
1.106646
 21
1.153024
 31
0.000000
  0
LINE
  8
102
 10
1.106646
 20
1.153024
 30
0.000000
 11
1.045638
 21
1.214031
 31
0.000000
  0
LINE
  8
102
 10
1.045638
 20
1.214031
 30
0.000000
 11
1.016626
 21
1.214031
 31
0.000000
  0
LINE
  8
102
 10
1.016626
 20
1.214031
 30
0.000000
 11
0.871921
 21
1.214031
 31
0.000000
  0
LINE
  8
102
 10
-0.020335
 20
-0.039567
 30
0.000000
 11
1.520335
 21
-0.039567
 31
0.000000
  0
LINE
  8
102
 10
1.533524
 20
-0.026378
 30
0.000000
 11
-0.033524
 21
-0.026378
 31
0.000000
  0
LINE
  8
102
 10
-0.038524
 20
-0.013189
 30
0.000000
 11
1.538524
 21
-0.013189
 31
0.000000
  0
LINE
  8
102
 10
1.538524
 20
0.000000
 30
0.000000
 11
-0.038524
 21
0.000000
 31
0.000000
  0
LINE
  8
102
 10
-0.038524
 20
0.013189
 30
0.000000
 11
1.538524
 21
0.013189
 31
0.000000
  0
LINE
  8
102
 10
1.538524
 20
0.026378
 30
0.000000
 11
0.750815
 21
0.026378
 31
0.000000
  0
LINE
  8
102
 10
0.193476
 20
0.026378
 30
0.000000
 11
-0.038524
 21
0.026378
 31
0.000000
  0
LINE
  8
102
 10
-0.038524
 20
0.039567
 30
0.000000
 11
0.180331
 21
0.039567
 31
0.000000
  0
LINE
  8
102
 10
0.764012
 20
0.039567
 30
0.000000
 11
1.538524
 21
0.039567
 31
0.000000
  0
LINE
  8
102
 10
1.538524
 20
0.052756
 30
0.000000
 11
1.097287
 21
0.052756
 31
0.000000
  0
LINE
  8
102
 10
1.040079
 20
0.052756
 30
0.000000
 11
0.777209
 21
0.052756
 31
0.000000
  0
LINE
  8
102
 10
0.167197
 20
0.052756
 30
0.000000
 11
-0.038524
 21
0.052756
 31
0.000000
  0
LINE
  8
102
 10
-0.038524
 20
0.065945
 30
0.000000
 11
0.154063
 21
0.065945
 31
0.000000
  0
LINE
  8
102
 10
0.790406
 20
0.065945
 30
0.000000
 11
1.026890
 21
0.065945
 31
0.000000
  0
LINE
  8
102
 10
1.385476
 20
0.065945
 30
0.000000
 11
1.538524
 21
0.065945
 31
0.000000
  0
LINE
  8
102
 10
1.538524
 20
0.079134
 30
0.000000
 11
1.398665
 21
0.079134
 31
0.000000
  0
LINE
  8
102
 10
1.013972
 20
0.079134
 30
0.000000
 11
0.803606
 21
0.079134
 31
0.000000
  0
LINE
  8
102
 10
0.140929
 20
0.079134
 30
0.000000
 11
-0.038524
 21
0.079134
 31
0.000000
  0
LINE
  8
102
 10
-0.038524
 20
0.092323
 30
0.000000
 11
0.127795
 21
0.092323
 31
0.000000
  0
LINE
  8
102
 10
0.500976
 20
0.092323
 30
0.000000
 11
0.717709
 21
0.092323
 31
0.000000
  0
LINE
  8
102
 10
0.816803
 20
0.092323
 30
0.000000
 11
1.013972
 21
0.092323
 31
0.000000
  0
LINE
  8
102
 10
1.411854
 20
0.092323
 30
0.000000
 11
1.538524
 21
0.092323
 31
0.000000
  0
LINE
  8
102
 10
1.538524
 20
0.105512
 30
0.000000
 11
1.425043
 21
0.105512
 31
0.000000
  0
LINE
  8
102
 10
1.009953
 20
0.105512
 30
0.000000
 11
0.830000
 21
0.105512
 31
0.000000
  0
LINE
  8
102
 10
0.730906
 20
0.105512
 30
0.000000
 11
0.514161
 21
0.105512
 31
0.000000
  0
LINE
  8
102
 10
0.114661
 20
0.105512
 30
0.000000
 11
-0.038524
 21
0.105512
 31
0.000000
  0
LINE
  8
102
 10
-0.038524
 20
0.118701
 30
0.000000
 11
0.101528
 21
0.118701
 31
0.000000
  0
LINE
  8
102
 10
0.527350
 20
0.118701
 30
0.000000
 11
0.744106
 21
0.118701
 31
0.000000
  0
LINE
  8
102
 10
0.843197
 20
0.118701
 30
0.000000
 11
0.996764
 21
0.118701
 31
0.000000
  0
LINE
  8
102
 10
1.438232
 20
0.118701
 30
0.000000
 11
1.538524
 21
0.118701
 31
0.000000
  0
LINE
  8
102
 10
1.538524
 20
0.131890
 30
0.000000
 11
1.451421
 21
0.131890
 31
0.000000
  0
LINE
  8
102
 10
1.352358
 20
0.131890
 30
0.000000
 11
1.331417
 21
0.131890
 31
0.000000
  0
LINE
  8
102
 10
0.983575
 20
0.131890
 30
0.000000
 11
0.856398
 21
0.131890
 31
0.000000
  0
LINE
  8
102
 10
0.757303
 20
0.131890
 30
0.000000
 11
0.540539
 21
0.131890
 31
0.000000
  0
LINE
  8
102
 10
0.088394
 20
0.131890
 30
0.000000
 11
-0.038524
 21
0.131890
 31
0.000000
  0
LINE
  8
102
 10
-0.038524
 20
0.145079
 30
0.000000
 11
0.075260
 21
0.145079
 31
0.000000
  0
LINE
  8
102
 10
0.553728
 20
0.145079
 30
0.000000
 11
0.770500
 21
0.145079
 31
0.000000
  0
LINE
  8
102
 10
0.869594
 20
0.145079
 30
0.000000
 11
0.974972
 21
0.145079
 31
0.000000
  0
LINE
  8
102
 10
1.344606
 20
0.145079
 30
0.000000
 11
1.365547
 21
0.145079
 31
0.000000
  0
LINE
  8
102
 10
1.464610
 20
0.145079
 30
0.000000
 11
1.538524
 21
0.145079
 31
0.000000
  0
LINE
  8
102
 10
1.538524
 20
0.158268
 30
0.000000
 11
1.470024
 21
0.158268
 31
0.000000
  0
LINE
  8
102
 10
1.378736
 20
0.158268
 30
0.000000
 11
1.357799
 21
0.158268
 31
0.000000
  0
LINE
  8
102
 10
1.072201
 20
0.158268
 30
0.000000
 11
1.056260
 21
0.158268
 31
0.000000
  0
LINE
  8
102
 10
0.974972
 20
0.158268
 30
0.000000
 11
0.882799
 21
0.158268
 31
0.000000
  0
LINE
  8
102
 10
0.783697
 20
0.158268
 30
0.000000
 11
0.563449
 21
0.158268
 31
0.000000
  0
LINE
  8
102
 10
0.467862
 20
0.158268
 30
0.000000
 11
0.463445
 21
0.158268
 31
0.000000
  0
LINE
  8
102
 10
0.373634
 20
0.158268
 30
0.000000
 11
0.363445
 21
0.158268
 31
0.000000
  0
LINE
  8
102
 10
0.273634
 20
0.158268
 30
0.000000
 11
0.257449
 21
0.158268
 31
0.000000
  0
LINE
  8
102
 10
0.062126
 20
0.158268
 30
0.000000
 11
-0.038524
 21
0.158268
 31
0.000000
  0
LINE
  8
102
 10
-0.038524
 20
0.171457
 30
0.000000
 11
0.048996
 21
0.171457
 31
0.000000
  0
LINE
  8
102
 10
0.244260
 20
0.171457
 30
0.000000
 11
0.265516
 21
0.171457
 31
0.000000
  0
LINE
  8
102
 10
0.571567
 20
0.171457
 30
0.000000
 11
0.684008
 21
0.171457
 31
0.000000
  0
LINE
  8
102
 10
0.895988
 20
0.171457
 30
0.000000
 11
0.974972
 21
0.171457
 31
0.000000
  0
LINE
  8
102
 10
1.045024
 20
0.171457
 30
0.000000
 11
1.059012
 21
0.171457
 31
0.000000
  0
LINE
  8
102
 10
1.370988
 20
0.171457
 30
0.000000
 11
1.391925
 21
0.171457
 31
0.000000
  0
LINE
  8
102
 10
1.470024
 20
0.171457
 30
0.000000
 11
1.538524
 21
0.171457
 31
0.000000
  0
LINE
  8
102
 10
1.538524
 20
0.184646
 30
0.000000
 11
1.470024
 21
0.184646
 31
0.000000
  0
LINE
  8
102
 10
1.399972
 20
0.184646
 30
0.000000
 11
1.375024
 21
0.184646
 31
0.000000
  0
LINE
  8
102
 10
1.045823
 20
0.184646
 30
0.000000
 11
1.045024
 21
0.184646
 31
0.000000
  0
LINE
  8
102
 10
0.974972
 20
0.184646
 30
0.000000
 11
0.900024
 21
0.184646
 31
0.000000
  0
LINE
  8
102
 10
0.670819
 20
0.184646
 30
0.000000
 11
0.571567
 21
0.184646
 31
0.000000
  0
LINE
  8
102
 10
0.265516
 20
0.184646
 30
0.000000
 11
0.231071
 21
0.184646
 31
0.000000
  0
LINE
  8
102
 10
0.035819
 20
0.184646
 30
0.000000
 11
-0.038524
 21
0.184646
 31
0.000000
  0
LINE
  8
102
 10
-0.038524
 20
0.197835
 30
0.000000
 11
0.034972
 21
0.197835
 31
0.000000
  0
LINE
  8
102
 10
0.256067
 20
0.197835
 30
0.000000
 11
0.265516
 21
0.197835
 31
0.000000
  0
LINE
  8
102
 10
0.571567
 20
0.197835
 30
0.000000
 11
0.657630
 21
0.197835
 31
0.000000
  0
LINE
  8
102
 10
0.900024
 20
0.197835
 30
0.000000
 11
0.974972
 21
0.197835
 31
0.000000
  0
LINE
  8
102
 10
1.131693
 20
0.197835
 30
0.000000
 11
1.187173
 21
0.197835
 31
0.000000
  0
LINE
  8
102
 10
1.292819
 20
0.197835
 30
0.000000
 11
1.298303
 21
0.197835
 31
0.000000
  0
LINE
  8
102
 10
1.375024
 20
0.197835
 30
0.000000
 11
1.399972
 21
0.197835
 31
0.000000
  0
LINE
  8
102
 10
1.470024
 20
0.197835
 30
0.000000
 11
1.538524
 21
0.197835
 31
0.000000
  0
LINE
  8
102
 10
1.538524
 20
0.211024
 30
0.000000
 11
1.470024
 21
0.211024
 31
0.000000
  0
LINE
  8
102
 10
1.399972
 20
0.211024
 30
0.000000
 11
1.375024
 21
0.211024
 31
0.000000
  0
LINE
  8
102
 10
1.173984
 20
0.211024
 30
0.000000
 11
1.118504
 21
0.211024
 31
0.000000
  0
LINE
  8
102
 10
0.974972
 20
0.211024
 30
0.000000
 11
0.900024
 21
0.211024
 31
0.000000
  0
LINE
  8
102
 10
0.644441
 20
0.211024
 30
0.000000
 11
0.571567
 21
0.211024
 31
0.000000
  0
LINE
  8
102
 10
0.265516
 20
0.211024
 30
0.000000
 11
0.260110
 21
0.211024
 31
0.000000
  0
LINE
  8
102
 10
0.034972
 20
0.211024
 30
0.000000
 11
-0.038524
 21
0.211024
 31
0.000000
  0
LINE
  8
102
 10
-0.038524
 20
0.224213
 30
0.000000
 11
0.034972
 21
0.224213
 31
0.000000
  0
LINE
  8
102
 10
0.260110
 20
0.224213
 30
0.000000
 11
0.265516
 21
0.224213
 31
0.000000
  0
LINE
  8
102
 10
0.571567
 20
0.224213
 30
0.000000
 11
0.631252
 21
0.224213
 31
0.000000
  0
LINE
  8
102
 10
0.900024
 20
0.224213
 30
0.000000
 11
0.974972
 21
0.224213
 31
0.000000
  0
LINE
  8
102
 10
1.105315
 20
0.224213
 30
0.000000
 11
1.160795
 21
0.224213
 31
0.000000
  0
LINE
  8
102
 10
1.375024
 20
0.224213
 30
0.000000
 11
1.399972
 21
0.224213
 31
0.000000
  0
LINE
  8
102
 10
1.470024
 20
0.224213
 30
0.000000
 11
1.538524
 21
0.224213
 31
0.000000
  0
LINE
  8
102
 10
1.538524
 20
0.237402
 30
0.000000
 11
1.470024
 21
0.237402
 31
0.000000
  0
LINE
  8
102
 10
1.399972
 20
0.237402
 30
0.000000
 11
1.375024
 21
0.237402
 31
0.000000
  0
LINE
  8
102
 10
1.156972
 20
0.237402
 30
0.000000
 11
1.105024
 21
0.237402
 31
0.000000
  0
LINE
  8
102
 10
0.974972
 20
0.237402
 30
0.000000
 11
0.942445
 21
0.237402
 31
0.000000
  0
LINE
  8
102
 10
0.618063
 20
0.237402
 30
0.000000
 11
0.571567
 21
0.237402
 31
0.000000
  0
LINE
  8
102
 10
0.265516
 20
0.237402
 30
0.000000
 11
0.260110
 21
0.237402
 31
0.000000
  0
LINE
  8
102
 10
0.034972
 20
0.237402
 30
0.000000
 11
-0.038524
 21
0.237402
 31
0.000000
  0
LINE
  8
102
 10
-0.038524
 20
0.250591
 30
0.000000
 11
0.034972
 21
0.250591
 31
0.000000
  0
LINE
  8
102
 10
0.571567
 20
0.250591
 30
0.000000
 11
0.604874
 21
0.250591
 31
0.000000
  0
LINE
  8
102
 10
0.703937
 20
0.250591
 30
0.000000
 11
0.730161
 21
0.250591
 31
0.000000
  0
LINE
  8
102
 10
0.949835
 20
0.250591
 30
0.000000
 11
0.974972
 21
0.250591
 31
0.000000
  0
LINE
  8
102
 10
1.105024
 20
0.250591
 30
0.000000
 11
1.149874
 21
0.250591
 31
0.000000
  0
LINE
  8
102
 10
1.375024
 20
0.250591
 30
0.000000
 11
1.399972
 21
0.250591
 31
0.000000
  0
LINE
  8
102
 10
1.470024
 20
0.250591
 30
0.000000
 11
1.538524
 21
0.250591
 31
0.000000
  0
LINE
  8
102
 10
1.538524
 20
0.263780
 30
0.000000
 11
1.470024
 21
0.263780
 31
0.000000
  0
LINE
  8
102
 10
1.399972
 20
0.263780
 30
0.000000
 11
1.375024
 21
0.263780
 31
0.000000
  0
LINE
  8
102
 10
1.136685
 20
0.263780
 30
0.000000
 11
1.105024
 21
0.263780
 31
0.000000
  0
LINE
  8
102
 10
0.974972
 20
0.263780
 30
0.000000
 11
0.949835
 21
0.263780
 31
0.000000
  0
LINE
  8
102
 10
0.730161
 20
0.263780
 30
0.000000
 11
0.690748
 21
0.263780
 31
0.000000
  0
LINE
  8
102
 10
0.591685
 20
0.263780
 30
0.000000
 11
0.571567
 21
0.263780
 31
0.000000
  0
LINE
  8
102
 10
0.034972
 20
0.263780
 30
0.000000
 11
-0.038524
 21
0.263780
 31
0.000000
  0
LINE
  8
102
 10
-0.038524
 20
0.276969
 30
0.000000
 11
0.034972
 21
0.276969
 31
0.000000
  0
LINE
  8
102
 10
0.564909
 20
0.276969
 30
0.000000
 11
0.578496
 21
0.276969
 31
0.000000
  0
LINE
  8
102
 10
0.677559
 20
0.276969
 30
0.000000
 11
0.730161
 21
0.276969
 31
0.000000
  0
LINE
  8
102
 10
0.949835
 20
0.276969
 30
0.000000
 11
0.974972
 21
0.276969
 31
0.000000
  0
LINE
  8
102
 10
1.105024
 20
0.276969
 30
0.000000
 11
1.123496
 21
0.276969
 31
0.000000
  0
LINE
  8
102
 10
1.375024
 20
0.276969
 30
0.000000
 11
1.399972
 21
0.276969
 31
0.000000
  0
LINE
  8
102
 10
1.470024
 20
0.276969
 30
0.000000
 11
1.538524
 21
0.276969
 31
0.000000
  0
LINE
  8
102
 10
1.538524
 20
0.290157
 30
0.000000
 11
1.470024
 21
0.290157
 31
0.000000
  0
LINE
  8
102
 10
1.399972
 20
0.290157
 30
0.000000
 11
1.375024
 21
0.290157
 31
0.000000
  0
LINE
  8
102
 10
1.110307
 20
0.290157
 30
0.000000
 11
1.105024
 21
0.290157
 31
0.000000
  0
LINE
  8
102
 10
0.974972
 20
0.290157
 30
0.000000
 11
0.949835
 21
0.290157
 31
0.000000
  0
LINE
  8
102
 10
0.729972
 20
0.290157
 30
0.000000
 11
0.664370
 21
0.290157
 31
0.000000
  0
LINE
  8
102
 10
0.254972
 20
0.290157
 30
0.000000
 11
0.249961
 21
0.290157
 31
0.000000
  0
LINE
  8
102
 10
0.110039
 20
0.290157
 30
0.000000
 11
0.105024
 21
0.290157
 31
0.000000
  0
LINE
  8
102
 10
0.034972
 20
0.290157
 30
0.000000
 11
-0.038524
 21
0.290157
 31
0.000000
  0
LINE
  8
102
 10
-0.038524
 20
0.303346
 30
0.000000
 11
0.034972
 21
0.303346
 31
0.000000
  0
LINE
  8
102
 10
0.105024
 20
0.303346
 30
0.000000
 11
0.254972
 21
0.303346
 31
0.000000
  0
LINE
  8
102
 10
0.325024
 20
0.303346
 30
0.000000
 11
0.344972
 21
0.303346
 31
0.000000
  0
LINE
  8
102
 10
0.651181
 20
0.303346
 30
0.000000
 11
0.682118
 21
0.303346
 31
0.000000
  0
LINE
  8
102
 10
0.950024
 20
0.303346
 30
0.000000
 11
0.974972
 21
0.303346
 31
0.000000
  0
LINE
  8
102
 10
1.375024
 20
0.303346
 30
0.000000
 11
1.399972
 21
0.303346
 31
0.000000
  0
LINE
  8
102
 10
1.470024
 20
0.303346
 30
0.000000
 11
1.538524
 21
0.303346
 31
0.000000
  0
LINE
  8
102
 10
1.538524
 20
0.316535
 30
0.000000
 11
1.470024
 21
0.316535
 31
0.000000
  0
LINE
  8
102
 10
1.399972
 20
0.316535
 30
0.000000
 11
1.372992
 21
0.316535
 31
0.000000
  0
LINE
  8
102
 10
0.968929
 20
0.316535
 30
0.000000
 11
0.949835
 21
0.316535
 31
0.000000
  0
LINE
  8
102
 10
0.668929
 20
0.316535
 30
0.000000
 11
0.637992
 21
0.316535
 31
0.000000
  0
LINE
  8
102
 10
0.424972
 20
0.316535
 30
0.000000
 11
0.417992
 21
0.316535
 31
0.000000
  0
LINE
  8
102
 10
0.344972
 20
0.316535
 30
0.000000
 11
0.325024
 21
0.316535
 31
0.000000
  0
LINE
  8
102
 10
0.034972
 20
0.316535
 30
0.000000
 11
-0.038524
 21
0.316535
 31
0.000000
  0
LINE
  8
102
 10
-0.038524
 20
0.329724
 30
0.000000
 11
0.034972
 21
0.329724
 31
0.000000
  0
LINE
  8
102
 10
0.325024
 20
0.329724
 30
0.000000
 11
0.344972
 21
0.329724
 31
0.000000
  0
LINE
  8
102
 10
0.415024
 20
0.329724
 30
0.000000
 11
0.424972
 21
0.329724
 31
0.000000
  0
LINE
  8
102
 10
0.624803
 20
0.329724
 30
0.000000
 11
0.655740
 21
0.329724
 31
0.000000
  0
LINE
  8
102
 10
0.949835
 20
0.329724
 30
0.000000
 11
0.955740
 21
0.329724
 31
0.000000
  0
LINE
  8
102
 10
1.359803
 20
0.329724
 30
0.000000
 11
1.399972
 21
0.329724
 31
0.000000
  0
LINE
  8
102
 10
1.470024
 20
0.329724
 30
0.000000
 11
1.538524
 21
0.329724
 31
0.000000
  0
LINE
  8
102
 10
1.538524
 20
0.342913
 30
0.000000
 11
1.470024
 21
0.342913
 31
0.000000
  0
LINE
  8
102
 10
1.399972
 20
0.342913
 30
0.000000
 11
1.346614
 21
0.342913
 31
0.000000
  0
LINE
  8
102
 10
0.034972
 20
0.342913
 30
0.000000
 11
-0.038524
 21
0.342913
 31
0.000000
  0
LINE
  8
102
 10
-0.038524
 20
0.356102
 30
0.000000
 11
0.034972
 21
0.356102
 31
0.000000
  0
LINE
  8
102
 10
1.028425
 20
0.356102
 30
0.000000
 11
1.034972
 21
0.356102
 31
0.000000
  0
LINE
  8
102
 10
1.333425
 20
0.356102
 30
0.000000
 11
1.399972
 21
0.356102
 31
0.000000
  0
LINE
  8
102
 10
1.470024
 20
0.356102
 30
0.000000
 11
1.538524
 21
0.356102
 31
0.000000
  0
LINE
  8
102
 10
1.538524
 20
0.369291
 30
0.000000
 11
1.470024
 21
0.369291
 31
0.000000
  0
LINE
  8
102
 10
1.399972
 20
0.369291
 30
0.000000
 11
1.323024
 21
0.369291
 31
0.000000
  0
LINE
  8
102
 10
1.034972
 20
0.369291
 30
0.000000
 11
1.015236
 21
0.369291
 31
0.000000
  0
LINE
  8
102
 10
0.916173
 20
0.369291
 30
0.000000
 11
0.715236
 21
0.369291
 31
0.000000
  0
LINE
  8
102
 10
0.034972
 20
0.369291
 30
0.000000
 11
-0.038524
 21
0.369291
 31
0.000000
  0
LINE
  8
102
 10
-0.038524
 20
0.382480
 30
0.000000
 11
0.034972
 21
0.382480
 31
0.000000
  0
LINE
  8
102
 10
0.817012
 20
0.382480
 30
0.000000
 11
0.902984
 21
0.382480
 31
0.000000
  0
LINE
  8
102
 10
1.002047
 20
0.382480
 30
0.000000
 11
1.034972
 21
0.382480
 31
0.000000
  0
LINE
  8
102
 10
1.165024
 20
0.382480
 30
0.000000
 11
1.167496
 21
0.382480
 31
0.000000
  0
LINE
  8
102
 10
1.312504
 20
0.382480
 30
0.000000
 11
1.399972
 21
0.382480
 31
0.000000
  0
LINE
  8
102
 10
1.470024
 20
0.382480
 30
0.000000
 11
1.538524
 21
0.382480
 31
0.000000
  0
LINE
  8
102
 10
1.538524
 20
0.395669
 30
0.000000
 11
1.470024
 21
0.395669
 31
0.000000
  0
LINE
  8
102
 10
1.399972
 20
0.395669
 30
0.000000
 11
1.299315
 21
0.395669
 31
0.000000
  0
LINE
  8
102
 10
1.180685
 20
0.395669
 30
0.000000
 11
1.165024
 21
0.395669
 31
0.000000
  0
LINE
  8
102
 10
1.034972
 20
0.395669
 30
0.000000
 11
0.988858
 21
0.395669
 31
0.000000
  0
LINE
  8
102
 10
0.889795
 20
0.395669
 30
0.000000
 11
0.830201
 21
0.395669
 31
0.000000
  0
LINE
  8
102
 10
0.034972
 20
0.395669
 30
0.000000
 11
-0.038524
 21
0.395669
 31
0.000000
  0
LINE
  8
102
 10
-0.038524
 20
0.408858
 30
0.000000
 11
0.034972
 21
0.408858
 31
0.000000
  0
LINE
  8
102
 10
0.105024
 20
0.408858
 30
0.000000
 11
0.110630
 21
0.408858
 31
0.000000
  0
LINE
  8
102
 10
0.843390
 20
0.408858
 30
0.000000
 11
0.879972
 21
0.408858
 31
0.000000
  0
LINE
  8
102
 10
0.975669
 20
0.408858
 30
0.000000
 11
1.034972
 21
0.408858
 31
0.000000
  0
LINE
  8
102
 10
1.165024
 20
0.408858
 30
0.000000
 11
1.176150
 21
0.408858
 31
0.000000
  0
LINE
  8
102
 10
1.303846
 20
0.408858
 30
0.000000
 11
1.399972
 21
0.408858
 31
0.000000
  0
LINE
  8
102
 10
1.470024
 20
0.408858
 30
0.000000
 11
1.538524
 21
0.408858
 31
0.000000
  0
LINE
  8
102
 10
1.538524
 20
0.422047
 30
0.000000
 11
1.470024
 21
0.422047
 31
0.000000
  0
LINE
  8
102
 10
1.399972
 20
0.422047
 30
0.000000
 11
1.317035
 21
0.422047
 31
0.000000
  0
LINE
  8
102
 10
1.034972
 20
0.422047
 30
0.000000
 11
0.962480
 21
0.422047
 31
0.000000
  0
LINE
  8
102
 10
0.879972
 20
0.422047
 30
0.000000
 11
0.850024
 21
0.422047
 31
0.000000
  0
LINE
  8
102
 10
0.192520
 20
0.422047
 30
0.000000
 11
0.105024
 21
0.422047
 31
0.000000
  0
LINE
  8
102
 10
0.034972
 20
0.422047
 30
0.000000
 11
-0.038524
 21
0.422047
 31
0.000000
  0
LINE
  8
102
 10
-0.038524
 20
0.435236
 30
0.000000
 11
0.034972
 21
0.435236
 31
0.000000
  0
LINE
  8
102
 10
0.105024
 20
0.435236
 30
0.000000
 11
0.205709
 21
0.435236
 31
0.000000
  0
LINE
  8
102
 10
0.850024
 20
0.435236
 30
0.000000
 11
0.879972
 21
0.435236
 31
0.000000
  0
LINE
  8
102
 10
0.950024
 20
0.435236
 30
0.000000
 11
1.034972
 21
0.435236
 31
0.000000
  0
LINE
  8
102
 10
1.323024
 20
0.435236
 30
0.000000
 11
1.399972
 21
0.435236
 31
0.000000
  0
LINE
  8
102
 10
1.470024
 20
0.435236
 30
0.000000
 11
1.538524
 21
0.435236
 31
0.000000
  0
LINE
  8
102
 10
1.538524
 20
0.448425
 30
0.000000
 11
1.470024
 21
0.448425
 31
0.000000
  0
LINE
  8
102
 10
1.399972
 20
0.448425
 30
0.000000
 11
1.323024
 21
0.448425
 31
0.000000
  0
LINE
  8
102
 10
1.034972
 20
0.448425
 30
0.000000
 11
0.950024
 21
0.448425
 31
0.000000
  0
LINE
  8
102
 10
0.495898
 20
0.448425
 30
0.000000
 11
0.495024
 21
0.448425
 31
0.000000
  0
LINE
  8
102
 10
0.218898
 20
0.448425
 30
0.000000
 11
0.105024
 21
0.448425
 31
0.000000
  0
LINE
  8
102
 10
0.034972
 20
0.448425
 30
0.000000
 11
-0.038524
 21
0.448425
 31
0.000000
  0
LINE
  8
102
 10
-0.038524
 20
0.461614
 30
0.000000
 11
0.034972
 21
0.461614
 31
0.000000
  0
LINE
  8
102
 10
0.105024
 20
0.461614
 30
0.000000
 11
0.232087
 21
0.461614
 31
0.000000
  0
LINE
  8
102
 10
0.495024
 20
0.461614
 30
0.000000
 11
0.516028
 21
0.461614
 31
0.000000
  0
LINE
  8
102
 10
0.705024
 20
0.461614
 30
0.000000
 11
0.730161
 21
0.461614
 31
0.000000
  0
LINE
  8
102
 10
0.950024
 20
0.461614
 30
0.000000
 11
1.034972
 21
0.461614
 31
0.000000
  0
LINE
  8
102
 10
1.323024
 20
0.461614
 30
0.000000
 11
1.399972
 21
0.461614
 31
0.000000
  0
LINE
  8
102
 10
1.470024
 20
0.461614
 30
0.000000
 11
1.538524
 21
0.461614
 31
0.000000
  0
LINE
  8
102
 10
1.538524
 20
0.474803
 30
0.000000
 11
1.470024
 21
0.474803
 31
0.000000
  0
LINE
  8
102
 10
1.399972
 20
0.474803
 30
0.000000
 11
1.320181
 21
0.474803
 31
0.000000
  0
LINE
  8
102
 10
1.034972
 20
0.474803
 30
0.000000
 11
0.950024
 21
0.474803
 31
0.000000
  0
LINE
  8
102
 10
0.730161
 20
0.474803
 30
0.000000
 11
0.705024
 21
0.474803
 31
0.000000
  0
LINE
  8
102
 10
0.516028
 20
0.474803
 30
0.000000
 11
0.495024
 21
0.474803
 31
0.000000
  0
LINE
  8
102
 10
0.106961
 20
0.474803
 30
0.000000
 11
0.105024
 21
0.474803
 31
0.000000
  0
LINE
  8
102
 10
0.034972
 20
0.474803
 30
0.000000
 11
-0.038524
 21
0.474803
 31
0.000000
  0
LINE
  8
102
 10
-0.038524
 20
0.487992
 30
0.000000
 11
0.034972
 21
0.487992
 31
0.000000
  0
LINE
  8
102
 10
0.495024
 20
0.487992
 30
0.000000
 11
0.516028
 21
0.487992
 31
0.000000
  0
LINE
  8
102
 10
0.705024
 20
0.487992
 30
0.000000
 11
0.729972
 21
0.487992
 31
0.000000
  0
LINE
  8
102
 10
0.950024
 20
0.487992
 30
0.000000
 11
1.034972
 21
0.487992
 31
0.000000
  0
LINE
  8
102
 10
1.167524
 20
0.487992
 30
0.000000
 11
1.173008
 21
0.487992
 31
0.000000
  0
LINE
  8
102
 10
1.327520
 20
0.487992
 30
0.000000
 11
1.399972
 21
0.487992
 31
0.000000
  0
LINE
  8
102
 10
1.470024
 20
0.487992
 30
0.000000
 11
1.538524
 21
0.487992
 31
0.000000
  0
LINE
  8
102
 10
1.538524
 20
0.501181
 30
0.000000
 11
1.470024
 21
0.501181
 31
0.000000
  0
LINE
  8
102
 10
1.399972
 20
0.501181
 30
0.000000
 11
1.340709
 21
0.501181
 31
0.000000
  0
LINE
  8
102
 10
1.186197
 20
0.501181
 30
0.000000
 11
1.180713
 21
0.501181
 31
0.000000
  0
LINE
  8
102
 10
1.034972
 20
0.501181
 30
0.000000
 11
0.950024
 21
0.501181
 31
0.000000
  0
LINE
  8
102
 10
0.729972
 20
0.501181
 30
0.000000
 11
0.705024
 21
0.501181
 31
0.000000
  0
LINE
  8
102
 10
0.518496
 20
0.501181
 30
0.000000
 11
0.495024
 21
0.501181
 31
0.000000
  0
LINE
  8
102
 10
0.034972
 20
0.501181
 30
0.000000
 11
-0.038524
 21
0.501181
 31
0.000000
  0
LINE
  8
102
 10
-0.038524
 20
0.514370
 30
0.000000
 11
0.034972
 21
0.514370
 31
0.000000
  0
LINE
  8
102
 10
0.495024
 20
0.514370
 30
0.000000
 11
0.516028
 21
0.514370
 31
0.000000
  0
LINE
  8
102
 10
0.705024
 20
0.514370
 30
0.000000
 11
0.729972
 21
0.514370
 31
0.000000
  0
LINE
  8
102
 10
0.950024
 20
0.514370
 30
0.000000
 11
1.034972
 21
0.514370
 31
0.000000
  0
LINE
  8
102
 10
1.193902
 20
0.514370
 30
0.000000
 11
1.254839
 21
0.514370
 31
0.000000
  0
LINE
  8
102
 10
1.353898
 20
0.514370
 30
0.000000
 11
1.399972
 21
0.514370
 31
0.000000
  0
LINE
  8
102
 10
1.470024
 20
0.514370
 30
0.000000
 11
1.538524
 21
0.514370
 31
0.000000
  0
LINE
  8
102
 10
1.538524
 20
0.527559
 30
0.000000
 11
1.470024
 21
0.527559
 31
0.000000
  0
LINE
  8
102
 10
1.399972
 20
0.527559
 30
0.000000
 11
1.367087
 21
0.527559
 31
0.000000
  0
LINE
  8
102
 10
1.268028
 20
0.527559
 30
0.000000
 11
1.207091
 21
0.527559
 31
0.000000
  0
LINE
  8
102
 10
1.108031
 20
0.527559
 30
0.000000
 11
1.105024
 21
0.527559
 31
0.000000
  0
LINE
  8
102
 10
1.034972
 20
0.527559
 30
0.000000
 11
0.949835
 21
0.527559
 31
0.000000
  0
LINE
  8
102
 10
0.729972
 20
0.527559
 30
0.000000
 11
0.705024
 21
0.527559
 31
0.000000
  0
LINE
  8
102
 10
0.516028
 20
0.527559
 30
0.000000
 11
0.495024
 21
0.527559
 31
0.000000
  0
LINE
  8
102
 10
0.034972
 20
0.527559
 30
0.000000
 11
-0.038524
 21
0.527559
 31
0.000000
  0
LINE
  8
102
 10
-0.038524
 20
0.540748
 30
0.000000
 11
0.034972
 21
0.540748
 31
0.000000
  0
LINE
  8
102
 10
0.495024
 20
0.540748
 30
0.000000
 11
0.516028
 21
0.540748
 31
0.000000
  0
LINE
  8
102
 10
0.705024
 20
0.540748
 30
0.000000
 11
0.729972
 21
0.540748
 31
0.000000
  0
LINE
  8
102
 10
0.949835
 20
0.540748
 30
0.000000
 11
1.034972
 21
0.540748
 31
0.000000
  0
LINE
  8
102
 10
1.105024
 20
0.540748
 30
0.000000
 11
1.121220
 21
0.540748
 31
0.000000
  0
LINE
  8
102
 10
1.220280
 20
0.540748
 30
0.000000
 11
1.281217
 21
0.540748
 31
0.000000
  0
LINE
  8
102
 10
1.380276
 20
0.540748
 30
0.000000
 11
1.399972
 21
0.540748
 31
0.000000
  0
LINE
  8
102
 10
1.470024
 20
0.540748
 30
0.000000
 11
1.538524
 21
0.540748
 31
0.000000
  0
LINE
  8
102
 10
1.538524
 20
0.553937
 30
0.000000
 11
1.470024
 21
0.553937
 31
0.000000
  0
LINE
  8
102
 10
1.399972
 20
0.553937
 30
0.000000
 11
1.393465
 21
0.553937
 31
0.000000
  0
LINE
  8
102
 10
1.294406
 20
0.553937
 30
0.000000
 11
1.233469
 21
0.553937
 31
0.000000
  0
LINE
  8
102
 10
1.134409
 20
0.553937
 30
0.000000
 11
1.105024
 21
0.553937
 31
0.000000
  0
LINE
  8
102
 10
1.034972
 20
0.553937
 30
0.000000
 11
0.949835
 21
0.553937
 31
0.000000
  0
LINE
  8
102
 10
0.729972
 20
0.553937
 30
0.000000
 11
0.705024
 21
0.553937
 31
0.000000
  0
LINE
  8
102
 10
0.516028
 20
0.553937
 30
0.000000
 11
0.495024
 21
0.553937
 31
0.000000
  0
LINE
  8
102
 10
0.034972
 20
0.553937
 30
0.000000
 11
-0.038524
 21
0.553937
 31
0.000000
  0
LINE
  8
102
 10
-0.038524
 20
0.567126
 30
0.000000
 11
0.034972
 21
0.567126
 31
0.000000
  0
LINE
  8
102
 10
0.105024
 20
0.567126
 30
0.000000
 11
0.107008
 21
0.567126
 31
0.000000
  0
LINE
  8
102
 10
0.495024
 20
0.567126
 30
0.000000
 11
0.516028
 21
0.567126
 31
0.000000
  0
LINE
  8
102
 10
0.705024
 20
0.567126
 30
0.000000
 11
0.729972
 21
0.567126
 31
0.000000
  0
LINE
  8
102
 10
0.837913
 20
0.567126
 30
0.000000
 11
0.842087
 21
0.567126
 31
0.000000
  0
LINE
  8
102
 10
0.887913
 20
0.567126
 30
0.000000
 11
0.892083
 21
0.567126
 31
0.000000
  0
LINE
  8
102
 10
0.937913
 20
0.567126
 30
0.000000
 11
1.034972
 21
0.567126
 31
0.000000
  0
LINE
  8
102
 10
1.105024
 20
0.567126
 30
0.000000
 11
1.147598
 21
0.567126
 31
0.000000
  0
LINE
  8
102
 10
1.246657
 20
0.567126
 30
0.000000
 11
1.307594
 21
0.567126
 31
0.000000
  0
LINE
  8
102
 10
1.470024
 20
0.567126
 30
0.000000
 11
1.538524
 21
0.567126
 31
0.000000
  0
LINE
  8
102
 10
1.538524
 20
0.580315
 30
0.000000
 11
1.470024
 21
0.580315
 31
0.000000
  0
LINE
  8
102
 10
1.320783
 20
0.580315
 30
0.000000
 11
1.259846
 21
0.580315
 31
0.000000
  0
LINE
  8
102
 10
1.160787
 20
0.580315
 30
0.000000
 11
1.105024
 21
0.580315
 31
0.000000
  0
LINE
  8
102
 10
0.729972
 20
0.580315
 30
0.000000
 11
0.705024
 21
0.580315
 31
0.000000
  0
LINE
  8
102
 10
0.516028
 20
0.580315
 30
0.000000
 11
0.495024
 21
0.580315
 31
0.000000
  0
LINE
  8
102
 10
0.219980
 20
0.580315
 30
0.000000
 11
0.105024
 21
0.580315
 31
0.000000
  0
LINE
  8
102
 10
0.034972
 20
0.580315
 30
0.000000
 11
-0.038524
 21
0.580315
 31
0.000000
  0
LINE
  8
102
 10
-0.038524
 20
0.593504
 30
0.000000
 11
0.034972
 21
0.593504
 31
0.000000
  0
LINE
  8
102
 10
0.105024
 20
0.593504
 30
0.000000
 11
0.106370
 21
0.593504
 31
0.000000
  0
LINE
  8
102
 10
0.495024
 20
0.593504
 30
0.000000
 11
0.516028
 21
0.593504
 31
0.000000
  0
LINE
  8
102
 10
0.705024
 20
0.593504
 30
0.000000
 11
0.733976
 21
0.593504
 31
0.000000
  0
LINE
  8
102
 10
1.105024
 20
0.593504
 30
0.000000
 11
1.173976
 21
0.593504
 31
0.000000
  0
LINE
  8
102
 10
1.273035
 20
0.593504
 30
0.000000
 11
1.333972
 21
0.593504
 31
0.000000
  0
LINE
  8
102
 10
1.470024
 20
0.593504
 30
0.000000
 11
1.538524
 21
0.593504
 31
0.000000
  0
LINE
  8
102
 10
1.538524
 20
0.606693
 30
0.000000
 11
1.470024
 21
0.606693
 31
0.000000
  0
LINE
  8
102
 10
1.344972
 20
0.606693
 30
0.000000
 11
1.286224
 21
0.606693
 31
0.000000
  0
LINE
  8
102
 10
1.187165
 20
0.606693
 30
0.000000
 11
1.105024
 21
0.606693
 31
0.000000
  0
LINE
  8
102
 10
0.747165
 20
0.606693
 30
0.000000
 11
0.705024
 21
0.606693
 31
0.000000
  0
LINE
  8
102
 10
0.516028
 20
0.606693
 30
0.000000
 11
0.501220
 21
0.606693
 31
0.000000
  0
LINE
  8
102
 10
0.034972
 20
0.606693
 30
0.000000
 11
-0.038524
 21
0.606693
 31
0.000000
  0
LINE
  8
102
 10
-0.038524
 20
0.619882
 30
0.000000
 11
0.034972
 21
0.619882
 31
0.000000
  0
LINE
  8
102
 10
0.514409
 20
0.619882
 30
0.000000
 11
0.516028
 21
0.619882
 31
0.000000
  0
LINE
  8
102
 10
0.705024
 20
0.619882
 30
0.000000
 11
0.760354
 21
0.619882
 31
0.000000
  0
LINE
  8
102
 10
1.105024
 20
0.619882
 30
0.000000
 11
1.200354
 21
0.619882
 31
0.000000
  0
LINE
  8
102
 10
1.299413
 20
0.619882
 30
0.000000
 11
1.344972
 21
0.619882
 31
0.000000
  0
LINE
  8
102
 10
1.470024
 20
0.619882
 30
0.000000
 11
1.538524
 21
0.619882
 31
0.000000
  0
LINE
  8
102
 10
1.538524
 20
0.633071
 30
0.000000
 11
1.470024
 21
0.633071
 31
0.000000
  0
LINE
  8
102
 10
1.344972
 20
0.633071
 30
0.000000
 11
1.312602
 21
0.633071
 31
0.000000
  0
LINE
  8
102
 10
1.213543
 20
0.633071
 30
0.000000
 11
1.103795
 21
0.633071
 31
0.000000
  0
LINE
  8
102
 10
0.034972
 20
0.633071
 30
0.000000
 11
-0.038524
 21
0.633071
 31
0.000000
  0
LINE
  8
102
 10
-0.038524
 20
0.646260
 30
0.000000
 11
0.034972
 21
0.646260
 31
0.000000
  0
LINE
  8
102
 10
0.920787
 20
0.646260
 30
0.000000
 11
1.032906
 21
0.646260
 31
0.000000
  0
LINE
  8
102
 10
1.103063
 20
0.646260
 30
0.000000
 11
1.226732
 21
0.646260
 31
0.000000
  0
LINE
  8
102
 10
1.325791
 20
0.646260
 30
0.000000
 11
1.344972
 21
0.646260
 31
0.000000
  0
LINE
  8
102
 10
1.470024
 20
0.646260
 30
0.000000
 11
1.538524
 21
0.646260
 31
0.000000
  0
LINE
  8
102
 10
1.538524
 20
0.659449
 30
0.000000
 11
1.470024
 21
0.659449
 31
0.000000
  0
LINE
  8
102
 10
1.344972
 20
0.659449
 30
0.000000
 11
1.338980
 21
0.659449
 31
0.000000
  0
LINE
  8
102
 10
1.239921
 20
0.659449
 30
0.000000
 11
1.102331
 21
0.659449
 31
0.000000
  0
LINE
  8
102
 10
1.032173
 20
0.659449
 30
0.000000
 11
0.933976
 21
0.659449
 31
0.000000
  0
LINE
  8
102
 10
0.034972
 20
0.659449
 30
0.000000
 11
-0.038524
 21
0.659449
 31
0.000000
  0
LINE
  8
102
 10
-0.038524
 20
0.672638
 30
0.000000
 11
0.034972
 21
0.672638
 31
0.000000
  0
LINE
  8
102
 10
0.947165
 20
0.672638
 30
0.000000
 11
1.020197
 21
0.672638
 31
0.000000
  0
LINE
  8
102
 10
1.109795
 20
0.672638
 30
0.000000
 11
1.253110
 21
0.672638
 31
0.000000
  0
LINE
  8
102
 10
1.470024
 20
0.672638
 30
0.000000
 11
1.538524
 21
0.672638
 31
0.000000
  0
LINE
  8
102
 10
1.538524
 20
0.685827
 30
0.000000
 11
1.470024
 21
0.685827
 31
0.000000
  0
LINE
  8
102
 10
1.266299
 20
0.685827
 30
0.000000
 11
1.116024
 21
0.685827
 31
0.000000
  0
LINE
  8
102
 10
1.013972
 20
0.685827
 30
0.000000
 11
0.960354
 21
0.685827
 31
0.000000
  0
LINE
  8
102
 10
0.107598
 20
0.685827
 30
0.000000
 11
0.105024
 21
0.685827
 31
0.000000
  0
LINE
  8
102
 10
0.034972
 20
0.685827
 30
0.000000
 11
-0.038524
 21
0.685827
 31
0.000000
  0
LINE
  8
102
 10
-0.038524
 20
0.699016
 30
0.000000
 11
0.034972
 21
0.699016
 31
0.000000
  0
LINE
  8
102
 10
0.973543
 20
0.699016
 30
0.000000
 11
1.013972
 21
0.699016
 31
0.000000
  0
LINE
  8
102
 10
1.116024
 20
0.699016
 30
0.000000
 11
1.279488
 21
0.699016
 31
0.000000
  0
LINE
  8
102
 10
1.470024
 20
0.699016
 30
0.000000
 11
1.538524
 21
0.699016
 31
0.000000
  0
LINE
  8
102
 10
1.538524
 20
0.712205
 30
0.000000
 11
1.470024
 21
0.712205
 31
0.000000
  0
LINE
  8
102
 10
1.289972
 20
0.712205
 30
0.000000
 11
1.116024
 21
0.712205
 31
0.000000
  0
LINE
  8
102
 10
1.013972
 20
0.712205
 30
0.000000
 11
0.986732
 21
0.712205
 31
0.000000
  0
LINE
  8
102
 10
0.669886
 20
0.712205
 30
0.000000
 11
0.650071
 21
0.712205
 31
0.000000
  0
LINE
  8
102
 10
0.516028
 20
0.712205
 30
0.000000
 11
0.500024
 21
0.712205
 31
0.000000
  0
LINE
  8
102
 10
0.034972
 20
0.712205
 30
0.000000
 11
-0.038524
 21
0.712205
 31
0.000000
  0
LINE
  8
102
 10
-0.038524
 20
0.725394
 30
0.000000
 11
0.034972
 21
0.725394
 31
0.000000
  0
LINE
  8
102
 10
0.500024
 20
0.725394
 30
0.000000
 11
0.516028
 21
0.725394
 31
0.000000
  0
LINE
  8
102
 10
0.650071
 20
0.725394
 30
0.000000
 11
0.675272
 21
0.725394
 31
0.000000
  0
LINE
  8
102
 10
0.824724
 20
0.725394
 30
0.000000
 11
0.900866
 21
0.725394
 31
0.000000
  0
LINE
  8
102
 10
0.999921
 20
0.725394
 30
0.000000
 11
1.018236
 21
0.725394
 31
0.000000
  0
LINE
  8
102
 10
1.111764
 20
0.725394
 30
0.000000
 11
1.289972
 21
0.725394
 31
0.000000
  0
LINE
  8
102
 10
1.470024
 20
0.725394
 30
0.000000
 11
1.538524
 21
0.725394
 31
0.000000
  0
LINE
  8
102
 10
1.538524
 20
0.738583
 30
0.000000
 11
1.470024
 21
0.738583
 31
0.000000
  0
LINE
  8
102
 10
1.289972
 20
0.738583
 30
0.000000
 11
1.098575
 21
0.738583
 31
0.000000
  0
LINE
  8
102
 10
1.031425
 20
0.738583
 30
0.000000
 11
1.013110
 21
0.738583
 31
0.000000
  0
LINE
  8
102
 10
0.826941
 20
0.738583
 30
0.000000
 11
0.650071
 21
0.738583
 31
0.000000
  0
LINE
  8
102
 10
0.516028
 20
0.738583
 30
0.000000
 11
0.500024
 21
0.738583
 31
0.000000
  0
LINE
  8
102
 10
0.311303
 20
0.738583
 30
0.000000
 11
0.310945
 21
0.738583
 31
0.000000
  0
LINE
  8
102
 10
0.034972
 20
0.738583
 30
0.000000
 11
-0.038524
 21
0.738583
 31
0.000000
  0
LINE
  8
102
 10
-0.038524
 20
0.751772
 30
0.000000
 11
0.034972
 21
0.751772
 31
0.000000
  0
LINE
  8
102
 10
0.297756
 20
0.751772
 30
0.000000
 11
0.301331
 21
0.751772
 31
0.000000
  0
LINE
  8
102
 10
0.500024
 20
0.751772
 30
0.000000
 11
0.521453
 21
0.751772
 31
0.000000
  0
LINE
  8
102
 10
0.650071
 20
0.751772
 30
0.000000
 11
0.678102
 21
0.751772
 31
0.000000
  0
LINE
  8
102
 10
0.821890
 20
0.751772
 30
0.000000
 11
0.823925
 21
0.751772
 31
0.000000
  0
LINE
  8
102
 10
0.925976
 20
0.751772
 30
0.000000
 11
0.927244
 21
0.751772
 31
0.000000
  0
LINE
  8
102
 10
1.126303
 20
0.751772
 30
0.000000
 11
1.289972
 21
0.751772
 31
0.000000
  0
LINE
  8
102
 10
1.470024
 20
0.751772
 30
0.000000
 11
1.538524
 21
0.751772
 31
0.000000
  0
LINE
  8
102
 10
1.538524
 20
0.764961
 30
0.000000
 11
1.470024
 21
0.764961
 31
0.000000
  0
LINE
  8
102
 10
1.289972
 20
0.764961
 30
0.000000
 11
1.139492
 21
0.764961
 31
0.000000
  0
LINE
  8
102
 10
0.940433
 20
0.764961
 30
0.000000
 11
0.925976
 21
0.764961
 31
0.000000
  0
LINE
  8
102
 10
0.669886
 20
0.764961
 30
0.000000
 11
0.650071
 21
0.764961
 31
0.000000
  0
LINE
  8
102
 10
0.548831
 20
0.764961
 30
0.000000
 11
0.500024
 21
0.764961
 31
0.000000
  0
LINE
  8
102
 10
0.429972
 20
0.764961
 30
0.000000
 11
0.387205
 21
0.764961
 31
0.000000
  0
LINE
  8
102
 10
0.288142
 20
0.764961
 30
0.000000
 11
0.284567
 21
0.764961
 31
0.000000
  0
LINE
  8
102
 10
0.034972
 20
0.764961
 30
0.000000
 11
-0.038524
 21
0.764961
 31
0.000000
  0
LINE
  8
102
 10
-0.038524
 20
0.778150
 30
0.000000
 11
0.034972
 21
0.778150
 31
0.000000
  0
LINE
  8
102
 10
0.260110
 20
0.778150
 30
0.000000
 11
0.274953
 21
0.778150
 31
0.000000
  0
LINE
  8
102
 10
0.374016
 20
0.778150
 30
0.000000
 11
0.429972
 21
0.778150
 31
0.000000
  0
LINE
  8
102
 10
0.500024
 20
0.778150
 30
0.000000
 11
0.535642
 21
0.778150
 31
0.000000
  0
LINE
  8
102
 10
0.650071
 20
0.778150
 30
0.000000
 11
0.669886
 21
0.778150
 31
0.000000
  0
LINE
  8
102
 10
0.925976
 20
0.778150
 30
0.000000
 11
0.953622
 21
0.778150
 31
0.000000
  0
LINE
  8
102
 10
1.152681
 20
0.778150
 30
0.000000
 11
1.289972
 21
0.778150
 31
0.000000
  0
LINE
  8
102
 10
1.470024
 20
0.778150
 30
0.000000
 11
1.538524
 21
0.778150
 31
0.000000
  0
LINE
  8
102
 10
1.538524
 20
0.791339
 30
0.000000
 11
1.470024
 21
0.791339
 31
0.000000
  0
LINE
  8
102
 10
1.289972
 20
0.791339
 30
0.000000
 11
1.165870
 21
0.791339
 31
0.000000
  0
LINE
  8
102
 10
0.966811
 20
0.791339
 30
0.000000
 11
0.925976
 21
0.791339
 31
0.000000
  0
LINE
  8
102
 10
0.659130
 20
0.791339
 30
0.000000
 11
0.650071
 21
0.791339
 31
0.000000
  0
LINE
  8
102
 10
0.522453
 20
0.791339
 30
0.000000
 11
0.500024
 21
0.791339
 31
0.000000
  0
LINE
  8
102
 10
0.429972
 20
0.791339
 30
0.000000
 11
0.360827
 21
0.791339
 31
0.000000
  0
LINE
  8
102
 10
0.261764
 20
0.791339
 30
0.000000
 11
0.248780
 21
0.791339
 31
0.000000
  0
LINE
  8
102
 10
0.111220
 20
0.791339
 30
0.000000
 11
0.105024
 21
0.791339
 31
0.000000
  0
LINE
  8
102
 10
0.034972
 20
0.791339
 30
0.000000
 11
-0.038524
 21
0.791339
 31
0.000000
  0
LINE
  8
102
 10
-0.038524
 20
0.804528
 30
0.000000
 11
0.034972
 21
0.804528
 31
0.000000
  0
LINE
  8
102
 10
0.105024
 20
0.804528
 30
0.000000
 11
0.248575
 21
0.804528
 31
0.000000
  0
LINE
  8
102
 10
0.347638
 20
0.804528
 30
0.000000
 11
0.420937
 21
0.804528
 31
0.000000
  0
LINE
  8
102
 10
0.500024
 20
0.804528
 30
0.000000
 11
0.509264
 21
0.804528
 31
0.000000
  0
LINE
  8
102
 10
0.925976
 20
0.804528
 30
0.000000
 11
0.980000
 21
0.804528
 31
0.000000
  0
LINE
  8
102
 10
1.179059
 20
0.804528
 30
0.000000
 11
1.289972
 21
0.804528
 31
0.000000
  0
LINE
  8
102
 10
1.470024
 20
0.804528
 30
0.000000
 11
1.538524
 21
0.804528
 31
0.000000
  0
LINE
  8
102
 10
1.538524
 20
0.817717
 30
0.000000
 11
1.470024
 21
0.817717
 31
0.000000
  0
LINE
  8
102
 10
1.289972
 20
0.817717
 30
0.000000
 11
1.281382
 21
0.817717
 31
0.000000
  0
LINE
  8
102
 10
1.093185
 20
0.817717
 30
0.000000
 11
1.092402
 21
0.817717
 31
0.000000
  0
LINE
  8
102
 10
0.938614
 20
0.817717
 30
0.000000
 11
0.924933
 21
0.817717
 31
0.000000
  0
LINE
  8
102
 10
0.407748
 20
0.817717
 30
0.000000
 11
0.334449
 21
0.817717
 31
0.000000
  0
LINE
  8
102
 10
0.034972
 20
0.817717
 30
0.000000
 11
-0.038524
 21
0.817717
 31
0.000000
  0
LINE
  8
102
 10
-0.038524
 20
0.830906
 30
0.000000
 11
0.034972
 21
0.830906
 31
0.000000
  0
LINE
  8
102
 10
0.321260
 20
0.830906
 30
0.000000
 11
0.394559
 21
0.830906
 31
0.000000
  0
LINE
  8
102
 10
0.830110
 20
0.830906
 30
0.000000
 11
0.859559
 21
0.830906
 31
0.000000
  0
LINE
  8
102
 10
1.097591
 20
0.830906
 30
0.000000
 11
1.106374
 21
0.830906
 31
0.000000
  0
LINE
  8
102
 10
1.286567
 20
0.830906
 30
0.000000
 11
1.289972
 21
0.830906
 31
0.000000
  0
LINE
  8
102
 10
1.470024
 20
0.830906
 30
0.000000
 11
1.538524
 21
0.830906
 31
0.000000
  0
LINE
  8
102
 10
1.538524
 20
0.844094
 30
0.000000
 11
1.470024
 21
0.844094
 31
0.000000
  0
LINE
  8
102
 10
1.289972
 20
0.844094
 30
0.000000
 11
1.286567
 21
0.844094
 31
0.000000
  0
LINE
  8
102
 10
1.119563
 20
0.844094
 30
0.000000
 11
1.097591
 21
0.844094
 31
0.000000
  0
LINE
  8
102
 10
0.838331
 20
0.844094
 30
0.000000
 11
0.824134
 21
0.844094
 31
0.000000
  0
LINE
  8
102
 10
0.580020
 20
0.844094
 30
0.000000
 11
0.568756
 21
0.844094
 31
0.000000
  0
LINE
  8
102
 10
0.381370
 20
0.844094
 30
0.000000
 11
0.308071
 21
0.844094
 31
0.000000
  0
LINE
  8
102
 10
0.034972
 20
0.844094
 30
0.000000
 11
-0.038524
 21
0.844094
 31
0.000000
  0
LINE
  8
102
 10
-0.038524
 20
0.857283
 30
0.000000
 11
0.034972
 21
0.857283
 31
0.000000
  0
LINE
  8
102
 10
0.294882
 20
0.857283
 30
0.000000
 11
0.368181
 21
0.857283
 31
0.000000
  0
LINE
  8
102
 10
0.555567
 20
0.857283
 30
0.000000
 11
0.580020
 21
0.857283
 31
0.000000
  0
LINE
  8
102
 10
0.733031
 20
0.857283
 30
0.000000
 11
0.735980
 21
0.857283
 31
0.000000
  0
LINE
  8
102
 10
0.824031
 20
0.857283
 30
0.000000
 11
0.826980
 21
0.857283
 31
0.000000
  0
LINE
  8
102
 10
1.097591
 20
0.857283
 30
0.000000
 11
1.122406
 21
0.857283
 31
0.000000
  0
LINE
  8
102
 10
1.286567
 20
0.857283
 30
0.000000
 11
1.289972
 21
0.857283
 31
0.000000
  0
LINE
  8
102
 10
1.470024
 20
0.857283
 30
0.000000
 11
1.538524
 21
0.857283
 31
0.000000
  0
LINE
  8
102
 10
1.538524
 20
0.870472
 30
0.000000
 11
1.470024
 21
0.870472
 31
0.000000
  0
LINE
  8
102
 10
1.289972
 20
0.870472
 30
0.000000
 11
1.286567
 21
0.870472
 31
0.000000
  0
LINE
  8
102
 10
1.114992
 20
0.870472
 30
0.000000
 11
1.097591
 21
0.870472
 31
0.000000
  0
LINE
  8
102
 10
0.826980
 20
0.870472
 30
0.000000
 11
0.824031
 21
0.870472
 31
0.000000
  0
LINE
  8
102
 10
0.735980
 20
0.870472
 30
0.000000
 11
0.733031
 21
0.870472
 31
0.000000
  0
LINE
  8
102
 10
0.580020
 20
0.870472
 30
0.000000
 11
0.542378
 21
0.870472
 31
0.000000
  0
LINE
  8
102
 10
0.034972
 20
0.870472
 30
0.000000
 11
-0.038524
 21
0.870472
 31
0.000000
  0
LINE
  8
102
 10
-0.038524
 20
0.883661
 30
0.000000
 11
0.034972
 21
0.883661
 31
0.000000
  0
LINE
  8
102
 10
0.529189
 20
0.883661
 30
0.000000
 11
0.580020
 21
0.883661
 31
0.000000
  0
LINE
  8
102
 10
0.733031
 20
0.883661
 30
0.000000
 11
0.735980
 21
0.883661
 31
0.000000
  0
LINE
  8
102
 10
0.824031
 20
0.883661
 30
0.000000
 11
0.826980
 21
0.883661
 31
0.000000
  0
LINE
  8
102
 10
1.097591
 20
0.883661
 30
0.000000
 11
1.101803
 21
0.883661
 31
0.000000
  0
LINE
  8
102
 10
1.286567
 20
0.883661
 30
0.000000
 11
1.289972
 21
0.883661
 31
0.000000
  0
LINE
  8
102
 10
1.470024
 20
0.883661
 30
0.000000
 11
1.538524
 21
0.883661
 31
0.000000
  0
LINE
  8
102
 10
1.538524
 20
0.896850
 30
0.000000
 11
1.470024
 21
0.896850
 31
0.000000
  0
LINE
  8
102
 10
1.289972
 20
0.896850
 30
0.000000
 11
1.286567
 21
0.896850
 31
0.000000
  0
LINE
  8
102
 10
0.933429
 20
0.896850
 30
0.000000
 11
0.915031
 21
0.896850
 31
0.000000
  0
LINE
  8
102
 10
0.826980
 20
0.896850
 30
0.000000
 11
0.824031
 21
0.896850
 31
0.000000
  0
LINE
  8
102
 10
0.735980
 20
0.896850
 30
0.000000
 11
0.733031
 21
0.896850
 31
0.000000
  0
LINE
  8
102
 10
0.580020
 20
0.896850
 30
0.000000
 11
0.516000
 21
0.896850
 31
0.000000
  0
LINE
  8
102
 10
0.034972
 20
0.896850
 30
0.000000
 11
-0.038524
 21
0.896850
 31
0.000000
  0
LINE
  8
102
 10
-0.038524
 20
0.910039
 30
0.000000
 11
0.034972
 21
0.910039
 31
0.000000
  0
LINE
  8
102
 10
0.105024
 20
0.910039
 30
0.000000
 11
0.111811
 21
0.910039
 31
0.000000
  0
LINE
  8
102
 10
0.502811
 20
0.910039
 30
0.000000
 11
0.580020
 21
0.910039
 31
0.000000
  0
LINE
  8
102
 10
0.733031
 20
0.910039
 30
0.000000
 11
0.735980
 21
0.910039
 31
0.000000
  0
LINE
  8
102
 10
0.824031
 20
0.910039
 30
0.000000
 11
0.826980
 21
0.910039
 31
0.000000
  0
LINE
  8
102
 10
0.915031
 20
0.910039
 30
0.000000
 11
0.946374
 21
0.910039
 31
0.000000
  0
LINE
  8
102
 10
1.273622
 20
0.910039
 30
0.000000
 11
1.280425
 21
0.910039
 31
0.000000
  0
LINE
  8
102
 10
1.470024
 20
0.910039
 30
0.000000
 11
1.538524
 21
0.910039
 31
0.000000
  0
LINE
  8
102
 10
1.538524
 20
0.923228
 30
0.000000
 11
1.470024
 21
0.923228
 31
0.000000
  0
LINE
  8
102
 10
1.267236
 20
0.923228
 30
0.000000
 11
1.161299
 21
0.923228
 31
0.000000
  0
LINE
  8
102
 10
1.064972
 20
0.923228
 30
0.000000
 11
0.915031
 21
0.923228
 31
0.000000
  0
LINE
  8
102
 10
0.826980
 20
0.923228
 30
0.000000
 11
0.824031
 21
0.923228
 31
0.000000
  0
LINE
  8
102
 10
0.735980
 20
0.923228
 30
0.000000
 11
0.733031
 21
0.923228
 31
0.000000
  0
LINE
  8
102
 10
0.496646
 20
0.923228
 30
0.000000
 11
0.489622
 21
0.923228
 31
0.000000
  0
LINE
  8
102
 10
0.168535
 20
0.923228
 30
0.000000
 11
0.105024
 21
0.923228
 31
0.000000
  0
LINE
  8
102
 10
0.034972
 20
0.923228
 30
0.000000
 11
-0.038524
 21
0.923228
 31
0.000000
  0
LINE
  8
102
 10
-0.038524
 20
0.936417
 30
0.000000
 11
0.034972
 21
0.936417
 31
0.000000
  0
LINE
  8
102
 10
0.105024
 20
0.936417
 30
0.000000
 11
0.158390
 21
0.936417
 31
0.000000
  0
LINE
  8
102
 10
0.476433
 20
0.936417
 30
0.000000
 11
0.486500
 21
0.936417
 31
0.000000
  0
LINE
  8
102
 10
0.733031
 20
0.936417
 30
0.000000
 11
0.735980
 21
0.936417
 31
0.000000
  0
LINE
  8
102
 10
0.824031
 20
0.936417
 30
0.000000
 11
0.826980
 21
0.936417
 31
0.000000
  0
LINE
  8
102
 10
0.915031
 20
0.936417
 30
0.000000
 11
1.064972
 21
0.936417
 31
0.000000
  0
LINE
  8
102
 10
1.148110
 20
0.936417
 30
0.000000
 11
1.254047
 21
0.936417
 31
0.000000
  0
LINE
  8
102
 10
1.470024
 20
0.936417
 30
0.000000
 11
1.538524
 21
0.936417
 31
0.000000
  0
LINE
  8
102
 10
1.538524
 20
0.949606
 30
0.000000
 11
1.470024
 21
0.949606
 31
0.000000
  0
LINE
  8
102
 10
1.240858
 20
0.949606
 30
0.000000
 11
1.135024
 21
0.949606
 31
0.000000
  0
LINE
  8
102
 10
1.064972
 20
0.949606
 30
0.000000
 11
0.915031
 21
0.949606
 31
0.000000
  0
LINE
  8
102
 10
0.826980
 20
0.949606
 30
0.000000
 11
0.824031
 21
0.949606
 31
0.000000
  0
LINE
  8
102
 10
0.735980
 20
0.949606
 30
0.000000
 11
0.733031
 21
0.949606
 31
0.000000
  0
LINE
  8
102
 10
0.486500
 20
0.949606
 30
0.000000
 11
0.473496
 21
0.949606
 31
0.000000
  0
LINE
  8
102
 10
0.158390
 20
0.949606
 30
0.000000
 11
0.105024
 21
0.949606
 31
0.000000
  0
LINE
  8
102
 10
0.034972
 20
0.949606
 30
0.000000
 11
-0.038524
 21
0.949606
 31
0.000000
  0
LINE
  8
102
 10
-0.038524
 20
0.962795
 30
0.000000
 11
0.034972
 21
0.962795
 31
0.000000
  0
LINE
  8
102
 10
0.105024
 20
0.962795
 30
0.000000
 11
0.158390
 21
0.962795
 31
0.000000
  0
LINE
  8
102
 10
0.271728
 20
0.962795
 30
0.000000
 11
0.276500
 21
0.962795
 31
0.000000
  0
LINE
  8
102
 10
0.473496
 20
0.962795
 30
0.000000
 11
0.486500
 21
0.962795
 31
0.000000
  0
LINE
  8
102
 10
0.730787
 20
0.962795
 30
0.000000
 11
0.738240
 21
0.962795
 31
0.000000
  0
LINE
  8
102
 10
0.821772
 20
0.962795
 30
0.000000
 11
0.829256
 21
0.962795
 31
0.000000
  0
LINE
  8
102
 10
0.912756
 20
0.962795
 30
0.000000
 11
1.064972
 21
0.962795
 31
0.000000
  0
LINE
  8
102
 10
1.135024
 20
0.962795
 30
0.000000
 11
1.227669
 21
0.962795
 31
0.000000
  0
LINE
  8
102
 10
1.470024
 20
0.962795
 30
0.000000
 11
1.538524
 21
0.962795
 31
0.000000
  0
LINE
  8
102
 10
1.538524
 20
0.975984
 30
0.000000
 11
1.470024
 21
0.975984
 31
0.000000
  0
LINE
  8
102
 10
1.214480
 20
0.975984
 30
0.000000
 11
1.135024
 21
0.975984
 31
0.000000
  0
LINE
  8
102
 10
1.064972
 20
0.975984
 30
0.000000
 11
0.907094
 21
0.975984
 31
0.000000
  0
LINE
  8
102
 10
0.820126
 20
0.975984
 30
0.000000
 11
0.658079
 21
0.975984
 31
0.000000
  0
LINE
  8
102
 10
0.486500
 20
0.975984
 30
0.000000
 11
0.473496
 21
0.975984
 31
0.000000
  0
LINE
  8
102
 10
0.276500
 20
0.975984
 30
0.000000
 11
0.263496
 21
0.975984
 31
0.000000
  0
LINE
  8
102
 10
0.158390
 20
0.975984
 30
0.000000
 11
0.105024
 21
0.975984
 31
0.000000
  0
LINE
  8
102
 10
0.034972
 20
0.975984
 30
0.000000
 11
-0.038524
 21
0.975984
 31
0.000000
  0
LINE
  8
102
 10
-0.038524
 20
0.989173
 30
0.000000
 11
0.034972
 21
0.989173
 31
0.000000
  0
LINE
  8
102
 10
0.105024
 20
0.989173
 30
0.000000
 11
0.158390
 21
0.989173
 31
0.000000
  0
LINE
  8
102
 10
0.263496
 20
0.989173
 30
0.000000
 11
0.276500
 21
0.989173
 31
0.000000
  0
LINE
  8
102
 10
0.473496
 20
0.989173
 30
0.000000
 11
0.486500
 21
0.989173
 31
0.000000
  0
LINE
  8
102
 10
0.906000
 20
0.989173
 30
0.000000
 11
1.064972
 21
0.989173
 31
0.000000
  0
LINE
  8
102
 10
1.135024
 20
0.989173
 30
0.000000
 11
1.170835
 21
0.989173
 31
0.000000
  0
LINE
  8
102
 10
1.470024
 20
0.989173
 30
0.000000
 11
1.538524
 21
0.989173
 31
0.000000
  0
LINE
  8
102
 10
1.538524
 20
1.002362
 30
0.000000
 11
1.470024
 21
1.002362
 31
0.000000
  0
LINE
  8
102
 10
1.157646
 20
1.002362
 30
0.000000
 11
1.135024
 21
1.002362
 31
0.000000
  0
LINE
  8
102
 10
1.057646
 20
1.002362
 30
0.000000
 11
0.892811
 21
1.002362
 31
0.000000
  0
LINE
  8
102
 10
0.486500
 20
1.002362
 30
0.000000
 11
0.473496
 21
1.002362
 31
0.000000
  0
LINE
  8
102
 10
0.276500
 20
1.002362
 30
0.000000
 11
0.263496
 21
1.002362
 31
0.000000
  0
LINE
  8
102
 10
0.158390
 20
1.002362
 30
0.000000
 11
0.105024
 21
1.002362
 31
0.000000
  0
LINE
  8
102
 10
0.034972
 20
1.002362
 30
0.000000
 11
-0.038524
 21
1.002362
 31
0.000000
  0
LINE
  8
102
 10
-0.038524
 20
1.015551
 30
0.000000
 11
0.034972
 21
1.015551
 31
0.000000
  0
LINE
  8
102
 10
0.110079
 20
1.015551
 30
0.000000
 11
0.158390
 21
1.015551
 31
0.000000
  0
LINE
  8
102
 10
0.263496
 20
1.015551
 30
0.000000
 11
0.276500
 21
1.015551
 31
0.000000
  0
LINE
  8
102
 10
0.473496
 20
1.015551
 30
0.000000
 11
0.486500
 21
1.015551
 31
0.000000
  0
LINE
  8
102
 10
0.591606
 20
1.015551
 30
0.000000
 11
0.598587
 21
1.015551
 31
0.000000
  0
LINE
  8
102
 10
0.879622
 20
1.015551
 30
0.000000
 11
1.044457
 21
1.015551
 31
0.000000
  0
LINE
  8
102
 10
1.470024
 20
1.015551
 30
0.000000
 11
1.538524
 21
1.015551
 31
0.000000
  0
LINE
  8
102
 10
1.538524
 20
1.028740
 30
0.000000
 11
1.465787
 21
1.028740
 31
0.000000
  0
LINE
  8
102
 10
1.041972
 20
1.028740
 30
0.000000
 11
0.866433
 21
1.028740
 31
0.000000
  0
LINE
  8
102
 10
0.611776
 20
1.028740
 30
0.000000
 11
0.591606
 21
1.028740
 31
0.000000
  0
LINE
  8
102
 10
0.486500
 20
1.028740
 30
0.000000
 11
0.473496
 21
1.028740
 31
0.000000
  0
LINE
  8
102
 10
0.276500
 20
1.028740
 30
0.000000
 11
0.263496
 21
1.028740
 31
0.000000
  0
LINE
  8
102
 10
0.158390
 20
1.028740
 30
0.000000
 11
0.123268
 21
1.028740
 31
0.000000
  0
LINE
  8
102
 10
0.034972
 20
1.028740
 30
0.000000
 11
-0.038524
 21
1.028740
 31
0.000000
  0
LINE
  8
102
 10
-0.038524
 20
1.041929
 30
0.000000
 11
0.037398
 21
1.041929
 31
0.000000
  0
LINE
  8
102
 10
0.136457
 20
1.041929
 30
0.000000
 11
0.158390
 21
1.041929
 31
0.000000
  0
LINE
  8
102
 10
0.263496
 20
1.041929
 30
0.000000
 11
0.276500
 21
1.041929
 31
0.000000
  0
LINE
  8
102
 10
0.473496
 20
1.041929
 30
0.000000
 11
0.486500
 21
1.041929
 31
0.000000
  0
LINE
  8
102
 10
0.591606
 20
1.041929
 30
0.000000
 11
0.624961
 21
1.041929
 31
0.000000
  0
LINE
  8
102
 10
0.853244
 20
1.041929
 30
0.000000
 11
1.041972
 21
1.041929
 31
0.000000
  0
LINE
  8
102
 10
1.455803
 20
1.041929
 30
0.000000
 11
1.538524
 21
1.041929
 31
0.000000
  0
LINE
  8
102
 10
1.538524
 20
1.055118
 30
0.000000
 11
1.448024
 21
1.055118
 31
0.000000
  0
LINE
  8
102
 10
1.041972
 20
1.055118
 30
0.000000
 11
0.840055
 21
1.055118
 31
0.000000
  0
LINE
  8
102
 10
0.638150
 20
1.055118
 30
0.000000
 11
0.591606
 21
1.055118
 31
0.000000
  0
LINE
  8
102
 10
0.486500
 20
1.055118
 30
0.000000
 11
0.473496
 21
1.055118
 31
0.000000
  0
LINE
  8
102
 10
0.276500
 20
1.055118
 30
0.000000
 11
0.263496
 21
1.055118
 31
0.000000
  0
LINE
  8
102
 10
0.158390
 20
1.055118
 30
0.000000
 11
0.149646
 21
1.055118
 31
0.000000
  0
LINE
  8
102
 10
0.050587
 20
1.055118
 30
0.000000
 11
-0.038524
 21
1.055118
 31
0.000000
  0
LINE
  8
102
 10
-0.038524
 20
1.068307
 30
0.000000
 11
0.063776
 21
1.068307
 31
0.000000
  0
LINE
  8
102
 10
0.261811
 20
1.068307
 30
0.000000
 11
0.272157
 21
1.068307
 31
0.000000
  0
LINE
  8
102
 10
0.471811
 20
1.068307
 30
0.000000
 11
0.488185
 21
1.068307
 31
0.000000
  0
LINE
  8
102
 10
0.589921
 20
1.068307
 30
0.000000
 11
1.041972
 21
1.068307
 31
0.000000
  0
LINE
  8
102
 10
1.448024
 20
1.068307
 30
0.000000
 11
1.538524
 21
1.068307
 31
0.000000
  0
LINE
  8
102
 10
1.538524
 20
1.081496
 30
0.000000
 11
1.448024
 21
1.081496
 31
0.000000
  0
LINE
  8
102
 10
1.041972
 20
1.081496
 30
0.000000
 11
0.581114
 21
1.081496
 31
0.000000
  0
LINE
  8
102
 10
0.511063
 20
1.081496
 30
0.000000
 11
0.358031
 21
1.081496
 31
0.000000
  0
LINE
  8
102
 10
0.076965
 20
1.081496
 30
0.000000
 11
-0.038524
 21
1.081496
 31
0.000000
  0
LINE
  8
102
 10
-0.038524
 20
1.094685
 30
0.000000
 11
0.090154
 21
1.094685
 31
0.000000
  0
LINE
  8
102
 10
0.344843
 20
1.094685
 30
0.000000
 11
0.511063
 21
1.094685
 31
0.000000
  0
LINE
  8
102
 10
0.581114
 20
1.094685
 30
0.000000
 11
1.041972
 21
1.094685
 31
0.000000
  0
LINE
  8
102
 10
1.448024
 20
1.094685
 30
0.000000
 11
1.538524
 21
1.094685
 31
0.000000
  0
LINE
  8
102
 10
1.538524
 20
1.107874
 30
0.000000
 11
1.448024
 21
1.107874
 31
0.000000
  0
LINE
  8
102
 10
1.041972
 20
1.107874
 30
0.000000
 11
0.581114
 21
1.107874
 31
0.000000
  0
LINE
  8
102
 10
0.511063
 20
1.107874
 30
0.000000
 11
0.331654
 21
1.107874
 31
0.000000
  0
LINE
  8
102
 10
0.103343
 20
1.107874
 30
0.000000
 11
-0.038524
 21
1.107874
 31
0.000000
  0
LINE
  8
102
 10
-0.038524
 20
1.121063
 30
0.000000
 11
0.116531
 21
1.121063
 31
0.000000
  0
LINE
  8
102
 10
0.318465
 20
1.121063
 30
0.000000
 11
0.511063
 21
1.121063
 31
0.000000
  0
LINE
  8
102
 10
0.581114
 20
1.121063
 30
0.000000
 11
1.039543
 21
1.121063
 31
0.000000
  0
LINE
  8
102
 10
1.448024
 20
1.121063
 30
0.000000
 11
1.538524
 21
1.121063
 31
0.000000
  0
LINE
  8
102
 10
1.538524
 20
1.134252
 30
0.000000
 11
1.435732
 21
1.134252
 31
0.000000
  0
LINE
  8
102
 10
1.354268
 20
1.134252
 30
0.000000
 11
1.335732
 21
1.134252
 31
0.000000
  0
LINE
  8
102
 10
1.254268
 20
1.134252
 30
0.000000
 11
1.235732
 21
1.134252
 31
0.000000
  0
LINE
  8
102
 10
1.154268
 20
1.134252
 30
0.000000
 11
1.135732
 21
1.134252
 31
0.000000
  0
LINE
  8
102
 10
1.026354
 20
1.134252
 30
0.000000
 11
0.864264
 21
1.134252
 31
0.000000
  0
LINE
  8
102
 10
0.695732
 20
1.134252
 30
0.000000
 11
0.588854
 21
1.134252
 31
0.000000
  0
LINE
  8
102
 10
0.511063
 20
1.134252
 30
0.000000
 11
0.305276
 21
1.134252
 31
0.000000
  0
LINE
  8
102
 10
0.129720
 20
1.134252
 30
0.000000
 11
-0.038524
 21
1.134252
 31
0.000000
  0
LINE
  8
102
 10
-0.038524
 20
1.147441
 30
0.000000
 11
0.511063
 21
1.147441
 31
0.000000
  0
LINE
  8
102
 10
1.122543
 20
1.147441
 30
0.000000
 11
1.167457
 21
1.147441
 31
0.000000
  0
LINE
  8
102
 10
1.222543
 20
1.147441
 30
0.000000
 11
1.267457
 21
1.147441
 31
0.000000
  0
LINE
  8
102
 10
1.322543
 20
1.147441
 30
0.000000
 11
1.367457
 21
1.147441
 31
0.000000
  0
LINE
  8
102
 10
1.422543
 20
1.147441
 30
0.000000
 11
1.538524
 21
1.147441
 31
0.000000
  0
LINE
  8
102
 10
1.538524
 20
1.160630
 30
0.000000
 11
1.099039
 21
1.160630
 31
0.000000
  0
LINE
  8
102
 10
0.516157
 20
1.160630
 30
0.000000
 11
-0.038524
 21
1.160630
 31
0.000000
  0
LINE
  8
102
 10
-0.038524
 20
1.173819
 30
0.000000
 11
0.529346
 21
1.173819
 31
0.000000
  0
LINE
  8
102
 10
1.085850
 20
1.173819
 30
0.000000
 11
1.538524
 21
1.173819
 31
0.000000
  0
LINE
  8
102
 10
1.538524
 20
1.187008
 30
0.000000
 11
1.072661
 21
1.187008
 31
0.000000
  0
LINE
  8
102
 10
0.542547
 20
1.187008
 30
0.000000
 11
-0.038524
 21
1.187008
 31
0.000000
  0
LINE
  8
102
 10
-0.038524
 20
1.200197
 30
0.000000
 11
0.555736
 21
1.200197
 31
0.000000
  0
LINE
  8
102
 10
1.059472
 20
1.200197
 30
0.000000
 11
1.538524
 21
1.200197
 31
0.000000
  0
LINE
  8
102
 10
1.538524
 20
1.213386
 30
0.000000
 11
1.046283
 21
1.213386
 31
0.000000
  0
LINE
  8
102
 10
0.688075
 20
1.213386
 30
0.000000
 11
-0.038524
 21
1.213386
 31
0.000000
  0
LINE
  8
102
 10
-0.038524
 20
1.226575
 30
0.000000
 11
0.698547
 21
1.226575
 31
0.000000
  0
LINE
  8
102
 10
0.861449
 20
1.226575
 30
0.000000
 11
1.538524
 21
1.226575
 31
0.000000
  0
LINE
  8
102
 10
1.538524
 20
1.239764
 30
0.000000
 11
-0.038524
 21
1.239764
 31
0.000000
  0
LINE
  8
102
 10
-0.038524
 20
1.252953
 30
0.000000
 11
1.538524
 21
1.252953
 31
0.000000
  0
LINE
  8
102
 10
1.538524
 20
1.266142
 30
0.000000
 11
-0.038524
 21
1.266142
 31
0.000000
  0
LINE
  8
102
 10
-0.038524
 20
1.279331
 30
0.000000
 11
1.538524
 21
1.279331
 31
0.000000
  0
LINE
  8
102
 10
1.538524
 20
1.292520
 30
0.000000
 11
-0.038524
 21
1.292520
 31
0.000000
  0
LINE
  8
102
 10
-0.038524
 20
1.305709
 30
0.000000
 11
1.538524
 21
1.305709
 31
0.000000
  0
LINE
  8
102
 10
1.538524
 20
1.318898
 30
0.000000
 11
-0.038524
 21
1.318898
 31
0.000000
  0
LINE
  8
102
 10
-0.038524
 20
1.332087
 30
0.000000
 11
1.538524
 21
1.332087
 31
0.000000
  0
LINE
  8
102
 10
1.538524
 20
1.345276
 30
0.000000
 11
-0.038524
 21
1.345276
 31
0.000000
  0
LINE
  8
102
 10
-0.038524
 20
1.358465
 30
0.000000
 11
1.538524
 21
1.358465
 31
0.000000
  0
LINE
  8
102
 10
1.538524
 20
1.371654
 30
0.000000
 11
-0.038524
 21
1.371654
 31
0.000000
  0
LINE
  8
102
 10
-0.038524
 20
1.384843
 30
0.000000
 11
1.538524
 21
1.384843
 31
0.000000
  0
LINE
  8
102
 10
1.538524
 20
1.398031
 30
0.000000
 11
-0.038524
 21
1.398031
 31
0.000000
  0
LINE
  8
102
 10
-0.038524
 20
1.411220
 30
0.000000
 11
1.538524
 21
1.411220
 31
0.000000
  0
LINE
  8
102
 10
1.538524
 20
1.424409
 30
0.000000
 11
-0.038524
 21
1.424409
 31
0.000000
  0
LINE
  8
102
 10
-0.038524
 20
1.437598
 30
0.000000
 11
1.538524
 21
1.437598
 31
0.000000
  0
LINE
  8
102
 10
1.538524
 20
1.450787
 30
0.000000
 11
-0.038524
 21
1.450787
 31
0.000000
  0
LINE
  8
102
 10
-0.038524
 20
1.463976
 30
0.000000
 11
1.538524
 21
1.463976
 31
0.000000
  0
LINE
  8
102
 10
1.538524
 20
1.477165
 30
0.000000
 11
-0.038524
 21
1.477165
 31
0.000000
  0
LINE
  8
102
 10
-0.038524
 20
1.490354
 30
0.000000
 11
1.538524
 21
1.490354
 31
0.000000
  0
LINE
  8
102
 10
1.538524
 20
1.503543
 30
0.000000
 11
-0.038524
 21
1.503543
 31
0.000000
  0
LINE
  8
102
 10
-0.038524
 20
1.516732
 30
0.000000
 11
1.538524
 21
1.516732
 31
0.000000
  0
LINE
  8
102
 10
1.529980
 20
1.529921
 30
0.000000
 11
-0.029980
 21
1.529921
 31
0.000000
  0
LINE
  8
102
 10
-0.016791
 20
1.543110
 30
0.000000
 11
1.516791
 21
1.543110
 31
0.000000
  0
ENDSEC
  0
EOF
