  0
SECTION
  2
HEADER
  9
$ACADVER
  1
AC1009
  9
$FILLMODE
 70
0
  9
$EXTMIN
 10
-0.142110
 20
-0.148157
 30
0.000000
  9
$EXTMAX
 10
1.755713
 20
1.647870
 30
0.000000
  0
ENDSEC
  0
SECTION
  2
TABLES
  0
TABLE
  2
LTYPE
 70
1
  0
LTYPE
  2
CONTINUOUS
 70
64
  3
Solid line
 72
65
 73
0
 40
0
  0
ENDTAB
  0
TABLE
  2
LAYER
 70
255
  0
LAYER
  2
101
 70
64
 62
253
  6
CONTINUOUS
  0
ENDTAB
  0
ENDSEC
  0
SECTION
  2
BLOCKS
  0
BLOCK
  8
0
  2
RECT
 70
64
 10
0.000000
 20
0.000000
 30
0.000000
  3
RECT
  0
SOLID
  8
0
 10
-0.500000
 20
-0.500000
 30
0.000000
 11
0.500000
 21
-0.500000
 31
0.000000
 12
-0.500000
 22
0.500000
 32
0.000000
 13
0.500000
 23
0.500000
 33
0.000000
  0
ENDBLK
  8
0
  0
BLOCK
  8
0
  2
PIE
 70
64
 10
0.000000
 20
0.000000
 30
0.000000
  3
PIE
  0
CIRCLE
  8
0
 10
0.000000
 20
0.000000
 30
0.000000
 40
0.500000
  0
ENDBLK
  8
0
  0
BLOCK
  8
0
  2
OCTAGONP
 70
64
 10
0.000000
 20
0.000000
 30
0.000000
  3
OCTAGONP
  0
POLYLINE
  8
0
 66
1
 10
0.000000
 20
0.000000
 30
0.000000
 40
0.000000
 41
0.000000
 70
1
  0
VERTEX
  8
0
 10
-0.500000
 20
-0.207107
 30
0.000000
  0
VERTEX
  8
0
 10
-0.500000
 20
0.207107
 30
0.000000
  0
VERTEX
  8
0
 10
-0.207107
 20
0.500000
 30
0.000000
  0
VERTEX
  8
0
 10
0.207107
 20
0.500000
 30
0.000000
  0
VERTEX
  8
0
 10
0.500000
 20
0.207107
 30
0.000000
  0
VERTEX
  8
0
 10
0.500000
 20
-0.207107
 30
0.000000
  0
VERTEX
  8
0
 10
0.207107
 20
-0.500000
 30
0.000000
  0
VERTEX
  8
0
 10
-0.207107
 20
-0.500000
 30
0.000000
  0
SEQEND
  8
0
  0
ENDBLK
  8
0
  0
BLOCK
  8
0
  2
SQUAREP
 70
64
 10
0.000000
 20
0.000000
 30
0.000000
  3
SQUAREP
  0
SOLID
  8
0
 10
-0.500000
 20
-0.500000
 30
0.000000
 11
0.500000
 21
-0.500000
 31
0.000000
 12
-0.500000
 22
0.500000
 32
0.000000
 13
0.500000
 23
0.500000
 33
0.000000
  0
ENDBLK
  8
0
  0
BLOCK
  8
0
  2
ROUNDP
 70
64
 10
0.000000
 20
0.000000
 30
0.000000
  3
ROUNDP
  0
CIRCLE
  8
0
 10
0.000000
 20
0.000000
 30
0.000000
 40
0.500000
  0
ENDBLK
  8
0
  0
BLOCK
  8
0
  2
ANNULUSP
 70
64
 10
0.000000
 20
0.000000
 30
0.000000
  3
ANNULUSP
  0
CIRCLE
  8
0
 10
0.000000
 20
0.000000
 30
0.000000
 40
0.500000
  0
ENDBLK
  8
0
  0
BLOCK
  8
0
  2
THERMALP
 70
64
 10
0.000000
 20
0.000000
 30
0.000000
  3
THERMALP
  0
LINE
  8
0
 10
-0.237868
 20
0.450000
 30
0.000000
 11
0.237868
 21
0.450000
 31
0.000000
  0
LINE
  8
0
 10
0.450000
 20
0.237868
 30
0.000000
 11
0.450000
 21
-0.237868
 31
0.000000
  0
LINE
  8
0
 10
0.237868
 20
-0.450000
 30
0.000000
 11
-0.237868
 21
-0.450000
 31
0.000000
  0
LINE
  8
0
 10
-0.450000
 20
-0.237868
 30
0.000000
 11
-0.450000
 21
0.237868
 31
0.000000
  0
ENDBLK
  8
0
  0
BLOCK
  8
0
  2
OCTAGONV
 70
64
 10
0.000000
 20
0.000000
 30
0.000000
  3
OCTAGONV
  0
POLYLINE
  8
0
 66
1
 10
0.000000
 20
0.000000
 30
0.000000
 40
0.000000
 41
0.000000
 70
1
  0
VERTEX
  8
0
 10
-0.500000
 20
-0.207107
 30
0.000000
  0
VERTEX
  8
0
 10
-0.500000
 20
0.207107
 30
0.000000
  0
VERTEX
  8
0
 10
-0.207107
 20
0.500000
 30
0.000000
  0
VERTEX
  8
0
 10
0.207107
 20
0.500000
 30
0.000000
  0
VERTEX
  8
0
 10
0.500000
 20
0.207107
 30
0.000000
  0
VERTEX
  8
0
 10
0.500000
 20
-0.207107
 30
0.000000
  0
VERTEX
  8
0
 10
0.207107
 20
-0.500000
 30
0.000000
  0
VERTEX
  8
0
 10
-0.207107
 20
-0.500000
 30
0.000000
  0
SEQEND
  8
0
  0
ENDBLK
  8
0
  0
BLOCK
  8
0
  2
SQUAREV
 70
64
 10
0.000000
 20
0.000000
 30
0.000000
  3
SQUAREV
  0
SOLID
  8
0
 10
-0.500000
 20
-0.500000
 30
0.000000
 11
0.500000
 21
-0.500000
 31
0.000000
 12
-0.500000
 22
0.500000
 32
0.000000
 13
0.500000
 23
0.500000
 33
0.000000
  0
ENDBLK
  8
0
  0
BLOCK
  8
0
  2
ROUNDV
 70
64
 10
0.000000
 20
0.000000
 30
0.000000
  3
ROUNDV
  0
CIRCLE
  8
0
 10
0.000000
 20
0.000000
 30
0.000000
 40
0.500000
  0
ENDBLK
  8
0
  0
BLOCK
  8
0
  2
ANNULUSV
 70
64
 10
0.000000
 20
0.000000
 30
0.000000
  3
ANNULUSV
  0
CIRCLE
  8
0
 10
0.000000
 20
0.000000
 30
0.000000
 40
0.500000
  0
ENDBLK
  8
0
  0
BLOCK
  8
0
  2
THERMALV
 70
64
 10
0.000000
 20
0.000000
 30
0.000000
  3
THERMALV
  0
LINE
  8
0
 10
-0.237868
 20
0.450000
 30
0.000000
 11
0.237868
 21
0.450000
 31
0.000000
  0
LINE
  8
0
 10
0.450000
 20
0.237868
 30
0.000000
 11
0.450000
 21
-0.237868
 31
0.000000
  0
LINE
  8
0
 10
0.237868
 20
-0.450000
 30
0.000000
 11
-0.237868
 21
-0.450000
 31
0.000000
  0
LINE
  8
0
 10
-0.450000
 20
-0.237868
 30
0.000000
 11
-0.450000
 21
0.237868
 31
0.000000
  0
ENDBLK
  8
0
  0
BLOCK
  8
0
  2
LONGP100
 70
64
 10
0.000000
 20
0.000000
 30
0.000000
  3
LONGP100
  0
POLYLINE
  8
0
 66
1
 10
0.000000
 20
0.000000
 30
0.000000
 40
0.000000
 41
0.000000
 70
1
  0
VERTEX
  8
0
 10
-1.000000
 20
-0.207107
 30
0.000000
  0
VERTEX
  8
0
 10
-1.000000
 20
0.207107
 30
0.000000
  0
VERTEX
  8
0
 10
-0.707107
 20
0.500000
 30
0.000000
  0
VERTEX
  8
0
 10
0.707107
 20
0.500000
 30
0.000000
  0
VERTEX
  8
0
 10
1.000000
 20
0.207107
 30
0.000000
  0
VERTEX
  8
0
 10
1.000000
 20
-0.207107
 30
0.000000
  0
VERTEX
  8
0
 10
0.707107
 20
-0.500000
 30
0.000000
  0
VERTEX
  8
0
 10
-0.707107
 20
-0.500000
 30
0.000000
  0
SEQEND
  8
0
  0
ENDBLK
  8
0
  0
ENDSEC
  0
SECTION
  2
ENTITIES
  0
LINE
  8
101
 10
1.561000
 20
-0.030689
 30
0.000000
 11
1.524390
 21
-0.067299
 31
0.000000
  0
LINE
  8
101
 10
1.524390
 20
-0.067299
 30
0.000000
 11
-0.024390
 21
-0.067299
 31
0.000000
  0
LINE
  8
101
 10
-0.024390
 20
-0.067299
 30
0.000000
 11
-0.061000
 21
-0.030689
 31
0.000000
  0
LINE
  8
101
 10
-0.061000
 20
-0.030689
 30
0.000000
 11
-0.061000
 21
1.530689
 31
0.000000
  0
LINE
  8
101
 10
-0.061000
 20
1.530689
 30
0.000000
 11
-0.024390
 21
1.567299
 31
0.000000
  0
LINE
  8
101
 10
-0.024390
 20
1.567299
 30
0.000000
 11
1.524390
 21
1.567299
 31
0.000000
  0
LINE
  8
101
 10
1.524390
 20
1.567299
 30
0.000000
 11
1.561000
 21
1.530689
 31
0.000000
  0
LINE
  8
101
 10
1.561000
 20
1.530689
 30
0.000000
 11
1.561000
 21
-0.030689
 31
0.000000
  0
LINE
  8
101
 10
1.091996
 20
0.219110
 30
0.000000
 11
1.091996
 21
0.619110
 31
0.000000
  0
LINE
  8
101
 10
1.091996
 20
0.619110
 30
0.000000
 11
1.091496
 21
0.619610
 31
0.000000
  0
LINE
  8
101
 10
1.091496
 20
0.619610
 30
0.000000
 11
1.088697
 21
0.669965
 31
0.000000
  0
LINE
  8
101
 10
1.088697
 20
0.669965
 30
0.000000
 11
1.102996
 21
0.684260
 31
0.000000
  0
LINE
  8
101
 10
1.102996
 20
0.684260
 30
0.000000
 11
1.102996
 21
0.715736
 31
0.000000
  0
LINE
  8
101
 10
1.102996
 20
0.715736
 30
0.000000
 11
1.080736
 21
0.737996
 31
0.000000
  0
LINE
  8
101
 10
1.080736
 20
0.737996
 30
0.000000
 11
1.049260
 21
0.737996
 31
0.000000
  0
LINE
  8
101
 10
1.049260
 20
0.737996
 30
0.000000
 11
1.027000
 21
0.715736
 31
0.000000
  0
LINE
  8
101
 10
1.027000
 20
0.715736
 30
0.000000
 11
1.027000
 21
0.684260
 31
0.000000
  0
LINE
  8
101
 10
1.027000
 20
0.684260
 30
0.000000
 11
1.044835
 21
0.666429
 31
0.000000
  0
LINE
  8
101
 10
1.044835
 20
0.666429
 30
0.000000
 11
1.046748
 21
0.631996
 31
0.000000
  0
LINE
  8
101
 10
1.046748
 20
0.631996
 30
0.000000
 11
0.790886
 21
0.631996
 31
0.000000
  0
LINE
  8
101
 10
0.790886
 20
0.631996
 30
0.000000
 11
0.743000
 21
0.584110
 31
0.000000
  0
LINE
  8
101
 10
0.743000
 20
0.584110
 30
0.000000
 11
0.743000
 21
0.493248
 31
0.000000
  0
LINE
  8
101
 10
0.743000
 20
0.493248
 30
0.000000
 11
0.743189
 21
0.493059
 31
0.000000
  0
LINE
  8
101
 10
0.743189
 20
0.493059
 30
0.000000
 11
0.743189
 21
0.454909
 31
0.000000
  0
LINE
  8
101
 10
0.743189
 20
0.454909
 30
0.000000
 11
0.749043
 21
0.449055
 31
0.000000
  0
LINE
  8
101
 10
0.749043
 20
0.449055
 30
0.000000
 11
0.780953
 21
0.449055
 31
0.000000
  0
LINE
  8
101
 10
0.780953
 20
0.449055
 30
0.000000
 11
0.786807
 21
0.454909
 31
0.000000
  0
LINE
  8
101
 10
0.786807
 20
0.454909
 30
0.000000
 11
0.786807
 21
0.493059
 31
0.000000
  0
LINE
  8
101
 10
0.786807
 20
0.493059
 30
0.000000
 11
0.786996
 21
0.493248
 31
0.000000
  0
LINE
  8
101
 10
0.786996
 20
0.493248
 30
0.000000
 11
0.786996
 21
0.565886
 31
0.000000
  0
LINE
  8
101
 10
0.786996
 20
0.565886
 30
0.000000
 11
0.809110
 21
0.588000
 31
0.000000
  0
LINE
  8
101
 10
0.809110
 20
0.588000
 30
0.000000
 11
1.048000
 21
0.588000
 31
0.000000
  0
LINE
  8
101
 10
1.048000
 20
0.588000
 30
0.000000
 11
1.048000
 21
0.200886
 31
0.000000
  0
LINE
  8
101
 10
1.048000
 20
0.200886
 30
0.000000
 11
1.120886
 21
0.128000
 31
0.000000
  0
LINE
  8
101
 10
1.120886
 20
0.128000
 30
0.000000
 11
1.309110
 21
0.128000
 31
0.000000
  0
LINE
  8
101
 10
1.309110
 20
0.128000
 30
0.000000
 11
1.361996
 21
0.180886
 31
0.000000
  0
LINE
  8
101
 10
1.361996
 20
0.180886
 30
0.000000
 11
1.361996
 21
0.309110
 31
0.000000
  0
LINE
  8
101
 10
1.361996
 20
0.309110
 30
0.000000
 11
1.309996
 21
0.361110
 31
0.000000
  0
LINE
  8
101
 10
1.309996
 20
0.361110
 30
0.000000
 11
1.309996
 21
0.366563
 31
0.000000
  0
LINE
  8
101
 10
1.309996
 20
0.366563
 30
0.000000
 11
1.286563
 21
0.389996
 31
0.000000
  0
LINE
  8
101
 10
1.286563
 20
0.389996
 30
0.000000
 11
1.193433
 21
0.389996
 31
0.000000
  0
LINE
  8
101
 10
1.193433
 20
0.389996
 30
0.000000
 11
1.170000
 21
0.366563
 31
0.000000
  0
LINE
  8
101
 10
1.170000
 20
0.366563
 30
0.000000
 11
1.170000
 21
0.333433
 31
0.000000
  0
LINE
  8
101
 10
1.170000
 20
0.333433
 30
0.000000
 11
1.193433
 21
0.310000
 31
0.000000
  0
LINE
  8
101
 10
1.193433
 20
0.310000
 30
0.000000
 11
1.286563
 21
0.310000
 31
0.000000
  0
LINE
  8
101
 10
1.286563
 20
0.310000
 30
0.000000
 11
1.292724
 21
0.316165
 31
0.000000
  0
LINE
  8
101
 10
1.292724
 20
0.316165
 30
0.000000
 11
1.318000
 21
0.290886
 31
0.000000
  0
LINE
  8
101
 10
1.318000
 20
0.290886
 30
0.000000
 11
1.318000
 21
0.199110
 31
0.000000
  0
LINE
  8
101
 10
1.318000
 20
0.199110
 30
0.000000
 11
1.290886
 21
0.171996
 31
0.000000
  0
LINE
  8
101
 10
1.290886
 20
0.171996
 30
0.000000
 11
1.139110
 21
0.171996
 31
0.000000
  0
LINE
  8
101
 10
1.139110
 20
0.171996
 30
0.000000
 11
1.091996
 21
0.219110
 31
0.000000
  0
LINE
  8
101
 10
0.635665
 20
0.559043
 30
0.000000
 11
0.635665
 21
0.590953
 31
0.000000
  0
LINE
  8
101
 10
0.635665
 20
0.590953
 30
0.000000
 11
0.629811
 21
0.596807
 31
0.000000
  0
LINE
  8
101
 10
0.629811
 20
0.596807
 30
0.000000
 11
0.534909
 21
0.596807
 31
0.000000
  0
LINE
  8
101
 10
0.534909
 20
0.596807
 30
0.000000
 11
0.529055
 21
0.590953
 31
0.000000
  0
LINE
  8
101
 10
0.529055
 20
0.590953
 30
0.000000
 11
0.529055
 21
0.559043
 31
0.000000
  0
LINE
  8
101
 10
0.529055
 20
0.559043
 30
0.000000
 11
0.534909
 21
0.553189
 31
0.000000
  0
LINE
  8
101
 10
0.534909
 20
0.553189
 30
0.000000
 11
0.629811
 21
0.553189
 31
0.000000
  0
LINE
  8
101
 10
0.629811
 20
0.553189
 30
0.000000
 11
0.635665
 21
0.559043
 31
0.000000
  0
LINE
  8
101
 10
0.430941
 20
0.559043
 30
0.000000
 11
0.430941
 21
0.590953
 31
0.000000
  0
LINE
  8
101
 10
0.430941
 20
0.590953
 30
0.000000
 11
0.425087
 21
0.596807
 31
0.000000
  0
LINE
  8
101
 10
0.425087
 20
0.596807
 30
0.000000
 11
0.389299
 21
0.596807
 31
0.000000
  0
LINE
  8
101
 10
0.389299
 20
0.596807
 30
0.000000
 11
0.389110
 21
0.596996
 31
0.000000
  0
LINE
  8
101
 10
0.389110
 20
0.596996
 30
0.000000
 11
0.284110
 21
0.596996
 31
0.000000
  0
LINE
  8
101
 10
0.284110
 20
0.596996
 30
0.000000
 11
0.259110
 21
0.621996
 31
0.000000
  0
LINE
  8
101
 10
0.259110
 20
0.621996
 30
0.000000
 11
0.258909
 21
0.621996
 31
0.000000
  0
LINE
  8
101
 10
0.258909
 20
0.621996
 30
0.000000
 11
0.247083
 21
0.633461
 31
0.000000
  0
LINE
  8
101
 10
0.247083
 20
0.633461
 30
0.000000
 11
0.247083
 21
0.672724
 31
0.000000
  0
LINE
  8
101
 10
0.247083
 20
0.672724
 30
0.000000
 11
0.241228
 21
0.678579
 31
0.000000
  0
LINE
  8
101
 10
0.241228
 20
0.678579
 30
0.000000
 11
0.118768
 21
0.678579
 31
0.000000
  0
LINE
  8
101
 10
0.118768
 20
0.678579
 30
0.000000
 11
0.112913
 21
0.672724
 31
0.000000
  0
LINE
  8
101
 10
0.112913
 20
0.672724
 30
0.000000
 11
0.112913
 21
0.605382
 31
0.000000
  0
LINE
  8
101
 10
0.112913
 20
0.605382
 30
0.000000
 11
0.118768
 21
0.599528
 31
0.000000
  0
LINE
  8
101
 10
0.118768
 20
0.599528
 30
0.000000
 11
0.218882
 21
0.599528
 31
0.000000
  0
LINE
  8
101
 10
0.218882
 20
0.599528
 30
0.000000
 11
0.234520
 21
0.584370
 31
0.000000
  0
LINE
  8
101
 10
0.234520
 20
0.584370
 30
0.000000
 11
0.253000
 21
0.565886
 31
0.000000
  0
LINE
  8
101
 10
0.253000
 20
0.565886
 30
0.000000
 11
0.265886
 21
0.553000
 31
0.000000
  0
LINE
  8
101
 10
0.265886
 20
0.553000
 30
0.000000
 11
0.389110
 21
0.553000
 31
0.000000
  0
LINE
  8
101
 10
0.389110
 20
0.553000
 30
0.000000
 11
0.389299
 21
0.553189
 31
0.000000
  0
LINE
  8
101
 10
0.389299
 20
0.553189
 30
0.000000
 11
0.425087
 21
0.553189
 31
0.000000
  0
LINE
  8
101
 10
0.425087
 20
0.553189
 30
0.000000
 11
0.430941
 21
0.559043
 31
0.000000
  0
LINE
  8
101
 10
0.635665
 20
0.609043
 30
0.000000
 11
0.635665
 21
0.640953
 31
0.000000
  0
LINE
  8
101
 10
0.635665
 20
0.640953
 30
0.000000
 11
0.629811
 21
0.646807
 31
0.000000
  0
LINE
  8
101
 10
0.629811
 20
0.646807
 30
0.000000
 11
0.534909
 21
0.646807
 31
0.000000
  0
LINE
  8
101
 10
0.534909
 20
0.646807
 30
0.000000
 11
0.529055
 21
0.640953
 31
0.000000
  0
LINE
  8
101
 10
0.529055
 20
0.640953
 30
0.000000
 11
0.529055
 21
0.609043
 31
0.000000
  0
LINE
  8
101
 10
0.529055
 20
0.609043
 30
0.000000
 11
0.534909
 21
0.603189
 31
0.000000
  0
LINE
  8
101
 10
0.534909
 20
0.603189
 30
0.000000
 11
0.629811
 21
0.603189
 31
0.000000
  0
LINE
  8
101
 10
0.629811
 20
0.603189
 30
0.000000
 11
0.635665
 21
0.609043
 31
0.000000
  0
LINE
  8
101
 10
0.635665
 20
0.509043
 30
0.000000
 11
0.635665
 21
0.540953
 31
0.000000
  0
LINE
  8
101
 10
0.635665
 20
0.540953
 30
0.000000
 11
0.629811
 21
0.546807
 31
0.000000
  0
LINE
  8
101
 10
0.629811
 20
0.546807
 30
0.000000
 11
0.534909
 21
0.546807
 31
0.000000
  0
LINE
  8
101
 10
0.534909
 20
0.546807
 30
0.000000
 11
0.529055
 21
0.540953
 31
0.000000
  0
LINE
  8
101
 10
0.529055
 20
0.540953
 30
0.000000
 11
0.529055
 21
0.509043
 31
0.000000
  0
LINE
  8
101
 10
0.529055
 20
0.509043
 30
0.000000
 11
0.534909
 21
0.503189
 31
0.000000
  0
LINE
  8
101
 10
0.534909
 20
0.503189
 30
0.000000
 11
0.629811
 21
0.503189
 31
0.000000
  0
LINE
  8
101
 10
0.629811
 20
0.503189
 30
0.000000
 11
0.635665
 21
0.509043
 31
0.000000
  0
LINE
  8
101
 10
0.635665
 20
0.459043
 30
0.000000
 11
0.635665
 21
0.490953
 31
0.000000
  0
LINE
  8
101
 10
0.635665
 20
0.490953
 30
0.000000
 11
0.629811
 21
0.496807
 31
0.000000
  0
LINE
  8
101
 10
0.629811
 20
0.496807
 30
0.000000
 11
0.534909
 21
0.496807
 31
0.000000
  0
LINE
  8
101
 10
0.534909
 20
0.496807
 30
0.000000
 11
0.529055
 21
0.490953
 31
0.000000
  0
LINE
  8
101
 10
0.529055
 20
0.490953
 30
0.000000
 11
0.529055
 21
0.459043
 31
0.000000
  0
LINE
  8
101
 10
0.529055
 20
0.459043
 30
0.000000
 11
0.534909
 21
0.453189
 31
0.000000
  0
LINE
  8
101
 10
0.534909
 20
0.453189
 30
0.000000
 11
0.629811
 21
0.453189
 31
0.000000
  0
LINE
  8
101
 10
0.629811
 20
0.453189
 30
0.000000
 11
0.635665
 21
0.459043
 31
0.000000
  0
LINE
  8
101
 10
0.430941
 20
0.459043
 30
0.000000
 11
0.430941
 21
0.490953
 31
0.000000
  0
LINE
  8
101
 10
0.430941
 20
0.490953
 30
0.000000
 11
0.425087
 21
0.496807
 31
0.000000
  0
LINE
  8
101
 10
0.425087
 20
0.496807
 30
0.000000
 11
0.386937
 21
0.496807
 31
0.000000
  0
LINE
  8
101
 10
0.386937
 20
0.496807
 30
0.000000
 11
0.386748
 21
0.496996
 31
0.000000
  0
LINE
  8
101
 10
0.386748
 20
0.496996
 30
0.000000
 11
0.285886
 21
0.496996
 31
0.000000
  0
LINE
  8
101
 10
0.285886
 20
0.496996
 30
0.000000
 11
0.187469
 21
0.398579
 31
0.000000
  0
LINE
  8
101
 10
0.187469
 20
0.398579
 30
0.000000
 11
0.118768
 21
0.398579
 31
0.000000
  0
LINE
  8
101
 10
0.118768
 20
0.398579
 30
0.000000
 11
0.112913
 21
0.392724
 31
0.000000
  0
LINE
  8
101
 10
0.112913
 20
0.392724
 30
0.000000
 11
0.112913
 21
0.325382
 31
0.000000
  0
LINE
  8
101
 10
0.112913
 20
0.325382
 30
0.000000
 11
0.118768
 21
0.319528
 31
0.000000
  0
LINE
  8
101
 10
0.118768
 20
0.319528
 30
0.000000
 11
0.241228
 21
0.319528
 31
0.000000
  0
LINE
  8
101
 10
0.241228
 20
0.319528
 30
0.000000
 11
0.247083
 21
0.325382
 31
0.000000
  0
LINE
  8
101
 10
0.247083
 20
0.325382
 30
0.000000
 11
0.247083
 21
0.392724
 31
0.000000
  0
LINE
  8
101
 10
0.247083
 20
0.392724
 30
0.000000
 11
0.245457
 21
0.394346
 31
0.000000
  0
LINE
  8
101
 10
0.245457
 20
0.394346
 30
0.000000
 11
0.304110
 21
0.453000
 31
0.000000
  0
LINE
  8
101
 10
0.304110
 20
0.453000
 30
0.000000
 11
0.386748
 21
0.453000
 31
0.000000
  0
LINE
  8
101
 10
0.386748
 20
0.453000
 30
0.000000
 11
0.386937
 21
0.453189
 31
0.000000
  0
LINE
  8
101
 10
0.386937
 20
0.453189
 30
0.000000
 11
0.425087
 21
0.453189
 31
0.000000
  0
LINE
  8
101
 10
0.425087
 20
0.453189
 30
0.000000
 11
0.430941
 21
0.459043
 31
0.000000
  0
LINE
  8
101
 10
0.430941
 20
0.509043
 30
0.000000
 11
0.430941
 21
0.540953
 31
0.000000
  0
LINE
  8
101
 10
0.430941
 20
0.540953
 30
0.000000
 11
0.425087
 21
0.546807
 31
0.000000
  0
LINE
  8
101
 10
0.425087
 20
0.546807
 30
0.000000
 11
0.399299
 21
0.546807
 31
0.000000
  0
LINE
  8
101
 10
0.399299
 20
0.546807
 30
0.000000
 11
0.399110
 21
0.546996
 31
0.000000
  0
LINE
  8
101
 10
0.399110
 20
0.546996
 30
0.000000
 11
0.247083
 21
0.546996
 31
0.000000
  0
LINE
  8
101
 10
0.247083
 20
0.546996
 30
0.000000
 11
0.247083
 21
0.554614
 31
0.000000
  0
LINE
  8
101
 10
0.247083
 20
0.554614
 30
0.000000
 11
0.241228
 21
0.560469
 31
0.000000
  0
LINE
  8
101
 10
0.241228
 20
0.560469
 30
0.000000
 11
0.118768
 21
0.560469
 31
0.000000
  0
LINE
  8
101
 10
0.118768
 20
0.560469
 30
0.000000
 11
0.112913
 21
0.554614
 31
0.000000
  0
LINE
  8
101
 10
0.112913
 20
0.554614
 30
0.000000
 11
0.112913
 21
0.487272
 31
0.000000
  0
LINE
  8
101
 10
0.112913
 20
0.487272
 30
0.000000
 11
0.118768
 21
0.481417
 31
0.000000
  0
LINE
  8
101
 10
0.118768
 20
0.481417
 30
0.000000
 11
0.241228
 21
0.481417
 31
0.000000
  0
LINE
  8
101
 10
0.241228
 20
0.481417
 30
0.000000
 11
0.247083
 21
0.487272
 31
0.000000
  0
LINE
  8
101
 10
0.247083
 20
0.487272
 30
0.000000
 11
0.247083
 21
0.503000
 31
0.000000
  0
LINE
  8
101
 10
0.247083
 20
0.503000
 30
0.000000
 11
0.399110
 21
0.503000
 31
0.000000
  0
LINE
  8
101
 10
0.399110
 20
0.503000
 30
0.000000
 11
0.399299
 21
0.503189
 31
0.000000
  0
LINE
  8
101
 10
0.399299
 20
0.503189
 30
0.000000
 11
0.425087
 21
0.503189
 31
0.000000
  0
LINE
  8
101
 10
0.425087
 20
0.503189
 30
0.000000
 11
0.430941
 21
0.509043
 31
0.000000
  0
LINE
  8
101
 10
0.635665
 20
0.409043
 30
0.000000
 11
0.635665
 21
0.440953
 31
0.000000
  0
LINE
  8
101
 10
0.635665
 20
0.440953
 30
0.000000
 11
0.629811
 21
0.446807
 31
0.000000
  0
LINE
  8
101
 10
0.629811
 20
0.446807
 30
0.000000
 11
0.596299
 21
0.446807
 31
0.000000
  0
LINE
  8
101
 10
0.596299
 20
0.446807
 30
0.000000
 11
0.596110
 21
0.446996
 31
0.000000
  0
LINE
  8
101
 10
0.596110
 20
0.446996
 30
0.000000
 11
0.512886
 21
0.446996
 31
0.000000
  0
LINE
  8
101
 10
0.512886
 20
0.446996
 30
0.000000
 11
0.483000
 21
0.417110
 31
0.000000
  0
LINE
  8
101
 10
0.483000
 20
0.417110
 30
0.000000
 11
0.483000
 21
0.332886
 31
0.000000
  0
LINE
  8
101
 10
0.483000
 20
0.332886
 30
0.000000
 11
0.513886
 21
0.302000
 31
0.000000
  0
LINE
  8
101
 10
0.513886
 20
0.302000
 30
0.000000
 11
0.571886
 21
0.302000
 31
0.000000
  0
LINE
  8
101
 10
0.571886
 20
0.302000
 30
0.000000
 11
0.690886
 21
0.183000
 31
0.000000
  0
LINE
  8
101
 10
0.690886
 20
0.183000
 30
0.000000
 11
0.804110
 21
0.183000
 31
0.000000
  0
LINE
  8
101
 10
0.804110
 20
0.183000
 30
0.000000
 11
0.836996
 21
0.215886
 31
0.000000
  0
LINE
  8
101
 10
0.836996
 20
0.215886
 30
0.000000
 11
0.836996
 21
0.306748
 31
0.000000
  0
LINE
  8
101
 10
0.836996
 20
0.306748
 30
0.000000
 11
0.836807
 21
0.306933
 31
0.000000
  0
LINE
  8
101
 10
0.836807
 20
0.306933
 30
0.000000
 11
0.836807
 21
0.345087
 31
0.000000
  0
LINE
  8
101
 10
0.836807
 20
0.345087
 30
0.000000
 11
0.830953
 21
0.350941
 31
0.000000
  0
LINE
  8
101
 10
0.830953
 20
0.350941
 30
0.000000
 11
0.799043
 21
0.350941
 31
0.000000
  0
LINE
  8
101
 10
0.799043
 20
0.350941
 30
0.000000
 11
0.793189
 21
0.345087
 31
0.000000
  0
LINE
  8
101
 10
0.793189
 20
0.345087
 30
0.000000
 11
0.793189
 21
0.306933
 31
0.000000
  0
LINE
  8
101
 10
0.793189
 20
0.306933
 30
0.000000
 11
0.793000
 21
0.306748
 31
0.000000
  0
LINE
  8
101
 10
0.793000
 20
0.306748
 30
0.000000
 11
0.793000
 21
0.234110
 31
0.000000
  0
LINE
  8
101
 10
0.793000
 20
0.234110
 30
0.000000
 11
0.785886
 21
0.226996
 31
0.000000
  0
LINE
  8
101
 10
0.785886
 20
0.226996
 30
0.000000
 11
0.709110
 21
0.226996
 31
0.000000
  0
LINE
  8
101
 10
0.709110
 20
0.226996
 30
0.000000
 11
0.590110
 21
0.345996
 31
0.000000
  0
LINE
  8
101
 10
0.590110
 20
0.345996
 30
0.000000
 11
0.532110
 21
0.345996
 31
0.000000
  0
LINE
  8
101
 10
0.532110
 20
0.345996
 30
0.000000
 11
0.526996
 21
0.351110
 31
0.000000
  0
LINE
  8
101
 10
0.526996
 20
0.351110
 30
0.000000
 11
0.526996
 21
0.398886
 31
0.000000
  0
LINE
  8
101
 10
0.526996
 20
0.398886
 30
0.000000
 11
0.531110
 21
0.403000
 31
0.000000
  0
LINE
  8
101
 10
0.531110
 20
0.403000
 30
0.000000
 11
0.596110
 21
0.403000
 31
0.000000
  0
LINE
  8
101
 10
0.596110
 20
0.403000
 30
0.000000
 11
0.596299
 21
0.403189
 31
0.000000
  0
LINE
  8
101
 10
0.596299
 20
0.403189
 30
0.000000
 11
0.629811
 21
0.403189
 31
0.000000
  0
LINE
  8
101
 10
0.629811
 20
0.403189
 30
0.000000
 11
0.635665
 21
0.409043
 31
0.000000
  0
LINE
  8
101
 10
0.430941
 20
0.359043
 30
0.000000
 11
0.430941
 21
0.390953
 31
0.000000
  0
LINE
  8
101
 10
0.430941
 20
0.390953
 30
0.000000
 11
0.425087
 21
0.396807
 31
0.000000
  0
LINE
  8
101
 10
0.425087
 20
0.396807
 30
0.000000
 11
0.386937
 21
0.396807
 31
0.000000
  0
LINE
  8
101
 10
0.386937
 20
0.396807
 30
0.000000
 11
0.386748
 21
0.396996
 31
0.000000
  0
LINE
  8
101
 10
0.386748
 20
0.396996
 30
0.000000
 11
0.368524
 21
0.396996
 31
0.000000
  0
LINE
  8
101
 10
0.368524
 20
0.396996
 30
0.000000
 11
0.368335
 21
0.396807
 31
0.000000
  0
LINE
  8
101
 10
0.368335
 20
0.396807
 30
0.000000
 11
0.330185
 21
0.396807
 31
0.000000
  0
LINE
  8
101
 10
0.330185
 20
0.396807
 30
0.000000
 11
0.324331
 21
0.390953
 31
0.000000
  0
LINE
  8
101
 10
0.324331
 20
0.390953
 30
0.000000
 11
0.324331
 21
0.359043
 31
0.000000
  0
LINE
  8
101
 10
0.324331
 20
0.359043
 30
0.000000
 11
0.330185
 21
0.353189
 31
0.000000
  0
LINE
  8
101
 10
0.330185
 20
0.353189
 30
0.000000
 11
0.358000
 21
0.353189
 31
0.000000
  0
LINE
  8
101
 10
0.358000
 20
0.353189
 30
0.000000
 11
0.358000
 21
0.295886
 31
0.000000
  0
LINE
  8
101
 10
0.358000
 20
0.295886
 30
0.000000
 11
0.383760
 21
0.270126
 31
0.000000
  0
LINE
  8
101
 10
0.383760
 20
0.270126
 30
0.000000
 11
0.378543
 21
0.264913
 31
0.000000
  0
LINE
  8
101
 10
0.378543
 20
0.264913
 30
0.000000
 11
0.378543
 21
0.171783
 31
0.000000
  0
LINE
  8
101
 10
0.378543
 20
0.171783
 30
0.000000
 11
0.401976
 21
0.148350
 31
0.000000
  0
LINE
  8
101
 10
0.401976
 20
0.148350
 30
0.000000
 11
0.435106
 21
0.148350
 31
0.000000
  0
LINE
  8
101
 10
0.435106
 20
0.148350
 30
0.000000
 11
0.458539
 21
0.171783
 31
0.000000
  0
LINE
  8
101
 10
0.458539
 20
0.171783
 30
0.000000
 11
0.458539
 21
0.264913
 31
0.000000
  0
LINE
  8
101
 10
0.458539
 20
0.264913
 30
0.000000
 11
0.435106
 21
0.288346
 31
0.000000
  0
LINE
  8
101
 10
0.435106
 20
0.288346
 30
0.000000
 11
0.427760
 21
0.288346
 31
0.000000
  0
LINE
  8
101
 10
0.427760
 20
0.288346
 30
0.000000
 11
0.401996
 21
0.314110
 31
0.000000
  0
LINE
  8
101
 10
0.401996
 20
0.314110
 30
0.000000
 11
0.401996
 21
0.353189
 31
0.000000
  0
LINE
  8
101
 10
0.401996
 20
0.353189
 30
0.000000
 11
0.425087
 21
0.353189
 31
0.000000
  0
LINE
  8
101
 10
0.425087
 20
0.353189
 30
0.000000
 11
0.430941
 21
0.359043
 31
0.000000
  0
LINE
  8
101
 10
0.720004
 20
0.860870
 30
0.000000
 11
0.720004
 21
0.955157
 31
0.000000
  0
LINE
  8
101
 10
0.720004
 20
0.955157
 30
0.000000
 11
0.714150
 21
0.961012
 31
0.000000
  0
LINE
  8
101
 10
0.714150
 20
0.961012
 30
0.000000
 11
0.663862
 21
0.961012
 31
0.000000
  0
LINE
  8
101
 10
0.663862
 20
0.961012
 30
0.000000
 11
0.658008
 21
0.955157
 31
0.000000
  0
LINE
  8
101
 10
0.658008
 20
0.955157
 30
0.000000
 11
0.658008
 21
0.860870
 31
0.000000
  0
LINE
  8
101
 10
0.658008
 20
0.860870
 30
0.000000
 11
0.663000
 21
0.855878
 31
0.000000
  0
LINE
  8
101
 10
0.663000
 20
0.855878
 30
0.000000
 11
0.663000
 21
0.805886
 31
0.000000
  0
LINE
  8
101
 10
0.663000
 20
0.805886
 30
0.000000
 11
0.675886
 21
0.793000
 31
0.000000
  0
LINE
  8
101
 10
0.675886
 20
0.793000
 30
0.000000
 11
0.682913
 21
0.793000
 31
0.000000
  0
LINE
  8
101
 10
0.682913
 20
0.793000
 30
0.000000
 11
0.682913
 21
0.765382
 31
0.000000
  0
LINE
  8
101
 10
0.682913
 20
0.765382
 30
0.000000
 11
0.688768
 21
0.759528
 31
0.000000
  0
LINE
  8
101
 10
0.688768
 20
0.759528
 30
0.000000
 11
0.811228
 21
0.759528
 31
0.000000
  0
LINE
  8
101
 10
0.811228
 20
0.759528
 30
0.000000
 11
0.817083
 21
0.765382
 31
0.000000
  0
LINE
  8
101
 10
0.817083
 20
0.765382
 30
0.000000
 11
0.817083
 21
0.773799
 31
0.000000
  0
LINE
  8
101
 10
0.817083
 20
0.773799
 30
0.000000
 11
0.836953
 21
0.773799
 31
0.000000
  0
LINE
  8
101
 10
0.836953
 20
0.773799
 30
0.000000
 11
0.836953
 21
0.746992
 31
0.000000
  0
LINE
  8
101
 10
0.836953
 20
0.746992
 30
0.000000
 11
0.842807
 21
0.741138
 31
0.000000
  0
LINE
  8
101
 10
0.842807
 20
0.741138
 30
0.000000
 11
0.907094
 21
0.741138
 31
0.000000
  0
LINE
  8
101
 10
0.907094
 20
0.741138
 30
0.000000
 11
0.912949
 21
0.746992
 31
0.000000
  0
LINE
  8
101
 10
0.912949
 20
0.746992
 30
0.000000
 11
0.912949
 21
0.811280
 31
0.000000
  0
LINE
  8
101
 10
0.912949
 20
0.811280
 30
0.000000
 11
0.907094
 21
0.817134
 31
0.000000
  0
LINE
  8
101
 10
0.907094
 20
0.817134
 30
0.000000
 11
0.868063
 21
0.817134
 31
0.000000
  0
LINE
  8
101
 10
0.868063
 20
0.817134
 30
0.000000
 11
0.867402
 21
0.817795
 31
0.000000
  0
LINE
  8
101
 10
0.867402
 20
0.817795
 30
0.000000
 11
0.817083
 21
0.817795
 31
0.000000
  0
LINE
  8
101
 10
0.817083
 20
0.817795
 30
0.000000
 11
0.817083
 21
0.832724
 31
0.000000
  0
LINE
  8
101
 10
0.817083
 20
0.832724
 30
0.000000
 11
0.811228
 21
0.838579
 31
0.000000
  0
LINE
  8
101
 10
0.811228
 20
0.838579
 30
0.000000
 11
0.706996
 21
0.838579
 31
0.000000
  0
LINE
  8
101
 10
0.706996
 20
0.838579
 30
0.000000
 11
0.706996
 21
0.855016
 31
0.000000
  0
LINE
  8
101
 10
0.706996
 20
0.855016
 30
0.000000
 11
0.714150
 21
0.855016
 31
0.000000
  0
LINE
  8
101
 10
0.714150
 20
0.855016
 30
0.000000
 11
0.720004
 21
0.860870
 31
0.000000
  0
LINE
  8
101
 10
0.811004
 20
0.860854
 30
0.000000
 11
0.811004
 21
0.955142
 31
0.000000
  0
LINE
  8
101
 10
0.811004
 20
0.955142
 30
0.000000
 11
0.805150
 21
0.960996
 31
0.000000
  0
LINE
  8
101
 10
0.805150
 20
0.960996
 30
0.000000
 11
0.754862
 21
0.960996
 31
0.000000
  0
LINE
  8
101
 10
0.754862
 20
0.960996
 30
0.000000
 11
0.749008
 21
0.955142
 31
0.000000
  0
LINE
  8
101
 10
0.749008
 20
0.955142
 30
0.000000
 11
0.749008
 21
0.860854
 31
0.000000
  0
LINE
  8
101
 10
0.749008
 20
0.860854
 30
0.000000
 11
0.754862
 21
0.855000
 31
0.000000
  0
LINE
  8
101
 10
0.754862
 20
0.855000
 30
0.000000
 11
0.805150
 21
0.855000
 31
0.000000
  0
LINE
  8
101
 10
0.805150
 20
0.855000
 30
0.000000
 11
0.811004
 21
0.860854
 31
0.000000
  0
LINE
  8
101
 10
0.335106
 20
0.288346
 30
0.000000
 11
0.311996
 21
0.288346
 31
0.000000
  0
LINE
  8
101
 10
0.311996
 20
0.288346
 30
0.000000
 11
0.311996
 21
0.385886
 31
0.000000
  0
LINE
  8
101
 10
0.311996
 20
0.385886
 30
0.000000
 11
0.329110
 21
0.403000
 31
0.000000
  0
LINE
  8
101
 10
0.329110
 20
0.403000
 30
0.000000
 11
0.386748
 21
0.403000
 31
0.000000
  0
LINE
  8
101
 10
0.386748
 20
0.403000
 30
0.000000
 11
0.386937
 21
0.403189
 31
0.000000
  0
LINE
  8
101
 10
0.386937
 20
0.403189
 30
0.000000
 11
0.425087
 21
0.403189
 31
0.000000
  0
LINE
  8
101
 10
0.425087
 20
0.403189
 30
0.000000
 11
0.430941
 21
0.409043
 31
0.000000
  0
LINE
  8
101
 10
0.430941
 20
0.409043
 30
0.000000
 11
0.430941
 21
0.440953
 31
0.000000
  0
LINE
  8
101
 10
0.430941
 20
0.440953
 30
0.000000
 11
0.425087
 21
0.446807
 31
0.000000
  0
LINE
  8
101
 10
0.425087
 20
0.446807
 30
0.000000
 11
0.386937
 21
0.446807
 31
0.000000
  0
LINE
  8
101
 10
0.386937
 20
0.446807
 30
0.000000
 11
0.386748
 21
0.446996
 31
0.000000
  0
LINE
  8
101
 10
0.386748
 20
0.446996
 30
0.000000
 11
0.310886
 21
0.446996
 31
0.000000
  0
LINE
  8
101
 10
0.310886
 20
0.446996
 30
0.000000
 11
0.268000
 21
0.404110
 31
0.000000
  0
LINE
  8
101
 10
0.268000
 20
0.404110
 30
0.000000
 11
0.268000
 21
0.260886
 31
0.000000
  0
LINE
  8
101
 10
0.268000
 20
0.260886
 30
0.000000
 11
0.272248
 21
0.256642
 31
0.000000
  0
LINE
  8
101
 10
0.272248
 20
0.256642
 30
0.000000
 11
0.278543
 21
0.245244
 31
0.000000
  0
LINE
  8
101
 10
0.278543
 20
0.245244
 30
0.000000
 11
0.278543
 21
0.171783
 31
0.000000
  0
LINE
  8
101
 10
0.278543
 20
0.171783
 30
0.000000
 11
0.301976
 21
0.148350
 31
0.000000
  0
LINE
  8
101
 10
0.301976
 20
0.148350
 30
0.000000
 11
0.335106
 21
0.148350
 31
0.000000
  0
LINE
  8
101
 10
0.335106
 20
0.148350
 30
0.000000
 11
0.358539
 21
0.171783
 31
0.000000
  0
LINE
  8
101
 10
0.358539
 20
0.171783
 30
0.000000
 11
0.358539
 21
0.264913
 31
0.000000
  0
LINE
  8
101
 10
0.358539
 20
0.264913
 30
0.000000
 11
0.335106
 21
0.288346
 31
0.000000
  0
LINE
  8
101
 10
1.378433
 20
1.000000
 30
0.000000
 11
1.411563
 21
1.000000
 31
0.000000
  0
LINE
  8
101
 10
1.411563
 20
1.000000
 30
0.000000
 11
1.413000
 21
1.001441
 31
0.000000
  0
LINE
  8
101
 10
1.413000
 20
1.001441
 30
0.000000
 11
1.413000
 21
0.174110
 31
0.000000
  0
LINE
  8
101
 10
1.413000
 20
0.174110
 30
0.000000
 11
1.350886
 21
0.111996
 31
0.000000
  0
LINE
  8
101
 10
1.350886
 20
0.111996
 30
0.000000
 11
1.102996
 21
0.111996
 31
0.000000
  0
LINE
  8
101
 10
1.102996
 20
0.111996
 30
0.000000
 11
1.102996
 21
0.115736
 31
0.000000
  0
LINE
  8
101
 10
1.102996
 20
0.115736
 30
0.000000
 11
1.080736
 21
0.137996
 31
0.000000
  0
LINE
  8
101
 10
1.080736
 20
0.137996
 30
0.000000
 11
1.058110
 21
0.137996
 31
0.000000
  0
LINE
  8
101
 10
1.058110
 20
0.137996
 30
0.000000
 11
1.031996
 21
0.164110
 31
0.000000
  0
LINE
  8
101
 10
1.031996
 20
0.164110
 30
0.000000
 11
1.031996
 21
0.334110
 31
0.000000
  0
LINE
  8
101
 10
1.031996
 20
0.334110
 30
0.000000
 11
0.936996
 21
0.429110
 31
0.000000
  0
LINE
  8
101
 10
0.936996
 20
0.429110
 30
0.000000
 11
0.936996
 21
0.511472
 31
0.000000
  0
LINE
  8
101
 10
0.936996
 20
0.511472
 30
0.000000
 11
0.936807
 21
0.511657
 31
0.000000
  0
LINE
  8
101
 10
0.936807
 20
0.511657
 30
0.000000
 11
0.936807
 21
0.549811
 31
0.000000
  0
LINE
  8
101
 10
0.936807
 20
0.549811
 30
0.000000
 11
0.930953
 21
0.555665
 31
0.000000
  0
LINE
  8
101
 10
0.930953
 20
0.555665
 30
0.000000
 11
0.899043
 21
0.555665
 31
0.000000
  0
LINE
  8
101
 10
0.899043
 20
0.555665
 30
0.000000
 11
0.893189
 21
0.549811
 31
0.000000
  0
LINE
  8
101
 10
0.893189
 20
0.549811
 30
0.000000
 11
0.893189
 21
0.511657
 31
0.000000
  0
LINE
  8
101
 10
0.893189
 20
0.511657
 30
0.000000
 11
0.893000
 21
0.511472
 31
0.000000
  0
LINE
  8
101
 10
0.893000
 20
0.511472
 30
0.000000
 11
0.893000
 21
0.410886
 31
0.000000
  0
LINE
  8
101
 10
0.893000
 20
0.410886
 30
0.000000
 11
0.988000
 21
0.315886
 31
0.000000
  0
LINE
  8
101
 10
0.988000
 20
0.315886
 30
0.000000
 11
0.988000
 21
0.145886
 31
0.000000
  0
LINE
  8
101
 10
0.988000
 20
0.145886
 30
0.000000
 11
1.027000
 21
0.106886
 31
0.000000
  0
LINE
  8
101
 10
1.027000
 20
0.106886
 30
0.000000
 11
1.027000
 21
0.084260
 31
0.000000
  0
LINE
  8
101
 10
1.027000
 20
0.084260
 30
0.000000
 11
1.049260
 21
0.062000
 31
0.000000
  0
LINE
  8
101
 10
1.049260
 20
0.062000
 30
0.000000
 11
1.080736
 21
0.062000
 31
0.000000
  0
LINE
  8
101
 10
1.080736
 20
0.062000
 30
0.000000
 11
1.081732
 21
0.063000
 31
0.000000
  0
LINE
  8
101
 10
1.081732
 20
0.063000
 30
0.000000
 11
1.089110
 21
0.063000
 31
0.000000
  0
LINE
  8
101
 10
1.089110
 20
0.063000
 30
0.000000
 11
1.093031
 21
0.066921
 31
0.000000
  0
LINE
  8
101
 10
1.093031
 20
0.066921
 30
0.000000
 11
1.095189
 21
0.068000
 31
0.000000
  0
LINE
  8
101
 10
1.095189
 20
0.068000
 30
0.000000
 11
1.369110
 21
0.068000
 31
0.000000
  0
LINE
  8
101
 10
1.369110
 20
0.068000
 30
0.000000
 11
1.456996
 21
0.155886
 31
0.000000
  0
LINE
  8
101
 10
1.456996
 20
0.155886
 30
0.000000
 11
1.456996
 21
1.019110
 31
0.000000
  0
LINE
  8
101
 10
1.456996
 20
1.019110
 30
0.000000
 11
1.452091
 21
1.024016
 31
0.000000
  0
LINE
  8
101
 10
1.452091
 20
1.024016
 30
0.000000
 11
1.434996
 21
1.049654
 31
0.000000
  0
LINE
  8
101
 10
1.434996
 20
1.049654
 30
0.000000
 11
1.434996
 21
1.116563
 31
0.000000
  0
LINE
  8
101
 10
1.434996
 20
1.116563
 30
0.000000
 11
1.411563
 21
1.139996
 31
0.000000
  0
LINE
  8
101
 10
1.411563
 20
1.139996
 30
0.000000
 11
1.378433
 21
1.139996
 31
0.000000
  0
LINE
  8
101
 10
1.378433
 20
1.139996
 30
0.000000
 11
1.355000
 21
1.116563
 31
0.000000
  0
LINE
  8
101
 10
1.355000
 20
1.116563
 30
0.000000
 11
1.355000
 21
1.023433
 31
0.000000
  0
LINE
  8
101
 10
1.355000
 20
1.023433
 30
0.000000
 11
1.378433
 21
1.000000
 31
0.000000
  0
LINE
  8
101
 10
1.178433
 20
1.000000
 30
0.000000
 11
1.208890
 21
1.000000
 31
0.000000
  0
LINE
  8
101
 10
1.208890
 20
1.000000
 30
0.000000
 11
1.303000
 21
0.905886
 31
0.000000
  0
LINE
  8
101
 10
1.303000
 20
0.905886
 30
0.000000
 11
1.303000
 21
0.704110
 31
0.000000
  0
LINE
  8
101
 10
1.303000
 20
0.704110
 30
0.000000
 11
1.108000
 21
0.509110
 31
0.000000
  0
LINE
  8
101
 10
1.108000
 20
0.509110
 30
0.000000
 11
1.108000
 21
0.310886
 31
0.000000
  0
LINE
  8
101
 10
1.108000
 20
0.310886
 30
0.000000
 11
1.170000
 21
0.248886
 31
0.000000
  0
LINE
  8
101
 10
1.170000
 20
0.248886
 30
0.000000
 11
1.170000
 21
0.233433
 31
0.000000
  0
LINE
  8
101
 10
1.170000
 20
0.233433
 30
0.000000
 11
1.193433
 21
0.210000
 31
0.000000
  0
LINE
  8
101
 10
1.193433
 20
0.210000
 30
0.000000
 11
1.286563
 21
0.210000
 31
0.000000
  0
LINE
  8
101
 10
1.286563
 20
0.210000
 30
0.000000
 11
1.309996
 21
0.233433
 31
0.000000
  0
LINE
  8
101
 10
1.309996
 20
0.233433
 30
0.000000
 11
1.309996
 21
0.266563
 31
0.000000
  0
LINE
  8
101
 10
1.309996
 20
0.266563
 30
0.000000
 11
1.286563
 21
0.289996
 31
0.000000
  0
LINE
  8
101
 10
1.286563
 20
0.289996
 30
0.000000
 11
1.193433
 21
0.289996
 31
0.000000
  0
LINE
  8
101
 10
1.193433
 20
0.289996
 30
0.000000
 11
1.192272
 21
0.288831
 31
0.000000
  0
LINE
  8
101
 10
1.192272
 20
0.288831
 30
0.000000
 11
1.151996
 21
0.329110
 31
0.000000
  0
LINE
  8
101
 10
1.151996
 20
0.329110
 30
0.000000
 11
1.151996
 21
0.490886
 31
0.000000
  0
LINE
  8
101
 10
1.151996
 20
0.490886
 30
0.000000
 11
1.346996
 21
0.685886
 31
0.000000
  0
LINE
  8
101
 10
1.346996
 20
0.685886
 30
0.000000
 11
1.346996
 21
0.924110
 31
0.000000
  0
LINE
  8
101
 10
1.346996
 20
0.924110
 30
0.000000
 11
1.234996
 21
1.036106
 31
0.000000
  0
LINE
  8
101
 10
1.234996
 20
1.036106
 30
0.000000
 11
1.234996
 21
1.116563
 31
0.000000
  0
LINE
  8
101
 10
1.234996
 20
1.116563
 30
0.000000
 11
1.211563
 21
1.139996
 31
0.000000
  0
LINE
  8
101
 10
1.211563
 20
1.139996
 30
0.000000
 11
1.178433
 21
1.139996
 31
0.000000
  0
LINE
  8
101
 10
1.178433
 20
1.139996
 30
0.000000
 11
1.155000
 21
1.116563
 31
0.000000
  0
LINE
  8
101
 10
1.155000
 20
1.116563
 30
0.000000
 11
1.155000
 21
1.023433
 31
0.000000
  0
LINE
  8
101
 10
1.155000
 20
1.023433
 30
0.000000
 11
1.178433
 21
1.000000
 31
0.000000
  0
LINE
  8
101
 10
0.886807
 20
0.454909
 30
0.000000
 11
0.886807
 21
0.549811
 31
0.000000
  0
LINE
  8
101
 10
0.886807
 20
0.549811
 30
0.000000
 11
0.880953
 21
0.555665
 31
0.000000
  0
LINE
  8
101
 10
0.880953
 20
0.555665
 30
0.000000
 11
0.849043
 21
0.555665
 31
0.000000
  0
LINE
  8
101
 10
0.849043
 20
0.555665
 30
0.000000
 11
0.843189
 21
0.549811
 31
0.000000
  0
LINE
  8
101
 10
0.843189
 20
0.549811
 30
0.000000
 11
0.843189
 21
0.454909
 31
0.000000
  0
LINE
  8
101
 10
0.843189
 20
0.454909
 30
0.000000
 11
0.849043
 21
0.449055
 31
0.000000
  0
LINE
  8
101
 10
0.849043
 20
0.449055
 30
0.000000
 11
0.880953
 21
0.449055
 31
0.000000
  0
LINE
  8
101
 10
0.880953
 20
0.449055
 30
0.000000
 11
0.886807
 21
0.454909
 31
0.000000
  0
LINE
  8
101
 10
0.786807
 20
0.250185
 30
0.000000
 11
0.786807
 21
0.288335
 31
0.000000
  0
LINE
  8
101
 10
0.786807
 20
0.288335
 30
0.000000
 11
0.786996
 21
0.288524
 31
0.000000
  0
LINE
  8
101
 10
0.786996
 20
0.288524
 30
0.000000
 11
0.786996
 21
0.339110
 31
0.000000
  0
LINE
  8
101
 10
0.786996
 20
0.339110
 30
0.000000
 11
0.786807
 21
0.339299
 31
0.000000
  0
LINE
  8
101
 10
0.786807
 20
0.339299
 30
0.000000
 11
0.786807
 21
0.345087
 31
0.000000
  0
LINE
  8
101
 10
0.786807
 20
0.345087
 30
0.000000
 11
0.780953
 21
0.350941
 31
0.000000
  0
LINE
  8
101
 10
0.780953
 20
0.350941
 30
0.000000
 11
0.775165
 21
0.350941
 31
0.000000
  0
LINE
  8
101
 10
0.775165
 20
0.350941
 30
0.000000
 11
0.774110
 21
0.351996
 31
0.000000
  0
LINE
  8
101
 10
0.774110
 20
0.351996
 30
0.000000
 11
0.714110
 21
0.351996
 31
0.000000
  0
LINE
  8
101
 10
0.714110
 20
0.351996
 30
0.000000
 11
0.669110
 21
0.396996
 31
0.000000
  0
LINE
  8
101
 10
0.669110
 20
0.396996
 30
0.000000
 11
0.573248
 21
0.396996
 31
0.000000
  0
LINE
  8
101
 10
0.573248
 20
0.396996
 30
0.000000
 11
0.573059
 21
0.396807
 31
0.000000
  0
LINE
  8
101
 10
0.573059
 20
0.396807
 30
0.000000
 11
0.534909
 21
0.396807
 31
0.000000
  0
LINE
  8
101
 10
0.534909
 20
0.396807
 30
0.000000
 11
0.529055
 21
0.390953
 31
0.000000
  0
LINE
  8
101
 10
0.529055
 20
0.390953
 30
0.000000
 11
0.529055
 21
0.359043
 31
0.000000
  0
LINE
  8
101
 10
0.529055
 20
0.359043
 30
0.000000
 11
0.534909
 21
0.353189
 31
0.000000
  0
LINE
  8
101
 10
0.534909
 20
0.353189
 30
0.000000
 11
0.573059
 21
0.353189
 31
0.000000
  0
LINE
  8
101
 10
0.573059
 20
0.353189
 30
0.000000
 11
0.573248
 21
0.353000
 31
0.000000
  0
LINE
  8
101
 10
0.573248
 20
0.353000
 30
0.000000
 11
0.650886
 21
0.353000
 31
0.000000
  0
LINE
  8
101
 10
0.650886
 20
0.353000
 30
0.000000
 11
0.695886
 21
0.308000
 31
0.000000
  0
LINE
  8
101
 10
0.695886
 20
0.308000
 30
0.000000
 11
0.743000
 21
0.308000
 31
0.000000
  0
LINE
  8
101
 10
0.743000
 20
0.308000
 30
0.000000
 11
0.743000
 21
0.288524
 31
0.000000
  0
LINE
  8
101
 10
0.743000
 20
0.288524
 30
0.000000
 11
0.743189
 21
0.288335
 31
0.000000
  0
LINE
  8
101
 10
0.743189
 20
0.288335
 30
0.000000
 11
0.743189
 21
0.250185
 31
0.000000
  0
LINE
  8
101
 10
0.743189
 20
0.250185
 30
0.000000
 11
0.749043
 21
0.244331
 31
0.000000
  0
LINE
  8
101
 10
0.749043
 20
0.244331
 30
0.000000
 11
0.780953
 21
0.244331
 31
0.000000
  0
LINE
  8
101
 10
0.780953
 20
0.244331
 30
0.000000
 11
0.786807
 21
0.250185
 31
0.000000
  0
LINE
  8
101
 10
0.578579
 20
0.938768
 30
0.000000
 11
0.578579
 21
1.061228
 31
0.000000
  0
LINE
  8
101
 10
0.578579
 20
1.061228
 30
0.000000
 11
0.572724
 21
1.067083
 31
0.000000
  0
LINE
  8
101
 10
0.572724
 20
1.067083
 30
0.000000
 11
0.568087
 21
1.067083
 31
0.000000
  0
LINE
  8
101
 10
0.568087
 20
1.067083
 30
0.000000
 11
0.568087
 21
1.131906
 31
0.000000
  0
LINE
  8
101
 10
0.568087
 20
1.131906
 30
0.000000
 11
0.587327
 21
1.151146
 31
0.000000
  0
LINE
  8
101
 10
0.587327
 20
1.151146
 30
0.000000
 11
0.701102
 21
1.151146
 31
0.000000
  0
LINE
  8
101
 10
0.701102
 20
1.151146
 30
0.000000
 11
0.701102
 21
1.147303
 31
0.000000
  0
LINE
  8
101
 10
0.701102
 20
1.147303
 30
0.000000
 11
0.706957
 21
1.141449
 31
0.000000
  0
LINE
  8
101
 10
0.706957
 20
1.141449
 30
0.000000
 11
0.853039
 21
1.141449
 31
0.000000
  0
LINE
  8
101
 10
0.853039
 20
1.141449
 30
0.000000
 11
0.858894
 21
1.147303
 31
0.000000
  0
LINE
  8
101
 10
0.858894
 20
1.147303
 30
0.000000
 11
0.858894
 21
1.157008
 31
0.000000
  0
LINE
  8
101
 10
0.858894
 20
1.157008
 30
0.000000
 11
1.022020
 21
1.157008
 31
0.000000
  0
LINE
  8
101
 10
1.022020
 20
1.157008
 30
0.000000
 11
1.058736
 21
1.120295
 31
0.000000
  0
LINE
  8
101
 10
1.058736
 20
1.120295
 30
0.000000
 11
1.055000
 21
1.116563
 31
0.000000
  0
LINE
  8
101
 10
1.055000
 20
1.116563
 30
0.000000
 11
1.055000
 21
1.023433
 31
0.000000
  0
LINE
  8
101
 10
1.055000
 20
1.023433
 30
0.000000
 11
1.078000
 21
1.000433
 31
0.000000
  0
LINE
  8
101
 10
1.078000
 20
1.000433
 30
0.000000
 11
1.078000
 21
0.925886
 31
0.000000
  0
LINE
  8
101
 10
1.078000
 20
0.925886
 30
0.000000
 11
1.135433
 21
0.868453
 31
0.000000
  0
LINE
  8
101
 10
1.135433
 20
0.868453
 30
0.000000
 11
1.135433
 21
0.841543
 31
0.000000
  0
LINE
  8
101
 10
1.135433
 20
0.841543
 30
0.000000
 11
1.090886
 21
0.796996
 31
0.000000
  0
LINE
  8
101
 10
1.090886
 20
0.796996
 30
0.000000
 11
0.990886
 21
0.796996
 31
0.000000
  0
LINE
  8
101
 10
0.990886
 20
0.796996
 30
0.000000
 11
0.895886
 21
0.701996
 31
0.000000
  0
LINE
  8
101
 10
0.895886
 20
0.701996
 30
0.000000
 11
0.819094
 21
0.701996
 31
0.000000
  0
LINE
  8
101
 10
0.819094
 20
0.701996
 30
0.000000
 11
0.817083
 21
0.702024
 31
0.000000
  0
LINE
  8
101
 10
0.817083
 20
0.702024
 30
0.000000
 11
0.817083
 21
0.714614
 31
0.000000
  0
LINE
  8
101
 10
0.817083
 20
0.714614
 30
0.000000
 11
0.811228
 21
0.720469
 31
0.000000
  0
LINE
  8
101
 10
0.811228
 20
0.720469
 30
0.000000
 11
0.688768
 21
0.720469
 31
0.000000
  0
LINE
  8
101
 10
0.688768
 20
0.720469
 30
0.000000
 11
0.682913
 21
0.714614
 31
0.000000
  0
LINE
  8
101
 10
0.682913
 20
0.714614
 30
0.000000
 11
0.682913
 21
0.696996
 31
0.000000
  0
LINE
  8
101
 10
0.682913
 20
0.696996
 30
0.000000
 11
0.510886
 21
0.696996
 31
0.000000
  0
LINE
  8
101
 10
0.510886
 20
0.696996
 30
0.000000
 11
0.438000
 21
0.624110
 31
0.000000
  0
LINE
  8
101
 10
0.438000
 20
0.624110
 30
0.000000
 11
0.438000
 21
0.302461
 31
0.000000
  0
LINE
  8
101
 10
0.438000
 20
0.302461
 30
0.000000
 11
0.450886
 21
0.289575
 31
0.000000
  0
LINE
  8
101
 10
0.450886
 20
0.289575
 30
0.000000
 11
0.478543
 21
0.261921
 31
0.000000
  0
LINE
  8
101
 10
0.478543
 20
0.261921
 30
0.000000
 11
0.478543
 21
0.171783
 31
0.000000
  0
LINE
  8
101
 10
0.478543
 20
0.171783
 30
0.000000
 11
0.489173
 21
0.161157
 31
0.000000
  0
LINE
  8
101
 10
0.489173
 20
0.161157
 30
0.000000
 11
0.464020
 21
0.136004
 31
0.000000
  0
LINE
  8
101
 10
0.464020
 20
0.136004
 30
0.000000
 11
0.260618
 21
0.136673
 31
0.000000
  0
LINE
  8
101
 10
0.260618
 20
0.136673
 30
0.000000
 11
0.195870
 21
0.201417
 31
0.000000
  0
LINE
  8
101
 10
0.195870
 20
0.201417
 30
0.000000
 11
0.241228
 21
0.201417
 31
0.000000
  0
LINE
  8
101
 10
0.241228
 20
0.201417
 30
0.000000
 11
0.247083
 21
0.207272
 31
0.000000
  0
LINE
  8
101
 10
0.247083
 20
0.207272
 30
0.000000
 11
0.247083
 21
0.274614
 31
0.000000
  0
LINE
  8
101
 10
0.247083
 20
0.274614
 30
0.000000
 11
0.241228
 21
0.280469
 31
0.000000
  0
LINE
  8
101
 10
0.241228
 20
0.280469
 30
0.000000
 11
0.118768
 21
0.280469
 31
0.000000
  0
LINE
  8
101
 10
0.118768
 20
0.280469
 30
0.000000
 11
0.112913
 21
0.274614
 31
0.000000
  0
LINE
  8
101
 10
0.112913
 20
0.274614
 30
0.000000
 11
0.112913
 21
0.207272
 31
0.000000
  0
LINE
  8
101
 10
0.112913
 20
0.207272
 30
0.000000
 11
0.118768
 21
0.201417
 31
0.000000
  0
LINE
  8
101
 10
0.118768
 20
0.201417
 30
0.000000
 11
0.133654
 21
0.201417
 31
0.000000
  0
LINE
  8
101
 10
0.133654
 20
0.201417
 30
0.000000
 11
0.240689
 21
0.094390
 31
0.000000
  0
LINE
  8
101
 10
0.240689
 20
0.094390
 30
0.000000
 11
0.242335
 21
0.092740
 31
0.000000
  0
LINE
  8
101
 10
0.242335
 20
0.092740
 30
0.000000
 11
0.242366
 21
0.092709
 31
0.000000
  0
LINE
  8
101
 10
0.242366
 20
0.092709
 30
0.000000
 11
0.251886
 21
0.092709
 31
0.000000
  0
LINE
  8
101
 10
0.251886
 20
0.092709
 30
0.000000
 11
0.463965
 21
0.092012
 31
0.000000
  0
LINE
  8
101
 10
0.463965
 20
0.092012
 30
0.000000
 11
0.463992
 21
0.091980
 31
0.000000
  0
LINE
  8
101
 10
0.463992
 20
0.091980
 30
0.000000
 11
0.482217
 21
0.091980
 31
0.000000
  0
LINE
  8
101
 10
0.482217
 20
0.091980
 30
0.000000
 11
0.495102
 21
0.104866
 31
0.000000
  0
LINE
  8
101
 10
0.495102
 20
0.104866
 30
0.000000
 11
0.547969
 21
0.157736
 31
0.000000
  0
LINE
  8
101
 10
0.547969
 20
0.157736
 30
0.000000
 11
0.548815
 21
0.158583
 31
0.000000
  0
LINE
  8
101
 10
0.548815
 20
0.158583
 30
0.000000
 11
0.548815
 21
0.162059
 31
0.000000
  0
LINE
  8
101
 10
0.548815
 20
0.162059
 30
0.000000
 11
0.558539
 21
0.171783
 31
0.000000
  0
LINE
  8
101
 10
0.558539
 20
0.171783
 30
0.000000
 11
0.558539
 21
0.264913
 31
0.000000
  0
LINE
  8
101
 10
0.558539
 20
0.264913
 30
0.000000
 11
0.535106
 21
0.288346
 31
0.000000
  0
LINE
  8
101
 10
0.535106
 20
0.288346
 30
0.000000
 11
0.514331
 21
0.288346
 31
0.000000
  0
LINE
  8
101
 10
0.514331
 20
0.288346
 30
0.000000
 11
0.481996
 21
0.320685
 31
0.000000
  0
LINE
  8
101
 10
0.481996
 20
0.320685
 30
0.000000
 11
0.481996
 21
0.605886
 31
0.000000
  0
LINE
  8
101
 10
0.481996
 20
0.605886
 30
0.000000
 11
0.529110
 21
0.653000
 31
0.000000
  0
LINE
  8
101
 10
0.529110
 20
0.653000
 30
0.000000
 11
0.648000
 21
0.653000
 31
0.000000
  0
LINE
  8
101
 10
0.648000
 20
0.653000
 30
0.000000
 11
0.648000
 21
0.430886
 31
0.000000
  0
LINE
  8
101
 10
0.648000
 20
0.430886
 30
0.000000
 11
0.685886
 21
0.393000
 31
0.000000
  0
LINE
  8
101
 10
0.685886
 20
0.393000
 30
0.000000
 11
0.809110
 21
0.393000
 31
0.000000
  0
LINE
  8
101
 10
0.809110
 20
0.393000
 30
0.000000
 11
0.836996
 21
0.420886
 31
0.000000
  0
LINE
  8
101
 10
0.836996
 20
0.420886
 30
0.000000
 11
0.836996
 21
0.511472
 31
0.000000
  0
LINE
  8
101
 10
0.836996
 20
0.511472
 30
0.000000
 11
0.836807
 21
0.511661
 31
0.000000
  0
LINE
  8
101
 10
0.836807
 20
0.511661
 30
0.000000
 11
0.836807
 21
0.549811
 31
0.000000
  0
LINE
  8
101
 10
0.836807
 20
0.549811
 30
0.000000
 11
0.830953
 21
0.555665
 31
0.000000
  0
LINE
  8
101
 10
0.830953
 20
0.555665
 30
0.000000
 11
0.799043
 21
0.555665
 31
0.000000
  0
LINE
  8
101
 10
0.799043
 20
0.555665
 30
0.000000
 11
0.793189
 21
0.549811
 31
0.000000
  0
LINE
  8
101
 10
0.793189
 20
0.549811
 30
0.000000
 11
0.793189
 21
0.511661
 31
0.000000
  0
LINE
  8
101
 10
0.793189
 20
0.511661
 30
0.000000
 11
0.793000
 21
0.511472
 31
0.000000
  0
LINE
  8
101
 10
0.793000
 20
0.511472
 30
0.000000
 11
0.793000
 21
0.439110
 31
0.000000
  0
LINE
  8
101
 10
0.793000
 20
0.439110
 30
0.000000
 11
0.790886
 21
0.436996
 31
0.000000
  0
LINE
  8
101
 10
0.790886
 20
0.436996
 30
0.000000
 11
0.704110
 21
0.436996
 31
0.000000
  0
LINE
  8
101
 10
0.704110
 20
0.436996
 30
0.000000
 11
0.691996
 21
0.449110
 31
0.000000
  0
LINE
  8
101
 10
0.691996
 20
0.449110
 30
0.000000
 11
0.691996
 21
0.641417
 31
0.000000
  0
LINE
  8
101
 10
0.691996
 20
0.641417
 30
0.000000
 11
0.811228
 21
0.641417
 31
0.000000
  0
LINE
  8
101
 10
0.811228
 20
0.641417
 30
0.000000
 11
0.817083
 21
0.647272
 31
0.000000
  0
LINE
  8
101
 10
0.817083
 20
0.647272
 30
0.000000
 11
0.817083
 21
0.658000
 31
0.000000
  0
LINE
  8
101
 10
0.817083
 20
0.658000
 30
0.000000
 11
0.914110
 21
0.658000
 31
0.000000
  0
LINE
  8
101
 10
0.914110
 20
0.658000
 30
0.000000
 11
1.009110
 21
0.753000
 31
0.000000
  0
LINE
  8
101
 10
1.009110
 20
0.753000
 30
0.000000
 11
1.109110
 21
0.753000
 31
0.000000
  0
LINE
  8
101
 10
1.109110
 20
0.753000
 30
0.000000
 11
1.178551
 21
0.822441
 31
0.000000
  0
LINE
  8
101
 10
1.178551
 20
0.822441
 30
0.000000
 11
1.267685
 21
0.822441
 31
0.000000
  0
LINE
  8
101
 10
1.267685
 20
0.822441
 30
0.000000
 11
1.273539
 21
0.828295
 31
0.000000
  0
LINE
  8
101
 10
1.273539
 20
0.828295
 30
0.000000
 11
1.273539
 21
0.891701
 31
0.000000
  0
LINE
  8
101
 10
1.273539
 20
0.891701
 30
0.000000
 11
1.267685
 21
0.897555
 31
0.000000
  0
LINE
  8
101
 10
1.267685
 20
0.897555
 30
0.000000
 11
1.168551
 21
0.897555
 31
0.000000
  0
LINE
  8
101
 10
1.168551
 20
0.897555
 30
0.000000
 11
1.121996
 21
0.944110
 31
0.000000
  0
LINE
  8
101
 10
1.121996
 20
0.944110
 30
0.000000
 11
1.121996
 21
1.010433
 31
0.000000
  0
LINE
  8
101
 10
1.121996
 20
1.010433
 30
0.000000
 11
1.134996
 21
1.023433
 31
0.000000
  0
LINE
  8
101
 10
1.134996
 20
1.023433
 30
0.000000
 11
1.134996
 21
1.116563
 31
0.000000
  0
LINE
  8
101
 10
1.134996
 20
1.116563
 30
0.000000
 11
1.111563
 21
1.139996
 31
0.000000
  0
LINE
  8
101
 10
1.111563
 20
1.139996
 30
0.000000
 11
1.101252
 21
1.139996
 31
0.000000
  0
LINE
  8
101
 10
1.101252
 20
1.139996
 30
0.000000
 11
1.040244
 21
1.201004
 31
0.000000
  0
LINE
  8
101
 10
1.040244
 20
1.201004
 30
0.000000
 11
0.858894
 21
1.201004
 31
0.000000
  0
LINE
  8
101
 10
0.858894
 20
1.201004
 30
0.000000
 11
0.858894
 21
1.210709
 31
0.000000
  0
LINE
  8
101
 10
0.858894
 20
1.210709
 30
0.000000
 11
0.853039
 21
1.216563
 31
0.000000
  0
LINE
  8
101
 10
0.853039
 20
1.216563
 30
0.000000
 11
0.706957
 21
1.216563
 31
0.000000
  0
LINE
  8
101
 10
0.706957
 20
1.216563
 30
0.000000
 11
0.701102
 21
1.210709
 31
0.000000
  0
LINE
  8
101
 10
0.701102
 20
1.210709
 30
0.000000
 11
0.701102
 21
1.195142
 31
0.000000
  0
LINE
  8
101
 10
0.701102
 20
1.195142
 30
0.000000
 11
0.569102
 21
1.195142
 31
0.000000
  0
LINE
  8
101
 10
0.569102
 20
1.195142
 30
0.000000
 11
0.536988
 21
1.163028
 31
0.000000
  0
LINE
  8
101
 10
0.536988
 20
1.163028
 30
0.000000
 11
0.536976
 21
1.163028
 31
0.000000
  0
LINE
  8
101
 10
0.536976
 20
1.163028
 30
0.000000
 11
0.524091
 21
1.150142
 31
0.000000
  0
LINE
  8
101
 10
0.524091
 20
1.150142
 30
0.000000
 11
0.524091
 21
1.067083
 31
0.000000
  0
LINE
  8
101
 10
0.524091
 20
1.067083
 30
0.000000
 11
0.505382
 21
1.067083
 31
0.000000
  0
LINE
  8
101
 10
0.505382
 20
1.067083
 30
0.000000
 11
0.499528
 21
1.061228
 31
0.000000
  0
LINE
  8
101
 10
0.499528
 20
1.061228
 30
0.000000
 11
0.499528
 21
0.938768
 31
0.000000
  0
LINE
  8
101
 10
0.499528
 20
0.938768
 30
0.000000
 11
0.505382
 21
0.932913
 31
0.000000
  0
LINE
  8
101
 10
0.505382
 20
0.932913
 30
0.000000
 11
0.572724
 21
0.932913
 31
0.000000
  0
LINE
  8
101
 10
0.572724
 20
0.932913
 30
0.000000
 11
0.578579
 21
0.938768
 31
0.000000
  0
LINE
  8
101
 10
0.250469
 20
1.061228
 30
0.000000
 11
0.244614
 21
1.067083
 31
0.000000
  0
LINE
  8
101
 10
0.244614
 20
1.067083
 30
0.000000
 11
0.177272
 21
1.067083
 31
0.000000
  0
LINE
  8
101
 10
0.177272
 20
1.067083
 30
0.000000
 11
0.171417
 21
1.061228
 31
0.000000
  0
LINE
  8
101
 10
0.171417
 20
1.061228
 30
0.000000
 11
0.171417
 21
0.938768
 31
0.000000
  0
LINE
  8
101
 10
0.171417
 20
0.938768
 30
0.000000
 11
0.177272
 21
0.932913
 31
0.000000
  0
LINE
  8
101
 10
0.177272
 20
0.932913
 30
0.000000
 11
0.220976
 21
0.932913
 31
0.000000
  0
LINE
  8
101
 10
0.220976
 20
0.932913
 30
0.000000
 11
0.275886
 21
0.878000
 31
0.000000
  0
LINE
  8
101
 10
0.275886
 20
0.878000
 30
0.000000
 11
0.365886
 21
0.878000
 31
0.000000
  0
LINE
  8
101
 10
0.365886
 20
0.878000
 30
0.000000
 11
0.443000
 21
0.800886
 31
0.000000
  0
LINE
  8
101
 10
0.443000
 20
0.800886
 30
0.000000
 11
0.443000
 21
0.714106
 31
0.000000
  0
LINE
  8
101
 10
0.443000
 20
0.714106
 30
0.000000
 11
0.425886
 21
0.696996
 31
0.000000
  0
LINE
  8
101
 10
0.425886
 20
0.696996
 30
0.000000
 11
0.368524
 21
0.696996
 31
0.000000
  0
LINE
  8
101
 10
0.368524
 20
0.696996
 30
0.000000
 11
0.368335
 21
0.696807
 31
0.000000
  0
LINE
  8
101
 10
0.368335
 20
0.696807
 30
0.000000
 11
0.330185
 21
0.696807
 31
0.000000
  0
LINE
  8
101
 10
0.330185
 20
0.696807
 30
0.000000
 11
0.324331
 21
0.690953
 31
0.000000
  0
LINE
  8
101
 10
0.324331
 20
0.690953
 30
0.000000
 11
0.324331
 21
0.659043
 31
0.000000
  0
LINE
  8
101
 10
0.324331
 20
0.659043
 30
0.000000
 11
0.330185
 21
0.653189
 31
0.000000
  0
LINE
  8
101
 10
0.330185
 20
0.653189
 30
0.000000
 11
0.368335
 21
0.653189
 31
0.000000
  0
LINE
  8
101
 10
0.368335
 20
0.653189
 30
0.000000
 11
0.368524
 21
0.653000
 31
0.000000
  0
LINE
  8
101
 10
0.368524
 20
0.653000
 30
0.000000
 11
0.444110
 21
0.653000
 31
0.000000
  0
LINE
  8
101
 10
0.444110
 20
0.653000
 30
0.000000
 11
0.474106
 21
0.683000
 31
0.000000
  0
LINE
  8
101
 10
0.474106
 20
0.683000
 30
0.000000
 11
0.474110
 21
0.683000
 31
0.000000
  0
LINE
  8
101
 10
0.474110
 20
0.683000
 30
0.000000
 11
0.486996
 21
0.695886
 31
0.000000
  0
LINE
  8
101
 10
0.486996
 20
0.695886
 30
0.000000
 11
0.486996
 21
0.819110
 31
0.000000
  0
LINE
  8
101
 10
0.486996
 20
0.819110
 30
0.000000
 11
0.384110
 21
0.921996
 31
0.000000
  0
LINE
  8
101
 10
0.384110
 20
0.921996
 30
0.000000
 11
0.294110
 21
0.921996
 31
0.000000
  0
LINE
  8
101
 10
0.294110
 20
0.921996
 30
0.000000
 11
0.250469
 21
0.965634
 31
0.000000
  0
LINE
  8
101
 10
0.250469
 20
0.965634
 30
0.000000
 11
0.250469
 21
1.061228
 31
0.000000
  0
LINE
  8
101
 10
0.247083
 20
0.892724
 30
0.000000
 11
0.241228
 21
0.898579
 31
0.000000
  0
LINE
  8
101
 10
0.241228
 20
0.898579
 30
0.000000
 11
0.118768
 21
0.898579
 31
0.000000
  0
LINE
  8
101
 10
0.118768
 20
0.898579
 30
0.000000
 11
0.112913
 21
0.892724
 31
0.000000
  0
LINE
  8
101
 10
0.112913
 20
0.892724
 30
0.000000
 11
0.112913
 21
0.825382
 31
0.000000
  0
LINE
  8
101
 10
0.112913
 20
0.825382
 30
0.000000
 11
0.118768
 21
0.819528
 31
0.000000
  0
LINE
  8
101
 10
0.118768
 20
0.819528
 30
0.000000
 11
0.241228
 21
0.819528
 31
0.000000
  0
LINE
  8
101
 10
0.241228
 20
0.819528
 30
0.000000
 11
0.246610
 21
0.824913
 31
0.000000
  0
LINE
  8
101
 10
0.246610
 20
0.824913
 30
0.000000
 11
0.327453
 21
0.744071
 31
0.000000
  0
LINE
  8
101
 10
0.327453
 20
0.744071
 30
0.000000
 11
0.324331
 21
0.740953
 31
0.000000
  0
LINE
  8
101
 10
0.324331
 20
0.740953
 30
0.000000
 11
0.324331
 21
0.709043
 31
0.000000
  0
LINE
  8
101
 10
0.324331
 20
0.709043
 30
0.000000
 11
0.330185
 21
0.703189
 31
0.000000
  0
LINE
  8
101
 10
0.330185
 20
0.703189
 30
0.000000
 11
0.368335
 21
0.703189
 31
0.000000
  0
LINE
  8
101
 10
0.368335
 20
0.703189
 30
0.000000
 11
0.368524
 21
0.703000
 31
0.000000
  0
LINE
  8
101
 10
0.368524
 20
0.703000
 30
0.000000
 11
0.386748
 21
0.703000
 31
0.000000
  0
LINE
  8
101
 10
0.386748
 20
0.703000
 30
0.000000
 11
0.386937
 21
0.703189
 31
0.000000
  0
LINE
  8
101
 10
0.386937
 20
0.703189
 30
0.000000
 11
0.425087
 21
0.703189
 31
0.000000
  0
LINE
  8
101
 10
0.425087
 20
0.703189
 30
0.000000
 11
0.430941
 21
0.709043
 31
0.000000
  0
LINE
  8
101
 10
0.430941
 20
0.709043
 30
0.000000
 11
0.430941
 21
0.740953
 31
0.000000
  0
LINE
  8
101
 10
0.430941
 20
0.740953
 30
0.000000
 11
0.425087
 21
0.746807
 31
0.000000
  0
LINE
  8
101
 10
0.425087
 20
0.746807
 30
0.000000
 11
0.386937
 21
0.746807
 31
0.000000
  0
LINE
  8
101
 10
0.386937
 20
0.746807
 30
0.000000
 11
0.261748
 21
0.871996
 31
0.000000
  0
LINE
  8
101
 10
0.261748
 20
0.871996
 30
0.000000
 11
0.247083
 21
0.871996
 31
0.000000
  0
LINE
  8
101
 10
0.247083
 20
0.871996
 30
0.000000
 11
0.247083
 21
0.892724
 31
0.000000
  0
LINE
  8
101
 10
0.247083
 20
0.707272
 30
0.000000
 11
0.247083
 21
0.713000
 31
0.000000
  0
LINE
  8
101
 10
0.247083
 20
0.713000
 30
0.000000
 11
0.255886
 21
0.713000
 31
0.000000
  0
LINE
  8
101
 10
0.255886
 20
0.713000
 30
0.000000
 11
0.263000
 21
0.705886
 31
0.000000
  0
LINE
  8
101
 10
0.263000
 20
0.705886
 30
0.000000
 11
0.263000
 21
0.650886
 31
0.000000
  0
LINE
  8
101
 10
0.263000
 20
0.650886
 30
0.000000
 11
0.310886
 21
0.603000
 31
0.000000
  0
LINE
  8
101
 10
0.310886
 20
0.603000
 30
0.000000
 11
0.386748
 21
0.603000
 31
0.000000
  0
LINE
  8
101
 10
0.386748
 20
0.603000
 30
0.000000
 11
0.386937
 21
0.603189
 31
0.000000
  0
LINE
  8
101
 10
0.386937
 20
0.603189
 30
0.000000
 11
0.425087
 21
0.603189
 31
0.000000
  0
LINE
  8
101
 10
0.425087
 20
0.603189
 30
0.000000
 11
0.430941
 21
0.609043
 31
0.000000
  0
LINE
  8
101
 10
0.430941
 20
0.609043
 30
0.000000
 11
0.430941
 21
0.640953
 31
0.000000
  0
LINE
  8
101
 10
0.430941
 20
0.640953
 30
0.000000
 11
0.425087
 21
0.646807
 31
0.000000
  0
LINE
  8
101
 10
0.425087
 20
0.646807
 30
0.000000
 11
0.386937
 21
0.646807
 31
0.000000
  0
LINE
  8
101
 10
0.386937
 20
0.646807
 30
0.000000
 11
0.386748
 21
0.646996
 31
0.000000
  0
LINE
  8
101
 10
0.386748
 20
0.646996
 30
0.000000
 11
0.329110
 21
0.646996
 31
0.000000
  0
LINE
  8
101
 10
0.329110
 20
0.646996
 30
0.000000
 11
0.306996
 21
0.669110
 31
0.000000
  0
LINE
  8
101
 10
0.306996
 20
0.669110
 30
0.000000
 11
0.306996
 21
0.724110
 31
0.000000
  0
LINE
  8
101
 10
0.306996
 20
0.724110
 30
0.000000
 11
0.274110
 21
0.756996
 31
0.000000
  0
LINE
  8
101
 10
0.274110
 20
0.756996
 30
0.000000
 11
0.247083
 21
0.756996
 31
0.000000
  0
LINE
  8
101
 10
0.247083
 20
0.756996
 30
0.000000
 11
0.247083
 21
0.774614
 31
0.000000
  0
LINE
  8
101
 10
0.247083
 20
0.774614
 30
0.000000
 11
0.241228
 21
0.780469
 31
0.000000
  0
LINE
  8
101
 10
0.241228
 20
0.780469
 30
0.000000
 11
0.118768
 21
0.780469
 31
0.000000
  0
LINE
  8
101
 10
0.118768
 20
0.780469
 30
0.000000
 11
0.112913
 21
0.774614
 31
0.000000
  0
LINE
  8
101
 10
0.112913
 20
0.774614
 30
0.000000
 11
0.112913
 21
0.707272
 31
0.000000
  0
LINE
  8
101
 10
0.112913
 20
0.707272
 30
0.000000
 11
0.118768
 21
0.701417
 31
0.000000
  0
LINE
  8
101
 10
0.118768
 20
0.701417
 30
0.000000
 11
0.241228
 21
0.701417
 31
0.000000
  0
LINE
  8
101
 10
0.241228
 20
0.701417
 30
0.000000
 11
0.247083
 21
0.707272
 31
0.000000
  0
LINE
  8
101
 10
1.084563
 20
0.828295
 30
0.000000
 11
1.084563
 21
0.891701
 31
0.000000
  0
LINE
  8
101
 10
1.084563
 20
0.891701
 30
0.000000
 11
1.078709
 21
0.897555
 31
0.000000
  0
LINE
  8
101
 10
1.078709
 20
0.897555
 30
0.000000
 11
0.952311
 21
0.897555
 31
0.000000
  0
LINE
  8
101
 10
0.952311
 20
0.897555
 30
0.000000
 11
0.946457
 21
0.891701
 31
0.000000
  0
LINE
  8
101
 10
0.946457
 20
0.891701
 30
0.000000
 11
0.946457
 21
0.881996
 31
0.000000
  0
LINE
  8
101
 10
0.946457
 20
0.881996
 30
0.000000
 11
0.902004
 21
0.881996
 31
0.000000
  0
LINE
  8
101
 10
0.902004
 20
0.881996
 30
0.000000
 11
0.902004
 21
0.955126
 31
0.000000
  0
LINE
  8
101
 10
0.902004
 20
0.955126
 30
0.000000
 11
0.896150
 21
0.960980
 31
0.000000
  0
LINE
  8
101
 10
0.896150
 20
0.960980
 30
0.000000
 11
0.894067
 21
0.960980
 31
0.000000
  0
LINE
  8
101
 10
0.894067
 20
0.960980
 30
0.000000
 11
0.894067
 21
0.982685
 31
0.000000
  0
LINE
  8
101
 10
0.894067
 20
0.982685
 30
0.000000
 11
0.881181
 21
0.995571
 31
0.000000
  0
LINE
  8
101
 10
0.881181
 20
0.995571
 30
0.000000
 11
0.881177
 21
0.995571
 31
0.000000
  0
LINE
  8
101
 10
0.881177
 20
0.995571
 30
0.000000
 11
0.832638
 21
1.044114
 31
0.000000
  0
LINE
  8
101
 10
0.832638
 20
1.044114
 30
0.000000
 11
0.645567
 21
1.044114
 31
0.000000
  0
LINE
  8
101
 10
0.645567
 20
1.044114
 30
0.000000
 11
0.593047
 21
0.991594
 31
0.000000
  0
LINE
  8
101
 10
0.593047
 20
0.991594
 30
0.000000
 11
0.593047
 21
0.801378
 31
0.000000
  0
LINE
  8
101
 10
0.593047
 20
0.801378
 30
0.000000
 11
0.458063
 21
0.936366
 31
0.000000
  0
LINE
  8
101
 10
0.458063
 20
0.936366
 30
0.000000
 11
0.460469
 21
0.938768
 31
0.000000
  0
LINE
  8
101
 10
0.460469
 20
0.938768
 30
0.000000
 11
0.460469
 21
1.061228
 31
0.000000
  0
LINE
  8
101
 10
0.460469
 20
1.061228
 30
0.000000
 11
0.454614
 21
1.067083
 31
0.000000
  0
LINE
  8
101
 10
0.454614
 20
1.067083
 30
0.000000
 11
0.387272
 21
1.067083
 31
0.000000
  0
LINE
  8
101
 10
0.387272
 20
1.067083
 30
0.000000
 11
0.381417
 21
1.061228
 31
0.000000
  0
LINE
  8
101
 10
0.381417
 20
1.061228
 30
0.000000
 11
0.381417
 21
1.021996
 31
0.000000
  0
LINE
  8
101
 10
0.381417
 20
1.021996
 30
0.000000
 11
0.368579
 21
1.021996
 31
0.000000
  0
LINE
  8
101
 10
0.368579
 20
1.021996
 30
0.000000
 11
0.368579
 21
1.061228
 31
0.000000
  0
LINE
  8
101
 10
0.368579
 20
1.061228
 30
0.000000
 11
0.362724
 21
1.067083
 31
0.000000
  0
LINE
  8
101
 10
0.362724
 20
1.067083
 30
0.000000
 11
0.347150
 21
1.067083
 31
0.000000
  0
LINE
  8
101
 10
0.347150
 20
1.067083
 30
0.000000
 11
0.346996
 21
1.067697
 31
0.000000
  0
LINE
  8
101
 10
0.346996
 20
1.067697
 30
0.000000
 11
0.346996
 21
1.074110
 31
0.000000
  0
LINE
  8
101
 10
0.346996
 20
1.074110
 30
0.000000
 11
0.344858
 21
1.076248
 31
0.000000
  0
LINE
  8
101
 10
0.344858
 20
1.076248
 30
0.000000
 11
0.343697
 21
1.077406
 31
0.000000
  0
LINE
  8
101
 10
0.343697
 20
1.077406
 30
0.000000
 11
0.306996
 21
1.114110
 31
0.000000
  0
LINE
  8
101
 10
0.306996
 20
1.114110
 30
0.000000
 11
0.294110
 21
1.126996
 31
0.000000
  0
LINE
  8
101
 10
0.294110
 20
1.126996
 30
0.000000
 11
0.140886
 21
1.126996
 31
0.000000
  0
LINE
  8
101
 10
0.140886
 20
1.126996
 30
0.000000
 11
0.048000
 21
1.034110
 31
0.000000
  0
LINE
  8
101
 10
0.048000
 20
1.034110
 30
0.000000
 11
0.048000
 21
0.190886
 31
0.000000
  0
LINE
  8
101
 10
0.048000
 20
0.190886
 30
0.000000
 11
0.054551
 21
0.184339
 31
0.000000
  0
LINE
  8
101
 10
0.054551
 20
0.184339
 30
0.000000
 11
0.193480
 21
0.044823
 31
0.000000
  0
LINE
  8
101
 10
0.193480
 20
0.044823
 30
0.000000
 11
0.193480
 21
0.044795
 31
0.000000
  0
LINE
  8
101
 10
0.193480
 20
0.044795
 30
0.000000
 11
0.199890
 21
0.038390
 31
0.000000
  0
LINE
  8
101
 10
0.199890
 20
0.038390
 30
0.000000
 11
0.199909
 21
0.038366
 31
0.000000
  0
LINE
  8
101
 10
0.199909
 20
0.038366
 30
0.000000
 11
0.206366
 21
0.031909
 31
0.000000
  0
LINE
  8
101
 10
0.206366
 20
0.031909
 30
0.000000
 11
0.222016
 21
0.031909
 31
0.000000
  0
LINE
  8
101
 10
0.222016
 20
0.031909
 30
0.000000
 11
0.719575
 21
0.031787
 31
0.000000
  0
LINE
  8
101
 10
0.719575
 20
0.031787
 30
0.000000
 11
0.719575
 21
0.031783
 31
0.000000
  0
LINE
  8
101
 10
0.719575
 20
0.031783
 30
0.000000
 11
0.737799
 21
0.031783
 31
0.000000
  0
LINE
  8
101
 10
0.737799
 20
0.031783
 30
0.000000
 11
0.743413
 21
0.037398
 31
0.000000
  0
LINE
  8
101
 10
0.743413
 20
0.037398
 30
0.000000
 11
0.874106
 21
0.168000
 31
0.000000
  0
LINE
  8
101
 10
0.874106
 20
0.168000
 30
0.000000
 11
0.874110
 21
0.168000
 31
0.000000
  0
LINE
  8
101
 10
0.874110
 20
0.168000
 30
0.000000
 11
0.886996
 21
0.180886
 31
0.000000
  0
LINE
  8
101
 10
0.886996
 20
0.180886
 30
0.000000
 11
0.886996
 21
0.258000
 31
0.000000
  0
LINE
  8
101
 10
0.886996
 20
0.258000
 30
0.000000
 11
0.893189
 21
0.258000
 31
0.000000
  0
LINE
  8
101
 10
0.893189
 20
0.258000
 30
0.000000
 11
0.893189
 21
0.250185
 31
0.000000
  0
LINE
  8
101
 10
0.893189
 20
0.250185
 30
0.000000
 11
0.899043
 21
0.244331
 31
0.000000
  0
LINE
  8
101
 10
0.899043
 20
0.244331
 30
0.000000
 11
0.930953
 21
0.244331
 31
0.000000
  0
LINE
  8
101
 10
0.930953
 20
0.244331
 30
0.000000
 11
0.936807
 21
0.250185
 31
0.000000
  0
LINE
  8
101
 10
0.936807
 20
0.250185
 30
0.000000
 11
0.936807
 21
0.294760
 31
0.000000
  0
LINE
  8
101
 10
0.936807
 20
0.294760
 30
0.000000
 11
0.936996
 21
0.296169
 31
0.000000
  0
LINE
  8
101
 10
0.936996
 20
0.296169
 30
0.000000
 11
0.936996
 21
0.306748
 31
0.000000
  0
LINE
  8
101
 10
0.936996
 20
0.306748
 30
0.000000
 11
0.936807
 21
0.306937
 31
0.000000
  0
LINE
  8
101
 10
0.936807
 20
0.306937
 30
0.000000
 11
0.936807
 21
0.345087
 31
0.000000
  0
LINE
  8
101
 10
0.936807
 20
0.345087
 30
0.000000
 11
0.930953
 21
0.350941
 31
0.000000
  0
LINE
  8
101
 10
0.930953
 20
0.350941
 30
0.000000
 11
0.899043
 21
0.350941
 31
0.000000
  0
LINE
  8
101
 10
0.899043
 20
0.350941
 30
0.000000
 11
0.893189
 21
0.345087
 31
0.000000
  0
LINE
  8
101
 10
0.893189
 20
0.345087
 30
0.000000
 11
0.893189
 21
0.301996
 31
0.000000
  0
LINE
  8
101
 10
0.893189
 20
0.301996
 30
0.000000
 11
0.886996
 21
0.301996
 31
0.000000
  0
LINE
  8
101
 10
0.886996
 20
0.301996
 30
0.000000
 11
0.886996
 21
0.306748
 31
0.000000
  0
LINE
  8
101
 10
0.886996
 20
0.306748
 30
0.000000
 11
0.886807
 21
0.306937
 31
0.000000
  0
LINE
  8
101
 10
0.886807
 20
0.306937
 30
0.000000
 11
0.886807
 21
0.345087
 31
0.000000
  0
LINE
  8
101
 10
0.886807
 20
0.345087
 30
0.000000
 11
0.880953
 21
0.350941
 31
0.000000
  0
LINE
  8
101
 10
0.880953
 20
0.350941
 30
0.000000
 11
0.849043
 21
0.350941
 31
0.000000
  0
LINE
  8
101
 10
0.849043
 20
0.350941
 30
0.000000
 11
0.843189
 21
0.345087
 31
0.000000
  0
LINE
  8
101
 10
0.843189
 20
0.345087
 30
0.000000
 11
0.843189
 21
0.306937
 31
0.000000
  0
LINE
  8
101
 10
0.843189
 20
0.306937
 30
0.000000
 11
0.843000
 21
0.306748
 31
0.000000
  0
LINE
  8
101
 10
0.843000
 20
0.306748
 30
0.000000
 11
0.843000
 21
0.199114
 31
0.000000
  0
LINE
  8
101
 10
0.843000
 20
0.199114
 30
0.000000
 11
0.719583
 21
0.075780
 31
0.000000
  0
LINE
  8
101
 10
0.719583
 20
0.075780
 30
0.000000
 11
0.224618
 21
0.075902
 31
0.000000
  0
LINE
  8
101
 10
0.224618
 20
0.075902
 30
0.000000
 11
0.091996
 21
0.209083
 31
0.000000
  0
LINE
  8
101
 10
0.091996
 20
0.209083
 30
0.000000
 11
0.091996
 21
1.015886
 31
0.000000
  0
LINE
  8
101
 10
0.091996
 20
1.015886
 30
0.000000
 11
0.159110
 21
1.083000
 31
0.000000
  0
LINE
  8
101
 10
0.159110
 20
1.083000
 30
0.000000
 11
0.275886
 21
1.083000
 31
0.000000
  0
LINE
  8
101
 10
0.275886
 20
1.083000
 30
0.000000
 11
0.293594
 21
1.065291
 31
0.000000
  0
LINE
  8
101
 10
0.293594
 20
1.065291
 30
0.000000
 11
0.289528
 21
1.061228
 31
0.000000
  0
LINE
  8
101
 10
0.289528
 20
1.061228
 30
0.000000
 11
0.289528
 21
0.938768
 31
0.000000
  0
LINE
  8
101
 10
0.289528
 20
0.938768
 30
0.000000
 11
0.295382
 21
0.932913
 31
0.000000
  0
LINE
  8
101
 10
0.295382
 20
0.932913
 30
0.000000
 11
0.362724
 21
0.932913
 31
0.000000
  0
LINE
  8
101
 10
0.362724
 20
0.932913
 30
0.000000
 11
0.368579
 21
0.938768
 31
0.000000
  0
LINE
  8
101
 10
0.368579
 20
0.938768
 30
0.000000
 11
0.368579
 21
0.978000
 31
0.000000
  0
LINE
  8
101
 10
0.368579
 20
0.978000
 30
0.000000
 11
0.381417
 21
0.978000
 31
0.000000
  0
LINE
  8
101
 10
0.381417
 20
0.978000
 30
0.000000
 11
0.381417
 21
0.938768
 31
0.000000
  0
LINE
  8
101
 10
0.381417
 20
0.938768
 30
0.000000
 11
0.387272
 21
0.932913
 31
0.000000
  0
LINE
  8
101
 10
0.387272
 20
0.932913
 30
0.000000
 11
0.413000
 21
0.932913
 31
0.000000
  0
LINE
  8
101
 10
0.413000
 20
0.932913
 30
0.000000
 11
0.413000
 21
0.919209
 31
0.000000
  0
LINE
  8
101
 10
0.413000
 20
0.919209
 30
0.000000
 11
0.425886
 21
0.906323
 31
0.000000
  0
LINE
  8
101
 10
0.425886
 20
0.906323
 30
0.000000
 11
0.585217
 21
0.746996
 31
0.000000
  0
LINE
  8
101
 10
0.585217
 20
0.746996
 30
0.000000
 11
0.573248
 21
0.746996
 31
0.000000
  0
LINE
  8
101
 10
0.573248
 20
0.746996
 30
0.000000
 11
0.573059
 21
0.746807
 31
0.000000
  0
LINE
  8
101
 10
0.573059
 20
0.746807
 30
0.000000
 11
0.534909
 21
0.746807
 31
0.000000
  0
LINE
  8
101
 10
0.534909
 20
0.746807
 30
0.000000
 11
0.529055
 21
0.740953
 31
0.000000
  0
LINE
  8
101
 10
0.529055
 20
0.740953
 30
0.000000
 11
0.529055
 21
0.709043
 31
0.000000
  0
LINE
  8
101
 10
0.529055
 20
0.709043
 30
0.000000
 11
0.534909
 21
0.703189
 31
0.000000
  0
LINE
  8
101
 10
0.534909
 20
0.703189
 30
0.000000
 11
0.573059
 21
0.703189
 31
0.000000
  0
LINE
  8
101
 10
0.573059
 20
0.703189
 30
0.000000
 11
0.573248
 21
0.703000
 31
0.000000
  0
LINE
  8
101
 10
0.573248
 20
0.703000
 30
0.000000
 11
0.624110
 21
0.703000
 31
0.000000
  0
LINE
  8
101
 10
0.624110
 20
0.703000
 30
0.000000
 11
0.624299
 21
0.703189
 31
0.000000
  0
LINE
  8
101
 10
0.624299
 20
0.703189
 30
0.000000
 11
0.629811
 21
0.703189
 31
0.000000
  0
LINE
  8
101
 10
0.629811
 20
0.703189
 30
0.000000
 11
0.635665
 21
0.709043
 31
0.000000
  0
LINE
  8
101
 10
0.635665
 20
0.709043
 30
0.000000
 11
0.635665
 21
0.714555
 31
0.000000
  0
LINE
  8
101
 10
0.635665
 20
0.714555
 30
0.000000
 11
0.637043
 21
0.715933
 31
0.000000
  0
LINE
  8
101
 10
0.637043
 20
0.715933
 30
0.000000
 11
0.637043
 21
0.973370
 31
0.000000
  0
LINE
  8
101
 10
0.637043
 20
0.973370
 30
0.000000
 11
0.663791
 21
1.000118
 31
0.000000
  0
LINE
  8
101
 10
0.663791
 20
1.000118
 30
0.000000
 11
0.814413
 21
1.000118
 31
0.000000
  0
LINE
  8
101
 10
0.814413
 20
1.000118
 30
0.000000
 11
0.850071
 21
0.964465
 31
0.000000
  0
LINE
  8
101
 10
0.850071
 20
0.964465
 30
0.000000
 11
0.850071
 21
0.960980
 31
0.000000
  0
LINE
  8
101
 10
0.850071
 20
0.960980
 30
0.000000
 11
0.845862
 21
0.960980
 31
0.000000
  0
LINE
  8
101
 10
0.845862
 20
0.960980
 30
0.000000
 11
0.840008
 21
0.955126
 31
0.000000
  0
LINE
  8
101
 10
0.840008
 20
0.955126
 30
0.000000
 11
0.840008
 21
0.860839
 31
0.000000
  0
LINE
  8
101
 10
0.840008
 20
0.860839
 30
0.000000
 11
0.845862
 21
0.854984
 31
0.000000
  0
LINE
  8
101
 10
0.845862
 20
0.854984
 30
0.000000
 11
0.858000
 21
0.854984
 31
0.000000
  0
LINE
  8
101
 10
0.858000
 20
0.854984
 30
0.000000
 11
0.858000
 21
0.850886
 31
0.000000
  0
LINE
  8
101
 10
0.858000
 20
0.850886
 30
0.000000
 11
0.870886
 21
0.838000
 31
0.000000
  0
LINE
  8
101
 10
0.870886
 20
0.838000
 30
0.000000
 11
0.946457
 21
0.838000
 31
0.000000
  0
LINE
  8
101
 10
0.946457
 20
0.838000
 30
0.000000
 11
0.946457
 21
0.828295
 31
0.000000
  0
LINE
  8
101
 10
0.946457
 20
0.828295
 30
0.000000
 11
0.952311
 21
0.822441
 31
0.000000
  0
LINE
  8
101
 10
0.952311
 20
0.822441
 30
0.000000
 11
1.078709
 21
0.822441
 31
0.000000
  0
LINE
  8
101
 10
1.078709
 20
0.822441
 30
0.000000
 11
1.084563
 21
0.828295
 31
0.000000
  0
LINE
  8
101
 10
1.401996
 20
0.959110
 30
0.000000
 11
1.334996
 21
1.026106
 31
0.000000
  0
LINE
  8
101
 10
1.334996
 20
1.026106
 30
0.000000
 11
1.334996
 21
1.116563
 31
0.000000
  0
LINE
  8
101
 10
1.334996
 20
1.116563
 30
0.000000
 11
1.311563
 21
1.139996
 31
0.000000
  0
LINE
  8
101
 10
1.311563
 20
1.139996
 30
0.000000
 11
1.278433
 21
1.139996
 31
0.000000
  0
LINE
  8
101
 10
1.278433
 20
1.139996
 30
0.000000
 11
1.255000
 21
1.116563
 31
0.000000
  0
LINE
  8
101
 10
1.255000
 20
1.116563
 30
0.000000
 11
1.255000
 21
1.023433
 31
0.000000
  0
LINE
  8
101
 10
1.255000
 20
1.023433
 30
0.000000
 11
1.278433
 21
1.000000
 31
0.000000
  0
LINE
  8
101
 10
1.278433
 20
1.000000
 30
0.000000
 11
1.298890
 21
1.000000
 31
0.000000
  0
LINE
  8
101
 10
1.298890
 20
1.000000
 30
0.000000
 11
1.358000
 21
0.940886
 31
0.000000
  0
LINE
  8
101
 10
1.358000
 20
0.940886
 30
0.000000
 11
1.358000
 21
0.599110
 31
0.000000
  0
LINE
  8
101
 10
1.358000
 20
0.599110
 30
0.000000
 11
1.248886
 21
0.489996
 31
0.000000
  0
LINE
  8
101
 10
1.248886
 20
0.489996
 30
0.000000
 11
1.193433
 21
0.489996
 31
0.000000
  0
LINE
  8
101
 10
1.193433
 20
0.489996
 30
0.000000
 11
1.170000
 21
0.466563
 31
0.000000
  0
LINE
  8
101
 10
1.170000
 20
0.466563
 30
0.000000
 11
1.170000
 21
0.433433
 31
0.000000
  0
LINE
  8
101
 10
1.170000
 20
0.433433
 30
0.000000
 11
1.193433
 21
0.410000
 31
0.000000
  0
LINE
  8
101
 10
1.193433
 20
0.410000
 30
0.000000
 11
1.286563
 21
0.410000
 31
0.000000
  0
LINE
  8
101
 10
1.286563
 20
0.410000
 30
0.000000
 11
1.309996
 21
0.433433
 31
0.000000
  0
LINE
  8
101
 10
1.309996
 20
0.433433
 30
0.000000
 11
1.309996
 21
0.466563
 31
0.000000
  0
LINE
  8
101
 10
1.309996
 20
0.466563
 30
0.000000
 11
1.298831
 21
0.477724
 31
0.000000
  0
LINE
  8
101
 10
1.298831
 20
0.477724
 30
0.000000
 11
1.401996
 21
0.580886
 31
0.000000
  0
LINE
  8
101
 10
1.401996
 20
0.580886
 30
0.000000
 11
1.401996
 21
0.959110
 31
0.000000
  0
LINE
  8
101
 10
0.269382
 20
1.062630
 30
0.000000
 11
0.267154
 21
0.966839
 31
0.000000
  0
LINE
  8
101
 10
0.237646
 20
0.084555
 30
0.000000
 11
0.225087
 21
0.084555
 31
0.000000
  0
LINE
  8
101
 10
0.225087
 20
0.084555
 30
0.000000
 11
0.101685
 21
0.207957
 31
0.000000
  0
LINE
  8
101
 10
0.101685
 20
0.207957
 30
0.000000
 11
0.101685
 21
0.286799
 31
0.000000
  0
LINE
  8
101
 10
0.101685
 20
0.286799
 30
0.000000
 11
0.115394
 21
0.300508
 31
0.000000
  0
LINE
  8
101
 10
0.115394
 20
0.300508
 30
0.000000
 11
0.241071
 21
0.300508
 31
0.000000
  0
LINE
  8
101
 10
0.241071
 20
0.300508
 30
0.000000
 11
0.252500
 21
0.289079
 31
0.000000
  0
LINE
  8
101
 10
0.252500
 20
0.289079
 30
0.000000
 11
0.252500
 21
0.313075
 31
0.000000
  0
LINE
  8
101
 10
0.252500
 20
0.289079
 30
0.000000
 11
0.252500
 21
0.257087
 31
0.000000
  0
LINE
  8
101
 10
0.252500
 20
0.257087
 30
0.000000
 11
0.265067
 21
0.244520
 31
0.000000
  0
LINE
  8
101
 10
0.265067
 20
0.244520
 30
0.000000
 11
0.265067
 21
0.211382
 31
0.000000
  0
LINE
  8
101
 10
0.265067
 20
0.211382
 30
0.000000
 11
0.267350
 21
0.209098
 31
0.000000
  0
LINE
  8
101
 10
0.267350
 20
0.209098
 30
0.000000
 11
0.267350
 21
0.170252
 31
0.000000
  0
LINE
  8
101
 10
0.267350
 20
0.170252
 30
0.000000
 11
0.285634
 21
0.151969
 31
0.000000
  0
LINE
  8
101
 10
0.285634
 20
0.151969
 30
0.000000
 11
0.463866
 21
0.151969
 31
0.000000
  0
LINE
  8
101
 10
0.463866
 20
0.151969
 30
0.000000
 11
0.470720
 21
0.158823
 31
0.000000
  0
LINE
  8
101
 10
0.470720
 20
0.158823
 30
0.000000
 11
0.470720
 21
0.260520
 31
0.000000
  0
LINE
  8
101
 10
0.470720
 20
0.260520
 30
0.000000
 11
0.427307
 21
0.303933
 31
0.000000
  0
LINE
  8
101
 10
0.427307
 20
0.303933
 30
0.000000
 11
0.427307
 21
0.327929
 31
0.000000
  0
LINE
  8
101
 10
0.427307
 20
0.327929
 30
0.000000
 11
0.418165
 21
0.337071
 31
0.000000
  0
LINE
  8
101
 10
0.418165
 20
0.337071
 30
0.000000
 11
0.418165
 21
0.321071
 31
0.000000
  0
LINE
  8
101
 10
0.418165
 20
0.321071
 30
0.000000
 11
0.420449
 21
0.318787
 31
0.000000
  0
LINE
  8
101
 10
0.326764
 20
0.341642
 30
0.000000
 11
0.326764
 21
0.298220
 31
0.000000
  0
LINE
  8
101
 10
0.326764
 20
0.298220
 30
0.000000
 11
0.327906
 21
0.297079
 31
0.000000
  0
LINE
  8
101
 10
0.327906
 20
0.297079
 30
0.000000
 11
0.346185
 21
0.297079
 31
0.000000
  0
LINE
  8
101
 10
0.346185
 20
0.297079
 30
0.000000
 11
0.347327
 21
0.295937
 31
0.000000
  0
LINE
  8
101
 10
0.347327
 20
0.295937
 30
0.000000
 11
0.347327
 21
0.337075
 31
0.000000
  0
LINE
  8
101
 10
0.347327
 20
0.337075
 30
0.000000
 11
0.342760
 21
0.341642
 31
0.000000
  0
LINE
  8
101
 10
0.550697
 20
0.293650
 30
0.000000
 11
0.551839
 21
0.293650
 31
0.000000
  0
LINE
  8
101
 10
0.551839
 20
0.293650
 30
0.000000
 11
0.562122
 21
0.283366
 31
0.000000
  0
LINE
  8
101
 10
0.228504
 20
0.575874
 30
0.000000
 11
0.219366
 21
0.575874
 31
0.000000
  0
LINE
  8
101
 10
0.219366
 20
0.575874
 30
0.000000
 11
0.214795
 21
0.580445
 31
0.000000
  0
LINE
  8
101
 10
0.214795
 20
0.580445
 30
0.000000
 11
0.124535
 21
0.580445
 31
0.000000
  0
LINE
  8
101
 10
0.124535
 20
0.580445
 30
0.000000
 11
0.108539
 21
0.564449
 31
0.000000
  0
LINE
  8
101
 10
0.108539
 20
0.564449
 30
0.000000
 11
0.108539
 21
0.808831
 31
0.000000
  0
LINE
  8
101
 10
0.108539
 20
0.808831
 30
0.000000
 11
0.111366
 21
0.811657
 31
0.000000
  0
LINE
  8
101
 10
0.111366
 20
0.811657
 30
0.000000
 11
0.111768
 21
0.811657
 31
0.000000
  0
LINE
  8
101
 10
0.111768
 20
0.811657
 30
0.000000
 11
0.123331
 21
0.800094
 31
0.000000
  0
LINE
  8
101
 10
0.123331
 20
0.800094
 30
0.000000
 11
0.245059
 21
0.800094
 31
0.000000
  0
LINE
  8
101
 10
0.245059
 20
0.800094
 30
0.000000
 11
0.245059
 21
0.800091
 31
0.000000
  0
LINE
  8
101
 10
0.245059
 20
0.800091
 30
0.000000
 11
0.307524
 21
0.737626
 31
0.000000
  0
LINE
  8
101
 10
0.120177
 20
0.690075
 30
0.000000
 11
0.247976
 21
0.690075
 31
0.000000
  0
LINE
  8
101
 10
0.256768
 20
0.642000
 30
0.000000
 11
0.257937
 21
0.642000
 31
0.000000
  0
LINE
  8
101
 10
0.257937
 20
0.642000
 30
0.000000
 11
0.290185
 21
0.609752
 31
0.000000
  0
LINE
  8
101
 10
0.182319
 20
0.915803
 30
0.000000
 11
0.222764
 21
0.915803
 31
0.000000
  0
LINE
  8
101
 10
0.222764
 20
0.915803
 30
0.000000
 11
0.226283
 21
0.912283
 31
0.000000
  0
LINE
  8
101
 10
0.514606
 20
0.715681
 30
0.000000
 11
0.502492
 21
0.715681
 31
0.000000
  0
LINE
  8
101
 10
0.502492
 20
0.715681
 30
0.000000
 11
0.495224
 21
0.708413
 31
0.000000
  0
LINE
  8
101
 10
0.481126
 20
1.042114
 30
0.000000
 11
0.481126
 21
0.939579
 31
0.000000
  0
LINE
  8
101
 10
0.481126
 20
0.939579
 30
0.000000
 11
0.491445
 21
0.929260
 31
0.000000
  0
LINE
  8
101
 10
0.656461
 20
0.784213
 30
0.000000
 11
0.656461
 21
0.845496
 31
0.000000
  0
LINE
  8
101
 10
0.656461
 20
0.845496
 30
0.000000
 11
0.648150
 21
0.853807
 31
0.000000
  0
LINE
  8
101
 10
0.648150
 20
0.853807
 30
0.000000
 11
0.648150
 21
0.962870
 31
0.000000
  0
LINE
  8
101
 10
0.648150
 20
0.962870
 30
0.000000
 11
0.665807
 21
0.980528
 31
0.000000
  0
LINE
  8
101
 10
0.665807
 20
0.980528
 30
0.000000
 11
0.811228
 21
0.980528
 31
0.000000
  0
LINE
  8
101
 10
0.811228
 20
0.980528
 30
0.000000
 11
0.826807
 21
0.964949
 31
0.000000
  0
LINE
  8
101
 10
0.826807
 20
0.964949
 30
0.000000
 11
0.826807
 21
0.851728
 31
0.000000
  0
LINE
  8
101
 10
0.826807
 20
0.851728
 30
0.000000
 11
0.825768
 21
0.850689
 31
0.000000
  0
LINE
  8
101
 10
0.825768
 20
0.850689
 30
0.000000
 11
0.825768
 21
0.847575
 31
0.000000
  0
LINE
  8
101
 10
0.825768
 20
0.847575
 30
0.000000
 11
0.838232
 21
0.835110
 31
0.000000
  0
LINE
  8
101
 10
0.838232
 20
0.835110
 30
0.000000
 11
0.861083
 21
0.835110
 31
0.000000
  0
LINE
  8
101
 10
0.861083
 20
0.835110
 30
0.000000
 11
0.862122
 21
0.836150
 31
0.000000
  0
LINE
  8
101
 10
0.862122
 20
0.836150
 30
0.000000
 11
0.923827
 21
0.836150
 31
0.000000
  0
LINE
  8
101
 10
0.923827
 20
0.836150
 30
0.000000
 11
0.949071
 21
0.810906
 31
0.000000
  0
LINE
  8
101
 10
0.949071
 20
0.810906
 30
0.000000
 11
0.984189
 21
0.810906
 31
0.000000
  0
LINE
  8
101
 10
1.087996
 20
0.810906
 30
0.000000
 11
0.984189
 21
0.810906
 31
0.000000
  0
LINE
  8
101
 10
0.984189
 20
0.810906
 30
0.000000
 11
0.899118
 21
0.725835
 31
0.000000
  0
LINE
  8
101
 10
0.899118
 20
0.725835
 30
0.000000
 11
0.895996
 21
0.725835
 31
0.000000
  0
LINE
  8
101
 10
0.895996
 20
0.725835
 30
0.000000
 11
0.892094
 21
0.721933
 31
0.000000
  0
LINE
  8
101
 10
0.892094
 20
0.721933
 30
0.000000
 11
0.835114
 21
0.721933
 31
0.000000
  0
LINE
  8
101
 10
0.835114
 20
0.721933
 30
0.000000
 11
0.816386
 21
0.740661
 31
0.000000
  0
LINE
  8
101
 10
0.816386
 20
0.740661
 30
0.000000
 11
0.816386
 21
0.747685
 31
0.000000
  0
LINE
  8
101
 10
0.816386
 20
0.747685
 30
0.000000
 11
0.821850
 21
0.753150
 31
0.000000
  0
LINE
  8
101
 10
0.821850
 20
0.753150
 30
0.000000
 11
0.818728
 21
0.753150
 31
0.000000
  0
LINE
  8
101
 10
0.818728
 20
0.753150
 30
0.000000
 11
0.803118
 21
0.737539
 31
0.000000
  0
LINE
  8
101
 10
0.803118
 20
0.737539
 30
0.000000
 11
0.707902
 21
0.737539
 31
0.000000
  0
LINE
  8
101
 10
0.707902
 20
0.737539
 30
0.000000
 11
0.703217
 21
0.742224
 31
0.000000
  0
LINE
  8
101
 10
0.733657
 20
0.941244
 30
0.000000
 11
0.733657
 21
0.850709
 31
0.000000
  0
LINE
  8
101
 10
0.826535
 20
0.643886
 30
0.000000
 11
0.910827
 21
0.643886
 31
0.000000
  0
LINE
  8
101
 10
0.910827
 20
0.643886
 30
0.000000
 11
0.912386
 21
0.645445
 31
0.000000
  0
LINE
  8
101
 10
0.807024
 20
0.569740
 30
0.000000
 11
0.917850
 21
0.569740
 31
0.000000
  0
LINE
  8
101
 10
0.917850
 20
0.569740
 30
0.000000
 11
0.920193
 21
0.572083
 31
0.000000
  0
LINE
  8
101
 10
1.286728
 20
0.900134
 30
0.000000
 11
1.286728
 21
0.837795
 31
0.000000
  0
LINE
  8
101
 10
1.286728
 20
0.837795
 30
0.000000
 11
1.291291
 21
0.833232
 31
0.000000
  0
LINE
  8
101
 10
0.711130
 20
0.371327
 30
0.000000
 11
0.788098
 21
0.371327
 31
0.000000
  0
LINE
  8
101
 10
1.045780
 20
0.175630
 30
0.000000
 11
1.049134
 21
0.175630
 31
0.000000
  0
LINE
  8
101
 10
1.049134
 20
0.175630
 30
0.000000
 11
1.077571
 21
0.147193
 31
0.000000
  0
LINE
  8
101
 10
1.365819
 20
0.155091
 30
0.000000
 11
1.361248
 21
0.155091
 31
0.000000
  0
LINE
  8
101
 10
1.361248
 20
0.155091
 30
0.000000
 11
1.326276
 21
0.120118
 31
0.000000
  0
LINE
  8
101
 10
1.304980
 20
0.203748
 30
0.000000
 11
1.298894
 21
0.203748
 31
0.000000
  0
LINE
  8
101
 10
1.298894
 20
0.203748
 30
0.000000
 11
1.285209
 21
0.190063
 31
0.000000
  0
LINE
  8
101
 10
1.285209
 20
0.190063
 30
0.000000
 11
1.210681
 21
0.190063
 31
0.000000
  0
LINE
  8
101
 10
1.168094
 20
0.380126
 30
0.000000
 11
1.168094
 21
0.485035
 31
0.000000
  0
LINE
  8
101
 10
1.168094
 20
0.485035
 30
0.000000
 11
1.178740
 21
0.495681
 31
0.000000
  0
LINE
  8
101
 10
1.178740
 20
0.495681
 30
0.000000
 11
1.178740
 21
0.491122
 31
0.000000
  0
LINE
  8
101
 10
1.178740
 20
0.491122
 30
0.000000
 11
1.165055
 21
0.477437
 31
0.000000
  0
LINE
  8
101
 10
1.165055
 20
0.477437
 30
0.000000
 11
1.165055
 21
0.415098
 31
0.000000
  0
LINE
  8
101
 10
1.165055
 20
0.415098
 30
0.000000
 11
1.181783
 21
0.398370
 31
0.000000
  0
ENDSEC
  0
EOF
