  0
SECTION
  2
HEADER
  9
$ACADVER
  1
AC1009
  9
$FILLMODE
 70
0
  9
$EXTMIN
 10
-0.117921
 20
-0.137071
 30
0.000000
  9
$EXTMAX
 10
1.755713
 20
1.623681
 30
0.000000
  0
ENDSEC
  0
SECTION
  2
TABLES
  0
TABLE
  2
LTYPE
 70
1
  0
LTYPE
  2
CONTINUOUS
 70
64
  3
Solid line
 72
65
 73
0
 40
0
  0
ENDTAB
  0
TABLE
  2
LAYER
 70
255
  0
LAYER
  2
101
 70
64
 62
253
  6
CONTINUOUS
  0
ENDTAB
  0
ENDSEC
  0
SECTION
  2
BLOCKS
  0
BLOCK
  8
0
  2
RECT
 70
64
 10
0.000000
 20
0.000000
 30
0.000000
  3
RECT
  0
SOLID
  8
0
 10
-0.500000
 20
-0.500000
 30
0.000000
 11
0.500000
 21
-0.500000
 31
0.000000
 12
-0.500000
 22
0.500000
 32
0.000000
 13
0.500000
 23
0.500000
 33
0.000000
  0
ENDBLK
  8
0
  0
BLOCK
  8
0
  2
PIE
 70
64
 10
0.000000
 20
0.000000
 30
0.000000
  3
PIE
  0
CIRCLE
  8
0
 10
0.000000
 20
0.000000
 30
0.000000
 40
0.500000
  0
ENDBLK
  8
0
  0
BLOCK
  8
0
  2
OCTAGONP
 70
64
 10
0.000000
 20
0.000000
 30
0.000000
  3
OCTAGONP
  0
POLYLINE
  8
0
 66
1
 10
0.000000
 20
0.000000
 30
0.000000
 40
0.000000
 41
0.000000
 70
1
  0
VERTEX
  8
0
 10
-0.500000
 20
-0.207107
 30
0.000000
  0
VERTEX
  8
0
 10
-0.500000
 20
0.207107
 30
0.000000
  0
VERTEX
  8
0
 10
-0.207107
 20
0.500000
 30
0.000000
  0
VERTEX
  8
0
 10
0.207107
 20
0.500000
 30
0.000000
  0
VERTEX
  8
0
 10
0.500000
 20
0.207107
 30
0.000000
  0
VERTEX
  8
0
 10
0.500000
 20
-0.207107
 30
0.000000
  0
VERTEX
  8
0
 10
0.207107
 20
-0.500000
 30
0.000000
  0
VERTEX
  8
0
 10
-0.207107
 20
-0.500000
 30
0.000000
  0
SEQEND
  8
0
  0
ENDBLK
  8
0
  0
BLOCK
  8
0
  2
SQUAREP
 70
64
 10
0.000000
 20
0.000000
 30
0.000000
  3
SQUAREP
  0
SOLID
  8
0
 10
-0.500000
 20
-0.500000
 30
0.000000
 11
0.500000
 21
-0.500000
 31
0.000000
 12
-0.500000
 22
0.500000
 32
0.000000
 13
0.500000
 23
0.500000
 33
0.000000
  0
ENDBLK
  8
0
  0
BLOCK
  8
0
  2
ROUNDP
 70
64
 10
0.000000
 20
0.000000
 30
0.000000
  3
ROUNDP
  0
CIRCLE
  8
0
 10
0.000000
 20
0.000000
 30
0.000000
 40
0.500000
  0
ENDBLK
  8
0
  0
BLOCK
  8
0
  2
ANNULUSP
 70
64
 10
0.000000
 20
0.000000
 30
0.000000
  3
ANNULUSP
  0
CIRCLE
  8
0
 10
0.000000
 20
0.000000
 30
0.000000
 40
0.500000
  0
ENDBLK
  8
0
  0
BLOCK
  8
0
  2
THERMALP
 70
64
 10
0.000000
 20
0.000000
 30
0.000000
  3
THERMALP
  0
LINE
  8
0
 10
-0.237868
 20
0.450000
 30
0.000000
 11
0.237868
 21
0.450000
 31
0.000000
  0
LINE
  8
0
 10
0.450000
 20
0.237868
 30
0.000000
 11
0.450000
 21
-0.237868
 31
0.000000
  0
LINE
  8
0
 10
0.237868
 20
-0.450000
 30
0.000000
 11
-0.237868
 21
-0.450000
 31
0.000000
  0
LINE
  8
0
 10
-0.450000
 20
-0.237868
 30
0.000000
 11
-0.450000
 21
0.237868
 31
0.000000
  0
ENDBLK
  8
0
  0
BLOCK
  8
0
  2
OCTAGONV
 70
64
 10
0.000000
 20
0.000000
 30
0.000000
  3
OCTAGONV
  0
POLYLINE
  8
0
 66
1
 10
0.000000
 20
0.000000
 30
0.000000
 40
0.000000
 41
0.000000
 70
1
  0
VERTEX
  8
0
 10
-0.500000
 20
-0.207107
 30
0.000000
  0
VERTEX
  8
0
 10
-0.500000
 20
0.207107
 30
0.000000
  0
VERTEX
  8
0
 10
-0.207107
 20
0.500000
 30
0.000000
  0
VERTEX
  8
0
 10
0.207107
 20
0.500000
 30
0.000000
  0
VERTEX
  8
0
 10
0.500000
 20
0.207107
 30
0.000000
  0
VERTEX
  8
0
 10
0.500000
 20
-0.207107
 30
0.000000
  0
VERTEX
  8
0
 10
0.207107
 20
-0.500000
 30
0.000000
  0
VERTEX
  8
0
 10
-0.207107
 20
-0.500000
 30
0.000000
  0
SEQEND
  8
0
  0
ENDBLK
  8
0
  0
BLOCK
  8
0
  2
SQUAREV
 70
64
 10
0.000000
 20
0.000000
 30
0.000000
  3
SQUAREV
  0
SOLID
  8
0
 10
-0.500000
 20
-0.500000
 30
0.000000
 11
0.500000
 21
-0.500000
 31
0.000000
 12
-0.500000
 22
0.500000
 32
0.000000
 13
0.500000
 23
0.500000
 33
0.000000
  0
ENDBLK
  8
0
  0
BLOCK
  8
0
  2
ROUNDV
 70
64
 10
0.000000
 20
0.000000
 30
0.000000
  3
ROUNDV
  0
CIRCLE
  8
0
 10
0.000000
 20
0.000000
 30
0.000000
 40
0.500000
  0
ENDBLK
  8
0
  0
BLOCK
  8
0
  2
ANNULUSV
 70
64
 10
0.000000
 20
0.000000
 30
0.000000
  3
ANNULUSV
  0
CIRCLE
  8
0
 10
0.000000
 20
0.000000
 30
0.000000
 40
0.500000
  0
ENDBLK
  8
0
  0
BLOCK
  8
0
  2
THERMALV
 70
64
 10
0.000000
 20
0.000000
 30
0.000000
  3
THERMALV
  0
LINE
  8
0
 10
-0.237868
 20
0.450000
 30
0.000000
 11
0.237868
 21
0.450000
 31
0.000000
  0
LINE
  8
0
 10
0.450000
 20
0.237868
 30
0.000000
 11
0.450000
 21
-0.237868
 31
0.000000
  0
LINE
  8
0
 10
0.237868
 20
-0.450000
 30
0.000000
 11
-0.237868
 21
-0.450000
 31
0.000000
  0
LINE
  8
0
 10
-0.450000
 20
-0.237868
 30
0.000000
 11
-0.450000
 21
0.237868
 31
0.000000
  0
ENDBLK
  8
0
  0
BLOCK
  8
0
  2
LONGP100
 70
64
 10
0.000000
 20
0.000000
 30
0.000000
  3
LONGP100
  0
POLYLINE
  8
0
 66
1
 10
0.000000
 20
0.000000
 30
0.000000
 40
0.000000
 41
0.000000
 70
1
  0
VERTEX
  8
0
 10
-1.000000
 20
-0.207107
 30
0.000000
  0
VERTEX
  8
0
 10
-1.000000
 20
0.207107
 30
0.000000
  0
VERTEX
  8
0
 10
-0.707107
 20
0.500000
 30
0.000000
  0
VERTEX
  8
0
 10
0.707107
 20
0.500000
 30
0.000000
  0
VERTEX
  8
0
 10
1.000000
 20
0.207107
 30
0.000000
  0
VERTEX
  8
0
 10
1.000000
 20
-0.207107
 30
0.000000
  0
VERTEX
  8
0
 10
0.707107
 20
-0.500000
 30
0.000000
  0
VERTEX
  8
0
 10
-0.707107
 20
-0.500000
 30
0.000000
  0
SEQEND
  8
0
  0
ENDBLK
  8
0
  0
ENDSEC
  0
SECTION
  2
ENTITIES
  0
LINE
  8
101
 10
1.538524
 20
-0.021378
 30
0.000000
 11
1.515079
 21
-0.044823
 31
0.000000
  0
LINE
  8
101
 10
1.515079
 20
-0.044823
 30
0.000000
 11
-0.015079
 21
-0.044823
 31
0.000000
  0
LINE
  8
101
 10
-0.015079
 20
-0.044823
 30
0.000000
 11
-0.038524
 21
-0.021378
 31
0.000000
  0
LINE
  8
101
 10
-0.038524
 20
-0.021378
 30
0.000000
 11
-0.038524
 21
1.521378
 31
0.000000
  0
LINE
  8
101
 10
-0.038524
 20
1.521378
 30
0.000000
 11
-0.015079
 21
1.544823
 31
0.000000
  0
LINE
  8
101
 10
-0.015079
 20
1.544823
 30
0.000000
 11
1.515079
 21
1.544823
 31
0.000000
  0
LINE
  8
101
 10
1.515079
 20
1.544823
 30
0.000000
 11
1.538524
 21
1.521378
 31
0.000000
  0
LINE
  8
101
 10
1.538524
 20
1.521378
 30
0.000000
 11
1.538524
 21
-0.021378
 31
0.000000
  0
LINE
  8
101
 10
1.091839
 20
0.600953
 30
0.000000
 11
1.091839
 21
0.610602
 31
0.000000
  0
LINE
  8
101
 10
1.091839
 20
0.610602
 30
0.000000
 11
1.091839
 21
0.619043
 31
0.000000
  0
LINE
  8
101
 10
1.091839
 20
0.619043
 30
0.000000
 11
1.091343
 21
0.619539
 31
0.000000
  0
LINE
  8
101
 10
1.091343
 20
0.619539
 30
0.000000
 11
1.088535
 21
0.670024
 31
0.000000
  0
LINE
  8
101
 10
1.088535
 20
0.670024
 30
0.000000
 11
1.102839
 21
0.684323
 31
0.000000
  0
LINE
  8
101
 10
1.102839
 20
0.684323
 30
0.000000
 11
1.102839
 21
0.715673
 31
0.000000
  0
LINE
  8
101
 10
1.102839
 20
0.715673
 30
0.000000
 11
1.080673
 21
0.737839
 31
0.000000
  0
LINE
  8
101
 10
1.080673
 20
0.737839
 30
0.000000
 11
1.049323
 21
0.737839
 31
0.000000
  0
LINE
  8
101
 10
1.049323
 20
0.737839
 30
0.000000
 11
1.027157
 21
0.715673
 31
0.000000
  0
LINE
  8
101
 10
1.027157
 20
0.715673
 30
0.000000
 11
1.027157
 21
0.684323
 31
0.000000
  0
LINE
  8
101
 10
1.027157
 20
0.684323
 30
0.000000
 11
1.044988
 21
0.666496
 31
0.000000
  0
LINE
  8
101
 10
1.044988
 20
0.666496
 30
0.000000
 11
1.046913
 21
0.631839
 31
0.000000
  0
LINE
  8
101
 10
1.046913
 20
0.631839
 30
0.000000
 11
0.809043
 21
0.631839
 31
0.000000
  0
LINE
  8
101
 10
0.809043
 20
0.631839
 30
0.000000
 11
0.790953
 21
0.631839
 31
0.000000
  0
LINE
  8
101
 10
0.790953
 20
0.631839
 30
0.000000
 11
0.743157
 21
0.584043
 31
0.000000
  0
LINE
  8
101
 10
0.743157
 20
0.584043
 30
0.000000
 11
0.743157
 21
0.565953
 31
0.000000
  0
LINE
  8
101
 10
0.743157
 20
0.565953
 30
0.000000
 11
0.743157
 21
0.493315
 31
0.000000
  0
LINE
  8
101
 10
0.743157
 20
0.493315
 30
0.000000
 11
0.743346
 21
0.493126
 31
0.000000
  0
LINE
  8
101
 10
0.743346
 20
0.493126
 30
0.000000
 11
0.743346
 21
0.454976
 31
0.000000
  0
LINE
  8
101
 10
0.743346
 20
0.454976
 30
0.000000
 11
0.749110
 21
0.449213
 31
0.000000
  0
LINE
  8
101
 10
0.749110
 20
0.449213
 30
0.000000
 11
0.780886
 21
0.449213
 31
0.000000
  0
LINE
  8
101
 10
0.780886
 20
0.449213
 30
0.000000
 11
0.786650
 21
0.454976
 31
0.000000
  0
LINE
  8
101
 10
0.786650
 20
0.454976
 30
0.000000
 11
0.786650
 21
0.493126
 31
0.000000
  0
LINE
  8
101
 10
0.786650
 20
0.493126
 30
0.000000
 11
0.786839
 21
0.493315
 31
0.000000
  0
LINE
  8
101
 10
0.786839
 20
0.493315
 30
0.000000
 11
0.786839
 21
0.565953
 31
0.000000
  0
LINE
  8
101
 10
0.786839
 20
0.565953
 30
0.000000
 11
0.809043
 21
0.588157
 31
0.000000
  0
LINE
  8
101
 10
0.809043
 20
0.588157
 30
0.000000
 11
1.048157
 21
0.588157
 31
0.000000
  0
LINE
  8
101
 10
1.048157
 20
0.588157
 30
0.000000
 11
1.048157
 21
0.219043
 31
0.000000
  0
LINE
  8
101
 10
1.048157
 20
0.219043
 30
0.000000
 11
1.048157
 21
0.200953
 31
0.000000
  0
LINE
  8
101
 10
1.048157
 20
0.200953
 30
0.000000
 11
1.108157
 21
0.140953
 31
0.000000
  0
LINE
  8
101
 10
1.108157
 20
0.140953
 30
0.000000
 11
1.120953
 21
0.128157
 31
0.000000
  0
LINE
  8
101
 10
1.120953
 20
0.128157
 30
0.000000
 11
1.290953
 21
0.128157
 31
0.000000
  0
LINE
  8
101
 10
1.290953
 20
0.128157
 30
0.000000
 11
1.309043
 21
0.128157
 31
0.000000
  0
LINE
  8
101
 10
1.309043
 20
0.128157
 30
0.000000
 11
1.349043
 21
0.168157
 31
0.000000
  0
LINE
  8
101
 10
1.349043
 20
0.168157
 30
0.000000
 11
1.361839
 21
0.180953
 31
0.000000
  0
LINE
  8
101
 10
1.361839
 20
0.180953
 30
0.000000
 11
1.361839
 21
0.290953
 31
0.000000
  0
LINE
  8
101
 10
1.361839
 20
0.290953
 30
0.000000
 11
1.361839
 21
0.309043
 31
0.000000
  0
LINE
  8
101
 10
1.361839
 20
0.309043
 30
0.000000
 11
1.309839
 21
0.361043
 31
0.000000
  0
LINE
  8
101
 10
1.309839
 20
0.361043
 30
0.000000
 11
1.309839
 21
0.366500
 31
0.000000
  0
LINE
  8
101
 10
1.309839
 20
0.366500
 30
0.000000
 11
1.286500
 21
0.389839
 31
0.000000
  0
LINE
  8
101
 10
1.286500
 20
0.389839
 30
0.000000
 11
1.193496
 21
0.389839
 31
0.000000
  0
LINE
  8
101
 10
1.193496
 20
0.389839
 30
0.000000
 11
1.170157
 21
0.366500
 31
0.000000
  0
LINE
  8
101
 10
1.170157
 20
0.366500
 30
0.000000
 11
1.170157
 21
0.333496
 31
0.000000
  0
LINE
  8
101
 10
1.170157
 20
0.333496
 30
0.000000
 11
1.193496
 21
0.310157
 31
0.000000
  0
LINE
  8
101
 10
1.193496
 20
0.310157
 30
0.000000
 11
1.286500
 21
0.310157
 31
0.000000
  0
LINE
  8
101
 10
1.286500
 20
0.310157
 30
0.000000
 11
1.292724
 21
0.316386
 31
0.000000
  0
LINE
  8
101
 10
1.292724
 20
0.316386
 30
0.000000
 11
1.318157
 21
0.290953
 31
0.000000
  0
LINE
  8
101
 10
1.318157
 20
0.290953
 30
0.000000
 11
1.318157
 21
0.199043
 31
0.000000
  0
LINE
  8
101
 10
1.318157
 20
0.199043
 30
0.000000
 11
1.290953
 21
0.171839
 31
0.000000
  0
LINE
  8
101
 10
1.290953
 20
0.171839
 30
0.000000
 11
1.139043
 21
0.171839
 31
0.000000
  0
LINE
  8
101
 10
1.139043
 20
0.171839
 30
0.000000
 11
1.091839
 21
0.219043
 31
0.000000
  0
LINE
  8
101
 10
1.091839
 20
0.219043
 30
0.000000
 11
1.091839
 21
0.600953
 31
0.000000
  0
LINE
  8
101
 10
0.635508
 20
0.559110
 30
0.000000
 11
0.635508
 21
0.590886
 31
0.000000
  0
LINE
  8
101
 10
0.635508
 20
0.590886
 30
0.000000
 11
0.629744
 21
0.596650
 31
0.000000
  0
LINE
  8
101
 10
0.629744
 20
0.596650
 30
0.000000
 11
0.534976
 21
0.596650
 31
0.000000
  0
LINE
  8
101
 10
0.534976
 20
0.596650
 30
0.000000
 11
0.529213
 21
0.590886
 31
0.000000
  0
LINE
  8
101
 10
0.529213
 20
0.590886
 30
0.000000
 11
0.529213
 21
0.559110
 31
0.000000
  0
LINE
  8
101
 10
0.529213
 20
0.559110
 30
0.000000
 11
0.534976
 21
0.553346
 31
0.000000
  0
LINE
  8
101
 10
0.534976
 20
0.553346
 30
0.000000
 11
0.629744
 21
0.553346
 31
0.000000
  0
LINE
  8
101
 10
0.629744
 20
0.553346
 30
0.000000
 11
0.635508
 21
0.559110
 31
0.000000
  0
LINE
  8
101
 10
0.430783
 20
0.559110
 30
0.000000
 11
0.430783
 21
0.590886
 31
0.000000
  0
LINE
  8
101
 10
0.430783
 20
0.590886
 30
0.000000
 11
0.425020
 21
0.596650
 31
0.000000
  0
LINE
  8
101
 10
0.425020
 20
0.596650
 30
0.000000
 11
0.389232
 21
0.596650
 31
0.000000
  0
LINE
  8
101
 10
0.389232
 20
0.596650
 30
0.000000
 11
0.389043
 21
0.596839
 31
0.000000
  0
LINE
  8
101
 10
0.389043
 20
0.596839
 30
0.000000
 11
0.386681
 21
0.596839
 31
0.000000
  0
LINE
  8
101
 10
0.386681
 20
0.596839
 30
0.000000
 11
0.284043
 21
0.596839
 31
0.000000
  0
LINE
  8
101
 10
0.284043
 20
0.596839
 30
0.000000
 11
0.266181
 21
0.614697
 31
0.000000
  0
LINE
  8
101
 10
0.266181
 20
0.614697
 30
0.000000
 11
0.265323
 21
0.615559
 31
0.000000
  0
LINE
  8
101
 10
0.265323
 20
0.615559
 30
0.000000
 11
0.259043
 21
0.621839
 31
0.000000
  0
LINE
  8
101
 10
0.259043
 20
0.621839
 30
0.000000
 11
0.258843
 21
0.621839
 31
0.000000
  0
LINE
  8
101
 10
0.258843
 20
0.621839
 30
0.000000
 11
0.246925
 21
0.633394
 31
0.000000
  0
LINE
  8
101
 10
0.246925
 20
0.633394
 30
0.000000
 11
0.246925
 21
0.672657
 31
0.000000
  0
LINE
  8
101
 10
0.246925
 20
0.672657
 30
0.000000
 11
0.241161
 21
0.678421
 31
0.000000
  0
LINE
  8
101
 10
0.241161
 20
0.678421
 30
0.000000
 11
0.118835
 21
0.678421
 31
0.000000
  0
LINE
  8
101
 10
0.118835
 20
0.678421
 30
0.000000
 11
0.113071
 21
0.672657
 31
0.000000
  0
LINE
  8
101
 10
0.113071
 20
0.672657
 30
0.000000
 11
0.113071
 21
0.605449
 31
0.000000
  0
LINE
  8
101
 10
0.113071
 20
0.605449
 30
0.000000
 11
0.118835
 21
0.599685
 31
0.000000
  0
LINE
  8
101
 10
0.118835
 20
0.599685
 30
0.000000
 11
0.218945
 21
0.599685
 31
0.000000
  0
LINE
  8
101
 10
0.218945
 20
0.599685
 30
0.000000
 11
0.234697
 21
0.584417
 31
0.000000
  0
LINE
  8
101
 10
0.234697
 20
0.584417
 30
0.000000
 11
0.253157
 21
0.565953
 31
0.000000
  0
LINE
  8
101
 10
0.253157
 20
0.565953
 30
0.000000
 11
0.265953
 21
0.553157
 31
0.000000
  0
LINE
  8
101
 10
0.265953
 20
0.553157
 30
0.000000
 11
0.386681
 21
0.553157
 31
0.000000
  0
LINE
  8
101
 10
0.386681
 20
0.553157
 30
0.000000
 11
0.389043
 21
0.553157
 31
0.000000
  0
LINE
  8
101
 10
0.389043
 20
0.553157
 30
0.000000
 11
0.389232
 21
0.553346
 31
0.000000
  0
LINE
  8
101
 10
0.389232
 20
0.553346
 30
0.000000
 11
0.425020
 21
0.553346
 31
0.000000
  0
LINE
  8
101
 10
0.425020
 20
0.553346
 30
0.000000
 11
0.430783
 21
0.559110
 31
0.000000
  0
LINE
  8
101
 10
0.635508
 20
0.609110
 30
0.000000
 11
0.635508
 21
0.640886
 31
0.000000
  0
LINE
  8
101
 10
0.635508
 20
0.640886
 30
0.000000
 11
0.629744
 21
0.646650
 31
0.000000
  0
LINE
  8
101
 10
0.629744
 20
0.646650
 30
0.000000
 11
0.534976
 21
0.646650
 31
0.000000
  0
LINE
  8
101
 10
0.534976
 20
0.646650
 30
0.000000
 11
0.529213
 21
0.640886
 31
0.000000
  0
LINE
  8
101
 10
0.529213
 20
0.640886
 30
0.000000
 11
0.529213
 21
0.609110
 31
0.000000
  0
LINE
  8
101
 10
0.529213
 20
0.609110
 30
0.000000
 11
0.534976
 21
0.603346
 31
0.000000
  0
LINE
  8
101
 10
0.534976
 20
0.603346
 30
0.000000
 11
0.629744
 21
0.603346
 31
0.000000
  0
LINE
  8
101
 10
0.629744
 20
0.603346
 30
0.000000
 11
0.635508
 21
0.609110
 31
0.000000
  0
LINE
  8
101
 10
0.635508
 20
0.509110
 30
0.000000
 11
0.635508
 21
0.540886
 31
0.000000
  0
LINE
  8
101
 10
0.635508
 20
0.540886
 30
0.000000
 11
0.629744
 21
0.546650
 31
0.000000
  0
LINE
  8
101
 10
0.629744
 20
0.546650
 30
0.000000
 11
0.534976
 21
0.546650
 31
0.000000
  0
LINE
  8
101
 10
0.534976
 20
0.546650
 30
0.000000
 11
0.529213
 21
0.540886
 31
0.000000
  0
LINE
  8
101
 10
0.529213
 20
0.540886
 30
0.000000
 11
0.529213
 21
0.509110
 31
0.000000
  0
LINE
  8
101
 10
0.529213
 20
0.509110
 30
0.000000
 11
0.534976
 21
0.503346
 31
0.000000
  0
LINE
  8
101
 10
0.534976
 20
0.503346
 30
0.000000
 11
0.629744
 21
0.503346
 31
0.000000
  0
LINE
  8
101
 10
0.629744
 20
0.503346
 30
0.000000
 11
0.635508
 21
0.509110
 31
0.000000
  0
LINE
  8
101
 10
0.635508
 20
0.459110
 30
0.000000
 11
0.635508
 21
0.490886
 31
0.000000
  0
LINE
  8
101
 10
0.635508
 20
0.490886
 30
0.000000
 11
0.629744
 21
0.496650
 31
0.000000
  0
LINE
  8
101
 10
0.629744
 20
0.496650
 30
0.000000
 11
0.534976
 21
0.496650
 31
0.000000
  0
LINE
  8
101
 10
0.534976
 20
0.496650
 30
0.000000
 11
0.529213
 21
0.490886
 31
0.000000
  0
LINE
  8
101
 10
0.529213
 20
0.490886
 30
0.000000
 11
0.529213
 21
0.459110
 31
0.000000
  0
LINE
  8
101
 10
0.529213
 20
0.459110
 30
0.000000
 11
0.534976
 21
0.453346
 31
0.000000
  0
LINE
  8
101
 10
0.534976
 20
0.453346
 30
0.000000
 11
0.629744
 21
0.453346
 31
0.000000
  0
LINE
  8
101
 10
0.629744
 20
0.453346
 30
0.000000
 11
0.635508
 21
0.459110
 31
0.000000
  0
LINE
  8
101
 10
0.430783
 20
0.459110
 30
0.000000
 11
0.430783
 21
0.490886
 31
0.000000
  0
LINE
  8
101
 10
0.430783
 20
0.490886
 30
0.000000
 11
0.425020
 21
0.496650
 31
0.000000
  0
LINE
  8
101
 10
0.425020
 20
0.496650
 30
0.000000
 11
0.386870
 21
0.496650
 31
0.000000
  0
LINE
  8
101
 10
0.386870
 20
0.496650
 30
0.000000
 11
0.386681
 21
0.496839
 31
0.000000
  0
LINE
  8
101
 10
0.386681
 20
0.496839
 30
0.000000
 11
0.304043
 21
0.496839
 31
0.000000
  0
LINE
  8
101
 10
0.304043
 20
0.496839
 30
0.000000
 11
0.285953
 21
0.496839
 31
0.000000
  0
LINE
  8
101
 10
0.285953
 20
0.496839
 30
0.000000
 11
0.187535
 21
0.398421
 31
0.000000
  0
LINE
  8
101
 10
0.187535
 20
0.398421
 30
0.000000
 11
0.118835
 21
0.398421
 31
0.000000
  0
LINE
  8
101
 10
0.118835
 20
0.398421
 30
0.000000
 11
0.113071
 21
0.392657
 31
0.000000
  0
LINE
  8
101
 10
0.113071
 20
0.392657
 30
0.000000
 11
0.113071
 21
0.325449
 31
0.000000
  0
LINE
  8
101
 10
0.113071
 20
0.325449
 30
0.000000
 11
0.118835
 21
0.319685
 31
0.000000
  0
LINE
  8
101
 10
0.118835
 20
0.319685
 30
0.000000
 11
0.241161
 21
0.319685
 31
0.000000
  0
LINE
  8
101
 10
0.241161
 20
0.319685
 30
0.000000
 11
0.246925
 21
0.325449
 31
0.000000
  0
LINE
  8
101
 10
0.246925
 20
0.325449
 30
0.000000
 11
0.246925
 21
0.392657
 31
0.000000
  0
LINE
  8
101
 10
0.246925
 20
0.392657
 30
0.000000
 11
0.245232
 21
0.394346
 31
0.000000
  0
LINE
  8
101
 10
0.245232
 20
0.394346
 30
0.000000
 11
0.304043
 21
0.453157
 31
0.000000
  0
LINE
  8
101
 10
0.304043
 20
0.453157
 30
0.000000
 11
0.386681
 21
0.453157
 31
0.000000
  0
LINE
  8
101
 10
0.386681
 20
0.453157
 30
0.000000
 11
0.386870
 21
0.453346
 31
0.000000
  0
LINE
  8
101
 10
0.386870
 20
0.453346
 30
0.000000
 11
0.425020
 21
0.453346
 31
0.000000
  0
LINE
  8
101
 10
0.425020
 20
0.453346
 30
0.000000
 11
0.430783
 21
0.459110
 31
0.000000
  0
LINE
  8
101
 10
0.430783
 20
0.509110
 30
0.000000
 11
0.430783
 21
0.540886
 31
0.000000
  0
LINE
  8
101
 10
0.430783
 20
0.540886
 30
0.000000
 11
0.425020
 21
0.546650
 31
0.000000
  0
LINE
  8
101
 10
0.425020
 20
0.546650
 30
0.000000
 11
0.399232
 21
0.546650
 31
0.000000
  0
LINE
  8
101
 10
0.399232
 20
0.546650
 30
0.000000
 11
0.399043
 21
0.546839
 31
0.000000
  0
LINE
  8
101
 10
0.399043
 20
0.546839
 30
0.000000
 11
0.386681
 21
0.546839
 31
0.000000
  0
LINE
  8
101
 10
0.386681
 20
0.546839
 30
0.000000
 11
0.246925
 21
0.546839
 31
0.000000
  0
LINE
  8
101
 10
0.246925
 20
0.546839
 30
0.000000
 11
0.246925
 21
0.554547
 31
0.000000
  0
LINE
  8
101
 10
0.246925
 20
0.554547
 30
0.000000
 11
0.241161
 21
0.560311
 31
0.000000
  0
LINE
  8
101
 10
0.241161
 20
0.560311
 30
0.000000
 11
0.118835
 21
0.560311
 31
0.000000
  0
LINE
  8
101
 10
0.118835
 20
0.560311
 30
0.000000
 11
0.113071
 21
0.554547
 31
0.000000
  0
LINE
  8
101
 10
0.113071
 20
0.554547
 30
0.000000
 11
0.113071
 21
0.487339
 31
0.000000
  0
LINE
  8
101
 10
0.113071
 20
0.487339
 30
0.000000
 11
0.118835
 21
0.481575
 31
0.000000
  0
LINE
  8
101
 10
0.118835
 20
0.481575
 30
0.000000
 11
0.241161
 21
0.481575
 31
0.000000
  0
LINE
  8
101
 10
0.241161
 20
0.481575
 30
0.000000
 11
0.246925
 21
0.487339
 31
0.000000
  0
LINE
  8
101
 10
0.246925
 20
0.487339
 30
0.000000
 11
0.246925
 21
0.503157
 31
0.000000
  0
LINE
  8
101
 10
0.246925
 20
0.503157
 30
0.000000
 11
0.386681
 21
0.503157
 31
0.000000
  0
LINE
  8
101
 10
0.386681
 20
0.503157
 30
0.000000
 11
0.399043
 21
0.503157
 31
0.000000
  0
LINE
  8
101
 10
0.399043
 20
0.503157
 30
0.000000
 11
0.399232
 21
0.503346
 31
0.000000
  0
LINE
  8
101
 10
0.399232
 20
0.503346
 30
0.000000
 11
0.425020
 21
0.503346
 31
0.000000
  0
LINE
  8
101
 10
0.425020
 20
0.503346
 30
0.000000
 11
0.430783
 21
0.509110
 31
0.000000
  0
LINE
  8
101
 10
0.635508
 20
0.409110
 30
0.000000
 11
0.635508
 21
0.440886
 31
0.000000
  0
LINE
  8
101
 10
0.635508
 20
0.440886
 30
0.000000
 11
0.629744
 21
0.446650
 31
0.000000
  0
LINE
  8
101
 10
0.629744
 20
0.446650
 30
0.000000
 11
0.596232
 21
0.446650
 31
0.000000
  0
LINE
  8
101
 10
0.596232
 20
0.446650
 30
0.000000
 11
0.596043
 21
0.446839
 31
0.000000
  0
LINE
  8
101
 10
0.596043
 20
0.446839
 30
0.000000
 11
0.591406
 21
0.446839
 31
0.000000
  0
LINE
  8
101
 10
0.591406
 20
0.446839
 30
0.000000
 11
0.512953
 21
0.446839
 31
0.000000
  0
LINE
  8
101
 10
0.512953
 20
0.446839
 30
0.000000
 11
0.500157
 21
0.434043
 31
0.000000
  0
LINE
  8
101
 10
0.500157
 20
0.434043
 30
0.000000
 11
0.483157
 21
0.417043
 31
0.000000
  0
LINE
  8
101
 10
0.483157
 20
0.417043
 30
0.000000
 11
0.483157
 21
0.398953
 31
0.000000
  0
LINE
  8
101
 10
0.483157
 20
0.398953
 30
0.000000
 11
0.483157
 21
0.332953
 31
0.000000
  0
LINE
  8
101
 10
0.483157
 20
0.332953
 30
0.000000
 11
0.495953
 21
0.320157
 31
0.000000
  0
LINE
  8
101
 10
0.495953
 20
0.320157
 30
0.000000
 11
0.513953
 21
0.302157
 31
0.000000
  0
LINE
  8
101
 10
0.513953
 20
0.302157
 30
0.000000
 11
0.532043
 21
0.302157
 31
0.000000
  0
LINE
  8
101
 10
0.532043
 20
0.302157
 30
0.000000
 11
0.571953
 21
0.302157
 31
0.000000
  0
LINE
  8
101
 10
0.571953
 20
0.302157
 30
0.000000
 11
0.690953
 21
0.183157
 31
0.000000
  0
LINE
  8
101
 10
0.690953
 20
0.183157
 30
0.000000
 11
0.709043
 21
0.183157
 31
0.000000
  0
LINE
  8
101
 10
0.709043
 20
0.183157
 30
0.000000
 11
0.785953
 21
0.183157
 31
0.000000
  0
LINE
  8
101
 10
0.785953
 20
0.183157
 30
0.000000
 11
0.804043
 21
0.183157
 31
0.000000
  0
LINE
  8
101
 10
0.804043
 20
0.183157
 30
0.000000
 11
0.824043
 21
0.203157
 31
0.000000
  0
LINE
  8
101
 10
0.824043
 20
0.203157
 30
0.000000
 11
0.836839
 21
0.215953
 31
0.000000
  0
LINE
  8
101
 10
0.836839
 20
0.215953
 30
0.000000
 11
0.836839
 21
0.306681
 31
0.000000
  0
LINE
  8
101
 10
0.836839
 20
0.306681
 30
0.000000
 11
0.836650
 21
0.306866
 31
0.000000
  0
LINE
  8
101
 10
0.836650
 20
0.306866
 30
0.000000
 11
0.836650
 21
0.345020
 31
0.000000
  0
LINE
  8
101
 10
0.836650
 20
0.345020
 30
0.000000
 11
0.830886
 21
0.350783
 31
0.000000
  0
LINE
  8
101
 10
0.830886
 20
0.350783
 30
0.000000
 11
0.799110
 21
0.350783
 31
0.000000
  0
LINE
  8
101
 10
0.799110
 20
0.350783
 30
0.000000
 11
0.793346
 21
0.345020
 31
0.000000
  0
LINE
  8
101
 10
0.793346
 20
0.345020
 30
0.000000
 11
0.793346
 21
0.306866
 31
0.000000
  0
LINE
  8
101
 10
0.793346
 20
0.306866
 30
0.000000
 11
0.793157
 21
0.306681
 31
0.000000
  0
LINE
  8
101
 10
0.793157
 20
0.306681
 30
0.000000
 11
0.793157
 21
0.234043
 31
0.000000
  0
LINE
  8
101
 10
0.793157
 20
0.234043
 30
0.000000
 11
0.785953
 21
0.226839
 31
0.000000
  0
LINE
  8
101
 10
0.785953
 20
0.226839
 30
0.000000
 11
0.709043
 21
0.226839
 31
0.000000
  0
LINE
  8
101
 10
0.709043
 20
0.226839
 30
0.000000
 11
0.602839
 21
0.333043
 31
0.000000
  0
LINE
  8
101
 10
0.602839
 20
0.333043
 30
0.000000
 11
0.590043
 21
0.345839
 31
0.000000
  0
LINE
  8
101
 10
0.590043
 20
0.345839
 30
0.000000
 11
0.532043
 21
0.345839
 31
0.000000
  0
LINE
  8
101
 10
0.532043
 20
0.345839
 30
0.000000
 11
0.526839
 21
0.351043
 31
0.000000
  0
LINE
  8
101
 10
0.526839
 20
0.351043
 30
0.000000
 11
0.526839
 21
0.398953
 31
0.000000
  0
LINE
  8
101
 10
0.526839
 20
0.398953
 30
0.000000
 11
0.531043
 21
0.403157
 31
0.000000
  0
LINE
  8
101
 10
0.531043
 20
0.403157
 30
0.000000
 11
0.591406
 21
0.403157
 31
0.000000
  0
LINE
  8
101
 10
0.591406
 20
0.403157
 30
0.000000
 11
0.596043
 21
0.403157
 31
0.000000
  0
LINE
  8
101
 10
0.596043
 20
0.403157
 30
0.000000
 11
0.596232
 21
0.403346
 31
0.000000
  0
LINE
  8
101
 10
0.596232
 20
0.403346
 30
0.000000
 11
0.629744
 21
0.403346
 31
0.000000
  0
LINE
  8
101
 10
0.629744
 20
0.403346
 30
0.000000
 11
0.635508
 21
0.409110
 31
0.000000
  0
LINE
  8
101
 10
0.430783
 20
0.359110
 30
0.000000
 11
0.430783
 21
0.390886
 31
0.000000
  0
LINE
  8
101
 10
0.430783
 20
0.390886
 30
0.000000
 11
0.425020
 21
0.396650
 31
0.000000
  0
LINE
  8
101
 10
0.425020
 20
0.396650
 30
0.000000
 11
0.386870
 21
0.396650
 31
0.000000
  0
LINE
  8
101
 10
0.386870
 20
0.396650
 30
0.000000
 11
0.386681
 21
0.396839
 31
0.000000
  0
LINE
  8
101
 10
0.386681
 20
0.396839
 30
0.000000
 11
0.368591
 21
0.396839
 31
0.000000
  0
LINE
  8
101
 10
0.368591
 20
0.396839
 30
0.000000
 11
0.368402
 21
0.396650
 31
0.000000
  0
LINE
  8
101
 10
0.368402
 20
0.396650
 30
0.000000
 11
0.330252
 21
0.396650
 31
0.000000
  0
LINE
  8
101
 10
0.330252
 20
0.396650
 30
0.000000
 11
0.324488
 21
0.390886
 31
0.000000
  0
LINE
  8
101
 10
0.324488
 20
0.390886
 30
0.000000
 11
0.324488
 21
0.359110
 31
0.000000
  0
LINE
  8
101
 10
0.324488
 20
0.359110
 30
0.000000
 11
0.330252
 21
0.353346
 31
0.000000
  0
LINE
  8
101
 10
0.330252
 20
0.353346
 30
0.000000
 11
0.358157
 21
0.353346
 31
0.000000
  0
LINE
  8
101
 10
0.358157
 20
0.353346
 30
0.000000
 11
0.358157
 21
0.314043
 31
0.000000
  0
LINE
  8
101
 10
0.358157
 20
0.314043
 30
0.000000
 11
0.358157
 21
0.295953
 31
0.000000
  0
LINE
  8
101
 10
0.358157
 20
0.295953
 30
0.000000
 11
0.383984
 21
0.270130
 31
0.000000
  0
LINE
  8
101
 10
0.383984
 20
0.270130
 30
0.000000
 11
0.378701
 21
0.264850
 31
0.000000
  0
LINE
  8
101
 10
0.378701
 20
0.264850
 30
0.000000
 11
0.378701
 21
0.171846
 31
0.000000
  0
LINE
  8
101
 10
0.378701
 20
0.171846
 30
0.000000
 11
0.402039
 21
0.148508
 31
0.000000
  0
LINE
  8
101
 10
0.402039
 20
0.148508
 30
0.000000
 11
0.435043
 21
0.148508
 31
0.000000
  0
LINE
  8
101
 10
0.435043
 20
0.148508
 30
0.000000
 11
0.458382
 21
0.171846
 31
0.000000
  0
LINE
  8
101
 10
0.458382
 20
0.171846
 30
0.000000
 11
0.458382
 21
0.264850
 31
0.000000
  0
LINE
  8
101
 10
0.458382
 20
0.264850
 30
0.000000
 11
0.435043
 21
0.288189
 31
0.000000
  0
LINE
  8
101
 10
0.435043
 20
0.288189
 30
0.000000
 11
0.427693
 21
0.288189
 31
0.000000
  0
LINE
  8
101
 10
0.427693
 20
0.288189
 30
0.000000
 11
0.401839
 21
0.314043
 31
0.000000
  0
LINE
  8
101
 10
0.401839
 20
0.314043
 30
0.000000
 11
0.401839
 21
0.353346
 31
0.000000
  0
LINE
  8
101
 10
0.401839
 20
0.353346
 30
0.000000
 11
0.425020
 21
0.353346
 31
0.000000
  0
LINE
  8
101
 10
0.425020
 20
0.353346
 30
0.000000
 11
0.430783
 21
0.359110
 31
0.000000
  0
LINE
  8
101
 10
0.719846
 20
0.860937
 30
0.000000
 11
0.719846
 21
0.955091
 31
0.000000
  0
LINE
  8
101
 10
0.719846
 20
0.955091
 30
0.000000
 11
0.714083
 21
0.960854
 31
0.000000
  0
LINE
  8
101
 10
0.714083
 20
0.960854
 30
0.000000
 11
0.663929
 21
0.960854
 31
0.000000
  0
LINE
  8
101
 10
0.663929
 20
0.960854
 30
0.000000
 11
0.658165
 21
0.955091
 31
0.000000
  0
LINE
  8
101
 10
0.658165
 20
0.955091
 30
0.000000
 11
0.658165
 21
0.860937
 31
0.000000
  0
LINE
  8
101
 10
0.658165
 20
0.860937
 30
0.000000
 11
0.663157
 21
0.855945
 31
0.000000
  0
LINE
  8
101
 10
0.663157
 20
0.855945
 30
0.000000
 11
0.663157
 21
0.805953
 31
0.000000
  0
LINE
  8
101
 10
0.663157
 20
0.805953
 30
0.000000
 11
0.675953
 21
0.793157
 31
0.000000
  0
LINE
  8
101
 10
0.675953
 20
0.793157
 30
0.000000
 11
0.683071
 21
0.793157
 31
0.000000
  0
LINE
  8
101
 10
0.683071
 20
0.793157
 30
0.000000
 11
0.683071
 21
0.765449
 31
0.000000
  0
LINE
  8
101
 10
0.683071
 20
0.765449
 30
0.000000
 11
0.688835
 21
0.759685
 31
0.000000
  0
LINE
  8
101
 10
0.688835
 20
0.759685
 30
0.000000
 11
0.811161
 21
0.759685
 31
0.000000
  0
LINE
  8
101
 10
0.811161
 20
0.759685
 30
0.000000
 11
0.816925
 21
0.765449
 31
0.000000
  0
LINE
  8
101
 10
0.816925
 20
0.765449
 30
0.000000
 11
0.816925
 21
0.773957
 31
0.000000
  0
LINE
  8
101
 10
0.816925
 20
0.773957
 30
0.000000
 11
0.837110
 21
0.773957
 31
0.000000
  0
LINE
  8
101
 10
0.837110
 20
0.773957
 30
0.000000
 11
0.837110
 21
0.747059
 31
0.000000
  0
LINE
  8
101
 10
0.837110
 20
0.747059
 30
0.000000
 11
0.842874
 21
0.741295
 31
0.000000
  0
LINE
  8
101
 10
0.842874
 20
0.741295
 30
0.000000
 11
0.907028
 21
0.741295
 31
0.000000
  0
LINE
  8
101
 10
0.907028
 20
0.741295
 30
0.000000
 11
0.912791
 21
0.747059
 31
0.000000
  0
LINE
  8
101
 10
0.912791
 20
0.747059
 30
0.000000
 11
0.912791
 21
0.811213
 31
0.000000
  0
LINE
  8
101
 10
0.912791
 20
0.811213
 30
0.000000
 11
0.907028
 21
0.816976
 31
0.000000
  0
LINE
  8
101
 10
0.907028
 20
0.816976
 30
0.000000
 11
0.867996
 21
0.816976
 31
0.000000
  0
LINE
  8
101
 10
0.867996
 20
0.816976
 30
0.000000
 11
0.867335
 21
0.817638
 31
0.000000
  0
LINE
  8
101
 10
0.867335
 20
0.817638
 30
0.000000
 11
0.849244
 21
0.817638
 31
0.000000
  0
LINE
  8
101
 10
0.849244
 20
0.817638
 30
0.000000
 11
0.816925
 21
0.817638
 31
0.000000
  0
LINE
  8
101
 10
0.816925
 20
0.817638
 30
0.000000
 11
0.816925
 21
0.832657
 31
0.000000
  0
LINE
  8
101
 10
0.816925
 20
0.832657
 30
0.000000
 11
0.811161
 21
0.838421
 31
0.000000
  0
LINE
  8
101
 10
0.811161
 20
0.838421
 30
0.000000
 11
0.706839
 21
0.838421
 31
0.000000
  0
LINE
  8
101
 10
0.706839
 20
0.838421
 30
0.000000
 11
0.706839
 21
0.855173
 31
0.000000
  0
LINE
  8
101
 10
0.706839
 20
0.855173
 30
0.000000
 11
0.714083
 21
0.855173
 31
0.000000
  0
LINE
  8
101
 10
0.714083
 20
0.855173
 30
0.000000
 11
0.719846
 21
0.860937
 31
0.000000
  0
LINE
  8
101
 10
0.810846
 20
0.860921
 30
0.000000
 11
0.810846
 21
0.955075
 31
0.000000
  0
LINE
  8
101
 10
0.810846
 20
0.955075
 30
0.000000
 11
0.805083
 21
0.960839
 31
0.000000
  0
LINE
  8
101
 10
0.805083
 20
0.960839
 30
0.000000
 11
0.754929
 21
0.960839
 31
0.000000
  0
LINE
  8
101
 10
0.754929
 20
0.960839
 30
0.000000
 11
0.749165
 21
0.955075
 31
0.000000
  0
LINE
  8
101
 10
0.749165
 20
0.955075
 30
0.000000
 11
0.749165
 21
0.860921
 31
0.000000
  0
LINE
  8
101
 10
0.749165
 20
0.860921
 30
0.000000
 11
0.754929
 21
0.855157
 31
0.000000
  0
LINE
  8
101
 10
0.754929
 20
0.855157
 30
0.000000
 11
0.805083
 21
0.855157
 31
0.000000
  0
LINE
  8
101
 10
0.805083
 20
0.855157
 30
0.000000
 11
0.810846
 21
0.860921
 31
0.000000
  0
LINE
  8
101
 10
0.335043
 20
0.288189
 30
0.000000
 11
0.311839
 21
0.288189
 31
0.000000
  0
LINE
  8
101
 10
0.311839
 20
0.288189
 30
0.000000
 11
0.311839
 21
0.385953
 31
0.000000
  0
LINE
  8
101
 10
0.311839
 20
0.385953
 30
0.000000
 11
0.329043
 21
0.403157
 31
0.000000
  0
LINE
  8
101
 10
0.329043
 20
0.403157
 30
0.000000
 11
0.386681
 21
0.403157
 31
0.000000
  0
LINE
  8
101
 10
0.386681
 20
0.403157
 30
0.000000
 11
0.386870
 21
0.403346
 31
0.000000
  0
LINE
  8
101
 10
0.386870
 20
0.403346
 30
0.000000
 11
0.425020
 21
0.403346
 31
0.000000
  0
LINE
  8
101
 10
0.425020
 20
0.403346
 30
0.000000
 11
0.430783
 21
0.409110
 31
0.000000
  0
LINE
  8
101
 10
0.430783
 20
0.409110
 30
0.000000
 11
0.430783
 21
0.440886
 31
0.000000
  0
LINE
  8
101
 10
0.430783
 20
0.440886
 30
0.000000
 11
0.425020
 21
0.446650
 31
0.000000
  0
LINE
  8
101
 10
0.425020
 20
0.446650
 30
0.000000
 11
0.386870
 21
0.446650
 31
0.000000
  0
LINE
  8
101
 10
0.386870
 20
0.446650
 30
0.000000
 11
0.386681
 21
0.446839
 31
0.000000
  0
LINE
  8
101
 10
0.386681
 20
0.446839
 30
0.000000
 11
0.329043
 21
0.446839
 31
0.000000
  0
LINE
  8
101
 10
0.329043
 20
0.446839
 30
0.000000
 11
0.310953
 21
0.446839
 31
0.000000
  0
LINE
  8
101
 10
0.310953
 20
0.446839
 30
0.000000
 11
0.280953
 21
0.416839
 31
0.000000
  0
LINE
  8
101
 10
0.280953
 20
0.416839
 30
0.000000
 11
0.268157
 21
0.404043
 31
0.000000
  0
LINE
  8
101
 10
0.268157
 20
0.404043
 30
0.000000
 11
0.268157
 21
0.279043
 31
0.000000
  0
LINE
  8
101
 10
0.268157
 20
0.279043
 30
0.000000
 11
0.268157
 21
0.264366
 31
0.000000
  0
LINE
  8
101
 10
0.268157
 20
0.264366
 30
0.000000
 11
0.268157
 21
0.260953
 31
0.000000
  0
LINE
  8
101
 10
0.268157
 20
0.260953
 30
0.000000
 11
0.272374
 21
0.256736
 31
0.000000
  0
LINE
  8
101
 10
0.272374
 20
0.256736
 30
0.000000
 11
0.278701
 21
0.245287
 31
0.000000
  0
LINE
  8
101
 10
0.278701
 20
0.245287
 30
0.000000
 11
0.278701
 21
0.171846
 31
0.000000
  0
LINE
  8
101
 10
0.278701
 20
0.171846
 30
0.000000
 11
0.302039
 21
0.148508
 31
0.000000
  0
LINE
  8
101
 10
0.302039
 20
0.148508
 30
0.000000
 11
0.335043
 21
0.148508
 31
0.000000
  0
LINE
  8
101
 10
0.335043
 20
0.148508
 30
0.000000
 11
0.358382
 21
0.171846
 31
0.000000
  0
LINE
  8
101
 10
0.358382
 20
0.171846
 30
0.000000
 11
0.358382
 21
0.264850
 31
0.000000
  0
LINE
  8
101
 10
0.358382
 20
0.264850
 30
0.000000
 11
0.335043
 21
0.288189
 31
0.000000
  0
LINE
  8
101
 10
1.378496
 20
1.000157
 30
0.000000
 11
1.411500
 21
1.000157
 31
0.000000
  0
LINE
  8
101
 10
1.411500
 20
1.000157
 30
0.000000
 11
1.413157
 21
1.001819
 31
0.000000
  0
LINE
  8
101
 10
1.413157
 20
1.001819
 30
0.000000
 11
1.413157
 21
0.174043
 31
0.000000
  0
LINE
  8
101
 10
1.413157
 20
0.174043
 30
0.000000
 11
1.350953
 21
0.111839
 31
0.000000
  0
LINE
  8
101
 10
1.350953
 20
0.111839
 30
0.000000
 11
1.102839
 21
0.111839
 31
0.000000
  0
LINE
  8
101
 10
1.102839
 20
0.111839
 30
0.000000
 11
1.102839
 21
0.115673
 31
0.000000
  0
LINE
  8
101
 10
1.102839
 20
0.115673
 30
0.000000
 11
1.080673
 21
0.137839
 31
0.000000
  0
LINE
  8
101
 10
1.080673
 20
0.137839
 30
0.000000
 11
1.058043
 21
0.137839
 31
0.000000
  0
LINE
  8
101
 10
1.058043
 20
0.137839
 30
0.000000
 11
1.031839
 21
0.164043
 31
0.000000
  0
LINE
  8
101
 10
1.031839
 20
0.164043
 30
0.000000
 11
1.031839
 21
0.315953
 31
0.000000
  0
LINE
  8
101
 10
1.031839
 20
0.315953
 30
0.000000
 11
1.031839
 21
0.334043
 31
0.000000
  0
LINE
  8
101
 10
1.031839
 20
0.334043
 30
0.000000
 11
0.936839
 21
0.429043
 31
0.000000
  0
LINE
  8
101
 10
0.936839
 20
0.429043
 30
0.000000
 11
0.936839
 21
0.511406
 31
0.000000
  0
LINE
  8
101
 10
0.936839
 20
0.511406
 30
0.000000
 11
0.936650
 21
0.511591
 31
0.000000
  0
LINE
  8
101
 10
0.936650
 20
0.511591
 30
0.000000
 11
0.936650
 21
0.549744
 31
0.000000
  0
LINE
  8
101
 10
0.936650
 20
0.549744
 30
0.000000
 11
0.930886
 21
0.555508
 31
0.000000
  0
LINE
  8
101
 10
0.930886
 20
0.555508
 30
0.000000
 11
0.899110
 21
0.555508
 31
0.000000
  0
LINE
  8
101
 10
0.899110
 20
0.555508
 30
0.000000
 11
0.893346
 21
0.549744
 31
0.000000
  0
LINE
  8
101
 10
0.893346
 20
0.549744
 30
0.000000
 11
0.893346
 21
0.511591
 31
0.000000
  0
LINE
  8
101
 10
0.893346
 20
0.511591
 30
0.000000
 11
0.893157
 21
0.511406
 31
0.000000
  0
LINE
  8
101
 10
0.893157
 20
0.511406
 30
0.000000
 11
0.893157
 21
0.410953
 31
0.000000
  0
LINE
  8
101
 10
0.893157
 20
0.410953
 30
0.000000
 11
0.905953
 21
0.398157
 31
0.000000
  0
LINE
  8
101
 10
0.905953
 20
0.398157
 30
0.000000
 11
0.988157
 21
0.315953
 31
0.000000
  0
LINE
  8
101
 10
0.988157
 20
0.315953
 30
0.000000
 11
0.988157
 21
0.145953
 31
0.000000
  0
LINE
  8
101
 10
0.988157
 20
0.145953
 30
0.000000
 11
1.000953
 21
0.133157
 31
0.000000
  0
LINE
  8
101
 10
1.000953
 20
0.133157
 30
0.000000
 11
1.027157
 21
0.106953
 31
0.000000
  0
LINE
  8
101
 10
1.027157
 20
0.106953
 30
0.000000
 11
1.027157
 21
0.084323
 31
0.000000
  0
LINE
  8
101
 10
1.027157
 20
0.084323
 30
0.000000
 11
1.049323
 21
0.062157
 31
0.000000
  0
LINE
  8
101
 10
1.049323
 20
0.062157
 30
0.000000
 11
1.080673
 21
0.062157
 31
0.000000
  0
LINE
  8
101
 10
1.080673
 20
0.062157
 30
0.000000
 11
1.081669
 21
0.063157
 31
0.000000
  0
LINE
  8
101
 10
1.081669
 20
0.063157
 30
0.000000
 11
1.089043
 21
0.063157
 31
0.000000
  0
LINE
  8
101
 10
1.089043
 20
0.063157
 30
0.000000
 11
1.092933
 21
0.067051
 31
0.000000
  0
LINE
  8
101
 10
1.092933
 20
0.067051
 30
0.000000
 11
1.095150
 21
0.068157
 31
0.000000
  0
LINE
  8
101
 10
1.095150
 20
0.068157
 30
0.000000
 11
1.099043
 21
0.068157
 31
0.000000
  0
LINE
  8
101
 10
1.099043
 20
0.068157
 30
0.000000
 11
1.369043
 21
0.068157
 31
0.000000
  0
LINE
  8
101
 10
1.369043
 20
0.068157
 30
0.000000
 11
1.381839
 21
0.080953
 31
0.000000
  0
LINE
  8
101
 10
1.381839
 20
0.080953
 30
0.000000
 11
1.456839
 21
0.155953
 31
0.000000
  0
LINE
  8
101
 10
1.456839
 20
0.155953
 30
0.000000
 11
1.456839
 21
0.174043
 31
0.000000
  0
LINE
  8
101
 10
1.456839
 20
0.174043
 30
0.000000
 11
1.456839
 21
1.019043
 31
0.000000
  0
LINE
  8
101
 10
1.456839
 20
1.019043
 30
0.000000
 11
1.451969
 21
1.023909
 31
0.000000
  0
LINE
  8
101
 10
1.451969
 20
1.023909
 30
0.000000
 11
1.434839
 21
1.049606
 31
0.000000
  0
LINE
  8
101
 10
1.434839
 20
1.049606
 30
0.000000
 11
1.434839
 21
1.116500
 31
0.000000
  0
LINE
  8
101
 10
1.434839
 20
1.116500
 30
0.000000
 11
1.411500
 21
1.139839
 31
0.000000
  0
LINE
  8
101
 10
1.411500
 20
1.139839
 30
0.000000
 11
1.378496
 21
1.139839
 31
0.000000
  0
LINE
  8
101
 10
1.378496
 20
1.139839
 30
0.000000
 11
1.355157
 21
1.116500
 31
0.000000
  0
LINE
  8
101
 10
1.355157
 20
1.116500
 30
0.000000
 11
1.355157
 21
1.023496
 31
0.000000
  0
LINE
  8
101
 10
1.355157
 20
1.023496
 30
0.000000
 11
1.378496
 21
1.000157
 31
0.000000
  0
LINE
  8
101
 10
1.178496
 20
1.000157
 30
0.000000
 11
1.208957
 21
1.000157
 31
0.000000
  0
LINE
  8
101
 10
1.208957
 20
1.000157
 30
0.000000
 11
1.303157
 21
0.905953
 31
0.000000
  0
LINE
  8
101
 10
1.303157
 20
0.905953
 30
0.000000
 11
1.303157
 21
0.704043
 31
0.000000
  0
LINE
  8
101
 10
1.303157
 20
0.704043
 30
0.000000
 11
1.108157
 21
0.509043
 31
0.000000
  0
LINE
  8
101
 10
1.108157
 20
0.509043
 30
0.000000
 11
1.108157
 21
0.490953
 31
0.000000
  0
LINE
  8
101
 10
1.108157
 20
0.490953
 30
0.000000
 11
1.108157
 21
0.310953
 31
0.000000
  0
LINE
  8
101
 10
1.108157
 20
0.310953
 30
0.000000
 11
1.120953
 21
0.298157
 31
0.000000
  0
LINE
  8
101
 10
1.120953
 20
0.298157
 30
0.000000
 11
1.170157
 21
0.248953
 31
0.000000
  0
LINE
  8
101
 10
1.170157
 20
0.248953
 30
0.000000
 11
1.170157
 21
0.233496
 31
0.000000
  0
LINE
  8
101
 10
1.170157
 20
0.233496
 30
0.000000
 11
1.193496
 21
0.210157
 31
0.000000
  0
LINE
  8
101
 10
1.193496
 20
0.210157
 30
0.000000
 11
1.286500
 21
0.210157
 31
0.000000
  0
LINE
  8
101
 10
1.286500
 20
0.210157
 30
0.000000
 11
1.309839
 21
0.233496
 31
0.000000
  0
LINE
  8
101
 10
1.309839
 20
0.233496
 30
0.000000
 11
1.309839
 21
0.266500
 31
0.000000
  0
LINE
  8
101
 10
1.309839
 20
0.266500
 30
0.000000
 11
1.286500
 21
0.289839
 31
0.000000
  0
LINE
  8
101
 10
1.286500
 20
0.289839
 30
0.000000
 11
1.193496
 21
0.289839
 31
0.000000
  0
LINE
  8
101
 10
1.193496
 20
0.289839
 30
0.000000
 11
1.192272
 21
0.288610
 31
0.000000
  0
LINE
  8
101
 10
1.192272
 20
0.288610
 30
0.000000
 11
1.151839
 21
0.329043
 31
0.000000
  0
LINE
  8
101
 10
1.151839
 20
0.329043
 30
0.000000
 11
1.151839
 21
0.490953
 31
0.000000
  0
LINE
  8
101
 10
1.151839
 20
0.490953
 30
0.000000
 11
1.334043
 21
0.673157
 31
0.000000
  0
LINE
  8
101
 10
1.334043
 20
0.673157
 30
0.000000
 11
1.346839
 21
0.685953
 31
0.000000
  0
LINE
  8
101
 10
1.346839
 20
0.685953
 30
0.000000
 11
1.346839
 21
0.905953
 31
0.000000
  0
LINE
  8
101
 10
1.346839
 20
0.905953
 30
0.000000
 11
1.346839
 21
0.924043
 31
0.000000
  0
LINE
  8
101
 10
1.346839
 20
0.924043
 30
0.000000
 11
1.234839
 21
1.036039
 31
0.000000
  0
LINE
  8
101
 10
1.234839
 20
1.036039
 30
0.000000
 11
1.234839
 21
1.116500
 31
0.000000
  0
LINE
  8
101
 10
1.234839
 20
1.116500
 30
0.000000
 11
1.211500
 21
1.139839
 31
0.000000
  0
LINE
  8
101
 10
1.211500
 20
1.139839
 30
0.000000
 11
1.178496
 21
1.139839
 31
0.000000
  0
LINE
  8
101
 10
1.178496
 20
1.139839
 30
0.000000
 11
1.155157
 21
1.116500
 31
0.000000
  0
LINE
  8
101
 10
1.155157
 20
1.116500
 30
0.000000
 11
1.155157
 21
1.023496
 31
0.000000
  0
LINE
  8
101
 10
1.155157
 20
1.023496
 30
0.000000
 11
1.178496
 21
1.000157
 31
0.000000
  0
LINE
  8
101
 10
0.886650
 20
0.454976
 30
0.000000
 11
0.886650
 21
0.549744
 31
0.000000
  0
LINE
  8
101
 10
0.886650
 20
0.549744
 30
0.000000
 11
0.880886
 21
0.555508
 31
0.000000
  0
LINE
  8
101
 10
0.880886
 20
0.555508
 30
0.000000
 11
0.849110
 21
0.555508
 31
0.000000
  0
LINE
  8
101
 10
0.849110
 20
0.555508
 30
0.000000
 11
0.843346
 21
0.549744
 31
0.000000
  0
LINE
  8
101
 10
0.843346
 20
0.549744
 30
0.000000
 11
0.843346
 21
0.454976
 31
0.000000
  0
LINE
  8
101
 10
0.843346
 20
0.454976
 30
0.000000
 11
0.849110
 21
0.449213
 31
0.000000
  0
LINE
  8
101
 10
0.849110
 20
0.449213
 30
0.000000
 11
0.880886
 21
0.449213
 31
0.000000
  0
LINE
  8
101
 10
0.880886
 20
0.449213
 30
0.000000
 11
0.886650
 21
0.454976
 31
0.000000
  0
LINE
  8
101
 10
0.786650
 20
0.250252
 30
0.000000
 11
0.786650
 21
0.288402
 31
0.000000
  0
LINE
  8
101
 10
0.786650
 20
0.288402
 30
0.000000
 11
0.786839
 21
0.288591
 31
0.000000
  0
LINE
  8
101
 10
0.786839
 20
0.288591
 30
0.000000
 11
0.786839
 21
0.339043
 31
0.000000
  0
LINE
  8
101
 10
0.786839
 20
0.339043
 30
0.000000
 11
0.786650
 21
0.339232
 31
0.000000
  0
LINE
  8
101
 10
0.786650
 20
0.339232
 30
0.000000
 11
0.786650
 21
0.345020
 31
0.000000
  0
LINE
  8
101
 10
0.786650
 20
0.345020
 30
0.000000
 11
0.780886
 21
0.350783
 31
0.000000
  0
LINE
  8
101
 10
0.780886
 20
0.350783
 30
0.000000
 11
0.775098
 21
0.350783
 31
0.000000
  0
LINE
  8
101
 10
0.775098
 20
0.350783
 30
0.000000
 11
0.774043
 21
0.351839
 31
0.000000
  0
LINE
  8
101
 10
0.774043
 20
0.351839
 30
0.000000
 11
0.755953
 21
0.351839
 31
0.000000
  0
LINE
  8
101
 10
0.755953
 20
0.351839
 30
0.000000
 11
0.714043
 21
0.351839
 31
0.000000
  0
LINE
  8
101
 10
0.714043
 20
0.351839
 30
0.000000
 11
0.669043
 21
0.396839
 31
0.000000
  0
LINE
  8
101
 10
0.669043
 20
0.396839
 30
0.000000
 11
0.650953
 21
0.396839
 31
0.000000
  0
LINE
  8
101
 10
0.650953
 20
0.396839
 30
0.000000
 11
0.573315
 21
0.396839
 31
0.000000
  0
LINE
  8
101
 10
0.573315
 20
0.396839
 30
0.000000
 11
0.573126
 21
0.396650
 31
0.000000
  0
LINE
  8
101
 10
0.573126
 20
0.396650
 30
0.000000
 11
0.534976
 21
0.396650
 31
0.000000
  0
LINE
  8
101
 10
0.534976
 20
0.396650
 30
0.000000
 11
0.529213
 21
0.390886
 31
0.000000
  0
LINE
  8
101
 10
0.529213
 20
0.390886
 30
0.000000
 11
0.529213
 21
0.359110
 31
0.000000
  0
LINE
  8
101
 10
0.529213
 20
0.359110
 30
0.000000
 11
0.534976
 21
0.353346
 31
0.000000
  0
LINE
  8
101
 10
0.534976
 20
0.353346
 30
0.000000
 11
0.573126
 21
0.353346
 31
0.000000
  0
LINE
  8
101
 10
0.573126
 20
0.353346
 30
0.000000
 11
0.573315
 21
0.353157
 31
0.000000
  0
LINE
  8
101
 10
0.573315
 20
0.353157
 30
0.000000
 11
0.650953
 21
0.353157
 31
0.000000
  0
LINE
  8
101
 10
0.650953
 20
0.353157
 30
0.000000
 11
0.683157
 21
0.320953
 31
0.000000
  0
LINE
  8
101
 10
0.683157
 20
0.320953
 30
0.000000
 11
0.695953
 21
0.308157
 31
0.000000
  0
LINE
  8
101
 10
0.695953
 20
0.308157
 30
0.000000
 11
0.743157
 21
0.308157
 31
0.000000
  0
LINE
  8
101
 10
0.743157
 20
0.308157
 30
0.000000
 11
0.743157
 21
0.288591
 31
0.000000
  0
LINE
  8
101
 10
0.743157
 20
0.288591
 30
0.000000
 11
0.743346
 21
0.288402
 31
0.000000
  0
LINE
  8
101
 10
0.743346
 20
0.288402
 30
0.000000
 11
0.743346
 21
0.250252
 31
0.000000
  0
LINE
  8
101
 10
0.743346
 20
0.250252
 30
0.000000
 11
0.749110
 21
0.244488
 31
0.000000
  0
LINE
  8
101
 10
0.749110
 20
0.244488
 30
0.000000
 11
0.780886
 21
0.244488
 31
0.000000
  0
LINE
  8
101
 10
0.780886
 20
0.244488
 30
0.000000
 11
0.786650
 21
0.250252
 31
0.000000
  0
LINE
  8
101
 10
0.578421
 20
0.938835
 30
0.000000
 11
0.578421
 21
1.061161
 31
0.000000
  0
LINE
  8
101
 10
0.578421
 20
1.061161
 30
0.000000
 11
0.572657
 21
1.066925
 31
0.000000
  0
LINE
  8
101
 10
0.572657
 20
1.066925
 30
0.000000
 11
0.567929
 21
1.066925
 31
0.000000
  0
LINE
  8
101
 10
0.567929
 20
1.066925
 30
0.000000
 11
0.567929
 21
1.131972
 31
0.000000
  0
LINE
  8
101
 10
0.567929
 20
1.131972
 30
0.000000
 11
0.587260
 21
1.151303
 31
0.000000
  0
LINE
  8
101
 10
0.587260
 20
1.151303
 30
0.000000
 11
0.701260
 21
1.151303
 31
0.000000
  0
LINE
  8
101
 10
0.701260
 20
1.151303
 30
0.000000
 11
0.701260
 21
1.147370
 31
0.000000
  0
LINE
  8
101
 10
0.701260
 20
1.147370
 30
0.000000
 11
0.707024
 21
1.141606
 31
0.000000
  0
LINE
  8
101
 10
0.707024
 20
1.141606
 30
0.000000
 11
0.852972
 21
1.141606
 31
0.000000
  0
LINE
  8
101
 10
0.852972
 20
1.141606
 30
0.000000
 11
0.858736
 21
1.147370
 31
0.000000
  0
LINE
  8
101
 10
0.858736
 20
1.147370
 30
0.000000
 11
0.858736
 21
1.157165
 31
0.000000
  0
LINE
  8
101
 10
0.858736
 20
1.157165
 30
0.000000
 11
1.022087
 21
1.157165
 31
0.000000
  0
LINE
  8
101
 10
1.022087
 20
1.157165
 30
0.000000
 11
1.058957
 21
1.120295
 31
0.000000
  0
LINE
  8
101
 10
1.058957
 20
1.120295
 30
0.000000
 11
1.055157
 21
1.116500
 31
0.000000
  0
LINE
  8
101
 10
1.055157
 20
1.116500
 30
0.000000
 11
1.055157
 21
1.023496
 31
0.000000
  0
LINE
  8
101
 10
1.055157
 20
1.023496
 30
0.000000
 11
1.078157
 21
1.000496
 31
0.000000
  0
LINE
  8
101
 10
1.078157
 20
1.000496
 30
0.000000
 11
1.078157
 21
0.925953
 31
0.000000
  0
LINE
  8
101
 10
1.078157
 20
0.925953
 30
0.000000
 11
1.090953
 21
0.913157
 31
0.000000
  0
LINE
  8
101
 10
1.090953
 20
0.913157
 30
0.000000
 11
1.135591
 21
0.868520
 31
0.000000
  0
LINE
  8
101
 10
1.135591
 20
0.868520
 30
0.000000
 11
1.135591
 21
0.841476
 31
0.000000
  0
LINE
  8
101
 10
1.135591
 20
0.841476
 30
0.000000
 11
1.090953
 21
0.796839
 31
0.000000
  0
LINE
  8
101
 10
1.090953
 20
0.796839
 30
0.000000
 11
0.990953
 21
0.796839
 31
0.000000
  0
LINE
  8
101
 10
0.990953
 20
0.796839
 30
0.000000
 11
0.978157
 21
0.784043
 31
0.000000
  0
LINE
  8
101
 10
0.978157
 20
0.784043
 30
0.000000
 11
0.895953
 21
0.701839
 31
0.000000
  0
LINE
  8
101
 10
0.895953
 20
0.701839
 30
0.000000
 11
0.819035
 21
0.701839
 31
0.000000
  0
LINE
  8
101
 10
0.819035
 20
0.701839
 30
0.000000
 11
0.816925
 21
0.701866
 31
0.000000
  0
LINE
  8
101
 10
0.816925
 20
0.701866
 30
0.000000
 11
0.816925
 21
0.714547
 31
0.000000
  0
LINE
  8
101
 10
0.816925
 20
0.714547
 30
0.000000
 11
0.811161
 21
0.720311
 31
0.000000
  0
LINE
  8
101
 10
0.811161
 20
0.720311
 30
0.000000
 11
0.688835
 21
0.720311
 31
0.000000
  0
LINE
  8
101
 10
0.688835
 20
0.720311
 30
0.000000
 11
0.683071
 21
0.714547
 31
0.000000
  0
LINE
  8
101
 10
0.683071
 20
0.714547
 30
0.000000
 11
0.683071
 21
0.696839
 31
0.000000
  0
LINE
  8
101
 10
0.683071
 20
0.696839
 30
0.000000
 11
0.660953
 21
0.696839
 31
0.000000
  0
LINE
  8
101
 10
0.660953
 20
0.696839
 30
0.000000
 11
0.573315
 21
0.696839
 31
0.000000
  0
LINE
  8
101
 10
0.573315
 20
0.696839
 30
0.000000
 11
0.560953
 21
0.696839
 31
0.000000
  0
LINE
  8
101
 10
0.560953
 20
0.696839
 30
0.000000
 11
0.510953
 21
0.696839
 31
0.000000
  0
LINE
  8
101
 10
0.510953
 20
0.696839
 30
0.000000
 11
0.498157
 21
0.684043
 31
0.000000
  0
LINE
  8
101
 10
0.498157
 20
0.684043
 30
0.000000
 11
0.438157
 21
0.624043
 31
0.000000
  0
LINE
  8
101
 10
0.438157
 20
0.624043
 30
0.000000
 11
0.438157
 21
0.605953
 31
0.000000
  0
LINE
  8
101
 10
0.438157
 20
0.605953
 30
0.000000
 11
0.438157
 21
0.302528
 31
0.000000
  0
LINE
  8
101
 10
0.438157
 20
0.302528
 30
0.000000
 11
0.450953
 21
0.289732
 31
0.000000
  0
LINE
  8
101
 10
0.450953
 20
0.289732
 30
0.000000
 11
0.478701
 21
0.261988
 31
0.000000
  0
LINE
  8
101
 10
0.478701
 20
0.261988
 30
0.000000
 11
0.478701
 21
0.171846
 31
0.000000
  0
LINE
  8
101
 10
0.478701
 20
0.171846
 30
0.000000
 11
0.489394
 21
0.161154
 31
0.000000
  0
LINE
  8
101
 10
0.489394
 20
0.161154
 30
0.000000
 11
0.464087
 21
0.135846
 31
0.000000
  0
LINE
  8
101
 10
0.464087
 20
0.135846
 30
0.000000
 11
0.260551
 21
0.136516
 31
0.000000
  0
LINE
  8
101
 10
0.260551
 20
0.136516
 30
0.000000
 11
0.195488
 21
0.201575
 31
0.000000
  0
LINE
  8
101
 10
0.195488
 20
0.201575
 30
0.000000
 11
0.241161
 21
0.201575
 31
0.000000
  0
LINE
  8
101
 10
0.241161
 20
0.201575
 30
0.000000
 11
0.246925
 21
0.207339
 31
0.000000
  0
LINE
  8
101
 10
0.246925
 20
0.207339
 30
0.000000
 11
0.246925
 21
0.274547
 31
0.000000
  0
LINE
  8
101
 10
0.246925
 20
0.274547
 30
0.000000
 11
0.241161
 21
0.280311
 31
0.000000
  0
LINE
  8
101
 10
0.241161
 20
0.280311
 30
0.000000
 11
0.118835
 21
0.280311
 31
0.000000
  0
LINE
  8
101
 10
0.118835
 20
0.280311
 30
0.000000
 11
0.113071
 21
0.274547
 31
0.000000
  0
LINE
  8
101
 10
0.113071
 20
0.274547
 30
0.000000
 11
0.113071
 21
0.207339
 31
0.000000
  0
LINE
  8
101
 10
0.113071
 20
0.207339
 30
0.000000
 11
0.118835
 21
0.201575
 31
0.000000
  0
LINE
  8
101
 10
0.118835
 20
0.201575
 30
0.000000
 11
0.133720
 21
0.201575
 31
0.000000
  0
LINE
  8
101
 10
0.133720
 20
0.201575
 30
0.000000
 11
0.240756
 21
0.094547
 31
0.000000
  0
LINE
  8
101
 10
0.240756
 20
0.094547
 30
0.000000
 11
0.242402
 21
0.092898
 31
0.000000
  0
LINE
  8
101
 10
0.242402
 20
0.092898
 30
0.000000
 11
0.242433
 21
0.092866
 31
0.000000
  0
LINE
  8
101
 10
0.242433
 20
0.092866
 30
0.000000
 11
0.251953
 21
0.092866
 31
0.000000
  0
LINE
  8
101
 10
0.251953
 20
0.092866
 30
0.000000
 11
0.464031
 21
0.092169
 31
0.000000
  0
LINE
  8
101
 10
0.464031
 20
0.092169
 30
0.000000
 11
0.464059
 21
0.092138
 31
0.000000
  0
LINE
  8
101
 10
0.464059
 20
0.092138
 30
0.000000
 11
0.482150
 21
0.092138
 31
0.000000
  0
LINE
  8
101
 10
0.482150
 20
0.092138
 30
0.000000
 11
0.488547
 21
0.098535
 31
0.000000
  0
LINE
  8
101
 10
0.488547
 20
0.098535
 30
0.000000
 11
0.492051
 21
0.102043
 31
0.000000
  0
LINE
  8
101
 10
0.492051
 20
0.102043
 30
0.000000
 11
0.494945
 21
0.104933
 31
0.000000
  0
LINE
  8
101
 10
0.494945
 20
0.104933
 30
0.000000
 11
0.547811
 21
0.157803
 31
0.000000
  0
LINE
  8
101
 10
0.547811
 20
0.157803
 30
0.000000
 11
0.548657
 21
0.158650
 31
0.000000
  0
LINE
  8
101
 10
0.548657
 20
0.158650
 30
0.000000
 11
0.548657
 21
0.162122
 31
0.000000
  0
LINE
  8
101
 10
0.548657
 20
0.162122
 30
0.000000
 11
0.558382
 21
0.171846
 31
0.000000
  0
LINE
  8
101
 10
0.558382
 20
0.171846
 30
0.000000
 11
0.558382
 21
0.264850
 31
0.000000
  0
LINE
  8
101
 10
0.558382
 20
0.264850
 30
0.000000
 11
0.535043
 21
0.288189
 31
0.000000
  0
LINE
  8
101
 10
0.535043
 20
0.288189
 30
0.000000
 11
0.514264
 21
0.288189
 31
0.000000
  0
LINE
  8
101
 10
0.514264
 20
0.288189
 30
0.000000
 11
0.481839
 21
0.320618
 31
0.000000
  0
LINE
  8
101
 10
0.481839
 20
0.320618
 30
0.000000
 11
0.481839
 21
0.605953
 31
0.000000
  0
LINE
  8
101
 10
0.481839
 20
0.605953
 30
0.000000
 11
0.529043
 21
0.653157
 31
0.000000
  0
LINE
  8
101
 10
0.529043
 20
0.653157
 30
0.000000
 11
0.560953
 21
0.653157
 31
0.000000
  0
LINE
  8
101
 10
0.560953
 20
0.653157
 30
0.000000
 11
0.573315
 21
0.653157
 31
0.000000
  0
LINE
  8
101
 10
0.573315
 20
0.653157
 30
0.000000
 11
0.648157
 21
0.653157
 31
0.000000
  0
LINE
  8
101
 10
0.648157
 20
0.653157
 30
0.000000
 11
0.648157
 21
0.430953
 31
0.000000
  0
LINE
  8
101
 10
0.648157
 20
0.430953
 30
0.000000
 11
0.660953
 21
0.418157
 31
0.000000
  0
LINE
  8
101
 10
0.660953
 20
0.418157
 30
0.000000
 11
0.685953
 21
0.393157
 31
0.000000
  0
LINE
  8
101
 10
0.685953
 20
0.393157
 30
0.000000
 11
0.704043
 21
0.393157
 31
0.000000
  0
LINE
  8
101
 10
0.704043
 20
0.393157
 30
0.000000
 11
0.809043
 21
0.393157
 31
0.000000
  0
LINE
  8
101
 10
0.809043
 20
0.393157
 30
0.000000
 11
0.821839
 21
0.405953
 31
0.000000
  0
LINE
  8
101
 10
0.821839
 20
0.405953
 30
0.000000
 11
0.836839
 21
0.420953
 31
0.000000
  0
LINE
  8
101
 10
0.836839
 20
0.420953
 30
0.000000
 11
0.836839
 21
0.439043
 31
0.000000
  0
LINE
  8
101
 10
0.836839
 20
0.439043
 30
0.000000
 11
0.836839
 21
0.511406
 31
0.000000
  0
LINE
  8
101
 10
0.836839
 20
0.511406
 30
0.000000
 11
0.836650
 21
0.511594
 31
0.000000
  0
LINE
  8
101
 10
0.836650
 20
0.511594
 30
0.000000
 11
0.836650
 21
0.549744
 31
0.000000
  0
LINE
  8
101
 10
0.836650
 20
0.549744
 30
0.000000
 11
0.830886
 21
0.555508
 31
0.000000
  0
LINE
  8
101
 10
0.830886
 20
0.555508
 30
0.000000
 11
0.799110
 21
0.555508
 31
0.000000
  0
LINE
  8
101
 10
0.799110
 20
0.555508
 30
0.000000
 11
0.793346
 21
0.549744
 31
0.000000
  0
LINE
  8
101
 10
0.793346
 20
0.549744
 30
0.000000
 11
0.793346
 21
0.511594
 31
0.000000
  0
LINE
  8
101
 10
0.793346
 20
0.511594
 30
0.000000
 11
0.793157
 21
0.511406
 31
0.000000
  0
LINE
  8
101
 10
0.793157
 20
0.511406
 30
0.000000
 11
0.793157
 21
0.439043
 31
0.000000
  0
LINE
  8
101
 10
0.793157
 20
0.439043
 30
0.000000
 11
0.790953
 21
0.436839
 31
0.000000
  0
LINE
  8
101
 10
0.790953
 20
0.436839
 30
0.000000
 11
0.704043
 21
0.436839
 31
0.000000
  0
LINE
  8
101
 10
0.704043
 20
0.436839
 30
0.000000
 11
0.691839
 21
0.449043
 31
0.000000
  0
LINE
  8
101
 10
0.691839
 20
0.449043
 30
0.000000
 11
0.691839
 21
0.641575
 31
0.000000
  0
LINE
  8
101
 10
0.691839
 20
0.641575
 30
0.000000
 11
0.811161
 21
0.641575
 31
0.000000
  0
LINE
  8
101
 10
0.811161
 20
0.641575
 30
0.000000
 11
0.816925
 21
0.647339
 31
0.000000
  0
LINE
  8
101
 10
0.816925
 20
0.647339
 30
0.000000
 11
0.816925
 21
0.658157
 31
0.000000
  0
LINE
  8
101
 10
0.816925
 20
0.658157
 30
0.000000
 11
0.818906
 21
0.658157
 31
0.000000
  0
LINE
  8
101
 10
0.818906
 20
0.658157
 30
0.000000
 11
0.822535
 21
0.658157
 31
0.000000
  0
LINE
  8
101
 10
0.822535
 20
0.658157
 30
0.000000
 11
0.895953
 21
0.658157
 31
0.000000
  0
LINE
  8
101
 10
0.895953
 20
0.658157
 30
0.000000
 11
0.914043
 21
0.658157
 31
0.000000
  0
LINE
  8
101
 10
0.914043
 20
0.658157
 30
0.000000
 11
1.009043
 21
0.753157
 31
0.000000
  0
LINE
  8
101
 10
1.009043
 20
0.753157
 30
0.000000
 11
1.090953
 21
0.753157
 31
0.000000
  0
LINE
  8
101
 10
1.090953
 20
0.753157
 30
0.000000
 11
1.109043
 21
0.753157
 31
0.000000
  0
LINE
  8
101
 10
1.109043
 20
0.753157
 30
0.000000
 11
1.178484
 21
0.822598
 31
0.000000
  0
LINE
  8
101
 10
1.178484
 20
0.822598
 30
0.000000
 11
1.267618
 21
0.822598
 31
0.000000
  0
LINE
  8
101
 10
1.267618
 20
0.822598
 30
0.000000
 11
1.273382
 21
0.828362
 31
0.000000
  0
LINE
  8
101
 10
1.273382
 20
0.828362
 30
0.000000
 11
1.273382
 21
0.891634
 31
0.000000
  0
LINE
  8
101
 10
1.273382
 20
0.891634
 30
0.000000
 11
1.267618
 21
0.897398
 31
0.000000
  0
LINE
  8
101
 10
1.267618
 20
0.897398
 30
0.000000
 11
1.168484
 21
0.897398
 31
0.000000
  0
LINE
  8
101
 10
1.168484
 20
0.897398
 30
0.000000
 11
1.121839
 21
0.944043
 31
0.000000
  0
LINE
  8
101
 10
1.121839
 20
0.944043
 30
0.000000
 11
1.121839
 21
1.010496
 31
0.000000
  0
LINE
  8
101
 10
1.121839
 20
1.010496
 30
0.000000
 11
1.134839
 21
1.023496
 31
0.000000
  0
LINE
  8
101
 10
1.134839
 20
1.023496
 30
0.000000
 11
1.134839
 21
1.116500
 31
0.000000
  0
LINE
  8
101
 10
1.134839
 20
1.116500
 30
0.000000
 11
1.111500
 21
1.139839
 31
0.000000
  0
LINE
  8
101
 10
1.111500
 20
1.139839
 30
0.000000
 11
1.101185
 21
1.139839
 31
0.000000
  0
LINE
  8
101
 10
1.101185
 20
1.139839
 30
0.000000
 11
1.040177
 21
1.200846
 31
0.000000
  0
LINE
  8
101
 10
1.040177
 20
1.200846
 30
0.000000
 11
1.022087
 21
1.200846
 31
0.000000
  0
LINE
  8
101
 10
1.022087
 20
1.200846
 30
0.000000
 11
0.858736
 21
1.200846
 31
0.000000
  0
LINE
  8
101
 10
0.858736
 20
1.200846
 30
0.000000
 11
0.858736
 21
1.210642
 31
0.000000
  0
LINE
  8
101
 10
0.858736
 20
1.210642
 30
0.000000
 11
0.852972
 21
1.216406
 31
0.000000
  0
LINE
  8
101
 10
0.852972
 20
1.216406
 30
0.000000
 11
0.707024
 21
1.216406
 31
0.000000
  0
LINE
  8
101
 10
0.707024
 20
1.216406
 30
0.000000
 11
0.701260
 21
1.210642
 31
0.000000
  0
LINE
  8
101
 10
0.701260
 20
1.210642
 30
0.000000
 11
0.701260
 21
1.194984
 31
0.000000
  0
LINE
  8
101
 10
0.701260
 20
1.194984
 30
0.000000
 11
0.569169
 21
1.194984
 31
0.000000
  0
LINE
  8
101
 10
0.569169
 20
1.194984
 30
0.000000
 11
0.556374
 21
1.182189
 31
0.000000
  0
LINE
  8
101
 10
0.556374
 20
1.182189
 30
0.000000
 11
0.537055
 21
1.162870
 31
0.000000
  0
LINE
  8
101
 10
0.537055
 20
1.162870
 30
0.000000
 11
0.537043
 21
1.162870
 31
0.000000
  0
LINE
  8
101
 10
0.537043
 20
1.162870
 30
0.000000
 11
0.524248
 21
1.150075
 31
0.000000
  0
LINE
  8
101
 10
0.524248
 20
1.150075
 30
0.000000
 11
0.524248
 21
1.131984
 31
0.000000
  0
LINE
  8
101
 10
0.524248
 20
1.131984
 30
0.000000
 11
0.524248
 21
1.066925
 31
0.000000
  0
LINE
  8
101
 10
0.524248
 20
1.066925
 30
0.000000
 11
0.505449
 21
1.066925
 31
0.000000
  0
LINE
  8
101
 10
0.505449
 20
1.066925
 30
0.000000
 11
0.499685
 21
1.061161
 31
0.000000
  0
LINE
  8
101
 10
0.499685
 20
1.061161
 30
0.000000
 11
0.499685
 21
0.938835
 31
0.000000
  0
LINE
  8
101
 10
0.499685
 20
0.938835
 30
0.000000
 11
0.505449
 21
0.933071
 31
0.000000
  0
LINE
  8
101
 10
0.505449
 20
0.933071
 30
0.000000
 11
0.572657
 21
0.933071
 31
0.000000
  0
LINE
  8
101
 10
0.572657
 20
0.933071
 30
0.000000
 11
0.578421
 21
0.938835
 31
0.000000
  0
LINE
  8
101
 10
0.250311
 20
1.061161
 30
0.000000
 11
0.244547
 21
1.066925
 31
0.000000
  0
LINE
  8
101
 10
0.244547
 20
1.066925
 30
0.000000
 11
0.177339
 21
1.066925
 31
0.000000
  0
LINE
  8
101
 10
0.177339
 20
1.066925
 30
0.000000
 11
0.171575
 21
1.061161
 31
0.000000
  0
LINE
  8
101
 10
0.171575
 20
1.061161
 30
0.000000
 11
0.171575
 21
0.938835
 31
0.000000
  0
LINE
  8
101
 10
0.171575
 20
0.938835
 30
0.000000
 11
0.177339
 21
0.933071
 31
0.000000
  0
LINE
  8
101
 10
0.177339
 20
0.933071
 30
0.000000
 11
0.221043
 21
0.933071
 31
0.000000
  0
LINE
  8
101
 10
0.221043
 20
0.933071
 30
0.000000
 11
0.275953
 21
0.878157
 31
0.000000
  0
LINE
  8
101
 10
0.275953
 20
0.878157
 30
0.000000
 11
0.294043
 21
0.878157
 31
0.000000
  0
LINE
  8
101
 10
0.294043
 20
0.878157
 30
0.000000
 11
0.365953
 21
0.878157
 31
0.000000
  0
LINE
  8
101
 10
0.365953
 20
0.878157
 30
0.000000
 11
0.443157
 21
0.800953
 31
0.000000
  0
LINE
  8
101
 10
0.443157
 20
0.800953
 30
0.000000
 11
0.443157
 21
0.714039
 31
0.000000
  0
LINE
  8
101
 10
0.443157
 20
0.714039
 30
0.000000
 11
0.425953
 21
0.696839
 31
0.000000
  0
LINE
  8
101
 10
0.425953
 20
0.696839
 30
0.000000
 11
0.368591
 21
0.696839
 31
0.000000
  0
LINE
  8
101
 10
0.368591
 20
0.696839
 30
0.000000
 11
0.368402
 21
0.696650
 31
0.000000
  0
LINE
  8
101
 10
0.368402
 20
0.696650
 30
0.000000
 11
0.330252
 21
0.696650
 31
0.000000
  0
LINE
  8
101
 10
0.330252
 20
0.696650
 30
0.000000
 11
0.324488
 21
0.690886
 31
0.000000
  0
LINE
  8
101
 10
0.324488
 20
0.690886
 30
0.000000
 11
0.324488
 21
0.659110
 31
0.000000
  0
LINE
  8
101
 10
0.324488
 20
0.659110
 30
0.000000
 11
0.330252
 21
0.653346
 31
0.000000
  0
LINE
  8
101
 10
0.330252
 20
0.653346
 30
0.000000
 11
0.368402
 21
0.653346
 31
0.000000
  0
LINE
  8
101
 10
0.368402
 20
0.653346
 30
0.000000
 11
0.368591
 21
0.653157
 31
0.000000
  0
LINE
  8
101
 10
0.368591
 20
0.653157
 30
0.000000
 11
0.425953
 21
0.653157
 31
0.000000
  0
LINE
  8
101
 10
0.425953
 20
0.653157
 30
0.000000
 11
0.444043
 21
0.653157
 31
0.000000
  0
LINE
  8
101
 10
0.444043
 20
0.653157
 30
0.000000
 11
0.474039
 21
0.683157
 31
0.000000
  0
LINE
  8
101
 10
0.474039
 20
0.683157
 30
0.000000
 11
0.474043
 21
0.683157
 31
0.000000
  0
LINE
  8
101
 10
0.474043
 20
0.683157
 30
0.000000
 11
0.486839
 21
0.695953
 31
0.000000
  0
LINE
  8
101
 10
0.486839
 20
0.695953
 30
0.000000
 11
0.486839
 21
0.800953
 31
0.000000
  0
LINE
  8
101
 10
0.486839
 20
0.800953
 30
0.000000
 11
0.486839
 21
0.819043
 31
0.000000
  0
LINE
  8
101
 10
0.486839
 20
0.819043
 30
0.000000
 11
0.396839
 21
0.909043
 31
0.000000
  0
LINE
  8
101
 10
0.396839
 20
0.909043
 30
0.000000
 11
0.384043
 21
0.921839
 31
0.000000
  0
LINE
  8
101
 10
0.384043
 20
0.921839
 30
0.000000
 11
0.294043
 21
0.921839
 31
0.000000
  0
LINE
  8
101
 10
0.294043
 20
0.921839
 30
0.000000
 11
0.250311
 21
0.965567
 31
0.000000
  0
LINE
  8
101
 10
0.250311
 20
0.965567
 30
0.000000
 11
0.250311
 21
1.061161
 31
0.000000
  0
LINE
  8
101
 10
0.246925
 20
0.892657
 30
0.000000
 11
0.241161
 21
0.898421
 31
0.000000
  0
LINE
  8
101
 10
0.241161
 20
0.898421
 30
0.000000
 11
0.118835
 21
0.898421
 31
0.000000
  0
LINE
  8
101
 10
0.118835
 20
0.898421
 30
0.000000
 11
0.113071
 21
0.892657
 31
0.000000
  0
LINE
  8
101
 10
0.113071
 20
0.892657
 30
0.000000
 11
0.113071
 21
0.825449
 31
0.000000
  0
LINE
  8
101
 10
0.113071
 20
0.825449
 30
0.000000
 11
0.118835
 21
0.819685
 31
0.000000
  0
LINE
  8
101
 10
0.118835
 20
0.819685
 30
0.000000
 11
0.241161
 21
0.819685
 31
0.000000
  0
LINE
  8
101
 10
0.241161
 20
0.819685
 30
0.000000
 11
0.246610
 21
0.825138
 31
0.000000
  0
LINE
  8
101
 10
0.246610
 20
0.825138
 30
0.000000
 11
0.327677
 21
0.744071
 31
0.000000
  0
LINE
  8
101
 10
0.327677
 20
0.744071
 30
0.000000
 11
0.324488
 21
0.740886
 31
0.000000
  0
LINE
  8
101
 10
0.324488
 20
0.740886
 30
0.000000
 11
0.324488
 21
0.709110
 31
0.000000
  0
LINE
  8
101
 10
0.324488
 20
0.709110
 30
0.000000
 11
0.330252
 21
0.703346
 31
0.000000
  0
LINE
  8
101
 10
0.330252
 20
0.703346
 30
0.000000
 11
0.368402
 21
0.703346
 31
0.000000
  0
LINE
  8
101
 10
0.368402
 20
0.703346
 30
0.000000
 11
0.368591
 21
0.703157
 31
0.000000
  0
LINE
  8
101
 10
0.368591
 20
0.703157
 30
0.000000
 11
0.386681
 21
0.703157
 31
0.000000
  0
LINE
  8
101
 10
0.386681
 20
0.703157
 30
0.000000
 11
0.386870
 21
0.703346
 31
0.000000
  0
LINE
  8
101
 10
0.386870
 20
0.703346
 30
0.000000
 11
0.425020
 21
0.703346
 31
0.000000
  0
LINE
  8
101
 10
0.425020
 20
0.703346
 30
0.000000
 11
0.430783
 21
0.709110
 31
0.000000
  0
LINE
  8
101
 10
0.430783
 20
0.709110
 30
0.000000
 11
0.430783
 21
0.740886
 31
0.000000
  0
LINE
  8
101
 10
0.430783
 20
0.740886
 30
0.000000
 11
0.425020
 21
0.746650
 31
0.000000
  0
LINE
  8
101
 10
0.425020
 20
0.746650
 30
0.000000
 11
0.386870
 21
0.746650
 31
0.000000
  0
LINE
  8
101
 10
0.386870
 20
0.746650
 30
0.000000
 11
0.274476
 21
0.859043
 31
0.000000
  0
LINE
  8
101
 10
0.274476
 20
0.859043
 30
0.000000
 11
0.261681
 21
0.871839
 31
0.000000
  0
LINE
  8
101
 10
0.261681
 20
0.871839
 30
0.000000
 11
0.246925
 21
0.871839
 31
0.000000
  0
LINE
  8
101
 10
0.246925
 20
0.871839
 30
0.000000
 11
0.246925
 21
0.892657
 31
0.000000
  0
LINE
  8
101
 10
0.246925
 20
0.707339
 30
0.000000
 11
0.246925
 21
0.713157
 31
0.000000
  0
LINE
  8
101
 10
0.246925
 20
0.713157
 30
0.000000
 11
0.255953
 21
0.713157
 31
0.000000
  0
LINE
  8
101
 10
0.255953
 20
0.713157
 30
0.000000
 11
0.263157
 21
0.705953
 31
0.000000
  0
LINE
  8
101
 10
0.263157
 20
0.705953
 30
0.000000
 11
0.263157
 21
0.650953
 31
0.000000
  0
LINE
  8
101
 10
0.263157
 20
0.650953
 30
0.000000
 11
0.275953
 21
0.638157
 31
0.000000
  0
LINE
  8
101
 10
0.275953
 20
0.638157
 30
0.000000
 11
0.310953
 21
0.603157
 31
0.000000
  0
LINE
  8
101
 10
0.310953
 20
0.603157
 30
0.000000
 11
0.329043
 21
0.603157
 31
0.000000
  0
LINE
  8
101
 10
0.329043
 20
0.603157
 30
0.000000
 11
0.386681
 21
0.603157
 31
0.000000
  0
LINE
  8
101
 10
0.386681
 20
0.603157
 30
0.000000
 11
0.386870
 21
0.603346
 31
0.000000
  0
LINE
  8
101
 10
0.386870
 20
0.603346
 30
0.000000
 11
0.425020
 21
0.603346
 31
0.000000
  0
LINE
  8
101
 10
0.425020
 20
0.603346
 30
0.000000
 11
0.430783
 21
0.609110
 31
0.000000
  0
LINE
  8
101
 10
0.430783
 20
0.609110
 30
0.000000
 11
0.430783
 21
0.640886
 31
0.000000
  0
LINE
  8
101
 10
0.430783
 20
0.640886
 30
0.000000
 11
0.425020
 21
0.646650
 31
0.000000
  0
LINE
  8
101
 10
0.425020
 20
0.646650
 30
0.000000
 11
0.386870
 21
0.646650
 31
0.000000
  0
LINE
  8
101
 10
0.386870
 20
0.646650
 30
0.000000
 11
0.386681
 21
0.646839
 31
0.000000
  0
LINE
  8
101
 10
0.386681
 20
0.646839
 30
0.000000
 11
0.329043
 21
0.646839
 31
0.000000
  0
LINE
  8
101
 10
0.329043
 20
0.646839
 30
0.000000
 11
0.306839
 21
0.669043
 31
0.000000
  0
LINE
  8
101
 10
0.306839
 20
0.669043
 30
0.000000
 11
0.306839
 21
0.705953
 31
0.000000
  0
LINE
  8
101
 10
0.306839
 20
0.705953
 30
0.000000
 11
0.306839
 21
0.724043
 31
0.000000
  0
LINE
  8
101
 10
0.306839
 20
0.724043
 30
0.000000
 11
0.286839
 21
0.744043
 31
0.000000
  0
LINE
  8
101
 10
0.286839
 20
0.744043
 30
0.000000
 11
0.274043
 21
0.756839
 31
0.000000
  0
LINE
  8
101
 10
0.274043
 20
0.756839
 30
0.000000
 11
0.246925
 21
0.756839
 31
0.000000
  0
LINE
  8
101
 10
0.246925
 20
0.756839
 30
0.000000
 11
0.246925
 21
0.774547
 31
0.000000
  0
LINE
  8
101
 10
0.246925
 20
0.774547
 30
0.000000
 11
0.241161
 21
0.780311
 31
0.000000
  0
LINE
  8
101
 10
0.241161
 20
0.780311
 30
0.000000
 11
0.118835
 21
0.780311
 31
0.000000
  0
LINE
  8
101
 10
0.118835
 20
0.780311
 30
0.000000
 11
0.113071
 21
0.774547
 31
0.000000
  0
LINE
  8
101
 10
0.113071
 20
0.774547
 30
0.000000
 11
0.113071
 21
0.707339
 31
0.000000
  0
LINE
  8
101
 10
0.113071
 20
0.707339
 30
0.000000
 11
0.118835
 21
0.701575
 31
0.000000
  0
LINE
  8
101
 10
0.118835
 20
0.701575
 30
0.000000
 11
0.241161
 21
0.701575
 31
0.000000
  0
LINE
  8
101
 10
0.241161
 20
0.701575
 30
0.000000
 11
0.246925
 21
0.707339
 31
0.000000
  0
LINE
  8
101
 10
1.084406
 20
0.828362
 30
0.000000
 11
1.084406
 21
0.891634
 31
0.000000
  0
LINE
  8
101
 10
1.084406
 20
0.891634
 30
0.000000
 11
1.078642
 21
0.897398
 31
0.000000
  0
LINE
  8
101
 10
1.078642
 20
0.897398
 30
0.000000
 11
0.952378
 21
0.897398
 31
0.000000
  0
LINE
  8
101
 10
0.952378
 20
0.897398
 30
0.000000
 11
0.946614
 21
0.891634
 31
0.000000
  0
LINE
  8
101
 10
0.946614
 20
0.891634
 30
0.000000
 11
0.946614
 21
0.881839
 31
0.000000
  0
LINE
  8
101
 10
0.946614
 20
0.881839
 30
0.000000
 11
0.901846
 21
0.881839
 31
0.000000
  0
LINE
  8
101
 10
0.901846
 20
0.881839
 30
0.000000
 11
0.901846
 21
0.955059
 31
0.000000
  0
LINE
  8
101
 10
0.901846
 20
0.955059
 30
0.000000
 11
0.896083
 21
0.960823
 31
0.000000
  0
LINE
  8
101
 10
0.896083
 20
0.960823
 30
0.000000
 11
0.893909
 21
0.960823
 31
0.000000
  0
LINE
  8
101
 10
0.893909
 20
0.960823
 30
0.000000
 11
0.893909
 21
0.982618
 31
0.000000
  0
LINE
  8
101
 10
0.893909
 20
0.982618
 30
0.000000
 11
0.881114
 21
0.995413
 31
0.000000
  0
LINE
  8
101
 10
0.881114
 20
0.995413
 30
0.000000
 11
0.881110
 21
0.995413
 31
0.000000
  0
LINE
  8
101
 10
0.881110
 20
0.995413
 30
0.000000
 11
0.832571
 21
1.043957
 31
0.000000
  0
LINE
  8
101
 10
0.832571
 20
1.043957
 30
0.000000
 11
0.814480
 21
1.043957
 31
0.000000
  0
LINE
  8
101
 10
0.814480
 20
1.043957
 30
0.000000
 11
0.645634
 21
1.043957
 31
0.000000
  0
LINE
  8
101
 10
0.645634
 20
1.043957
 30
0.000000
 11
0.632839
 21
1.031161
 31
0.000000
  0
LINE
  8
101
 10
0.632839
 20
1.031161
 30
0.000000
 11
0.593205
 21
0.991528
 31
0.000000
  0
LINE
  8
101
 10
0.593205
 20
0.991528
 30
0.000000
 11
0.593205
 21
0.973437
 31
0.000000
  0
LINE
  8
101
 10
0.593205
 20
0.973437
 30
0.000000
 11
0.593205
 21
0.800996
 31
0.000000
  0
LINE
  8
101
 10
0.593205
 20
0.800996
 30
0.000000
 11
0.457839
 21
0.936366
 31
0.000000
  0
LINE
  8
101
 10
0.457839
 20
0.936366
 30
0.000000
 11
0.460311
 21
0.938835
 31
0.000000
  0
LINE
  8
101
 10
0.460311
 20
0.938835
 30
0.000000
 11
0.460311
 21
1.061161
 31
0.000000
  0
LINE
  8
101
 10
0.460311
 20
1.061161
 30
0.000000
 11
0.454547
 21
1.066925
 31
0.000000
  0
LINE
  8
101
 10
0.454547
 20
1.066925
 30
0.000000
 11
0.387339
 21
1.066925
 31
0.000000
  0
LINE
  8
101
 10
0.387339
 20
1.066925
 30
0.000000
 11
0.381575
 21
1.061161
 31
0.000000
  0
LINE
  8
101
 10
0.381575
 20
1.061161
 30
0.000000
 11
0.381575
 21
1.021839
 31
0.000000
  0
LINE
  8
101
 10
0.381575
 20
1.021839
 30
0.000000
 11
0.368421
 21
1.021839
 31
0.000000
  0
LINE
  8
101
 10
0.368421
 20
1.021839
 30
0.000000
 11
0.368421
 21
1.061161
 31
0.000000
  0
LINE
  8
101
 10
0.368421
 20
1.061161
 30
0.000000
 11
0.362657
 21
1.066925
 31
0.000000
  0
LINE
  8
101
 10
0.362657
 20
1.066925
 30
0.000000
 11
0.347028
 21
1.066925
 31
0.000000
  0
LINE
  8
101
 10
0.347028
 20
1.066925
 30
0.000000
 11
0.346839
 21
1.067677
 31
0.000000
  0
LINE
  8
101
 10
0.346839
 20
1.067677
 30
0.000000
 11
0.346839
 21
1.074043
 31
0.000000
  0
LINE
  8
101
 10
0.346839
 20
1.074043
 30
0.000000
 11
0.344717
 21
1.076165
 31
0.000000
  0
LINE
  8
101
 10
0.344717
 20
1.076165
 30
0.000000
 11
0.343563
 21
1.077315
 31
0.000000
  0
LINE
  8
101
 10
0.343563
 20
1.077315
 30
0.000000
 11
0.306839
 21
1.114043
 31
0.000000
  0
LINE
  8
101
 10
0.306839
 20
1.114043
 30
0.000000
 11
0.294043
 21
1.126839
 31
0.000000
  0
LINE
  8
101
 10
0.294043
 20
1.126839
 30
0.000000
 11
0.159043
 21
1.126839
 31
0.000000
  0
LINE
  8
101
 10
0.159043
 20
1.126839
 30
0.000000
 11
0.140953
 21
1.126839
 31
0.000000
  0
LINE
  8
101
 10
0.140953
 20
1.126839
 30
0.000000
 11
0.060953
 21
1.046839
 31
0.000000
  0
LINE
  8
101
 10
0.060953
 20
1.046839
 30
0.000000
 11
0.048157
 21
1.034043
 31
0.000000
  0
LINE
  8
101
 10
0.048157
 20
1.034043
 30
0.000000
 11
0.048157
 21
0.209043
 31
0.000000
  0
LINE
  8
101
 10
0.048157
 20
0.209043
 30
0.000000
 11
0.048157
 21
0.190980
 31
0.000000
  0
LINE
  8
101
 10
0.048157
 20
0.190980
 30
0.000000
 11
0.048157
 21
0.190953
 31
0.000000
  0
LINE
  8
101
 10
0.048157
 20
0.190953
 30
0.000000
 11
0.054705
 21
0.184406
 31
0.000000
  0
LINE
  8
101
 10
0.054705
 20
0.184406
 30
0.000000
 11
0.193638
 21
0.044890
 31
0.000000
  0
LINE
  8
101
 10
0.193638
 20
0.044890
 30
0.000000
 11
0.193638
 21
0.044862
 31
0.000000
  0
LINE
  8
101
 10
0.193638
 20
0.044862
 30
0.000000
 11
0.200000
 21
0.038504
 31
0.000000
  0
LINE
  8
101
 10
0.200000
 20
0.038504
 30
0.000000
 11
0.200020
 21
0.038480
 31
0.000000
  0
LINE
  8
101
 10
0.200020
 20
0.038480
 30
0.000000
 11
0.203921
 21
0.034583
 31
0.000000
  0
LINE
  8
101
 10
0.203921
 20
0.034583
 30
0.000000
 11
0.206429
 21
0.032071
 31
0.000000
  0
LINE
  8
101
 10
0.206429
 20
0.032071
 30
0.000000
 11
0.206433
 21
0.032067
 31
0.000000
  0
LINE
  8
101
 10
0.206433
 20
0.032067
 30
0.000000
 11
0.222083
 21
0.032067
 31
0.000000
  0
LINE
  8
101
 10
0.222083
 20
0.032067
 30
0.000000
 11
0.719642
 21
0.031945
 31
0.000000
  0
LINE
  8
101
 10
0.719642
 20
0.031945
 30
0.000000
 11
0.719642
 21
0.031941
 31
0.000000
  0
LINE
  8
101
 10
0.719642
 20
0.031941
 30
0.000000
 11
0.728421
 21
0.031941
 31
0.000000
  0
LINE
  8
101
 10
0.728421
 20
0.031941
 30
0.000000
 11
0.728685
 21
0.031941
 31
0.000000
  0
LINE
  8
101
 10
0.728685
 20
0.031941
 30
0.000000
 11
0.734295
 21
0.031941
 31
0.000000
  0
LINE
  8
101
 10
0.734295
 20
0.031941
 30
0.000000
 11
0.737728
 21
0.031941
 31
0.000000
  0
LINE
  8
101
 10
0.737728
 20
0.031941
 30
0.000000
 11
0.737732
 21
0.031941
 31
0.000000
  0
LINE
  8
101
 10
0.737732
 20
0.031941
 30
0.000000
 11
0.743343
 21
0.037555
 31
0.000000
  0
LINE
  8
101
 10
0.743343
 20
0.037555
 30
0.000000
 11
0.874039
 21
0.168157
 31
0.000000
  0
LINE
  8
101
 10
0.874039
 20
0.168157
 30
0.000000
 11
0.874043
 21
0.168157
 31
0.000000
  0
LINE
  8
101
 10
0.874043
 20
0.168157
 30
0.000000
 11
0.880295
 21
0.174409
 31
0.000000
  0
LINE
  8
101
 10
0.880295
 20
0.174409
 30
0.000000
 11
0.880437
 21
0.174551
 31
0.000000
  0
LINE
  8
101
 10
0.880437
 20
0.174551
 30
0.000000
 11
0.884484
 21
0.178598
 31
0.000000
  0
LINE
  8
101
 10
0.884484
 20
0.178598
 30
0.000000
 11
0.886839
 21
0.180953
 31
0.000000
  0
LINE
  8
101
 10
0.886839
 20
0.180953
 30
0.000000
 11
0.886839
 21
0.258157
 31
0.000000
  0
LINE
  8
101
 10
0.886839
 20
0.258157
 30
0.000000
 11
0.893346
 21
0.258157
 31
0.000000
  0
LINE
  8
101
 10
0.893346
 20
0.258157
 30
0.000000
 11
0.893346
 21
0.250252
 31
0.000000
  0
LINE
  8
101
 10
0.893346
 20
0.250252
 30
0.000000
 11
0.899110
 21
0.244488
 31
0.000000
  0
LINE
  8
101
 10
0.899110
 20
0.244488
 30
0.000000
 11
0.930886
 21
0.244488
 31
0.000000
  0
LINE
  8
101
 10
0.930886
 20
0.244488
 30
0.000000
 11
0.936650
 21
0.250252
 31
0.000000
  0
LINE
  8
101
 10
0.936650
 20
0.250252
 30
0.000000
 11
0.936650
 21
0.294772
 31
0.000000
  0
LINE
  8
101
 10
0.936650
 20
0.294772
 30
0.000000
 11
0.936839
 21
0.296181
 31
0.000000
  0
LINE
  8
101
 10
0.936839
 20
0.296181
 30
0.000000
 11
0.936839
 21
0.306681
 31
0.000000
  0
LINE
  8
101
 10
0.936839
 20
0.306681
 30
0.000000
 11
0.936650
 21
0.306870
 31
0.000000
  0
LINE
  8
101
 10
0.936650
 20
0.306870
 30
0.000000
 11
0.936650
 21
0.345020
 31
0.000000
  0
LINE
  8
101
 10
0.936650
 20
0.345020
 30
0.000000
 11
0.930886
 21
0.350783
 31
0.000000
  0
LINE
  8
101
 10
0.930886
 20
0.350783
 30
0.000000
 11
0.899110
 21
0.350783
 31
0.000000
  0
LINE
  8
101
 10
0.899110
 20
0.350783
 30
0.000000
 11
0.893346
 21
0.345020
 31
0.000000
  0
LINE
  8
101
 10
0.893346
 20
0.345020
 30
0.000000
 11
0.893346
 21
0.301839
 31
0.000000
  0
LINE
  8
101
 10
0.893346
 20
0.301839
 30
0.000000
 11
0.886839
 21
0.301839
 31
0.000000
  0
LINE
  8
101
 10
0.886839
 20
0.301839
 30
0.000000
 11
0.886839
 21
0.306681
 31
0.000000
  0
LINE
  8
101
 10
0.886839
 20
0.306681
 30
0.000000
 11
0.886650
 21
0.306870
 31
0.000000
  0
LINE
  8
101
 10
0.886650
 20
0.306870
 30
0.000000
 11
0.886650
 21
0.345020
 31
0.000000
  0
LINE
  8
101
 10
0.886650
 20
0.345020
 30
0.000000
 11
0.880886
 21
0.350783
 31
0.000000
  0
LINE
  8
101
 10
0.880886
 20
0.350783
 30
0.000000
 11
0.849110
 21
0.350783
 31
0.000000
  0
LINE
  8
101
 10
0.849110
 20
0.350783
 30
0.000000
 11
0.843346
 21
0.345020
 31
0.000000
  0
LINE
  8
101
 10
0.843346
 20
0.345020
 30
0.000000
 11
0.843346
 21
0.306870
 31
0.000000
  0
LINE
  8
101
 10
0.843346
 20
0.306870
 30
0.000000
 11
0.843157
 21
0.306681
 31
0.000000
  0
LINE
  8
101
 10
0.843157
 20
0.306681
 30
0.000000
 11
0.843157
 21
0.296181
 31
0.000000
  0
LINE
  8
101
 10
0.843157
 20
0.296181
 30
0.000000
 11
0.843157
 21
0.199047
 31
0.000000
  0
LINE
  8
101
 10
0.843157
 20
0.199047
 30
0.000000
 11
0.719650
 21
0.075622
 31
0.000000
  0
LINE
  8
101
 10
0.719650
 20
0.075622
 30
0.000000
 11
0.224551
 21
0.075744
 31
0.000000
  0
LINE
  8
101
 10
0.224551
 20
0.075744
 30
0.000000
 11
0.091839
 21
0.209016
 31
0.000000
  0
LINE
  8
101
 10
0.091839
 20
0.209016
 30
0.000000
 11
0.091839
 21
1.015953
 31
0.000000
  0
LINE
  8
101
 10
0.091839
 20
1.015953
 30
0.000000
 11
0.159043
 21
1.083157
 31
0.000000
  0
LINE
  8
101
 10
0.159043
 20
1.083157
 30
0.000000
 11
0.275953
 21
1.083157
 31
0.000000
  0
LINE
  8
101
 10
0.275953
 20
1.083157
 30
0.000000
 11
0.293819
 21
1.065291
 31
0.000000
  0
LINE
  8
101
 10
0.293819
 20
1.065291
 30
0.000000
 11
0.289685
 21
1.061161
 31
0.000000
  0
LINE
  8
101
 10
0.289685
 20
1.061161
 30
0.000000
 11
0.289685
 21
0.938835
 31
0.000000
  0
LINE
  8
101
 10
0.289685
 20
0.938835
 30
0.000000
 11
0.295449
 21
0.933071
 31
0.000000
  0
LINE
  8
101
 10
0.295449
 20
0.933071
 30
0.000000
 11
0.362657
 21
0.933071
 31
0.000000
  0
LINE
  8
101
 10
0.362657
 20
0.933071
 30
0.000000
 11
0.368421
 21
0.938835
 31
0.000000
  0
LINE
  8
101
 10
0.368421
 20
0.938835
 30
0.000000
 11
0.368421
 21
0.978157
 31
0.000000
  0
LINE
  8
101
 10
0.368421
 20
0.978157
 30
0.000000
 11
0.381575
 21
0.978157
 31
0.000000
  0
LINE
  8
101
 10
0.381575
 20
0.978157
 30
0.000000
 11
0.381575
 21
0.938835
 31
0.000000
  0
LINE
  8
101
 10
0.381575
 20
0.938835
 30
0.000000
 11
0.387339
 21
0.933071
 31
0.000000
  0
LINE
  8
101
 10
0.387339
 20
0.933071
 30
0.000000
 11
0.413157
 21
0.933071
 31
0.000000
  0
LINE
  8
101
 10
0.413157
 20
0.933071
 30
0.000000
 11
0.413157
 21
0.919276
 31
0.000000
  0
LINE
  8
101
 10
0.413157
 20
0.919276
 30
0.000000
 11
0.425953
 21
0.906480
 31
0.000000
  0
LINE
  8
101
 10
0.425953
 20
0.906480
 30
0.000000
 11
0.585598
 21
0.746839
 31
0.000000
  0
LINE
  8
101
 10
0.585598
 20
0.746839
 30
0.000000
 11
0.573315
 21
0.746839
 31
0.000000
  0
LINE
  8
101
 10
0.573315
 20
0.746839
 30
0.000000
 11
0.573126
 21
0.746650
 31
0.000000
  0
LINE
  8
101
 10
0.573126
 20
0.746650
 30
0.000000
 11
0.534976
 21
0.746650
 31
0.000000
  0
LINE
  8
101
 10
0.534976
 20
0.746650
 30
0.000000
 11
0.529213
 21
0.740886
 31
0.000000
  0
LINE
  8
101
 10
0.529213
 20
0.740886
 30
0.000000
 11
0.529213
 21
0.709110
 31
0.000000
  0
LINE
  8
101
 10
0.529213
 20
0.709110
 30
0.000000
 11
0.534976
 21
0.703346
 31
0.000000
  0
LINE
  8
101
 10
0.534976
 20
0.703346
 30
0.000000
 11
0.573126
 21
0.703346
 31
0.000000
  0
LINE
  8
101
 10
0.573126
 20
0.703346
 30
0.000000
 11
0.573315
 21
0.703157
 31
0.000000
  0
LINE
  8
101
 10
0.573315
 20
0.703157
 30
0.000000
 11
0.624043
 21
0.703157
 31
0.000000
  0
LINE
  8
101
 10
0.624043
 20
0.703157
 30
0.000000
 11
0.624232
 21
0.703346
 31
0.000000
  0
LINE
  8
101
 10
0.624232
 20
0.703346
 30
0.000000
 11
0.629744
 21
0.703346
 31
0.000000
  0
LINE
  8
101
 10
0.629744
 20
0.703346
 30
0.000000
 11
0.635508
 21
0.709110
 31
0.000000
  0
LINE
  8
101
 10
0.635508
 20
0.709110
 30
0.000000
 11
0.635508
 21
0.714622
 31
0.000000
  0
LINE
  8
101
 10
0.635508
 20
0.714622
 30
0.000000
 11
0.636839
 21
0.715953
 31
0.000000
  0
LINE
  8
101
 10
0.636839
 20
0.715953
 30
0.000000
 11
0.636886
 21
0.716000
 31
0.000000
  0
LINE
  8
101
 10
0.636886
 20
0.716000
 30
0.000000
 11
0.636886
 21
0.734091
 31
0.000000
  0
LINE
  8
101
 10
0.636886
 20
0.734091
 30
0.000000
 11
0.636886
 21
0.759043
 31
0.000000
  0
LINE
  8
101
 10
0.636886
 20
0.759043
 30
0.000000
 11
0.636886
 21
0.973437
 31
0.000000
  0
LINE
  8
101
 10
0.636886
 20
0.973437
 30
0.000000
 11
0.663724
 21
1.000276
 31
0.000000
  0
LINE
  8
101
 10
0.663724
 20
1.000276
 30
0.000000
 11
0.814480
 21
1.000276
 31
0.000000
  0
LINE
  8
101
 10
0.814480
 20
1.000276
 30
0.000000
 11
0.850228
 21
0.964531
 31
0.000000
  0
LINE
  8
101
 10
0.850228
 20
0.964531
 30
0.000000
 11
0.850228
 21
0.960823
 31
0.000000
  0
LINE
  8
101
 10
0.850228
 20
0.960823
 30
0.000000
 11
0.845929
 21
0.960823
 31
0.000000
  0
LINE
  8
101
 10
0.845929
 20
0.960823
 30
0.000000
 11
0.840165
 21
0.955059
 31
0.000000
  0
LINE
  8
101
 10
0.840165
 20
0.955059
 30
0.000000
 11
0.840165
 21
0.860906
 31
0.000000
  0
LINE
  8
101
 10
0.840165
 20
0.860906
 30
0.000000
 11
0.845929
 21
0.855142
 31
0.000000
  0
LINE
  8
101
 10
0.845929
 20
0.855142
 30
0.000000
 11
0.858157
 21
0.855142
 31
0.000000
  0
LINE
  8
101
 10
0.858157
 20
0.855142
 30
0.000000
 11
0.858157
 21
0.850953
 31
0.000000
  0
LINE
  8
101
 10
0.858157
 20
0.850953
 30
0.000000
 11
0.870953
 21
0.838157
 31
0.000000
  0
LINE
  8
101
 10
0.870953
 20
0.838157
 30
0.000000
 11
0.946614
 21
0.838157
 31
0.000000
  0
LINE
  8
101
 10
0.946614
 20
0.838157
 30
0.000000
 11
0.946614
 21
0.828362
 31
0.000000
  0
LINE
  8
101
 10
0.946614
 20
0.828362
 30
0.000000
 11
0.952378
 21
0.822598
 31
0.000000
  0
LINE
  8
101
 10
0.952378
 20
0.822598
 30
0.000000
 11
1.078642
 21
0.822598
 31
0.000000
  0
LINE
  8
101
 10
1.078642
 20
0.822598
 30
0.000000
 11
1.084406
 21
0.828362
 31
0.000000
  0
LINE
  8
101
 10
1.401839
 20
0.940953
 30
0.000000
 11
1.401839
 21
0.959043
 31
0.000000
  0
LINE
  8
101
 10
1.401839
 20
0.959043
 30
0.000000
 11
1.334839
 21
1.026039
 31
0.000000
  0
LINE
  8
101
 10
1.334839
 20
1.026039
 30
0.000000
 11
1.334839
 21
1.116500
 31
0.000000
  0
LINE
  8
101
 10
1.334839
 20
1.116500
 30
0.000000
 11
1.311500
 21
1.139839
 31
0.000000
  0
LINE
  8
101
 10
1.311500
 20
1.139839
 30
0.000000
 11
1.278496
 21
1.139839
 31
0.000000
  0
LINE
  8
101
 10
1.278496
 20
1.139839
 30
0.000000
 11
1.255157
 21
1.116500
 31
0.000000
  0
LINE
  8
101
 10
1.255157
 20
1.116500
 30
0.000000
 11
1.255157
 21
1.023496
 31
0.000000
  0
LINE
  8
101
 10
1.255157
 20
1.023496
 30
0.000000
 11
1.278496
 21
1.000157
 31
0.000000
  0
LINE
  8
101
 10
1.278496
 20
1.000157
 30
0.000000
 11
1.298957
 21
1.000157
 31
0.000000
  0
LINE
  8
101
 10
1.298957
 20
1.000157
 30
0.000000
 11
1.358157
 21
0.940953
 31
0.000000
  0
LINE
  8
101
 10
1.358157
 20
0.940953
 30
0.000000
 11
1.358157
 21
0.599043
 31
0.000000
  0
LINE
  8
101
 10
1.358157
 20
0.599043
 30
0.000000
 11
1.248953
 21
0.489839
 31
0.000000
  0
LINE
  8
101
 10
1.248953
 20
0.489839
 30
0.000000
 11
1.193496
 21
0.489839
 31
0.000000
  0
LINE
  8
101
 10
1.193496
 20
0.489839
 30
0.000000
 11
1.170157
 21
0.466500
 31
0.000000
  0
LINE
  8
101
 10
1.170157
 20
0.466500
 30
0.000000
 11
1.170157
 21
0.433496
 31
0.000000
  0
LINE
  8
101
 10
1.170157
 20
0.433496
 30
0.000000
 11
1.193496
 21
0.410157
 31
0.000000
  0
LINE
  8
101
 10
1.193496
 20
0.410157
 30
0.000000
 11
1.286500
 21
0.410157
 31
0.000000
  0
LINE
  8
101
 10
1.286500
 20
0.410157
 30
0.000000
 11
1.309839
 21
0.433496
 31
0.000000
  0
LINE
  8
101
 10
1.309839
 20
0.433496
 30
0.000000
 11
1.309839
 21
0.466500
 31
0.000000
  0
LINE
  8
101
 10
1.309839
 20
0.466500
 30
0.000000
 11
1.298610
 21
0.477724
 31
0.000000
  0
LINE
  8
101
 10
1.298610
 20
0.477724
 30
0.000000
 11
1.401839
 21
0.580953
 31
0.000000
  0
LINE
  8
101
 10
1.401839
 20
0.580953
 30
0.000000
 11
1.401839
 21
0.599043
 31
0.000000
  0
LINE
  8
101
 10
1.401839
 20
0.599043
 30
0.000000
 11
1.401839
 21
0.940953
 31
0.000000
  0
ENDSEC
  0
EOF
